<svg xmlns="http://www.w3.org/2000/svg" height="24" width="24" viewBox="0 0 24 24"><line x1="20" y1="5" x2="23" y2="5" fill="none" stroke="#61616b" stroke-width="2"></line><path d="M16,9H3A2,2,0,0,1,1,7V3A2,2,0,0,1,3,1H16l4,1V8Z" fill="none" stroke="#61616b" stroke-width="2"></path><path d="M14.283,18.755l-3.145-.45a2,2,0,0,1-1.669-2.413L11,9H5L3.207,17.071a2,2,0,0,1-1.058,1.355l-.043.021A2,2,0,0,0,1,20.236V23H16V20.735A2,2,0,0,0,14.283,18.755Z" fill="none" stroke="#61616b" stroke-width="2" data-cap="butt"></path><line x1="16" y1="1" x2="16" y2="9" fill="none" stroke="#61616b" stroke-width="2" data-cap="butt"></line><line x1="5" y1="5" x2="7" y2="5" fill="none" stroke="#61616b" stroke-width="2" data-color="color-2"></line></svg>