<svg xmlns="http://www.w3.org/2000/svg" height="24" width="24" viewBox="0 0 24 24"><path d="M12,10c1.732,1,.732,2.732,2.464,3.732a2,2,0,1,0,2-3.464C14.732,9.268,13.732,11,12,10" fill="none" stroke="#61616b" stroke-width="2" data-cap="butt" data-color="color-2"></path><circle cx="12" cy="10" r="9" fill="none" stroke="#61616b" stroke-width="2" data-cap="butt"></circle><line x1="12" y1="19" x2="12" y2="23" fill="none" stroke="#61616b" stroke-width="2" data-cap="butt"></line><line x1="7" y1="23" x2="17" y2="23" fill="none" stroke="#61616b" stroke-width="2"></line><path d="M12,10c0-2,2-2,2-4a2,2,0,0,0-4,0c0,2,2,2,2,4" fill="none" stroke="#61616b" stroke-width="2" data-cap="butt" data-color="color-2"></path><path d="M12,10c-1.732,1-2.732-.732-4.464.268a2,2,0,0,0,2,3.464C11.268,12.732,10.268,11,12,10" fill="none" stroke="#61616b" stroke-width="2" data-cap="butt" data-color="color-2"></path></svg>