<svg xmlns="http://www.w3.org/2000/svg" height="24" width="24" viewBox="0 0 24 24"><path d="M21,14V11a1,1,0,0,0-1-1H12a1,1,0,0,0-1,1v3" fill="none" stroke="#61616b" stroke-width="2"></path><path d="M19,15v2H13V15a1,1,0,0,0-1-1H10a1,1,0,0,0-1,1v6H23V15a1,1,0,0,0-1-1H20A1,1,0,0,0,19,15Z" fill="none" stroke="#61616b" stroke-width="2"></path><line x1="11" y1="21" x2="11" y2="23" fill="none" stroke="#61616b" stroke-width="2"></line><line x1="21" y1="21" x2="21" y2="23" fill="none" stroke="#61616b" stroke-width="2"></line><line data-color="color-2" x1="5" y1="23" x2="5" y2="11" fill="none" stroke="#61616b" stroke-width="2"></line><polygon data-color="color-2" points="7 1 3 1 1 5 1 7 9 7 9 5 7 1" fill="none" stroke="#61616b" stroke-width="2"></polygon></svg>