<svg xmlns="http://www.w3.org/2000/svg" height="24" width="24" viewBox="0 0 24 24"><polyline points="5 3 1 2 1 10 5 9" fill="none" stroke="#61616b" stroke-width="2" data-cap="butt"></polyline><circle cx="18" cy="6" r="2" fill="#61616b" data-color="color-2" data-stroke="none" stroke="none"></circle><path d="M23,6a5,5,0,0,0-5-5c-.26,0-.759.057-.759.057L5,3V9l6.433,1.02a3,3,0,0,1,2.429,3.736l-1.774,6.653A2,2,0,0,0,14,23a2,2,0,0,0,1.932-1.485l2.824-10.591A4.989,4.989,0,0,0,23,6Z" fill="none" stroke="#61616b" stroke-width="2" data-cap="butt"></path></svg>