<svg xmlns="http://www.w3.org/2000/svg" height="24" width="24" viewBox="0 0 24 24"><path data-color="color-2" d="M3,7V5A2,2,0,0,1,5,3H19a2,2,0,0,1,2,2V7" fill="none" stroke="#61616b" stroke-width="2"></path><line data-cap="butt" data-color="color-2" x1="12" y1="14" x2="12" y2="3" fill="none" stroke="#61616b" stroke-width="2"></line><line x1="3" y1="21" x2="3" y2="19" fill="none" stroke="#61616b" stroke-width="2"></line><line x1="21" y1="21" x2="21" y2="19" fill="none" stroke="#61616b" stroke-width="2"></line><path d="M23,19V12a2,2,0,0,0-2-2h0a2,2,0,0,0-2,2v2H5V12a2,2,0,0,0-2-2H3a2,2,0,0,0-2,2v7Z" fill="none" stroke="#61616b" stroke-width="2"></path></svg>