<svg xmlns="http://www.w3.org/2000/svg" height="24" width="24" viewBox="0 0 24 24"><circle data-color="color-2" data-stroke="none" cx="4" cy="4" r="1" fill="#61616b" stroke="none"></circle><circle data-color="color-2" data-stroke="none" cx="1" cy="1" r="1" fill="#61616b" stroke="none"></circle><circle data-color="color-2" data-stroke="none" cx="1" cy="7" r="1" fill="#61616b" stroke="none"></circle><path d="M19,6V21a2,2,0,0,1-2,2H11a2,2,0,0,1-2-2V17l5-7" fill="none" stroke="#61616b" stroke-width="2"></path><line data-cap="butt" x1="9" y1="11" x2="12.571" y2="6" fill="none" stroke="#61616b" stroke-width="2"></line><path d="M8,1h9a4,4,0,0,1,4,4V6a0,0,0,0,1,0,0H8A0,0,0,0,1,8,6V1A0,0,0,0,1,8,1Z" fill="none" stroke="#61616b" stroke-width="2"></path></svg>