<svg xmlns="http://www.w3.org/2000/svg" height="24" width="24" viewBox="0 0 24 24"><polygon points="9 2 13 4 13 22 9 21 9 2" fill="none" stroke="#61616b" stroke-width="2" data-cap="butt"></polygon><line x1="3" y1="9" x2="5" y2="9" fill="none" stroke="#61616b" stroke-width="2" data-color="color-2"></line><line x1="1" y1="5" x2="3" y2="5" fill="none" stroke="#61616b" stroke-width="2" data-color="color-2"></line><line x1="3" y1="17" x2="5" y2="17" fill="none" stroke="#61616b" stroke-width="2" data-color="color-2"></line><line x1="1" y1="13" x2="3" y2="13" fill="none" stroke="#61616b" stroke-width="2" data-color="color-2"></line><path d="M16,12a3,3,0,0,1,3,3v6a2,2,0,0,0,2,2h0a2,2,0,0,0,2-2V14A10,10,0,0,0,13,4" fill="none" stroke="#61616b" stroke-width="2"></path></svg>