<svg xmlns="http://www.w3.org/2000/svg" height="24" width="24" viewBox="0 0 24 24"><path d="M3,5H21a2,2,0,0,1,2,2V21a0,0,0,0,1,0,0H1a0,0,0,0,1,0,0V7A2,2,0,0,1,3,5Z" fill="none" stroke="#61616b" stroke-width="2" data-cap="butt"></path><line x1="4" y1="21" x2="4" y2="23" fill="none" stroke="#61616b" stroke-width="2"></line><line x1="20" y1="21" x2="20" y2="23" fill="none" stroke="#61616b" stroke-width="2"></line><circle cx="7" cy="15" r="2" fill="none" stroke="#61616b" stroke-width="2" data-cap="butt" data-color="color-2"></circle><path d="M5,5V3A2,2,0,0,1,7,1H17a2,2,0,0,1,2,2V5" fill="none" stroke="#61616b" stroke-width="2"></path><line x1="19" y1="13" x2="19" y2="17" fill="none" stroke="#61616b" stroke-width="2" data-color="color-2"></line></svg>