<svg xmlns="http://www.w3.org/2000/svg" height="24" width="24" viewBox="0 0 24 24"><circle data-color="color-2" data-stroke="none" cx="6" cy="22" r="1" fill="#61616b" stroke="none"></circle><circle data-color="color-2" data-stroke="none" cx="20" cy="22" r="1" fill="#61616b" stroke="none"></circle><circle data-color="color-2" cx="6" cy="22" r="1" fill="none" stroke="#61616b" stroke-width="2"></circle><circle data-color="color-2" cx="20" cy="22" r="1" fill="none" stroke="#61616b" stroke-width="2"></circle><path d="M17,7h5l-1.678,8.392c-.187,.935-1.008,1.608-1.961,1.608H7.751c-1.002,0-1.85-.742-1.982-1.736L4,2H1" fill="none" stroke="#61616b" stroke-width="2"></path><line x1="4.8" y1="7" x2="9" y2="7" fill="none" stroke="#61616b" stroke-width="2"></line><line data-color="color-2" x1="13" y1="3" x2="13" y2="11" fill="none" stroke="#61616b" stroke-width="2"></line><path data-color="color-2" data-stroke="none" d="M16.462,10.309c-.077-.187-.26-.309-.462-.309h-6c-.202,0-.385,.122-.462,.309s-.034,.402,.108,.545l3,3c.098,.098,.226,.146,.354,.146s.256-.049,.354-.146l3-3c.143-.143,.186-.358,.108-.545Z" fill="#61616b" stroke="none"></path></svg>