<svg xmlns="http://www.w3.org/2000/svg" height="24" width="24" viewBox="0 0 24 24"><path data-color="color-2" d="M12,19.562c.926,.282,1.938,.438,3,.438,.59,0,1.163-.051,1.716-.142l4.284,2.142v-4.04c1.241-1.057,2-2.44,2-3.96,0-.341-.038-.675-.112-1" fill="none" stroke="#61616b" stroke-width="2"></path><path d="M11,1C5.477,1,1,4.582,1,9c0,1.797,.75,3.45,2,4.785v5.215l4.833-2.416c.996,.266,2.059,.416,3.167,.416,5.523,0,10-3.582,10-8S16.523,1,11,1Z" fill="none" stroke="#61616b" stroke-width="2"></path></svg>