<svg xmlns="http://www.w3.org/2000/svg" height="24" width="24" viewBox="0 0 24 24"><rect x="2" y="2" width="2" height="2" fill="none" stroke="#61616b" stroke-width="2"></rect> <rect x="8" y="2" width="2" height="2" fill="none" stroke="#61616b" stroke-width="2"></rect> <rect x="14" y="2" width="2" height="2" fill="none" stroke="#61616b" stroke-width="2"></rect> <rect data-color="color-2" x="20" y="2" width="2" height="2" fill="none" stroke="#61616b" stroke-width="2"></rect> <rect x="2" y="8" width="2" height="2" fill="none" stroke="#61616b" stroke-width="2"></rect> <rect x="8" y="8" width="2" height="2" fill="none" stroke="#61616b" stroke-width="2"></rect> <rect data-color="color-2" x="14" y="8" width="2" height="2" fill="none" stroke="#61616b" stroke-width="2"></rect> <rect x="20" y="8" width="2" height="2" fill="none" stroke="#61616b" stroke-width="2"></rect> <rect x="2" y="14" width="2" height="2" fill="none" stroke="#61616b" stroke-width="2"></rect> <rect data-color="color-2" x="8" y="14" width="2" height="2" fill="none" stroke="#61616b" stroke-width="2"></rect> <rect x="14" y="14" width="2" height="2" fill="none" stroke="#61616b" stroke-width="2"></rect> <rect x="20" y="14" width="2" height="2" fill="none" stroke="#61616b" stroke-width="2"></rect> <rect data-color="color-2" x="2" y="20" width="2" height="2" fill="none" stroke="#61616b" stroke-width="2"></rect> <rect x="8" y="20" width="2" height="2" fill="none" stroke="#61616b" stroke-width="2"></rect> <rect x="14" y="20" width="2" height="2" fill="none" stroke="#61616b" stroke-width="2"></rect> <rect x="20" y="20" width="2" height="2" fill="none" stroke="#61616b" stroke-width="2"></rect></svg>