<svg xmlns="http://www.w3.org/2000/svg" height="24" width="24" viewBox="0 0 24 24"><path data-cap="butt" d="M10.075,13.923A17.607,17.607,0,0,1,7.7,10.832L9.81,8.691A.918.918,0,0,0,10,7.686L7.8,2.558a.918.918,0,0,0-1.078-.525L2.688,3.1A.919.919,0,0,0,2,4.016,19.4,19.4,0,0,0,7.49,16.509" fill="none" stroke="#61616b" stroke-width="2"></path><path d="M10,18.577A19.387,19.387,0,0,0,19.986,22a.915.915,0,0,0,.917-.687l1.066-4.036a.917.917,0,0,0-.524-1.078L16.316,14a.917.917,0,0,0-1.008.189L13.167,16.3s-.183-.106-.477-.3" fill="none" stroke="#61616b" stroke-width="2"></path><line data-color="color-2" x1="2" y1="22" x2="22" y2="2" fill="none" stroke="#61616b" stroke-width="2"></line></svg>