<svg xmlns="http://www.w3.org/2000/svg" height="24" width="24" viewBox="0 0 24 24"><circle cx="12" cy="11" r="2" fill="none" stroke="#61616b" stroke-width="2" data-color="color-2"></circle><path d="M20,12a8.027,8.027,0,0,0-.188-1.713l2.714-2.055-2-3.464L17.383,6.094a7.984,7.984,0,0,0-2.961-1.719L14,1H10L9.578,4.375A7.984,7.984,0,0,0,6.617,6.094L3.474,4.768l-2,3.464,2.714,2.055a7.888,7.888,0,0,0,0,3.426L1.474,15.768l2,3.464,3.143-1.326a7.984,7.984,0,0,0,2.961,1.719L10,23h4l.422-3.375a7.984,7.984,0,0,0,2.961-1.719l3.143,1.326,2-3.464-2.714-2.055A8.027,8.027,0,0,0,20,12Z" fill="none" stroke="#61616b" stroke-width="2"></path><line x1="12" y1="13" x2="12" y2="15" fill="none" stroke="#61616b" stroke-width="2" data-color="color-2"></line></svg>