<svg xmlns="http://www.w3.org/2000/svg" height="24" width="24" viewBox="0 0 24 24"><path data-color="color-2" d="M9,3V2a2,2,0,0,1,2-2h0a2,2,0,0,1,2,2V3Z" fill="#61616b"></path><path d="M23.768,10.359l-5-6A1,1,0,0,0,18,4H2A2,2,0,0,0,0,6V20a1,1,0,0,0,1,1H2.142a3.981,3.981,0,0,0,7.716,0h4.284a3.981,3.981,0,0,0,7.716,0H23a1,1,0,0,0,1-1V11A1,1,0,0,0,23.768,10.359ZM6,22a2,2,0,1,1,2-2A2,2,0,0,1,6,22Zm7-10H10v3H8V12H5V10H8V7h2v3h3Zm5,10a2,2,0,1,1,2-2A2,2,0,0,1,18,22Zm0-11V6.562L21.7,11Z" fill="#61616b"></path></svg>