<svg xmlns="http://www.w3.org/2000/svg" height="24" width="24" viewBox="0 0 24 24"><path d="M6.707,19.293,2.561,15.365A2.742,2.742,0,0,1,4,15a6.164,6.164,0,0,1,.867.065A10.014,10.014,0,0,1,4.2,13.01c-.069,0-.132-.01-.2-.01A5,5,0,0,0,.247,14.722a1,1,0,0,0,.1,1.411c.176.154,4.951,4.574,4.951,4.574a1,1,0,1,0,1.414-1.414Z" fill="#61616b"></path><path d="M17.293,4.707l4.146,3.928A2.742,2.742,0,0,1,20,9a6.164,6.164,0,0,1-.867-.065A10.014,10.014,0,0,1,19.8,10.99c.069,0,.132.01.2.01a5,5,0,0,0,3.753-1.722,1,1,0,0,0-.095-1.411c-.176-.154-4.951-4.574-4.951-4.574a1,1,0,0,0-1.414,1.414Z" fill="#61616b" data-color="color-2"></path><path d="M16.357,7.985A7.071,7.071,0,0,1,15,4a2.955,2.955,0,0,1,1.038-2.247A1,1,0,0,0,14.721.247,5,5,0,0,0,13,4a8.046,8.046,0,0,0,.147,1.555l.014.053a7.548,7.548,0,0,0,.216.819l0,.006a8.609,8.609,0,0,0,.315.821l.124.278c.258.536.547,1.021.824,1.483A7.071,7.071,0,0,1,16,13a2.951,2.951,0,0,1-.3,1.285l-3.992-3.992a1,1,0,0,0-1.414,1.414L14.285,15.7A2.951,2.951,0,0,1,13,16a6.164,6.164,0,0,1-.867-.065A10.014,10.014,0,0,1,12.8,17.99c.069,0,.132.01.2.01a5.006,5.006,0,0,0,5-5A9.028,9.028,0,0,0,16.357,7.985Z" fill="#61616b"></path><path d="M8,11a3,3,0,0,1,3-3,6.164,6.164,0,0,1,.867.065A10.014,10.014,0,0,1,11.2,6.01c-.069,0-.132-.01-.2-.01a5.006,5.006,0,0,0-5,5,9.028,9.028,0,0,0,1.643,5.015A7.071,7.071,0,0,1,9,20a2.955,2.955,0,0,1-1.038,2.247,1,1,0,0,0,1.317,1.506A5,5,0,0,0,11,20a9.028,9.028,0,0,0-1.643-5.015A7.071,7.071,0,0,1,8,11Z" fill="#61616b" data-color="color-2"></path></svg>