<svg xmlns="http://www.w3.org/2000/svg" height="24" width="24" viewBox="0 0 24 24"><path d="M23,3H18V1a1,1,0,0,0-2,0V3H8V1A1,1,0,0,0,6,1V3H1A1,1,0,0,0,0,4V22a1,1,0,0,0,1,1h9a1,1,0,0,0,0-2H2V7H22v6a1,1,0,0,0,2,0V4A1,1,0,0,0,23,3Z" fill="#61616b"></path> <path data-color="color-2" d="M17.609,15.128,17,15.291l-.609-.163c-2.66-.711-5.084,1.657-4.209,4.113l1.248,3.5A2,2,0,0,0,15.916,23.9L17,23.567l1.084.338a2,2,0,0,0,2.487-1.163l1.247-3.5C22.693,16.785,20.269,14.417,17.609,15.128Z" fill="#61616b"></path> <path data-color="color-2" d="M20,11V10a3,3,0,0,0-3,3v1A3,3,0,0,0,20,11Z" fill="#61616b"></path></svg>