<svg xmlns="http://www.w3.org/2000/svg" height="24" width="24" viewBox="0 0 24 24"><path d="M17,0h0V2a3,3,0,0,1-3,3h0V3A3,3,0,0,1,17,0Z" fill="#61616b"></path> <polygon points="12 13 12 15 10 15 10 13 8 13 8 15 6 15 6 13 4 13 4 15 2 15 2 13 0 13 0 18 14 18 14 13 12 13" fill="#61616b" data-color="color-2"></polygon> <path d="M21.756,7.235h0c-2.012-1.648-4.193-1.268-5.946-.966a11.465,11.465,0,0,1-1.8.222,11.437,11.437,0,0,1-1.815-.222c-1.753-.3-3.933-.683-5.947.966A6.52,6.52,0,0,0,4.224,11H15a1,1,0,0,1,1,1v7a1,1,0,0,1-1,1H5.883l-.006.01C7.816,23.347,9.9,24,11.552,24a9.961,9.961,0,0,0,1.647-.168,6.764,6.764,0,0,1,.787-.1,6.448,6.448,0,0,1,.815.1c1.692.279,4.526.736,7.136-3.513C25.053,15.249,24.342,9.354,21.756,7.235Z" fill="#61616b"></path></svg>