<svg xmlns="http://www.w3.org/2000/svg" height="24" width="24" viewBox="0 0 24 24"><path d="M5.771,9.181a9.63,9.63,0,0,1,3.572.042A11.457,11.457,0,0,0,12,9.5a8.334,8.334,0,0,0,2.089-.253A8,8,0,0,1,16,9a14.58,14.58,0,0,1,1.77.173,13.933,13.933,0,0,0,5.772-.083C22.579,7.97,18.888,4,15,4a6.824,6.824,0,0,0-3,.848A6.824,6.824,0,0,0,9,4C5.111,4,1.42,7.972.457,9.091A11.89,11.89,0,0,0,5.771,9.181Z" fill="#61616b"></path><path d="M12,11.5a13.536,13.536,0,0,1-3.059-.317A6.449,6.449,0,0,0,7.5,11a11.783,11.783,0,0,0-1.44.159,15.031,15.031,0,0,1-5.3.069c1.406,1.5,5.459,5.351,10.465,5.727a5.526,5.526,0,0,1-.169-.7,5.461,5.461,0,0,1,1.066-4.072,5.376,5.376,0,0,1,.652-.7C12.535,11.49,12.282,11.5,12,11.5Z" fill="#61616b"></path><path d="M20.231,11.426l1.581,1.2c.614-.548,1.1-1.04,1.435-1.4A12.423,12.423,0,0,1,20.231,11.426Z" fill="#61616b"></path><path d="M1,24a1,1,0,0,1-.707-1.707l22-22a1,1,0,0,1,1.414,1.414l-22,22A1,1,0,0,1,1,24Z" fill="#61616b" data-color="color-2"></path><path d="M18.615,12.711a3.5,3.5,0,1,0-4.229,5.578L21.918,24H23a1,1,0,0,0,1-1V16.794ZM16.3,17.229l-.7-.534a1.5,1.5,0,0,1,1.813-2.39l.969.734A5.515,5.515,0,0,1,16.3,17.229Z" fill="#61616b"></path></svg>