<svg xmlns="http://www.w3.org/2000/svg" height="24" width="24" viewBox="0 0 24 24"><path d="M21.783,11.988c-.084.114-.185.248-.3.39l1.6,1.211c.452-.587.722-1,.764-1.069a1,1,0,0,0,0-1.064,19.81,19.81,0,0,0-3.282-3.79L19.131,9.1A19.213,19.213,0,0,1,21.783,11.988Z" fill="#61616b"></path><path d="M13.177,19.883a5.453,5.453,0,0,1-1.57-1.916,8.437,8.437,0,0,1-1.207-.141l-1.64,1.64a10.679,10.679,0,0,0,3.24.522,10.31,10.31,0,0,0,1.216-.076Z" fill="#61616b"></path><path d="M6.764,18.65l1.5-1.5A16.628,16.628,0,0,1,2.218,12,16.683,16.683,0,0,1,8.083,6.931a4.945,4.945,0,0,0,2.546,7.855l6.156-6.157a4.938,4.938,0,0,0-.862-1.691,17.031,17.031,0,0,1,1.6.954l1.471-1.471A12.081,12.081,0,0,0,12,4C4.929,4,.345,11.163.153,11.468a1,1,0,0,0,0,1.064A19.155,19.155,0,0,0,6.764,18.65Z" fill="#61616b"></path><path d="M1,24a1,1,0,0,1-.707-1.707l22-22a1,1,0,0,1,1.414,1.414l-22,22A1,1,0,0,1,1,24Z" fill="#61616b" data-color="color-2"></path><path d="M18.615,12.711a3.5,3.5,0,1,0-4.229,5.578L21.918,24H23a1,1,0,0,0,1-1V16.794ZM16.3,17.229l-.7-.534a1.5,1.5,0,0,1,1.813-2.39l.969.734A5.515,5.515,0,0,1,16.3,17.229Z" fill="#61616b"></path><path d="M21.782,12c-.082.112-.181.243-.289.383l1.6,1.211c.449-.584.716-.995.758-1.062a1,1,0,0,0,0-1.064,19.85,19.85,0,0,0-3.282-3.791L19.13,9.112A16.838,16.838,0,0,1,21.782,12Z" fill="#61616b"></path><path d="M13.177,19.883a5.46,5.46,0,0,1-1.565-1.9,8.7,8.7,0,0,1-1.208-.141l-1.64,1.64A10.679,10.679,0,0,0,12,20a10.567,10.567,0,0,0,1.231-.076Z" fill="#61616b"></path></svg>