<svg xmlns="http://www.w3.org/2000/svg" height="24" width="24" viewBox="0 0 24 24"><path d="M23,11a.945.945,0,0,0-1,1v2H2V7A.945.945,0,0,0,1,6,.945.945,0,0,0,0,7V23a.945.945,0,0,0,1,1,.945.945,0,0,0,1-1V20H22v3a1,1,0,0,0,2,0V12A.945.945,0,0,0,23,11Z" fill="#61616b"></path><path d="M4,8H6a3,3,0,0,1,3,3v1a0,0,0,0,1,0,0H4a0,0,0,0,1,0,0V8A0,0,0,0,1,4,8Z" fill="#61616b"></path><polygon points="19 4 15 4 15 0 13 0 13 4 9 4 9 6 13 6 13 10 15 10 15 6 19 6 19 4" fill="#61616b" data-color="color-2"></polygon></svg>