<svg xmlns="http://www.w3.org/2000/svg" height="24" width="24" viewBox="0 0 24 24"><path d="M12.134,8H12V5a1,1,0,0,0-1-1H9V2h9a2,2,0,0,1,2,2,1,1,0,0,0,2,0,4,4,0,0,0-4-4H3A1,1,0,0,0,3,2H7V4H5A1,1,0,0,0,4,5V8H3.866a3.014,3.014,0,0,0-3,2.79L.156,20.782a3,3,0,0,0,3,3.218h9.7a3,3,0,0,0,3-3.218L15.13,10.79A3.014,3.014,0,0,0,12.134,8ZM3.866,10h8.268a1.007,1.007,0,0,1,1,.933L13.426,15H2.574l.291-4.067A1.007,1.007,0,0,1,3.866,10Z" fill="#61616b"></path><path d="M21.707,7.293a1,1,0,0,0-1.414,0C20.058,7.527,18,9.653,18,12a3,3,0,0,0,6,0C24,9.653,21.942,7.527,21.707,7.293Z" fill="#61616b" data-color="color-2"></path></svg>