<svg xmlns="http://www.w3.org/2000/svg" height="24" width="24" viewBox="0 0 24 24"><path d="M16.275,4.038A1,1,0,0,0,15,5v7.946l-2-.666V0H11V12.28l-2,.666V5a1,1,0,0,0-1.275-.962A11.329,11.329,0,0,0,0,15v6.1a2.922,2.922,0,0,0,.917,2.2,2.743,2.743,0,0,0,1.824.7,2.809,2.809,0,0,0,.762-.107l1.872-.536A5,5,0,0,0,9,18.551v-3.5l3-1,3,1v3.5a5,5,0,0,0,3.625,4.807l1.872.536a2.809,2.809,0,0,0,.762.107,2.743,2.743,0,0,0,1.824-.7A2.922,2.922,0,0,0,24,21.1V15A11.329,11.329,0,0,0,16.275,4.038ZM18.5,16A1.5,1.5,0,1,1,20,14.5,1.5,1.5,0,0,1,18.5,16ZM20,20a1,1,0,1,1,1-1A1,1,0,0,1,20,20Zm0-9a1,1,0,1,1,1-1A1,1,0,0,1,20,11Z" fill="#61616b"></path></svg>