<svg xmlns="http://www.w3.org/2000/svg" height="24" width="24" viewBox="0 0 24 24"><path d="M12,5h0c-1.381,0-2.5-1.119-2.5-2.5h0c0-1.381,1.119-2.5,2.5-2.5h0c1.381,0,2.5,1.119,2.5,2.5h0c0,1.381-1.119,2.5-2.5,2.5Z" fill="#61616b" data-color="color-2"></path><path d="M17.986,13.835l-1-6c-.051-.306-.241-.572-.516-.718-1.732-.924-3.388-1.118-4.471-1.118-1.964,0-3.516,.608-4.471,1.118-.274,.146-.465,.412-.516,.718l-1,6c-.072,.433,.146,.863,.539,1.059l1.521,.761,.934,7.469c.062,.5,.488,.876,.992,.876h4c.504,0,.93-.375,.992-.876l.934-7.469,1.521-.761c.393-.196,.611-.626,.539-1.059Z" fill="#61616b"></path></svg>