<svg xmlns="http://www.w3.org/2000/svg" height="24" width="24" viewBox="0 0 24 24"><path d="M21,2a3,3,0,0,0-2.989,2.888A19.18,19.18,0,0,0,12,4a19.184,19.184,0,0,0-6.011.888A3,3,0,0,0,0,5v8c0,2.856,1.627,5.118,4.448,6.5a1,1,0,0,0,.257.122A17.609,17.609,0,0,0,12,21a17.606,17.606,0,0,0,7.3-1.383,1.013,1.013,0,0,0,.244-.116C22.371,18.121,24,15.858,24,13V5A3,3,0,0,0,21,2ZM4,16.874A4.8,4.8,0,0,1,2,13V5A1,1,0,0,1,4,5Zm12.067-1C14.805,15.957,13.436,16,12,16s-2.8-.043-4.067-.128l-1-.067.134-2,1,.067a62.942,62.942,0,0,0,7.866,0l1-.067.134,2Zm.864-4.681-1-.067a62.942,62.942,0,0,0-7.866,0l-1,.067-.134-2,1-.067a64.928,64.928,0,0,1,8.134,0l1,.067ZM22,13a4.8,4.8,0,0,1-2,3.874V5a1,1,0,0,1,2,0Z" fill="#61616b"></path></svg>