<svg xmlns="http://www.w3.org/2000/svg" height="24" width="24" viewBox="0 0 24 24"><path d="M21.187,11.4A6.991,6.991,0,0,0,11.4,21.187Z" fill="#61616b" data-color="color-2"></path><path d="M12.813,22.6A6.991,6.991,0,0,0,22.6,12.813Z" fill="#61616b" data-color="color-2"></path><path d="M8,17a8.94,8.94,0,0,1,2.636-6.363h0L6.672,6.672l3.5-3.5a3.99,3.99,0,0,1,6.261,4.856C16.621,8.016,16.809,8,17,8a9.052,9.052,0,0,1,1.6.147A6,6,0,0,0,8.757,1.758l-7,7A6,6,0,0,0,8.147,18.6,9.052,9.052,0,0,1,8,17Z" fill="#61616b"></path></svg>