<svg xmlns="http://www.w3.org/2000/svg" height="24" width="24" viewBox="0 0 24 24"><path d="M20,16H16.7a8.806,8.806,0,0,1,.266,2.011,1,1,0,0,1-1,.989H7V17h8a4,4,0,0,0-4-4H7c-1.2-1.711-3.695-2-4.9-2H0v8.5l8.192,3.763a4.388,4.388,0,0,0,3.248.268L24,19.667S23.208,16,20,16Z" fill="#61616b"></path><path d="M17.828,7.414l1.293-1.293a3,3,0,0,0,0-4.242,3.073,3.073,0,0,0-4.243,0L13.586,3.172Z" fill="#61616b" data-color="color-2"></path><path d="M12.172,4.586,10.879,5.879a3,3,0,1,0,4.242,4.242l1.293-1.293Z" fill="#61616b" data-color="color-2"></path></svg>