<svg xmlns="http://www.w3.org/2000/svg" height="24" width="24" viewBox="0 0 24 24"><path d="M12,24A12,12,0,1,1,24,12,12.013,12.013,0,0,1,12,24ZM12,2A10,10,0,1,0,22,12,10.011,10.011,0,0,0,12,2Z" fill="#61616b"></path><path d="M10,8a2,2,0,1,1,2-2A2,2,0,0,1,10,8Zm0-2h0Zm0,0h0Zm0,0h0Zm0,0h0Zm0,0h0Zm0,0h0Zm0,0h0Zm0,0h0Z" fill="#61616b" data-color="color-2"></path><path d="M17,12a2,2,0,1,1,2-2A2,2,0,0,1,17,12Zm0-2h0Zm0,0h0Zm0,0h0Zm0,0h0Zm0,0h0Zm0,0h0Zm0,0h0Zm0,0h0Z" fill="#61616b" data-color="color-2"></path><path d="M8.5,19A1.5,1.5,0,1,1,10,17.5,1.5,1.5,0,0,1,8.5,19Z" fill="#61616b" data-color="color-2"></path><path d="M11.5,14A1.5,1.5,0,1,1,13,12.5,1.5,1.5,0,0,1,11.5,14Z" fill="#61616b" data-color="color-2"></path><path d="M5,13a1,1,0,0,1-.707-1.707l2-2a1,1,0,0,1,1.414,1.414l-2,2A1,1,0,0,1,5,13Z" fill="#61616b" data-color="color-2"></path><path d="M16,18a1,1,0,0,1-.707-.293l-1-1a1,1,0,0,1,1.414-1.414l1,1A1,1,0,0,1,16,18Z" fill="#61616b" data-color="color-2"></path></svg>