<svg xmlns="http://www.w3.org/2000/svg" height="24" width="24" viewBox="0 0 24 24"><path d="M12,24c-.552,0-1-.448-1-1V1c0-.552,.448-1,1-1s1,.448,1,1V23c0,.552-.448,1-1,1Z" fill="#61616b" data-color="color-2"></path><circle cx="4.5" cy="4.5" r="2.5" fill="#61616b"></circle><path d="M5,8h-1c-2.209,0-4,1.791-4,4v3c0,.552,.448,1,1,1h1v5c0,.552,.448,1,1,1h3c.552,0,1-.448,1-1v-5h1c.552,0,1-.448,1-1v-3c0-2.209-1.791-4-4-4Z" fill="#61616b"></path><circle cx="19.5" cy="4.5" r="2.5" fill="#61616b"></circle><path d="M20,8h-1c-2.209,0-4,1.791-4,4v3c0,.552,.448,1,1,1h1v5c0,.552,.448,1,1,1h3c.552,0,1-.448,1-1v-5h1c.552,0,1-.448,1-1v-3c0-2.209-1.791-4-4-4Z" fill="#61616b"></path></svg>