<svg xmlns="http://www.w3.org/2000/svg" height="24" width="24" viewBox="0 0 24 24"><path data-color="color-2" d="M19,11a1,1,0,0,1-1-1,3,3,0,0,0-3-3,5.006,5.006,0,0,1-5-5,1,1,0,0,1,2,0,3,3,0,0,0,3,3,5.006,5.006,0,0,1,5,5A1,1,0,0,1,19,11Z" fill="#61616b"></path><path data-color="color-2" d="M23,11a1,1,0,0,1-1-1,7.008,7.008,0,0,0-7-7,1,1,0,0,1,0-2,9.011,9.011,0,0,1,9,9A1,1,0,0,1,23,11Z" fill="#61616b"></path><path d="M6,13H1a1,1,0,0,0-1,1v2a1,1,0,0,0,1,1h9Z" fill="#61616b"></path><path d="M20,13h3a1,1,0,0,1,1,1v2a1,1,0,0,1-1,1H20Z" fill="#61616b"></path><path d="M19.707,21.293,15.414,17H18V13H11.414L2.707,4.293A1,1,0,0,0,1.293,5.707l17,17a1,1,0,0,0,1.414-1.414Z" fill="#61616b"></path></svg>