<svg xmlns="http://www.w3.org/2000/svg" height="24" width="24" viewBox="0 0 24 24"><path d="M21.286,3.15A10,10,0,0,0,5.39,15.075,5.9,5.9,0,0,1,6.146,15l.038-.076a4.94,4.94,0,0,1,.092-2.872,8.035,8.035,0,1,1,5.671,5.671,5.468,5.468,0,0,1-.536.159,5.878,5.878,0,0,1-1.06,1.417A9.994,9.994,0,0,0,21.286,3.15Z" fill="#61616b"></path><path d="M14,5A4.985,4.985,0,0,0,9.218,8.617,5.364,5.364,0,0,1,11.661,8a4.333,4.333,0,0,1,3.1,1.243,4.727,4.727,0,0,1,.608,5.545A4.987,4.987,0,0,0,14,5Z" fill="#61616b" data-color="color-2"></path><path d="M13.343,10.657c1.035,1.035.825,2.923-.469,4.217a3.6,3.6,0,0,1-2.751,1.116l-.438.876A3.838,3.838,0,0,1,6.232,19a1.856,1.856,0,0,0-1.8,1.408l-.267,1.067a3.869,3.869,0,0,1-1.015,1.792l-.439.44a1,1,0,0,1-1.416-1.414l.44-.44a1.861,1.861,0,0,0,.49-.864l.266-1.065A3.853,3.853,0,0,1,6.232,17,1.851,1.851,0,0,0,7.9,15.972l.49-.98a3.175,3.175,0,0,1,.74-3.866C10.42,9.832,12.307,9.622,13.343,10.657Z" fill="#61616b"></path></svg>