<svg xmlns="http://www.w3.org/2000/svg" height="24" width="24" viewBox="0 0 24 24"><path d="M18.211,8.007l2.454-4.25a2.5,2.5,0,1,0-4.313-2.528l-.017.028-3.9,6.75Z" fill="#61616b" data-color="color-2"></path><path d="M23,10.007H1a1,1,0,0,0-1,1A11.948,11.948,0,0,0,6,21.39v1.617a1,1,0,0,0,1,1H17a1,1,0,0,0,1-1V21.39a11.948,11.948,0,0,0,6-10.383A1,1,0,0,0,23,10.007ZM16,17.5a.5.5,0,0,1-.5.5H13v2.5a.5.5,0,0,1-.5.5h-1a.5.5,0,0,1-.5-.5V18H8.5a.5.5,0,0,1-.5-.5v-1a.5.5,0,0,1,.5-.5H11V13.5a.5.5,0,0,1,.5-.5h1a.5.5,0,0,1,.5.5V16h2.5a.5.5,0,0,1,.5.5Z" fill="#61616b"></path></svg>