<svg xmlns="http://www.w3.org/2000/svg" height="24" width="24" viewBox="0 0 24 24"><path data-color="color-2" d="M17,11a1,1,0,0,0-.857.485L14.18,14.757,10.929,6.628A1,1,0,0,0,10.08,6a.986.986,0,0,0-.937.482L6.434,11H0v2H7a1,1,0,0,0,.857-.485L9.82,9.243l3.251,8.129A1,1,0,0,0,13.92,18H14a1,1,0,0,0,.857-.485L17.566,13H24V11Z" fill="#61616b"></path> <path d="M19,15v5a1,1,0,0,1-1,1H6a1,1,0,0,1-1-1V15H3v6a3,3,0,0,0,3,3H18a3,3,0,0,0,3-3V15Z" fill="#61616b"></path> <path d="M5,9V4A1,1,0,0,1,6,3H18a1,1,0,0,1,1,1V9h2V3a3,3,0,0,0-3-3H6A3,3,0,0,0,3,3V9Z" fill="#61616b"></path></svg>