<svg xmlns="http://www.w3.org/2000/svg" height="24" width="24" viewBox="0 0 24 24"><path d="M9,22.025a1.976,1.976,0,0,1-3.951,0c0-1.314,1.976-2.913,1.976-2.913S9,20.593,9,22.025Z" fill="#61616b" data-color="color-2"></path><path d="M16,19a3.885,3.885,0,0,1-.879-.1A4.952,4.952,0,0,1,14,19.564v2.712a1.5,1.5,0,0,0,3,0V18.858A3.939,3.939,0,0,1,16,19Z" fill="#61616b" data-color="color-2"></path><path d="M17.946,12.733a1.972,1.972,0,0,1-.656-1.1l-1.881-8.9a3.493,3.493,0,0,0-6.818,0l-1.881,8.9a1.972,1.972,0,0,1-.656,1.1,2.983,2.983,0,0,0-.934,3.125A2.947,2.947,0,0,0,6.9,17.794a2.991,2.991,0,0,0,2.227-.018,3.979,3.979,0,0,0,5.742,0,2.991,2.991,0,0,0,2.227.018,2.947,2.947,0,0,0,1.782-1.936A2.983,2.983,0,0,0,17.946,12.733Z" fill="#61616b"></path></svg>