<svg xmlns="http://www.w3.org/2000/svg" height="24" width="24" viewBox="0 0 24 24"><circle cx="1.5" cy="17.5" r="1.125" fill="#61616b" data-color="color-2"></circle><circle cx="1.5" cy="12.5" r="1.125" fill="#61616b" data-color="color-2"></circle><circle cx="1.5" cy="22.5" r="1.125" fill="#61616b" data-color="color-2"></circle><circle cx="5.5" cy="19.5" r="1.125" fill="#61616b" data-color="color-2"></circle><circle cx="5.5" cy="15.5" r="1.125" fill="#61616b" data-color="color-2"></circle><path d="M20,0a9.01,9.01,0,0,0-9,9v1.764L9.105,14.553A1,1,0,0,0,9.553,15.9L11,16.618V19a3,3,0,0,0,3,3h3v2h7V.947A8.938,8.938,0,0,0,20,0ZM13.327,11.336a2.893,2.893,0,0,1,0-2.672L16,10Z" fill="#61616b"></path></svg>