<svg xmlns="http://www.w3.org/2000/svg" height="24" width="24" viewBox="0 0 24 24"><path d="M23.105,10.9a3.127,3.127,0,0,0-2.49-.885,4.011,4.011,0,0,0-3.6,3.6,3.2,3.2,0,0,0,.394,1.82l-.308.5A2.252,2.252,0,0,1,15.191,17a4.216,4.216,0,0,0-3.933,2.664l-1.187,2.966a1,1,0,0,0,.557,1.3A.989.989,0,0,0,11,24a1,1,0,0,0,.929-.629l1.187-2.966A2.224,2.224,0,0,1,15.191,19,4.263,4.263,0,0,0,18.8,16.983l.128-.206A3.274,3.274,0,0,0,20.116,17a3.99,3.99,0,0,0,3.874-3.611A3.119,3.119,0,0,0,23.105,10.9Z" fill="#61616b"></path><path d="M13.157.842a3.52,3.52,0,0,0-4.935.38A3.8,3.8,0,0,0,7.182,5.1l-.165.1A4.264,4.264,0,0,0,5,8.808a2.223,2.223,0,0,1-1.406,2.077L.628,12.071a1,1,0,0,0,.744,1.858l2.965-1.187A4.215,4.215,0,0,0,7,8.808,2.252,2.252,0,0,1,8.065,6.9l.44-.271a3.69,3.69,0,0,0,4.273-.855A3.521,3.521,0,0,0,13.157.842Z" fill="#61616b"></path><path d="M23.037.963C21.6-.475,19.074-.28,17.4,1.4a4.2,4.2,0,0,0-.931,4.981L15.089,8.214A3.181,3.181,0,0,1,13.32,9.389,5.2,5.2,0,0,0,9.5,13.394l-.038.192A3.16,3.16,0,0,1,7.529,15.91l-1.879.752a5.184,5.184,0,0,0-2.118,1.572L.219,22.375a1,1,0,0,0,1.562,1.25l3.312-4.141a3.182,3.182,0,0,1,1.3-.964l1.879-.752a5.157,5.157,0,0,0,3.152-3.789l.038-.193a3.189,3.189,0,0,1,2.343-2.457,5.187,5.187,0,0,0,2.884-1.915L17.975,7.7A4.278,4.278,0,0,0,22.6,6.6C24.28,4.926,24.474,2.4,23.037.963Z" fill="#61616b" data-color="color-2"></path></svg>