<svg xmlns="http://www.w3.org/2000/svg" height="24" width="24" viewBox="0 0 24 24"><path d="M2.379,18.793.586,20.586a2,2,0,0,0,2.828,2.828l1.793-1.793Z" fill="#61616b" data-color="color-2"></path><path d="M22.672,1.023a4.153,4.153,0,0,0-5.661.309L9.16,9.183A4,4,0,0,0,8.375,10.3L6.407,14.437a3.993,3.993,0,0,1-.784,1.112l-1.83,1.83,2.828,2.828,1.83-1.83a3.993,3.993,0,0,1,1.112-.784l4.142-1.968a4,4,0,0,0,1.112-.785l8.011-8.012A4,4,0,0,0,22.672,1.023ZM15.707,9.707l-2,2a1,1,0,0,1-1.414-1.414l2-2a1,1,0,0,1,1.414,1.414ZM18.5,7A1.5,1.5,0,1,1,20,5.5,1.5,1.5,0,0,1,18.5,7Z" fill="#61616b"></path></svg>