<svg xmlns="http://www.w3.org/2000/svg" height="24" width="24" viewBox="0 0 24 24"><path d="M23.311,13.438A1,1,0,0,0,22,13.979l-.383.924-1.912-.792a7.8,7.8,0,0,0,0-4.222L21.621,9.1l.383.924a1,1,0,0,0,1.848-.765l-.765-1.847v0h0L22.321,5.56a1,1,0,0,0-1.848.765l.383.924-1.91.792A8.037,8.037,0,0,0,15.96,5.054l.791-1.91.924.382a1,1,0,0,0,.765-1.847L16.594.914h0L14.745.148A1,1,0,0,0,13.979,2l.924.383-.792,1.912a7.8,7.8,0,0,0-4.222,0L9.1,2.378,10.021,2A1,1,0,0,0,9.256.148L7.41.913h0L5.56,1.679a1,1,0,1,0,.765,1.847l.924-.382.792,1.91A8.032,8.032,0,0,0,5.054,8.041l-1.91-.792.383-.924A1,1,0,0,0,1.679,5.56L.914,7.406h0v0L.148,9.256A1,1,0,1,0,2,10.021L2.379,9.1l1.912.792a7.8,7.8,0,0,0,0,4.222L2.379,14.9,2,13.979a1,1,0,0,0-1.848.765l.765,1.847v0l0,0,.764,1.845a1,1,0,0,0,1.848-.765l-.383-.924,1.91-.792a8.032,8.032,0,0,0,2.987,2.987l-.792,1.91-.924-.382a1,1,0,0,0-.765,1.847l1.847.765h0l1.846.765A1,1,0,0,0,10.021,22L9.1,21.622l.792-1.913a7.8,7.8,0,0,0,4.222,0l.792,1.912L13.979,22a1,1,0,0,0,.384,1.924,1.016,1.016,0,0,0,.382-.076l1.845-.765h0l1.846-.765a1,1,0,1,0-.765-1.847l-.924.382-.791-1.91a8.037,8.037,0,0,0,2.986-2.987l1.91.792-.383.924a1,1,0,1,0,1.848.765l.764-1.845,0,0v0l.765-1.847A1,1,0,0,0,23.311,13.438ZM7,9.5A1.5,1.5,0,1,1,8.5,11,1.5,1.5,0,0,1,7,9.5Zm5.335,8.08a1.5,1.5,0,1,1,.549-2.049A1.5,1.5,0,0,1,12.335,17.58Zm4.879-6.611a1.5,1.5,0,1,1-.549-2.049A1.5,1.5,0,0,1,17.214,10.969Z" fill="#61616b"></path></svg>