<svg xmlns="http://www.w3.org/2000/svg" height="24" width="24" viewBox="0 0 24 24"><path d="M20,16H16.7a8.806,8.806,0,0,1,.266,2.011,1,1,0,0,1-1,.989H7V17h8a4,4,0,0,0-4-4H7c-1.2-1.711-3.695-2-4.9-2H0v8.5l8.192,3.763a4.388,4.388,0,0,0,3.248.268L24,19.667S23.208,16,20,16Z" fill="#61616b"></path><path d="M8,9C8,7.9,10,5,10,5S12,7.9,12,9A2,2,0,0,1,8,9Z" fill="#61616b" data-color="color-2"></path><path d="M21,4H20V2h3a1,1,0,0,0,0-2H10a1,1,0,0,0,0,2h8V4H17a3,3,0,0,0-3,3v6h2V7a1,1,0,0,1,1-1h4a1,1,0,0,1,1,1v8h2V7A3,3,0,0,0,21,4Z" fill="#61616b" data-color="color-2"></path></svg>