<svg xmlns="http://www.w3.org/2000/svg" height="24" width="24" viewBox="0 0 24 24"><path d="M18,8a14.066,14.066,0,0,1,1.655-6.487A1,1,0,0,0,17.938.487,15.873,15.873,0,0,0,16,8a12.361,12.361,0,0,0,.792,4H7.208A12.361,12.361,0,0,0,8,8,15.873,15.873,0,0,0,6.062.487,1,1,0,1,0,4.345,1.513,14.083,14.083,0,0,1,6,8a11.2,11.2,0,0,1-.78,3.648A22.466,22.466,0,0,0,4.213,23.134a1,1,0,0,0,1.988-.26v-.006A25.237,25.237,0,0,1,6.006,17.1c2.3.459,4.344,2.548,4.994,3.275V23a1,1,0,1,0,2,0V20.367a10.486,10.486,0,0,1,4.994-3.27,25.214,25.214,0,0,1-.189,5.771,1,1,0,0,0,.858,1.124A1.039,1.039,0,0,0,18.8,24a1,1,0,0,0,.99-.867,22.467,22.467,0,0,0-1.01-11.485A11.2,11.2,0,0,1,18,8Z" fill="#61616b"></path><circle cx="12" cy="9.001" r="1" fill="#61616b"></circle><path d="M3.18,11.884A.5.5,0,0,0,4,11.5v-5a.5.5,0,0,0-.288-.453A.507.507,0,0,0,3.5,6a.494.494,0,0,0-.32.116l-3,2.5a.5.5,0,0,0,0,.768Z" fill="#61616b" data-color="color-2"></path><path d="M20.288,11.954a.5.5,0,0,0,.532-.07l3-2.5a.5.5,0,0,0,0-.767l-3-2.5a.5.5,0,0,0-.532-.069A.5.5,0,0,0,20,6.5v5A.5.5,0,0,0,20.288,11.954Z" fill="#61616b" data-color="color-2"></path></svg>