<svg xmlns="http://www.w3.org/2000/svg" height="48" width="48" viewBox="0 0 48 48"><path d="M43,2H5A3,3,0,0,0,2,5V43a3,3,0,0,0,3,3H43a3,3,0,0,0,3-3V5A3,3,0,0,0,43,2Z" fill="#444"></path><rect x="4" y="4" width="40" height="25" rx="1" fill="#727272"></rect><path d="M16,6a1,1,0,0,0,.606.919L23,9.659V13a1,1,0,0,0,2,0V9.659l6.394-2.74A1,1,0,0,0,32,6V3H16Z" fill="#444"></path><path d="M34.887,23.556a.994.994,0,0,0-.44-.451l-10-5a1,1,0,0,0-.894,0l-10,5a.994.994,0,0,0-.44.451L24,29Z" fill="#badefc"></path><path d="M13.113,23.556A1,1,0,0,0,13,24V36a1,1,0,0,0,.553.9l10,5A1,1,0,0,0,24,42V29Z" fill="#43a6dd"></path><path d="M24,29V42a1,1,0,0,0,.447-.1l10-5A1,1,0,0,0,35,36V24a1,1,0,0,0-.113-.444Zm10,7h0Z" fill="#458bc4"></path></svg>