<svg xmlns="http://www.w3.org/2000/svg" height="48" width="48" viewBox="0 0 48 48"><path d="M38,6H10a4,4,0,0,0-4,4V38a4,4,0,0,0,4,4H38a4,4,0,0,0,4-4V10A4,4,0,0,0,38,6Z" fill="#5a7a84"></path><path d="M2,15H6a0,0,0,0,1,0,0v2a0,0,0,0,1,0,0H2a1,1,0,0,1-1-1v0A1,1,0,0,1,2,15Z" fill="#b3b3b3"></path><path d="M2,23H6a0,0,0,0,1,0,0v2a0,0,0,0,1,0,0H2a1,1,0,0,1-1-1v0A1,1,0,0,1,2,23Z" fill="#b3b3b3"></path><path d="M2,31H6a0,0,0,0,1,0,0v2a0,0,0,0,1,0,0H2a1,1,0,0,1-1-1v0a1,1,0,0,1,1-1Z" fill="#b3b3b3"></path><path d="M43,15h4a0,0,0,0,1,0,0v2a0,0,0,0,1,0,0H43a1,1,0,0,1-1-1v0A1,1,0,0,1,43,15Z" transform="translate(89 32) rotate(180)" fill="#b3b3b3"></path><path d="M43,23h4a0,0,0,0,1,0,0v2a0,0,0,0,1,0,0H43a1,1,0,0,1-1-1v0A1,1,0,0,1,43,23Z" transform="translate(89 48) rotate(180)" fill="#b3b3b3"></path><path d="M43,31h4a0,0,0,0,1,0,0v2a0,0,0,0,1,0,0H43a1,1,0,0,1-1-1v0A1,1,0,0,1,43,31Z" transform="translate(89 64) rotate(-180)" fill="#b3b3b3"></path><path d="M12.182,37H35.818A1.182,1.182,0,0,0,37,35.818V12a1,1,0,0,0-1-1H12.182A1.182,1.182,0,0,0,11,12.182V35.818A1.182,1.182,0,0,0,12.182,37Z" fill="#335262"></path><rect x="13" y="13" width="22" height="22" fill="#82adb2"></rect><path d="M17,6H15V2a1,1,0,0,1,1-1h0a1,1,0,0,1,1,1Z" fill="#b3b3b3"></path><path d="M33,6H31V2a1,1,0,0,1,1-1h0a1,1,0,0,1,1,1Z" fill="#b3b3b3"></path><path d="M25,6H23V2a1,1,0,0,1,1-1h0a1,1,0,0,1,1,1Z" fill="#b3b3b3"></path><path d="M15,42h2a0,0,0,0,1,0,0v4a1,1,0,0,1-1,1h0a1,1,0,0,1-1-1V42A0,0,0,0,1,15,42Z" fill="#b3b3b3"></path><path d="M31,42h2a0,0,0,0,1,0,0v4a1,1,0,0,1-1,1h0a1,1,0,0,1-1-1V42A0,0,0,0,1,31,42Z" fill="#b3b3b3"></path><path d="M23,42h2a0,0,0,0,1,0,0v4a1,1,0,0,1-1,1h0a1,1,0,0,1-1-1V42A0,0,0,0,1,23,42Z" fill="#b3b3b3"></path><path d="M20.11,17,15.3,29.9h2.215l1.256-3.568h4.913L24.971,29.9H27.2L22.4,17Zm-.72,7.523,1.16-3.348a19.845,19.845,0,0,0,.694-2.364q.089.351.32,1.107t.366,1.107l1.2,3.5Z" fill="#c8e9ec"></path><rect x="29" y="17.053" width="2" height="12.85" fill="#c8e9ec"></rect></svg>