<svg xmlns="http://www.w3.org/2000/svg" height="48" width="48" viewBox="0 0 48 48"><path d="M43.972,22.688A10.489,10.489,0,0,0,35.5,6h-.005A6.488,6.488,0,0,0,24,5.052,6.488,6.488,0,0,0,12.505,6H12.5A10.489,10.489,0,0,0,4.028,22.688,7.97,7.97,0,0,0,4.2,33.5a10.273,10.273,0,0,0-.2,2,10.492,10.492,0,0,0,20,4.443A10.492,10.492,0,0,0,44,35.5a10.273,10.273,0,0,0-.2-2,7.97,7.97,0,0,0,.173-10.811Z" fill="#cc9875"></path><path d="M42.028,32.436A5.981,5.981,0,0,1,38,34H36a1,1,0,0,0,0,2h2a7.957,7.957,0,0,0,3.963-1.065c.014.188.037.379.037.565a8.5,8.5,0,0,1-17,0,.055.055,0,0,1,0-.046V28a1,1,0,0,0-2,0v7.454a.055.055,0,0,1,0,.046,8.5,8.5,0,0,1-17,0c0-.186.023-.377.037-.565A7.957,7.957,0,0,0,10,36h2a1,1,0,0,0,0-2H10a5.982,5.982,0,0,1-4.622-9.8A10.488,10.488,0,0,0,12.5,27H13a1,1,0,0,0,0-2h-.5a8.5,8.5,0,0,1,0-17c.191,0,.38.015.632.032A1,1,0,0,0,14.167,7.3,4.5,4.5,0,0,1,23,8.5v2A4.505,4.505,0,0,1,18.5,15H17a1,1,0,0,0,0,2h1.5A6.494,6.494,0,0,0,24,13.948,6.494,6.494,0,0,0,29.5,17H31a1,1,0,0,0,0-2H29.5A4.505,4.505,0,0,1,25,10.5v-2a4.5,4.5,0,0,1,8.833-1.2,1.073,1.073,0,0,0,1.1.727C35.12,8.015,35.309,8,35.5,8a8.5,8.5,0,0,1,0,17H35a1,1,0,0,0,0,2h.5a10.488,10.488,0,0,0,7.122-2.8,5.956,5.956,0,0,1-.594,8.237Z" fill="#eebc99"></path><path d="M14,19a3,3,0,1,1,3-3A3,3,0,0,1,14,19Z" fill="#ed7064"></path><path d="M15,38a3,3,0,1,1,3-3A3,3,0,0,1,15,38Z" fill="#ed7064"></path><path d="M34,19a3,3,0,1,1,3-3A3,3,0,0,1,34,19Z" fill="#ed7064"></path><path d="M33,38a3,3,0,1,1,3-3A3,3,0,0,1,33,38Z" fill="#ed7064"></path><path d="M24,28a3,3,0,1,1,3-3A3,3,0,0,1,24,28Z" fill="#ed7064"></path></svg>