<svg xmlns="http://www.w3.org/2000/svg" height="48" width="48" viewBox="0 0 48 48"><path d="M33.5,24h-21a8.5,8.5,0,0,1,0-17h9.328l.088-.018L21.828,6l.088-.982L21.828,5H12.5a10.5,10.5,0,0,0,0,21h21a8.5,8.5,0,0,1,0,17H13a1,1,0,0,0,0,2H33.5a10.5,10.5,0,0,0,0-21Z" fill="#5b5b5b"></path><path d="M45,5H35V7H45a1,1,0,0,0,0-2Z" fill="#b3b3b3"></path><path d="M34,2H24.828a4,4,0,0,0-3.981,4.393A4.116,4.116,0,0,0,25,10h9a1,1,0,0,0,1-1V3A1,1,0,0,0,34,2Z" fill="#444"></path><path d="M30,2h2a0,0,0,0,1,0,0V5a1,1,0,0,1-1,1h0a1,1,0,0,1-1-1V2a0,0,0,0,1,0,0Z" fill="#5b5b5b"></path></svg>