<svg xmlns="http://www.w3.org/2000/svg" height="48" width="48" viewBox="0 0 48 48"><path d="M6.5,27A1.5,1.5,0,0,1,5,25.5V2.5a1.5,1.5,0,0,1,3,0v23A1.5,1.5,0,0,1,6.5,27Z" fill="#636363"></path><path d="M24,12H16A11.013,11.013,0,0,0,5,23V42a5.006,5.006,0,0,0,5,5H30a5.006,5.006,0,0,0,5-5V23A11.013,11.013,0,0,0,24,12Z" fill="#aeaeae"></path><path d="M24,16H16a7.009,7.009,0,0,0-7,7v7a1,1,0,0,0,1,1H30a1,1,0,0,0,1-1V23A7.009,7.009,0,0,0,24,16Z" fill="#cbeafb"></path><path d="M30,9a1,1,0,0,1-1-1V3a1,1,0,0,1,2,0V8A1,1,0,0,1,30,9Z" fill="#6cc4f5"></path><path d="M37.071,11.929a1,1,0,0,1-.707-1.707L39.9,6.687A1,1,0,1,1,41.313,8.1l-3.535,3.535A1,1,0,0,1,37.071,11.929Z" fill="#6cc4f5"></path><path d="M45,19H40a1,1,0,0,1,0-2h5a1,1,0,0,1,0,2Z" fill="#6cc4f5"></path><circle cx="20" cy="39" r="4" fill="#636363"></circle></svg>