<svg xmlns="http://www.w3.org/2000/svg" height="48" width="48" viewBox="0 0 48 48"><path d="M8.743,12.656l-6.5-1.626a1,1,0,0,0-1.225,1.154l3,16a1,1,0,0,0,1.564.63l5.447-3.891Z" fill="#666"></path><path d="M43.547,6.257a5,5,0,0,0-5.83-4L8.826,7.637a.992.992,0,0,0-.641.417,1,1,0,0,0-.159.749l3.661,19.662a1,1,0,0,0,.983.817.945.945,0,0,0,.183-.017l32.822-6.112a1,1,0,0,0,.8-1.166Zm-25.181,9.71a2,2,0,1,1,1.6-2.332A2,2,0,0,1,18.366,15.967Z" fill="#c6c6c6"></path><circle cx="18" cy="14" r="2" fill="#ed7064"></circle><path d="M46,34a1,1,0,0,0-1,1v5H36.389a2.993,2.993,0,0,1-2.961-2.518L31.352,25.82l-1.966.366,2.071,11.636A4.984,4.984,0,0,0,36.389,42H45v4a1,1,0,0,0,2,0V35A1,1,0,0,0,46,34Z" fill="#444"></path></svg>