<svg xmlns="http://www.w3.org/2000/svg" height="48" width="48" style="" viewBox="0 0 48 48"><path d="M41 39C43.7614 39 46 36.7614 46 34C46 31.2386 43.7614 29 41 29C38.2386 29 36 31.2386 36 34C36 36.7614 38.2386 39 41 39Z" fill="url(#nc-chat-bot-0_linear_347_2)"></path> <path d="M5 39C7.76142 39 10 36.7614 10 34C10 31.2386 7.76142 29 5 29C2.23858 29 0 31.2386 0 34C0 36.7614 2.23858 39 5 39Z" fill="url(#nc-chat-bot-1_linear_347_2)"></path> <path fill-rule="evenodd" clip-rule="evenodd" d="M15 11.7486C13.836 11.3358 13 10.2236 13 8.92004C13 7.26604 14.346 5.92004 16 5.92004C17.654 5.92004 19 7.26604 19 8.92004C19 10.2236 18.164 11.3358 17 11.7486V21H15V11.7486Z" fill="url(#nc-chat-bot-2_linear_347_2)"></path> <path d="M5 26C5 23.239 7.239 21 10 21H36C38.761 21 41 23.239 41 26V42C41 44.761 38.761 47 36 47H10C7.239 47 5 44.761 5 42V26Z" fill="url(#nc-chat-bot-3_linear_347_2)"></path> <path d="M15 32C16.1046 32 17 31.1046 17 30C17 28.8954 16.1046 28 15 28C13.8954 28 13 28.8954 13 30C13 31.1046 13.8954 32 15 32Z" fill="url(#nc-chat-bot-4_linear_347_2)"></path> <path d="M27 37H19C17.8954 37 17 37.8954 17 39C17 40.1046 17.8954 41 19 41H27C28.1046 41 29 40.1046 29 39C29 37.8954 28.1046 37 27 37Z" fill="url(#nc-chat-bot-5_linear_347_2)"></path> <path d="M31 32C32.1046 32 33 31.1046 33 30C33 28.8954 32.1046 28 31 28C29.8954 28 29 28.8954 29 30C29 31.1046 29.8954 32 31 32Z" fill="url(#nc-chat-bot-6_linear_347_2)"></path> <path d="M43.5 1H28.5C26.567 1 25 2.567 25 4.5V20.92C25 21.278 25.191 21.608 25.502 21.787C25.656 21.876 25.828 21.92 26 21.92C26.174 21.92 26.349 21.874 26.504 21.783L31.271 19H43.5C45.433 19 47 17.433 47 15.5V4.5C47 2.567 45.433 1 43.5 1Z" fill="url(#nc-chat-bot-7_linear_347_2)"></path> <path d="M36 13H30C29.4477 13 29 13.4477 29 14C29 14.5523 29.4477 15 30 15H36C36.5523 15 37 14.5523 37 14C37 13.4477 36.5523 13 36 13Z" fill="#9ED9FA"></path> <path d="M42 5H30C29.4477 5 29 5.44772 29 6C29 6.55228 29.4477 7 30 7H42C42.5523 7 43 6.55228 43 6C43 5.44772 42.5523 5 42 5Z" fill="#9ED9FA"></path> <path d="M42 9H30C29.4477 9 29 9.44772 29 10C29 10.5523 29.4477 11 30 11H42C42.5523 11 43 10.5523 43 10C43 9.44772 42.5523 9 42 9Z" fill="#9ED9FA"></path> <defs> <linearGradient id="nc-chat-bot-0_linear_347_2" x1="41" y1="29" x2="41" y2="39" gradientUnits="userSpaceOnUse"> <stop stop-color="#A2A3B4"></stop> <stop offset="1" stop-color="#83849B"></stop> </linearGradient> <linearGradient id="nc-chat-bot-1_linear_347_2" x1="5" y1="29" x2="5" y2="39" gradientUnits="userSpaceOnUse"> <stop stop-color="#A2A3B4"></stop> <stop offset="1" stop-color="#83849B"></stop> </linearGradient> <linearGradient id="nc-chat-bot-2_linear_347_2" x1="16" y1="5.92004" x2="16" y2="21" gradientUnits="userSpaceOnUse"> <stop stop-color="#A2A3B4"></stop> <stop offset="1" stop-color="#83849B"></stop> </linearGradient> <linearGradient id="nc-chat-bot-3_linear_347_2" x1="23" y1="21" x2="23" y2="47" gradientUnits="userSpaceOnUse"> <stop stop-color="#E0E0E6"></stop> <stop offset="1" stop-color="#C2C3CD"></stop> </linearGradient> <linearGradient id="nc-chat-bot-4_linear_347_2" x1="15" y1="28" x2="15" y2="32" gradientUnits="userSpaceOnUse"> <stop stop-color="#5B5E71"></stop> <stop offset="1" stop-color="#393A46"></stop> </linearGradient> <linearGradient id="nc-chat-bot-5_linear_347_2" x1="23" y1="37" x2="23" y2="41" gradientUnits="userSpaceOnUse"> <stop stop-color="#5B5E71"></stop> <stop offset="1" stop-color="#393A46"></stop> </linearGradient> <linearGradient id="nc-chat-bot-6_linear_347_2" x1="31" y1="28" x2="31" y2="32" gradientUnits="userSpaceOnUse"> <stop stop-color="#5B5E71"></stop> <stop offset="1" stop-color="#393A46"></stop> </linearGradient> <linearGradient id="nc-chat-bot-7_linear_347_2" x1="36" y1="1" x2="36" y2="21.92" gradientUnits="userSpaceOnUse"> <stop stop-color="#60BEF6"></stop> <stop offset="1" stop-color="#29A0EA"></stop> </linearGradient> </defs></svg>