<svg xmlns="http://www.w3.org/2000/svg" height="48" width="48" viewBox="0 0 48 48"><path d="M13,18v6a11,11,0,0,0,22,0V18a1,1,0,0,0-1-1H14A1,1,0,0,0,13,18Z" fill="#b3b3b3"></path><path d="M31,12a1,1,0,0,0-2,0v5h2Z" fill="#ffd764"></path><path d="M19,12a1,1,0,0,0-2,0v5h2Z" fill="#ffd764"></path><rect x="13" y="19" width="22" height="2" fill="#666"></rect><path d="M24,1a23,23,0,0,0,0,46,1,1,0,0,0,1-1V35c0-.018-.009-.032-.01-.05-.327.029-.656.05-.99.05s-.663-.021-.99-.05c0,.018-.01.032-.01.05v9.977A21,21,0,1,1,45,24a20.8,20.8,0,0,1-6.587,15.272,1,1,0,1,0,1.373,1.455A22.785,22.785,0,0,0,47,24,23.026,23.026,0,0,0,24,1Z" fill="#666"></path></svg>