<svg xmlns="http://www.w3.org/2000/svg" height="48" width="48" viewBox="0 0 48 48"><path d="M7.666,33.087A2,2,0,0,1,6.056,29.9,9.911,9.911,0,0,0,8,24a9.911,9.911,0,0,0-1.944-5.9A2,2,0,1,1,9.28,15.729,13.886,13.886,0,0,1,12,24a13.886,13.886,0,0,1-2.72,8.271A2,2,0,0,1,7.666,33.087Z" fill="#47b0ea"></path><path d="M16.6,37.717a2,2,0,0,1-1.689-3.069A19.914,19.914,0,0,0,18,24a19.914,19.914,0,0,0-3.094-10.648,2,2,0,0,1,3.381-2.137A23.909,23.909,0,0,1,22,24a23.909,23.909,0,0,1-3.713,12.785A2,2,0,0,1,16.6,37.717Z" fill="#47b0ea"></path><path d="M25.484,42.326A2,2,0,0,1,23.768,39.3,29.955,29.955,0,0,0,28,24,29.955,29.955,0,0,0,23.768,8.7a2,2,0,1,1,3.437-2.046A33.944,33.944,0,0,1,32,24a33.944,33.944,0,0,1-4.8,17.349A2,2,0,0,1,25.484,42.326Z" fill="#47b0ea"></path><path d="M34.373,46.936a2,2,0,0,1-1.73-3A39.982,39.982,0,0,0,38,24,40.1,40.1,0,0,0,32.643,4a2,2,0,1,1,3.464-2A44.091,44.091,0,0,1,42,24a43.975,43.975,0,0,1-5.893,21.935A2,2,0,0,1,34.373,46.936Z" fill="#47b0ea"></path></svg>