<svg xmlns="http://www.w3.org/2000/svg" height="48" width="48" style="" viewBox="0 0 48 48"><path d="M36.558 9.728C32.822 7.294 28.459 5.999 24 6C11.301 5.997 1.003 16.289 1 28.988C1 33.447 2.294 37.81 4.728 41.546C4.912 41.829 5.227 42 5.565 42H42.435C42.773 42 43.088 41.829 43.272 41.546C50.204 30.906 47.198 16.66 36.558 9.728Z" fill="url(#nc-ui-6-0_linear_215_171)"></path><path d="M23 10C23 9.448 23.448 9 24 9C24.552 9 25 9.448 25 10V15C25 15.552 24.552 16 24 16C23.448 16 23 15.552 23 15V10Z" fill="#80B0CB"></path><path d="M10 30H5C4.448 30 4 29.552 4 29C4 28.448 4.448 28 5 28H10C10.552 28 11 28.448 11 29C11 29.552 10.552 30 10 30Z" fill="#80B0CB"></path><path d="M26.121 31.1211C24.95 32.2931 23.05 32.2931 21.878 31.1211C21.078 30.3211 11.326 18.0211 10.216 16.6211C9.88 16.1831 9.962 15.5551 10.4 15.2191C10.76 14.9421 11.262 14.9431 11.621 15.2211C13.021 16.3311 25.321 26.0831 26.121 26.8841C27.289 28.0551 27.289 29.9501 26.121 31.1211Z" fill="url(#nc-ui-6-1_linear_215_171)"></path><path d="M33.9 20.1001C33.348 20.1001 32.9 19.6521 32.9 19.1001C32.9 18.8351 33.005 18.5811 33.193 18.3931L36.729 14.8571C37.126 14.4731 37.759 14.4841 38.143 14.8821C38.517 15.2701 38.517 15.8841 38.143 16.2711L34.607 19.8071C34.42 19.9951 34.165 20.1001 33.9 20.1001Z" fill="#80B0CB"></path><path d="M43 30H38C37.448 30 37 29.552 37 29C37 28.448 37.448 28 38 28H43C43.552 28 44 28.448 44 29C44 29.552 43.552 30 43 30Z" fill="#80B0CB"></path><defs><linearGradient id="nc-ui-6-0_linear_215_171" x1="24.0013" y1="6" x2="24.0013" y2="42" gradientUnits="userSpaceOnUse"><stop stop-color="#4480A7"></stop><stop offset="1" stop-color="#32597C"></stop></linearGradient><linearGradient id="nc-ui-6-1_linear_215_171" x1="18.5031" y1="15.012" x2="18.5031" y2="32.0001" gradientUnits="userSpaceOnUse"><stop stop-color="white"></stop><stop offset="1" stop-color="#C5DCE7"></stop></linearGradient></defs></svg>