<svg xmlns="http://www.w3.org/2000/svg" height="48" width="48" viewBox="0 0 48 48"><path d="M34,25a1,1,0,0,1-1-1V17.528L27.286,11.7A1,1,0,0,1,27,11V2a1,1,0,0,1,1-1h6a1,1,0,0,1,.707.293l3.879,3.879a1,1,0,0,1-1.414,1.414L33.586,3H29v7.592l5.714,5.828a1,1,0,0,1,.286.7V24A1,1,0,0,1,34,25Z" fill="#ada8fa"></path><path d="M2,26a1,1,0,0,1-1-1V14a1,1,0,0,1,.293-.707l12-12A1,1,0,0,1,14,1h8a1,1,0,0,1,0,2H14.414L3,14.414V25A1,1,0,0,1,2,26Z" fill="#ada8fa"></path><path d="M8,32H2a1,1,0,0,1,0-2H7V21a1,1,0,0,1,.293-.707l7.88-7.88a1,1,0,0,1,1.414,1.414L9,21.414V31A1,1,0,0,1,8,32Z" fill="#fbb7d9"></path><path d="M34,47H26a1,1,0,0,1,0-2h7.586L45,33.586V23a1,1,0,0,1,2,0V34a1,1,0,0,1-.293.707l-12,12A1,1,0,0,1,34,47Z" fill="#ada8fa"></path><path d="M20,47H14a1,1,0,0,1-.707-.293l-3.88-3.88a1,1,0,0,1,1.414-1.414L14.414,45H19V37.414l-5.707-5.707A1,1,0,0,1,13,31V24a1,1,0,0,1,2,0v6.586l5.707,5.707A1,1,0,0,1,21,37v9A1,1,0,0,1,20,47Z" fill="#ada8fa"></path><path d="M32.12,35.88a1,1,0,0,1-.707-1.707L39,26.586V17a1,1,0,0,1,1-1h6a1,1,0,0,1,0,2H41v9a1,1,0,0,1-.293.707l-7.88,7.88A1,1,0,0,1,32.12,35.88Z" fill="#fbb7d9"></path><path d="M24,28a4,4,0,1,1,4-4A4,4,0,0,1,24,28Z" fill="#645aed"></path><path d="M40,12a4,4,0,1,1,4-4A4,4,0,0,1,40,12Z" fill="#645aed"></path><path d="M8,44a4,4,0,1,1,4-4A4,4,0,0,1,8,44Z" fill="#645aed"></path><path d="M18,15a4,4,0,1,1,4-4A4,4,0,0,1,18,15Z" fill="#ea5da3"></path><path d="M30,41a4,4,0,1,1,4-4A4,4,0,0,1,30,41Z" fill="#ea5da3"></path></svg>