<svg xmlns="http://www.w3.org/2000/svg" height="48" width="48" viewBox="0 0 48 48"><path d="M36,47a2,2,0,0,0,2-2V36.973A19.982,19.982,0,0,0,25.229,1.015C14.406,1.423,6,10.66,6,21.491v1.3L2.474,30.721a2,2,0,0,0,.933,2.6L6,34.618V42a5,5,0,0,0,5,5Z" fill="#82adb2"></path><path d="M23.636,27.364a1,1,0,1,1-1.414,1.414,11,11,0,0,1,0-15.556,1,1,0,1,1,1.414,1.414,9,9,0,0,0,0,12.728Zm14.142,1.414a1,1,0,0,1-1.414-1.414,9,9,0,0,0,0-12.728,1,1,0,1,1,1.414-1.414,11,11,0,0,1,0,15.556Z" fill="#a4dae0"></path><path d="M18,47H31.249L31,25.9a5,5,0,1,0-2,0V36A11.013,11.013,0,0,1,18,47Z" fill="#a4dae0"></path><circle cx="30" cy="21" r="3" fill="#335262"></circle></svg>