<svg xmlns="http://www.w3.org/2000/svg" height="48" width="48" viewBox="0 0 48 48"><path d="M34,20H25a1,1,0,0,1,0-2h8.586l4.707-4.707a1,1,0,0,1,1.414,1.414l-5,5A1,1,0,0,1,34,20Z" fill="#cdcafc"></path><path d="M42,41a1,1,0,0,1-1-1V36.414L35.586,31H33a1,1,0,0,1,0-2h3a1,1,0,0,1,.707.293l6,6A1,1,0,0,1,43,36v4A1,1,0,0,1,42,41Z" fill="#cdcafc"></path><path d="M23.879,41.879a1,1,0,0,1-.707-.293l-4.879-4.879A1,1,0,0,1,18,36V25a1,1,0,0,1,2,0V35.586l4.586,4.586a1,1,0,0,1-.707,1.707Z" fill="#cdcafc"></path><circle cx="26" cy="43" r="4" fill="#645aed"></circle><circle cx="42" cy="43" r="4" fill="#645aed"></circle><circle cx="40" cy="13" r="4" fill="#645aed"></circle><path d="M36.707,29.293l-2-2A1,1,0,0,0,34,27H32a1,1,0,0,1-1-1V24a1,1,0,0,0-.293-.707l-8.169-8.169A10.853,10.853,0,0,0,23,12,11,11,0,1,0,12,23a10.853,10.853,0,0,0,3.124-.462L18.586,26H21a1,1,0,0,1,1,1v2.414l1.293,1.293A1,1,0,0,0,24,31h2a1,1,0,0,1,1,1v2a1,1,0,0,0,.293.707l2,2A1,1,0,0,0,30,37h6a1,1,0,0,0,1-1V30A1,1,0,0,0,36.707,29.293ZM9.5,13A3.5,3.5,0,1,1,13,9.5,3.5,3.5,0,0,1,9.5,13Z" fill="#c8c8c8"></path><path d="M36,37a1,1,0,0,1-.707-.293l-16-16a1,1,0,0,1,1.414-1.414l16,16A1,1,0,0,1,36,37Z" fill="#aeaeae"></path></svg>