<svg xmlns="http://www.w3.org/2000/svg" height="48" width="48" style="" viewBox="0 0 48 48"><path d="M24 1C11.317 1 1 11.318 1 24C1 36.682 11.317 47 24 47C36.683 47 47 36.682 47 24C47 11.318 36.683 1 24 1ZM24 30C20.686 30 18 27.314 18 24C18 20.686 20.686 18 24 18C27.314 18 30 20.686 30 24C30 27.314 27.314 30 24 30Z" fill="url(#nc-ui-6-0_linear_215_120)"></path> <path d="M9.47296 20.25C9.35596 20.701 8.94996 21 8.50496 21C8.42196 21 8.33796 20.99 8.25496 20.968C7.71996 20.83 7.39796 20.285 7.53496 19.75C9.07796 13.758 13.759 9.078 19.751 7.535C20.28 7.401 20.831 7.719 20.969 8.254C21.107 8.789 20.784 9.334 20.249 9.472C14.963 10.833 10.833 14.963 9.47296 20.25Z" fill="url(#nc-ui-6-1_linear_215_120)"></path> <defs> <linearGradient id="nc-ui-6-0_linear_215_120" x1="24" y1="1" x2="24" y2="47" gradientUnits="userSpaceOnUse"> <stop stop-color="#E0E0E6"></stop> <stop offset="1" stop-color="#C2C3CD"></stop> </linearGradient> <linearGradient id="nc-ui-6-1_linear_215_120" x1="14.2521" y1="7.50439" x2="14.2521" y2="21" gradientUnits="userSpaceOnUse"> <stop stop-color="#C2C3CD"></stop> <stop offset="1" stop-color="#A2A3B4"></stop> </linearGradient> </defs></svg>