<svg xmlns="http://www.w3.org/2000/svg" height="48" width="48" viewBox="0 0 48 48"><rect x="9" y="8" width="2" height="10" fill="#444"></rect><rect x="37" y="8" width="2" height="10" fill="#444"></rect><path d="M39,17H9a4,4,0,0,0,0,8h4.932l2.662,7.1A11.01,11.01,0,0,0,7,43a1,1,0,0,0,2,0,9.01,9.01,0,0,1,9-9H30a9.01,9.01,0,0,1,9,9,1,1,0,0,0,2,0,11.01,11.01,0,0,0-9.594-10.9L34.068,25H39a4,4,0,0,0,0-8Z" fill="#444"></path><circle cx="24" cy="25" r="2" fill="#973eff"></circle><circle cx="24" cy="25" r="4" fill="#5a7a84"></circle><circle cx="24" cy="25" r="2" fill="#82adb2"></circle><rect x="1" y="7" width="18" height="2" rx="1" fill="#b3b3b3"></rect><rect x="29" y="7" width="18" height="2" rx="1" fill="#b3b3b3"></rect><path d="M10,5h0a1,1,0,0,1,1,1V7a0,0,0,0,1,0,0H9A0,0,0,0,1,9,7V6a1,1,0,0,1,1-1Z" fill="#ed7064"></path><path d="M38,5h0a1,1,0,0,1,1,1V7a0,0,0,0,1,0,0H37a0,0,0,0,1,0,0V6A1,1,0,0,1,38,5Z" fill="#ed7064"></path></svg>