<svg xmlns="http://www.w3.org/2000/svg" height="48" width="48" viewBox="0 0 48 48"><path d="M18,46h0a1,1,0,0,1-1-1V26.414l-6.707-6.707A1,1,0,0,1,10,19V13h2v5.586l6.707,6.707A1,1,0,0,1,19,26V45A1,1,0,0,1,18,46Z" fill="#b7e3fc"></path><path d="M12,46h0a1,1,0,0,1-1-1V41.414L6.293,36.707A1,1,0,0,1,6,36V30H8v5.586l4.707,4.707A1,1,0,0,1,13,41v4A1,1,0,0,1,12,46Z" fill="#b7e3fc"></path><path d="M36,46h0a1,1,0,0,1-1-1V41a1,1,0,0,1,.293-.707L40,35.586V30h2v6a1,1,0,0,1-.293.707L37,41.414V45A1,1,0,0,1,36,46Z" fill="#b7e3fc"></path><path d="M30,46h0a1,1,0,0,1-1-1V26a1,1,0,0,1,.293-.707L36,18.586V13h2v6a1,1,0,0,1-.293.707L31,26.414V45A1,1,0,0,1,30,46Z" fill="#b7e3fc"></path><path d="M7,32a4,4,0,1,1,4-4A4,4,0,0,1,7,32Z" fill="#47b0ea"></path><path d="M41,32a4,4,0,1,1,4-4A4,4,0,0,1,41,32Z" fill="#47b0ea"></path><path d="M11,15a4,4,0,1,1,4-4A4,4,0,0,1,11,15Z" fill="#47b0ea"></path><path d="M37,15a4,4,0,1,1,4-4A4,4,0,0,1,37,15Z" fill="#47b0ea"></path><path d="M24,46h0a1,1,0,0,1-1-1V8h2V45A1,1,0,0,1,24,46Z" fill="#b7e3fc"></path><path d="M24,10a4,4,0,1,1,4-4A4,4,0,0,1,24,10Z" fill="#47b0ea"></path></svg>