<svg xmlns="http://www.w3.org/2000/svg" height="48" width="48" viewBox="0 0 48 48"><path d="M24,37C11.56,37,3.468,25.087,3.13,24.5a1,1,0,0,1,0-.989C3.464,22.914,11.5,11,24,11c12.437,0,20.53,11.912,20.868,12.5a1,1,0,0,1,0,1C44.523,25.09,36.371,37,24,37Z" fill="#e6e6e6"></path><path d="M44,14a1,1,0,0,1-1-1V5H35a1,1,0,0,1,0-2h9a1,1,0,0,1,1,1v9A1,1,0,0,1,44,14Z" fill="#72c472"></path><path d="M4,14a1,1,0,0,1-1-1V4A1,1,0,0,1,4,3h9a1,1,0,0,1,0,2H5v8A1,1,0,0,1,4,14Z" fill="#72c472"></path><path d="M44,45H35a1,1,0,0,1,0-2h8V35a1,1,0,0,1,2,0v9A1,1,0,0,1,44,45Z" fill="#72c472"></path><path d="M13,45H4a1,1,0,0,1-1-1V35a1,1,0,0,1,2,0v8h8a1,1,0,0,1,0,2Z" fill="#72c472"></path><circle cx="23.998" cy="23.999" r="10.002" fill="#43a6dd"></circle><circle cx="23.998" cy="23.999" r="6" fill="#444"></circle><circle cx="19.498" cy="20.499" r="2.5" fill="#fff"></circle></svg>