<svg xmlns="http://www.w3.org/2000/svg" height="48" width="48" viewBox="0 0 48 48"><rect x="1" y="4.046" width="46" height="39.954" rx="2" fill="#87613e"></rect><rect x="17" y="4" width="14" height="12" fill="#a67c52"></rect><rect x="25" y="18" width="22" height="12" fill="#a67c52"></rect><rect x="1" y="18" width="22" height="12" fill="#a67c52"></rect><path d="M33,15.982H47v-10a2,2,0,0,0-2-2H33Z" fill="#a67c52"></path><path d="M15,15.982H1v-10a2,2,0,0,1,2-2H15Z" fill="#a67c52"></path><rect x="17" y="32" width="14" height="12" fill="#a67c52"></rect><path d="M33,32.018H47v10a2,2,0,0,1-2,2H33Z" fill="#a67c52"></path><path d="M15,32.018H1v10a2,2,0,0,0,2,2H15Z" fill="#a67c52"></path><path d="M13.762,2.334a1.036,1.036,0,0,0-1.523,0C11.78,2.873,1,15.612,1,21.982a12,12,0,0,0,24,0C25,15.612,14.22,2.873,13.762,2.334Z" fill="#e86c60"></path><path d="M13,26.982a5.026,5.026,0,0,1-5-4.9,1,1,0,0,1,.01-.164C8.3,19.894,11.017,15.7,12.171,14a1.037,1.037,0,0,1,1.657,0c1.154,1.707,3.869,5.9,4.16,7.924a.985.985,0,0,1,.01.163A5.025,5.025,0,0,1,13,26.982Z" fill="#efd358"></path></svg>