<svg xmlns="http://www.w3.org/2000/svg" height="48" width="48" viewBox="0 0 48 48"><path d="M35,1H13a1,1,0,0,0-1,1V13H36V2A1,1,0,0,0,35,1Z" fill="#ffd764"></path><path d="M41,13H7a1,1,0,0,0-1,1V26.194a9.029,9.029,0,0,0,1.972,5.622L14,39.351V46a1,1,0,0,0,1,1H33a1,1,0,0,0,1-1V39.351l6.028-7.535A9.029,9.029,0,0,0,42,26.194V14A1,1,0,0,0,41,13Z" fill="#444"></path><path d="M20,7a1,1,0,0,0-1,1v5h2V8A1,1,0,0,0,20,7Z" fill="#e2ac4b"></path><path d="M28,7a1,1,0,0,0-1,1v5h2V8A1,1,0,0,0,28,7Z" fill="#e2ac4b"></path><rect x="6" y="17" width="36" height="2" fill="#666"></rect></svg>