<svg xmlns="http://www.w3.org/2000/svg" height="48" width="48" viewBox="0 0 48 48"><path d="M23.151,2.016C11.246,2.466,2,12.627,2,24.54V42a4,4,0,0,0,4,4h5a3,3,0,0,0,3-3V31a3,3,0,0,0-3-3H6V24.442C6,14.7,13.564,6.382,23.3,6.013A18.02,18.02,0,0,1,42,24v4H37a3,3,0,0,0-3,3V43a3,3,0,0,0,3,3h5a4,4,0,0,0,4-4V24A22.024,22.024,0,0,0,23.151,2.016Z" fill="#e6e6e6"></path><path d="M11,28H8V46h3a3,3,0,0,0,3-3V31A3,3,0,0,0,11,28Z" fill="#444"></path><path d="M37,28h3V46H37a3,3,0,0,1-3-3V31A3,3,0,0,1,37,28Z" fill="#444"></path><rect x="6" y="28" width="2" height="18" fill="#b3b3b3"></rect><rect x="40" y="28" width="2" height="18" fill="#b3b3b3"></rect></svg>