<svg xmlns="http://www.w3.org/2000/svg" height="48" width="48" viewBox="0 0 48 48"><path d="M38,46H27V44H38a5.006,5.006,0,0,0,5-5V32h2v7A7.008,7.008,0,0,1,38,46Z" fill="#666"></path><path d="M23.19,1.015C11.826,1.445,3,11.143,3,22.516V34a5,5,0,0,0,5,5h3a3,3,0,0,0,3-3V26a3,3,0,0,0-3-3H6v-.558C6,12.694,13.565,4.381,23.306,4.013A18.019,18.019,0,0,1,42,22v1H36a3,3,0,0,0-3,3V36a3,3,0,0,0,3,3h4a5,5,0,0,0,5-5V22A21.023,21.023,0,0,0,23.19,1.015Z" fill="#666"></path><path d="M12,23a3,3,0,0,1,3,3V36a3,3,0,0,1-3,3H8a5,5,0,0,1-5-5V23Z" fill="#999"></path><path d="M12,23H10V39h2a3,3,0,0,0,3-3V26A3,3,0,0,0,12,23Z" fill="#444"></path><path d="M36,23a3,3,0,0,0-3,3V36a3,3,0,0,0,3,3h4a5,5,0,0,0,5-5V23Z" fill="#999"></path><path d="M36,23h2V39H36a3,3,0,0,1-3-3V26A3,3,0,0,1,36,23Z" fill="#444"></path><rect x="23" y="41.988" width="11.897" height="5.025" rx="1" fill="#444"></rect></svg>