<svg xmlns="http://www.w3.org/2000/svg" height="48" width="48" style="" viewBox="0 0 48 48"><path d="M42 42H31V32H24V47H45V45C45 43.343 43.657 42 42 42Z" fill="url(#nc-humanoid-v2-0_linear_333_22)"></path> <path d="M24 1H29C35.071 1 40 5.929 40 12V26C40 32.071 35.071 37 29 37H24V1Z" fill="url(#nc-humanoid-v2-1_linear_333_22)"></path> <path d="M1.99999 47C1.49499 47 1.06899 46.623 1.00799 46.122C0.945992 45.621 1.26799 45.152 1.75799 45.03L13.971 41.976C15.752 41.531 17.001 39.931 17.001 38.095V31.999H24.001V46.999L1.99999 47Z" fill="url(#nc-humanoid-v2-2_linear_333_22)"></path> <path d="M24 1C15.163 1 8 8.163 8 17V21C8 29.837 15.163 37 24 37V1Z" fill="url(#nc-humanoid-v2-3_linear_333_22)"></path> <path d="M47.5 6.5C47.5 5.121 46.379 4 45 4C43.621 4 42.5 5.121 42.5 6.5C42.5 7.523 43.119 8.401 44 8.788V17C44 18.103 43.103 19 42 19H40V21H42C44.206 21 46 19.206 46 17V8.788C46.881 8.401 47.5 7.522 47.5 6.5Z" fill="url(#nc-humanoid-v2-4_linear_333_22)"></path> <path d="M24 27H30C31.104 27 32 27.896 32 29C32 30.104 31.104 31 30 31H24V27Z" fill="url(#nc-humanoid-v2-5_linear_333_22)"></path> <path d="M31 21C32.1046 21 33 20.1046 33 19C33 17.8954 32.1046 17 31 17C29.8954 17 29 17.8954 29 19C29 20.1046 29.8954 21 31 21Z" fill="url(#nc-humanoid-v2-6_linear_333_22)"></path> <path d="M28 10C28 9.448 28.448 9 29 9C29.552 9 30 9.448 30 10V12H33V10C33 9.448 33.448 9 34 9C34.552 9 35 9.448 35 10V12H40C40 5.925 35.075 1 29 1H24V12H28V10Z" fill="url(#nc-humanoid-v2-7_linear_333_22)"></path> <path d="M24 1C15.163 1 8 8.163 8 17C14.555 17 20.357 13.836 24 8.961V1Z" fill="url(#nc-humanoid-v2-8_linear_333_22)"></path> <defs> <linearGradient id="nc-humanoid-v2-0_linear_333_22" x1="34.5" y1="32" x2="34.5" y2="47" gradientUnits="userSpaceOnUse"> <stop stop-color="#E0E0E6"></stop> <stop offset="1" stop-color="#C2C3CD"></stop> </linearGradient> <linearGradient id="nc-humanoid-v2-1_linear_333_22" x1="32" y1="1" x2="32" y2="37" gradientUnits="userSpaceOnUse"> <stop stop-color="#E0E0E6"></stop> <stop offset="1" stop-color="#C2C3CD"></stop> </linearGradient> <linearGradient id="nc-humanoid-v2-2_linear_333_22" x1="12.5007" y1="31.999" x2="12.5007" y2="47" gradientUnits="userSpaceOnUse"> <stop stop-color="#B88163"></stop> <stop offset="1" stop-color="#976545"></stop> </linearGradient> <linearGradient id="nc-humanoid-v2-3_linear_333_22" x1="16" y1="1" x2="16" y2="37" gradientUnits="userSpaceOnUse"> <stop stop-color="#B88163"></stop> <stop offset="1" stop-color="#976545"></stop> </linearGradient> <linearGradient id="nc-humanoid-v2-4_linear_333_22" x1="43.75" y1="4" x2="43.75" y2="21" gradientUnits="userSpaceOnUse"> <stop stop-color="#5B5E71"></stop> <stop offset="1" stop-color="#393A46"></stop> </linearGradient> <linearGradient id="nc-humanoid-v2-5_linear_333_22" x1="28" y1="27" x2="28" y2="31" gradientUnits="userSpaceOnUse"> <stop stop-color="#393A46"></stop> <stop offset="1" stop-color="#5B5E71"></stop> </linearGradient> <linearGradient id="nc-humanoid-v2-6_linear_333_22" x1="31" y1="17" x2="31" y2="21" gradientUnits="userSpaceOnUse"> <stop stop-color="#5B5E71"></stop> <stop offset="1" stop-color="#393A46"></stop> </linearGradient> <linearGradient id="nc-humanoid-v2-7_linear_333_22" x1="32" y1="-6" x2="32" y2="8.5" gradientUnits="userSpaceOnUse"> <stop stop-color="#E0E0E6"></stop> <stop offset="1" stop-color="#C2C3CD"></stop> </linearGradient> <linearGradient id="nc-humanoid-v2-8_linear_333_22" x1="16" y1="1" x2="16" y2="17" gradientUnits="userSpaceOnUse"> <stop stop-color="#5B5E71"></stop> <stop offset="1" stop-color="#393A46"></stop> </linearGradient> </defs></svg>