<svg xmlns="http://www.w3.org/2000/svg" height="48" width="48" viewBox="0 0 48 48"><path d="M18,24a1,1,0,0,1-1-1V17a1,1,0,0,1,2,0v6A1,1,0,0,1,18,24Z" fill="#5e5e5e"></path> <path d="M30,24a1,1,0,0,1-1-1V17a1,1,0,0,1,2,0v6A1,1,0,0,1,30,24Z" fill="#5e5e5e"></path> <path d="M42.441,37a1,1,0,0,1-.837-1.546,21,21,0,1,0-35.211,0,1,1,0,1,1-1.676,1.092,23,23,0,1,1,38.563,0A1,1,0,0,1,42.441,37Z" fill="#72c472"></path> <path d="M24,47a1,1,0,0,1-1-1V41a1,1,0,0,1,2,0v5A1,1,0,0,1,24,47Z" fill="#5e5e5e"></path> <path d="M36.491,15a1,1,0,0,1-.781-.374,15,15,0,0,0-23.42,0,1,1,0,1,1-1.561-1.252,17,17,0,0,1,26.541,0A1,1,0,0,1,36.491,15Z" fill="#9edb9e"></path> <path d="M34,22H14a1,1,0,0,0-1,1v8a11,11,0,0,0,22,0V23A1,1,0,0,0,34,22Z" fill="#e6e6e6"></path></svg>