<svg xmlns="http://www.w3.org/2000/svg" height="48" width="48" viewBox="0 0 48 48"><path d="M46,3H2A1,1,0,0,0,1,4V28a1,1,0,0,0,1,1H46a1,1,0,0,0,1-1V4A1,1,0,0,0,46,3Z" fill="#afafaf"></path><path d="M8,11H5a1,1,0,0,1-1-1V8A1,1,0,0,1,5,7H8A1,1,0,0,1,9,8v2A1,1,0,0,1,8,11Z" fill="#fff"></path><path d="M15,11H12a1,1,0,0,1-1-1V8a1,1,0,0,1,1-1h3a1,1,0,0,1,1,1v2A1,1,0,0,1,15,11Z" fill="#fff"></path><path d="M22,11H19a1,1,0,0,1-1-1V8a1,1,0,0,1,1-1h3a1,1,0,0,1,1,1v2A1,1,0,0,1,22,11Z" fill="#fff"></path><path d="M29,11H26a1,1,0,0,1-1-1V8a1,1,0,0,1,1-1h3a1,1,0,0,1,1,1v2A1,1,0,0,1,29,11Z" fill="#fff"></path><path d="M36,11H33a1,1,0,0,1-1-1V8a1,1,0,0,1,1-1h3a1,1,0,0,1,1,1v2A1,1,0,0,1,36,11Z" fill="#fff"></path><path d="M43,11H40a1,1,0,0,1-1-1V8a1,1,0,0,1,1-1h3a1,1,0,0,1,1,1v2A1,1,0,0,1,43,11Z" fill="#fff"></path><path d="M8,18H5a1,1,0,0,1-1-1V15a1,1,0,0,1,1-1H8a1,1,0,0,1,1,1v2A1,1,0,0,1,8,18Z" fill="#fff"></path><path d="M15,18H12a1,1,0,0,1-1-1V15a1,1,0,0,1,1-1h3a1,1,0,0,1,1,1v2A1,1,0,0,1,15,18Z" fill="#fff"></path><path d="M22,18H19a1,1,0,0,1-1-1V15a1,1,0,0,1,1-1h3a1,1,0,0,1,1,1v2A1,1,0,0,1,22,18Z" fill="#fff"></path><path d="M29,18H26a1,1,0,0,1-1-1V15a1,1,0,0,1,1-1h3a1,1,0,0,1,1,1v2A1,1,0,0,1,29,18Z" fill="#fff"></path><path d="M43,18H33a1,1,0,0,1-1-1V15a1,1,0,0,1,1-1H43a1,1,0,0,1,1,1v2A1,1,0,0,1,43,18Z" fill="#fff"></path><path d="M8,25H5a1,1,0,0,1-1-1V22a1,1,0,0,1,1-1H8a1,1,0,0,1,1,1v2A1,1,0,0,1,8,25Z" fill="#fff"></path><path d="M36,25H12a1,1,0,0,1-1-1V22a1,1,0,0,1,1-1H36a1,1,0,0,1,1,1v2A1,1,0,0,1,36,25Z" fill="#fff"></path><path d="M43,25H40a1,1,0,0,1-1-1V22a1,1,0,0,1,1-1h3a1,1,0,0,1,1,1v2A1,1,0,0,1,43,25Z" fill="#fff"></path><path d="M24,45a1,1,0,0,1-.6-.2l-8-6a1,1,0,1,1,1.2-1.6L24,42.75l7.4-5.55a1,1,0,1,1,1.2,1.6l-8,6A1,1,0,0,1,24,45Z" fill="#444"></path></svg>