<svg xmlns="http://www.w3.org/2000/svg" height="48" width="48" viewBox="0 0 48 48"><path d="M46,21H2a1,1,0,0,0-1,1V46a1,1,0,0,0,1,1H46a1,1,0,0,0,1-1V22A1,1,0,0,0,46,21Z" fill="#afafaf"></path><path d="M8,29H5a1,1,0,0,1-1-1V26a1,1,0,0,1,1-1H8a1,1,0,0,1,1,1v2A1,1,0,0,1,8,29Z" fill="#fff"></path><path d="M15,29H12a1,1,0,0,1-1-1V26a1,1,0,0,1,1-1h3a1,1,0,0,1,1,1v2A1,1,0,0,1,15,29Z" fill="#fff"></path><path d="M22,29H19a1,1,0,0,1-1-1V26a1,1,0,0,1,1-1h3a1,1,0,0,1,1,1v2A1,1,0,0,1,22,29Z" fill="#fff"></path><path d="M29,29H26a1,1,0,0,1-1-1V26a1,1,0,0,1,1-1h3a1,1,0,0,1,1,1v2A1,1,0,0,1,29,29Z" fill="#fff"></path><path d="M36,29H33a1,1,0,0,1-1-1V26a1,1,0,0,1,1-1h3a1,1,0,0,1,1,1v2A1,1,0,0,1,36,29Z" fill="#fff"></path><path d="M43,29H40a1,1,0,0,1-1-1V26a1,1,0,0,1,1-1h3a1,1,0,0,1,1,1v2A1,1,0,0,1,43,29Z" fill="#fff"></path><path d="M8,36H5a1,1,0,0,1-1-1V33a1,1,0,0,1,1-1H8a1,1,0,0,1,1,1v2A1,1,0,0,1,8,36Z" fill="#fff"></path><path d="M15,36H12a1,1,0,0,1-1-1V33a1,1,0,0,1,1-1h3a1,1,0,0,1,1,1v2A1,1,0,0,1,15,36Z" fill="#fff"></path><path d="M22,36H19a1,1,0,0,1-1-1V33a1,1,0,0,1,1-1h3a1,1,0,0,1,1,1v2A1,1,0,0,1,22,36Z" fill="#fff"></path><path d="M29,36H26a1,1,0,0,1-1-1V33a1,1,0,0,1,1-1h3a1,1,0,0,1,1,1v2A1,1,0,0,1,29,36Z" fill="#fff"></path><path d="M43,36H33a1,1,0,0,1-1-1V33a1,1,0,0,1,1-1H43a1,1,0,0,1,1,1v2A1,1,0,0,1,43,36Z" fill="#fff"></path><path d="M8,43H5a1,1,0,0,1-1-1V40a1,1,0,0,1,1-1H8a1,1,0,0,1,1,1v2A1,1,0,0,1,8,43Z" fill="#fff"></path><path d="M36,43H12a1,1,0,0,1-1-1V40a1,1,0,0,1,1-1H36a1,1,0,0,1,1,1v2A1,1,0,0,1,36,43Z" fill="#fff"></path><path d="M43,43H40a1,1,0,0,1-1-1V40a1,1,0,0,1,1-1h3a1,1,0,0,1,1,1v2A1,1,0,0,1,43,43Z" fill="#fff"></path><path d="M31.071,13.929a.993.993,0,0,1-.707-.293,9,9,0,0,0-12.728,0,1,1,0,0,1-1.414-1.414,11,11,0,0,1,15.556,0,1,1,0,0,1-.707,1.707Z" fill="#badefc"></path><path d="M36.728,8.272a1,1,0,0,1-.707-.293,17.021,17.021,0,0,0-24.042,0,1,1,0,1,1-1.414-1.414,19.022,19.022,0,0,1,26.87,0,1,1,0,0,1-.707,1.707Z" fill="#43a6dd"></path></svg>