<svg xmlns="http://www.w3.org/2000/svg" height="48" width="48" viewBox="0 0 48 48"><path d="M0,32s0,7,8,7H41a7,7,0,0,0,7-7Z" fill="#e6e6e6"></path><path d="M44,32V9a4,4,0,0,0-4-4H8A4,4,0,0,0,4,9V32Z" fill="#444"></path><path d="M18,32H30a0,0,0,0,1,0,0v2a1,1,0,0,1-1,1H19a1,1,0,0,1-1-1V32A0,0,0,0,1,18,32Z" fill="#b3b3b3"></path><rect x="6" y="9" width="36" height="21" fill="#867fe8"></rect><path d="M37,24c-4.424,0-9,3.229-9,8.634,0,5.015,7.459,12.278,8.31,13.09a1,1,0,0,0,1.38,0c.851-.812,8.31-8.075,8.31-13.09C46,27.229,41.424,24,37,24Z" fill="#e86c60"></path><path d="M37,36a3,3,0,1,1,3-3A3,3,0,0,1,37,36Z" fill="#fff"></path></svg>