<svg xmlns="http://www.w3.org/2000/svg" height="48" width="48" viewBox="0 0 48 48"><path d="M0,31s0,7,8,7H41a7,7,0,0,0,7-7Z" fill="#e6e6e6"></path><path d="M44,31V8a4,4,0,0,0-4-4H8A4,4,0,0,0,4,8V31Z" fill="#444"></path><path d="M18,31H30a0,0,0,0,1,0,0v2a1,1,0,0,1-1,1H19a1,1,0,0,1-1-1V31A0,0,0,0,1,18,31Z" fill="#b3b3b3"></path><rect x="6" y="8" width="36" height="21" fill="#867fe8"></rect><path d="M37,24A10,10,0,1,0,47,34,10,10,0,0,0,37,24Z" fill="#ed7064"></path><path d="M41,35H33a1,1,0,0,1,0-2h8a1,1,0,0,1,0,2Z" fill="#fff"></path></svg>