<svg xmlns="http://www.w3.org/2000/svg" height="48" width="48" viewBox="0 0 48 48"><path d="M0,31s0,7,8,7H41a7,7,0,0,0,7-7Z" fill="#e6e6e6"></path><path d="M44,31V8a4,4,0,0,0-4-4H8A4,4,0,0,0,4,8V31Z" fill="#444"></path><path d="M18,31H30a0,0,0,0,1,0,0v2a1,1,0,0,1-1,1H19a1,1,0,0,1-1-1V31A0,0,0,0,1,18,31Z" fill="#b3b3b3"></path><rect x="6" y="8" width="36" height="21" fill="#867fe8"></rect><rect x="42.121" y="36.05" width="2" height="8.143" transform="translate(-15.74 42.242) rotate(-45)" fill="#3d92f9"></rect><path d="M36,40a7,7,0,1,1,7-7A7.009,7.009,0,0,1,36,40Zm0-12a5,5,0,1,0,5,5A5.006,5.006,0,0,0,36,28Z" fill="#3d92f9"></path><circle cx="36" cy="33" r="6" fill="#bfdee0"></circle><rect x="41.121" y="36.05" width="4" height="8.142" transform="translate(-15.74 42.24) rotate(-44.998)" fill="#c19f85"></rect><path d="M36,40a7,7,0,1,1,7-7A7,7,0,0,1,36,40Zm0-12a5,5,0,1,0,5,5A5,5,0,0,0,36,28Z" fill="#223e49"></path></svg>