<svg xmlns="http://www.w3.org/2000/svg" height="48" width="48" viewBox="0 0 48 48"><path d="M0,33s0,7,8,7H41a7,7,0,0,0,7-7Z" fill="#e6e6e6"></path><path d="M44,33V10a4,4,0,0,0-4-4H8a4,4,0,0,0-4,4V33Z" fill="#444"></path><path d="M18,33H30a0,0,0,0,1,0,0v2a1,1,0,0,1-1,1H19a1,1,0,0,1-1-1V33A0,0,0,0,1,18,33Z" fill="#b3b3b3"></path><rect x="6" y="10" width="36" height="21" fill="#867fe8"></rect><path d="M43,32a1,1,0,0,1-1-1V27a3,3,0,0,0-6,0v4a1,1,0,0,1-2,0V27a5,5,0,0,1,10,0v4A1,1,0,0,1,43,32Z" fill="#a68d0c"></path><path d="M46,44H32a2,2,0,0,1-2-2V32a2,2,0,0,1,2-2H46a2,2,0,0,1,2,2V42A2,2,0,0,1,46,44Z" fill="#efd358"></path><path d="M41,36a2,2,0,1,0-3,1.723V41h2V37.723A1.994,1.994,0,0,0,41,36Z" fill="#a68d0c"></path></svg>