<svg xmlns="http://www.w3.org/2000/svg" height="48" width="48" viewBox="0 0 48 48"><path d="M0,31s0,7,8,7H41a7,7,0,0,0,7-7Z" fill="#e6e6e6"></path><path d="M44,31V8a4,4,0,0,0-4-4H8A4,4,0,0,0,4,8V31Z" fill="#444"></path><path d="M18,31H30a0,0,0,0,1,0,0v2a1,1,0,0,1-1,1H19a1,1,0,0,1-1-1V31A0,0,0,0,1,18,31Z" fill="#b3b3b3"></path><rect x="6" y="8" width="36" height="21" fill="#867fe8"></rect><path d="M42.657,25.515l-2.329,2.329A6.942,6.942,0,0,0,39,27.3V24H35v3.3a6.845,6.845,0,0,0-1.328.549L31.343,25.52l-2.828,2.828,2.329,2.329A6.871,6.871,0,0,0,30.3,32H27v4h3.3a6.845,6.845,0,0,0,.549,1.328L28.52,39.657l2.828,2.828,2.329-2.329A6.954,6.954,0,0,0,35,40.705V44h4V40.7a6.845,6.845,0,0,0,1.328-.549l2.329,2.329,2.828-2.828-2.329-2.329A6.954,6.954,0,0,0,43.705,36H47V32H43.7a6.845,6.845,0,0,0-.549-1.328l2.329-2.329Z" fill="#b3b3b3"></path><circle cx="37" cy="34" r="3" fill="#fff"></circle></svg>