<svg xmlns="http://www.w3.org/2000/svg" height="48" width="48" viewBox="0 0 48 48"><path d="M0,31s0,7,8,7H41a7,7,0,0,0,7-7Z" fill="#e6e6e6"></path><path d="M44,31V8a4,4,0,0,0-4-4H8A4,4,0,0,0,4,8V31Z" fill="#444"></path><path d="M18,31H30a0,0,0,0,1,0,0v2a1,1,0,0,1-1,1H19a1,1,0,0,1-1-1V31A0,0,0,0,1,18,31Z" fill="#b3b3b3"></path><rect x="6" y="8" width="36" height="21" fill="#867fe8"></rect><path d="M37,24A10,10,0,1,0,47,34,10,10,0,0,0,37,24Zm0,16a6.085,6.085,0,0,1-4.186-1.708L31,40.166V35h5l-1.794,1.854A4.073,4.073,0,0,0,37,38a4,4,0,0,0,3.858-3H42.91A6.006,6.006,0,0,1,37,40Zm6-7H38l1.794-1.854A3.98,3.98,0,0,0,33.142,33H31.09a5.988,5.988,0,0,1,10.1-3.291L43,27.834Z" fill="#867fe8"></path><path d="M37,40a6.085,6.085,0,0,1-4.186-1.708L31,40.166V35h5l-1.794,1.854A4.073,4.073,0,0,0,37,38a4,4,0,0,0,3.858-3H42.91A6.006,6.006,0,0,1,37,40Zm6-7H38l1.794-1.854A3.98,3.98,0,0,0,33.142,33H31.09a5.988,5.988,0,0,1,10.1-3.291L43,27.834Z" fill="#fff"></path></svg>