<svg xmlns="http://www.w3.org/2000/svg" height="48" width="48" viewBox="0 0 48 48"><path d="M0,32s0,7,8,7H41a7,7,0,0,0,7-7Z" fill="#e6e6e6"></path><path d="M44,32V9a4,4,0,0,0-4-4H8A4,4,0,0,0,4,9V32Z" fill="#444"></path><path d="M18,32H30a0,0,0,0,1,0,0v2a1,1,0,0,1-1,1H19a1,1,0,0,1-1-1V32A0,0,0,0,1,18,32Z" fill="#b3b3b3"></path><rect x="6" y="9" width="36" height="21" fill="#867fe8"></rect><path d="M46.9,35.553A1,1,0,0,0,46,35H42V24H38V35H34a1,1,0,0,0-.8,1.6l6,8a1,1,0,0,0,1.6,0l6-8A1,1,0,0,0,46.9,35.553Z" fill="#72c472"></path></svg>