<svg xmlns="http://www.w3.org/2000/svg" height="48" width="48" viewBox="0 0 48 48"><path d="M1,12V34a5.006,5.006,0,0,0,5,5H42a5.006,5.006,0,0,0,5-5V12a5.006,5.006,0,0,0-5-5H6A5.006,5.006,0,0,0,1,12Z" fill="#444"></path><path d="M39,9a1,1,0,0,1,1,1V36a1,1,0,0,1-1,1H7a1,1,0,0,1-1-1V10A1,1,0,0,1,7,9Z" fill="#b7e3fc"></path><path d="M36,34a1,1,0,0,1-1-1V29a3,3,0,0,0-6,0v4a1,1,0,0,1-2,0V29a5,5,0,0,1,10,0v4A1,1,0,0,1,36,34Z" fill="#a68d0c"></path><path d="M39,46H25a2,2,0,0,1-2-2V34a2,2,0,0,1,2-2H39a2,2,0,0,1,2,2V44A2,2,0,0,1,39,46Z" fill="#efd358"></path><path d="M34,38a2,2,0,1,0-3,1.723V43h2V39.723A1.994,1.994,0,0,0,34,38Z" fill="#a68d0c"></path></svg>