<svg xmlns="http://www.w3.org/2000/svg" height="48" width="48" viewBox="0 0 48 48"><path d="M16,45A13.014,13.014,0,0,1,3,32a1,1,0,0,1,2,0A11.012,11.012,0,0,0,16,43a1,1,0,0,1,0,2Z" fill="#b3b3b3"></path><path d="M43.539,31.242a4.983,4.983,0,0,0,0-7.047L23.811,4.456a4.992,4.992,0,0,0-7.05,0l-12.3,12.3a4.99,4.99,0,0,0,0,7.05L24.189,43.544a4.992,4.992,0,0,0,7.05,0Z" fill="#444"></path><path d="M40.554,25.45,25.447,40.557a1,1,0,0,1-1.415,0h0L6.449,22.969a1,1,0,0,1,0-1.414L21.558,6.446a1,1,0,0,1,1.414,0l17.582,17.59A1,1,0,0,1,40.554,25.45Z" fill="#b7e3fc"></path><path d="M27.728,45.068a4.984,4.984,0,0,1-3.536-1.462l-19.8-19.8a5,5,0,0,1,0-7.071L16.736,4.394a5.006,5.006,0,0,1,7.072,0L26.414,7,25,8.414,22.394,5.808a3.005,3.005,0,0,0-4.244,0L5.808,18.151a3,3,0,0,0,0,4.243l19.8,19.8a3.005,3.005,0,0,0,4.244,0L42.9,29.142l1.414,1.414L31.264,43.606A4.984,4.984,0,0,1,27.728,45.068Z" fill="#444"></path><path d="M42,11a1,1,0,0,1-1-1V6a3,3,0,0,0-6,0v4a1,1,0,0,1-2,0V6A5,5,0,0,1,43,6v4A1,1,0,0,1,42,11Z" fill="#a68d0c"></path><path d="M45,23H31a2,2,0,0,1-2-2V11a2,2,0,0,1,2-2H45a2,2,0,0,1,2,2V21A2,2,0,0,1,45,23Z" fill="#efd358"></path><path d="M40,15a2,2,0,1,0-3,1.723V20h2V16.723A1.994,1.994,0,0,0,40,15Z" fill="#a68d0c"></path></svg>