<svg xmlns="http://www.w3.org/2000/svg" height="48" width="48" viewBox="0 0 48 48"><path d="M33,1H11A5.006,5.006,0,0,0,6,6V42a5.006,5.006,0,0,0,5,5H33a5.006,5.006,0,0,0,5-5V6A5.006,5.006,0,0,0,33,1Z" fill="#444"></path><path d="M36,39a1,1,0,0,1-1,1H9a1,1,0,0,1-1-1V7A1,1,0,0,1,9,6H35a1,1,0,0,1,1,1Z" fill="#b7e3fc"></path><path d="M41,35a1,1,0,0,1-1-1V30a3,3,0,0,0-6,0v4a1,1,0,0,1-2,0V30a5,5,0,0,1,10,0v4A1,1,0,0,1,41,35Z" fill="#a68d0c"></path><path d="M44,47H30a2,2,0,0,1-2-2V35a2,2,0,0,1,2-2H44a2,2,0,0,1,2,2V45A2,2,0,0,1,44,47Z" fill="#efd358"></path><path d="M39,39a2,2,0,1,0-3,1.723V44h2V40.723A1.994,1.994,0,0,0,39,39Z" fill="#a68d0c"></path></svg>