<svg xmlns="http://www.w3.org/2000/svg" height="48" width="48" viewBox="0 0 48 48"><path d="M37.053,39.145a.96.96,0,0,1-.264-.036,1,1,0,0,1-.7-1.227l3.9-14.287a1,1,0,0,1,1.93.525l-3.9,14.287A1,1,0,0,1,37.053,39.145Z" fill="#b7e3fc"></path><path d="M32,43H16a1,1,0,0,1,0-2H32a1,1,0,0,1,0,2Z" fill="#b7e3fc"></path><path d="M10.947,39.145a1,1,0,0,1-.964-.738l-3.9-14.286a1,1,0,0,1,1.93-.525l3.9,14.286a1,1,0,0,1-.7,1.227A.96.96,0,0,1,10.947,39.145Z" fill="#b7e3fc"></path><path d="M9.155,18.547a1,1,0,0,1-.615-1.789L20.229,7.666a1,1,0,1,1,1.229,1.578L9.769,18.336A.994.994,0,0,1,9.155,18.547Z" fill="#b7e3fc"></path><path d="M24,23a1,1,0,0,1-1-1V10a1,1,0,0,1,2,0V22A1,1,0,0,1,24,23Z" fill="#b7e3fc"></path><path d="M14.5,39.878a1,1,0,0,1-.811-1.583l7.005-9.756a1,1,0,0,1,1.625,1.166L15.31,39.461A1,1,0,0,1,14.5,39.878Z" fill="#b7e3fc"></path><path d="M24,11a1,1,0,0,1-.38-.07,1.19,1.19,0,0,1-.33-.22,1.169,1.169,0,0,1-.21-.33A.838.838,0,0,1,23,10a1.045,1.045,0,0,1,.29-.71,1,1,0,0,1,1.09-.21,1.169,1.169,0,0,1,.33.21A1.05,1.05,0,0,1,25,10a1.011,1.011,0,0,1-.29.71,1.2,1.2,0,0,1-.33.22A1,1,0,0,1,24,11Z" fill="#b7e3fc"></path><path d="M33.5,39.878a1,1,0,0,1-.814-.417l-7-9.756a1,1,0,0,1,1.625-1.166l7,9.756a1,1,0,0,1-.811,1.583Z" fill="#b7e3fc"></path><path d="M27.726,25.552a1,1,0,0,1-.283-1.959l10.547-3.1a1,1,0,0,1,.565,1.918l-10.547,3.1A.992.992,0,0,1,27.726,25.552Z" fill="#b7e3fc"></path><path d="M38.845,18.547a.994.994,0,0,1-.614-.211L26.542,9.244a1,1,0,1,1,1.229-1.578L39.46,16.758a1,1,0,0,1-.615,1.789Z" fill="#b7e3fc"></path><path d="M20.274,25.552a1,1,0,0,1-.282-.041l-10.547-3.1a1,1,0,0,1,.565-1.918l10.547,3.1a1,1,0,0,1-.283,1.959Z" fill="#b7e3fc"></path><path d="M24,31a5,5,0,1,1,5-5A5.006,5.006,0,0,1,24,31Z" fill="#47b0ea"></path><path d="M24,11a5,5,0,1,1,5-5A5.006,5.006,0,0,1,24,11Z" fill="#47b0ea"></path><path d="M42,25a5,5,0,1,1,5-5A5.006,5.006,0,0,1,42,25Z" fill="#47b0ea"></path><path d="M6,25a5,5,0,1,1,5-5A5.006,5.006,0,0,1,6,25Z" fill="#47b0ea"></path><path d="M12,47a5,5,0,1,1,5-5A5.006,5.006,0,0,1,12,47Z" fill="#47b0ea"></path><path d="M36,47a5,5,0,1,1,5-5A5.006,5.006,0,0,1,36,47Z" fill="#47b0ea"></path></svg>