<svg xmlns="http://www.w3.org/2000/svg" height="48" width="48" viewBox="0 0 48 48"><path d="M24,4C11.3,4,1,12.5,1,23S11.3,42,24,42a25.39,25.39,0,0,0,6.1-.7l11.5,4.6c.1,0,.2.1.4.1a1.421,1.421,0,0,0,.6-.2,1.086,1.086,0,0,0,.4-.9l-1.1-10A16.939,16.939,0,0,0,47,23C47,12.5,36.7,4,24,4Z" fill="#47b0ea"></path><path d="M42.657,2.515,40.328,4.844A6.914,6.914,0,0,0,39,4.3V1H35V4.3a6.914,6.914,0,0,0-1.328.549L31.343,2.515,28.515,5.343l2.329,2.329A6.914,6.914,0,0,0,30.3,9H27v4h3.3a6.914,6.914,0,0,0,.549,1.328l-2.329,2.329,2.828,2.828,2.329-2.329A6.914,6.914,0,0,0,35,17.7V21h4V17.7a6.914,6.914,0,0,0,1.328-.549l2.329,2.329,2.828-2.828-2.329-2.329A6.914,6.914,0,0,0,43.705,13H47V9h-3.3a6.914,6.914,0,0,0-.549-1.328l2.329-2.329Z" fill="#444"></path><circle cx="37" cy="11" r="3" fill="#fff"></circle></svg>