<svg xmlns="http://www.w3.org/2000/svg" height="48" width="48" viewBox="0 0 48 48"><path d="M8,5A4,4,0,0,0,4,9V43a4,4,0,0,0,4,4H29a4,4,0,0,0,4-4V9a4,4,0,0,0-4-4Z" fill="#444"></path><path d="M31,39a1,1,0,0,1-1,1H7a1,1,0,0,1-1-1V11a1,1,0,0,1,1-1H30a1,1,0,0,1,1,1Z" fill="#b7e3fc"></path><path d="M43,1H23a4,4,0,0,0-4,4V25a1,1,0,0,0,1.6.8L27,21H43a4,4,0,0,0,4-4V5A4,4,0,0,0,43,1Z" fill="#47b0ea"></path><path d="M32,15H26a1,1,0,0,1,0-2h6a1,1,0,0,1,0,2Zm8-6H26a1,1,0,0,1,0-2H40a1,1,0,0,1,0,2Z" fill="#fff"></path></svg>