<svg xmlns="http://www.w3.org/2000/svg" height="48" width="48" viewBox="0 0 48 48"><path d="M33,1H11A5.006,5.006,0,0,0,6,6V42a5.006,5.006,0,0,0,5,5s15.457-.023,22.949-.041a4,4,0,0,0,3.984-3.993L38,6A5.006,5.006,0,0,0,33,1Z" fill="#444"></path><path d="M35,40H9a1,1,0,0,1-1-1V7A1,1,0,0,1,9,6H35a1,1,0,0,1,1,1V39A1,1,0,0,1,35,40Z" fill="#b7e3fc"></path><path d="M36,26A10,10,0,1,0,46,36,10,10,0,0,0,36,26Z" fill="#72c472"></path><path d="M40,37H37v3a1,1,0,0,1-2,0V37H32a1,1,0,0,1,0-2h3V32a1,1,0,0,1,2,0v3h3a1,1,0,0,1,0,2Z" fill="#fff"></path></svg>