<svg xmlns="http://www.w3.org/2000/svg" height="48" width="48" viewBox="0 0 48 48"><path d="M32.945,1h-22a5.006,5.006,0,0,0-5,5V42a5.006,5.006,0,0,0,5,5s15.458-.023,22.949-.041a4,4,0,0,0,3.984-3.993L37.945,6A5.005,5.005,0,0,0,32.945,1Z" fill="#444"></path><path d="M34.945,40h-26a1,1,0,0,1-1-1V7a1,1,0,0,1,1-1h26a1,1,0,0,1,1,1V39A1,1,0,0,1,34.945,40Z" fill="#b7e3fc"></path><path d="M45.274,30.737A5.9,5.9,0,0,0,37,30.649a5.918,5.918,0,0,0-8.27,8.467l7.561,7.59a1,1,0,0,0,1.414,0l0,0,7.563-7.59A5.945,5.945,0,0,0,45.274,30.737Z" fill="#ed7064"></path></svg>