<svg xmlns="http://www.w3.org/2000/svg" height="48" width="48" viewBox="0 0 48 48"><path d="M32,1H10A5.006,5.006,0,0,0,5,6V42a5.006,5.006,0,0,0,5,5s15.457-.023,22.949-.041a4,4,0,0,0,3.984-3.993L37,6A5.006,5.006,0,0,0,32,1Z" fill="#444"></path><path d="M34,40H8a1,1,0,0,1-1-1V7A1,1,0,0,1,8,6H34a1,1,0,0,1,1,1V39A1,1,0,0,1,34,40Z" fill="#b7e3fc"></path><path d="M36,25c-4.424,0-9,3.229-9,8.634,0,5.015,7.459,12.278,8.31,13.09a1,1,0,0,0,1.38,0c.851-.812,8.31-8.075,8.31-13.09C45,28.229,40.424,25,36,25Z" fill="#e86c60"></path><path d="M36,37a3,3,0,1,1,3-3A3,3,0,0,1,36,37Z" fill="#fff"></path></svg>