<svg xmlns="http://www.w3.org/2000/svg" height="48" width="48" viewBox="0 0 48 48"><path d="M32,1H10A5.006,5.006,0,0,0,5,6V42a5.006,5.006,0,0,0,5,5s15.457-.023,22.949-.041a4,4,0,0,0,3.984-3.993L37,6A5.006,5.006,0,0,0,32,1Z" fill="#444"></path><path d="M34,40H8a1,1,0,0,1-1-1V7A1,1,0,0,1,8,6H34a1,1,0,0,1,1,1V39A1,1,0,0,1,34,40Z" fill="#b7e3fc"></path><path d="M41.657,28.515l-2.329,2.329A6.942,6.942,0,0,0,38,30.3V27H34v3.3a6.845,6.845,0,0,0-1.328.549L30.343,28.52l-2.828,2.828,2.329,2.329A6.871,6.871,0,0,0,29.3,35H26v4h3.3a6.87,6.87,0,0,0,.549,1.328L27.52,42.657l2.828,2.828,2.329-2.329A6.954,6.954,0,0,0,34,43.705V47h4V43.7a6.845,6.845,0,0,0,1.328-.549l2.329,2.329,2.828-2.828-2.329-2.329A6.954,6.954,0,0,0,42.705,39H46V35H42.7a6.845,6.845,0,0,0-.549-1.328l2.329-2.329Z" fill="#b3b3b3"></path><circle cx="36" cy="37" r="3" fill="#fff"></circle></svg>