<svg xmlns="http://www.w3.org/2000/svg" height="48" width="48" viewBox="0 0 48 48"><path d="M33,1H11A5.006,5.006,0,0,0,6,6V42a5.006,5.006,0,0,0,5,5s15.457-.023,22.949-.041a4,4,0,0,0,3.984-3.993L38,6A5.006,5.006,0,0,0,33,1Z" fill="#444"></path><path d="M35,40H9a1,1,0,0,1-1-1V7A1,1,0,0,1,9,6H35a1,1,0,0,1,1,1V39A1,1,0,0,1,35,40Z" fill="#b7e3fc"></path><circle cx="33" cy="35.001" r="6" fill="#bfdee0"></circle><rect x="38.121" y="38.05" width="4" height="8.142" transform="translate(-18.033 40.705) rotate(-44.998)" fill="#c19f85"></rect><path d="M33,42a7,7,0,1,1,7-7A7,7,0,0,1,33,42Zm0-12a5,5,0,1,0,5,5A5,5,0,0,0,33,30Z" fill="#223e49"></path></svg>