<svg xmlns="http://www.w3.org/2000/svg" height="48" width="48" viewBox="0 0 48 48"><path d="M32,1H10A5.006,5.006,0,0,0,5,6V42a5.006,5.006,0,0,0,5,5s15.457-.023,22.949-.041a4,4,0,0,0,3.984-3.993L37,6A5.006,5.006,0,0,0,32,1Z" fill="#444"></path><path d="M34,40H8a1,1,0,0,1-1-1V7A1,1,0,0,1,8,6H34a1,1,0,0,1,1,1V39A1,1,0,0,1,34,40Z" fill="#b7e3fc"></path><path d="M36,27A10,10,0,1,0,46,37,10,10,0,0,0,36,27Zm0,16a6.085,6.085,0,0,1-4.186-1.708L30,43.166V38h5l-1.794,1.854A4.073,4.073,0,0,0,36,41a4,4,0,0,0,3.858-3H41.91A6.006,6.006,0,0,1,36,43Zm6-7H37l1.794-1.854A3.98,3.98,0,0,0,32.142,36H30.09a5.988,5.988,0,0,1,10.1-3.291L42,30.834Z" fill="#867fe8"></path><path d="M36,43a6.085,6.085,0,0,1-4.186-1.708L30,43.166V38h5l-1.794,1.854A4.073,4.073,0,0,0,36,41a4,4,0,0,0,3.858-3H41.91A6.006,6.006,0,0,1,36,43Zm6-7H37l1.794-1.854A3.98,3.98,0,0,0,32.142,36H30.09a5.988,5.988,0,0,1,10.1-3.291L42,30.834Z" fill="#fff"></path></svg>