<svg xmlns="http://www.w3.org/2000/svg" height="48" width="48" viewBox="0 0 48 48"><path d="M32,1H10A5.006,5.006,0,0,0,5,6V42a5.006,5.006,0,0,0,5,5s15.457-.023,22.949-.041a4,4,0,0,0,3.984-3.993L37,6A5.006,5.006,0,0,0,32,1Z" fill="#444"></path><path d="M34,40H8a1,1,0,0,1-1-1V7A1,1,0,0,1,8,6H34a1,1,0,0,1,1,1V39A1,1,0,0,1,34,40Z" fill="#b7e3fc"></path><path d="M36,46A10,10,0,1,0,26,36,10,10,0,0,0,36,46Z" fill="#47b0ea"></path><path d="M35,32a1,1,0,0,1,2,0v4h4a1,1,0,0,1,0,2H36a1,1,0,0,1-1-1Z" fill="#fff"></path></svg>