<svg xmlns="http://www.w3.org/2000/svg" height="48" width="48" viewBox="0 0 48 48"><path d="M35,1H13A5.006,5.006,0,0,0,8,6V42a5.006,5.006,0,0,0,5,5H35a5.006,5.006,0,0,0,5-5V6A5.006,5.006,0,0,0,35,1Z" fill="#444"></path><path d="M38,7V39a1,1,0,0,1-1,1H11a1,1,0,0,1-1-1V7a1,1,0,0,1,1-1H37A1,1,0,0,1,38,7Z" fill="#686868"></path><path d="M32.269,22.639l-10,12a1,1,0,0,1-1.7-1.012L24.023,25H16.5a1,1,0,0,1-.768-1.639l10-12a1,1,0,0,1,1.7,1.011L23.977,21H31.5a1,1,0,0,1,.769,1.64Z" fill="#ffd764"></path></svg>