<svg xmlns="http://www.w3.org/2000/svg" height="48" width="48" viewBox="0 0 48 48"><circle cx="24" cy="24" r="23" fill="#363636"></circle><path d="M24,1a22.866,22.866,0,0,0-9,1.836V16a9,9,0,0,0,18,0V2.836A22.866,22.866,0,0,0,24,1Z" fill="#c8c8c8"></path><path d="M41,46a1,1,0,0,1-.948-.684l-1.725-5.175A1,1,0,0,1,38.58,39.1c.178-.171.354-.347.525-.525a1,1,0,0,1,1.036-.253l5.175,1.725a1,1,0,0,1-.632,1.9l-4.1-1.366,1.366,4.1A1,1,0,0,1,41,46Z" fill="#363636"></path><path d="M7,46a1,1,0,0,1-.948-1.316l1.366-4.1-4.1,1.367a1,1,0,0,1-.632-1.9l5.175-1.726a1,1,0,0,1,1.037.255c.171.177.345.352.522.523a1,1,0,0,1,.255,1.037L7.948,45.316A1,1,0,0,1,7,46Z" fill="#363636"></path><path d="M13,8.542a19,19,0,1,0,22,0V16a11,11,0,0,1-22,0Z" fill="#4c4c4c"></path><path d="M35,3.806V6.144a21,21,0,1,1-22,0V3.806a23,23,0,1,0,22,0Z" fill="#4c4c4c"></path><path d="M13.394,33.192a1,1,0,0,1,1.414,0,13,13,0,0,0,18.384,0,1,1,0,0,1,1.414,1.414,15,15,0,0,1-21.212,0A1,1,0,0,1,13.394,33.192Z" fill="#ff7163"></path><circle cx="24" cy="16" r="4" fill="#949494"></circle><path d="M15,5.055V7.273a18.954,18.954,0,0,1,18,0V5.055a20.736,20.736,0,0,0-18,0Z" fill="#e3e3e3"></path></svg>