<svg xmlns="http://www.w3.org/2000/svg" height="48" width="48" viewBox="0 0 48 48"><path d="M42.8,17.02l-9.251,1.849L30.118,12l3.435-6.869L42.8,6.98A1,1,0,1,0,43.2,5.02l-10-2a1,1,0,0,0-1.091.533L28.382,11H10.859a3.992,3.992,0,1,0-4.108,4.975L18.211,38.9l3.578-1.79L10.336,14.2a3.977,3.977,0,0,0,.527-1.2H28.382L32.1,20.447A1,1,0,0,0,33,21a.938.938,0,0,0,.2-.02l10-2a1,1,0,0,0-.392-1.96Z" fill="#b3b3b3"></path><path d="M34,38H25a5,5,0,0,0-10,0H6a3,3,0,0,0-3,3v3a1,1,0,0,0,1,1H36a1,1,0,0,0,1-1V41A3,3,0,0,0,34,38Z" fill="#444"></path><circle cx="20" cy="38" r="2" fill="#e6e6e6"></circle><circle cx="7" cy="12" r="2" fill="#e6e6e6"></circle><path d="M8,38h2a0,0,0,0,1,0,0v1a1,1,0,0,1-1,1H9a1,1,0,0,1-1-1V38a0,0,0,0,1,0,0Z" fill="#ed7064"></path><path d="M10.336,14.2A3.992,3.992,0,0,1,7,16c-.085,0-.165-.02-.249-.025l.988,1.975a5.976,5.976,0,0,0,3.578-1.789Z" fill="#9e9e9e"></path></svg>