<svg xmlns="http://www.w3.org/2000/svg" height="48" width="48" viewBox="0 0 48 48"><rect x="30" y="14" width="2" height="17" fill="#444"></rect><circle cx="31" cy="12" r="4" fill="#636363"></circle><path d="M40,31H8A7,7,0,0,0,8,45H40a7,7,0,0,0,0-14Z" fill="#363636"></path><path d="M38.071,4.929a1,1,0,0,0-1.414,1.414,8.01,8.01,0,0,1,0,11.314,1,1,0,1,0,1.414,1.414A10.009,10.009,0,0,0,38.071,4.929Z" fill="#6cc4f5"></path><path d="M25.343,4.929a1,1,0,0,0-1.414,0,10.009,10.009,0,0,0,0,14.142,1,1,0,0,0,1.414-1.414,8.01,8.01,0,0,1,0-11.314A1,1,0,0,0,25.343,4.929Z" fill="#6cc4f5"></path><path d="M42.313.687A1,1,0,0,0,40.9,2.1a14,14,0,0,1,0,19.8,1,1,0,1,0,1.414,1.414,16,16,0,0,0,0-22.626Z" fill="#cbeafb"></path><path d="M17,12a13.905,13.905,0,0,1,4.1-9.9A1,1,0,0,0,19.687.687a16,16,0,0,0,0,22.626A1,1,0,0,0,21.1,21.9,13.905,13.905,0,0,1,17,12Z" fill="#cbeafb"></path><path d="M39,47H35a1,1,0,0,1-1-1V45h6v1A1,1,0,0,1,39,47Z" fill="#212121"></path><path d="M8,45h6a0,0,0,0,1,0,0v1a1,1,0,0,1-1,1H9a1,1,0,0,1-1-1V45A0,0,0,0,1,8,45Z" fill="#212121"></path><circle cx="8" cy="38" r="2" fill="#49c549"></circle><circle cx="15" cy="38" r="2" fill="#ffd764"></circle></svg>