<svg xmlns="http://www.w3.org/2000/svg" height="48" width="48" viewBox="0 0 48 48"><path d="M40.462,14.952a5.242,5.242,0,0,0-7.414-7.414L15.293,25.293a1,1,0,0,0,0,1.414l6,6a1,1,0,0,0,1.414,0Z" fill="#b3b3b3"></path><path d="M20.414,17l2.293-2.293a1,1,0,0,0,0-1.414l-12-12a1,1,0,0,0-1.414,0l-6,6a1,1,0,0,0,0,1.414l12,12a1,1,0,0,0,1.414,0L19,18.414,20.586,20,22,18.586Z" fill="#444"></path><path d="M16,47A15.017,15.017,0,0,1,1,32a1,1,0,0,1,2,0A13.015,13.015,0,0,0,16,45a1,1,0,0,1,0,2Z" fill="#a4dae0"></path><path d="M16,41a9.01,9.01,0,0,1-9-9,1,1,0,0,1,2,0,7.009,7.009,0,0,0,7,7,1,1,0,0,1,0,2Z" fill="#a4dae0"></path><path d="M5.414,8,10,3.414,12.586,6,8,10.586Zm4,4L14,7.414,16.586,10,12,14.586ZM16,18.586,13.414,16,18,11.414,20.586,14Z" fill="#b3b3b3"></path><path d="M29.586,29l-2.293,2.293a1,1,0,0,0,0,1.414l12,12a1,1,0,0,0,1.414,0l6-6a1,1,0,0,0,0-1.414l-12-12a1,1,0,0,0-1.414,0L31,27.586,29.414,26,28,27.414Z" fill="#444"></path><path d="M44.586,38,40,42.586,37.414,40,42,35.414Zm-4-4L36,38.586,33.414,36,38,31.414ZM34,27.414,36.586,30,32,34.586,29.414,32Z" fill="#b3b3b3"></path><path d="M35.707,12.293a1,1,0,0,0-1.414,1.414L38,17.414,39.414,16Z" fill="#444"></path></svg>