<svg xmlns="http://www.w3.org/2000/svg" height="48" width="48" viewBox="0 0 48 48"><path d="M23,47H5a1,1,0,0,1-1-1V37a1,1,0,0,1,.293-.707l9-9a1,1,0,0,1,1.414,0l3,3a1,1,0,0,1,0,1.414L10,39.414V45H23a1,1,0,0,1,0,2Z" fill="#b3b3b3"></path><circle cx="24.5" cy="20.5" r="2.5" fill="#444"></circle><path d="M25,6a1,1,0,0,0,0,2A12.013,12.013,0,0,1,37,20a1,1,0,0,0,2,0A14.015,14.015,0,0,0,25,6Z" fill="#a4dae0"></path><path d="M25,11a1,1,0,0,0,0,2,7.009,7.009,0,0,1,7,7,1,1,0,0,0,2,0A9.01,9.01,0,0,0,25,11Z" fill="#a4dae0"></path><path d="M25,1a1,1,0,0,0,0,2A17.019,17.019,0,0,1,42,20a1,1,0,0,0,2,0A19.021,19.021,0,0,0,25,1Z" fill="#a4dae0"></path><path d="M14.707,27.293a1,1,0,0,0-1.414,0L8.131,32.455a21.181,21.181,0,0,0,4.414,4.414l5.162-5.162a1,1,0,0,0,0-1.414Z" fill="#9e9e9e"></path><path d="M25,39A18.976,18.976,0,0,1,9.635,8.855a1,1,0,0,1,1.515-.119L36.264,33.85a1,1,0,0,1-.119,1.515A18.848,18.848,0,0,1,25,39Z" fill="#e6e6e6"></path></svg>