<svg xmlns="http://www.w3.org/2000/svg" height="48" width="48" viewBox="0 0 48 48"><path d="M44,17a1,1,0,0,1-1-1A11.014,11.014,0,0,0,32,5a1,1,0,0,1,0-2A13.014,13.014,0,0,1,45,16,1,1,0,0,1,44,17Z" fill="#b3b3b3"></path><path d="M16,45A13.014,13.014,0,0,1,3,32a1,1,0,0,1,2,0A11.012,11.012,0,0,0,16,43a1,1,0,0,1,0,2Z" fill="#b3b3b3"></path><path d="M43.539,31.242a4.983,4.983,0,0,0,0-7.047L23.811,4.456a4.992,4.992,0,0,0-7.05,0l-12.3,12.3a4.99,4.99,0,0,0,0,7.05L24.189,43.544a4.992,4.992,0,0,0,7.05,0Z" fill="#444"></path><path d="M40.554,25.45,25.447,40.557a1,1,0,0,1-1.415,0h0L6.449,22.969a1,1,0,0,1,0-1.414L21.558,6.446a1,1,0,0,1,1.414,0l17.582,17.59A1,1,0,0,1,40.554,25.45Z" fill="#b7e3fc"></path></svg>