<svg xmlns="http://www.w3.org/2000/svg" height="48" width="48" viewBox="0 0 48 48"><path d="M24,47A23,23,0,0,1,24,1a1,1,0,0,1,0,2A21,21,0,1,0,45,24a1,1,0,0,1,2,0A23.026,23.026,0,0,1,24,47Z" fill="#badefc"></path> <path d="M45.171,19a1,1,0,0,1-.961-.728A21.124,21.124,0,0,0,29.728,3.79a1,1,0,0,1,.545-1.924A23.133,23.133,0,0,1,46.134,17.728a1,1,0,0,1-.689,1.234A.978.978,0,0,1,45.171,19Z" fill="#43a6dd"></path> <path d="M24,40a1,1,0,0,1,0-2A14,14,0,1,0,10,24a1,1,0,0,1-2,0A16,16,0,1,1,24,40Z" fill="#badefc"></path> <path d="M18,38.752a.988.988,0,0,1-.4-.084A15.971,15.971,0,0,1,9.33,30.4a1,1,0,1,1,1.832-.8,13.986,13.986,0,0,0,7.239,7.24,1,1,0,0,1-.4,1.916Z" fill="#43a6dd"></path> <path d="M24,33a9,9,0,0,1,0-18,1,1,0,0,1,0,2,7,7,0,1,0,7,7,1,1,0,0,1,2,0A9.01,9.01,0,0,1,24,33Z" fill="#badefc"></path> <path d="M24,26a2,2,0,1,1,2-2A2,2,0,0,1,24,26Zm0-2v0Z" fill="#43a6dd"></path></svg>