<svg xmlns="http://www.w3.org/2000/svg" height="48" width="48" viewBox="0 0 48 48"><rect x="7" y="19" width="2" height="9" fill="#161616"></rect> <rect x="39" y="19" width="2" height="9" fill="#161616"></rect> <rect x="1" y="3" width="46" height="18" rx="1" ry="1" fill="#444"></rect> <rect x="1" y="27" width="46" height="18" rx="1" ry="1" fill="#444"></rect> <path d="M12,13H8a1,1,0,0,1,0-2h4a1,1,0,0,1,0,2Z" fill="#161616"></path> <path d="M12,37H8a1,1,0,0,1,0-2h4a1,1,0,0,1,0,2Z" fill="#161616"></path> <path d="M22,13H18a1,1,0,0,1,0-2h4a1,1,0,0,1,0,2Z" fill="#161616"></path> <path d="M22,37H18a1,1,0,0,1,0-2h4a1,1,0,0,1,0,2Z" fill="#161616"></path> <circle cx="38" cy="12" r="2" fill="#72c472"></circle> <circle cx="38" cy="36" r="2" fill="#72c472"></circle></svg>