<svg xmlns="http://www.w3.org/2000/svg" height="48" width="48" viewBox="0 0 48 48"><rect x="3" y="3" width="42" height="42" rx="3" fill="#444"></rect><path d="M19,26a1,1,0,0,1-1,1H8a1,1,0,0,1-1-1V25a1,1,0,0,1,1-1H18a1,1,0,0,1,1,1Zm0-7a1,1,0,0,1-1,1H8a1,1,0,0,1-1-1V18a1,1,0,0,1,1-1H18a1,1,0,0,1,1,1Zm0-7a1,1,0,0,1-1,1H8a1,1,0,0,1-1-1V11a1,1,0,0,1,1-1H18a1,1,0,0,1,1,1Z" fill="#b3b3b3"></path><path d="M41,26a1,1,0,0,1-1,1H30a1,1,0,0,1-1-1V25a1,1,0,0,1,1-1H40a1,1,0,0,1,1,1Zm0-7a1,1,0,0,1-1,1H30a1,1,0,0,1-1-1V18a1,1,0,0,1,1-1H40a1,1,0,0,1,1,1Zm0-7a1,1,0,0,1-1,1H30a1,1,0,0,1-1-1V11a1,1,0,0,1,1-1H40a1,1,0,0,1,1,1Z" fill="#b3b3b3"></path><rect x="23" y="3" width="2" height="42" fill="#161616"></rect></svg>