<svg xmlns="http://www.w3.org/2000/svg" height="48" width="48" viewBox="0 0 48 48"><path d="M23.994,2.876,5.994,17.6V44a2,2,0,0,0,2,2h32a2,2,0,0,0,2-2V17.6Z" fill="#e6e6e6"></path><path d="M45.994,22a1,1,0,0,1-.632-.226L23.994,4.292,2.627,21.774a1,1,0,0,1-1.266-1.548l22-18a1,1,0,0,1,1.266,0l22,18A1,1,0,0,1,45.994,22Z" fill="#e86c60"></path><circle cx="23.681" cy="37" r="3" fill="#335262"></circle><path d="M29.338,32.757l-.707-.707a7,7,0,0,0-9.9,0l-.707.707L16.61,31.343l.707-.707a9,9,0,0,1,12.728,0l.707.707Z" fill="#335262"></path><path d="M33.58,28.515l-.707-.707a13,13,0,0,0-18.384,0l-.707.707L12.368,27.1l.707-.707a15,15,0,0,1,21.212,0l.707.707Z" fill="#335262"></path></svg>