<svg xmlns="http://www.w3.org/2000/svg" height="48" width="48" viewBox="0 0 48 48"><circle cx="24" cy="24" r="23" fill="#c8e9ec"></circle><ellipse cx="24" cy="24" rx="22" ry="8" fill="#82adb2"></ellipse><path d="M31.859,17.538c1.361.193,2.676.439,3.911.732A1.084,1.084,0,0,0,36,18.3a1,1,0,0,0,.229-1.973c-1.293-.306-2.669-.563-4.089-.765a1,1,0,1,0-.282,1.98Z" fill="#335262"></path><path d="M12,18.3a1.084,1.084,0,0,0,.231-.026c1.235-.293,2.55-.539,3.911-.732a1,1,0,1,0-.282-1.98c-1.42.2-2.8.459-4.089.765A1,1,0,0,0,12,18.3Z" fill="#335262"></path><path d="M22.032,17.033c1.3-.041,2.639-.041,3.936,0H26a1,1,0,0,0,.031-2c-1.34-.045-2.724-.045-4.064,0a1,1,0,0,0,.064,2Z" fill="#335262"></path><path d="M24,1A23,23,0,1,0,47,24,23.025,23.025,0,0,0,24,1Zm0,2A21.032,21.032,0,0,1,44.588,19.876,14.7,14.7,0,0,0,41.4,18.008a1,1,0,1,0-.808,1.828,10.411,10.411,0,0,1,3.645,2.425h0A2.705,2.705,0,0,1,45,24c0,3.311-8.624,7-21,7S3,27.311,3,24a2.705,2.705,0,0,1,.758-1.738h0A10.411,10.411,0,0,1,7.4,19.836,1,1,0,0,0,6.6,18.008a14.7,14.7,0,0,0-3.184,1.868A21.032,21.032,0,0,1,24,3Z" fill="#335262"></path></svg>