<svg xmlns="http://www.w3.org/2000/svg" height="48" width="48" viewBox="0 0 48 48"><path fill="#5B5B5B" d="M24,33c-0.552,0-1-0.447-1-1v-4c0-0.553,0.448-1,1-1s1,0.447,1,1v4C25,32.553,24.552,33,24,33z"></path> <path fill="#444444" d="M44,29H4c-0.552,0-1-0.447-1-1V2c0-0.553,0.448-1,1-1h40c0.552,0,1,0.447,1,1v26C45,28.553,44.552,29,44,29z "></path> <rect x="5" y="3" fill="#737373" width="38" height="24"></rect> <path fill="#76B5B5" d="M46,33H2c-0.552,0-1,0.447-1,1v12c0,0.553,0.448,1,1,1s1-0.447,1-1v-5h42v5c0,0.553,0.448,1,1,1s1-0.447,1-1 V34C47,33.447,46.552,33,46,33z M3,39v-4h42v4H3z"></path> <path fill="#444444" d="M29,33H19c-0.552,0-1-0.448-1-1v0c0-0.552,0.448-1,1-1h10c0.552,0,1,0.448,1,1v0C30,32.552,29.552,33,29,33z "></path></svg>