<svg xmlns="http://www.w3.org/2000/svg" height="48" width="48" viewBox="0 0 48 48"><path d="M35,1H13A5.006,5.006,0,0,0,8,6V42a5.006,5.006,0,0,0,5,5H35a5.006,5.006,0,0,0,5-5V6A5.006,5.006,0,0,0,35,1Z" fill="#444"></path><path d="M38,7V39a1,1,0,0,1-1,1H11a1,1,0,0,1-1-1V7a1,1,0,0,1,1-1H37A1,1,0,0,1,38,7Z" fill="#b7e3fc"></path><path d="M24,34a4,4,0,0,1-4-4V16a2,2,0,0,0-4,0v6a5.006,5.006,0,0,1-5,5H2a1,1,0,0,1,0-2h9a3,3,0,0,0,3-3V16a4,4,0,0,1,8,0V30a2,2,0,0,0,4,0V20a4,4,0,0,1,8,0v2a3,3,0,0,0,3,3h9a1,1,0,0,1,0,2H37a5.006,5.006,0,0,1-5-5V20a2,2,0,0,0-4,0V30A4,4,0,0,1,24,34Z" fill="#ed69ab"></path></svg>