<svg xmlns="http://www.w3.org/2000/svg" height="48" width="48" viewBox="0 0 48 48"><path d="M24,3C11.3,3,1,5.686,1,9V38a1,1,0,0,0,2,0c0-2.039,8.181-5,21-5s21,2.961,21,5a1,1,0,0,0,2,0V9C47,5.686,36.7,3,24,3Z" fill="#335262"></path><path d="M34.832,19.445C34.656,19.183,30.461,13,24,13s-10.656,6.183-10.832,6.445a1,1,0,0,0,0,1.11C13.344,20.817,17.539,27,24,27s10.656-6.183,10.832-6.445A1,1,0,0,0,34.832,19.445Z" fill="#fff"></path><circle cx="24" cy="20" r="5" fill="#72c472"></circle><circle cx="24" cy="20" r="3" fill="#444"></circle><path d="M8.239,13.37l-.093-.025C3.747,12.252,1,10.71,1,9V37.885c0,2.079,2.262,3.787,6.723,5.076A1,1,0,0,0,9,42V14.341A1,1,0,0,0,8.239,13.37Z" fill="#82adb2"></path><path d="M39.761,13.37l.093-.025C44.253,12.252,47,10.71,47,9V37.885c0,2.079-2.262,3.787-6.723,5.076A1,1,0,0,1,39,42V14.341A1,1,0,0,1,39.761,13.37Z" fill="#82adb2"></path><circle cx="22" cy="18" r="1" fill="#fff"></circle></svg>