<svg xmlns="http://www.w3.org/2000/svg" height="48" width="48" viewBox="0 0 48 48"><path d="M34.887,17.556a.994.994,0,0,0-.44-.451l-10-5a1,1,0,0,0-.894,0l-10,5a.994.994,0,0,0-.44.451L24,23Z" fill="#9edb9e"></path><path d="M13.113,17.556A1,1,0,0,0,13,18V30a1,1,0,0,0,.553.895l10,5A1,1,0,0,0,24,36V23Z" fill="#72c472"></path><path d="M24,23V36a1,1,0,0,0,.447-.1l10-5A1,1,0,0,0,35,30V18a1,1,0,0,0-.113-.444Zm10,7h0Z" fill="#4da34d"></path><path d="M31.992,5.1a1.015,1.015,0,0,0-.025-.354l0,0c0-.008-.008-.014-.01-.022a1,1,0,0,0-.148-.3,1,1,0,0,0-.071-.075.961.961,0,0,0-.2-.173c-.016-.011-.025-.028-.042-.037l-7-4A1,1,0,0,0,23,1V4.051A20.007,20.007,0,0,0,4,24a1,1,0,0,0,2,0A18.023,18.023,0,0,1,23,6.027V9a1,1,0,0,0,1.5.868l7-4a.874.874,0,0,0,.3-.273.841.841,0,0,0,.077-.1c.009-.016.008-.033.016-.049a.987.987,0,0,0,.085-.254C31.975,5.16,31.988,5.13,31.992,5.1Z" fill="#335262"></path><path d="M44,24a1,1,0,0,0-2,0A18.023,18.023,0,0,1,25,41.973V39a1,1,0,0,0-1.5-.868l-7,4c-.021.012-.035.031-.055.045a.857.857,0,0,0-.111.09.983.983,0,0,0-.156.179c-.014.022-.037.035-.05.058s-.008.033-.016.049a.974.974,0,0,0-.085.254c-.006.032-.019.063-.023.1a1.015,1.015,0,0,0,.025.354l0,0c0,.008.008.014.01.022a1.067,1.067,0,0,0,.417.548c.016.011.025.028.042.037l7,4A1,1,0,0,0,25,47V43.949A20.007,20.007,0,0,0,44,24Z" fill="#335262"></path></svg>