<svg xmlns="http://www.w3.org/2000/svg" height="48" width="48" viewBox="0 0 48 48"><path d="M24,44a1,1,0,0,1-.781-.375L15.52,34H6a5.006,5.006,0,0,1-5-5V7A5.006,5.006,0,0,1,6,2H42a5.006,5.006,0,0,1,5,5V29a5.006,5.006,0,0,1-5,5H32.48l-7.7,9.625A1,1,0,0,1,24,44Z" fill="#867fe8"></path><path d="M17,27a1,1,0,0,1-1-1V10a1,1,0,0,1,2,0V26A1,1,0,0,1,17,27Z" fill="#fff"></path><path d="M24,21a1,1,0,0,1-1-1V16a1,1,0,0,1,2,0v4A1,1,0,0,1,24,21Z" fill="#fff"></path><path d="M10,23a1,1,0,0,1-1-1V14a1,1,0,0,1,2,0v8A1,1,0,0,1,10,23Z" fill="#fff"></path><path d="M31,25a1,1,0,0,1-1-1V12a1,1,0,0,1,2,0V24A1,1,0,0,1,31,25Z" fill="#fff"></path><path d="M38,21a1,1,0,0,1-1-1V16a1,1,0,0,1,2,0v4A1,1,0,0,1,38,21Z" fill="#fff"></path></svg>