<svg xmlns="http://www.w3.org/2000/svg" height="48" width="48" viewBox="0 0 48 48"><path d="M38,21a1,1,0,0,1-1-1,9.011,9.011,0,0,0-9-9,1,1,0,0,1,0-2A11.013,11.013,0,0,1,39,20,1,1,0,0,1,38,21Z" fill="#b7e3fc"></path><path d="M46,21a1,1,0,0,1-1-1A17.018,17.018,0,0,0,28,3a1,1,0,0,1,0-2A19.021,19.021,0,0,1,47,20,1,1,0,0,1,46,21Z" fill="#47b0ea"></path><path d="M23,25H21V18A6,6,0,0,0,9,18v7H7V18a8,8,0,0,1,16,0Z" fill="#444"></path><path d="M26,25H4a3,3,0,0,0-3,3V44a3,3,0,0,0,3,3H26a3,3,0,0,0,3-3V28A3,3,0,0,0,26,25Z" fill="#b3b3b3"></path><path d="M18,34a3,3,0,1,0-4,2.816V40a1,1,0,0,0,2,0V36.816A2.99,2.99,0,0,0,18,34Z" fill="#444"></path></svg>