<svg xmlns="http://www.w3.org/2000/svg" height="48" width="48" viewBox="0 0 48 48"><path d="M34,12a10,10,0,1,0-16,7.986V40a6,6,0,0,0,12,0V19.986A9.972,9.972,0,0,0,34,12Z" fill="#444"></path><circle cx="24" cy="12" r="5" fill="#b3b3b3"></circle><path d="M11.948,20.684a1,1,0,0,0-1.8-.2L7.692,24.57A16.139,16.139,0,0,1,3.94,20.021a6.553,6.553,0,0,1-.665-5.19C4.385,11.507,8.734,9.493,14.431,9.1a9.913,9.913,0,0,1,.913-2.092C8.276,7.241,2.852,9.783,1.379,14.2a8.577,8.577,0,0,0,.786,6.745A18.4,18.4,0,0,0,6.657,26.3l-2.514,4.19A1,1,0,0,0,5,32a1.028,1.028,0,0,0,.11-.006l9-1a1,1,0,0,0,.838-1.31Z" fill="#47b0ea"></path><path d="M45.835,21.057c-1.981-3.815-6.318-7.418-11.884-10.033.031.322.049.647.049.976a10.142,10.142,0,0,1-.083,1.228c4.773,2.375,8.449,5.488,10.143,8.751a6.553,6.553,0,0,1,.665,5.19c-1.873,5.608-12.957,7.5-24.2,4.138-.862-.258-1.7-.544-2.526-.848v2.124c.642.225,1.29.442,1.952.64a41.068,41.068,0,0,0,11.648,1.8c7.584,0,13.474-2.586,15.021-7.221A8.577,8.577,0,0,0,45.835,21.057Z" fill="#47b0ea"></path></svg>