<svg xmlns="http://www.w3.org/2000/svg" height="48" width="48" viewBox="0 0 48 48"><path d="M44.294,45.044l-8.765-2.7A4.975,4.975,0,0,1,32,37.568V32H16v5.568a4.975,4.975,0,0,1-3.529,4.779l-8.765,2.7A1,1,0,0,0,4,47H44a1,1,0,0,0,.294-1.956Z" fill="#5a7a84"></path><path d="M36.865,8.315A14.394,14.394,0,0,0,24,1,15,15,0,0,0,9,16v2c0,10,7,19,15,19,7.755,0,14.55-8.463,14.96-19H39V16A14.907,14.907,0,0,0,36.865,8.315Z" fill="#82adb2"></path><path d="M42,25V14a3,3,0,0,0-3-3H9a3,3,0,0,0-3,3V25a3,3,0,0,0,3,3h9.446a1,1,0,0,0,.848-.47l1.825-2.921a3.4,3.4,0,0,1,5.762,0l1.825,2.921a1,1,0,0,0,.848.47H39A3,3,0,0,0,42,25Z" fill="#444"></path><path d="M36,18H12a1,1,0,0,1,0-2H36a1,1,0,0,1,0,2Z" fill="#a4dae0"></path></svg>