<svg xmlns="http://www.w3.org/2000/svg" height="48" width="48" viewBox="0 0 48 48"><path d="M38,11H35.527a12.991,12.991,0,0,0-23.054,0H10a9.01,9.01,0,0,0-9,9v8a9.01,9.01,0,0,0,9,9h2.473a12.991,12.991,0,0,0,23.054,0H38a9.01,9.01,0,0,0,9-9V20A9.01,9.01,0,0,0,38,11ZM18.145,28.559V22.008h1.787v6.551Zm1.626-7.6a1.022,1.022,0,0,1-.729.231q-.972,0-.973-.879t.973-.873q.973,0,.973.873A.856.856,0,0,1,19.771,20.962Zm-8.192,2.1c-.1-.5-.163-.839-.179-1.011q-.034.317-.176,1.017t-.217,1L9.853,28.558H7.791L5.605,19.992H7.392l1.1,4.676q.287,1.294.416,2.244c.023-.223.077-.567.161-1.034s.163-.829.237-1.087l1.248-4.8h1.717l1.248,4.8q.082.323.205.984t.188,1.137q.059-.457.188-1.14t.234-1.1l1.09-4.676h1.787l-2.18,8.566H12.959l-1.16-4.5Q11.735,23.818,11.579,23.065ZM45,28a7.009,7.009,0,0,1-7,7H21.645A8.985,8.985,0,0,0,25,28V20a7.009,7.009,0,0,1,7-7h6a7.009,7.009,0,0,1,7,7Z" fill="#47b0ea"></path><rect x="18.145" y="22.008" width="1.787" height="6.551" fill="#fff"></rect><path d="M38,13H32a7.009,7.009,0,0,0-7,7v8a8.985,8.985,0,0,1-3.355,7H38a7.009,7.009,0,0,0,7-7V20A7.009,7.009,0,0,0,38,13Z" fill="#fff"></path><path d="M14.33,24.668q-.105.422-.234,1.1t-.188,1.14q-.064-.476-.188-1.137t-.205-.984l-1.248-4.8H10.55L9.3,24.791q-.111.387-.237,1.087c-.084.467-.138.811-.161,1.034q-.129-.95-.416-2.244l-1.1-4.676H5.605l2.186,8.566H9.853l1.154-4.488q.077-.3.217-1t.176-1.017c.016.172.075.509.179,1.011s.177.833.22.993l1.16,4.5h2.068l2.18-8.566H15.42Z" fill="#fff"></path><path d="M19.042,19.441q-.974,0-.973.873t.973.879a1.022,1.022,0,0,0,.729-.231.856.856,0,0,0,.244-.648Q20.015,19.441,19.042,19.441Z" fill="#fff"></path><polygon points="30.745 28.559 32.532 28.559 32.532 25.172 35.438 25.172 35.438 23.689 32.532 23.689 32.532 21.48 35.655 21.48 35.655 19.992 30.745 19.992 30.745 28.559" fill="#47b0ea"></polygon><path d="M38.087,19.441q-.972,0-.973.873t.973.879a1.022,1.022,0,0,0,.729-.231.85.85,0,0,0,.243-.647Q39.059,19.441,38.087,19.441Z" fill="#47b0ea"></path><rect x="37.19" y="22.008" width="1.787" height="6.551" fill="#47b0ea"></rect></svg>