<svg xmlns="http://www.w3.org/2000/svg" height="48" width="48" viewBox="0 0 48 48"><path data-color="color-2" fill="none" stroke="#61616b" stroke-width="2" d="M30,20h-7 c-2.761,0-5-2.239-5-5v0c0-2.761,2.239-5,5-5h7V20z"></path> <path data-color="color-2" fill="none" stroke="#61616b" stroke-width="2" d="M22,4h4 c2.209,0,4,1.791,4,4v12"></path> <line fill="none" stroke="#61616b" stroke-width="2" x1="6" y1="22" x2="6" y2="44"></line> <path fill="none" stroke="#61616b" stroke-width="2" d="M12,44H6V32h6 c3.314,0,6,2.686,6,6v0C18,41.314,15.314,44,12,44z"></path> <path fill="none" stroke="#61616b" stroke-width="2" d="M43.464,31.999 C42.772,30.804,41.48,30,40,30h-4c-2.209,0-4,1.791-4,4v6c0,2.209,1.791,4,4,4h4c1.48,0,2.773-0.804,3.465-2"></path></svg>