<svg xmlns="http://www.w3.org/2000/svg" height="64" width="64" viewBox="0 0 64 64"><path data-color="color-2" fill="none" stroke="#61616b" stroke-width="2" d="M40,27H30 c-4.418,0-8-3.582-8-8v0c0-4.418,3.582-8,8-8h10V27z"></path> <path data-color="color-2" fill="none" stroke="#61616b" stroke-width="2" d="M28,3h6 c3.314,0,6,2.686,6,6v18"></path> <line fill="none" stroke="#61616b" stroke-width="2" x1="3" y1="24" x2="3" y2="56"></line> <path fill="none" stroke="#61616b" stroke-width="2" d="M12,56H3V38h9 c4.971,0,9,4.029,9,9v0C21,51.971,16.971,56,12,56z"></path> <path fill="none" stroke="#61616b" stroke-width="2" d="M61,41h-6 c-5.523,0-10,4.477-10,10v0c0,5.523,4.477,10,10,10h6"></path></svg>