<svg xmlns="http://www.w3.org/2000/svg" height="32" width="32" viewBox="0 0 32 32"><path data-color="color-2" fill="none" stroke="#61616b" stroke-width="2" d="M20,15h-5 c-2.209,0-4-1.791-4-4v0c0-2.209,1.791-4,4-4h5V15z"></path> <path data-color="color-2" fill="none" stroke="#61616b" stroke-width="2" d="M14,3h3 c1.657,0,3,1.343,3,3v9"></path> <line fill="none" stroke="#61616b" stroke-width="2" x1="3" y1="13" x2="3" y2="29"></line> <path fill="none" stroke="#61616b" stroke-width="2" d="M7.5,29H3v-9h4.5 c2.485,0,4.5,2.015,4.5,4.5v0C12,26.985,9.985,29,7.5,29z"></path> <path fill="none" stroke="#61616b" stroke-width="2" d="M29,20h-3 c-2.761,0-5,2.239-5,5v0c0,2.761,2.239,5,5,5h3"></path></svg>