<svg xmlns="http://www.w3.org/2000/svg" height="32" width="32" viewBox="0 0 32 32"><circle data-color="color-2" fill="none" stroke="#61616b" stroke-width="2" cx="16" cy="16" r="2"></circle> <path data-cap="butt" fill="none" stroke="#61616b" stroke-width="2" d="M11.453,7.695 C12.43,3.651,14.102,1,16,1c3.012,0,5.455,6.716,5.455,15S19.012,31,16,31c-2.649,0-4.858-5.185-5.351-12.073"></path> <path data-cap="butt" fill="none" stroke="#61616b" stroke-width="2" d="M11.446,24.307 c-3.922,1.35-7.058,1.376-8.079-0.219c-1.624-2.537,2.715-8.215,9.692-12.681s13.95-6.031,15.574-3.494 c1.429,2.232-1.757,6.894-7.293,11.024"></path> <path data-cap="butt" fill="none" stroke="#61616b" stroke-width="2" d="M15.988,9.684 C10.094,6.578,4.761,5.735,3.367,7.912c-1.624,2.537,2.715,8.215,9.692,12.681s13.95,6.031,15.574,3.494 c1.098-1.715-0.539-4.816-3.866-8.058"></path></svg>