<svg xmlns="http://www.w3.org/2000/svg" height="32" width="32" viewBox="0 0 32 32"><path fill="none" stroke="#61616b" stroke-width="2" d="M27,31H5V12 c0-3.314,2.686-6,6-6h10c3.314,0,6,2.686,6,6V31z"></path> <path fill="none" stroke="#61616b" stroke-width="2" d="M5,21c-2.209,0-4,1.791-4,4 v6h4"></path> <path fill="none" stroke="#61616b" stroke-width="2" d="M27,21c2.209,0,4,1.791,4,4 v6h-4"></path> <line fill="none" stroke="#61616b" stroke-width="2" x1="5" y1="17" x2="27" y2="17"></line> <path data-color="color-2" fill="none" stroke="#61616b" stroke-width="2" d="M11,8V6 c0-2.761,2.239-5,5-5h0c2.761,0,5,2.239,5,5v2"></path> <line data-color="color-2" fill="none" stroke="#61616b" stroke-width="2" x1="9" y1="22" x2="13" y2="22"></line> <line data-color="color-2" fill="none" stroke="#61616b" stroke-width="2" x1="19" y1="22" x2="23" y2="22"></line> <line data-color="color-2" fill="none" stroke="#61616b" stroke-width="2" x1="11" y1="14" x2="11" y2="24"></line> <line data-color="color-2" fill="none" stroke="#61616b" stroke-width="2" x1="21" y1="14" x2="21" y2="24"></line></svg>