<svg xmlns="http://www.w3.org/2000/svg" height="24" width="24" viewBox="0 0 24 24"><path fill="none" stroke="#61616b" stroke-width="2" d="M9,6V4c0-1.657,1.343-3,3-3 h0c1.657,0,3,1.343,3,3v2"></path> <path fill="none" stroke="#61616b" stroke-width="2" d="M21,14H3V9 c0-1.657,1.343-3,3-3h12c1.657,0,3,1.343,3,3V14z"></path> <polyline fill="none" stroke="#61616b" stroke-width="2" points="20,17 20,23 4,23 4,17 "></polyline> <line data-color="color-2" fill="none" stroke="#61616b" stroke-width="2" x1="16" y1="11" x2="16" y2="17"></line> <line data-color="color-2" fill="none" stroke="#61616b" stroke-width="2" x1="8" y1="11" x2="8" y2="17"></line> <line data-color="color-2" fill="none" stroke="#61616b" stroke-width="2" x1="1" y1="23" x2="1" y2="19"></line> <line data-color="color-2" fill="none" stroke="#61616b" stroke-width="2" x1="23" y1="23" x2="23" y2="19"></line></svg>