<svg xmlns="http://www.w3.org/2000/svg" height="16" width="16" viewBox="0 0 16 16"><polyline fill="none" stroke="#61616b" stroke-linecap="round" stroke-linejoin="round" points="5.5,3.5 5.5,0.5 10.5,0.5 10.5,3.5 " data-color="color-2"></polyline> <path fill="none" stroke="#61616b" stroke-linecap="round" stroke-linejoin="round" d="M0.5,9.5v-5 c0-0.552,0.448-1,1-1h13c0.552,0,1,0.448,1,1v5H0.5z"></path> <path fill="none" stroke="#61616b" stroke-linecap="round" stroke-linejoin="round" d="M14.5,11.5v2 c0,0.552-0.448,1-1,1h-11c-0.552,0-1-0.448-1-1v-2"></path> <line fill="none" stroke="#61616b" stroke-linecap="round" stroke-linejoin="round" x1="2.5" y1="6.5" x2="6.5" y2="6.5" data-color="color-2"></line> <line fill="none" stroke="#61616b" stroke-linecap="round" stroke-linejoin="round" x1="4.5" y1="6.5" x2="4.5" y2="11.5" data-color="color-2"></line> <line fill="none" stroke="#61616b" stroke-linecap="round" stroke-linejoin="round" x1="9.5" y1="6.5" x2="13.5" y2="6.5" data-color="color-2"></line> <line fill="none" stroke="#61616b" stroke-linecap="round" stroke-linejoin="round" x1="11.5" y1="6.5" x2="11.5" y2="11.5" data-color="color-2"></line></svg>