<svg xmlns="http://www.w3.org/2000/svg" height="64" width="64" viewBox="0 0 64 64"><path fill="none" stroke="#61616b" stroke-width="2" d="M54,62H10V24 c0-6.6,5.4-12,12-12h20c6.6,0,12,5.4,12,12V62z"></path> <path data-color="color-2" fill="none" stroke="#61616b" stroke-width="2" d="M22,16v-4 c0-5.5,4.5-10,10-10h0c5.5,0,10,4.5,10,10v4"></path> <path fill="none" stroke="#61616b" stroke-width="2" d="M10,42L10,42 c-4.4,0-8,3.6-8,8v12h8"></path> <path fill="none" stroke="#61616b" stroke-width="2" d="M54,42L54,42 c4.4,0,8,3.6,8,8v12h-8"></path> <line data-color="color-2" fill="none" stroke="#61616b" stroke-width="2" x1="18" y1="46" x2="26" y2="46"></line> <line data-color="color-2" fill="none" stroke="#61616b" stroke-width="2" x1="38" y1="46" x2="46" y2="46"></line> <line fill="none" stroke="#61616b" stroke-width="2" x1="10" y1="34" x2="54" y2="34"></line> <line data-color="color-2" fill="none" stroke="#61616b" stroke-width="2" x1="22" y1="30" x2="22" y2="50"></line> <line data-color="color-2" fill="none" stroke="#61616b" stroke-width="2" x1="42" y1="30" x2="42" y2="50"></line></svg>