<svg xmlns="http://www.w3.org/2000/svg" height="48" width="48" viewBox="0 0 48 48"><polygon points="19.77 10 27.936 10 32.02 17 27.936 24 19.77 24 15.686 17 19.77 10" fill="none" stroke="#61616b" stroke-width="2" data-cap="butt"></polygon><polyline points="15.686 17 7.52 17 3.436 10" fill="none" stroke="#61616b" stroke-width="2" data-cap="butt"></polyline><line x1="15.686" y1="3" x2="19.77" y2="10" fill="none" stroke="#61616b" stroke-width="2" data-cap="butt"></line><polyline points="28 10.109 27.936 10 32.02 3" fill="none" stroke="#61616b" stroke-width="2" data-cap="butt"></polyline><line x1="44.27" y1="10" x2="40.186" y2="17" fill="none" stroke="#61616b" stroke-width="2" data-cap="butt"></line><line x1="40.186" y1="31" x2="44.27" y2="38" fill="none" stroke="#61616b" stroke-width="2" data-cap="butt"></line><line x1="32.02" y1="45" x2="27.936" y2="38" fill="none" stroke="#61616b" stroke-width="2" data-cap="butt"></line><polyline points="19.77 38 15.686 45 7.52 45 3.436 38 7.52 31 15.686 31" fill="none" stroke="#61616b" stroke-width="2" data-cap="butt"></polyline><polyline points="32.02 17 40.186 17 44.27 24 40.186 31 32.02 31" fill="none" stroke="#61616b" stroke-width="2" data-cap="butt"></polyline><polygon points="19.77 24 27.936 24 32.02 31 27.936 38 19.77 38 15.686 31 19.77 24" fill="none" stroke="#61616b" stroke-width="2" data-cap="butt" data-color="color-2"></polygon></svg>