<svg xmlns="http://www.w3.org/2000/svg" height="16" width="16" viewBox="0 0 16 16"><polyline points="10.887 5.5 9.443 3 6.557 3 5.113 5.5" fill="none" stroke="#61616b" stroke-linecap="round" stroke-linejoin="round"></polyline><line x1="6.557" y1="3" x2="5.113" y2="0.5" fill="none" stroke="#61616b" stroke-linecap="round" stroke-linejoin="round"></line><line x1="0.783" y1="3" x2="2.226" y2="5.5" fill="none" stroke="#61616b" stroke-linecap="round" stroke-linejoin="round"></line><line x1="13.774" y1="5.5" x2="15.217" y2="3" fill="none" stroke="#61616b" stroke-linecap="round" stroke-linejoin="round"></line><line x1="10.887" y1="0.5" x2="9.443" y2="3" fill="none" stroke="#61616b" stroke-linecap="round" stroke-linejoin="round"></line><line x1="9.443" y1="13" x2="10.887" y2="15.5" fill="none" stroke="#61616b" stroke-linecap="round" stroke-linejoin="round"></line><line x1="15.217" y1="13" x2="13.774" y2="10.5" fill="none" stroke="#61616b" stroke-linecap="round" stroke-linejoin="round"></line><line x1="2.226" y1="10.5" x2="0.783" y2="13" fill="none" stroke="#61616b" stroke-linecap="round" stroke-linejoin="round"></line><line x1="5.113" y1="15.5" x2="6.557" y2="13" fill="none" stroke="#61616b" stroke-linecap="round" stroke-linejoin="round"></line><line x1="6.557" y1="8" x2="9.443" y2="8" fill="none" stroke="#61616b" stroke-linecap="round" stroke-linejoin="round" data-color="color-2"></line><polyline points="5.113 10.5 6.557 13 9.443 13 10.887 10.5" fill="none" stroke="#61616b" stroke-linecap="round" stroke-linejoin="round"></polyline><polygon points="5.113 10.5 2.226 10.5 0.783 8 2.226 5.5 5.113 5.5 6.557 8 5.113 10.5" fill="none" stroke="#61616b" stroke-linecap="round" stroke-linejoin="round" data-color="color-2"></polygon><polygon points="10.887 10.5 13.774 10.5 15.217 8 13.774 5.5 10.887 5.5 9.443 8 10.887 10.5" fill="none" stroke="#61616b" stroke-linecap="round" stroke-linejoin="round" data-color="color-2"></polygon></svg>