<svg xmlns="http://www.w3.org/2000/svg" height="32" width="32" viewBox="0 0 32 32"><line x1="18.887" y1="16" x2="13.113" y2="16" fill="none" stroke="#61616b" stroke-width="2" data-cap="butt" data-color="color-2"></line><polyline points="10.226 21 13.113 26 18.887 26 21.774 21" fill="none" stroke="#61616b" stroke-width="2" data-cap="butt"></polyline><polyline points="21.774 11 18.887 6 13.113 6 10.226 11" fill="none" stroke="#61616b" stroke-width="2" data-cap="butt"></polyline><line x1="13.113" y1="16" x2="18.887" y2="16" fill="none" stroke="#61616b" stroke-width="2" data-cap="butt" data-color="color-2"></line><line x1="13.113" y1="6" x2="10.226" y2="1" fill="none" stroke="#61616b" stroke-width="2" data-cap="butt"></line><line x1="1.566" y1="6" x2="4.453" y2="11" fill="none" stroke="#61616b" stroke-width="2" data-cap="butt"></line><line x1="27.547" y1="11" x2="30.434" y2="6" fill="none" stroke="#61616b" stroke-width="2" data-cap="butt"></line><line x1="21.774" y1="1" x2="18.887" y2="6" fill="none" stroke="#61616b" stroke-width="2" data-cap="butt"></line><line x1="18.887" y1="26" x2="21.774" y2="31" fill="none" stroke="#61616b" stroke-width="2" data-cap="butt"></line><line x1="30.434" y1="26" x2="27.547" y2="21" fill="none" stroke="#61616b" stroke-width="2" data-cap="butt"></line><line x1="4.453" y1="21" x2="1.566" y2="26" fill="none" stroke="#61616b" stroke-width="2" data-cap="butt"></line><line x1="10.226" y1="31" x2="13.113" y2="26" fill="none" stroke="#61616b" stroke-width="2" data-cap="butt"></line><polygon points="21.774 21 27.547 21 30.434 16 27.547 11 21.774 11 18.887 16 21.774 21" fill="none" stroke="#61616b" stroke-width="2" data-cap="butt" data-color="color-2"></polygon><polygon points="10.226 21 4.453 21 1.566 16 4.453 11 10.226 11 13.113 16 10.226 21" fill="none" stroke="#61616b" stroke-width="2" data-cap="butt" data-color="color-2"></polygon></svg>