<svg xmlns="http://www.w3.org/2000/svg" height="32" width="32" viewBox="0 0 32 32"><line x1="18" y1="18" x2="14" y2="14" fill="none" stroke="#61616b" stroke-width="2" data-color="color-2"></line><line x1="8" y1="27" x2="5" y2="24" fill="none" stroke="#61616b" stroke-width="2" data-color="color-2"></line><line x1="24" y1="5" x2="27" y2="8" fill="none" stroke="#61616b" stroke-width="2" data-color="color-2"></line><path d="M15,21.839A14.651,14.651,0,0,0,17,22a5,5,0,0,0,5-5c0-4-2-8-2-12a4.916,4.916,0,0,1,1.026-3" fill="none" stroke="#61616b" stroke-width="2"></path><path d="M7,20.161A14.651,14.651,0,0,0,5,20a4.956,4.956,0,0,0-3,1.023" fill="none" stroke="#61616b" stroke-width="2"></path><path d="M17,10.161A14.651,14.651,0,0,0,15,10a5,5,0,0,0-5,5c0,5,2,7,2,12a4.916,4.916,0,0,1-1.026,3" fill="none" stroke="#61616b" stroke-width="2"></path><path d="M25,11.839A14.651,14.651,0,0,0,27,12a4.956,4.956,0,0,0,3-1.023" fill="none" stroke="#61616b" stroke-width="2"></path></svg>