<svg xmlns="http://www.w3.org/2000/svg" height="16" width="16" viewBox="0 0 16 16"><line x1="9" y1="9" x2="7" y2="7" fill="none" stroke="#61616b" stroke-linecap="round" stroke-linejoin="round" data-color="color-2"></line><line x1="4" y1="14" x2="2" y2="12" fill="none" stroke="#61616b" stroke-linecap="round" stroke-linejoin="round" data-color="color-2"></line><line x1="12" y1="2" x2="14" y2="4" fill="none" stroke="#61616b" stroke-linecap="round" stroke-linejoin="round" data-color="color-2"></line><path d="M2.777,9.512C2.685,9.508,2.6,9.5,2.5,9.5a2.978,2.978,0,0,0-2,.779" fill="none" stroke="#61616b" stroke-linecap="round" stroke-linejoin="round"></path><path d="M10.279.5a2.978,2.978,0,0,0-.779,2c0,3,2,3,2,6a3,3,0,0,1-3,3c-.1,0-.185-.008-.277-.012" fill="none" stroke="#61616b" stroke-linecap="round" stroke-linejoin="round"></path><path d="M15.5,5.721a2.978,2.978,0,0,1-2,.779c-.1,0-.185-.008-.277-.012" fill="none" stroke="#61616b" stroke-linecap="round" stroke-linejoin="round"></path><path d="M7.777,4.512C7.685,4.508,7.6,4.5,7.5,4.5a3,3,0,0,0-3,3c0,3,2,3,2,6a2.978,2.978,0,0,1-.779,2" fill="none" stroke="#61616b" stroke-linecap="round" stroke-linejoin="round"></path></svg>