<svg xmlns="http://www.w3.org/2000/svg" height="48" width="48" viewBox="0 0 48 48"><polyline points="13 39 4.474 30.474 4.705 30.705" fill="none" stroke="#61616b" stroke-width="2" data-color="color-2"></polyline><polyline points="36 10 43.526 17.526 43.247 17.247" fill="none" stroke="#61616b" stroke-width="2" data-color="color-2"></polyline><polyline points="23 27 15.473 19.473 15.759 19.759" fill="none" stroke="#61616b" stroke-width="2" data-color="color-2"></polyline><polyline points="25 21 32.528 28.528 32.344 28.345" fill="none" stroke="#61616b" stroke-width="2" data-color="color-2"></polyline><path d="M22,32.683A26.517,26.517,0,0,0,26,33a7,7,0,0,0,7-7c0-7-3-12-3-19a6.962,6.962,0,0,1,1.26-4" fill="none" stroke="#61616b" stroke-width="2"></path><path d="M37,17.683A26.517,26.517,0,0,0,41,18a6.962,6.962,0,0,0,4-1.26" fill="none" stroke="#61616b" stroke-width="2"></path><path d="M16.74,45A6.962,6.962,0,0,0,18,41c0-7-3-12-3-19a7,7,0,0,1,7-7,26.517,26.517,0,0,1,4,.317" fill="none" stroke="#61616b" stroke-width="2"></path><path d="M11.069,30.328A26.61,26.61,0,0,0,7,30a6.962,6.962,0,0,0-4,1.26" fill="none" stroke="#61616b" stroke-width="2"></path></svg>