<svg xmlns="http://www.w3.org/2000/svg" height="48" width="48" viewBox="0 0 48 48"><line fill="none" stroke="#61616b" stroke-width="2" x1="2" y1="21" x2="2" y2="27"></line> <line fill="none" stroke="#61616b" stroke-width="2" x1="46" y1="21" x2="46" y2="27"></line> <line data-cap="butt" data-color="color-2" fill="none" stroke="#61616b" stroke-width="2" x1="24" y1="28" x2="31" y2="21"></line> <line fill="none" stroke="#61616b" stroke-width="2" x1="42" y1="28" x2="6" y2="28"></line> <line fill="none" stroke="#61616b" stroke-width="2" x1="6" y1="10" x2="42" y2="10"></line> <polyline data-color="color-2" fill="none" stroke="#61616b" stroke-width="2" points=" 15,40 15,46 8,46 8,40 "></polyline> <polyline data-color="color-2" fill="none" stroke="#61616b" stroke-width="2" points=" 40,40 40,46 33,46 33,40 "></polyline> <path fill="none" stroke="#61616b" stroke-width="2" d="M42,40H6V6 c0-2.209,1.791-4,4-4h28c2.209,0,4,1.791,4,4V40z"></path> <line data-color="color-2" fill="none" stroke="#61616b" stroke-width="2" x1="12" y1="34" x2="16" y2="34"></line> <line data-color="color-2" fill="none" stroke="#61616b" stroke-width="2" x1="32" y1="34" x2="36" y2="34"></line></svg>