<svg xmlns="http://www.w3.org/2000/svg" height="64" width="64" viewBox="0 0 64 64"><line fill="none" stroke="#61616b" stroke-width="2" x1="62" y1="27" x2="62" y2="35"></line> <line fill="none" stroke="#61616b" stroke-width="2" x1="2" y1="27" x2="2" y2="35"></line> <line data-cap="butt" data-color="color-2" fill="none" stroke="#61616b" stroke-width="2" x1="32" y1="38" x2="42" y2="28"></line> <polyline data-color="color-2" fill="none" stroke="#61616b" stroke-width="2" points=" 21,56 21,62 11,62 11,56 "></polyline> <polyline data-color="color-2" fill="none" stroke="#61616b" stroke-width="2" points=" 53,56 53,62 43,62 43,56 "></polyline> <path fill="none" stroke="#61616b" stroke-width="2" d="M57,56H7V6 c0-2.209,1.791-4,4-4h42c2.209,0,4,1.791,4,4V56z"></path> <line data-color="color-2" fill="none" stroke="#61616b" stroke-width="2" x1="28" y1="8" x2="36" y2="8"></line> <circle data-color="color-2" fill="none" stroke="#61616b" stroke-width="2" cx="16" cy="47" r="3"></circle> <circle data-color="color-2" fill="none" stroke="#61616b" stroke-width="2" cx="48" cy="47" r="3"></circle> <line fill="none" stroke="#61616b" stroke-width="2" x1="57" y1="38" x2="7" y2="38"></line> <line fill="none" stroke="#61616b" stroke-width="2" x1="7" y1="14" x2="57" y2="14"></line></svg>