<svg xmlns="http://www.w3.org/2000/svg" height="16" width="16" viewBox="0 0 16 16"><polyline fill="none" stroke="#61616b" stroke-linecap="round" stroke-linejoin="round" points="4.5,13.5 4.5,15.5 1.5,15.5 1.5,13.5 " data-cap="butt" data-color="color-2"></polyline> <polyline fill="none" stroke="#61616b" stroke-linecap="round" stroke-linejoin="round" points="14.5,13.5 14.5,15.5 11.5,15.5 11.5,13.5 " data-cap="butt" data-color="color-2"></polyline> <path fill="none" stroke="#61616b" stroke-linecap="round" stroke-linejoin="round" d="M14.5,13.5h-13v-12 c0-0.552,0.448-1,1-1h11c0.552,0,1,0.448,1,1V13.5z" data-cap="butt"></path> <line fill="none" stroke="#61616b" stroke-linecap="round" stroke-linejoin="round" x1="1.5" y1="8.5" x2="14.5" y2="8.5" data-cap="butt"></line> <circle fill="#61616b" cx="4" cy="11" r="1" data-stroke="none" stroke="none"></circle> <circle fill="#61616b" cx="12" cy="11" r="1" data-stroke="none" stroke="none"></circle> <path fill="#61616b" d="M1,9h1V5H1C0.448,5,0,5.448,0,6v2C0,8.552,0.448,9,1,9z" data-stroke="none" stroke="none"></path> <path fill="#61616b" d="M15,9h-1V5h1c0.552,0,1,0.448,1,1v2C16,8.552,15.552,9,15,9z" data-stroke="none" stroke="none"></path></svg>