<svg xmlns="http://www.w3.org/2000/svg" height="64" width="64" viewBox="0 0 64 64"><path data-color="color-2" d="M40.064,51a9,9,0,0,1-16.128,0" fill="none" stroke="#61616b" stroke-width="2"></path><path data-cap="butt" d="M62,53c0-5.1-3.4-11-10-14V23A20.059,20.059,0,0,0,32,3h0A20.059,20.059,0,0,0,12,23V39C5.4,42,2,47.9,2,53" fill="none" stroke="#61616b" stroke-width="2"></path><path d="M62,53c0,4.2-13.445,8-30,8S2,57.2,2,53s13.445-8,30-8S62,48.8,62,53Z" fill="none" stroke="#61616b" stroke-width="2"></path></svg>