<svg xmlns="http://www.w3.org/2000/svg" height="48" width="48" viewBox="0 0 48 48"><path data-cap="butt" d="M46,39c0-5-2.768-9.376-7-11V17A15,15,0,0,0,24,2h0A15,15,0,0,0,9,17V28A11.636,11.636,0,0,0,2,39" fill="none" stroke="#61616b" stroke-width="2"></path><path d="M46,39c0,3.675-9.827,7-22,7S2,42.675,2,39s9.827-7,22-7S46,35.325,46,39Z" fill="none" stroke="#61616b" stroke-width="2"></path><path data-cap="butt" data-color="color-2" d="M29.659,37a6,6,0,0,1-11.318,0" fill="none" stroke="#61616b" stroke-width="2"></path></svg>