<svg xmlns="http://www.w3.org/2000/svg" height="32" width="32" viewBox="0 0 32 32"><path data-cap="butt" data-color="color-2" d="M19.865,24a4,4,0,0,1-7.746,0" fill="none" stroke="#61616b" stroke-width="2"></path> <path data-cap="butt" d="M31,25.9A7.807,7.807,0,0,0,26,19V11A10.029,10.029,0,0,0,16,1h0A10.029,10.029,0,0,0,6,11v8a7.976,7.976,0,0,0-5,6.9" fill="none" stroke="#61616b" stroke-width="2"></path> <path d="M31,26c0,2.625-6.7,5-15,5S1,28.625,1,26s6.7-5,15-5S31,23.375,31,26Z" fill="none" stroke="#61616b" stroke-width="2"></path></svg>