<svg xmlns="http://www.w3.org/2000/svg" height="24" width="24" viewBox="0 0 24 24"><path data-color="color-2" fill="none" stroke="#61616b" stroke-width="2" d="M1,21h1 c1.1,0,2-0.9,2-2v-1l-2.2-1.2c-0.7-0.4-0.7-1.4,0-1.8L4,14v-2l2.3-0.6c0.8-0.2,1-1.1,0.5-1.7L4,7V2"></path> <path fill="none" stroke="#61616b" stroke-width="2" d="M8,16l3-4V6 c0-1.1,0.9-2,2-2h8c1.1,0,2,0.9,2,2v8c0,1.1-0.9,2-2,2h-7H8z"></path> <line fill="none" stroke="#61616b" stroke-width="2" x1="15" y1="8" x2="19" y2="8"></line> <line fill="none" stroke="#61616b" stroke-width="2" x1="15" y1="12" x2="17" y2="12"></line></svg>