<svg xmlns="http://www.w3.org/2000/svg" height="48" width="48" viewBox="0 0 48 48"><path fill="none" stroke="#61616b" stroke-width="2" d="M2,42h2 c2.209,0,4-1.791,4-4v-2l-4.451-2.318c-1.462-0.761-1.427-2.865,0.06-3.577L8,28v-4l4.573-1.143 c1.508-0.377,2.028-2.255,0.929-3.354L8,14V4" data-color="color-2"></path> <path fill="none" stroke="#61616b" stroke-width="2" d="M16,32l6-8V12 c0-2.209,1.791-4,4-4h16c2.209,0,4,1.791,4,4v16c0,2.209-1.791,4-4,4H28H16z"></path> <line fill="none" stroke="#61616b" stroke-width="2" x1="30" y1="16" x2="38" y2="16"></line> <line fill="none" stroke="#61616b" stroke-width="2" x1="30" y1="24" x2="38" y2="24"></line></svg>