<svg xmlns="http://www.w3.org/2000/svg" height="64" width="64" viewBox="0 0 64 64"><path data-color="color-2" fill="none" stroke="#61616b" stroke-width="2" d="M2,58h4 c2.2,0,4-1.8,4-4v-4l-4.8-2.4c-2.9-1.5-2.9-5.7,0-7.2L10,38v-4l7.2-2.9c1.3-0.5,1.7-2.3,0.7-3.3L10,20V6"></path> <path fill="none" stroke="#61616b" stroke-width="2" d="M20,46l8-10V18 c0-3.3,2.7-6,6-6h22c3.3,0,6,2.7,6,6v22c0,3.3-2.7,6-6,6H20z"></path> <line fill="none" stroke="#61616b" stroke-width="2" x1="38" y1="24" x2="52" y2="24"></line> <line fill="none" stroke="#61616b" stroke-width="2" x1="38" y1="34" x2="52" y2="34"></line></svg>