<svg xmlns="http://www.w3.org/2000/svg" height="64" width="64" viewBox="0 0 64 64"><path fill="none" stroke="#61616b" stroke-width="2" d="M51,9V2H7v54 c0,3.314,2.686,6,6,6"></path> <path fill="none" stroke="#61616b" stroke-width="2" d="M19,56c0,3.314-2.686,6-6,6 h40c3.314,0,6-2.686,6-6v-4H19V56z"></path> <line data-color="color-2" fill="none" stroke="#61616b" stroke-width="2" x1="17" y1="16" x2="34" y2="16"></line> <line data-color="color-2" fill="none" stroke="#61616b" stroke-width="2" x1="17" y1="27" x2="34" y2="27"></line> <line data-color="color-2" fill="none" stroke="#61616b" stroke-width="2" x1="17" y1="38" x2="29" y2="38"></line> <polyline data-cap="butt" data-color="color-2" fill="none" stroke="#61616b" stroke-width="2" points="58,28.484 58,43 51,38 44,43 44,28.484 "></polyline> <circle data-color="color-2" fill="none" stroke="#61616b" stroke-width="2" cx="51" cy="20" r="11"></circle> <line fill="none" stroke="#61616b" stroke-width="2" x1="51" y1="52" x2="51" y2="45"></line></svg>