<svg xmlns="http://www.w3.org/2000/svg" height="48" width="48" viewBox="0 0 48 48"><polygon points="33 43.091 24 45 15 43 15 28 24 30 33 28 33 43.091" fill="none" stroke="#61616b" stroke-width="2" data-color="color-2"></polygon><path d="M24,16h0a7,7,0,0,1-7-7h0a7,7,0,0,1,7-7h0a7,7,0,0,1,7,7h0A7,7,0,0,1,24,16Z" fill="none" stroke="#61616b" stroke-width="2"></path><path d="M19,35,5.946,37.611a1,1,0,0,1-1.1-1.407L11.46,22.148A2,2,0,0,1,13.269,21H34.731a2,2,0,0,1,1.809,1.148l6.628,14.083a1,1,0,0,1-1.09,1.409L28,35" fill="none" stroke="#61616b" stroke-width="2"></path></svg>