<svg xmlns="http://www.w3.org/2000/svg" height="24" width="24" viewBox="0 0 24 24"><polygon points="17 22 12 23 7 22 7 14 12 15 17 14 17 22" fill="none" stroke="#61616b" stroke-width="2" data-color="color-2"></polygon><path d="M12,8h0A3.5,3.5,0,0,1,8.5,4.5h0A3.5,3.5,0,0,1,12,1h0a3.5,3.5,0,0,1,3.5,3.5h0A3.5,3.5,0,0,1,12,8Z" fill="none" stroke="#61616b" stroke-width="2"></path><path d="M10,18,2.936,19.57a1,1,0,0,1-1.13-1.383l2.93-6.593A1,1,0,0,1,5.65,11h12.7a1,1,0,0,1,.914.594l2.93,6.593a1,1,0,0,1-1.13,1.383L14,18" fill="none" stroke="#61616b" stroke-width="2"></path></svg>