<svg xmlns="http://www.w3.org/2000/svg" height="12" width="12" viewBox="0 0 12 12"><path d="M9.5.5H10A1.5,1.5,0,0,1,11.5,2v8A1.5,1.5,0,0,1,10,11.5H2A1.5,1.5,0,0,1,.5,10V2A1.5,1.5,0,0,1,2,.5h.5" fill="none" stroke="#61616b" stroke-linecap="round" stroke-linejoin="round"></path><path data-color="color-2" data-stroke="none" d="M7.5,0h-3A.5.5,0,0,0,4,.5V5.75a.25.25,0,0,0,.162.234.252.252,0,0,0,.276-.069L6,4.13,7.562,5.915A.25.25,0,0,0,8,5.75V.5A.5.5,0,0,0,7.5,0Z" fill="#61616b" stroke="none"></path></svg>