<svg xmlns="http://www.w3.org/2000/svg" height="64" width="64" viewBox="0 0 64 64"><polyline data-cap="butt" data-color="color-2" points="21.496 4.961 32 11.625 42.504 4.961" fill="none" stroke="#61616b" stroke-width="2"></polyline> <polyline data-cap="butt" data-color="color-2" points="3.038 33.634 12.622 25.704 9.53 13.655" fill="none" stroke="#61616b" stroke-width="2"></polyline> <polyline data-cap="butt" data-color="color-2" points="24.605 60.049 20.024 48.484 7.609 47.701" fill="none" stroke="#61616b" stroke-width="2"></polyline> <polyline data-cap="butt" data-color="color-2" points="56.391 47.701 43.976 48.484 39.395 60.049" fill="none" stroke="#61616b" stroke-width="2"></polyline> <polyline data-cap="butt" data-color="color-2" points="54.47 13.655 51.378 25.704 60.962 33.634" fill="none" stroke="#61616b" stroke-width="2"></polyline> <polygon data-color="color-2" points="32 20.331 19.829 29.174 24.478 43.481 39.522 43.481 44.171 29.174 32 20.331" fill="none" stroke="#61616b" stroke-width="2"></polygon> <line data-cap="butt" data-color="color-2" x1="32" y1="11.625" x2="32" y2="20.331" fill="none" stroke="#61616b" stroke-width="2"></line> <line data-cap="butt" data-color="color-2" x1="44.171" y1="29.174" x2="51.378" y2="25.704" fill="none" stroke="#61616b" stroke-width="2"></line> <line data-cap="butt" data-color="color-2" x1="39.522" y1="43.481" x2="43.976" y2="48.484" fill="none" stroke="#61616b" stroke-width="2"></line> <line data-cap="butt" data-color="color-2" x1="24.478" y1="43.481" x2="20.024" y2="48.484" fill="none" stroke="#61616b" stroke-width="2"></line> <line data-cap="butt" data-color="color-2" x1="12.622" y1="25.704" x2="19.829" y2="29.174" fill="none" stroke="#61616b" stroke-width="2"></line> <circle cx="32" cy="32" r="29" fill="none" stroke="#61616b" stroke-width="2"></circle></svg>