<svg xmlns="http://www.w3.org/2000/svg" height="48" width="48" viewBox="0 0 48 48"><polygon data-color="color-2" points="24 14.907 14.583 21.749 18.549 32.655 29.451 32.655 33.417 21.749 24 14.907" fill="none" stroke="#61616b" stroke-width="2"></polygon> <polyline data-cap="butt" data-color="color-2" points="32.637 3.781 24 8.813 15.363 3.781" fill="none" stroke="#61616b" stroke-width="2"></polyline> <polyline data-cap="butt" data-color="color-2" points="7.44 9.537 9.556 19.307 2.102 25.967" fill="none" stroke="#61616b" stroke-width="2"></polyline> <polyline data-cap="butt" data-color="color-2" points="5.128 35.28 15.073 36.287 19.104 45.434" fill="none" stroke="#61616b" stroke-width="2"></polyline> <polyline data-cap="butt" data-color="color-2" points="28.896 45.434 32.927 36.287 42.872 35.28" fill="none" stroke="#61616b" stroke-width="2"></polyline> <polyline data-cap="butt" data-color="color-2" points="45.898 25.967 38.444 19.307 40.56 9.537" fill="none" stroke="#61616b" stroke-width="2"></polyline> <line data-cap="butt" data-color="color-2" x1="24" y1="8.813" x2="24" y2="14.907" fill="none" stroke="#61616b" stroke-width="2"></line> <line data-cap="butt" data-color="color-2" x1="9.556" y1="19.307" x2="14.583" y2="21.749" fill="none" stroke="#61616b" stroke-width="2"></line> <line data-cap="butt" data-color="color-2" x1="33.417" y1="21.749" x2="38.444" y2="19.307" fill="none" stroke="#61616b" stroke-width="2"></line> <line data-cap="butt" data-color="color-2" x1="29.451" y1="32.655" x2="32.927" y2="36.287" fill="none" stroke="#61616b" stroke-width="2"></line> <line data-cap="butt" data-color="color-2" x1="18.549" y1="32.655" x2="15.073" y2="36.287" fill="none" stroke="#61616b" stroke-width="2"></line> <circle cx="24" cy="24" r="22" fill="none" stroke="#61616b" stroke-width="2"></circle></svg>