<svg xmlns="http://www.w3.org/2000/svg" height="24" width="24" viewBox="0 0 24 24"> <path fill-rule="evenodd" clip-rule="evenodd" d="M11 1L11 23L9 23L9 1L11 1Z" fill="#61616b"></path> <path fill-rule="evenodd" clip-rule="evenodd" d="M15 5L15 19L13 19L13 5L15 5Z" fill="#61616b" data-color="color-2"></path> <path fill-rule="evenodd" clip-rule="evenodd" d="M23 7L23 17L21 17L21 7L23 7Z" fill="#61616b" data-color="color-2"></path> <path fill-rule="evenodd" clip-rule="evenodd" d="M19 10L19 14L17 14L17 10L19 10Z" fill="#61616b"></path> <path fill-rule="evenodd" clip-rule="evenodd" d="M7 5L7 19L5 19L5 5L7 5Z" fill="#61616b" data-color="color-2"></path> <path fill-rule="evenodd" clip-rule="evenodd" d="M3 10L3 14L0.999998 14L1 10L3 10Z" fill="#61616b"></path></svg>