<svg xmlns="http://www.w3.org/2000/svg" height="24" width="24" viewBox="0 0 24 24"><rect x="3" y="3" width="1.5" height="1.5" stroke="#61616b" stroke-width="2" fill="#61616b"></rect><rect x="19.5" y="3" width="1.5" height="1.5" fill="#61616b" stroke="#61616b" stroke-width="2" data-color="color-2"></rect><rect x="8.5" y="3" width="1.5" height="1.5" stroke="#61616b" stroke-width="2" fill="#61616b"></rect><rect x="14" y="3" width="1.5" height="1.5" stroke="#61616b" stroke-width="2" fill="#61616b"></rect><rect x="3" y="8.5" width="1.5" height="1.5" stroke="#61616b" stroke-width="2" fill="#61616b"></rect><rect x="19.5" y="8.5" width="1.5" height="1.5" stroke="#61616b" stroke-width="2" fill="#61616b"></rect><rect x="8.5" y="8.5" width="1.5" height="1.5" stroke="#61616b" stroke-width="2" fill="#61616b"></rect><rect x="14" y="8.5" width="1.5" height="1.5" fill="#61616b" stroke="#61616b" stroke-width="2" data-color="color-2"></rect><rect x="3" y="14" width="1.5" height="1.5" stroke="#61616b" stroke-width="2" fill="#61616b"></rect><rect x="19.5" y="14" width="1.5" height="1.5" stroke="#61616b" stroke-width="2" fill="#61616b"></rect><rect x="8.5" y="14" width="1.5" height="1.5" fill="#61616b" stroke="#61616b" stroke-width="2" data-color="color-2"></rect><rect x="14" y="14" width="1.5" height="1.5" stroke="#61616b" stroke-width="2" fill="#61616b"></rect><rect x="3" y="19.5" width="1.5" height="1.5" fill="#61616b" stroke="#61616b" stroke-width="2" data-color="color-2"></rect><rect x="19.5" y="19.5" width="1.5" height="1.5" stroke="#61616b" stroke-width="2" fill="#61616b"></rect><rect x="8.5" y="19.5" width="1.5" height="1.5" stroke="#61616b" stroke-width="2" fill="#61616b"></rect><rect x="14" y="19.5" width="1.5" height="1.5" stroke="#61616b" stroke-width="2" fill="#61616b"></rect></svg>