<svg xmlns="http://www.w3.org/2000/svg" height="24" width="24" viewBox="0 0 24 24"><polygon points="24 3 21 3 21 0 19 0 19 3 16 3 16 5 19 5 19 8 21 8 21 5 24 5 24 3" fill="#61616b" data-color="color-2"></polygon><path d="M7.854,9.823H7.831l-1.488.708-.3-1.367L8.106,8.2H9.617V16H7.854Z" fill="#61616b" data-color="color-2"></path><path d="M12.068,13.961a2.07,2.07,0,0,1,1.391-1.955V11.97a1.892,1.892,0,0,1-1.127-1.7c0-1.319,1.187-2.2,2.746-2.2,1.823,0,2.579,1.056,2.579,2a1.9,1.9,0,0,1-1.128,1.716v.035a2.064,2.064,0,0,1,1.428,1.943c0,1.416-1.188,2.363-3,2.363C12.979,16.132,12.068,15.017,12.068,13.961Zm4.03-.06c0-.683-.5-1.091-1.223-1.283a1.183,1.183,0,0,0-.948,1.163,1.068,1.068,0,0,0,1.1,1.092A.98.98,0,0,0,16.1,13.9Zm-2.051-3.694c0,.528.479.864,1.1,1.056a1.068,1.068,0,0,0,.792-1,.894.894,0,0,0-.948-.959A.869.869,0,0,0,14.047,10.207Z" fill="#61616b" data-color="color-2"></path><path d="M21.735,9.743a10.034,10.034,0,1,1-7.478-7.478A5.972,5.972,0,0,1,15.179.439a12.043,12.043,0,1,0,8.382,8.382A5.972,5.972,0,0,1,21.735,9.743Z" fill="#61616b"></path></svg>