<svg xmlns="http://www.w3.org/2000/svg" height="24" width="24" viewBox="0 0 24 24"><path d="M2,7A5.006,5.006,0,0,1,7,2H19.816A2.99,2.99,0,0,0,17,0H3A3,3,0,0,0,0,3V17a2.99,2.99,0,0,0,2,2.816Z" fill="#61616b" data-color="color-2"></path><path d="M21,4H7A3,3,0,0,0,4,7V21a3,3,0,0,0,3,3H21a3,3,0,0,0,3-3V7A3,3,0,0,0,21,4ZM9.5,20A1.5,1.5,0,1,1,11,18.5,1.5,1.5,0,0,1,9.5,20Zm0-9A1.5,1.5,0,1,1,11,9.5,1.5,1.5,0,0,1,9.5,11ZM14,15.5A1.5,1.5,0,1,1,15.5,14,1.5,1.5,0,0,1,14,15.5ZM18.5,20A1.5,1.5,0,1,1,20,18.5,1.5,1.5,0,0,1,18.5,20Zm0-9A1.5,1.5,0,1,1,20,9.5,1.5,1.5,0,0,1,18.5,11Z" fill="#61616b"></path></svg>