<svg xmlns="http://www.w3.org/2000/svg" height="24" width="24" viewBox="0 0 24 24"><path d="M19.162,24H12.838l-.286-.513a15.087,15.087,0,0,1-.384-12.5A9.95,9.95,0,0,0,13,7.5a7.8,7.8,0,0,0-.266-2.311A5.97,5.97,0,0,1,12.5,3.5a3.5,3.5,0,0,1,7,0,5.97,5.97,0,0,1-.234,1.689A7.8,7.8,0,0,0,19,7.5a9.95,9.95,0,0,0,.832,3.487A15,15,0,0,1,21,16.5a14.868,14.868,0,0,1-1.552,6.987Z" fill="#61616b"></path> <path d="M9,16.5a16.857,16.857,0,0,1,1.291-6.2c.07-.192.131-.365.194-.541a4.956,4.956,0,0,1-.235-1.441,5.813,5.813,0,0,1,.224-1.829,4.836,4.836,0,0,0,.214-1.443A3.123,3.123,0,0,0,7.5,2,3.123,3.123,0,0,0,4.312,5.046a4.836,4.836,0,0,0,.214,1.443A5.813,5.813,0,0,1,4.75,8.318a7.562,7.562,0,0,1-.712,2.77,11.842,11.842,0,0,0,.351,10.425L4.68,22H9.785A19.082,19.082,0,0,1,9,16.5Z" fill="#61616b" data-color="color-2"></path></svg>