<svg xmlns="http://www.w3.org/2000/svg" height="24" width="24" viewBox="0 0 24 24"><path d="M13,23H11c0-8.228-4.328-10.054-4.372-10.071L5.7,12.557,6.443,10.7l.929.371c.166.068,3.056,1.282,4.628,5.6,1.572-4.317,4.462-5.531,4.628-5.6l.929-.371.743,1.857-.923.369C17.16,13.02,13,14.913,13,23Z" fill="#61616b"></path><polygon points="15.68 2.686 13.137 2.317 12 0.013 10.863 2.317 8.32 2.686 10.16 4.48 9.726 7.013 12 5.817 14.274 7.013 13.84 4.48 15.68 2.686" fill="#61616b" data-color="color-2"></polygon><polygon points="7.949 18.537 5.548 18.188 4.475 16.013 3.401 18.188 1 18.537 2.737 20.23 2.327 22.621 4.475 21.493 6.622 22.621 6.212 20.23 7.949 18.537" fill="#61616b" data-color="color-2"></polygon><polygon points="23 18.537 20.599 18.188 19.525 16.013 18.452 18.188 16.051 18.537 17.788 20.23 17.378 22.621 19.525 21.493 21.673 22.621 21.263 20.23 23 18.537" fill="#61616b" data-color="color-2"></polygon><path d="M13,11.3V8.013H11v3.268a11.622,11.622,0,0,1,1.016,1.184A11.916,11.916,0,0,1,13,11.3Z" fill="#61616b"></path><circle cx="2.5" cy="9.5" r="1.5" fill="#61616b"></circle><circle cx="21.5" cy="9.5" r="1.5" fill="#61616b"></circle></svg>