<svg xmlns="http://www.w3.org/2000/svg" height="24" width="24" viewBox="0 0 24 24"><path d="M11,3.691,1.263,1.035A1,1,0,0,0,0,2V15a1,1,0,0,0,.737.965L11,18.764Z" fill="#61616b"></path><path d="M23.607,1.205a1.012,1.012,0,0,0-.87-.17L13,3.691V18.764l10.263-2.8A1,1,0,0,0,24,15V2A1,1,0,0,0,23.607,1.205Z" fill="#61616b"></path><path data-color="color-2" d="M23.788,17.9l-11,3a3.017,3.017,0,0,1-1.578,0l-11-3c-.073-.02-.14-.052-.211-.077V22a1,1,0,0,0,1,1H23a1,1,0,0,0,1-1V17.817C23.929,17.843,23.862,17.875,23.788,17.9Z" fill="#61616b"></path></svg>