<svg xmlns="http://www.w3.org/2000/svg" height="24" width="24" viewBox="0 0 24 24"><path d="M23,2H22V22h1a1,1,0,0,0,1-1V3A1,1,0,0,0,23,2Z" fill="#61616b" data-color="color-2"></path><path d="M19,0H3A1,1,0,0,0,2,1V23a1,1,0,0,0,1,1H19a1,1,0,0,0,1-1V1A1,1,0,0,0,19,0ZM4,3.5A1.5,1.5,0,1,1,5.5,5,1.5,1.5,0,0,1,4,3.5Zm2.8,9.231a2.8,2.8,0,0,1,0-3.919A2.7,2.7,0,0,1,11,9.24a2.7,2.7,0,0,1,4.2-.428,2.8,2.8,0,0,1,0,3.919L11,17ZM16.5,22A1.5,1.5,0,1,1,18,20.5,1.5,1.5,0,0,1,16.5,22Z" fill="#61616b"></path></svg>