<svg xmlns="http://www.w3.org/2000/svg" height="24" width="24" viewBox="0 0 24 24"><path d="M6,14h4a1,1,0,0,1,1,1v3a0,0,0,0,1,0,0H5a0,0,0,0,1,0,0V15A1,1,0,0,1,6,14Z" fill="#61616b" data-color="color-2"></path><path d="M14,14h4a1,1,0,0,1,1,1v3a0,0,0,0,1,0,0H13a0,0,0,0,1,0,0V15A1,1,0,0,1,14,14Z" fill="#61616b" data-color="color-2"></path><path d="M10,20h4a1,1,0,0,1,1,1v3a0,0,0,0,1,0,0H9a0,0,0,0,1,0,0V21A1,1,0,0,1,10,20Z" fill="#61616b" data-color="color-2"></path><path d="M2,20H6a1,1,0,0,1,1,1v3a0,0,0,0,1,0,0H1a0,0,0,0,1,0,0V21A1,1,0,0,1,2,20Z" fill="#61616b" data-color="color-2"></path><path d="M18,20h4a1,1,0,0,1,1,1v3a0,0,0,0,1,0,0H17a0,0,0,0,1,0,0V21A1,1,0,0,1,18,20Z" fill="#61616b" data-color="color-2"></path><path d="M20,0H4A1,1,0,0,0,3,1V11a1,1,0,0,0,1,1H20a1,1,0,0,0,1-1V1A1,1,0,0,0,20,0ZM19,9H5V2H19Z" fill="#61616b"></path></svg>