<svg width="300" height="300" viewBox="0 0 300 300" fill="none" xmlns="http://www.w3.org/2000/svg">
    <path
        d="M187.344 142.953C187.451 139.188 187.362 136.353 187.177 132.217C186.234 111.04 172.653 102.986 156.933 102.643C142.189 102.321 125.274 108.257 123.556 131.909C123.264 135.932 123.154 139.563 123.168 142.982L123.595 142.953C135.572 138.746 133.345 124.654 133.345 119.712C137.141 128.812 143.185 127.889 144.017 118.581C145.447 125.867 153.027 129.759 154.738 118.036C157.197 130.573 164.937 126.026 166.452 118.22C167.637 127.567 172.201 127.811 176.516 119.719C175.819 140.496 187.294 142.989 187.344 142.953Z"
        fill="light-dark(#18181B, #F4F4F5)" />
    <path fill-rule="evenodd" clip-rule="evenodd"
        d="M155.13 116.666C155.689 116.653 156.177 117.045 156.284 117.596C156.874 120.632 157.753 122.464 158.641 123.458C159.481 124.397 160.304 124.577 161.057 124.407C161.896 124.217 162.858 123.539 163.73 122.343C164.589 121.166 165.287 119.58 165.634 117.782C165.74 117.227 166.234 116.832 166.797 116.85C167.36 116.869 167.827 117.295 167.897 117.856C168.182 120.12 168.658 121.728 169.218 122.761C169.78 123.797 170.325 124.093 170.717 124.14C171.142 124.191 171.822 124.006 172.752 123.143C173.665 122.295 174.678 120.917 175.713 118.959C175.96 118.492 176.492 118.254 177.003 118.381C177.514 118.509 177.873 118.969 177.873 119.497C177.873 123.56 178.008 127.985 179.309 131.933C180.591 135.826 182.999 139.233 187.598 141.331C188.174 141.594 188.429 142.275 188.166 142.853C187.904 143.431 187.224 143.686 186.648 143.423C181.367 141.014 178.577 137.043 177.131 132.654C176.136 129.633 175.774 126.404 175.646 123.351C175.205 123.919 174.759 124.414 174.31 124.83C173.154 125.904 171.829 126.59 170.444 126.423C169.025 126.253 167.953 125.243 167.203 123.859C166.942 123.377 166.708 122.829 166.5 122.219C166.221 122.749 165.914 123.245 165.582 123.701C164.518 125.159 163.13 126.295 161.561 126.65C159.906 127.025 158.262 126.479 156.933 124.992C156.293 124.276 155.725 123.344 155.238 122.188C154.852 123.159 154.393 123.961 153.867 124.598C152.668 126.051 151.123 126.633 149.537 126.34C148.034 126.063 146.685 125.037 145.651 123.696C145.372 123.334 145.111 122.943 144.87 122.526C144.639 123.193 144.368 123.793 144.057 124.322C143.205 125.772 141.993 126.777 140.496 126.962C139.009 127.147 137.559 126.483 136.304 125.291C135.951 124.956 135.606 124.574 135.271 124.144C135.309 126.387 135.23 129.024 134.715 131.601C133.734 136.514 131.13 141.513 124.696 143.793C124.099 144.005 123.444 143.691 123.233 143.092C123.022 142.493 123.335 141.837 123.932 141.625C129.36 139.702 131.585 135.561 132.466 131.149C133.148 127.734 133.003 124.332 132.892 121.728C132.856 120.891 132.824 120.136 132.824 119.49C132.824 118.941 133.21 118.469 133.747 118.362C134.283 118.255 134.821 118.543 135.03 119.05C135.931 121.23 136.932 122.721 137.88 123.622C138.831 124.524 139.633 124.753 140.215 124.68C140.787 124.609 141.462 124.208 142.081 123.154C142.703 122.097 143.201 120.478 143.398 118.258C143.448 117.687 143.91 117.241 144.48 117.212C145.051 117.182 145.556 117.577 145.665 118.14C145.988 119.798 146.654 121.237 147.465 122.289C148.29 123.358 149.189 123.938 149.952 124.079C150.632 124.204 151.37 124.017 152.1 123.133C152.874 122.194 153.614 120.479 154.023 117.651C154.104 117.096 154.571 116.68 155.13 116.666Z"
        fill="light-dark(#18181B, #F4F4F5)" />
    <path fill-rule="evenodd" clip-rule="evenodd"
        d="M111.777 213.405C114.179 212.216 117.264 212.198 120.307 212.345C120.945 212.375 121.437 212.92 121.406 213.56C121.376 214.2 120.834 214.694 120.196 214.664C117.106 214.515 114.597 214.598 112.799 215.487C111.938 215.913 111.238 216.528 110.711 217.431C110.176 218.35 109.788 219.623 109.657 221.404C109.622 221.87 109.312 222.271 108.87 222.419C108.428 222.567 107.941 222.435 107.634 222.082C105.695 219.857 103.396 219.318 101.528 219.798C99.6387 220.284 98.0318 221.849 97.5424 224.185C97.4125 224.806 96.8107 225.207 96.1908 225.086C88.9084 223.666 82.9566 224.235 78.1756 226.596C73.4024 228.952 69.6513 233.165 66.8987 239.31C61.3608 251.675 59.9876 271.589 62.3933 298.737C62.4499 299.375 61.9802 299.939 61.3443 299.996C60.7084 300.053 60.147 299.581 60.0904 298.943C57.6804 271.746 58.9903 251.307 64.7902 238.358C67.7065 231.847 71.788 227.162 77.1556 224.512C82.2676 221.989 88.4143 221.376 95.5825 222.614C96.4857 220.015 98.5153 218.177 100.955 217.549C103.138 216.988 105.553 217.417 107.677 218.98C107.913 217.946 108.259 217.041 108.716 216.258C109.486 214.937 110.538 214.018 111.777 213.405Z"
        fill="light-dark(#18181B, #F4F4F5)" />
    <path fill-rule="evenodd" clip-rule="evenodd"
        d="M95.9555 250.878C96.4965 250.852 96.9527 251.343 96.9745 251.973C97.5954 269.92 97.7917 278.268 97.5595 296.243C97.5513 296.874 97.1059 297.378 96.5645 297.368C96.0231 297.359 95.5909 296.84 95.5991 296.209C95.8306 278.289 95.6354 269.985 95.0155 252.065C94.9937 251.435 95.4145 250.903 95.9555 250.878Z"
        fill="light-dark(#18181B, #F4F4F5)" />
    <path fill-rule="evenodd" clip-rule="evenodd"
        d="M191.615 210.081C191.005 209.516 189.728 209.134 188.101 209.352C183.643 209.952 180.512 210.829 176.834 211.858C175.213 212.311 173.486 212.795 171.493 213.297C170.745 213.486 170.103 213.722 169.536 214.031C172.043 219.123 174.368 223.104 176.703 225.767L176.703 225.767C177.487 226.661 178.113 226.983 178.6 227.043C179.062 227.1 179.684 226.955 180.556 226.258L180.556 226.258C184.235 223.322 187.963 218.433 191.516 212.719L191.516 212.719C191.978 211.976 192.097 211.414 192.073 211.022C192.051 210.648 191.896 210.342 191.615 210.081ZM167.695 215.58C167.267 216.11 166.86 216.763 166.467 217.582L166.467 217.583C164.782 221.091 163.098 224.601 161.414 228.111C160.264 230.509 159.113 232.908 157.962 235.306C157.689 235.876 156.989 236.123 156.4 235.859C155.811 235.595 155.555 234.919 155.828 234.349C156.979 231.952 158.129 229.554 159.28 227.157C160.964 223.646 162.648 220.135 164.333 216.626C165.1 215.029 165.99 213.816 167.098 212.91C168.211 212.001 169.475 211.456 170.899 211.097L171.196 212.197L170.899 211.097C172.766 210.627 174.434 210.16 176.03 209.714C179.785 208.664 183.146 207.724 187.777 207.1L187.777 207.1C189.821 206.826 191.931 207.223 193.243 208.44C193.923 209.07 194.363 209.905 194.422 210.891C194.479 211.858 194.165 212.872 193.532 213.89M167.695 215.58C170.12 220.45 172.464 224.45 174.909 227.237C175.871 228.334 176.983 229.136 178.303 229.299C179.648 229.464 180.903 228.931 182.054 228.011C186.05 224.821 189.945 219.659 193.532 213.89"
        fill="light-dark(#18181B, #F4F4F5)" />
    <path fill-rule="evenodd" clip-rule="evenodd"
        d="M122.397 210.081C122.993 209.516 124.241 209.134 125.832 209.352C130.188 209.952 133.248 210.829 136.842 211.858C138.426 212.311 140.114 212.795 142.062 213.297C142.793 213.486 143.42 213.722 143.975 214.031C141.524 219.123 139.252 223.104 136.97 225.767C136.204 226.661 135.593 226.983 135.116 227.043C134.664 227.1 134.057 226.955 133.205 226.258C129.61 223.322 125.966 218.433 122.494 212.719C122.043 211.976 121.926 211.414 121.949 211.022C121.971 210.648 122.122 210.342 122.397 210.081ZM145.773 215.58C146.192 216.11 146.589 216.763 146.973 217.582C148.62 221.091 150.266 224.601 151.911 228.111C153.036 230.509 154.16 232.908 155.285 235.306C155.552 235.876 156.236 236.123 156.812 235.859C157.387 235.595 157.638 234.919 157.371 234.349C156.246 231.952 155.122 229.554 153.998 227.157C152.352 223.646 150.706 220.135 149.059 216.626C148.31 215.029 147.44 213.816 146.357 212.91C145.269 212.001 144.034 211.456 142.642 211.097C140.818 210.627 139.188 210.16 137.628 209.714C133.958 208.664 130.674 207.724 126.148 207.1C124.151 206.826 122.089 207.223 120.806 208.44C120.141 209.07 119.711 209.905 119.654 210.891C119.598 211.858 119.905 212.872 120.524 213.89M145.773 215.58C143.404 220.45 141.113 224.45 138.723 227.237C137.784 228.334 136.697 229.136 135.407 229.299C134.092 229.464 132.866 228.931 131.741 228.011C127.835 224.821 124.029 219.659 120.524 213.89"
        fill="light-dark(#18181B, #F4F4F5)" />
    <path fill-rule="evenodd" clip-rule="evenodd"
        d="M201.077 215.244C199.055 214.24 196.079 214.304 192.595 216.05C192.022 216.337 191.323 216.109 191.034 215.54C190.745 214.971 190.975 214.278 191.548 213.99C195.438 212.04 199.222 211.743 202.117 213.18C204.443 214.336 205.988 216.507 206.534 219.379C208.59 217.949 210.912 217.704 213.016 218.332C215.397 219.043 217.445 220.854 218.496 223.159C219.323 223.042 220.172 222.91 221.037 222.777C224.431 222.253 228.069 221.691 231.562 221.783C236.373 221.91 241.115 223.265 245.056 227.611C248.948 231.904 251.937 238.986 253.616 250.288C255.297 261.608 255.683 277.291 254.251 298.923C254.209 299.558 253.656 300.04 253.016 299.998C252.376 299.956 251.891 299.407 251.933 298.771C253.359 277.217 252.965 261.717 251.317 250.625C249.667 239.516 246.778 232.959 243.329 229.155C239.929 225.405 235.869 224.205 231.501 224.089C228.236 224.003 224.913 224.516 221.582 225.03C220.354 225.22 219.124 225.409 217.896 225.569C217.34 225.642 216.811 225.309 216.639 224.778C215.985 222.756 214.292 221.122 212.347 220.542C210.477 219.984 208.307 220.375 206.485 222.551C206.172 222.925 205.657 223.064 205.197 222.899C204.737 222.733 204.43 222.3 204.43 221.814C204.43 218.378 203.048 216.223 201.077 215.244Z"
        fill="light-dark(#18181B, #F4F4F5)" />
    <path fill-rule="evenodd" clip-rule="evenodd"
        d="M218.12 250.878C218.661 250.903 219.082 251.435 219.06 252.065C218.44 269.985 218.245 278.289 218.477 296.209C218.485 296.84 218.053 297.359 217.511 297.368C216.97 297.378 216.525 296.874 216.516 296.243C216.284 278.268 216.48 269.92 217.101 251.973C217.123 251.343 217.579 250.852 218.12 250.878Z"
        fill="light-dark(#18181B, #F4F4F5)" />
    <path fill-rule="evenodd" clip-rule="evenodd"
        d="M136.508 108.671C130.594 112.87 126.117 119.971 125.288 131.573L125.288 131.573C124.31 145.248 125.344 154.458 126.605 165.702C126.73 166.813 126.857 167.943 126.984 169.1C127.026 169.482 126.878 169.86 126.587 170.109C126.297 170.358 125.903 170.446 125.535 170.343C122.59 169.518 120.374 169.788 118.927 170.52C117.497 171.245 116.755 172.441 116.674 173.722C116.515 176.239 119.061 180.129 126.949 181.176C127.47 181.245 127.878 181.662 127.939 182.188C128.912 190.469 130.091 199.443 131.47 207.643C131.576 208.273 131.155 208.871 130.53 208.978C129.904 209.085 129.311 208.66 129.205 208.03C127.867 200.067 126.717 191.394 125.762 183.339C118.02 182.047 114.115 177.79 114.382 173.575C114.519 171.41 115.794 169.516 117.896 168.451C119.634 167.571 121.889 167.273 124.522 167.739C124.455 167.137 124.388 166.542 124.322 165.952C123.06 154.706 122.004 145.302 122.997 131.407L124.143 131.49L122.997 131.407C123.868 119.214 128.63 111.432 135.185 106.777C141.693 102.157 149.817 100.725 157.271 100.89C165.242 101.066 172.795 103.227 178.49 108.186C184.208 113.165 187.91 120.842 188.388 131.748C188.921 143.893 188.253 152.748 186.259 168.121C188.587 167.389 190.727 167.406 192.505 168.015C194.754 168.786 196.364 170.497 196.883 172.648C197.916 176.927 194.615 181.845 186.515 184.288C186.01 192.089 185.185 199.804 183.864 208.663C183.77 209.295 183.185 209.731 182.558 209.636C181.931 209.541 181.499 208.951 181.593 208.319C182.95 199.212 183.779 191.335 184.274 183.326C184.305 182.83 184.646 182.409 185.122 182.28C193.402 180.035 195.259 175.712 194.652 173.196C194.334 171.88 193.336 170.746 191.765 170.207C190.192 169.668 187.985 169.717 185.352 170.956C184.972 171.135 184.525 171.091 184.187 170.84C183.849 170.59 183.673 170.173 183.728 169.754C185.912 153.226 186.64 144.301 186.094 131.851C185.637 121.449 182.137 114.422 176.989 109.938C171.817 105.434 164.84 103.373 157.221 103.204C150.047 103.046 142.471 104.437 136.508 108.671Z"
        fill="light-dark(#18181B, #F4F4F5)" />
    <path fill-rule="evenodd" clip-rule="evenodd"
        d="M154.464 135.089C155.11 135.06 155.658 135.546 155.688 136.174C155.912 140.941 155.481 150.137 154.212 156.954C156.63 155.482 159.207 154.114 162.15 153.317C162.773 153.148 163.419 153.502 163.593 154.108C163.766 154.713 163.402 155.341 162.779 155.51C159.263 156.462 156.284 158.332 153.134 160.34C152.732 160.596 152.209 160.588 151.816 160.318C151.422 160.049 151.239 159.573 151.353 159.119C153.003 152.532 153.596 141.57 153.347 136.278C153.317 135.65 153.818 135.118 154.464 135.089Z"
        fill="light-dark(#18181B, #F4F4F5)" />
    <path fill-rule="evenodd" clip-rule="evenodd"
        d="M171.183 140.352C171.845 140.327 172.402 140.861 172.427 141.546C172.594 146.15 169.968 149.051 166.951 149.122C165.475 149.157 164.032 148.477 163.063 147.109C162.102 145.752 161.683 143.835 161.962 141.484C162.042 140.803 162.64 140.319 163.297 140.403C163.955 140.486 164.422 141.106 164.341 141.786C164.115 143.695 164.491 144.926 164.997 145.641C165.494 146.344 166.19 146.657 166.896 146.64C168.244 146.608 170.161 145.228 170.031 141.64C170.006 140.955 170.522 140.378 171.183 140.352Z"
        fill="light-dark(#18181B, #F4F4F5)" />
    <path fill-rule="evenodd" clip-rule="evenodd"
        d="M138.495 140.352C139.156 140.379 139.672 140.955 139.647 141.64C139.515 145.228 141.431 146.608 142.78 146.64C143.487 146.657 144.182 146.344 144.68 145.641C145.187 144.926 145.562 143.694 145.336 141.786C145.255 141.106 145.723 140.486 146.38 140.403C147.037 140.319 147.635 140.803 147.716 141.484C147.994 143.836 147.575 145.753 146.614 147.109C145.645 148.477 144.202 149.157 142.725 149.122C139.708 149.051 137.081 146.15 137.251 141.546C137.276 140.861 137.833 140.326 138.495 140.352Z"
        fill="light-dark(#18181B, #F4F4F5)" />
    <path fill-rule="evenodd" clip-rule="evenodd"
        d="M147.418 166.871C147.938 166.505 148.647 166.642 149.003 167.178C150.952 170.117 153.603 171.388 156.176 171.332C158.77 171.276 161.425 169.868 163.332 167.152C163.701 166.627 164.414 166.509 164.924 166.889C165.434 167.269 165.549 168.004 165.18 168.529C162.9 171.776 159.607 173.608 156.225 173.681C152.822 173.755 149.469 172.046 147.12 168.503C146.765 167.968 146.898 167.237 147.418 166.871Z"
        fill="light-dark(#18181B, #F4F4F5)" />
    <path fill-rule="evenodd" clip-rule="evenodd"
        d="M162.757 253.795C162.757 253.152 163.275 252.631 163.913 252.631H203.78C204.413 252.631 204.929 253.143 204.937 253.78C205.01 259.614 204.986 266.17 204.961 272.8C204.949 276.142 204.937 279.502 204.937 282.798C204.937 283.441 204.419 283.962 203.78 283.962C201.028 283.962 197.594 284.011 193.773 284.065C184.669 284.194 173.37 284.355 163.866 283.961C163.246 283.935 162.757 283.423 162.757 282.798V253.795ZM165.07 254.958V281.679C174.265 282.014 184.919 281.863 193.648 281.739C196.984 281.691 200.039 281.648 202.624 281.637C202.627 278.697 202.638 275.721 202.648 272.764C202.671 266.579 202.694 260.478 202.637 254.958H165.07Z"
        fill="light-dark(#18181B, #F4F4F5)" />
    <path fill-rule="evenodd" clip-rule="evenodd"
        d="M183.871 243.859C184.357 243.859 184.751 244.365 184.751 244.99V252.378C184.751 253.002 184.357 253.508 183.871 253.508C183.385 253.508 182.991 253.002 182.991 252.378V244.99C182.991 244.365 183.385 243.859 183.871 243.859Z"
        fill="light-dark(#18181B, #F4F4F5)" />
    <path fill-rule="evenodd" clip-rule="evenodd"
        d="M171.555 264.912C171.555 264.428 172.068 264.035 172.701 264.035H195.921C196.555 264.035 197.068 264.428 197.068 264.912C197.068 265.397 196.555 265.79 195.921 265.79H172.701C172.068 265.79 171.555 265.397 171.555 264.912Z"
        fill="light-dark(#18181B, #F4F4F5)" />
    <path fill-rule="evenodd" clip-rule="evenodd"
        d="M172.434 271.93C172.434 271.445 172.93 271.053 173.541 271.053H184.522C185.134 271.053 185.63 271.445 185.63 271.93C185.63 272.414 185.134 272.807 184.522 272.807H173.541C172.93 272.807 172.434 272.414 172.434 271.93Z"
        fill="light-dark(#18181B, #F4F4F5)" />
    <path
        d="M213.783 108.282C213.805 135.538 214.032 161.176 214.103 181.935C214.113 185.401 216.88 188.195 222.938 188.195C236.959 188.195 240.425 188.16 253.987 188.16C257.751 188.16 258.476 189.314 259.754 191.244C263.568 197.013 267.748 202.955 271.835 208.543C273.043 210.197 275.596 210.15 275.745 207.356C276.022 202.112 276.164 197.307 276.434 192.211C276.555 189.941 277.727 188.259 280.713 188.156C286.246 187.969 290.241 188.117 295.675 188.11C297.074 188.11 298.232 187.561 298.31 185.617C299.57 154.568 300.004 130.627 300 108.71C300 106.55 298.846 104.787 296.09 104.787C281.74 104.787 232.058 104.387 217.697 104.387C215.026 104.387 213.783 106.125 213.783 108.282Z"
        fill="#F9BD22" />
    <path
        d="M145.161 21.9518C145.201 37.5381 145.24 57.8044 145.276 73.1106C145.28 74.8869 146.616 76.3158 148.539 76.3158C181.819 76.3158 215.142 75.7981 252.612 74.5324C254.329 74.4756 255.756 73.5822 255.824 71.4265C256.424 52.9541 256.884 36.985 256.891 21.9979C256.891 19.438 256.043 17.4099 252.249 17.261C246.435 17.0306 240.054 16.8249 234.19 16.5909C231.682 16.4916 229.975 15.6868 228.555 12.6341C226.816 8.88997 225.742 5.2416 224.251 1.47622C223.55 -0.293014 221.768 -0.371016 221.254 0.706833C219.123 5.1565 217.28 9.16653 215.527 12.8787C214.502 15.0486 213.414 16.3534 209.892 16.481C198.013 16.9207 162.505 17.3319 149.764 17.3319C146.458 17.3319 145.154 19.4238 145.161 21.9483V21.9518Z"
        fill="#F9BD22" />
    <path
        d="M41.3283 84.827C36.2814 82.9304 32.6148 81.46 26.8601 79.5492C26.131 79.3076 26.1522 78.2599 27.6635 77.4856C33.7615 74.3566 38.2598 72.3463 41.2964 70.9683C42.8714 70.2508 43.88 68.6774 43.88 66.9442V37.767C43.88 36.6269 44.2339 35.7284 45.9186 35.6538C75.4425 34.3645 88.2721 35.6751 119.077 35.7213C120.256 35.7213 121.208 36.5701 121.208 38.0654C121.208 59.7129 121.859 79.7658 120.808 101.349C120.698 103.576 119.449 104.386 117.778 104.386H48.5518C46.9981 104.386 45.77 103.9 45.5364 101.655L44.1632 88.5101C43.8942 85.9457 42.8926 85.4201 41.3283 84.8305V84.827Z"
        fill="#F9BD22" />
    <path
        d="M0 189.844V133.428C0 132.087 0.421707 130.994 2.44805 130.994C43.25 130.994 52.2846 129.948 89.2805 131.81C91.0102 131.899 92.3754 132.343 92.3754 135.029V186.133C92.3754 188.517 90.9208 189.355 89.1232 189.355H53.1887C49.8687 189.631 48.9609 190.774 47.342 193.29C43.9898 198.513 37.2961 208.504 31.4887 216.931C30.7096 218.063 29.9877 217.403 30.002 216.729C30.1306 210.002 30.0198 199.421 30.0198 194.691C30.0198 192.431 28.9513 192.275 27.6075 192.275H2.45162C0.400265 192.275 0 191.186 0 189.841V189.844Z"
        fill="#F9BD22" />
    <path fill-rule="evenodd" clip-rule="evenodd"
        d="M13.1963 145.614C13.1963 145.129 13.7167 144.736 14.3586 144.736H80.6557C81.2976 144.736 81.818 145.129 81.818 145.614C81.818 146.098 81.2976 146.491 80.6557 146.491H14.3586C13.7167 146.491 13.1963 146.098 13.1963 145.614Z"
        fill="light-dark(#18181B, #F4F4F5)" />
    <path fill-rule="evenodd" clip-rule="evenodd"
        d="M47.2262 162.188C37.2919 162.234 27.304 162.28 15.2365 162.28C14.5957 162.28 14.0762 161.732 14.0762 161.056C14.0762 160.381 14.5957 159.833 15.2365 159.833C27.2983 159.833 37.2816 159.787 47.216 159.741L47.3444 159.74C57.2355 159.694 67.0868 159.648 78.8983 159.648C79.5391 159.648 80.0586 160.196 80.0586 160.872C80.0586 161.548 79.5391 162.096 78.8983 162.096C67.0919 162.096 57.2448 162.141 47.3531 162.187L47.2262 162.188Z"
        fill="light-dark(#18181B, #F4F4F5)" />
    <path fill-rule="evenodd" clip-rule="evenodd"
        d="M14.0762 175.876C14.0762 175.15 14.5888 174.561 15.2211 174.561H45.4825C46.1149 174.561 46.6275 175.15 46.6275 175.876C46.6275 176.603 46.1149 177.192 45.4825 177.192H15.2211C14.5888 177.192 14.0762 176.603 14.0762 175.876Z"
        fill="light-dark(#18181B, #F4F4F5)" />
    <path fill-rule="evenodd" clip-rule="evenodd"
        d="M107.941 53.3464C85.7579 53.3464 75.8364 53.5812 57.501 54.3847C56.8667 54.4125 56.3315 53.8827 56.3057 53.2013C56.2798 52.52 56.773 51.9451 57.4073 51.9173C75.7762 51.1124 85.729 50.877 107.941 50.877C108.576 50.877 109.091 51.4297 109.091 52.1117C109.091 52.7936 108.576 53.3464 107.941 53.3464Z"
        fill="light-dark(#18181B, #F4F4F5)" />
    <path fill-rule="evenodd" clip-rule="evenodd"
        d="M107.938 70.0124C87.509 70.0124 75.1299 70.202 59.2749 71.0502C58.639 71.0842 58.0977 70.5597 58.0659 69.8786C58.0341 69.1976 58.5239 68.6179 59.1599 68.5839C75.0698 67.7327 87.492 67.543 107.938 67.543C108.575 67.543 109.091 68.0958 109.091 68.7777C109.091 69.4596 108.575 70.0124 107.938 70.0124Z"
        fill="light-dark(#18181B, #F4F4F5)" />
    <path fill-rule="evenodd" clip-rule="evenodd"
        d="M58.0645 86.4037C58.0645 85.677 58.5806 85.0879 59.2174 85.0879H107.938C108.575 85.0879 109.091 85.677 109.091 86.4037C109.091 87.1304 108.575 87.7195 107.938 87.7195H59.2174C58.5806 87.7195 58.0645 87.1304 58.0645 86.4037Z"
        fill="light-dark(#18181B, #F4F4F5)" />
    <path fill-rule="evenodd" clip-rule="evenodd"
        d="M227.859 121.904C227.859 121.434 228.375 121.053 229.011 121.053C238.9 121.053 247.252 121.065 255.87 121.078L256.727 121.079C265.651 121.092 274.923 121.105 286.532 121.105C287.168 121.105 287.683 121.486 287.683 121.956C287.683 122.426 287.168 122.807 286.532 122.807C274.92 122.807 265.646 122.794 256.722 122.781L255.866 122.78C247.248 122.767 238.897 122.755 229.011 122.755C228.375 122.755 227.859 122.374 227.859 121.904Z"
        fill="light-dark(#18181B, #F4F4F5)" />
    <path fill-rule="evenodd" clip-rule="evenodd"
        d="M286.803 135.13C286.828 135.658 286.331 136.103 285.693 136.124C277.972 136.377 269.408 136.403 260.401 136.43C259.881 136.432 259.359 136.434 258.836 136.435C249.248 136.465 239.18 136.512 229.061 136.842C228.423 136.863 227.885 136.451 227.86 135.923C227.835 135.395 228.332 134.95 228.97 134.929C239.135 134.598 249.242 134.551 258.828 134.521C259.346 134.52 259.862 134.518 260.377 134.516C269.399 134.489 277.924 134.463 285.602 134.212C286.24 134.191 286.778 134.602 286.803 135.13Z"
        fill="light-dark(#18181B, #F4F4F5)" />
    <path fill-rule="evenodd" clip-rule="evenodd"
        d="M248.349 153.461C242.272 153.485 236.333 153.509 230.784 153.509C230.14 153.509 229.619 152.941 229.619 152.242C229.619 151.543 230.14 150.976 230.784 150.976C236.314 150.976 242.243 150.952 248.314 150.928C260.908 150.878 274.115 150.826 285.653 150.976C286.296 150.984 286.811 151.558 286.804 152.257C286.796 152.957 286.269 153.517 285.626 153.508C274.105 153.359 260.932 153.411 248.349 153.461Z"
        fill="light-dark(#18181B, #F4F4F5)" />
    <path fill-rule="evenodd" clip-rule="evenodd"
        d="M256.89 166.938C256.919 167.603 256.43 168.166 255.798 168.197C249.467 168.503 243.871 168.431 237.864 168.353C235.042 168.317 232.129 168.28 229.006 168.28C228.373 168.28 227.859 167.74 227.859 167.075C227.859 166.41 228.373 165.871 229.006 165.871C232.191 165.871 235.134 165.908 237.97 165.945C243.938 166.022 249.428 166.093 255.692 165.79C256.325 165.76 256.861 166.274 256.89 166.938Z"
        fill="light-dark(#18181B, #F4F4F5)" />
    <path fill-rule="evenodd" clip-rule="evenodd"
        d="M201.918 33.1979C188.617 33.2652 175.311 33.3325 159.518 33.3325C158.877 33.3325 158.357 33 158.357 32.5899C158.357 32.1798 158.877 31.8473 159.518 31.8473C175.301 31.8473 188.598 31.7801 201.899 31.7128L201.903 31.7127C215.202 31.6454 228.505 31.5781 244.293 31.5781C244.935 31.5781 245.454 31.9106 245.454 32.3207C245.454 32.7308 244.935 33.0633 244.293 33.0633C228.515 33.0633 215.219 33.1306 201.919 33.1979L201.918 33.1979Z"
        fill="light-dark(#18181B, #F4F4F5)" />
    <path fill-rule="evenodd" clip-rule="evenodd"
        d="M225.396 46.7628C203.881 46.7081 185.08 46.6603 159.555 47.3674C158.915 47.3851 158.379 46.9524 158.358 46.4009C158.337 45.8493 158.84 45.3879 159.481 45.3701C185.049 44.6618 203.898 44.7097 225.42 44.7645C231.434 44.7798 237.657 44.7956 244.293 44.7956C244.935 44.7956 245.454 45.2429 245.454 45.7947C245.454 46.3465 244.935 46.7939 244.293 46.7939C237.644 46.7939 231.414 46.7781 225.396 46.7628Z"
        fill="light-dark(#18181B, #F4F4F5)" />
    <path fill-rule="evenodd" clip-rule="evenodd"
        d="M244.289 59.0781C220.64 59.0781 184.928 59.4707 160.443 60.5257C159.799 60.5534 159.26 59.9187 159.238 59.108C159.216 58.2973 159.72 57.6176 160.363 57.5899C184.888 56.5332 220.631 56.1406 244.289 56.1406C244.933 56.1406 245.454 56.7982 245.454 57.6094C245.454 58.4205 244.933 59.0781 244.289 59.0781Z"
        fill="light-dark(#18181B, #F4F4F5)" />
    <path
        d="M176.833 132.456C176.861 132.434 176.886 132.413 176.911 132.386C176.973 132.326 177.032 132.267 177.095 132.208C177.303 132.004 177.509 131.799 177.717 131.595C177.923 131.385 178.132 131.18 178.337 130.97C178.384 130.922 178.427 130.879 178.474 130.83C178.515 130.793 178.552 130.75 178.593 130.701C178.568 130.723 178.54 130.744 178.515 130.771C178.452 130.83 178.393 130.89 178.331 130.949C178.122 131.153 177.917 131.358 177.708 131.562C177.503 131.767 177.294 131.977 177.088 132.186C177.042 132.235 176.998 132.278 176.951 132.326C176.911 132.364 176.87 132.407 176.833 132.456Z"
        fill="light-dark(#18181B, #F4F4F5)" />
</svg>