<svg width="298" height="74" viewBox="0 0 298 74" fill="none" xmlns="http://www.w3.org/2000/svg">
<path d="M79.8939 57.3385L70.8834 41.6797L52.2949 44.1565L55.8616 50.3566C56.2084 50.9751 56.3893 51.6733 56.3864 52.3829C56.3836 53.0925 56.1973 53.7893 55.8455 54.405L80.1456 68.4788C81.1185 66.7748 81.6092 64.8367 81.5648 62.8735C81.5205 60.9103 80.9427 58.9965 79.8939 57.3385Z" fill="#009EFF"/>
<path d="M44.3906 30.4347L52.2897 44.1567L70.8782 41.6798L50.4154 6.12316H50.3886C49.5089 4.31888 48.1438 2.79741 46.4474 1.73072C44.7511 0.664026 42.7911 0.0946431 40.7891 0.0869141V28.2776C41.5275 28.2779 42.2521 28.4785 42.8861 28.8583C43.5201 29.238 44.0399 29.7828 44.3906 30.4347Z" fill="#00CFFF"/>
<path d="M37.1844 30.4347C37.5361 29.7843 38.0564 29.2412 38.6903 28.8629C39.3243 28.4846 40.0483 28.2852 40.7859 28.2856V28.2856V0.0869199H40.7431C38.996 0.0850923 37.2751 0.512018 35.7302 1.33049C34.1854 2.14897 32.8635 3.33414 31.8799 4.78267L22.2402 21.5106L33.7168 36.4468L37.1844 30.4347Z" fill="#00E1FF"/>
<path d="M25.1943 52.3692C25.1962 51.6633 25.3808 50.97 25.7299 50.3571V50.3571L33.7174 36.4472L22.2596 21.5029L1.13795 58.1341L1.18079 58.204C0.364488 59.803 -0.0403237 61.5814 0.00316879 63.3774C0.0466612 65.1734 0.537092 66.93 1.42983 68.4874L25.7272 54.4109C25.3739 53.7891 25.1902 53.0849 25.1943 52.3692V52.3692Z" fill="#007FFF"/>
<path d="M29.4038 56.476H29.2886C28.5683 56.4757 27.8608 56.2845 27.2378 55.9217C26.6147 55.559 26.0983 55.0375 25.7407 54.4102L1.44336 68.4867C2.37822 70.1151 3.72151 71.4697 5.33977 72.416C6.95803 73.3623 8.79496 73.8673 10.668 73.8809H29.1949L36.3604 56.476H29.4038Z" fill="#005BDF"/>
<path d="M55.8451 54.4053C55.4882 55.0342 54.9717 55.5572 54.3481 55.9209C53.7244 56.2847 53.0159 56.4764 52.2945 56.4765H52.1767H36.3569L29.1914 73.8814H70.8375C72.7256 73.8821 74.5804 73.383 76.2146 72.4345C77.8489 71.4859 79.2047 70.1216 80.1452 68.4791L55.8451 54.4053Z" fill="#0043C1"/>
<path d="M125.88 22.0583L129.806 9.18262H134.957L128.767 27.5305H123.143L119.084 15.1275L115.067 27.5305H109.482L103.291 9.18262H108.537L112.443 22.0019L116.54 9.18262H121.73L125.88 22.0583Z" fill="black"/>
<path d="M142.885 3.18117C142.879 3.80342 142.691 4.41019 142.343 4.92511C141.994 5.44003 141.502 5.84009 140.928 6.07491C140.353 6.30974 139.722 6.36883 139.115 6.24478C138.507 6.12072 137.949 5.81906 137.512 5.37774C137.075 4.93643 136.777 4.3752 136.657 3.7647C136.537 3.1542 136.6 2.52172 136.837 1.94686C137.075 1.37201 137.476 0.880464 137.992 0.534129C138.507 0.187793 139.113 0.00214217 139.733 0.000529455C140.151 -0.00720704 140.566 0.0699123 140.953 0.227257C141.34 0.384601 141.691 0.618915 141.986 0.91608C142.28 1.21324 142.511 1.56711 142.666 1.95639C142.821 2.34566 142.895 2.76228 142.885 3.18117V3.18117ZM142.223 27.5304H137.299V9.18251H142.223V27.5304Z" fill="black"/>
<path d="M163.941 15.8469V27.5299H159.015V17.4372C159.015 14.7885 157.694 13.3298 155.448 13.3298C153.335 13.3298 151.579 14.7106 151.579 17.4748V27.5299H146.654V9.18204H151.447V11.3311C152.749 9.38083 154.749 8.67969 156.827 8.67969C160.964 8.69043 163.941 11.5863 163.941 15.8469Z" fill="black"/>
<path d="M173.779 3.18116C173.774 3.80374 173.585 4.41084 173.237 4.92593C172.888 5.44102 172.395 5.84106 171.82 6.07565C171.245 6.31024 170.614 6.36888 170.006 6.24417C169.398 6.11946 168.84 5.81701 168.404 5.37489C167.967 4.93278 167.67 4.37079 167.551 3.75976C167.432 3.14873 167.495 2.51599 167.734 1.94127C167.973 1.36656 168.376 0.87558 168.892 0.53021C169.408 0.184841 170.015 0.000535638 170.636 0.000513051C171.053 -0.00612463 171.467 0.0718149 171.853 0.229651C172.239 0.387486 172.589 0.621964 172.883 0.919014C173.176 1.21607 173.407 1.56956 173.561 1.95829C173.715 2.34702 173.789 2.76296 173.779 3.18116V3.18116ZM173.118 27.5304H168.194V9.18249H173.118V27.5304Z" fill="black"/>
<path d="M118.632 52.0889H112.007V58.8048C112.007 61.0963 113.215 61.9291 114.744 61.9291C115.914 61.9291 117.178 61.3408 118.179 60.7363L119.989 64.5993C118.226 65.8729 116.105 66.5495 113.932 66.5308C109.402 66.5308 107.08 63.9546 107.08 59.2024V52.1024H103.551V47.7102H107.08V42.2568H112.007V47.7102H118.632V52.0889Z" fill="black"/>
<path d="M138.995 56.8408C138.997 57.3974 138.965 57.9535 138.902 58.5064H125.936C126.472 61.1578 128.314 62.313 130.636 62.313C132.332 62.2757 133.964 61.6534 135.257 60.5507L138.147 63.7313C136.071 65.644 133.428 66.5171 130.352 66.5171C124.747 66.5171 120.859 62.6917 120.859 56.916C120.859 51.1404 124.632 47.2022 130.105 47.2022C135.372 47.1914 138.977 51.1216 138.995 56.8408ZM125.955 55.1377H134.05C133.597 52.7898 132.175 51.4627 130.068 51.4627C127.746 51.4627 126.389 52.865 125.955 55.1377V55.1377Z" fill="black"/>
<path d="M158.189 50.6678L154.641 53.6389C153.527 52.4462 152.338 51.8014 150.735 51.8014C148.185 51.8014 146.148 53.8081 146.148 56.8572C146.148 59.9062 148.167 61.9129 150.716 61.9129C151.472 61.9033 152.219 61.7329 152.905 61.413C153.591 61.093 154.202 60.6307 154.697 60.0566L158.208 63.068C156.492 65.2816 153.924 66.5147 150.866 66.5147C145.034 66.5147 141.127 62.4233 141.127 56.8438C141.127 51.2642 145.034 47.1729 150.866 47.1729C153.924 47.1917 156.51 48.4515 158.189 50.6678Z" fill="black"/>
<path d="M165.928 49.6664C167.23 47.8477 169.174 47.203 171.174 47.203C175.327 47.203 178.289 50.1016 178.289 54.3621V66.0425H173.364V55.9525C173.364 53.301 172.042 51.8424 169.798 51.8424C167.682 51.8424 165.928 53.2258 165.928 55.9901V66.0425H160.996V38.7598H165.923L165.928 49.6664Z" fill="black"/>
<path d="M199.842 54.3615V66.0419H194.918V55.9519C194.918 53.3004 193.595 51.8418 191.351 51.8418C189.236 51.8418 187.482 53.2252 187.482 55.9895V66.0419H182.555V47.6967H187.348V49.8458C188.652 47.8955 190.652 47.1943 192.727 47.1943C196.878 47.1917 199.842 50.101 199.842 54.3615Z" fill="black"/>
<path d="M222.755 56.8623C222.755 62.3908 218.545 66.5332 212.847 66.5332C207.149 66.5332 202.975 62.4043 202.975 56.8623C202.975 51.3203 207.165 47.1914 212.847 47.1914C218.529 47.1914 222.755 51.3311 222.755 56.8623ZM207.995 56.8623C207.995 59.8334 210.073 61.918 212.847 61.918C215.621 61.918 217.715 59.8334 217.715 56.8623C217.715 53.8912 215.621 51.8066 212.847 51.8066C210.073 51.8066 207.995 53.8858 207.995 56.8623V56.8623Z" fill="black"/>
<path d="M230.945 66.0422H226.018V38.7783H230.945V66.0422Z" fill="black"/>
<path d="M254.008 56.8623C254.008 62.3908 249.799 66.5332 244.1 66.5332C238.402 66.5332 234.23 62.4043 234.23 56.8623C234.23 51.3203 238.421 47.1914 244.1 47.1914C249.78 47.1914 254.008 51.3311 254.008 56.8623ZM239.248 56.8623C239.248 59.8334 241.324 61.918 244.098 61.918C246.872 61.918 248.968 59.8334 248.968 56.8623C248.968 53.8912 246.872 51.8066 244.098 51.8066C241.324 51.8066 239.248 53.8858 239.248 56.8623Z" fill="black"/>
<path d="M270.219 49.7412V47.6969H275.039V64.527C275.039 70.4155 271.21 73.9776 265.169 73.9776C262.282 73.9776 259.224 73.22 257.168 71.7613L258.922 67.7318C260.704 68.9487 262.807 69.6035 264.963 69.6122C268.021 69.6122 270.171 67.9091 270.171 64.7472V63.4605C268.926 64.9944 267.075 65.94 264.548 65.94C260.092 65.94 256.129 62.2113 256.129 56.5861C256.129 50.9608 260.092 47.2134 264.548 47.2134C267.105 47.1919 268.974 48.1885 270.219 49.7412ZM261.198 56.5753C261.198 59.2268 262.992 61.3839 265.803 61.3839C268.54 61.3839 270.39 59.302 270.39 56.5753C270.39 53.8487 268.54 51.7399 265.803 51.7399C262.992 51.7587 261.198 53.9078 261.198 56.5753Z" fill="black"/>
<path d="M284.014 73.6932H278.616L285.015 62.1418L277.127 47.6973H282.713L287.733 57.1264L292.601 47.6973H298L284.014 73.6932Z" fill="black"/>
</svg>
