<svg xmlns="http://www.w3.org/2000/svg" height="24" width="24" viewBox="0 0 24 24"><line data-cap="butt" data-color="color-2" fill="none" stroke="#61616b" stroke-width="2" x1="12" y1="2" x2="12" y2="11"></line> <polyline data-color="color-2" fill="none" stroke="#61616b" stroke-width="2" points=" 8,6 12,2 16,6 "></polyline> <path fill="none" stroke="#61616b" stroke-width="2" d="M9,23v-9 c0-1.65685,1.34314-3,3-3H12c1.65685,0,3,1.34314,3,3v9"></path> <path fill="none" stroke="#61616b" stroke-width="2" d="M15,16 c0-1.65685,1.34314-3,3-3H18c1.65685,0,3,1.34314,3,3v7"></path> <path fill="none" stroke="#61616b" stroke-width="2" d="M3,23v-7 c0-1.65685,1.34314-3,3-3H6c1.65685,0,3,1.34314,3,3"></path></svg>