<svg xmlns="http://www.w3.org/2000/svg" height="24" width="24" viewBox="0 0 24 24"><path fill="none" stroke="#61616b" stroke-width="2" d="M9,23V12.5 c0-1.38071,1.11929-2.5,2.5-2.5H11.5c1.38071,0,2.5,1.11929,2.5,2.5V23"></path> <path fill="none" stroke="#61616b" stroke-width="2" d="M14,15.00025V14.5 c0-1.38071,1.11929-2.5,2.5-2.5h0c1.38071,0,2.5,1.11929,2.5,2.5V23"></path> <path fill="none" stroke="#61616b" stroke-width="2" d="M4,23v-8.5 C4,13.11929,5.11929,12,6.5,12h0C7.88071,12,9,13.11929,9,14.5v0.50025"></path> <line data-cap="butt" data-color="color-2" fill="none" stroke="#61616b" stroke-width="2" x1="22" y1="5" x2="2" y2="5"></line> <polyline data-color="color-2" fill="none" stroke="#61616b" stroke-width="2" points=" 19,2 22,5 19,8 "></polyline></svg>