<svg xmlns="http://www.w3.org/2000/svg" height="24" width="24" viewBox="0 0 24 24"><path data-cap="butt" data-color="color-2" fill="none" stroke="#61616b" stroke-width="2" d="M4.04156,13.11682 C4.47942,8.5547,8.32311,5,13,5c1.0145,0,1.99158,0.16817,2.90141,0.47762"></path> <path fill="none" stroke="#61616b" stroke-width="2" d="M19,4L19,4 C21.2,4,23,5.8,23,8V8c0,2.2-1.8,4-4,4H19c-2.2,0-4-1.8-4-4V8C15,5.8,16.8,4,19,4z"></path> <path fill="none" stroke="#61616b" stroke-width="2" d="M5,13L5,13 C7.2,13,9,14.8,9,17V17c0,2.2-1.8,4-4,4H5c-2.2,0-4-1.8-4-4V17C1,14.8,2.8,13,5,13z"></path></svg>