<svg xmlns="http://www.w3.org/2000/svg" height="24" width="24" viewBox="0 0 24 24"><path d="M5,23V21L1.438,16.548A2,2,0,0,1,1,15.3V9.5A1.5,1.5,0,0,1,2.5,8h0A1.5,1.5,0,0,1,4,9.5v3.086" fill="none" stroke="#61616b" stroke-width="2"></path> <path d="M10,23V17.828a2,2,0,0,0-.586-1.414L6,13a1.415,1.415,0,0,0-2,0H4a1.415,1.415,0,0,0,0,2l3,3" fill="none" stroke="#61616b" stroke-width="2"></path> <path d="M19,23V21l3.562-4.452A2,2,0,0,0,23,15.3V9.5A1.5,1.5,0,0,0,21.5,8h0A1.5,1.5,0,0,0,20,9.5v3.086" fill="none" stroke="#61616b" stroke-width="2"></path> <path d="M14,23V17.828a2,2,0,0,1,.586-1.414L18,13a1.415,1.415,0,0,1,2,0h0a1.415,1.415,0,0,1,0,2l-3,3" fill="none" stroke="#61616b" stroke-width="2"></path> <path id="color" d="M9,7c0-1.9,3-5,3-5s3,3.1,3,5A3,3,0,0,1,9,7Z" fill="none" stroke="#61616b" stroke-width="2"></path></svg>