<svg xmlns="http://www.w3.org/2000/svg" height="24" width="24" viewBox="0 0 24 24"><path fill="none" stroke="#61616b" stroke-width="2" d="M12,19.813 C10.852,21.141,10,22,10,22S2,13.938,2,9c0-5.062,4.134-8,8-8s8,2.938,8,8c0,0.916-0.276,1.94-0.724,3"></path> <path data-color="color-2" fill="none" stroke="#61616b" stroke-width="2" d=" M22.361,15.631c-0.973-0.961-2.597-0.804-3.361,0.333c-0.765-1.138-2.389-1.293-3.361-0.333c-0.852,0.842-0.852,2.207,0,3.048L19,22 l3.361-3.321C23.213,17.838,23.213,16.473,22.361,15.631z"></path> <circle fill="none" stroke="#61616b" stroke-width="2" cx="10" cy="9" r="3"></circle></svg>