<svg xmlns="http://www.w3.org/2000/svg" height="24" width="24" viewBox="0 0 24 24"><path fill="none" stroke="#61616b" stroke-width="2" d="M9,5c0,2.469-4,6-4,6 S1,7.469,1,5c0-2.531,2.067-4,4-4S9,2.469,9,5z"></path> <path fill="none" stroke="#61616b" stroke-width="2" d="M23,5c0,2.469-4,6-4,6 s-4-3.531-4-6c0-2.531,2.067-4,4-4S23,2.469,23,5z"></path> <circle data-stroke="none" fill="#61616b" cx="5" cy="5" r="1" stroke-linejoin="miter" stroke="none"></circle> <circle data-stroke="none" fill="#61616b" cx="19" cy="5" r="1" stroke-linejoin="miter" stroke="none"></circle> <path data-color="color-2" fill="none" stroke="#61616b" stroke-width="2" d="M16,16 c0,2.469-4,6-4,6s-4-3.531-4-6c0-2.531,2.067-4,4-4S16,13.469,16,16z"></path> <circle data-color="color-2" data-stroke="none" fill="#61616b" cx="12" cy="16" r="1" stroke-linejoin="miter" stroke="none"></circle></svg>