<svg xmlns="http://www.w3.org/2000/svg" height="24" width="24" viewBox="0 0 24 24"><path fill="none" stroke="#61616b" stroke-width="2" d="M3,5C1.9,5,1,4.1,1,3v13 c0,1.7,1.3,3,3,3h17c1.1,0,2,0.9,2,2V8c0-1.7-1.3-3-3-3H3z"></path> <path fill="none" stroke="#61616b" stroke-width="2" d="M6,5V1H3C1.9,1,1,1.9,1,3"></path> <path fill="none" stroke="#61616b" stroke-width="2" d="M18,19v4h3c1.1,0,2-0.9,2-2 "></path> <line data-color="color-2" fill="none" stroke="#61616b" stroke-width="2" x1="15" y1="10" x2="19" y2="14"></line> <line data-color="color-2" fill="none" stroke="#61616b" stroke-width="2" x1="19" y1="10" x2="15" y2="14"></line> <line data-color="color-2" fill="none" stroke="#61616b" stroke-width="2" x1="5" y1="12" x2="6" y2="12"></line> <line data-color="color-2" fill="none" stroke="#61616b" stroke-width="2" x1="10" y1="12" x2="11" y2="12"></line></svg>