<svg xmlns="http://www.w3.org/2000/svg" height="24" width="24" viewBox="0 0 24 24"><polyline data-cap="butt" points="5.423 4.314 6.962 5.579 8.533 7.256 8.146 9.871 5.671 11.124 4.364 12.239 5 13.324 6.248 14.661 6.922 17.021 5.048 18.593 4.705 20.052" fill="none" stroke="#61616b" stroke-width="2"></polyline><polyline data-cap="butt" points="10.391 22.876 10.225 21.817 12.18 19.705 13.147 17.05 16.243 15.875 19.243 16.474 20.896 18.076" fill="none" stroke="#61616b" stroke-width="2"></polyline><path data-cap="butt" d="M22.394,11a10.488,10.488,0,1,1-7.468-8.587" fill="none" stroke="#61616b" stroke-width="2"></path><circle data-color="color-2" data-stroke="none" cx="18" cy="5" r="1" fill="#61616b" stroke="none"></circle><path data-color="color-2" d="M22,5c0,2.469-4,6-4,6s-4-3.531-4-6a4,4,0,0,1,8,0Z" fill="none" stroke="#61616b" stroke-width="2"></path></svg>