<svg xmlns="http://www.w3.org/2000/svg" height="24" width="24" viewBox="0 0 24 24"> <path fill-rule="evenodd" clip-rule="evenodd" d="M17.7226 23.8868L19.3867 22.7774L15.832 17.4453L14.1679 18.5547L17.7226 23.8868Z" fill="#61616b" data-color="color-2"></path> <path fill-rule="evenodd" clip-rule="evenodd" d="M6.27738 23.8868L4.61328 22.7774L8.16798 17.4453L9.83208 18.5547L6.27738 23.8868Z" fill="#61616b" data-color="color-2"></path> <path fill-rule="evenodd" clip-rule="evenodd" d="M13 17V22H11V17H13Z" fill="#61616b" data-color="color-2"></path> <path fill-rule="evenodd" clip-rule="evenodd" d="M13 0V4H11V0H13Z" fill="#61616b"></path> <path fill-rule="evenodd" clip-rule="evenodd" d="M0 17H24V19H0V17Z" fill="#61616b" data-color="color-2"></path> <path fill-rule="evenodd" clip-rule="evenodd" d="M2 5C2 3.34315 3.34315 2 5 2H19C20.6569 2 22 3.34315 22 5V15H2V5ZM7.5 8.5C7.5 6.01472 9.51472 4 12 4V8.5H16.5C16.5 10.9853 14.4853 13 12 13C9.51472 13 7.5 10.9853 7.5 8.5Z" fill="#61616b"></path></svg>