<svg xmlns="http://www.w3.org/2000/svg" height="24" width="24" viewBox="0 0 24 24"><path d="M23,3H1A1,1,0,0,0,0,4v9a1,1,0,0,0,1,1H23a1,1,0,0,0,1-1V4A1,1,0,0,0,23,3Zm-1,7L17,5h5Zm-3,2H12L5,5h7ZM2,7l5,5H2Z" fill="#61616b" data-color="color-2"></path><rect x="18" y="1" width="2" height="2" fill="#61616b"></rect><rect x="4" y="1" width="2" height="2" fill="#61616b"></rect><polygon points="6 15 4 15 4 21.018 1 21.018 1 23 9 23 9 21.018 6 21.018 6 15" fill="#61616b"></polygon><polygon points="20 21.018 20 15 18 15 18 21.018 15 21.018 15 23 23 23 23 21.018 20 21.018" fill="#61616b"></polygon></svg>