<svg xmlns="http://www.w3.org/2000/svg" height="24" width="24" viewBox="0 0 24 24"><path d="M15,8h5a1,1,0,0,0,.707-.293l2-2a1,1,0,0,0,0-1.414l-2-2A1,1,0,0,0,20,2H15Z" fill="#61616b" data-color="color-2"></path><path d="M15,22H13V1a1,1,0,0,0-2,0V6H4a1,1,0,0,0-.707.293l-2,2a1,1,0,0,0,0,1.414l2,2A1,1,0,0,0,4,12h7V22H9a1,1,0,0,0,0,2h6a1,1,0,0,0,0-2Z" fill="#61616b"></path><path d="M20.707,10.293A1,1,0,0,0,20,10H15v6h5a1,1,0,0,0,.707-.293l2-2a1,1,0,0,0,0-1.414Z" fill="#61616b" data-color="color-2"></path></svg>