<svg xmlns="http://www.w3.org/2000/svg" height="24" width="24" viewBox="0 0 24 24"><path d="M11,21a7.008,7.008,0,0,1-7-7,1,1,0,0,1,2,0,5.006,5.006,0,0,0,5,5,1,1,0,0,1,0,2Z" fill="#61616b" data-color="color-2"></path> <path d="M5,0A5.006,5.006,0,0,0,0,5c0,2.512,3.592,6.043,4.312,6.726a1,1,0,0,0,1.376,0C6.408,11.043,10,7.512,10,5A5.006,5.006,0,0,0,5,0ZM5,7A2,2,0,1,1,7,5,2,2,0,0,1,5,7Z" fill="#61616b"></path> <path d="M17,5a7.008,7.008,0,0,0-7,7c0,3.614,5.639,9.533,6.282,10.2a1,1,0,0,0,1.436,0C18.361,21.533,24,15.614,24,12A7.008,7.008,0,0,0,17,5Zm0,10a3,3,0,1,1,3-3A3,3,0,0,1,17,15Z" fill="#61616b"></path></svg>