<svg xmlns="http://www.w3.org/2000/svg" height="24" width="24" viewBox="0 0 24 24"><path d="M12,14.817A6.848,6.848,0,0,1,19,8a7.293,7.293,0,0,1,2.438.43l-8.8-7.2a1,1,0,0,0-1.266,0l-11,9a1,1,0,0,0,1.266,1.548L3,10.656V22a1,1,0,0,0,1,1H16.753C15.191,21.478,12,17.981,12,14.817Z" fill="#61616b"></path><path d="M19,10a4.868,4.868,0,0,0-5,4.817c0,2.716,3.869,6.486,4.31,6.907l.69.659.69-.659C20.131,21.3,24,17.533,24,14.817A4.868,4.868,0,0,0,19,10Zm0,7a2,2,0,1,1,2-2A2,2,0,0,1,19,17Z" fill="#61616b" data-color="color-2"></path></svg>