<svg xmlns="http://www.w3.org/2000/svg" height="24" width="24" viewBox="0 0 24 24"><path d="M22.879,8.8a6.964,6.964,0,0,1-1.592,1.708A9.523,9.523,0,0,1,21.5,12.5a9.425,9.425,0,0,1-.863,3.933l-.7-.677a.99.99,0,0,0-.5-.262l-3-.6a.992.992,0,0,0-.55.045l-3.1,1.175a1,1,0,0,0-.585.593l-.9,2.466L9.491,21.137a.978.978,0,0,0-.227.457,9.476,9.476,0,0,1-3.448-1.9l.13-.551,1.618-1.358a1,1,0,0,0,.319-1.041l-.674-2.36a.985.985,0,0,0-.23-.408L5.807,12.723l-.157-.267.579-.494,2.369-1.2a1,1,0,0,0,.537-.746L9.522,7.4a1,1,0,0,0-.26-.83L7.691,4.9A.877.877,0,0,0,7.6,4.807l-.513-.422A9.436,9.436,0,0,1,10.241,3.17a6.925,6.925,0,0,1,.953-2.129A11.519,11.519,0,1,0,22.879,8.8Z" fill="#61616b"></path><path data-color="color-2" d="M16,9.9V12a1,1,0,0,0,2,0V9.9A5.03,5.03,0,0,0,22,5,5,5,0,0,0,12,5,5.03,5.03,0,0,0,16,9.9Z" fill="#61616b"></path></svg>