<svg xmlns="http://www.w3.org/2000/svg" height="24" width="24" viewBox="0 0 24 24"><path d="M23.155,9.754a19.267,19.267,0,0,1-1.69,2.049c.017.231.035.462.035.7a9.425,9.425,0,0,1-.863,3.933l-.7-.677a.99.99,0,0,0-.5-.262l-3-.6a.993.993,0,0,0-.55.045l-3.1,1.175a1,1,0,0,0-.585.593l-.9,2.466L9.491,21.137a.978.978,0,0,0-.227.457,9.476,9.476,0,0,1-3.448-1.9l.13-.551,1.618-1.358a1,1,0,0,0,.319-1.041l-.674-2.36a.985.985,0,0,0-.23-.408L5.807,12.723l-.157-.267.579-.494,2.369-1.2a1,1,0,0,0,.537-.746L9.522,7.4a1,1,0,0,0-.26-.83L7.691,4.9A.877.877,0,0,0,7.6,4.807l-.515-.423a9.45,9.45,0,0,1,4.186-1.347,6.655,6.655,0,0,1,.941-2.026C12.138,1.009,12.07,1,12,1A11.558,11.558,0,1,0,23.155,9.754Z" fill="#61616b"></path><path data-color="color-2" d="M18,0a4.945,4.945,0,0,0-5,5c0,2.8,3.9,6.4,4.3,6.7a.967.967,0,0,0,1.4,0C19.1,11.4,23,7.8,23,5A4.945,4.945,0,0,0,18,0Zm0,7a2,2,0,1,1,2-2A2.006,2.006,0,0,1,18,7Z" fill="#61616b"></path></svg>