<svg xmlns="http://www.w3.org/2000/svg" height="24" width="24" viewBox="0 0 24 24"><polyline points="19 12 13 12 13 14" fill="none" stroke="#61616b" stroke-width="2"></polyline><path d="M7,13a5.145,5.145,0,0,1-3.6-1.5" fill="none" stroke="#61616b" stroke-width="2"></path><path d="M9,15.8A2.913,2.913,0,0,1,7,13a2.865,2.865,0,0,1,1-2.2" fill="none" stroke="#61616b" stroke-width="2"></path><path d="M17.586,18.586,16,17H13v1a4.951,4.951,0,0,1-5,5,4.951,4.951,0,0,1-5-5,4.529,4.529,0,0,1,.3-1.6A2.813,2.813,0,0,1,2,14a2.944,2.944,0,0,1,1.4-2.5A5,5,0,0,1,2,8,4.951,4.951,0,0,1,7,3h.2A2.913,2.913,0,0,1,10,1a2.946,2.946,0,0,1,3,3" fill="none" stroke="#61616b" stroke-width="2"></path><polyline points="17.586 5.414 16 7 13 7 13 9" fill="none" stroke="#61616b" stroke-width="2"></polyline><circle cx="19" cy="20" r="2" fill="none" stroke="#61616b" stroke-width="2" data-color="color-2"></circle><circle cx="19" cy="4" r="2" fill="none" stroke="#61616b" stroke-width="2" data-color="color-2"></circle><circle cx="21" cy="12" r="2" fill="none" stroke="#61616b" stroke-width="2" data-color="color-2"></circle></svg>