<svg xmlns="http://www.w3.org/2000/svg" height="24" width="24" viewBox="0 0 24 24"><path d="M6,13A5,5,0,0,1,6,3c.061,0,.118.016.178.018A2.993,2.993,0,0,1,12,4V5A3,3,0,0,1,9,8H8" fill="none" stroke="#61616b" stroke-width="2"></path><path d="M21.842,16.812A4.947,4.947,0,0,1,22,18a5,5,0,0,1-10,0A5,5,0,0,1,2,18a4.947,4.947,0,0,1,.158-1.188" fill="none" stroke="#61616b" stroke-width="2" data-cap="butt"></path><path d="M2.176,11.186A3.953,3.953,0,0,0,1,14a4,4,0,0,0,4,4H6" fill="none" stroke="#61616b" stroke-width="2" data-cap="butt"></path><circle cx="7" cy="8" r="1" fill="none" stroke="#61616b" stroke-width="2" data-color="color-2"></circle><circle cx="7" cy="18" r="1" fill="none" stroke="#61616b" stroke-width="2" data-color="color-2"></circle><path d="M21.824,11.186A3.953,3.953,0,0,1,23,14a4,4,0,0,1-4,4H18" fill="none" stroke="#61616b" stroke-width="2" data-cap="butt"></path><line x1="12" y1="18" x2="12" y2="14" fill="none" stroke="#61616b" stroke-width="2"></line><circle cx="17" cy="18" r="1" fill="none" stroke="#61616b" stroke-width="2" data-color="color-2"></circle><path d="M18,13A5,5,0,0,0,18,3c-.061,0-.118.016-.178.018A2.993,2.993,0,0,0,12,4V5a3,3,0,0,0,3,3h1" fill="none" stroke="#61616b" stroke-width="2"></path><circle cx="17" cy="8" r="1" fill="none" stroke="#61616b" stroke-width="2" data-color="color-2"></circle><circle cx="12" cy="13" r="1" fill="none" stroke="#61616b" stroke-width="2" data-color="color-2"></circle></svg>