<svg xmlns="http://www.w3.org/2000/svg" height="24" width="24" viewBox="0 0 24 24"><path d="M3.834,8.456A5.966,5.966,0,0,1,5,12a5.966,5.966,0,0,1-1.166,3.544" fill="none" stroke="#61616b" stroke-width="2" data-color="color-2"></path><path d="M8.3,6.141A10.944,10.944,0,0,1,10,12a10.944,10.944,0,0,1-1.7,5.859" fill="none" stroke="#61616b" stroke-width="2"></path><path d="M12.743,3.837A15.9,15.9,0,0,1,15,12a15.9,15.9,0,0,1-2.257,8.163" fill="none" stroke="#61616b" stroke-width="2" data-color="color-2"></path><path d="M17.187,1.5A21,21,0,0,1,20,12a20.878,20.878,0,0,1-2.813,10.468" fill="none" stroke="#61616b" stroke-width="2"></path></svg>