<svg xmlns="http://www.w3.org/2000/svg" height="24" width="24" viewBox="0 0 24 24"><path d="M7,14H17a0,0,0,0,1,0,0v4a5,5,0,0,1-5,5h0a5,5,0,0,1-5-5V14a0,0,0,0,1,0,0Z" fill="none" stroke="#61616b" stroke-width="2"></path> <line x1="9" y1="14" x2="9" y2="11" fill="none" stroke="#61616b" stroke-width="2"></line> <line x1="15" y1="14" x2="15" y2="11" fill="none" stroke="#61616b" stroke-width="2"></line> <path d="M2.778,18a11,11,0,1,1,18.443,0" fill="none" stroke="#61616b" stroke-width="2" data-color="color-2"></path> <path d="M7,7.1A7,7,0,0,1,16.9,7" fill="none" stroke="#61616b" stroke-width="2" data-color="color-2"></path></svg>