<svg xmlns="http://www.w3.org/2000/svg" height="24" width="24" viewBox="0 0 24 24"><polyline points="11 14 1 14 1 2 23 2 23 8" fill="none" stroke="#61616b" stroke-width="2"></polyline><line x1="4" y1="6" x2="5" y2="6" fill="none" stroke="#61616b" stroke-width="2"></line><line x1="9" y1="6" x2="10" y2="6" fill="none" stroke="#61616b" stroke-width="2"></line><line x1="14" y1="6" x2="15" y2="6" fill="none" stroke="#61616b" stroke-width="2"></line><line x1="19" y1="6" x2="20" y2="6" fill="none" stroke="#61616b" stroke-width="2"></line><line x1="4" y1="10" x2="5" y2="10" fill="none" stroke="#61616b" stroke-width="2"></line><line x1="9" y1="10" x2="13" y2="10" fill="none" stroke="#61616b" stroke-width="2"></line><path data-color="color-2" d="M19,22h0a4.012,4.012,0,0,1-4-4V15a4.012,4.012,0,0,1,4-4h0a4.012,4.012,0,0,1,4,4v3A4.012,4.012,0,0,1,19,22Z" fill="none" stroke="#61616b" stroke-width="2"></path><line data-color="color-2" x1="19" y1="15" x2="19" y2="16" fill="none" stroke="#61616b" stroke-width="2"></line></svg>