<svg xmlns="http://www.w3.org/2000/svg" height="24" width="24" viewBox="0 0 24 24"><line data-color="color-2" fill="none" stroke="#61616b" stroke-width="2" x1="17" y1="6" x2="17" y2="3"></line> <path data-color="color-2" fill="none" stroke="#61616b" stroke-width="2" d="M11,18v2 c0,1.7,1.3,3,3,3h0c1.7,0,3-1.3,3-3v-2"></path> <path data-color="color-2" fill="none" stroke="#61616b" stroke-width="2" d="M5,6V4 c0-1.7,1.3-3,3-3h0c1.7,0,3,1.3,3,3v2"></path> <rect x="1" y="6" fill="none" stroke="#61616b" stroke-width="2" width="22" height="12"></rect> <line data-color="color-2" fill="none" stroke="#61616b" stroke-width="2" x1="4" y1="10" x2="5" y2="10"></line> <line data-color="color-2" fill="none" stroke="#61616b" stroke-width="2" x1="9" y1="10" x2="10" y2="10"></line> <line data-color="color-2" fill="none" stroke="#61616b" stroke-width="2" x1="14" y1="10" x2="15" y2="10"></line> <line data-color="color-2" fill="none" stroke="#61616b" stroke-width="2" x1="19" y1="10" x2="20" y2="10"></line> <line data-color="color-2" fill="none" stroke="#61616b" stroke-width="2" x1="4" y1="14" x2="5" y2="14"></line> <line data-color="color-2" fill="none" stroke="#61616b" stroke-width="2" x1="9" y1="14" x2="15" y2="14"></line> <line data-color="color-2" fill="none" stroke="#61616b" stroke-width="2" x1="19" y1="14" x2="20" y2="14"></line></svg>