<svg xmlns="http://www.w3.org/2000/svg" height="24" width="24" viewBox="0 0 24 24"><path fill="none" stroke="#61616b" stroke-width="2" d="M3,14V4 c0-0.552,0.448-1,1-1h16c0.552,0,1,0.448,1,1v6"></path> <path fill="none" stroke="#61616b" stroke-width="2" d="M9,18H1v0 c0,1.657,1.343,3,3,3h5"></path> <circle data-color="color-2" fill="none" stroke="#61616b" stroke-width="2" cx="18" cy="18" r="3"></circle> <line data-color="color-2" fill="none" stroke="#61616b" stroke-width="2" x1="18" y1="15" x2="18" y2="13"></line> <line data-color="color-2" fill="none" stroke="#61616b" stroke-width="2" x1="20.121" y1="15.879" x2="21.536" y2="14.464"></line> <line data-color="color-2" fill="none" stroke="#61616b" stroke-width="2" x1="21" y1="18" x2="23" y2="18"></line> <line data-color="color-2" fill="none" stroke="#61616b" stroke-width="2" x1="20.121" y1="20.121" x2="21.536" y2="21.536"></line> <line data-color="color-2" fill="none" stroke="#61616b" stroke-width="2" x1="18" y1="21" x2="18" y2="23"></line> <line data-color="color-2" fill="none" stroke="#61616b" stroke-width="2" x1="15.879" y1="20.121" x2="14.464" y2="21.536"></line> <line data-color="color-2" fill="none" stroke="#61616b" stroke-width="2" x1="15" y1="18" x2="13" y2="18"></line> <line data-color="color-2" fill="none" stroke="#61616b" stroke-width="2" x1="15.879" y1="15.879" x2="14.464" y2="14.464"></line></svg>