<svg width="24" height="24" viewBox="0 0 24 24" fill="none" xmlns="http://www.w3.org/2000/svg">
    <path d="M21.5 14.5V13" stroke="#61616b" stroke-width="2" stroke-miterlimit="10" stroke-linecap="square" />
    <path d="M1.5 17V19C1.5 19.8285 2.17158 20.5 3 20.5H21C21.8285 20.5 22.5 19.8285 22.5 19V17H16V17.5C16 18.0523 15.5523 18.5 15 18.5H9C8.4477 18.5 8 18.0523 8 17.5V17H1.5Z" stroke="#61616b" stroke-width="2" stroke-miterlimit="10" stroke-linecap="square" />
    <path d="M2.5 14.5V6C2.5 4.61929 3.61929 3.5 5 3.5H12.5" stroke="#61616b" stroke-width="2" stroke-miterlimit="10" stroke-linecap="square" />
    <path d="M21.9111 6.0824L23 6.5179V7.4821L21.9111 7.9176C21.8308 8.2175 21.7128 8.50095 21.5611 8.76385L22.0226 9.8409L21.3409 10.5226L20.2638 10.0611C20.0013 10.2128 19.7175 10.3304 19.4176 10.4111L18.9821 11.5H18.0179L17.5824 10.4111C17.2825 10.3308 16.9991 10.2128 16.7362 10.0611L15.6591 10.5226L14.9774 9.8409L15.4389 8.76385C15.2872 8.5013 15.1696 8.2175 15.0889 7.9176L14 7.4821V6.5179L15.0889 6.0824C15.1696 5.7825 15.2872 5.4987 15.4389 5.23615L14.9774 4.15909L15.6591 3.4774L16.7362 3.93894C16.9991 3.78723 17.2825 3.66928 17.5824 3.58892L18.0179 2.5H18.9821L19.4176 3.58892C19.7175 3.6696 20.0013 3.78723 20.2638 3.93894L21.3409 3.4774L22.0226 4.15909L21.5611 5.23615C21.7128 5.49905 21.8308 5.7825 21.9111 6.0824Z" stroke="#61616b" stroke-width="2" stroke-miterlimit="10" stroke-linecap="square" />
    <path d="M18.5 7.75C18.9142 7.75 19.25 7.4142 19.25 7C19.25 6.5858 18.9142 6.25 18.5 6.25C18.0858 6.25 17.75 6.5858 17.75 7C17.75 7.4142 18.0858 7.75 18.5 7.75Z" fill="#61616b" />
    <path d="M18.5 7.25C18.6381 7.25 18.75 7.13805 18.75 7C18.75 6.86195 18.6381 6.75 18.5 6.75C18.3619 6.75 18.25 6.86195 18.25 7C18.25 7.13805 18.3619 7.25 18.5 7.25Z" stroke="#61616b" stroke-width="2" stroke-miterlimit="10" stroke-linecap="square" />
</svg>