<svg xmlns="http://www.w3.org/2000/svg" height="24" width="24" viewBox="0 0 24 24"><path d="M14.121,5.879a3,3,0,0,0-4.242,0" fill="none" stroke="#61616b" stroke-width="2" data-color="color-2"></path><path d="M16.95,3.05a7,7,0,0,0-9.9,0" fill="none" stroke="#61616b" stroke-width="2" data-color="color-2"></path><polygon points="10 10 10 16 15 13 10 10" fill="#61616b" data-stroke="none" stroke="none"></polygon><path d="M4,5H3A2,2,0,0,0,1,7V19a2,2,0,0,0,2,2H21a2,2,0,0,0,2-2V7a2,2,0,0,0-2-2H20" fill="none" stroke="#61616b" stroke-width="2"></path></svg>