<svg xmlns="http://www.w3.org/2000/svg" height="24" width="24" viewBox="0 0 24 24"><line x1="18" y1="3" x2="18" y2="1" fill="none" stroke="#61616b" stroke-width="2" data-color="color-2"></line><line x1="20.121" y1="3.879" x2="21.536" y2="2.464" fill="none" stroke="#61616b" stroke-width="2" data-color="color-2"></line><line x1="21" y1="6" x2="23" y2="6" fill="none" stroke="#61616b" stroke-width="2" data-color="color-2"></line><line x1="20.121" y1="8.121" x2="21.536" y2="9.536" fill="none" stroke="#61616b" stroke-width="2" data-color="color-2"></line><line x1="18" y1="9" x2="18" y2="11" fill="none" stroke="#61616b" stroke-width="2" data-color="color-2"></line><line x1="15.879" y1="8.121" x2="14.464" y2="9.536" fill="none" stroke="#61616b" stroke-width="2" data-color="color-2"></line><line x1="15" y1="6" x2="13" y2="6" fill="none" stroke="#61616b" stroke-width="2" data-color="color-2"></line><line x1="15.879" y1="3.879" x2="14.464" y2="2.464" fill="none" stroke="#61616b" stroke-width="2" data-color="color-2"></line><path d="M9.86,2.18C4.8,2.988,1,6.6,1,11c0,5,4.9,9,11,9a10.55,10.55,0,0,0,3.1-.4L21,22l-.6-5.2a9.125,9.125,0,0,0,1.991-2.948" fill="none" stroke="#61616b" stroke-width="2"></path><circle cx="18" cy="6" r="3" fill="none" stroke="#61616b" stroke-width="2" data-color="color-2"></circle></svg>