<svg xmlns="http://www.w3.org/2000/svg" height="24" width="24" viewBox="0 0 24 24"><path data-cap="butt" fill="none" stroke="#61616b" stroke-width="2" d="M16.609,4H20c1.657,0,3,1.343,3,3v13 c0,1.657-1.343,3-3,3H4c-1.657,0-3-1.343-3-3V7c0-1.657,1.343-3,3-3h3.391"></path> <polyline data-cap="butt" fill="none" stroke="#61616b" stroke-width="2" points="19,10 19,19 5,19 5,10 "></polyline> <path data-color="color-2" fill="none" stroke="#61616b" stroke-width="2" d="M17,6 c0,3.086-5,8.125-5,8.125S7,9.086,7,6c0-3.164,2.584-5,5-5S17,2.836,17,6z"></path> <circle data-color="color-2" data-stroke="none" fill="#61616b" cx="12" cy="6" r="1" stroke-linejoin="miter" stroke="none"></circle></svg>