<svg width="24" height="24" viewBox="0 0 24 24" fill="none" xmlns="http://www.w3.org/2000/svg">
    <path d="M22.5 12C22.5 6.201 17.799 1.5 12 1.5" stroke="#61616b" stroke-width="2" stroke-miterlimit="10" stroke-linecap="square" />
    <path d="M1.5 12C1.5 12.2071 1.6679 12.375 1.875 12.375C2.0821 12.375 2.25 12.2071 2.25 12C2.25 11.7929 2.0821 11.625 1.875 11.625C1.6679 11.625 1.5 11.7929 1.5 12Z" fill="#61616b" stroke="#61616b" stroke-width="2" stroke-miterlimit="10" />
    <path d="M12 22.5C12.2071 22.5 12.375 22.3321 12.375 22.125C12.375 21.9179 12.2071 21.75 12 21.75C11.7929 21.75 11.625 21.9179 11.625 22.125C11.625 22.3321 11.7929 22.5 12 22.5Z" fill="#61616b" stroke="#61616b" stroke-width="2" stroke-miterlimit="10" />
    <path d="M2.90675 17.25C3.0103 17.4293 3.23965 17.4908 3.41901 17.3872C3.59837 17.2837 3.65982 17.0543 3.55627 16.875C3.45271 16.6956 3.22337 16.6342 3.04401 16.7377C2.86465 16.8413 2.80319 17.0706 2.90675 17.25Z" fill="#61616b" stroke="#61616b" stroke-width="2" stroke-miterlimit="10" />
    <path d="M17.2501 21.0933C17.4294 20.9897 17.4909 20.7604 17.3873 20.581C17.2838 20.4016 17.0544 20.3402 16.8751 20.4438C16.6957 20.5473 16.6343 20.7766 16.7378 20.956C16.8414 21.1354 17.0707 21.1968 17.2501 21.0933Z" fill="#61616b" stroke="#61616b" stroke-width="2" stroke-miterlimit="10" />
    <path d="M7.12505 3.55625C7.3044 3.4527 7.36585 3.22335 7.2623 3.04399C7.15875 2.86463 6.9294 2.80318 6.75005 2.90673C6.5707 3.01028 6.50925 3.23963 6.6128 3.41899C6.71635 3.59835 6.9457 3.6598 7.12505 3.55625Z" fill="#61616b" stroke="#61616b" stroke-width="2" stroke-miterlimit="10" />
    <path d="M6.75005 21.0933C6.9294 21.1968 7.15875 21.1354 7.2623 20.956C7.36585 20.7766 7.3044 20.5473 7.12505 20.4438C6.9457 20.3402 6.71635 20.4016 6.6128 20.581C6.50925 20.7604 6.5707 20.9897 6.75005 21.0933Z" fill="#61616b" stroke="#61616b" stroke-width="2" stroke-miterlimit="10" />
    <path d="M21.0933 17.25C21.1968 17.0706 21.1354 16.8413 20.956 16.7377C20.7766 16.6342 20.5473 16.6956 20.4437 16.875C20.3402 17.0543 20.4016 17.2837 20.581 17.3872C20.7604 17.4908 20.9897 17.4293 21.0933 17.25Z" fill="#61616b" stroke="#61616b" stroke-width="2" stroke-miterlimit="10" />
    <path d="M3.55626 7.12501C3.65982 6.94566 3.59836 6.71631 3.41901 6.61276C3.23965 6.50921 3.0103 6.57066 2.90675 6.75001C2.80319 6.92936 2.86465 7.15871 3.04401 7.26226C3.22337 7.36581 3.45271 7.30436 3.55626 7.12501Z" fill="#61616b" stroke="#61616b" stroke-width="2" stroke-miterlimit="10" />
    <path d="M17.75 12L12.8375 13.8894C11.9197 14.2424 10.8809 13.8848 10.3749 13.0415C9.99026 12.4004 9.99026 11.5995 10.3749 10.9585C10.8809 10.1152 11.9197 9.75755 12.8375 10.1105L17.75 12Z" stroke="#61616b" stroke-width="2" stroke-miterlimit="10" stroke-linecap="square" />
</svg>