<svg xmlns="http://www.w3.org/2000/svg" height="24" width="24" viewBox="0 0 24 24"><path d="M10,23H3a2,2,0,0,1-2-2V3A2,2,0,0,1,3,1H15a2,2,0,0,1,2,2V8" fill="none" stroke="#61616b" stroke-width="2"></path><circle data-color="color-2" cx="18" cy="18" r="3" fill="none" stroke="#61616b" stroke-width="2"></circle><line data-color="color-2" x1="18" y1="15" x2="18" y2="13" fill="none" stroke="#61616b" stroke-width="2"></line><line data-color="color-2" x1="20.121" y1="15.879" x2="21.536" y2="14.464" fill="none" stroke="#61616b" stroke-width="2"></line><line data-color="color-2" x1="21" y1="18" x2="23" y2="18" fill="none" stroke="#61616b" stroke-width="2"></line><line data-color="color-2" x1="20.121" y1="20.121" x2="21.536" y2="21.536" fill="none" stroke="#61616b" stroke-width="2"></line><line data-color="color-2" x1="18" y1="21" x2="18" y2="23" fill="none" stroke="#61616b" stroke-width="2"></line><line data-color="color-2" x1="15.879" y1="20.121" x2="14.464" y2="21.536" fill="none" stroke="#61616b" stroke-width="2"></line><line data-color="color-2" x1="15" y1="18" x2="13" y2="18" fill="none" stroke="#61616b" stroke-width="2"></line><line data-color="color-2" x1="15.879" y1="15.879" x2="14.464" y2="14.464" fill="none" stroke="#61616b" stroke-width="2"></line></svg>