<svg xmlns="http://www.w3.org/2000/svg" height="24" width="24" viewBox="0 0 24 24"><path d="M10,23H3a2,2,0,0,1-2-2V3A2,2,0,0,1,3,1H15a2,2,0,0,1,2,2v7" fill="none" stroke="#61616b" stroke-width="2"></path><path data-cap="butt" data-color="color-2" d="M14.126,17a4,4,0,0,1,7.338-1" fill="none" stroke="#61616b" stroke-width="2"></path><polygon data-color="color-2" data-stroke="none" points="23.22 13.649 22.792 18 18.522 17.061 23.22 13.649" fill="#61616b" stroke="none"></polygon><path data-cap="butt" data-color="color-2" d="M21.874,20a4,4,0,0,1-7.338,1" fill="none" stroke="#61616b" stroke-width="2"></path><polygon data-color="color-2" data-stroke="none" points="12.78 23.351 13.208 19 17.478 19.939 12.78 23.351" fill="#61616b" stroke="none"></polygon></svg>