<svg xmlns="http://www.w3.org/2000/svg" height="24" width="24" viewBox="0 0 24 24"><path data-color="color-2" d="M15,17V14a4,4,0,0,1,4-4h0a4,4,0,0,1,4,4v3Z" fill="none" stroke="#61616b" stroke-width="2"></path><line data-color="color-2" x1="17" y1="20" x2="17" y2="17" fill="none" stroke="#61616b" stroke-width="2"></line><line data-color="color-2" x1="21" y1="20" x2="21" y2="17" fill="none" stroke="#61616b" stroke-width="2"></line><polyline data-color="color-2" points="19 10 19 1 6 1 6 4" fill="none" stroke="#61616b" stroke-width="2"></polyline><path d="M10,22H2a1,1,0,0,1-1-1V8A1,1,0,0,1,2,7h8a1,1,0,0,1,1,1V21A1,1,0,0,1,10,22Z" fill="none" stroke="#61616b" stroke-width="2"></path></svg>