<svg xmlns="http://www.w3.org/2000/svg" height="24" width="24" viewBox="0 0 24 24"><path data-color="color-2" d="M23,7v3a4,4,0,0,1-4,4h0a4,4,0,0,1-4-4V7Z" fill="none" stroke="#61616b" stroke-width="2"></path><line data-color="color-2" x1="17" y1="7" x2="17" y2="4" fill="none" stroke="#61616b" stroke-width="2"></line><line data-color="color-2" x1="21" y1="7" x2="21" y2="4" fill="none" stroke="#61616b" stroke-width="2"></line><polyline data-color="color-2" points="6 20 6 23 19 23 19 14" fill="none" stroke="#61616b" stroke-width="2"></polyline><path d="M10,17H2a1,1,0,0,1-1-1V3A1,1,0,0,1,2,2h8a1,1,0,0,1,1,1V16A1,1,0,0,1,10,17Z" fill="none" stroke="#61616b" stroke-width="2"></path></svg>