<svg xmlns="http://www.w3.org/2000/svg" height="24" width="24" viewBox="0 0 24 24"><path d="M8,13l3,3,9.379-9.379a2.122,2.122,0,0,0,0-3h0a2.122,2.122,0,0,0-3,0Z" fill="none" stroke="#61616b" stroke-width="2" data-cap="butt"></path><polyline points="10 11 10 6 6 2 3 5 7 9" fill="none" stroke="#61616b" stroke-width="2" data-cap="butt"></polyline><polyline points="15 12 15 17 19 21 22 18 18 14" fill="none" stroke="#61616b" stroke-width="2" data-cap="butt"></polyline><path d="M8,23a7,7,0,0,1-7-7" fill="none" stroke="#61616b" stroke-width="2" data-color="color-2"></path><path d="M8,19a3,3,0,0,1-3-3" fill="none" stroke="#61616b" stroke-width="2" data-color="color-2"></path></svg>