<svg xmlns="http://www.w3.org/2000/svg" height="24" width="24" viewBox="0 0 24 24"><path fill="none" stroke="#61616b" stroke-width="2" d="M21.45,15.278l-6.172,6.172 c-0.781,0.781-2.047,0.781-2.828,0L2.55,11.55c-0.781-0.781-0.781-2.047,0-2.828L8.722,2.55c0.781-0.781,2.047-0.781,2.828,0 l9.899,9.899C22.231,13.231,22.231,14.497,21.45,15.278z"></path> <ellipse data-stroke="none" transform="matrix(0.7071 -0.7071 0.7071 0.7071 -6.435 15.5355)" fill="#61616b" cx="15.536" cy="15.536" rx="1" ry="1" stroke-linejoin="miter" stroke="none"></ellipse> <path data-color="color-2" fill="none" stroke="#61616b" stroke-width="2" d="M17,1 c3.314,0,6,2.686,6,6"></path> <path data-color="color-2" fill="none" stroke="#61616b" stroke-width="2" d="M7,23 c-3.314,0-6-2.686-6-6"></path></svg>