<svg xmlns="http://www.w3.org/2000/svg" height="24" width="24" viewBox="0 0 24 24"><path data-color="color-2" d="M14,1h0a4.951,4.951,0,0,1,5,5h0" fill="none" stroke="#61616b" stroke-width="2"></path><path data-color="color-2" d="M5,18H5a4.951,4.951,0,0,0,5,5h0" fill="none" stroke="#61616b" stroke-width="2"></path><path d="M9,14H2a1,1,0,0,1-1-1V2A1,1,0,0,1,2,1H9a1,1,0,0,1,1,1V13A1,1,0,0,1,9,14Z" fill="none" stroke="#61616b" stroke-width="2"></path><line x1="1" y1="10" x2="10" y2="10" fill="none" stroke="#61616b" stroke-width="2"></line><path d="M22,23H15a1,1,0,0,1-1-1V11a1,1,0,0,1,1-1h7a1,1,0,0,1,1,1V22A1,1,0,0,1,22,23Z" fill="none" stroke="#61616b" stroke-width="2"></path><line x1="14" y1="19" x2="23" y2="19" fill="none" stroke="#61616b" stroke-width="2"></line></svg>