<svg width="24" height="24" viewBox="0 0 24 24" fill="none" xmlns="http://www.w3.org/2000/svg">
    <path d="M9 1.5L12 4.5H13" stroke="#61616b" stroke-width="2" stroke-miterlimit="10" stroke-linecap="square" />
    <path d="M15 1.5L12 4.5H11" stroke="#61616b" stroke-width="2" stroke-miterlimit="10" stroke-linecap="square" />
    <path d="M22.5 7V19C22.5 20.3807 21.3807 21.5 20 21.5H4C2.61928 21.5 1.5 20.3807 1.5 19V7C1.5 5.6193 2.61929 4.5 4 4.5H20C21.3807 4.5 22.5 5.6193 22.5 7Z" stroke="#61616b" stroke-width="2" stroke-miterlimit="10" stroke-linecap="square" />
    <path d="M16 18.5V7.5H4.5V18.5H16Z" stroke="#61616b" stroke-width="2" stroke-miterlimit="10" stroke-linecap="square" />
    <path d="M19 9C19.2761 9 19.5 8.77615 19.5 8.5C19.5 8.22385 19.2761 8 19 8C18.7239 8 18.5 8.22385 18.5 8.5C18.5 8.77615 18.7239 9 19 9Z" fill="#61616b" stroke="#61616b" stroke-width="2" stroke-miterlimit="10" />
    <path d="M19 12.5C19.2761 12.5 19.5 12.2761 19.5 12C19.5 11.7239 19.2761 11.5 19 11.5C18.7239 11.5 18.5 11.7239 18.5 12C18.5 12.2761 18.7239 12.5 19 12.5Z" fill="#61616b" stroke="#61616b" stroke-width="2" stroke-miterlimit="10" />
    <path d="M19 16C19.2761 16 19.5 15.7761 19.5 15.5C19.5 15.2239 19.2761 15 19 15C18.7239 15 18.5 15.2239 18.5 15.5C18.5 15.7761 18.7239 16 19 16Z" fill="#61616b" stroke="#61616b" stroke-width="2" stroke-miterlimit="10" />
</svg>