<svg width="24" height="24" viewBox="0 0 24 24" fill="none" xmlns="http://www.w3.org/2000/svg">
    <path d="M6 16.5C7.24265 16.5 8.25 15.4927 8.25 14.25C8.25 13.0073 7.24265 12 6 12C4.75736 12 3.75 13.0073 3.75 14.25C3.75 15.4927 4.75736 16.5 6 16.5Z" stroke="#61616b" stroke-width="2" stroke-miterlimit="10" />
    <path d="M18 16.5C19.2427 16.5 20.25 15.4927 20.25 14.25C20.25 13.0073 19.2427 12 18 12C16.7573 12 15.75 13.0073 15.75 14.25C15.75 15.4927 16.7573 16.5 18 16.5Z" stroke="#61616b" stroke-width="2" stroke-miterlimit="10" />
    <path d="M18.25 2H10.25C9.8358 2 9.5 2.33578 9.5 2.75V8.4V10L11.875 8.4H18.25C18.6642 8.4 19 8.0642 19 7.65V2.75C19 2.33578 18.6642 2 18.25 2Z" stroke="#61616b" stroke-width="2" stroke-miterlimit="10" stroke-linecap="square" />
    <path d="M6.00003 18.5C3.77029 18.5 1.91932 20.1217 1.56226 22.25L2.70265 22.507C4.87369 22.9962 7.12638 22.9962 9.29743 22.507L10.4378 22.25C10.0808 20.1217 8.22978 18.5 6.00003 18.5Z" stroke="#61616b" stroke-width="2" stroke-miterlimit="10" />
    <path d="M17.9378 18.5C15.708 18.5 13.8571 20.1217 13.5 22.25L14.6404 22.507C16.8115 22.9962 19.0641 22.9962 21.2351 22.507L22.3755 22.25C22.0185 20.1217 20.1675 18.5 17.9378 18.5Z" stroke="#61616b" stroke-width="2" stroke-miterlimit="10" />
</svg>