<svg xmlns="http://www.w3.org/2000/svg" height="24" width="24" viewBox="0 0 24 24"><path d="M1,5C1,3.343,5.925,2,12,2S23,3.343,23,5" fill="none" stroke="#61616b" stroke-width="2" data-cap="butt"></path><path d="M17,16.33A36.625,36.625,0,0,0,12,16a36.625,36.625,0,0,0-5,.33" fill="none" stroke="#61616b" stroke-width="2" data-cap="butt"></path><path d="M1,5C1,3.343,5.925,2,12,2S23,3.343,23,5" fill="none" stroke="#61616b" stroke-width="2"></path><path d="M1,19c0,1.165,2.441,2.173,6,2.67v-14c-3.559-.5-6-1.5-6-2.67Z" fill="none" stroke="#61616b" stroke-width="2"></path><path d="M23,19c0,1.165-2.441,2.173-6,2.67v-14c3.559-.5,6-1.5,6-2.67Z" fill="none" stroke="#61616b" stroke-width="2"></path></svg>