<svg xmlns="http://www.w3.org/2000/svg" height="24" width="24" viewBox="0 0 24 24"><path d="M4.206,17c1.549,3.291,4.45,6,7.794,6s6.245-2.709,7.794-6" fill="none" stroke="#61616b" stroke-width="2" data-cap="butt"></path><path d="M20.472,7A8.981,8.981,0,0,0,3.528,7" fill="none" stroke="#61616b" stroke-width="2" data-cap="butt"></path><path d="M3,17h7l1.106-2.211a1,1,0,0,1,1.788,0L14,17h7a2,2,0,0,0,2-2V9a2,2,0,0,0-2-2H3A2,2,0,0,0,1,9v6A2,2,0,0,0,3,17Z" fill="none" stroke="#61616b" stroke-width="2" data-color="color-2"></path><line x1="5" y1="11" x2="19" y2="11" fill="none" stroke="#61616b" stroke-width="2" data-color="color-2"></line></svg>