<svg xmlns="http://www.w3.org/2000/svg" height="24" width="24" viewBox="0 0 24 24"><path fill="none" stroke="#61616b" stroke-width="2" d="M12,17 c-1.105,0-2-0.895-2-2s0.895-2,2-2c0.364,0,0.706,0.097,1,0.267"></path> <path fill="none" stroke="#61616b" stroke-width="2" d="M17.657,9.343 C16.209,7.895,14.209,7,12,7C9.791,7,7.791,7.895,6.343,9.343"></path> <path fill="none" stroke="#61616b" stroke-width="2" d="M21.899,5.101 C19.366,2.567,15.866,1,12,1C8.134,1,4.634,2.567,2.101,5.101"></path> <rect data-color="color-2" x="15" y="18" fill="none" stroke="#61616b" stroke-width="2" width="8" height="5"></rect> <path data-color="color-2" fill="none" stroke="#61616b" stroke-width="2" d="M17,18v-3 c0-1.1,0.9-2,2-2l0,0c1.1,0,2,0.9,2,2v3"></path></svg>