<svg xmlns="http://www.w3.org/2000/svg" height="24" width="24" viewBox="0 0 24 24"><line x1="20" y1="2" x2="12.329" y2="11.506" fill="none" stroke="#61616b" stroke-width="2"></line><path d="M11,11a2,2,0,0,1,2,2,3.659,3.659,0,0,1-.2.891A9.958,9.958,0,0,0,13.258,23H1C1,16.373,4.373,11,11,11Z" fill="none" stroke="#61616b" stroke-width="2"></path><line x1="18" y1="15" x2="23" y2="15" fill="none" stroke="#61616b" stroke-width="2" data-color="color-2"></line><line x1="17" y1="19" x2="23" y2="19" fill="none" stroke="#61616b" stroke-width="2" data-color="color-2"></line><line x1="19" y1="23" x2="23" y2="23" fill="none" stroke="#61616b" stroke-width="2" data-color="color-2"></line><path d="M8.059,11.415A3.9,3.9,0,0,0,12,16c.041,0,.079-.011.12-.012" fill="none" stroke="#61616b" stroke-width="2" data-cap="butt"></path><path d="M5,23a13.279,13.279,0,0,1,.208-3.4" fill="none" stroke="#61616b" stroke-width="2" data-cap="butt"></path><path d="M9.042,23c-.688-1.083-.313-3.4-.313-3.4" fill="none" stroke="#61616b" stroke-width="2" data-cap="butt"></path></svg>