<svg xmlns="http://www.w3.org/2000/svg" height="24" width="24" viewBox="0 0 24 24"><rect x="3" y="1" width="18" height="22" fill="none" stroke="#61616b" stroke-width="2"></rect><circle cx="9" cy="11" r="2" fill="#61616b" data-color="color-2" data-stroke="none" stroke="none"></circle><circle cx="15" cy="8" r="2" fill="#61616b" data-color="color-2" data-stroke="none" stroke="none"></circle><path d="M14.188,15h3.641c.667,0,1.176-.65,.963-1.283-.531-1.577-2.021-2.714-3.778-2.717-1.294-.002-2.508,.622-3.259,1.676,1.015,.528,1.859,1.334,2.433,2.324Z" fill="#61616b" data-color="color-2" data-stroke="none" stroke="none"></path><path d="M9,14h0c1.76,0,3.254,1.136,3.789,2.715,.214,.633-.294,1.285-.962,1.285H6.173c-.668,0-1.177-.652-.962-1.285,.535-1.579,2.029-2.715,3.789-2.715Z" fill="#61616b" data-color="color-2" data-stroke="none" stroke="none"></path></svg>