<svg xmlns="http://www.w3.org/2000/svg" height="24" width="24" viewBox="0 0 24 24"><path data-color="color-2" d="M15,18v2a2.946,2.946,0,0,1-3,3h0a2.946,2.946,0,0,1-3-3V18" fill="none" stroke="#61616b" stroke-width="2"></path><path data-color="color-2" d="M9,14V12a2.946,2.946,0,0,1,3-3h0a2.946,2.946,0,0,1,3,3v2" fill="none" stroke="#61616b" stroke-width="2"></path><line data-color="color-2" x1="12" y1="14" x2="12" y2="18" fill="none" stroke="#61616b" stroke-width="2"></line><path d="M5,22H3a2,2,0,0,1-2-2V2H9l3,4H23V20a2,2,0,0,1-2,2H19" fill="none" stroke="#61616b" stroke-width="2"></path></svg>