<svg xmlns="http://www.w3.org/2000/svg" height="24" width="24" viewBox="0 0 24 24"><path d="M6,22H3a2,2,0,0,1-2-2V2H9l3,4H23V20a2,2,0,0,1-2,2H18" fill="none" stroke="#61616b" stroke-width="2"></path><circle data-color="color-2" cx="12" cy="16" r="3" fill="none" stroke="#61616b" stroke-width="2"></circle><line data-color="color-2" x1="12" y1="13" x2="12" y2="11" fill="none" stroke="#61616b" stroke-width="2"></line><line data-color="color-2" x1="14.121" y1="13.879" x2="15.536" y2="12.464" fill="none" stroke="#61616b" stroke-width="2"></line><line data-color="color-2" x1="15" y1="16" x2="17" y2="16" fill="none" stroke="#61616b" stroke-width="2"></line><line data-color="color-2" x1="14.121" y1="18.121" x2="15.536" y2="19.536" fill="none" stroke="#61616b" stroke-width="2"></line><line data-color="color-2" x1="12" y1="19" x2="12" y2="21" fill="none" stroke="#61616b" stroke-width="2"></line><line data-color="color-2" x1="9.879" y1="18.121" x2="8.464" y2="19.536" fill="none" stroke="#61616b" stroke-width="2"></line><line data-color="color-2" x1="9" y1="16" x2="7" y2="16" fill="none" stroke="#61616b" stroke-width="2"></line><line data-color="color-2" x1="9.879" y1="13.879" x2="8.464" y2="12.464" fill="none" stroke="#61616b" stroke-width="2"></line></svg>