<svg width="44" height="40" viewBox="0 0 44 40" fill="none" xmlns="http://www.w3.org/2000/svg">
    <path
        d="M39 17H5V1C5 0.734784 5.10536 0.48043 5.29289 0.292893C5.48043 0.105357 5.73478 0 6 0H38C38.2652 0 38.5196 0.105357 38.7071 0.292893C38.8946 0.48043 39 0.734784 39 1V17Z"
        fill="#AEAEAE" />
    <path
        d="M41 4H3C2.20435 4 1.44129 4.31607 0.87868 4.87868C0.316071 5.44129 0 6.20435 0 7V37C0 37.7957 0.316071 38.5587 0.87868 39.1213C1.44129 39.6839 2.20435 40 3 40H41C41.7957 40 42.5587 39.6839 43.1213 39.1213C43.6839 38.5587 44 37.7957 44 37V7C44 6.20435 43.6839 5.44129 43.1213 4.87868C42.5587 4.31607 41.7957 4 41 4Z"
        fill="#E3E3E3" />
    <path d="M41 37H3V7H41V37Z" fill="white" />
    <path
        d="M19 18C20.6569 18 22 16.6569 22 15C22 13.3431 20.6569 12 19 12C17.3431 12 16 13.3431 16 15C16 16.6569 17.3431 18 19 18Z"
        fill="#FFD764" />
    <path
        d="M24.4228 32L15.7078 23.293C15.6108 23.1947 15.4944 23.1178 15.3659 23.0673C15.2374 23.0169 15.0997 22.9939 14.9618 23C14.8243 23.0053 14.6894 23.039 14.5655 23.0989C14.4416 23.1587 14.3314 23.2436 14.2418 23.348L8.24178 30.348C8.11696 30.4931 8.03642 30.6711 8.00975 30.8607C7.98308 31.0502 8.01139 31.2435 8.09132 31.4175C8.17125 31.5914 8.29943 31.7388 8.46065 31.8421C8.62186 31.9453 8.80933 32.0001 9.00078 32H24.4228Z"
        fill="#38A838" />
    <path
        d="M35.8096 30.412L27.8096 19.412C27.7325 19.3051 27.6351 19.2146 27.5229 19.1455C27.4107 19.0765 27.286 19.0302 27.1559 19.0095C27.0258 18.9888 26.8929 18.994 26.7648 19.0248C26.6368 19.0556 26.516 19.1114 26.4096 19.189C26.334 19.2461 26.2667 19.3134 26.2096 19.389L16.3926 32H35.0006C35.185 32 35.3659 31.949 35.5232 31.8526C35.6805 31.7563 35.808 31.6183 35.8918 31.4539C35.9755 31.2895 36.0121 31.1052 35.9976 30.9213C35.9831 30.7375 35.918 30.5612 35.8096 30.412Z"
        fill="#78D478" />
</svg>