<svg xmlns="http://www.w3.org/2000/svg" height="48" width="48" style="" viewBox="0 0 48 48"><path d="M17 14H13C12.4477 14 12 14.4477 12 15V43C12 43.5523 12.4477 44 13 44H17C17.5523 44 18 43.5523 18 43V15C18 14.4477 17.5523 14 17 14Z" fill="url(#nc-ui-1-0_linear_43_290)"></path> <path d="M26 24H22C21.4477 24 21 24.4477 21 25V43C21 43.5523 21.4477 44 22 44H26C26.5523 44 27 43.5523 27 43V25C27 24.4477 26.5523 24 26 24Z" fill="url(#nc-ui-1-1_linear_43_290)"></path> <path d="M35 14H31C30.4477 14 30 14.4477 30 15V43C30 43.5523 30.4477 44 31 44H35C35.5523 44 36 43.5523 36 43V15C36 14.4477 35.5523 14 35 14Z" fill="url(#nc-ui-1-2_linear_43_290)"></path> <path d="M44 24H40C39.4477 24 39 24.4477 39 25V43C39 43.5523 39.4477 44 40 44H44C44.5523 44 45 43.5523 45 43V25C45 24.4477 44.5523 24 44 24Z" fill="url(#nc-ui-1-3_linear_43_290)"></path> <path d="M8 4H4C3.44772 4 3 4.44772 3 5V43C3 43.5523 3.44772 44 4 44H8C8.55228 44 9 43.5523 9 43V5C9 4.44772 8.55228 4 8 4Z" fill="url(#nc-ui-1-4_linear_43_290)"></path> <defs> <linearGradient id="nc-ui-1-0_linear_43_290" x1="15" y1="14" x2="15" y2="44" gradientUnits="userSpaceOnUse"> <stop stop-color="#344EEA"></stop> <stop offset="1" stop-color="#2138BB"></stop> </linearGradient> <linearGradient id="nc-ui-1-1_linear_43_290" x1="24" y1="24" x2="24" y2="44" gradientUnits="userSpaceOnUse"> <stop stop-color="#9ED9FA"></stop> <stop offset="1" stop-color="#60BEF6"></stop> </linearGradient> <linearGradient id="nc-ui-1-2_linear_43_290" x1="33" y1="14" x2="33" y2="44" gradientUnits="userSpaceOnUse"> <stop stop-color="#344EEA"></stop> <stop offset="1" stop-color="#2138BB"></stop> </linearGradient> <linearGradient id="nc-ui-1-3_linear_43_290" x1="42" y1="24" x2="42" y2="44" gradientUnits="userSpaceOnUse"> <stop stop-color="#9ED9FA"></stop> <stop offset="1" stop-color="#60BEF6"></stop> </linearGradient> <linearGradient id="nc-ui-1-4_linear_43_290" x1="6" y1="4" x2="6" y2="44" gradientUnits="userSpaceOnUse"> <stop stop-color="#9ED9FA"></stop> <stop offset="1" stop-color="#60BEF6"></stop> </linearGradient> </defs></svg>