<svg xmlns="http://www.w3.org/2000/svg" height="48" width="48" viewBox="0 0 48 48"><circle cx="19" cy="8" r="5" fill="#5a7a84"></circle> <path d="M25,28.836V19H38a2,2,0,0,0,0-4H9a2,2,0,0,0,0,4h4v9.743l-3.58,5.37a2.5,2.5,0,0,0-.346,1.993l2,8a2.5,2.5,0,0,0,4.852-1.212l-1.733-6.927L17.505,31h2.973l7.851,13.74a2.5,2.5,0,1,0,4.342-2.48Z" fill="#5a7a84"></path> <path d="M37.675,1.261a1,1,0,1,0-1.348,1.478C39.88,5.975,42,11.306,42,17s-2.12,11.025-5.673,14.261a1,1,0,0,0,1.348,1.478C41.636,29.132,44,23.248,44,17S41.636,4.868,37.675,1.261Z" fill="#ea9860"></path></svg>