<svg xmlns="http://www.w3.org/2000/svg" height="48" width="48" viewBox="0 0 48 48"><path d="M37,13.121,34.879,11l8.414-8.414a1,1,0,0,1,1.414,0l.707.707a1,1,0,0,1,0,1.414Z" fill="#b3b3b3"></path> <rect x="4.615" y="23" width="38.769" height="2" transform="translate(-9.941 24) rotate(-45)" fill="#b3b3b3"></rect> <path d="M3.293,45.414l-.707-.707a1,1,0,0,1,0-1.414L11,34.879,13.121,37,4.707,45.414A1,1,0,0,1,3.293,45.414Z" fill="#b3b3b3"></path> <path d="M44,20a1.992,1.992,0,0,1-1.414-.586l-14-14a2,2,0,0,1,2.828-2.828l14,14A2,2,0,0,1,44,20Z" fill="#444"></path> <path d="M18,46a1.992,1.992,0,0,1-1.414-.586l-14-14a2,2,0,0,1,2.828-2.828l14,14A2,2,0,0,1,18,46Z" fill="#444"></path></svg>