<svg xmlns="http://www.w3.org/2000/svg" height="48" width="48" viewBox="0 0 48 48"><path d="M19,3a2,2,0,0,0-3.8-.849l-8,14.264A1.752,1.752,0,0,0,7,17a1,1,0,0,0,1,1c.372,0,.866-.508.866-.508L18.519,4.287A1.979,1.979,0,0,0,19,3Z" fill="#a67c52"></path> <circle cx="26" cy="8" r="5" fill="#5a7a84"></circle> <path d="M34.644,34.214,32,29.808V17a2,2,0,0,0-2-2H21a2,2,0,0,0-.992.264L14.081,18.65,9.109,15.336a2,2,0,0,0-2.218,3.328l6,4a2,2,0,0,0,2.1.072L20,19.875v9.933l-2.644,4.406A2.5,2.5,0,0,0,17,35.5v9a2.5,2.5,0,0,0,5,0V36.192L24.515,32h2.97L30,36.192V44.5a2.5,2.5,0,0,0,5,0v-9A2.5,2.5,0,0,0,34.644,34.214Z" fill="#5a7a84"></path></svg>