<svg xmlns="http://www.w3.org/2000/svg" height="48" width="48" viewBox="0 0 48 48"><path d="M46,1H2A1,1,0,0,0,1,2V32a1,1,0,0,0,1,1h8V30H38v3h8a1,1,0,0,0,1-1V2A1,1,0,0,0,46,1Z" fill="#444"></path> <rect x="3" y="3" width="42" height="28" fill="#e6e6e6"></rect> <path d="M35,27H13a1,1,0,0,1-1-1V12a1,1,0,0,1,1-1H35a1,1,0,0,1,1,1V26A1,1,0,0,1,35,27ZM14,25H34V13H14Z" fill="#444"></path> <path d="M32.5,27l-3.4,3.242L25.5,27h-2.99l-3.6,3.242L15.5,27H12.049L13,46.05a1,1,0,0,0,1.688.674l4.416-4.2,4.188,4.188a1,1,0,0,0,1.414,0L28.9,42.519l4.416,4.2A1,1,0,0,0,35,46.05L35.951,27ZM24,28.345l3.644,3.28L24,35.1l-3.644-3.47Zm-9.876.106,3.289,3.132-3,2.7Zm.766,15.32L14.6,38.016,17.69,41.1Zm.563-7.733,3.412-3.071,3.685,3.509-3.411,3.249ZM24,44.586l-3.446-3.447L24,37.857l3.446,3.282Zm4.861-4.861L25.45,36.476l3.685-3.509,3.412,3.071Zm4.249,4.046L30.31,41.1,33.4,38.016Zm.475-9.49-3-2.7,3.289-3.132Z" fill="#b3b3b3"></path> <path d="M38,28H10a1,1,0,0,1-1-1V26a1,1,0,0,1,1-1H38a1,1,0,0,1,1,1v1A1,1,0,0,1,38,28Z" fill="#ea9860"></path></svg>