<svg xmlns="http://www.w3.org/2000/svg" height="48" width="48" viewBox="0 0 48 48"><path d="M35.917,19a1,1,0,0,1,0-2C39.665,17,41,12.867,41,9V3H36a1,1,0,0,1,0-2h6a1,1,0,0,1,1,1V9C43,15.075,40.22,19,35.917,19Z" fill="#d1d1d1"></path> <path d="M15.6,31a4,4,0,0,0-3.96,3.434L10.01,45.858A1,1,0,0,0,11,47H37a1,1,0,0,0,.99-1.142L36.357,34.434A4,4,0,0,0,32.4,31Z" fill="#b3b3b3"></path> <path d="M32.4,31H15.6S11,26,11,17V8.3L7.168,2.555A1,1,0,0,1,8,1H37V17C37,26,32.4,31,32.4,31Z" fill="#e6e6e6"></path> <circle cx="24" cy="39" r="3" fill="#e6e6e6"></circle> <path d="M13,12v5a20.8,20.8,0,0,0,3.574,12h14.86A20.578,20.578,0,0,0,35,17V12Z" fill="#72c472"></path> <rect x="21" y="8" width="6" height="2" rx="1" ry="1" fill="#d1d1d1"></rect> <rect x="21" y="14" width="6" height="2" rx="1" ry="1" fill="#9edb9e"></rect> <rect x="21" y="20" width="6" height="2" rx="1" ry="1" fill="#9edb9e"></rect></svg>