<svg xmlns="http://www.w3.org/2000/svg" height="48" width="48" viewBox="0 0 48 48"><path d="M43,46H5a1,1,0,0,1-.956-.708C3.919,44.884,1,35.236,1,29,1,21,1.1,13.641,2.235,11.418c2.4-4.666,6.064-5.467,8.742-6.051l.6-.134A8.829,8.829,0,0,0,17.152,1.47,1,1,0,0,1,18,1H30a1,1,0,0,1,.848.47,8.829,8.829,0,0,0,5.573,3.763l.6.134c2.678.584,6.345,1.385,8.742,6.051C46.905,13.641,47,21,47,29c0,6.236-2.919,15.884-3.044,16.292A1,1,0,0,1,43,46Zm0-1h0Z" fill="#eebc99"></path> <path d="M24,36a1,1,0,0,1-1-1V23a1,1,0,0,1,2,0V35A1,1,0,0,1,24,36Z" fill="#dd9b6f"></path> <path d="M16,25a1,1,0,0,1-.707-1.707C18.958,19.628,19,14.056,19,14a1,1,0,0,1,2,0c0,.262-.049,6.463-4.293,10.707A1,1,0,0,1,16,25Z" fill="#dd9b6f"></path> <path d="M32,25a1,1,0,0,1-.707-.293C27.049,20.463,27,14.262,27,14a1,1,0,0,1,1-1h0a1,1,0,0,1,1,1c0,.057.06,5.648,3.707,9.3A1,1,0,0,1,32,25Z" fill="#dd9b6f"></path> <path d="M15,35a1,1,0,0,1-.84-.456,18.885,18.885,0,0,0-3-3.269C8.741,29.009,6,26.438,6,22a1,1,0,0,1,2,0c0,3.572,2.2,5.634,4.527,7.816a20.621,20.621,0,0,1,3.312,3.64A1,1,0,0,1,15,35Z" fill="#dd9b6f"></path> <path d="M33,35a1,1,0,0,1-.838-1.544,20.621,20.621,0,0,1,3.312-3.64C37.8,27.634,40,25.572,40,22a1,1,0,0,1,2,0c0,4.438-2.741,7.009-5.159,9.275a18.885,18.885,0,0,0-3,3.269A1,1,0,0,1,33,35Z" fill="#dd9b6f"></path> <path d="M12,37.038a50.405,50.405,0,0,1-.976-7.4L9.334,28H9v1a47.247,47.247,0,0,0,1.037,8.4A43.345,43.345,0,0,1,11,45v1h2V45A45.376,45.376,0,0,0,12,37.038Z" fill="#dd9b6f"></path> <path d="M36,37.038a50.405,50.405,0,0,0,.976-7.4L38.666,28H39v1a47.247,47.247,0,0,1-1.037,8.4A43.345,43.345,0,0,0,37,45v1H35V45A45.376,45.376,0,0,1,36,37.038Z" fill="#dd9b6f"></path></svg>