<svg xmlns="http://www.w3.org/2000/svg" height="48" width="48" viewBox="0 0 48 48"><path d="M37.291,12.128a2.5,2.5,0,0,0-3.163,1.581L28.7,30H19.3l-5.43-16.291a2.5,2.5,0,1,0-4.744,1.582L15,32.907V46a1,1,0,0,0,1,1H32a1,1,0,0,0,1-1V32.907l5.872-17.616A2.5,2.5,0,0,0,37.291,12.128Z" fill="#5a7a84"></path> <circle cx="24" cy="23" r="5" fill="#5a7a84"></circle> <path d="M46,10H2A1,1,0,0,1,2,8H46a1,1,0,0,1,0,2Z" fill="#b3b3b3"></path> <path d="M4.5,17A1.5,1.5,0,0,1,3,15.5V2.5a1.5,1.5,0,0,1,3,0v13A1.5,1.5,0,0,1,4.5,17Z" fill="#444"></path> <path d="M43.5,17A1.5,1.5,0,0,1,42,15.5V2.5a1.5,1.5,0,0,1,3,0v13A1.5,1.5,0,0,1,43.5,17Z" fill="#444"></path></svg>