<svg xmlns="http://www.w3.org/2000/svg" height="48" width="48" viewBox="0 0 48 48"><path d="M39.693,10H8.307A1,1,0,0,1,7.4,8.575,13.029,13.029,0,0,0,9,3a1,1,0,0,1,1-1H38a1,1,0,0,1,1,1,13.029,13.029,0,0,0,1.6,5.575A1,1,0,0,1,39.693,10Z" fill="#eebc99"></path> <path d="M41.14,9.708c-.186-.386-.367-.762-.54-1.132A1,1,0,0,0,39.694,8H8.306a1,1,0,0,0-.906.576c-.173.37-.354.746-.54,1.132A32.092,32.092,0,0,0,3,25c0,5.63,1.188,14.2,1.825,18.8l.184,1.335A1,1,0,0,0,6,46H21a1,1,0,0,0,1-1V35a6.912,6.912,0,0,0-1.959-4.969A9.048,9.048,0,0,0,24,26.105a9.048,9.048,0,0,0,3.959,3.926A6.912,6.912,0,0,0,26,35V45a1,1,0,0,0,1,1H42a1,1,0,0,0,.991-.865l.184-1.335C43.812,39.2,45,30.63,45,25A32.092,32.092,0,0,0,41.14,9.708Z" fill="#5a7a84"></path> <path d="M35,29H32a7.009,7.009,0,0,1-7-7,1,1,0,0,0-2,0,7.009,7.009,0,0,1-7,7H13a1,1,0,0,0,0,2h3a9,9,0,0,0,8-4.895A9,9,0,0,0,32,31h3a1,1,0,0,0,0-2Z" fill="#335262"></path> <path d="M7.4,8.576c-.173.37-.354.746-.54,1.132-.2.417-.406.848-.614,1.292H41.754c-.208-.444-.414-.875-.614-1.292-.186-.386-.367-.762-.54-1.132A1,1,0,0,0,39.694,8H8.306A1,1,0,0,0,7.4,8.576Z" fill="#223e49"></path></svg>