<svg xmlns="http://www.w3.org/2000/svg" height="48" width="48" viewBox="0 0 48 48"><path d="M33,1H15a1,1,0,0,0,0,2h6.523l-3.452,8.629a1,1,0,0,0,.558,1.3A.986.986,0,0,0,19,13a1,1,0,0,0,.929-.629L23.677,3h.646l3.748,9.371A1,1,0,0,0,29,13a.986.986,0,0,0,.371-.071,1,1,0,0,0,.558-1.3L26.477,3H33a1,1,0,0,0,0-2Z" fill="#b3b3b3"></path> <path d="M31,11H17a3,3,0,0,0-3,3V40a7.009,7.009,0,0,0,7,7h6a7.009,7.009,0,0,0,7-7V14A3,3,0,0,0,31,11Z" fill="#ed7064"></path> <rect x="14" y="19" width="20" height="2" fill="#ffd764"></rect> <rect x="14" y="37" width="20" height="2" fill="#ffd764"></rect></svg>