<svg xmlns="http://www.w3.org/2000/svg" height="48" width="48" viewBox="0 0 48 48"><circle cx="23" cy="7" r="5" fill="#5a7a84"></circle> <path d="M38,14H22a4.719,4.719,0,0,0-4.928,3.7l-2,11a4.488,4.488,0,0,0,2.2,4.7,2.441,2.441,0,0,0,.266.161L25,37.08V43.5a2.5,2.5,0,0,0,5,0v-8a2.5,2.5,0,0,0-1.428-2.258l-4.823-2.29a4.475,4.475,0,0,0,.179-.647l2-11a4.472,4.472,0,0,0,.024-1.3H38a2,2,0,0,0,0-4Z" fill="#5a7a84"></path> <path d="M16.663,35.335l-.019-.011a6.521,6.521,0,0,1-1.737-1.234l-1.028,2.5L8.732,41.732a2.5,2.5,0,0,0,3.536,3.536l5.5-5.5a2.521,2.521,0,0,0,.544-.816l.976-2.37Z" fill="#335262"></path> <path d="M39,12a3.963,3.963,0,0,0-2.62,1H35a1,1,0,0,0-1,1v4a1,1,0,0,0,1,1h1.38A3.993,3.993,0,1,0,39,12Z" fill="#ed7064"></path></svg>