<svg xmlns="http://www.w3.org/2000/svg" height="48" width="48" viewBox="0 0 48 48"><path d="M18,47a1,1,0,0,1-1-1V2a1,1,0,0,1,2,0V46A1,1,0,0,1,18,47Z" fill="#a67c52"></path> <circle cx="26" cy="8" r="5" fill="#5a7a84"></circle> <path d="M36.958,20.245s-8.618-4.648-8.7-4.685A4.954,4.954,0,0,0,26,15H16.029l-4.4-6.163a2,2,0,0,0-3.256,2.326l5,7A2,2,0,0,0,15,19h6V29.364l-5.2-1.731a2.5,2.5,0,0,0-2.571.6l-8,8a2.5,2.5,0,0,0,3.536,3.536l6.9-6.9s8.78,2.87,8.874,2.893A4.947,4.947,0,0,0,26,36a5,5,0,0,0,5-5V21.576l3,1.611V30a2,2,0,0,0,4,0V22A2,2,0,0,0,36.958,20.245Z" fill="#5a7a84"></path></svg>