<svg xmlns="http://www.w3.org/2000/svg" height="48" width="48" viewBox="0 0 48 48"><circle cx="27" cy="8" r="5" fill="#5a7a84"></circle> <path d="M14.6,35.315a6.461,6.461,0,0,1-2.014-1.568L9.955,39H3.5a2.5,2.5,0,0,0,0,5h8a2.5,2.5,0,0,0,2.236-1.382l3.322-6.643A6.543,6.543,0,0,1,14.6,35.315Z" fill="#335262"></path> <path d="M37.414,26.586,26.463,15.635a4.488,4.488,0,0,0-7.488.852l-5.5,11A4.5,4.5,0,0,0,17.5,34h7.959l-3.191,6.382a2.5,2.5,0,1,0,4.472,2.236l5-10A2.5,2.5,0,0,0,29.5,29H22.782l3.8-7.593,8.008,8.007a2,2,0,0,0,2.828-2.828Z" fill="#5a7a84"></path> <path d="M44.663,37.213l-.521-2.607A2.007,2.007,0,0,0,42.181,33H38a1,1,0,0,0,0,2h4.181l.4,2H38.5a3.5,3.5,0,0,0,0,7h5a3.492,3.492,0,0,0,1.163-6.787Z" fill="#ed7064"></path></svg>