<svg xmlns="http://www.w3.org/2000/svg" height="48" width="48" viewBox="0 0 48 48"><circle cx="33.5" cy="5.5" r="4.5" fill="#5a7a84"></circle> <path d="M42,18H35s-4.045-5.718-5.17-6.829a4.01,4.01,0,0,0-5.656,0l-9,9a3.972,3.972,0,0,0,.71,6.214L21.5,30.31V39.5a2.5,2.5,0,0,0,5,0V29a2.5,2.5,0,0,0-1.077-2.055l-3.374-2.337,7.369-7.37L32.4,21.2A2,2,0,0,0,34,22h8a2,2,0,0,0,0-4Z" fill="#5a7a84"></path> <circle cx="10" cy="37" r="8" fill="#e6e6e6"></circle> <path d="M10,28a9,9,0,1,0,9,9A9,9,0,0,0,10,28Zm0,16a7,7,0,1,1,7-7A7,7,0,0,1,10,44Z" fill="#444"></path> <circle cx="10" cy="37" r="2" fill="#444"></circle> <circle cx="38" cy="37" r="8" fill="#e6e6e6"></circle> <path d="M38,28a9,9,0,1,0,9,9A9,9,0,0,0,38,28Zm0,16a7,7,0,1,1,7-7A7,7,0,0,1,38,44Z" fill="#444"></path> <circle cx="38" cy="37" r="2" fill="#444"></circle></svg>