<svg xmlns="http://www.w3.org/2000/svg" height="48" width="48" viewBox="0 0 48 48"><path d="M22,34V44.508a2.5,2.5,0,1,0,5,0V34Z" fill="#5a7a84"></path> <path d="M8.5,42a2.5,2.5,0,0,1-1.768-4.268l9-9a2.5,2.5,0,0,1,3.536,3.536l-9,9A2.494,2.494,0,0,1,8.5,42Z" fill="#5a7a84"></path> <circle cx="24" cy="6" r="5" fill="#5a7a84"></circle> <path d="M43.9,10.367A2,2,0,0,0,41.367,9.1L29.676,13H6a2,2,0,0,0,0,4H18v2.791a2.983,2.983,0,0,1-2.349,2.929l-5.868,1.3A1,1,0,0,0,9,25a13,13,0,0,0,22.192,9.192,1,1,0,0,0,.271-.919L29.035,22.057l1.735-5.2L42.633,12.9A2,2,0,0,0,43.9,10.367Z" fill="#ed69ab"></path></svg>