<svg xmlns="http://www.w3.org/2000/svg" height="48" width="48" viewBox="0 0 48 48"><rect x="18" y="16" width="12" height="11" fill="#5a7a84"></rect> <circle cx="24" cy="6" r="5" fill="#5a7a84"></circle> <path d="M46,28H2a1,1,0,0,1,0-2H46a1,1,0,0,1,0,2Z" fill="#b3b3b3"></path> <path d="M37,29a2,2,0,0,1-1.666-.891L27.93,17H20.07L12.664,28.109a2,2,0,1,1-3.328-2.218l8-12A2,2,0,0,1,19,13H29a2,2,0,0,1,1.664.891l8,12A2,2,0,0,1,37,29Z" fill="#5a7a84"></path> <path d="M4.5,35A1.5,1.5,0,0,1,3,33.5v-13a1.5,1.5,0,0,1,3,0v13A1.5,1.5,0,0,1,4.5,35Z" fill="#444"></path> <path d="M43.5,35A1.5,1.5,0,0,1,42,33.5v-13a1.5,1.5,0,0,1,3,0v13A1.5,1.5,0,0,1,43.5,35Z" fill="#444"></path> <path d="M17.722,30l-1.7,14.2a2.5,2.5,0,0,0,2.184,2.78,2.558,2.558,0,0,0,.3.018,2.5,2.5,0,0,0,2.479-2.2L22.758,30Z" fill="#5a7a84"></path> <path d="M30.278,30l1.7,14.2a2.5,2.5,0,0,1-2.184,2.78,2.558,2.558,0,0,1-.3.018,2.5,2.5,0,0,1-2.479-2.2L25.242,30Z" fill="#5a7a84"></path></svg>