<svg xmlns="http://www.w3.org/2000/svg" height="48" width="48" viewBox="0 0 48 48"><path d="M31,48H17a3,3,0,0,1-3-3V26.333a4,4,0,0,1,.8-2.4l.4-.533a4,4,0,0,0,0-4.8l-.4-.533a4,4,0,0,1-.8-2.4V11a3,3,0,0,1,3-3H31a3,3,0,0,1,3,3v4.667a4,4,0,0,1-.8,2.4l-.4.533a4,4,0,0,0,0,4.8l.4.533a4,4,0,0,1,.8,2.4V45A3,3,0,0,1,31,48Z" fill="#47b0ea"></path> <path d="M29,4H27V1a1,1,0,0,0-1-1H22a1,1,0,0,0-1,1V4H19a2,2,0,0,0-2,2V8H31V6A2,2,0,0,0,29,4Z" fill="#444"></path> <path d="M16,28V45a1,1,0,0,0,1,1H31a1,1,0,0,0,1-1V28Z" fill="#3584b0"></path> <path d="M14,32h4a1,1,0,0,1,1,1v0a1,1,0,0,1-1,1H14a0,0,0,0,1,0,0V32A0,0,0,0,1,14,32Z" fill="#47b0ea"></path> <path d="M30,32h4a0,0,0,0,1,0,0v2a0,0,0,0,1,0,0H30a1,1,0,0,1-1-1v0a1,1,0,0,1,1-1Z" fill="#47b0ea"></path> <path d="M14,39h4a1,1,0,0,1,1,1v0a1,1,0,0,1-1,1H14a0,0,0,0,1,0,0V39A0,0,0,0,1,14,39Z" fill="#47b0ea"></path> <path d="M30,39h4a0,0,0,0,1,0,0v2a0,0,0,0,1,0,0H30a1,1,0,0,1-1-1v0A1,1,0,0,1,30,39Z" fill="#47b0ea"></path></svg>