<svg xmlns="http://www.w3.org/2000/svg" height="48" width="48" viewBox="0 0 48 48"><path d="M5,13a2,2,0,0,0-2,2v8H1a1,1,0,0,0,0,2H3v8a2,2,0,0,0,4,0V15A2,2,0,0,0,5,13Z" fill="#5b5b5b"></path> <path d="M47,23H45V15a2,2,0,0,0-4,0V33a2,2,0,0,0,4,0V25h2a1,1,0,0,0,0-2Z" fill="#5b5b5b"></path> <path d="M15,10a4,4,0,0,0-8,0V38a4,4,0,0,0,8,0Z" fill="#444"></path> <path d="M37,6a4,4,0,0,0-4,4V38a4,4,0,0,0,8,0V10A4,4,0,0,0,37,6Z" fill="#444"></path> <rect x="15" y="21" width="18" height="6" fill="#b3b3b3"></rect></svg>