<svg xmlns="http://www.w3.org/2000/svg" height="48" width="48" viewBox="0 0 48 48"><path d="M35,34a1,1,0,0,1-.84-1.541L42.914,18.84l-1.876-6.566a1,1,0,0,1,1.924-.548l2,7a1,1,0,0,1-.121.815l-9,14A1,1,0,0,1,35,34Z" fill="#b3b3b3"></path> <path d="M40,30,13.792,24.373A11.946,11.946,0,0,0,11,24a10,10,0,0,0,0,20H40a7,7,0,0,0,7-7C47,33.134,44,31,40,30Z" fill="#47b0ea"></path> <path d="M42,13a1.038,1.038,0,0,1-.352-.063,1,1,0,0,1-.585-1.289l3-8a1,1,0,0,1,1.874.7l-3,8A1,1,0,0,1,42,13Z" fill="#444"></path> <rect x="20" y="33" width="11" height="3" rx="1" ry="1" fill="#444"></rect> <path d="M42,38H13a1,1,0,0,1,0-2H40.768L37.1,18.605l-5.66-3.773a1,1,0,0,1,1.11-1.664l6,4a1,1,0,0,1,.424.626l4,19A1,1,0,0,1,42,38Z" fill="#e6e6e6"></path> <path d="M32,15a1,1,0,0,1-.969-.758l-2-8a1,1,0,1,1,1.94-.484l2,8a1,1,0,0,1-.728,1.212A1.017,1.017,0,0,1,32,15Z" fill="#444"></path></svg>