<svg xmlns="http://www.w3.org/2000/svg" height="48" width="48" viewBox="0 0 48 48"><path d="M35.618,4H12.382L8.105,12.553A1,1,0,0,0,8,13V41a5.006,5.006,0,0,0,5,5H35a5.006,5.006,0,0,0,5-5V13a1,1,0,0,0-.1-.447Z" fill="#335262"></path> <path d="M22,36a.986.986,0,0,1-.519-.146,1,1,0,0,1-.418-1.2L23.557,28H17a1,1,0,0,1-.743-1.669l9-10a1,1,0,0,1,1.68,1.02L24.443,24H31a1,1,0,0,1,.743,1.669l-9,10A1,1,0,0,1,22,36Z" fill="#efd358"></path> <path d="M37,4H11a1,1,0,0,1,0-2H37a1,1,0,0,1,0,2Z" fill="#b3b3b3"></path></svg>