<svg xmlns="http://www.w3.org/2000/svg" height="48" width="48" viewBox="0 0 48 48"><path d="M27,10H21V2h6Z" fill="#5b5b5b"></path> <path d="M7.006,10.11l4,36A1,1,0,0,0,12,47H36a1,1,0,0,0,.994-.89l4-36Z" fill="#3584b0"></path> <path d="M42,11H6a1,1,0,0,1-1-1V9A1,1,0,0,1,6,8H42a1,1,0,0,1,1,1v1A1,1,0,0,1,42,11Z" fill="#444"></path> <path d="M30,3H18a1,1,0,0,1,0-2H30a1,1,0,0,1,0,2Z" fill="#444"></path> <path d="M22,38a.981.981,0,0,1-.519-.146,1,1,0,0,1-.418-1.2L23.557,30H17a1,1,0,0,1-.743-1.669l9-10a1,1,0,0,1,1.68,1.02L24.443,26H31a1,1,0,0,1,.743,1.669l-9,10A1,1,0,0,1,22,38Z" fill="#efd358"></path></svg>