<svg xmlns="http://www.w3.org/2000/svg" height="48" width="48" viewBox="0 0 48 48"><polygon points="36.161 31.967 38.393 13 35.372 13 33.18 31.631 36.161 31.967" fill="#444"></polygon> <path d="M15,14a1,1,0,0,0,1-1V12a1,1,0,0,0-.8-.98l-10-2A1,1,0,0,0,4,10v3a1,1,0,0,0,1,1Z" fill="#47b0ea"></path> <polygon points="10.5 25.167 13.509 24.852 10.796 14 7.704 14 10.5 25.167" fill="#444"></polygon> <path d="M40,45H12a11,11,0,0,1,0-22,11.81,11.81,0,0,1,3.7.681l26.508,7.7.044.013A6.985,6.985,0,0,1,40,45Z" fill="#47b0ea"></path> <path d="M12,41a7,7,0,0,1,0-14,7.73,7.73,0,0,1,2.354.447l.115.04L41.03,35.208A2.985,2.985,0,0,1,40,41Z" fill="#3584b0"></path> <path d="M12,39a5,5,0,1,1,5-5A5.005,5.005,0,0,1,12,39Z" fill="#badefc"></path> <path d="M21,40H17a1,1,0,0,1-.707-.293l-5-5a1,1,0,0,1,1.414-1.414L17.414,38H21a1,1,0,0,1,0,2Z" fill="#444"></path> <path d="M40.772,12.3l5-8a1.5,1.5,0,0,0-2.544-1.59L38.668,10H31.5a1.5,1.5,0,0,0,0,3h8A1.5,1.5,0,0,0,40.772,12.3Z" fill="#47b0ea"></path></svg>