<svg xmlns="http://www.w3.org/2000/svg" height="48" width="48" viewBox="0 0 48 48"><rect x="7" y="1" width="34" height="7" rx="1" ry="1" fill="#b3b3b3"></rect> <path d="M37,12V8H11v4a7.008,7.008,0,0,0-7,7V39a7,7,0,0,0,7,7H37a7,7,0,0,0,7-7V19A7.008,7.008,0,0,0,37,12Z" fill="#444"></path> <rect x="4" y="20" width="40" height="19" fill="#8680d8"></rect> <rect x="15" y="27" width="18" height="6" rx="1" ry="1" fill="#fff"></rect> <path d="M24,7a1,1,0,0,1-1-1V3a1,1,0,0,1,2,0V6A1,1,0,0,1,24,7Z" fill="#999"></path> <path d="M18,7a1,1,0,0,1-1-1V3a1,1,0,0,1,2,0V6A1,1,0,0,1,18,7Z" fill="#999"></path> <path d="M30,7a1,1,0,0,1-1-1V3a1,1,0,0,1,2,0V6A1,1,0,0,1,30,7Z" fill="#999"></path> <path d="M36,7a1,1,0,0,1-1-1V3a1,1,0,0,1,2,0V6A1,1,0,0,1,36,7Z" fill="#999"></path> <path d="M12,7a1,1,0,0,1-1-1V3a1,1,0,0,1,2,0V6A1,1,0,0,1,12,7Z" fill="#999"></path></svg>