<svg xmlns="http://www.w3.org/2000/svg" height="48" width="48" viewBox="0 0 48 48"><path d="M32.807,37H16.883a4.993,4.993,0,0,1-4.743-3.419L2.052,3.316a1,1,0,0,1,1.9-.632l6.688,20.06,20.029-6.462A7,7,0,0,1,39.641,24.5l-1.957,8.612A4.977,4.977,0,0,1,32.807,37Z" fill="#9e9e9e"></path> <path d="M11.268,24.642l2.768,8.306A3,3,0,0,0,16.883,35H32.807a2.984,2.984,0,0,0,2.925-2.335l1.957-8.612a5,5,0,0,0-6.411-5.866Z" fill="#ccc"></path> <path d="M42,45H11a1,1,0,0,1,0-2H42a1,1,0,0,1,0,2Z" fill="#444"></path> <path d="M32,41a8,8,0,1,1,8-8A8.009,8.009,0,0,1,32,41Z" fill="#e6e6e6"></path></svg>