<svg xmlns="http://www.w3.org/2000/svg" height="48" width="48" viewBox="0 0 48 48"><circle cx="22" cy="6" r="5" fill="#5a7a84"></circle> <path d="M35.98,40.8A1,1,0,0,0,35,40H25a1,1,0,0,0-.98.8l-1,5A1,1,0,0,0,24,47H36a1,1,0,0,0,.98-1.2Z" fill="#ea9860"></path> <path d="M22,33a6.961,6.961,0,0,1-4.311-1.5l-.578,4.04-4.645,6.5a2.5,2.5,0,1,0,4.068,2.906l5-7a2.491,2.491,0,0,0,.441-1.1l.554-3.881C22.354,32.986,22.179,33,22,33Z" fill="#335262"></path> <path d="M38.562,15.751a2,2,0,0,0-2.811-.313l-3.87,3.1s-6.935-4.56-6.954-4.571a4.927,4.927,0,0,0-4.95-.528l-8.762,3.726A2,2,0,0,0,10,19v7a2,2,0,0,0,4,0V20.32l3-1.281V26a5.213,5.213,0,0,0,5,5h5.293l.727,5.811A2.5,2.5,0,0,0,30.5,39a2.386,2.386,0,0,0,.314-.02,2.5,2.5,0,0,0,2.169-2.791l-1-8A2.5,2.5,0,0,0,29.5,26H27V20.124l3.906,2.551a2,2,0,0,0,2.343-.113l5-4A2,2,0,0,0,38.562,15.751Z" fill="#5a7a84"></path></svg>