<svg xmlns="http://www.w3.org/2000/svg" height="48" width="48" viewBox="0 0 48 48"><polygon points="27 3 33 6 27 9 27 3" fill="#ed7064"></polygon> <path d="M24,14a1,1,0,0,1-1-1V3a1,1,0,0,1,2,0V13A1,1,0,0,1,24,14Z" fill="#b3b3b3"></path> <path d="M46,45H2a1,1,0,0,1,0-2H46a1,1,0,0,1,0,2Z" fill="#72c472"></path> <path d="M38,12H10a5,5,0,0,0-5,5V41H43V17A5,5,0,0,0,38,12Z" fill="#e6e6e6"></path> <rect x="22" y="19" width="4" height="4" rx="1" ry="1" fill="#47b0ea"></rect> <rect x="13" y="19" width="4" height="4" rx="1" ry="1" fill="#47b0ea"></rect> <rect x="31" y="19" width="4" height="4" rx="1" ry="1" fill="#47b0ea"></rect> <path d="M29,41V30a1,1,0,0,0-1-1H20a1,1,0,0,0-1,1V41Z" fill="#335262"></path></svg>