<svg xmlns="http://www.w3.org/2000/svg" height="48" width="48" viewBox="0 0 48 48"><path d="M34,40a5,5,0,1,1,5-5A5.006,5.006,0,0,1,34,40Z" fill="#335262"></path> <path d="M46.873,18.3a2,2,0,0,0-2.768-1.085l-13.16,6.58L28.359,15.4,39.094,5.432A2.6,2.6,0,0,0,39.5,2a2.5,2.5,0,0,0-3.7-.333L23.67,12.931A4,4,0,0,1,20.948,14H3.642a2.6,2.6,0,0,0-2.629,2.242A2.5,2.5,0,0,0,3.5,19H19.005l4,12.967V44.893a2.075,2.075,0,0,0,1.664,2.08A2,2,0,0,0,27,45V31.472a2,2,0,0,1,1.106-1.788l17.688-8.845A2.078,2.078,0,0,0,46.873,18.3Z" fill="#5a7a84"></path></svg>