<svg xmlns="http://www.w3.org/2000/svg" height="48" width="48" viewBox="0 0 48 48"><path d="M34,3A12.971,12.971,0,0,0,24,7.7,13,13,0,0,0,1,16C1,28.332,22.453,46.027,23.367,46.774a1,1,0,0,0,1.266,0C25.547,46.027,47,28.332,47,16A13.015,13.015,0,0,0,34,3Z" fill="#e86c60"></path> <path d="M26,31a1,1,0,0,1-.832-.445L18,19.8l-3.168,4.752A1,1,0,0,1,14,25H1a1,1,0,0,1,0-2H13.465l3.7-5.555a1.037,1.037,0,0,1,1.664,0L26,28.2l3.168-4.752A1,1,0,0,1,30,23H47a1,1,0,0,1,0,2H30.535l-3.7,5.555A1,1,0,0,1,26,31Z" fill="#e6e6e6"></path></svg>