<svg xmlns="http://www.w3.org/2000/svg" height="48" width="48" viewBox="0 0 48 48"><path d="M44,37H28a1,1,0,0,1-.316-.052L17,33.388V36a1,1,0,0,1-1,1H4a1,1,0,0,1-1-1V31.226A23.366,23.366,0,0,1,1,22C1,17.976,2.928,4.433,3.01,3.858A1,1,0,0,1,4,3H20a1,1,0,0,1,.97.758l1.727,6.91A15.02,15.02,0,0,0,33.3,21.5l8.538,2.328A7.016,7.016,0,0,1,47,30.583V34A3,3,0,0,1,44,37Z" fill="#e6e6e6"></path> <path d="M46.447,40.658,43.9,35.553a1,1,0,1,0-1.79.894l2.553,5.106A1,1,0,0,1,43.764,43H29V36a1,1,0,0,0-2,0v7H11V36a1,1,0,0,0-2,0v7H2a1,1,0,0,0,0,2H43.764a3,3,0,0,0,2.683-4.342Z" fill="#b3b3b3"></path> <path d="M18.685,12.105A1,1,0,0,0,19,12.054l3.736-1.246c-.012-.047-.028-.093-.04-.14l-.451-1.8-3.878,1.292a1,1,0,0,0,.317,1.948Z" fill="#b3b3b3"></path> <path d="M20.575,18.059a1,1,0,0,0,1.374.333l3.491-2.129a15.061,15.061,0,0,1-1.126-1.655l-3.406,2.077A1,1,0,0,0,20.575,18.059Z" fill="#b3b3b3"></path> <path d="M28.426,19.147,25.68,21.9A1,1,0,1,0,27.1,23.314l3.066-3.075A15.029,15.029,0,0,1,28.426,19.147Z" fill="#b3b3b3"></path> <path d="M28.163,35l-12-4H2.9c.038.087.072.163.1.226V36a1,1,0,0,0,1,1H16a1,1,0,0,0,1-1V33.388l10.684,3.56A1,1,0,0,0,28,37H44a3,3,0,0,0,2.816-2Z" fill="#444"></path></svg>