<svg xmlns="http://www.w3.org/2000/svg" height="48" width="48" viewBox="0 0 48 48"><circle cx="24" cy="6" r="5" fill="#5a7a84"></circle> <path d="M24,47C13.523,47,5,37.131,5,25a1,1,0,0,1,2,0c0,11.028,7.626,20,17,20s17-8.972,17-20a1,1,0,0,1,2,0C43,37.131,34.477,47,24,47Z" fill="#a4dae0"></path> <path d="M42.718,18.134l-13-5A1.984,1.984,0,0,0,29,13H19a1.984,1.984,0,0,0-.718.134l-13,5a2,2,0,1,0,1.436,3.732L18,17.527V36.5a2.5,2.5,0,0,0,5,0V30h2V44.5a2.5,2.5,0,0,0,5,0V17.527l11.282,4.339a2,2,0,1,0,1.436-3.732Z" fill="#5a7a84"></path></svg>