<svg xmlns="http://www.w3.org/2000/svg" height="48" width="48" viewBox="0 0 48 48"><path d="M24,31a1,1,0,0,1-1-1V2a1,1,0,0,1,2,0V30A1,1,0,0,1,24,31Z" fill="#b3b3b3"></path> <path d="M30,45H25V37a1,1,0,0,0-2,0v8H18a1,1,0,0,0,0,2H30a1,1,0,0,0,0-2Z" fill="#b3b3b3"></path> <path d="M45,12a.985.985,0,0,1-.484-.126L35.741,7H12.259L3.485,11.874a1,1,0,0,1-.97-1.748l9-5A.991.991,0,0,1,12,5H36a.991.991,0,0,1,.485.126l9,5A1,1,0,0,1,45,12Z" fill="#444"></path> <rect x="13" y="33" width="22" height="5" rx="1" ry="1" fill="#444"></rect> <rect x="15" y="27" width="6" height="4" rx="1" ry="1" fill="#444"></rect> <rect x="27" y="27" width="6" height="4" rx="1" ry="1" fill="#444"></rect></svg>