<svg xmlns="http://www.w3.org/2000/svg" height="48" width="48" viewBox="0 0 48 48"><path d="M40.9,44.553c-3-6-.794-23.512.1-29.553L24,12,7,15c.9,6.041,3.106,23.552.105,29.553A1,1,0,0,0,8,46H40a1,1,0,0,0,.9-1.447Z" fill="#eebc99"></path> <path d="M30.388,23.784C29.053,22.077,24.05,22,24,22s-5.053.077-6.387,1.784a14.691,14.691,0,0,0-1.6,5.07,1,1,0,0,0,1.978.292,14.061,14.061,0,0,1,1.2-4.129C19.56,24.541,22.123,24,24,24s4.44.541,4.812,1.017a14.061,14.061,0,0,1,1.2,4.129A1,1,0,0,0,31,30a.918.918,0,0,0,.147-.011,1,1,0,0,0,.843-1.135A14.713,14.713,0,0,0,30.388,23.784Z" fill="#dd9b6f"></path> <path d="M29,34H27a1.883,1.883,0,0,1-2-2V29a1,1,0,0,0-2,0v3a1.883,1.883,0,0,1-2,2H19a1,1,0,0,0,0,2h2a3.767,3.767,0,0,0,3-1.3A3.767,3.767,0,0,0,27,36h2a1,1,0,0,0,0-2Z" fill="#dd9b6f"></path> <circle cx="24" cy="40.5" r="1.5" fill="#dd9b6f"></circle> <path d="M7,15c.115.774.252,1.738.4,2.84A9.034,9.034,0,0,0,9.083,18H18a8.623,8.623,0,0,0,6-2.37A8.623,8.623,0,0,0,30,18h8.917a9.034,9.034,0,0,0,1.687-.16c.144-1.1.281-2.066.4-2.84L24,12Z" fill="#dd9b6f"></path> <path d="M46.763,2.354A1,1,0,0,0,46,2H2a1,1,0,0,0-.986,1.164L2.178,10.15A6.978,6.978,0,0,0,9.083,16H18a6.867,6.867,0,0,0,6-3.573A6.867,6.867,0,0,0,30,16h8.917a6.978,6.978,0,0,0,6.905-5.85l1.164-6.986A1,1,0,0,0,46.763,2.354Z" fill="#eebc99"></path> <circle cx="9.5" cy="11.5" r="1.5" fill="#dd9b6f"></circle> <circle cx="38.5" cy="11.5" r="1.5" fill="#dd9b6f"></circle></svg>