<svg xmlns="http://www.w3.org/2000/svg" height="48" width="48" viewBox="0 0 48 48"><ellipse cx="12" cy="15" rx="10" ry="6" fill="#e2ac4b"></ellipse> <path d="M12,22C5.832,22,1,18.925,1,15S5.832,8,12,8s11,3.075,11,7S18.168,22,12,22Zm0-12c-4.879,0-9,2.29-9,5s4.121,5,9,5,9-2.29,9-5S16.879,10,12,10Z" fill="#ffd764"></path> <path d="M46,40H12C5.832,40,1,36.925,1,33V15a1,1,0,0,1,2,0c0,2.71,4.121,5,9,5H46a1,1,0,0,1,1,1V39A1,1,0,0,1,46,40Z" fill="#ffd764"></path> <path d="M41,34a1,1,0,0,0-2,0v6h2Z" fill="#e2ac4b"></path> <path d="M33,34a1,1,0,0,0-2,0v6h2Z" fill="#e2ac4b"></path> <path d="M25,34a1,1,0,0,0-2,0v6h2Z" fill="#e2ac4b"></path> <path d="M17,34a1,1,0,0,0-2,0v6h2Z" fill="#e2ac4b"></path></svg>