<svg xmlns="http://www.w3.org/2000/svg" height="48" width="48" viewBox="0 0 48 48"><path d="M24,47A23,23,0,1,1,47,24,23.025,23.025,0,0,1,24,47Z" fill="#444"></path> <path d="M35,10.025V3.806q-.972-.531-2-.97v6.2A45.374,45.374,0,0,0,24,8a45.574,45.574,0,0,0-9,1.035v-6.2q-1.026.438-2,.97v6.219A18.107,18.107,0,0,0,6,24a18.107,18.107,0,0,0,7,13.975v6.219q.972.531,2,.97v-6.2A45.374,45.374,0,0,0,24,40a45.574,45.574,0,0,0,9-1.035v6.2q1.026-.438,2-.97V37.975A18.107,18.107,0,0,0,42,24,18.107,18.107,0,0,0,35,10.025ZM33.138,36.886A44.854,44.854,0,0,1,24,38a44.511,44.511,0,0,1-9.137-1.114A16.206,16.206,0,0,1,8,24a16.208,16.208,0,0,1,6.862-12.886A44.854,44.854,0,0,1,24,10a44.511,44.511,0,0,1,9.137,1.114A16.206,16.206,0,0,1,40,24,16.208,16.208,0,0,1,33.138,36.886Z" fill="#b3b3b3"></path> <path d="M31.414,24l2.293-2.293a1,1,0,0,0-1.414-1.414L30,22.586l-2.293-2.293a1,1,0,0,0-1.414,1.414L28.586,24l-2.293,2.293a1,1,0,1,0,1.414,1.414L30,25.414l2.293,2.293a1,1,0,0,0,1.414-1.414Z" fill="#b3b3b3"></path> <path d="M19.414,24l2.293-2.293a1,1,0,0,0-1.414-1.414L18,22.586l-2.293-2.293a1,1,0,0,0-1.414,1.414L16.586,24l-2.293,2.293a1,1,0,1,0,1.414,1.414L18,25.414l2.293,2.293a1,1,0,0,0,1.414-1.414Z" fill="#b3b3b3"></path></svg>