<svg xmlns="http://www.w3.org/2000/svg" height="48" width="48" viewBox="0 0 48 48"><path d="M30,47H18a1,1,0,0,1-1-1V39.617a1,1,0,0,0-.791-.979L5.972,36.445A3.781,3.781,0,0,1,3,32.769V30a1,1,0,0,1,1-1H44a1,1,0,0,1,1,1v2.76a3.783,3.783,0,0,1-2.972,3.685L31.791,38.639a1,1,0,0,0-.791.978V46A1,1,0,0,1,30,47Z" fill="#b3b3b3"></path> <path d="M23.505,1.139a.989.989,0,0,0-.911-.052,1.014,1.014,0,0,0-.573.72,12.948,12.948,0,0,1-2.414,5.634A13.96,13.96,0,0,1,18.222,8.9C16.44,10.612,14,12.963,14,17.183A10.183,10.183,0,0,0,19.074,26C19.429,22.16,23,21.239,24,16.786A12.988,12.988,0,0,1,28.926,26,10.183,10.183,0,0,0,34,17.183C34,10.764,30.371,5.216,23.505,1.139Z" fill="#ed7064"></path></svg>