<svg xmlns="http://www.w3.org/2000/svg" height="48" width="48" viewBox="0 0 48 48"><circle cx="32.999" cy="6" r="5" fill="#5a7a84"></circle> <path d="M36,24a2,2,0,0,1-1.573-.764l-5.487-6.98a2,2,0,1,1,3.145-2.473l4.478,5.7,6.541-3.27a2,2,0,1,1,1.789,3.578l-8,4A1.985,1.985,0,0,1,36,24Z" fill="#335262"></path> <path d="M35.5,28H27.782l4.743-9.487a4.5,4.5,0,0,0-2.012-6.038A5.117,5.117,0,0,0,28,12H19a2,2,0,0,0-1.536.72l-5,6a2,2,0,1,0,3.072,2.56l4.4-5.28h3.782L18.474,26.487A4.5,4.5,0,0,0,22.5,33H33v5h5V30.5A2.5,2.5,0,0,0,35.5,28Z" fill="#5a7a84"></path> <path d="M18,25A11,11,0,1,0,29,36,11,11,0,0,0,18,25Z" fill="#444"></path> <circle cx="35.5" cy="43.5" r="3.5" fill="#444"></circle> <circle cx="35.5" cy="43.5" r="1.5" fill="#e6e6e6"></circle> <circle cx="17.999" cy="36" r="9" fill="#e6e6e6"></circle> <circle cx="18" cy="36" r="2" fill="#444"></circle></svg>