<svg xmlns="http://www.w3.org/2000/svg" height="48" width="48" viewBox="0 0 48 48"><path d="M36,1H12A7.009,7.009,0,0,0,5,8v7a1,1,0,0,0,2,0V8a5.006,5.006,0,0,1,5-5H23V9h2V3H36a5.006,5.006,0,0,1,5,5v7a1,1,0,0,0,2,0V8A7.009,7.009,0,0,0,36,1Z" fill="#b3b3b3"></path> <path d="M17,31V13a2,2,0,0,1,2-2H29a2,2,0,0,1,2,2V31Z" fill="#444"></path> <path d="M6,32a1,1,0,0,1-1-1V27a1,1,0,0,1,2,0v4A1,1,0,0,1,6,32Z" fill="#b3b3b3"></path> <path d="M42,32a1,1,0,0,1-1-1V27a1,1,0,0,1,2,0v4A1,1,0,0,1,42,32Z" fill="#b3b3b3"></path> <rect x="2" y="14" width="8" height="14" rx="1" ry="1" fill="#444"></rect> <rect x="38" y="14" width="8" height="14" rx="1" ry="1" fill="#444"></rect> <path d="M25,38h9a1,1,0,0,0,1-1V34a1,1,0,0,0-1-1H14a1,1,0,0,0-1,1v3a1,1,0,0,0,1,1H25Z" fill="#444"></path> <path d="M23,45H18a1,1,0,0,0,0,2H30a1,1,0,0,0,0-2H25V38H23Z" fill="#b3b3b3"></path></svg>