<svg xmlns="http://www.w3.org/2000/svg" height="48" width="48" viewBox="0 0 48 48"><rect x="9.007" y="7" width="30" height="32" fill="#b7e3fc"></rect> <path d="M35.007,1H12.993a5.006,5.006,0,0,0-5,5V42a5,5,0,0,0,5,5H35.007a5,5,0,0,0,5-5V6A5,5,0,0,0,35.007,1Zm3,37a1,1,0,0,1-1,1H10.993a1,1,0,0,1-1-1L10,8a1,1,0,0,1,1-1H37.007a1,1,0,0,1,1,1Z" fill="#444"></path> <path d="M31.349,17.482a5.075,5.075,0,0,0-7.349.19,5.069,5.069,0,1,0-7.349,6.979L24,32l7.349-7.349a5.071,5.071,0,0,0,0-7.169Z" fill="#ed7064"></path></svg>