<svg xmlns="http://www.w3.org/2000/svg" height="48" width="48" viewBox="0 0 48 48"><path d="M31,25H17a1,1,0,0,0-1,1V46H32V26A1,1,0,0,0,31,25Z" fill="#e6e6e6"></path> <path d="M16,31H3a1,1,0,0,0-1,1V45a1,1,0,0,0,1,1H16Z" fill="#b3b3b3"></path> <path d="M45,36H32V46H45a1,1,0,0,0,1-1V37A1,1,0,0,0,45,36Z" fill="#b3b3b3"></path> <polygon points="24 2 26.849 7.77 33.215 8.695 28.607 13.186 29.695 19.528 24 16.534 18.305 19.528 19.393 13.186 14.785 8.695 21.151 7.77 24 2" fill="#ffd764"></polygon></svg>