<svg xmlns="http://www.w3.org/2000/svg" height="48" width="48" viewBox="0 0 48 48"><path d="M46,17H2a1,1,0,0,1,0-2H46a1,1,0,0,1,0,2Z" fill="#b3b3b3"></path> <rect x="10" y="2" width="4" height="11" fill="#444"></rect> <path d="M16,44H14V19H10V44H8a1,1,0,0,0,0,2h8a1,1,0,0,0,0-2Z" fill="#444"></path> <path d="M40,44H38V19H34V44H32a1,1,0,0,0,0,2h8a1,1,0,0,0,0-2Z" fill="#444"></path> <rect x="34" y="2" width="4" height="11" fill="#444"></rect> <path d="M5.5,7A1.5,1.5,0,0,0,4,8.5v15a1.5,1.5,0,0,0,3,0V8.5A1.5,1.5,0,0,0,5.5,7Z" fill="#444"></path> <path d="M42.5,7A1.5,1.5,0,0,1,44,8.5v15a1.5,1.5,0,0,1-3,0V8.5A1.5,1.5,0,0,1,42.5,7Z" fill="#444"></path></svg>