<svg xmlns="http://www.w3.org/2000/svg" height="48" width="48" viewBox="0 0 48 48"><path d="M31.5,47A8.51,8.51,0,0,1,23,38.5V9.5a6.5,6.5,0,0,0-13,0V22a1,1,0,0,1-2,0V9.5a8.5,8.5,0,0,1,17,0v29a6.5,6.5,0,0,0,13,0V26a1,1,0,0,1,2,0V38.5A8.51,8.51,0,0,1,31.5,47Z" fill="#47b0ea"></path> <rect x="5" y="39" width="8" height="4" fill="#444"></rect> <path d="M16,42a1,1,0,0,1-1-1V37.255l-5.4-9.9a.713.713,0,0,0-1.2,0L3,37.255V41a1,1,0,0,1-2,0V37a1,1,0,0,1,.122-.479L6.644,26.4a2.683,2.683,0,0,1,4.712,0l5.522,10.122A1,1,0,0,1,17,37v4A1,1,0,0,1,16,42Z" fill="#666"></path> <rect x="35" y="5" width="8" height="4" fill="#444"></rect> <path d="M39,23a2.681,2.681,0,0,1-2.356-1.4L31.122,11.479A1,1,0,0,1,31,11V7a1,1,0,0,1,2,0v3.745l5.4,9.9a.713.713,0,0,0,1.2,0l5.4-9.9V7a1,1,0,0,1,2,0v4a1,1,0,0,1-.122.479L41.356,21.6A2.681,2.681,0,0,1,39,23Z" fill="#666"></path></svg>