<svg xmlns="http://www.w3.org/2000/svg" height="48" width="48" viewBox="0 0 48 48"><path d="M14,19A13,13,0,1,0,27,32,13,13,0,0,0,14,19Zm0,23A10,10,0,1,1,24,32,10,10,0,0,1,14,42Z" fill="#bcbcbc"></path> <path d="M35,19a12.968,12.968,0,0,0-10.5,5.357,12.937,12.937,0,0,1,1.638,3.019,10,10,0,1,1,0,9.248A12.937,12.937,0,0,1,24.5,39.643,12.995,12.995,0,1,0,35,19Z" fill="#a5a5a5"></path> <path d="M14,22a10.011,10.011,0,0,1,3,.459V3.024A1.023,1.023,0,0,0,15.976,2H12.024A1.023,1.023,0,0,0,11,3.024V22.459A10.011,10.011,0,0,1,14,22Z" fill="#87613e"></path> <path d="M35,22a10.011,10.011,0,0,1,3,.459V3.024A1.023,1.023,0,0,0,36.976,2H33.024A1.023,1.023,0,0,0,32,3.024V22.459A10.011,10.011,0,0,1,35,22Z" fill="#87613e"></path></svg>