<svg xmlns="http://www.w3.org/2000/svg" height="48" width="48" viewBox="0 0 48 48"><path d="M38,17H16a1,1,0,0,1,0-2H38a1,1,0,0,1,0,2Z" fill="#b3b3b3"></path> <path d="M5,40a1,1,0,0,1-.856-1.515l6-10a1,1,0,0,1,1.714,1.03l-6,10A1,1,0,0,1,5,40Z" fill="#444"></path> <path d="M41,40a1,1,0,0,1-.858-.485l-6-10a1,1,0,1,1,1.714-1.03l6,10A1,1,0,0,1,41,40Z" fill="#444"></path> <path d="M35.5,31H1a1,1,0,0,1-1-1V29a1,1,0,0,1,1-1H34.573l4.4-8.8,2.683,1.342-4.817,9.634A1.5,1.5,0,0,1,35.5,31Z" fill="#b3b3b3"></path> <circle cx="41" cy="16" r="7" fill="#444"></circle> <path d="M16,26H6a2,2,0,0,1,0-4H16a2,2,0,0,1,0,4Z" fill="#444"></path></svg>