<svg xmlns="http://www.w3.org/2000/svg" height="48" width="48" viewBox="0 0 48 48"><path d="M20,6V20c0,4.418-6,10-8,10h0c-2,0-8-5.582-8-10V6A5,5,0,0,1,9,1h6A5,5,0,0,1,20,6Z" fill="#a2703f"></path><path d="M28,42V28c0-4.418,6-10,8-10h0c2,0,8,5.582,8,10V42a5,5,0,0,1-5,5H33A5,5,0,0,1,28,42Z" fill="#a2703f"></path><path d="M40,1H32a1,1,0,0,0,0,2h3V24a1,1,0,0,0,2,0V3h3a1,1,0,0,0,0-2Z" fill="#d0ab86"></path><path d="M16,45H13V24a1,1,0,0,0-2,0V45H8a1,1,0,0,0,0,2h8a1,1,0,0,0,0-2Z" fill="#d0ab86"></path></svg>