<svg xmlns="http://www.w3.org/2000/svg" height="48" width="48" viewBox="0 0 48 48"><circle cx="36" cy="7" r="5" fill="#5a7a84"></circle> <path d="M16.936,31.073A6.451,6.451,0,0,1,14.762,27.8L4.526,40.965a2.5,2.5,0,0,0,3.948,3.07L18,31.79C17.026,31.144,16.984,31.112,16.936,31.073Z" fill="#335262"></path> <path d="M44.5,26.672,32.472,13.138a4.576,4.576,0,0,0-.66-.652,4.482,4.482,0,0,0-1.614-.823L18.589,8.089a2,2,0,0,0-2.253.8l-4,6a2,2,0,1,0,3.328,2.218l3.173-4.758,5.873,1.808-7.224,9.029a4.5,4.5,0,0,0,.7,6.326c.06.047,7.782,5.152,7.782,5.152l-4.512,6.393a2.5,2.5,0,1,0,4.084,2.882l6-8.5a2.5,2.5,0,0,0-.666-3.528L25.087,28.1l7.26-9.075,9.158,10.308a2,2,0,1,0,2.99-2.656Z" fill="#5a7a84"></path> <path d="M36,28a7.861,7.861,0,0,1-1.139-.089,1,1,0,0,1-.857-1A8.026,8.026,0,0,1,42,19a7.861,7.861,0,0,1,1.139.089,1,1,0,0,1,.857,1A8.026,8.026,0,0,1,36,28Z" fill="#ed7064"></path></svg>