<svg xmlns="http://www.w3.org/2000/svg" height="48" width="48" viewBox="0 0 48 48"><path d="M37,32a1,1,0,0,1-.786-.382l-11-14A1,1,0,0,1,25,17a8.03,8.03,0,0,1,5.8-7.688A1,1,0,0,1,32.04,10l5.922,20.727A1,1,0,0,1,37,32Z" fill="#458bc4"></path> <path d="M44.031,33.03l-6.2-2.754L37.183,28H34a1,1,0,0,1,0-2h2.611l-.571-2H31a1,1,0,0,1,0-2h4.468L34.9,20H28a1,1,0,0,1,0-2h6.186a3.99,3.99,0,0,0-3.449-2H27.631a7,7,0,0,1-5.268-2.39l-3.126-3.572A5.005,5.005,0,0,1,18,6.745v-2.2A2.121,2.121,0,0,0,17.027,2.7a2,2,0,0,0-2.441.3L3.793,13.793a1,1,0,0,0,0,1.414L28.121,39.535A5,5,0,0,0,31.658,41H45a2,2,0,0,0,2-2V37.6A5,5,0,0,0,44.031,33.03Z" fill="#43a6dd"></path> <path d="M30,23a1,1,0,0,0,1,1h5.04l-.572-2H31A1,1,0,0,0,30,23Z" fill="#e6e6e6"></path> <path d="M33,27a1,1,0,0,0,1,1h3.183l-.572-2H34A1,1,0,0,0,33,27Z" fill="#e6e6e6"></path> <path d="M27,19a1,1,0,0,0,1,1h6.9l-.314-1.1a3.96,3.96,0,0,0-.4-.9H28A1,1,0,0,0,27,19Z" fill="#e6e6e6"></path> <path d="M42,45H29.9a8,8,0,0,1-5.657-2.343L1.787,20.2a3.15,3.15,0,0,1-.908-1.639,3,3,0,0,1,.828-2.684L4.5,13.086,29.242,37.828A4,4,0,0,0,32.071,39H47v1A5,5,0,0,1,42,45Z" fill="#e0e0e0"></path> <path d="M16,43H2a1,1,0,0,0,0,2H16a1,1,0,0,0,0-2Z" fill="#5a7a84"></path> <path d="M2,37H7a1,1,0,0,0,0-2H2a1,1,0,0,0,0,2Z" fill="#5a7a84"></path></svg>