<svg xmlns="http://www.w3.org/2000/svg" height="48" width="48" viewBox="0 0 48 48"><path d="M27,10H21V2h6Z" fill="#5b5b5b"></path> <path d="M40.994,10.11A1,1,0,0,0,40,9H8a1,1,0,0,0-.994,1.11L8.549,24h30.9Z" fill="#e6e6e6"></path> <path d="M12,47H36a1,1,0,0,0,.994-.89L39.451,24H8.549l2.457,22.11A1,1,0,0,0,12,47Z" fill="#ef8ec3"></path> <path d="M42,11H6a1,1,0,0,1-1-1V9A1,1,0,0,1,6,8H42a1,1,0,0,1,1,1v1A1,1,0,0,1,42,11Z" fill="#b3b3b3"></path> <path d="M30,21H26a1,1,0,0,1,0-2h4a1,1,0,0,1,0,2Z" fill="#b3b3b3"></path> <path d="M30,29H26a1,1,0,0,1,0-2h4a1,1,0,0,1,0,2Z" fill="#c64692"></path> <path d="M30,37H26a1,1,0,0,1,0-2h4a1,1,0,0,1,0,2Z" fill="#c64692"></path> <path d="M30,3H18a1,1,0,0,1,0-2H30a1,1,0,0,1,0,2Z" fill="#b3b3b3"></path></svg>