<svg xmlns="http://www.w3.org/2000/svg" height="48" width="48" viewBox="0 0 48 48"><circle cx="41" cy="6" r="5" fill="#5a7a84"></circle> <path d="M34,47H24a1,1,0,0,1,0-2H34a1,1,0,0,1,0,2Z" fill="#444"></path> <path d="M35.682,10.318A4.483,4.483,0,0,0,32.5,9H11a2,2,0,0,0,0,4H26.637l-7.319,7.318a4.485,4.485,0,0,0-.185,6.136c.011.014,7.676,8.317,7.676,8.317L25.241,43h5.09l1.625-8.532a2.5,2.5,0,0,0-.62-2.164l-5.415-5.861,9.761-9.761A4.5,4.5,0,0,0,35.682,10.318Z" fill="#5a7a84"></path> <path d="M9.889,39.646l9.723-9.723c-1.954-2.118-1.976-2.143-2-2.168a6.376,6.376,0,0,1-1.1-1.809L6.354,36.111Z" fill="#335262"></path> <path d="M10,45a1,1,0,0,1-.707-.293l-7-7a1,1,0,0,1,1.414-1.414l7,7A1,1,0,0,1,10,45Z" fill="#444"></path></svg>