<svg xmlns="http://www.w3.org/2000/svg" height="48" width="48" viewBox="0 0 48 48"><circle cx="37" cy="6" r="5" fill="#5a7a84"></circle> <path d="M17.51,27.631a6.472,6.472,0,0,1-1.942-2.468l-2.493,3.116-7.181,1.8a2.5,2.5,0,1,0,1.212,4.852l8-2a2.5,2.5,0,0,0,1.346-.864l2.783-3.479A6.484,6.484,0,0,1,17.51,27.631Z" fill="#335262"></path> <path d="M41,18H35.322s-2.79-6.482-2.831-6.555a4.466,4.466,0,0,0-1.228-1.5A4.386,4.386,0,0,0,28.5,9H19a2,2,0,0,0-1.414.586l-4,4a2,2,0,1,0,2.828,2.828L19.828,13h3.36l-5.24,6.737a4.5,4.5,0,0,0,.789,6.315,4.635,4.635,0,0,0,.526.342L26,30V40h5V28.5a2.5,2.5,0,0,0-1.319-2.2l-3.835-2.054,5.031-6.469,1.283,3.011A2,2,0,0,0,34,22h7a2,2,0,0,0,0-4Z" fill="#5a7a84"></path> <circle cx="23" cy="45" r="2" fill="#444"></circle> <circle cx="35" cy="45" r="2" fill="#444"></circle> <path d="M35.758,41H22.242a4.024,4.024,0,0,1-2.828-1.172l-1.121-1.121a1,1,0,0,1,1.414-1.414l1.121,1.121A2.015,2.015,0,0,0,22.242,39H35.758a2.015,2.015,0,0,0,1.414-.586l1.121-1.121a1,1,0,0,1,1.414,1.414l-1.121,1.121A4.024,4.024,0,0,1,35.758,41Z" fill="#47b0ea"></path></svg>