<svg xmlns="http://www.w3.org/2000/svg" height="48" width="48" viewBox="0 0 48 48"><path d="M46,1.017H44a1,1,0,0,0-1,1v34a7.013,7.013,0,0,1-7.921,6.941,7.148,7.148,0,0,1-6.068-6.941H31a1,1,0,0,0,0-2H23a1,1,0,0,0,0,2h2.015a11.2,11.2,0,0,0,9.925,10.95,11.013,11.013,0,0,0,12.01-9.914q.049-.517.05-1.036v-34A1,1,0,0,0,46,1.017Z" fill="#6cc4f5"></path><path d="M40,20a1,1,0,0,1-1-1V6a3,3,0,0,0-3-3H6A3,3,0,0,0,3,6v9a1,1,0,0,1-2,0V6A5.006,5.006,0,0,1,6,1H36a5.006,5.006,0,0,1,5,5V19A1,1,0,0,1,40,20Z" fill="#363636"></path><path d="M37,9H5a4,4,0,0,0-4,4V27a4,4,0,0,0,4,4h8.1a5,5,0,0,0,4.851-3.787l.568-2.272a2.561,2.561,0,0,1,4.97,0l.568,2.272A5,5,0,0,0,28.9,31H37a4,4,0,0,0,4-4V13A4,4,0,0,0,37,9Z" fill="#6cc4f5"></path><path d="M28.9,29a2.994,2.994,0,0,1-2.91-2.271l-.568-2.274a4.562,4.562,0,0,0-8.852,0l-.567,2.273A3,3,0,0,1,13.1,29H5a2,2,0,0,1-2-2V13a2,2,0,0,1,2-2H37a2,2,0,0,1,2,2V27a2,2,0,0,1-2,2Z" fill="#363636"></path><polygon points="9 29 5 29 14 11 18 11 9 29" fill="#4c4c4c"></polygon><path d="M28.064,28.872a2.988,2.988,0,0,1-2.071-2.145l-.285-1.142L33,11h4Z" fill="#4c4c4c"></path><rect x="22" y="34" width="10" height="2" rx="1" fill="#363636"></rect></svg>