<svg xmlns="http://www.w3.org/2000/svg" height="48" width="48" viewBox="0 0 48 48"><path d="M33.757,45.033A12.86,12.86,0,0,1,22.576,25.9c4.207-7.5,19.528-12.553,21.261-13.1a1,1,0,0,1,1.274.715c.432,1.764,4.1,17.449-.115,24.958a12.763,12.763,0,0,1-7.729,6.081A12.919,12.919,0,0,1,33.757,45.033Z" fill="#ea5da3"></path><path d="M10.733,44.545A12.763,12.763,0,0,1,3,38.464c-4.21-7.509-.547-23.194-.115-24.958a1,1,0,0,1,1.274-.715c1.733.551,17.054,5.6,21.261,13.1A12.854,12.854,0,0,1,14.243,45.033,12.919,12.919,0,0,1,10.733,44.545Z" fill="#ea5da3"></path><path d="M23.912,45a15.017,15.017,0,0,1-15-15C8.912,19.719,22.618,4.96,23.2,4.336a1,1,0,0,1,.73-.316h0a1,1,0,0,1,.73.317c.582.624,14.25,15.382,14.25,25.658A15.017,15.017,0,0,1,23.912,45Z" fill="#f888c0"></path></svg>