<svg xmlns="http://www.w3.org/2000/svg" height="48" width="48" viewBox="0 0 48 48"><path d="M14.805,27.638l1.46-1.572-4.866-10a1,1,0,1,0-1.8.875Z" fill="#b3b3b3"></path> <polygon points="8.73 43 33.956 15.833 31.024 13.11 3.27 43 8.73 43" fill="#47b0ea"></polygon> <path d="M16.5,15H5.5a1.5,1.5,0,0,0,0,3h11a1.5,1.5,0,0,0,0-3Z" fill="#444"></path> <path d="M12,44H2a1,1,0,0,1,0-2H12a1,1,0,0,1,0,2Z" fill="#444"></path> <rect x="39.461" y="36.598" width="3" height="6.571" transform="translate(-10.511 15.002) rotate(-18.438)" fill="#b3b3b3"></rect> <path d="M34.878,23.134a1.5,1.5,0,0,1-1.4-.967L28.1,8.033A1.5,1.5,0,0,1,29.5,6h9.546l5.622-3.748a1.5,1.5,0,0,1,1.664,2.5l-6,4A1.5,1.5,0,0,1,39.5,9H31.676l4.6,12.1a1.5,1.5,0,0,1-1.4,2.033Z" fill="#b3b3b3"></path> <circle cx="38" cy="29" r="9" fill="#444"></circle> <path d="M46,44H37a1,1,0,0,1,0-2h9a1,1,0,0,1,0,2Z" fill="#444"></path></svg>