<svg xmlns="http://www.w3.org/2000/svg" height="48" width="48" viewBox="0 0 48 48"><path d="M47,17C47,10.832,36.9,6,24,6S1,10.832,1,17c0,.563,3,19.084,3,19.084C4.112,41.227,14.357,44,24,44s19.888-2.773,20-7.916C44,36.084,47,17.563,47,17Z" fill="#e6e6e6"></path> <path d="M27.75,39h-7.5A1.147,1.147,0,0,0,19,40v3.751c1.648.164,3.333.249,5,.249s3.352-.085,5-.249V40A1.147,1.147,0,0,0,27.75,39Z" fill="#444"></path> <ellipse cx="24" cy="17" rx="21" ry="9" fill="#223e49"></ellipse> <path d="M24,16c-7.734,0-14.557,2.167-18.192,5.483a14.269,14.269,0,0,0,1.737,1.1C10.868,19.834,17.094,18,24,18s13.132,1.834,16.455,4.581a14.269,14.269,0,0,0,1.737-1.1C38.557,18.167,31.734,16,24,16Z" fill="#ed7064"></path> <path d="M24,11c-9.733,0-17.78,3.013-20.752,7.312a5.594,5.594,0,0,0,1.163,1.911C6.3,16.161,14.506,13,24,13s17.7,3.161,19.589,7.223a5.594,5.594,0,0,0,1.163-1.911C41.78,14.013,33.733,11,24,11Z" fill="#ed7064"></path> <path d="M3.05,30.182C7.475,33.711,15.127,36,24,36s16.525-2.289,20.95-5.818c.171-1.062.352-2.2.534-3.333C42.142,30.98,33.653,34,24,34S5.858,30.98,2.516,26.849C2.7,27.987,2.879,29.12,3.05,30.182Z" fill="#b3b3b3"></path> <path d="M24,26a44.073,44.073,0,0,0,10.451-1.2l-.477-2.028A1,1,0,0,0,33,22H15a1,1,0,0,0-.984.826l-.354,2A44.175,44.175,0,0,0,24,26Z" fill="#72c472"></path></svg>