<svg xmlns="http://www.w3.org/2000/svg" height="48" width="48" style="" viewBox="0 0 48 48"><path d="M30 1H18C17.448 1 17 1.448 17 2C17 2.552 17.448 3 18 3H22V10H26V3H30C30.552 3 31 2.552 31 2C31 1.448 30.552 1 30 1Z" fill="url(#nc-ui-2-0_linear_103_224)"></path> <path d="M44.707 14.293L38.707 8.29299C38.31 7.90899 37.677 7.91999 37.293 8.31799C36.919 8.70599 36.919 9.31999 37.293 9.70699L43.293 15.707C43.69 16.091 44.323 16.08 44.707 15.682C45.081 15.294 45.081 14.68 44.707 14.293Z" fill="url(#nc-ui-2-1_linear_103_224)"></path> <path d="M24 9C13.507 9 5 17.507 5 28C5 38.493 13.507 47 24 47C34.493 47 43 38.493 43 28C42.988 17.511 34.489 9.012 24 9Z" fill="url(#nc-ui-2-2_linear_103_224)"></path> <path d="M26.121 30.121C25.555 30.688 24.801 31 24 31C23.199 31 22.445 30.688 21.879 30.121C20.894 29.136 14.776 19.832 14.082 18.774C13.952 18.576 13.979 18.314 14.146 18.146C14.313 17.978 14.575 17.952 14.774 18.082C15.832 18.776 25.137 24.894 26.121 25.879C26.688 26.445 27 27.199 27 28C27 28.801 26.688 29.555 26.121 30.121Z" fill="url(#nc-ui-2-3_linear_103_224)"></path> <defs> <linearGradient id="nc-ui-2-0_linear_103_224" x1="24" y1="1" x2="24" y2="10" gradientUnits="userSpaceOnUse"> <stop stop-color="#C2C3CD"></stop> <stop offset="1" stop-color="#A2A3B4"></stop> </linearGradient> <linearGradient id="nc-ui-2-1_linear_103_224" x1="41" y1="8.01208" x2="41" y2="15.9879" gradientUnits="userSpaceOnUse"> <stop stop-color="#FF666D"></stop> <stop offset="1" stop-color="#E0211F"></stop> </linearGradient> <linearGradient id="nc-ui-2-2_linear_103_224" x1="24" y1="9" x2="24" y2="47" gradientUnits="userSpaceOnUse"> <stop stop-color="#E0E0E6"></stop> <stop offset="1" stop-color="#C2C3CD"></stop> </linearGradient> <linearGradient id="nc-ui-2-3_linear_103_224" x1="20.5" y1="17.9998" x2="20.5" y2="31" gradientUnits="userSpaceOnUse"> <stop stop-color="#C2C3CD"></stop> <stop offset="1" stop-color="#A2A3B4"></stop> </linearGradient> </defs></svg>