<svg xmlns="http://www.w3.org/2000/svg" height="48" width="48" viewBox="0 0 48 48"><circle cx="36" cy="13" r="5" fill="#5a7a84"></circle> <path d="M22.167,28.742l-4.6,2.3,2.5,11.01a2.5,2.5,0,0,0,4.876-1.108Z" fill="#335262"></path> <path d="M37.847,34.232s-7.3-17.314-7.375-17.468A4.946,4.946,0,0,0,28.7,14.812L14.08,5.316a2,2,0,0,0-2.16,3.368L22.16,15.33l-8.4,4.2A4.97,4.97,0,0,0,11.122,23L7.062,40.946a2.5,2.5,0,1,0,4.876,1.108l2.671-11.769,14.223-7.111,5.321,12.594a2,2,0,1,0,3.694-1.536Z" fill="#5a7a84"></path></svg>