<svg xmlns="http://www.w3.org/2000/svg" height="48" width="48" viewBox="0 0 48 48"><path d="M14.025,46.976a1,1,0,0,1-.707-.293l-1.035-1.035L1.318,34.683a1,1,0,0,1-.176-1.178C10.494,15.97,27.745-2.873,45.556,1.726a1,1,0,0,1,.718.719c4.6,17.818-14.245,35.062-31.779,44.413A1,1,0,0,1,14.025,46.976Z" fill="#bf8c5a"></path><path d="M7.317,40.683l38.7-38.7a1,1,0,0,0-.457-.261C27.745-2.873,10.494,15.97,1.142,33.505a1,1,0,0,0,.176,1.178Z" fill="#d0ab86"></path><path d="M8.024,41.39,46.4,3.016c-.044-.19-.075-.381-.124-.571a1,1,0,0,0-.718-.719c-.191-.049-.381-.08-.572-.124L6.61,39.976Z" fill="#7d5731"></path></svg>