<svg xmlns="http://www.w3.org/2000/svg" height="48" width="48" viewBox="0 0 48 48"><path d="M46,41a8.953,8.953,0,0,1-6.3-2.577,1,1,0,0,0-1.4,0q-.184.181-.379.352a8.979,8.979,0,0,1-12.669-.836.944.944,0,0,0-.1-.1.994.994,0,0,0-1.4.1,8.784,8.784,0,0,1-.841.841,8.971,8.971,0,0,1-12.659-.841.944.944,0,0,0-.1-.1.994.994,0,0,0-1.4.1A9.008,9.008,0,0,1,2,41H1v5a1,1,0,0,0,1,1H46a1,1,0,0,0,1-1V41Z" fill="#a0e6ee"></path><path d="M41,1a6.006,6.006,0,0,0-6,6v3H13V7a4,4,0,0,1,4-4,1,1,0,0,0,0-2,6.006,6.006,0,0,0-6,6V35a1,1,0,0,0,2,0V30H35v5a1,1,0,0,0,2,0V7a4,4,0,0,1,4-4,1,1,0,0,0,0-2ZM35,12v7H13V12ZM13,28V21H35v7Z" fill="#4d8b9d"></path></svg>