<svg xmlns="http://www.w3.org/2000/svg" height="48" width="48" viewBox="0 0 48 48"><path d="M45,34a2,2,0,0,1,2-2V29a2,2,0,0,1,0-4V22a2,2,0,0,1,0-4V15a2,2,0,0,1,0-4V8a1,1,0,0,0-1-1H40a2,2,0,0,1-4,0H2A1,1,0,0,0,1,8v3a2,2,0,0,1,0,4v3a2,2,0,0,1,0,4v3a2,2,0,0,1,0,4v3a2,2,0,0,1,0,4v4a1,1,0,0,0,1,1H36a2,2,0,0,1,4,0h6a1,1,0,0,0,1-1V36A2,2,0,0,1,45,34Z" fill="#a0d9f8"></path><path d="M31.917,33H8.083A1.044,1.044,0,0,1,7,32V16a1.044,1.044,0,0,1,1.083-1H31.917A1.044,1.044,0,0,1,33,16V32A1.044,1.044,0,0,1,31.917,33Z" fill="#3aace9"></path><path d="M38,17h0a1,1,0,0,1-1-1V14a1,1,0,0,1,1-1h0a1,1,0,0,1,1,1v2A1,1,0,0,1,38,17Z" fill="#43a6dd"></path><path d="M38,23h0a1,1,0,0,1-1-1V20a1,1,0,0,1,1-1h0a1,1,0,0,1,1,1v2A1,1,0,0,1,38,23Z" fill="#3aace9"></path><path d="M38,29h0a1,1,0,0,1-1-1V26a1,1,0,0,1,1-1h0a1,1,0,0,1,1,1v2A1,1,0,0,1,38,29Z" fill="#43a6dd"></path><path d="M38,35h0a1,1,0,0,1-1-1V32a1,1,0,0,1,1-1h0a1,1,0,0,1,1,1v2A1,1,0,0,1,38,35Z" fill="#43a6dd"></path></svg>