<svg xmlns="http://www.w3.org/2000/svg" height="48" width="48" viewBox="0 0 48 48"><path d="M44.053,29.451,36.534,27.4a1,1,0,0,1-.727-.823l-.159-1.108c4.286.65,6.689-.519,6.8-.573a1,1,0,0,0,.385-1.45A18.144,18.144,0,0,1,40,15V13.274A9.162,9.162,0,0,0,31.6,4.02,8.992,8.992,0,0,0,24.09,7.23a8.4,8.4,0,0,0-.978,1.455A11.382,11.382,0,0,1,27,17.274V19a16.391,16.391,0,0,0,2.5,7.336,3,3,0,0,1-1.157,4.349,7.309,7.309,0,0,1-.993.386l1.378.413A5.966,5.966,0,0,1,33,37.232V42a2.966,2.966,0,0,1-.184,1H46a1,1,0,0,0,1-1V33.31A4,4,0,0,0,44.053,29.451Z" fill="#335262"></path> <path d="M30,43H2a1,1,0,0,1-1-1V37.232A3.977,3.977,0,0,1,3.851,33.4l6.637-1.991a1,1,0,0,0,.7-.816l.162-1.125c-4.285.651-6.688-.519-6.8-.573a1,1,0,0,1-.385-1.45A18.144,18.144,0,0,0,7,19V17a9,9,0,0,1,9.6-8.98A9.162,9.162,0,0,1,25,17.274V19a18.144,18.144,0,0,0,2.832,8.445,1,1,0,0,1-.385,1.45c-.11.054-2.513,1.223-6.8.573l.162,1.125a1,1,0,0,0,.7.816L28.149,33.4A3.977,3.977,0,0,1,31,37.232V42A1,1,0,0,1,30,43Z" fill="#5a7a84"></path></svg>