<svg xmlns="http://www.w3.org/2000/svg" height="48" width="48" viewBox="0 0 48 48"><path d="M44.485,30.317,37.444,27.5a1,1,0,0,1-.617-.787l-.412-2.879A9.024,9.024,0,0,0,41,16V10.072a5.371,5.371,0,0,0-4.727-5.326L35.4,3a1.839,1.839,0,0,0-2.239-.9L27.774,4.025a7.38,7.38,0,0,0-3.7,3.194A7.348,7.348,0,0,1,27,13.072V19a10.927,10.927,0,0,1-.73,3.907,8.993,8.993,0,0,0,1.315.928l-.412,2.88a1,1,0,0,1-.617.786l-3.613,1.445,6.286,2.514A5.969,5.969,0,0,1,33,37.031V42a2.966,2.966,0,0,1-.184,1H46a1,1,0,0,0,1-1V34.031A3.981,3.981,0,0,0,44.485,30.317Z" fill="#335262"></path> <path d="M30,43H2a1,1,0,0,1-1-1V37.031a3.981,3.981,0,0,1,2.515-3.714L10.556,30.5a1,1,0,0,0,.617-.786l.412-2.88A9.024,9.024,0,0,1,7,19V13.8a7.612,7.612,0,0,1,4.774-6.778L17.162,5.1A1.841,1.841,0,0,1,19.4,6l.872,1.742A5.371,5.371,0,0,1,25,13.072V19a9.024,9.024,0,0,1-4.585,7.835l.412,2.879a1,1,0,0,0,.617.787l7.041,2.816A3.981,3.981,0,0,1,31,37.031V42A1,1,0,0,1,30,43Z" fill="#5a7a84"></path></svg>