<svg xmlns="http://www.w3.org/2000/svg" height="48" width="48" viewBox="0 0 48 48"><rect x="8" y="8" width="32" height="32" fill="#b7e3fc"></rect> <path d="M37.929,6.629l-2-5A1,1,0,0,0,35,1H13a1,1,0,0,0-.929.629l-2,5A1,1,0,0,0,11,8H37a1,1,0,0,0,.929-1.371Z" fill="#47b0ea"></path> <path d="M37.929,41.371l-2,5A1,1,0,0,1,35,47H13a1,1,0,0,1-.929-.629l-2-5A1,1,0,0,1,11,40H37a1,1,0,0,1,.929,1.371Z" fill="#47b0ea"></path> <path d="M36.5,42h-25A5.507,5.507,0,0,1,6,36.5v-25A5.507,5.507,0,0,1,11.5,6h25A5.507,5.507,0,0,1,42,11.5v25A5.507,5.507,0,0,1,36.5,42ZM11.5,9A2.5,2.5,0,0,0,9,11.5v25A2.5,2.5,0,0,0,11.5,39h25A2.5,2.5,0,0,0,39,36.5v-25A2.5,2.5,0,0,0,36.5,9Z" fill="#444"></path> <path d="M31.349,17.482a5.075,5.075,0,0,0-7.349.19,5.069,5.069,0,1,0-7.349,6.979L24,32l7.349-7.349a5.071,5.071,0,0,0,0-7.169Z" fill="#ed7064"></path></svg>