<svg xmlns="http://www.w3.org/2000/svg" height="48" width="48" viewBox="0 0 48 48"><rect x="8" y="8" width="32" height="32" fill="#b7e3fc"></rect> <path d="M37.929,6.629l-2-5A1,1,0,0,0,35,1H13a1,1,0,0,0-.929.629l-2,5A1,1,0,0,0,11,8H37a1,1,0,0,0,.929-1.371Z" fill="#47b0ea"></path> <path d="M37.929,41.371l-2,5A1,1,0,0,1,35,47H13a1,1,0,0,1-.929-.629l-2-5A1,1,0,0,1,11,40H37a1,1,0,0,1,.929,1.371Z" fill="#47b0ea"></path> <path d="M36.5,42h-25A5.507,5.507,0,0,1,6,36.5v-25A5.507,5.507,0,0,1,11.5,6h25A5.507,5.507,0,0,1,42,11.5v25A5.507,5.507,0,0,1,36.5,42ZM11.5,9A2.5,2.5,0,0,0,9,11.5v25A2.5,2.5,0,0,0,11.5,39h25A2.5,2.5,0,0,0,39,36.5v-25A2.5,2.5,0,0,0,36.5,9Z" fill="#444"></path> <path d="M45,23H33a1,1,0,0,0-.848.47L28.1,29.958l-7.2-14.4A1,1,0,0,0,20.048,15a.974.974,0,0,0-.9.469L14.445,23H3a1,1,0,0,0,0,2H15a1,1,0,0,0,.848-.47L19.9,18.042l7.2,14.405a1,1,0,0,0,.847.552H28a1,1,0,0,0,.848-.47L33.555,25H45a1,1,0,0,0,0-2Z" fill="#ed7064"></path></svg>