<svg xmlns="http://www.w3.org/2000/svg" height="48" width="48" viewBox="0 0 48 48"><circle cx="24" cy="16" r="5" fill="#5a7a84"></circle> <circle cx="12.5" cy="5.5" r="4.5" fill="#ea9860"></circle> <path d="M39.633,28.77,17.171,21.282,7.536,9.72a2,2,0,1,0-3.072,2.56L15.256,25.231l-5.13,15.391H22.459L26.468,28.6l11.9,3.966a1.975,1.975,0,0,0,.633.1,2,2,0,0,0,.633-3.9Z" fill="#5a7a84"></path> <path d="M46,47H2a1,1,0,0,1-1-1V39H2a9,9,0,0,0,6.749-3.061.994.994,0,0,1,1.4-.1.944.944,0,0,1,.1.1,8.971,8.971,0,0,0,12.659.841,8.784,8.784,0,0,0,.841-.841.994.994,0,0,1,1.4-.1.944.944,0,0,1,.1.1,8.979,8.979,0,0,0,12.669.836c.133-.114.26-.231.379-.352a1,1,0,0,1,1.4,0A8.952,8.952,0,0,0,46,39h1v7A1,1,0,0,1,46,47Z" fill="#9bced3"></path></svg>