<svg xmlns="http://www.w3.org/2000/svg" height="48" width="48" viewBox="0 0 48 48"><circle cx="23.998" cy="10.984" r="5" fill="#5a7a84"></circle> <path d="M44.158,5.368a2.074,2.074,0,0,0-2.647.293l-11.46,11.46A3,3,0,0,1,27.929,18H20.071a3,3,0,0,1-2.122-.879L6.489,5.661a2.074,2.074,0,0,0-2.647-.293,2,2,0,0,0-.474,2.788,2.066,2.066,0,0,0,.218.258L16.121,20.949A3,3,0,0,1,17,23.071V37a1,1,0,0,0,1,1H30a1,1,0,0,0,1-1V23.071a3,3,0,0,1,.879-2.122L44.414,8.414a2,2,0,0,0-.256-3.046Z" fill="#5a7a84"></path> <path d="M46,43H2a1,1,0,0,1-1-1V36a1,1,0,0,1,1-1,8.65,8.65,0,0,0,6.728-3.111,1.033,1.033,0,0,1,1.458-.086,1.163,1.163,0,0,1,.086.086A8.65,8.65,0,0,0,17,35a8.764,8.764,0,0,0,6.282-2.612,1.031,1.031,0,0,1,1.436,0A8.764,8.764,0,0,0,31,35a8.65,8.65,0,0,0,6.728-3.111,1.033,1.033,0,0,1,1.458-.086,1.163,1.163,0,0,1,.086.086A8.65,8.65,0,0,0,46,35a1,1,0,0,1,1,1v6A1,1,0,0,1,46,43Z" fill="#a4dae0"></path></svg>