<svg xmlns="http://www.w3.org/2000/svg" height="48" width="48" viewBox="0 0 48 48"><path d="M24,1A23,23,0,1,0,47,24,23.025,23.025,0,0,0,24,1Zm0,26a3,3,0,1,1,3-3A3,3,0,0,1,24,27Z" fill="#5b5b5b"></path> <path d="M24,44A20,20,0,1,1,44,24,20.023,20.023,0,0,1,24,44ZM24,6A18,18,0,1,0,42,24,18.021,18.021,0,0,0,24,6Z" fill="#444"></path> <path d="M30.312,28.9a7.95,7.95,0,0,0,0-9.8l4.395-4.395a1,1,0,0,0-1.414-1.414L28.9,17.688a7.95,7.95,0,0,0-9.8,0l-4.395-4.395a1,1,0,0,0-1.414,1.414L17.688,19.1a7.95,7.95,0,0,0,0,9.8l-4.395,4.395a1,1,0,1,0,1.414,1.414L19.1,30.312a7.95,7.95,0,0,0,9.8,0l4.395,4.395a1,1,0,0,0,1.414-1.414ZM24,30a6,6,0,1,1,6-6A6,6,0,0,1,24,30Z" fill="#444"></path></svg>