<svg xmlns="http://www.w3.org/2000/svg" height="48" width="48" viewBox="0 0 48 48"><path d="M46,13H2a1,1,0,0,1,0-2H46a1,1,0,0,1,0,2Z" fill="#b3b3b3"></path> <path d="M14,25a1,1,0,0,1-1-1V12a1,1,0,0,1,2,0V24A1,1,0,0,1,14,25Z" fill="#b3b3b3"></path> <path d="M34,25a1,1,0,0,1-1-1V12a1,1,0,0,1,2,0V24A1,1,0,0,1,34,25Z" fill="#b3b3b3"></path> <path d="M35,45a1,1,0,0,1-1-1V36a1,1,0,0,1,2,0v8A1,1,0,0,1,35,45Z" fill="#b3b3b3"></path> <path d="M13,45a1,1,0,0,1-1-1V36a1,1,0,0,1,2,0v8A1,1,0,0,1,13,45Z" fill="#b3b3b3"></path> <path d="M35,37H13a1,1,0,0,1-.848-1.53l4.412-7.06A2.986,2.986,0,0,1,19.108,27h9.784a2.986,2.986,0,0,1,2.544,1.41l4.412,7.06A1,1,0,0,1,35,37Z" fill="#444"></path> <path d="M5.5,21A1.5,1.5,0,0,1,4,19.5V4.5a1.5,1.5,0,0,1,3,0v15A1.5,1.5,0,0,1,5.5,21Z" fill="#444"></path> <path d="M42.5,21A1.5,1.5,0,0,1,41,19.5V4.5a1.5,1.5,0,0,1,3,0v15A1.5,1.5,0,0,1,42.5,21Z" fill="#444"></path></svg>