<svg xmlns="http://www.w3.org/2000/svg" height="48" width="48" viewBox="0 0 48 48"><path d="M37.592,46H10.408a1,1,0,0,1-.991-.867c-1.572-11.75.394-17.725,1.974-22.525A23.5,23.5,0,0,0,13,15,29.512,29.512,0,0,0,10.491,3.4,1,1,0,0,1,11.405,2H36.6a1,1,0,0,1,1,1,.988.988,0,0,1-.083.4A29.517,29.517,0,0,0,35,15a23.5,23.5,0,0,0,1.609,7.608c1.58,4.8,3.546,10.775,1.974,22.525A1,1,0,0,1,37.592,46Z" fill="#d0ab86"></path><circle cx="24" cy="17" r="1" fill="#bf8c5a"></circle><path d="M24,46a1,1,0,0,1-1-1V39a1,1,0,0,1,2,0v6A1,1,0,0,1,24,46Z" fill="#bf8c5a"></path><path d="M38.651,31.39l.107-.253A40.828,40.828,0,0,0,37.219,24.5l-.143-.161a.989.989,0,0,0-.907-.322A88.073,88.073,0,0,1,24,25a88.078,88.078,0,0,1-12.169-.987,1,1,0,0,0-.907.322l-.143.161a40.746,40.746,0,0,0-1.539,6.641l.107.253a1,1,0,0,0,.921.61c6.739,0,12.889,7.55,12.951,7.626a1,1,0,0,0,1.559,0C24.841,39.55,30.976,32,37.73,32A1,1,0,0,0,38.651,31.39Z" fill="#2a4b55"></path><path d="M5.83,12.125A.5.5,0,0,0,5,12.5V16H1a1,1,0,0,0,0,2H5v3.5a.5.5,0,0,0,.839.368l5-4.6a.5.5,0,0,0-.009-.744Z" fill="#6cc4f5"></path><path d="M47,16H43V12.5a.5.5,0,0,0-.3-.458.508.508,0,0,0-.54.09l-5,4.6a.5.5,0,0,0,.009.744l5,4.4A.5.5,0,0,0,42.5,22a.516.516,0,0,0,.206-.044A.5.5,0,0,0,43,21.5V18h4a1,1,0,0,0,0-2Z" fill="#6cc4f5"></path></svg>