<svg xmlns="http://www.w3.org/2000/svg" height="48" width="48" viewBox="0 0 48 48"><path d="M40.922,45.613C40.868,45.483,35.6,32.719,36.884,21H11.113C12.4,32.706,7.132,45.483,7.077,45.614A1,1,0,0,0,8,47H40a1,1,0,0,0,.922-1.387Z" fill="#87613e"></path> <path d="M30.388,26.784C29.053,25.077,24.05,25,24,25s-5.053.077-6.387,1.784a14.691,14.691,0,0,0-1.6,5.07,1,1,0,1,0,1.978.292,14.061,14.061,0,0,1,1.2-4.129C19.56,27.541,22.123,27,24,27s4.44.541,4.812,1.017a14.061,14.061,0,0,1,1.2,4.129A1,1,0,0,0,31,33a.918.918,0,0,0,.147-.011,1,1,0,0,0,.843-1.135A14.713,14.713,0,0,0,30.388,26.784Z" fill="#704928"></path> <path d="M29,36H27a1.883,1.883,0,0,1-2-2V31a1,1,0,0,0-2,0v3a1.883,1.883,0,0,1-2,2H19a1,1,0,0,0,0,2h2a3.767,3.767,0,0,0,3-1.3A3.767,3.767,0,0,0,27,38h2a1,1,0,0,0,0-2Z" fill="#704928"></path> <circle cx="24" cy="41.5" r="1.5" fill="#704928"></circle> <path d="M42.49,8.47,40.228,1.684A1,1,0,0,0,39.279,1H33.932a.989.989,0,0,0-.984.866C32.462,5.877,28.641,9,24,9s-8.462-3.123-8.948-7.134A.989.989,0,0,0,14.068,1H8.721a1,1,0,0,0-.949.684L5.51,8.47A8,8,0,0,0,13.1,19H34.9A8,8,0,0,0,42.49,8.47Z" fill="#335262"></path></svg>