<svg xmlns="http://www.w3.org/2000/svg" height="48" width="48" viewBox="0 0 48 48"><path d="M2,40.988a2,2,0,0,0,2,2H44a2,2,0,0,0,2-2v-26H2Z" fill="#e6e6e6"></path> <path d="M44,4.988H4a2,2,0,0,0-2,2v8H46v-8A2,2,0,0,0,44,4.988Z" fill="#ed7064"></path> <path d="M10,9.988v-8a1,1,0,0,1,1-1h2a1,1,0,0,1,1,1v8a1,1,0,0,1-1,1H11A1,1,0,0,1,10,9.988Z" fill="#444"></path> <path d="M34,9.988v-8a1,1,0,0,1,1-1h2a1,1,0,0,1,1,1v8a1,1,0,0,1-1,1H35A1,1,0,0,1,34,9.988Z" fill="#444"></path> <rect x="16" y="35" width="32" height="3.822" rx="1" ry="1" fill="#b3b3b3"></rect> <rect x="18" y="30" width="4" height="14" rx="1" ry="1" fill="#5b5b5b"></rect> <rect x="42" y="30" width="4" height="14" rx="1" ry="1" fill="#5b5b5b"></rect> <rect x="22" y="27" width="4" height="20" rx="1" ry="1" fill="#444"></rect> <rect x="38" y="27" width="4" height="20" rx="1" ry="1" fill="#444"></rect></svg>