<svg xmlns="http://www.w3.org/2000/svg" height="24" width="24" viewBox="0 0 24 24"><path d="M9.414,16.414h0L6,13a1.471,1.471,0,0,0-2,0,1.417,1.417,0,0,0,0,2l3,3a.5.5,0,1,1-.707.707l-3-3A2.417,2.417,0,0,1,3,12.652V8.5a1.5,1.5,0,0,0-3,0v6.8a2,2,0,0,0,.438,1.25L4,21v3h6V17.828a2,2,0,0,0-.586-1.414Z" fill="#61616b"></path> <path d="M14.586,16.414h0L18,13a1.471,1.471,0,0,1,2,0,1.417,1.417,0,0,1,0,2l-3,3a.5.5,0,1,0,.707.707l3-3A2.417,2.417,0,0,0,21,12.652V8.5a1.5,1.5,0,0,1,3,0v6.8a2,2,0,0,1-.438,1.25L20,21v3H14V17.828a2,2,0,0,1,.586-1.414Z" fill="#61616b"></path> <path data-color="color-2" d="M16,6.784c0-2.312-2.733-5.4-3.281-6L12,0l-.719.782c-.548.6-3.281,3.69-3.281,6A4.067,4.067,0,0,0,12,11,4.067,4.067,0,0,0,16,6.784Z" fill="#61616b"></path></svg>