<svg xmlns="http://www.w3.org/2000/svg" height="24" width="24" viewBox="0 0 24 24"><path d="M17,22H13V15.121a3.025,3.025,0,0,1-.54-.6L12.116,14h-.233l-.343.522a3.025,3.025,0,0,1-.54.6V22H7a1,1,0,0,0,0,2H17a1,1,0,0,0,0-2Z" fill="#61616b"></path><path d="M20.455,13.749l-3.831-3.366a.984.984,0,0,0-.6-.247L14,10.014V10a1.99,1.99,0,0,0-1.016-1.731L13.9,6.447A1,1,0,0,0,13.98,5.8l-1-5a1,1,0,0,0-1.96,0l-1,5a1,1,0,0,0,.085.643l.911,1.822A1.99,1.99,0,0,0,10,10v.014l-2.025.122a.984.984,0,0,0-.6.247L3.545,13.749a1,1,0,0,0,.981,1.7l4.83-1.634a1,1,0,0,0,.515-.4l1.121-1.7a1.943,1.943,0,0,0,2.016,0l1.121,1.7a1,1,0,0,0,.515.4l4.83,1.634a1,1,0,0,0,.981-1.7Z" fill="#61616b" data-color="color-2"></path></svg>