<svg xmlns="http://www.w3.org/2000/svg" height="24" width="24" viewBox="0 0 24 24"><polygon data-color="color-2" fill="#61616b" points="23,4 18,0 18,3 1,3 1,5 18,5 18,8 "></polygon> <path fill="#61616b" d="M7,24V11.5C7,10.11929,8.11929,9,9.5,9H9.5c1.38071,0,2.5,1.11929,2.5,2.5V24H7z"></path> <path fill="#61616b" d="M13,24V13.5c0-1.38071,1.11929-2.5,2.5-2.5H15.5c1.38071,0,2.5,1.11929,2.5,2.5V24H13z"></path> <path fill="#61616b" d="M19,24v-8.5c0-1.38071,1.11929-2.5,2.5-2.5h0c1.38071,0,2.5,1.11929,2.5,2.5V24H19z"></path> <path fill="#61616b" d="M1,24V13.5C1,12.11929,2.11929,11,3.5,11h0C4.88071,11,6,12.11929,6,13.5V24H1z"></path></svg>