<svg xmlns="http://www.w3.org/2000/svg" height="24" width="24" viewBox="0 0 24 24"><polygon data-color="color-2" fill="#61616b" points="12,0 16,5 13,5 13,9 11,9 11,5 8,5 "></polygon> <path fill="#61616b" d="M7,24V13.5C7,12.11929,8.11929,11,9.5,11H9.5c1.38071,0,2.5,1.11929,2.5,2.5V24H7z"></path> <path fill="#61616b" d="M13,24v-8.5c0-1.38071,1.11929-2.5,2.5-2.5H15.5c1.38071,0,2.5,1.11929,2.5,2.5V24H13z"></path> <path fill="#61616b" d="M19,24v-6.5c0-1.38071,1.11929-2.5,2.5-2.5h0c1.38071,0,2.5,1.11929,2.5,2.5V24H19z"></path> <path fill="#61616b" d="M1,24v-8.5C1,14.11929,2.11929,13,3.5,13h0C4.88071,13,6,14.11929,6,15.5V24H1z"></path></svg>