<svg xmlns="http://www.w3.org/2000/svg" height="24" width="24" viewBox="0 0 24 24"> <path d="M10 20H4C2.89543 20 2 19.1046 2 18V5C2 3.89543 2.89543 3 4 3H10L13 6H20C21.1046 6 22 6.89543 22 8V9" stroke="#61616b" stroke-width="2" fill="none"></path> <path d="M22 14V14C21.0044 13.6681 20.0576 13.205 19.1844 12.6229L19 12.5V19.5V19" stroke="#61616b" stroke-width="2" data-color="color-2" fill="none"></path> <path d="M16.5 22C17.8807 22 19 20.8807 19 19.5C19 18.1193 17.8807 17 16.5 17C15.1193 17 14 18.1193 14 19.5C14 20.8807 15.1193 22 16.5 22Z" stroke="#61616b" stroke-width="2" data-color="color-2" fill="none"></path></svg>