<svg xmlns="http://www.w3.org/2000/svg" height="24" width="24" viewBox="0 0 24 24"> <path d="M4 4L4 20C4 21.1046 4.89543 22 6 22L18 22C19.1046 22 20 21.1046 20 20L20 4C20 2.89543 19.1046 2 18 2L6 2C4.89543 2 4 2.89543 4 4Z" stroke="#61616b" stroke-width="2" fill="none"></path> <path d="M10 13L15.5 16L10 19V13Z" fill="#61616b" data-stroke="none" stroke="none"></path> <path d="M10 10V6" stroke="#61616b" stroke-width="2" data-color="color-2" fill="none"></path> <path d="M12 10L12 9" stroke="#61616b" stroke-width="2" data-color="color-2" fill="none"></path> <path d="M8 10L8 8" stroke="#61616b" stroke-width="2" data-color="color-2" fill="none"></path> <path d="M16 10L16 9.99" stroke="#61616b" stroke-width="2" data-color="color-2" fill="none"></path> <path d="M14 10V7" stroke="#61616b" stroke-width="2" data-color="color-2" fill="none"></path></svg>