<svg xmlns="http://www.w3.org/2000/svg" height="48" width="48" viewBox="0 0 48 48"><path d="M8.771,15.271,1.965,16.828a1,1,0,0,0-.75,1.2l1.571,6.822a1,1,0,0,0,.974.775,1.021,1.021,0,0,0,.225-.025L10.854,24Z" fill="#949494"></path><path d="M40.188,19.312,37.167,6.667,8.452,13.281a1,1,0,0,0-.75,1.2l2.47,10.72a1,1,0,0,0,.974.776.972.972,0,0,0,.225-.026Z" fill="#aeaeae"></path><path d="M13,45a1,1,0,0,1-.885-1.464l7.858-15a1,1,0,1,1,1.771.928l-7.857,15A1,1,0,0,1,13,45Z" fill="#363636"></path><path d="M46.785,19.845,42.97,3.278a1,1,0,0,0-1.2-.75L35.924,3.875a1,1,0,0,0-.75,1.2l3.815,16.567a1,1,0,0,0,.975.775,1.061,1.061,0,0,0,.224-.025l5.847-1.347A1,1,0,0,0,46.785,19.845Z" fill="#c8c8c8"></path><circle cx="24" cy="23" r="3" fill="#fff"></circle><path d="M35.886,43.536,26.675,25.953a4.055,4.055,0,1,0-1.768.934l9.207,17.577A1,1,0,0,0,35,45a1,1,0,0,0,.885-1.464ZM22,23a2,2,0,1,1,2,2A2,2,0,0,1,22,23Z" fill="#363636"></path></svg>