<svg xmlns="http://www.w3.org/2000/svg" height="48" width="48" viewBox="0 0 48 48"><path d="M41.345,31l3.789-6.5a1.008,1.008,0,0,0,0-1.008L41.345,17l3.789-6.5A1,1,0,0,0,43.405,9.5L39.612,16H32.594l-3.5-6,3.79-6.5A1,1,0,0,0,31.155,2.5L27.362,9H20.344L16.551,2.5A1,1,0,0,0,14.822,3.5l3.79,6.5-3.5,6H8.094L4.3,9.5A1,1,0,0,0,2.572,10.5l4.083,7a1,1,0,0,0,.865.5h7.592l3.5,6-3.5,6H7.52a1,1,0,0,0-.865.5l-4.083,7a1.008,1.008,0,0,0,0,1.008l4.083,7a1,1,0,0,0,.865.5h8.167a1,1,0,0,0,.864-.5L20.344,39h7.018l3.793,6.5A1,1,0,0,0,32.884,44.5L29.094,38l3.5-6h7.018l3.793,6.5A1,1,0,0,0,45.134,37.5Zm-21,6-3.5-6,3.5-6h7.018l3.5,6-3.5,6Z" fill="#1fd6aa"></path><path d="M18,18a1,1,0,0,1-.863-1.5l2.916-5a1,1,0,0,1,.864-.5h5.87a1,1,0,0,1,0,2h-5.3l-2.626,4.5A1,1,0,0,1,18,18Z" fill="#d1faf0"></path><path d="M5.751,39a1,1,0,0,1-.863-1.5l2.916-5a1,1,0,0,1,.864-.5h5.87a1,1,0,0,1,0,2h-5.3L6.616,38.5A1,1,0,0,1,5.751,39Z" fill="#d1faf0"></path><path d="M30.251,25a1,1,0,0,1-.863-1.5l2.916-5a1,1,0,0,1,.864-.5h5.87a1,1,0,0,1,0,2h-5.3l-2.626,4.5A1,1,0,0,1,30.251,25Z" fill="#d1faf0"></path></svg>