<svg xmlns="http://www.w3.org/2000/svg" height="48" width="48" viewBox="0 0 48 48"><path d="M23.242,14.758a14.362,14.362,0,0,0-4.051-.567,4.954,4.954,0,0,0-1.818.354L32.986,30.158l1.256-4.4Z" fill="#96f2dc"></path><path d="M14.409,19.409a14.377,14.377,0,0,0,.573,4.057L25.758,34.242l4.135-1.521-15.13-15.13A4.954,4.954,0,0,0,14.409,19.409Z" fill="#96f2dc"></path><path d="M29.185,4.184a14.379,14.379,0,0,0,.573,4.058l11,11,4.135-1.521L29.539,2.367A4.953,4.953,0,0,0,29.185,4.184Z" fill="#96f2dc"></path><path d="M18.851,43.851a14.357,14.357,0,0,0-.555-3.99L7.6,29.162c-1.354-.387-1.65.429-3.055.429a4.945,4.945,0,0,0-1.817.354L18.483,45.7A4.954,4.954,0,0,0,18.851,43.851Z" fill="#96f2dc"></path><path d="M26,35c-4.217,0-7.113-1.316-9.914-2.59C13.359,31.171,10.783,30,7,30a7,7,0,0,0-5.249,2.382,1,1,0,0,1-1.5-1.322A9,9,0,0,1,7,28c4.217,0,7.113,1.316,9.914,2.59C19.641,31.829,22.217,33,26,33a7.009,7.009,0,0,0,7-7c0-3.783-1.171-6.359-2.41-9.086C29.316,14.113,28,11.217,28,7A9,9,0,0,1,31.06.249a1,1,0,0,1,1.322,1.5A7,7,0,0,0,30,7c0,3.783,1.171,6.359,2.41,9.086C33.684,18.887,35,21.783,35,26A9.01,9.01,0,0,1,26,35Z" fill="#1fd6aa"></path><path d="M30.076,8.56l2.5,2.5A14.39,14.39,0,0,1,32,7a4.948,4.948,0,0,1,.354-1.818l-1.5-1.5A6.956,6.956,0,0,0,30,7C30,7.546,30.03,8.06,30.076,8.56Z" fill="#d1faf0"></path><path d="M7,30a6.957,6.957,0,0,0-3.351.87l1.5,1.5A4.95,4.95,0,0,1,7,32a14.363,14.363,0,0,1,3.99.555L8.505,30.069C8.022,30.027,7.525,30,7,30Z" fill="#d1faf0"></path><path d="M16.279,48a1,1,0,0,1-.661-1.751A7,7,0,0,0,18,41c0-3.783-1.171-6.359-2.41-9.086C14.316,29.113,13,26.217,13,22a9.01,9.01,0,0,1,9-9c4.217,0,7.113,1.316,9.914,2.59C34.641,16.829,37.217,18,41,18a7,7,0,0,0,5.249-2.382,1,1,0,1,1,1.5,1.322A9,9,0,0,1,41,20c-4.217,0-7.113-1.316-9.914-2.59C28.359,16.171,25.783,15,22,15a7.009,7.009,0,0,0-7,7c0,3.783,1.171,6.359,2.41,9.086C18.684,33.887,20,36.783,20,41a9,9,0,0,1-3.06,6.751A1,1,0,0,1,16.279,48Z" fill="#1fd6aa"></path><path d="M22,15a6.95,6.95,0,0,0-3.328.844l1.51,1.51A4.954,4.954,0,0,1,22,17a14.42,14.42,0,0,1,4.058.573l-2.5-2.5C23.061,15.03,22.546,15,22,15Z" fill="#d1faf0"></path><path d="M17.354,20.182l-1.51-1.51A6.95,6.95,0,0,0,15,22c0,.546.03,1.061.076,1.56l2.5,2.5A14.426,14.426,0,0,1,17,22,4.954,4.954,0,0,1,17.354,20.182Z" fill="#d1faf0"></path><path d="M15.59,31.914c-.348-.765-.7-1.541-1.023-2.346a24.65,24.65,0,0,0-2.443-.849c.285.845.6,1.642.925,2.4.92.341,1.8.735,2.7,1.14Z" fill="#23be98"></path><path d="M30.745,17.258l-.155-.344c-.348-.765-.7-1.541-1.024-2.346a24.541,24.541,0,0,0-2.442-.849c.285.845.6,1.642.925,2.4C28.969,16.459,29.853,16.853,30.745,17.258Z" fill="#23be98"></path></svg>