<svg xmlns="http://www.w3.org/2000/svg" height="48" width="48" style="" viewBox="0 0 48 48"><path d="M45 43.9919H3C1.895 43.9919 1 43.0969 1 41.9919V7.99194C1 6.88694 1.895 5.99194 3 5.99194H45C46.105 5.99194 47 6.88694 47 7.99194V41.9919C47 43.0969 46.105 43.9919 45 43.9919Z" fill="url(#nc-ui-7-0_linear_219_190)"></path><path d="M24 38.9919C24 38.9919 19.18 37.0959 7 36.9959C6.45 36.9919 6 36.5479 6 35.9969V4.99194C18.917 4.99194 24 6.99194 24 6.99194V38.9919Z" fill="url(#nc-ui-7-1_linear_219_190)"></path><path d="M24 38.9919C24 38.9919 28.82 37.0959 41 36.9959C41.55 36.9919 42 36.5479 42 35.9969V4.99194C29.083 4.99194 24 6.99194 24 6.99194V38.9919Z" fill="url(#nc-ui-7-2_linear_219_190)"></path><path d="M24 37.9919C24 37.9919 17.28 34.1969 4.994 33.9999C4.447 33.9909 4 33.5519 4 33.0049V3.00489C4 2.44789 4.463 1.99089 5.02 2.00089C17.289 2.20289 24 5.99289 24 5.99289V37.9919Z" fill="url(#nc-ui-7-3_linear_219_190)"></path><path d="M24 37.9919C24 37.9919 30.72 34.1969 43.006 33.9999C43.553 33.9909 44 33.5519 44 33.0049V3.00489C44 2.44789 43.537 1.99089 42.98 2.00089C30.711 2.20289 24 5.99289 24 5.99289V37.9919Z" fill="url(#nc-ui-7-4_linear_219_190)"></path><defs><linearGradient id="nc-ui-7-0_linear_219_190" x1="24" y1="5.99194" x2="24" y2="43.9919" gradientUnits="userSpaceOnUse"><stop stop-color="#5B5E71"></stop><stop offset="1" stop-color="#393A46"></stop></linearGradient><linearGradient id="nc-ui-7-1_linear_219_190" x1="15" y1="4.99194" x2="15" y2="38.9919" gradientUnits="userSpaceOnUse"><stop stop-color="#C2C3CD"></stop><stop offset="1" stop-color="#A2A3B4"></stop></linearGradient><linearGradient id="nc-ui-7-2_linear_219_190" x1="33" y1="4.99194" x2="33" y2="38.9919" gradientUnits="userSpaceOnUse"><stop stop-color="#A2A3B4"></stop><stop offset="1" stop-color="#83849B"></stop></linearGradient><linearGradient id="nc-ui-7-3_linear_219_190" x1="14" y1="2.00073" x2="14" y2="37.9919" gradientUnits="userSpaceOnUse"><stop stop-color="#E0E0E6"></stop><stop offset="1" stop-color="#C2C3CD"></stop></linearGradient><linearGradient id="nc-ui-7-4_linear_219_190" x1="34" y1="2.00073" x2="34" y2="37.9919" gradientUnits="userSpaceOnUse"><stop stop-color="#C2C3CD"></stop><stop offset="1" stop-color="#A2A3B4"></stop></linearGradient></defs></svg>