<svg xmlns="http://www.w3.org/2000/svg" height="48" width="48" style="" viewBox="0 0 48 48"><path d="M24 46C36.1503 46 46 42.6421 46 38.5C46 34.3579 36.1503 31 24 31C11.8497 31 2 34.3579 2 38.5C2 42.6421 11.8497 46 24 46Z" fill="url(#nc-ui-7-0_linear_219_15)"></path><path d="M24 41C27.3137 41 30 38.3137 30 35C30 31.6863 27.3137 29 24 29C20.6863 29 18 31.6863 18 35C18 38.3137 20.6863 41 24 41Z" fill="url(#nc-ui-7-1_linear_219_15)"></path><path d="M40 27.336V17C40 8.163 32.837 1 24 1C15.163 1 8 8.163 8 17V27.362C3.595 29.537 0.860995 34.079 0.999995 38.989V39.028C1.04899 44.019 12.718 47 24 47C35.282 47 47 44.008 47 39C47.162 34.074 44.423 29.51 40 27.336ZM24 45C11.183 45 2.99999 41.446 2.99999 39C2.99999 36.554 11.181 33 24 33C36.819 33 45 36.554 45 39C45 41.446 36.822 45 24 45Z" fill="url(#nc-ui-7-2_linear_219_15)"></path><defs><linearGradient id="nc-ui-7-0_linear_219_15" x1="24" y1="31" x2="24" y2="46" gradientUnits="userSpaceOnUse"><stop stop-color="#C88509"></stop><stop offset="1" stop-color="#976507"></stop></linearGradient><linearGradient id="nc-ui-7-1_linear_219_15" x1="24" y1="29" x2="24" y2="41" gradientUnits="userSpaceOnUse"><stop stop-color="#F6B828"></stop><stop offset="1" stop-color="#C88509"></stop></linearGradient><linearGradient id="nc-ui-7-2_linear_219_15" x1="24.0009" y1="1" x2="24.0009" y2="47" gradientUnits="userSpaceOnUse"><stop stop-color="#FFD36E"></stop><stop offset="1" stop-color="#F6B828"></stop></linearGradient></defs></svg>