<svg xmlns="http://www.w3.org/2000/svg" height="48" width="48" style="" viewBox="0 0 48 48"><path d="M45 26C41.669 26 39.437 28.876 37.451 32.206C36.303 28.773 34.688 26 32 26C30.625 26 29.425 27.16 29.293 27.293C28.903 27.683 28.903 28.312 29.293 28.703C29.679 29.093 30.312 29.096 30.705 28.71C30.996 28.424 31.609 28 32.001 28C33.629 28 34.119 31.849 35.001 35C35.093 35.327 35.19 35.656 35.289 35.985C33.954 38.296 32.554 40.445 30.908 41.429C30.661 40.604 29.906 40 29.001 40C27.896 40 27.001 40.895 27.001 42C27.001 43.105 27.896 44 29.001 44C32.109 44 34.26 41.494 36.148 38.454C37.372 41.5 39.146 44 42.001 44C43.376 44 44.576 42.84 44.708 42.707C45.098 42.317 45.098 41.688 44.708 41.297C44.322 40.907 43.689 40.904 43.296 41.29C43.005 41.576 42.392 42 42 42C39.798 42 39.165 38.434 38.23 34.855C39.711 32.237 41.248 29.674 43.092 28.57C43.339 29.395 44.094 29.999 44.999 29.999C46.104 29.999 46.999 29.104 46.999 27.999C46.999 26.894 46.104 25.999 44.999 25.999L45 26Z" fill="url(#nc-equation-0_linear_407_2)"></path> <path d="M45 3H29.703C28.859 3 28.106 3.53 27.821 4.324L15.008 40.018L9.944 25.668C9.803 25.268 9.425 25 9 25H3C2.447 25 2 25.447 2 26C2 26.553 2.447 27 3 27H8.293L14.057 43.333C14.199 43.731 14.575 43.999 14.997 44H16.422C17.266 44 18.019 43.47 18.304 42.676L31.828 5H45C45.553 5 46 4.553 46 4C46 3.447 45.553 3 45 3Z" fill="url(#nc-equation-1_linear_407_2)"></path> <defs> <linearGradient id="nc-equation-0_linear_407_2" x1="37" y1="25.999" x2="37" y2="44" gradientUnits="userSpaceOnUse"> <stop stop-color="#A2A3B4"></stop> <stop offset="1" stop-color="#83849B"></stop> </linearGradient> <linearGradient id="nc-equation-1_linear_407_2" x1="24" y1="3" x2="24" y2="44" gradientUnits="userSpaceOnUse"> <stop stop-color="#5B5E71"></stop> <stop offset="1" stop-color="#393A46"></stop> </linearGradient> </defs></svg>