<svg xmlns="http://www.w3.org/2000/svg" height="48" width="48" viewBox="0 0 48 48"><path d="M32.854,9.178c-.843,1.013.307,3.431,0,4.919-.409,1.983-1.967,2.952-.984,3.935.521.521,1.983,2.052,8.024,3.711a15.974,15.974,0,0,0-4.58-13.057c-.254-.253-.516-.492-.782-.725A4.389,4.389,0,0,0,32.854,9.178Z" fill="#49c549"></path><path d="M11.211,20.984a4.963,4.963,0,0,0,3.935-3.935c.326-1.7.078-4.013.984-4.919,1.2-1.2,4.569,1.28,6.886.983,2.048-.261,3.12-3.282,3.417-4.456a14.836,14.836,0,0,0,.083-4.448A15.971,15.971,0,0,0,8.049,21.09,13.267,13.267,0,0,0,11.211,20.984Z" fill="#49c549"></path><path d="M39.894,21.743c-6.041-1.659-7.5-3.19-8.024-3.711-.983-.983.575-1.952.984-3.935.307-1.488-.843-3.906,0-4.919a4.389,4.389,0,0,1,1.678-1.217,15.9,15.9,0,0,0-8.016-3.752,14.835,14.835,0,0,1-.083,4.448c-.3,1.174-1.369,4.2-3.417,4.456-2.317.3-5.682-2.187-6.886-.983-.906.906-.658,3.222-.984,4.919a4.962,4.962,0,0,1-3.935,3.935,13.313,13.313,0,0,1-3.162.107,15.987,15.987,0,0,0,31.845.652ZM18.1,27.87c-.492-2.459,2.542-2.049,5.028-6.967,1.04-2.057,4.493-1.41,6.4.492s2.1,4.743.492,6.394C27.019,30.864,18.7,30.879,18.1,27.87Z" fill="#c2eff4"></path><path d="M29.52,21.4c-1.9-1.9-5.355-2.549-6.395-.492-2.486,4.918-5.52,4.508-5.028,6.967.6,3.009,8.922,2.994,11.915-.081C31.62,26.138,31.422,23.3,29.52,21.4Z" fill="#49c549"></path><path d="M45,19.992A20.892,20.892,0,0,0,39.534,5.879l3.173-3.172a1,1,0,0,0-1.415-1.414l-3.18,3.18a21.192,21.192,0,0,0-2.657-2.062,1,1,0,1,0-1.093,1.674A18.989,18.989,0,1,1,10.6,33.445c-.008-.008-.01-.019-.018-.027s-.018-.01-.026-.017a19.091,19.091,0,0,1-2.2-2.643,1,1,0,1,0-1.647,1.136,21.049,21.049,0,0,0,1.768,2.214L5.292,37.292a1,1,0,0,0,1.415,1.415l3.185-3.186A20.98,20.98,0,0,0,23,40.936V45H16a1,1,0,0,0,0,2H32a1,1,0,0,0,0-2H25V40.933A21,21,0,0,0,45,19.992Z" fill="#bf8c5a"></path></svg>