<svg xmlns="http://www.w3.org/2000/svg" height="48" width="48" viewBox="0 0 48 48"><path d="M18.222,4.222A11,11,0,0,1,33.778,19.778l-14,14A11,11,0,0,1,4.222,18.222Z" fill="#f888c0"></path><path d="M33.778,4.222a11,11,0,0,0-15.556,0l-7,7L26.778,26.778l7-7A11,11,0,0,0,33.778,4.222Z" fill="#ffe699"></path><circle cx="34" cy="34" r="13" fill="#e3e3e3"></circle><path d="M6.343,32.657a.993.993,0,0,1-.707-.293,9.01,9.01,0,0,1,0-12.728A1,1,0,0,1,7.05,21.05a7.009,7.009,0,0,0,0,9.9,1,1,0,0,1-.707,1.707Z" fill="#fddded"></path><path d="M27,42a1,1,0,0,1-.707-1.707l14-14a1,1,0,0,1,1.414,1.414l-14,14A1,1,0,0,1,27,42Z" fill="#c8c8c8"></path></svg>