<svg xmlns="http://www.w3.org/2000/svg" height="48" width="48" style="" viewBox="0 0 48 48"><path d="M38 34C42.4183 34 46 26.8366 46 18C46 9.16344 42.4183 2 38 2C33.5817 2 30 9.16344 30 18C30 26.8366 33.5817 34 38 34Z" fill="url(#nc-ui-4-0_linear_143_201)"></path> <path d="M19.25 26.938L9.375 23.438L17.947 44.552C18.769 46.548 21.053 47.5 23.048 46.678C25.021 45.866 25.978 43.621 25.198 41.635L19.25 26.938Z" fill="url(#nc-ui-4-1_linear_143_201)"></path> <path d="M40 18C40 14.134 36.866 11 33 11C32.201 11 31.437 11.14 30.721 11.387C30.262 13.405 30 15.639 30 18C30 20.361 30.262 22.596 30.721 24.613C31.436 24.859 32.201 25 33 25C36.866 25 40 21.866 40 18Z" fill="url(#nc-ui-4-2_linear_143_201)"></path> <path d="M38 1C37.327 1.063 36.662 1.197 36.017 1.4L6.09401 11.32C2.76301 12.4 1.00001 14.71 1.00001 17.958C0.847015 21.198 2.96901 24.107 6.10001 24.952L36.08 34.619C36.69 34.867 37.342 34.996 38 35C43.047 35 47 27.533 47 18C47 8.467 43.049 1 38 1ZM38 33C34.206 33 31 26.131 31 18C31 9.869 34.208 3 38 3C41.792 3 45 9.869 45 18C45 26.131 41.8 33 38 33Z" fill="url(#nc-ui-4-3_linear_143_201)"></path> <defs> <linearGradient id="nc-ui-4-0_linear_143_201" x1="38" y1="2" x2="38" y2="34" gradientUnits="userSpaceOnUse"> <stop stop-color="#C2C3CD"></stop> <stop offset="1" stop-color="#A2A3B4"></stop> </linearGradient> <linearGradient id="nc-ui-4-1_linear_143_201" x1="17.4222" y1="23.438" x2="17.4222" y2="46.9734" gradientUnits="userSpaceOnUse"> <stop stop-color="#C2C3CD"></stop> <stop offset="1" stop-color="#A2A3B4"></stop> </linearGradient> <linearGradient id="nc-ui-4-2_linear_143_201" x1="35" y1="11" x2="35" y2="25" gradientUnits="userSpaceOnUse"> <stop stop-color="#A2A3B4"></stop> <stop offset="1" stop-color="#83849B"></stop> </linearGradient> <linearGradient id="nc-ui-4-3_linear_143_201" x1="23.9961" y1="1" x2="23.9961" y2="35" gradientUnits="userSpaceOnUse"> <stop stop-color="#E0E0E6"></stop> <stop offset="1" stop-color="#C2C3CD"></stop> </linearGradient> </defs></svg>