<svg xmlns="http://www.w3.org/2000/svg" height="48" width="48" style="" viewBox="0 0 48 48"><path d="M11.665 36.25L34.958 12.957L40.708 18.707L17.522 41.894L11.665 36.25Z" fill="url(#nc-ui-4-0_linear_143_230)"></path> <path d="M6.11096 30.475L29.294 7.29297L35.044 13.043L11.751 36.336L6.11096 30.475Z" fill="url(#nc-ui-4-1_linear_143_230)"></path> <path d="M44.829 8.92901L39.071 3.17101C37.509 1.60901 34.977 1.60901 33.415 3.17101L29.001 7.58601L40.415 19L44.829 14.585C46.391 13.023 46.391 10.491 44.829 8.92901Z" fill="url(#nc-ui-4-2_linear_143_230)"></path> <path d="M6.11101 30.4751L2.03901 44.7251C1.88701 45.2561 2.19401 45.8101 2.72501 45.9611C2.81501 45.9871 2.90701 46.0001 3.00101 46.0001C3.09401 46.0001 3.18601 45.9871 3.27501 45.9611L17.522 41.8931L6.11101 30.4751Z" fill="url(#nc-ui-4-3_linear_143_230)"></path> <path d="M3.30301 40.302L2.03901 44.725C1.88701 45.256 2.19401 45.81 2.72501 45.961C2.81501 45.987 2.90701 46 3.00101 46C3.09401 46 3.18601 45.987 3.27501 45.961L7.69901 44.698L3.30301 40.302Z" fill="url(#nc-ui-4-4_linear_143_230)"></path> <defs> <linearGradient id="nc-ui-4-0_linear_143_230" x1="26.1865" y1="12.957" x2="26.1865" y2="41.894" gradientUnits="userSpaceOnUse"> <stop stop-color="#F6B828"></stop> <stop offset="1" stop-color="#C88509"></stop> </linearGradient> <linearGradient id="nc-ui-4-1_linear_143_230" x1="20.5775" y1="7.29297" x2="20.5775" y2="36.336" gradientUnits="userSpaceOnUse"> <stop stop-color="#FFD36E"></stop> <stop offset="1" stop-color="#F6B828"></stop> </linearGradient> <linearGradient id="nc-ui-4-2_linear_143_230" x1="37.5007" y1="1.99951" x2="37.5007" y2="19" gradientUnits="userSpaceOnUse"> <stop stop-color="#C88509"></stop> <stop offset="1" stop-color="#976507"></stop> </linearGradient> <linearGradient id="nc-ui-4-3_linear_143_230" x1="9.76107" y1="30.4751" x2="9.76107" y2="46.0001" gradientUnits="userSpaceOnUse"> <stop stop-color="#FFF0CC"></stop> <stop offset="1" stop-color="#FFE39E"></stop> </linearGradient> <linearGradient id="nc-ui-4-4_linear_143_230" x1="4.84957" y1="40.302" x2="4.84957" y2="46" gradientUnits="userSpaceOnUse"> <stop stop-color="#C88509"></stop> <stop offset="1" stop-color="#976507"></stop> </linearGradient> </defs></svg>