<svg xmlns="http://www.w3.org/2000/svg" height="48" width="48" viewBox="0 0 48 48"><rect x="2" y="4" width="44" height="4" rx="1" fill="#6cc4f5"></rect><path d="M22,34a1,1,0,0,1-1-1V11a1,1,0,0,1,2,0V33A1,1,0,0,1,22,34Z" fill="#212121"></path><path d="M9,34a1,1,0,0,1-1-1V11a1,1,0,0,1,2,0V33A1,1,0,0,1,9,34Z" fill="#212121"></path><path d="M40.356,33.338a1,1,0,0,1-.968-.757L34.03,11.243a1,1,0,1,1,1.94-.486L41.327,32.1a1,1,0,0,1-.726,1.213A1.027,1.027,0,0,1,40.356,33.338Z" fill="#212121"></path><circle cx="22" cy="37.501" r="5.5" fill="#949494"></circle><circle cx="9" cy="37.501" r="5.5" fill="#949494"></circle><path d="M46.788,35.363a5.51,5.51,0,1,0-4,6.674A5.507,5.507,0,0,0,46.788,35.363Z" fill="#ff7163"></path></svg>