<svg xmlns="http://www.w3.org/2000/svg" height="48" width="48" viewBox="0 0 48 48"><path d="M18,7v7.11a17,17,0,1,0,12,0V7Z" fill="#c8e9ec"></path><path d="M24,29a13.973,13.973,0,0,1-14.928-.416C9.028,29.05,9,29.522,9,30a15,15,0,0,0,30,0c0-.188-.021-.37-.028-.556A13.975,13.975,0,0,0,24,29Z" fill="#5a7a84"></path><circle cx="16" cy="25" r="2" fill="#82adb2"></circle><circle cx="30.5" cy="22.5" r="1" fill="#82adb2"></circle><circle cx="23.5" cy="18.5" r="1.5" fill="#82adb2"></circle><rect x="16" y="1" width="16" height="6" rx="1" fill="#c6a279"></rect><path d="M20,7h8a0,0,0,0,1,0,0v3a1,1,0,0,1-1,1H21a1,1,0,0,1-1-1V7A0,0,0,0,1,20,7Z" fill="#82adb2"></path></svg>