<svg xmlns="http://www.w3.org/2000/svg" height="48" width="48" style="" viewBox="0 0 48 48"><path d="M40 3H8C5.23858 3 3 5.23858 3 8V40C3 42.7614 5.23858 45 8 45H40C42.7614 45 45 42.7614 45 40V8C45 5.23858 42.7614 3 40 3Z" fill="url(#nc-ui-1-0_linear_43_176)"></path> <path opacity="0.15" d="M32 3H16C15.448 3 15 3.448 15 4V24C15 24.552 15.448 25 16 25C16.216 25 16.427 24.93 16.6 24.8L24 19.25L31.4 24.8C31.842 25.131 32.469 25.042 32.8 24.6C32.93 24.427 33 24.216 33 24V4C33 3.448 32.552 3 32 3Z" fill="black"></path> <path d="M32 2H16C15.448 2 15 2.448 15 3V23C15 23.552 15.448 24 16 24C16.216 24 16.427 23.93 16.6 23.8L24 18.25L31.4 23.8C31.842 24.131 32.469 24.042 32.8 23.6C32.93 23.427 33 23.216 33 23V3C33 2.448 32.552 2 32 2Z" fill="url(#nc-ui-1-1_linear_43_176)"></path> <defs> <linearGradient id="nc-ui-1-0_linear_43_176" x1="24" y1="3" x2="24" y2="45" gradientUnits="userSpaceOnUse"> <stop stop-color="#B88163"></stop> <stop offset="1" stop-color="#976545"></stop> </linearGradient> <linearGradient id="nc-ui-1-1_linear_43_176" x1="24" y1="2" x2="24" y2="24" gradientUnits="userSpaceOnUse"> <stop stop-color="#FFD36E"></stop> <stop offset="1" stop-color="#F6B828"></stop> </linearGradient> </defs></svg>