<svg xmlns="http://www.w3.org/2000/svg" height="48" width="48" viewBox="0 0 48 48"><path d="M42.4,5.6C38.076,1.275,32.827-.247,30.449,2.133l-9.312,9.313c-2.379,2.379-.858,7.628,3.465,11.949,2.941,2.942,6.312,4.586,8.916,4.586a4.151,4.151,0,0,0,3.033-1.121l9.312-9.313C48.242,15.169,46.721,9.92,42.4,5.6Z" fill="#c8c8c8"></path><path d="M44.449,16.133c-1.337,1.337-5.412.245-9.122-3.463s-4.8-7.785-3.464-9.123A2.265,2.265,0,0,1,33.5,3c1.891,0,4.783,1.314,7.482,4.012C44.692,10.721,45.787,14.8,44.449,16.133Z" fill="#c2eff4"></path><path d="M24.6,23.4a15.939,15.939,0,0,1-4.337-7.077L9.887,26.7c-1.843,1.843-.78,5.685,2.474,8.939,2.179,2.179,4.621,3.375,6.551,3.375a3.273,3.273,0,0,0,2.389-.9l10.38-10.381A15.926,15.926,0,0,1,24.6,23.4Z" fill="#c8c8c8"></path><path d="M12.361,35.635a12.441,12.441,0,0,1-2.969-4.444L1.656,38.926c-1.266,1.267-.629,3.816,1.485,5.93a6.448,6.448,0,0,0,4.225,2.133,2.335,2.335,0,0,0,1.7-.649l7.746-7.74A12.418,12.418,0,0,1,12.361,35.635Z" fill="#c8c8c8"></path><path d="M24.6,23.4a15.939,15.939,0,0,1-4.337-7.077l-1.605,1.6a18.922,18.922,0,0,0,4.528,6.888,18.847,18.847,0,0,0,6.893,4.519l1.6-1.6A15.914,15.914,0,0,1,24.6,23.4Z" fill="#aeaeae"></path><path d="M9.392,31.191,7.86,32.722a15.233,15.233,0,0,0,3.087,4.328,15.017,15.017,0,0,0,4.332,3.082L16.812,38.6a12.416,12.416,0,0,1-4.451-2.964A12.445,12.445,0,0,1,9.392,31.191Z" fill="#aeaeae"></path></svg>