<svg xmlns="http://www.w3.org/2000/svg" height="48" width="48" style="" viewBox="0 0 48 48"><path d="M7 30C6.448 30 6 29.552 6 29V26H5C2.791 26 1 24.209 1 22V6C1 3.791 2.791 2 5 2H23C25.209 2 27 3.791 27 6V22C27 24.209 25.209 26 23 26H12.351L7.625 29.781C7.448 29.923 7.227 30 7 30Z" fill="url(#nc-ui-1-0_linear_43_74)"></path><path d="M41 46C40.773 46 40.552 45.923 40.375 45.781L35.649 42H25C22.791 42 21 40.209 21 38V22C21 19.791 22.791 18 25 18H43C45.209 18 47 19.791 47 22V38C47 40.209 45.209 42 43 42H42V45C42 45.552 41.552 46 41 46Z" fill="url(#nc-ui-1-1_linear_43_74)"></path><path d="M37.038 36L36.174 33.162H31.827L30.963 36H28.239L32.447 24.029H35.537L39.762 36H37.038ZM35.57 31.042C34.77 28.471 34.32 27.017 34.221 26.68C34.121 26.343 34.048 26.08 34 25.88C33.821 26.577 33.307 28.298 32.459 31.042H35.57Z" fill="url(#nc-ui-1-2_linear_43_74)"></path><path d="M18.332 11.058C18.117 12.012 17.778 12.934 17.323 13.8C16.884 14.634 16.343 15.41 15.713 16.111C17.245 17.134 18.98 17.813 20.8 18.1C20.264 18.761 19.847 19.51 19.566 20.313C17.586 19.763 15.73 18.837 14.1 17.585C12.419 18.849 10.512 19.781 8.48201 20.331C8.20901 19.571 7.81201 18.861 7.30701 18.231C9.16301 17.876 10.93 17.157 12.507 16.116C11.822 15.373 11.23 14.55 10.742 13.665C10.281 12.844 9.91901 11.971 9.66301 11.065H9.38301C8.71101 11.065 8.08301 11.093 7.52101 11.149V8.97099C8.15801 9.04499 8.79901 9.07799 9.44001 9.07099H12.773V8.17099C12.775 7.85199 12.747 7.53299 12.69 7.21899H15.11C15.052 7.52799 15.024 7.84199 15.026 8.15699V9.06799H18.57C19.216 9.07499 19.861 9.04199 20.503 8.96799V11.139C19.889 11.079 19.271 11.051 18.654 11.055L18.332 11.058ZM11.932 11.058C12.148 11.802 12.463 12.514 12.87 13.173C13.2 13.74 13.595 14.267 14.047 14.742C14.479 14.272 14.851 13.749 15.153 13.187C15.534 12.521 15.817 11.804 15.994 11.058H11.932Z" fill="url(#nc-ui-1-3_linear_43_74)"></path><defs><linearGradient id="nc-ui-1-0_linear_43_74" x1="14" y1="2" x2="14" y2="30" gradientUnits="userSpaceOnUse"><stop stop-color="#5B5E71"></stop><stop offset="1" stop-color="#393A46"></stop></linearGradient><linearGradient id="nc-ui-1-1_linear_43_74" x1="34" y1="18" x2="34" y2="46" gradientUnits="userSpaceOnUse"><stop stop-color="#E0E0E6"></stop><stop offset="1" stop-color="#C2C3CD"></stop></linearGradient><linearGradient id="nc-ui-1-2_linear_43_74" x1="34.0005" y1="24.029" x2="34.0005" y2="36" gradientUnits="userSpaceOnUse"><stop stop-color="#C2C3CD"></stop><stop offset="1" stop-color="#A2A3B4"></stop></linearGradient><linearGradient id="nc-ui-1-3_linear_43_74" x1="14.0535" y1="7.21899" x2="14.0535" y2="20.331" gradientUnits="userSpaceOnUse"><stop stop-color="#C2C3CD"></stop><stop offset="1" stop-color="#A2A3B4"></stop></linearGradient></defs></svg>