<svg xmlns="http://www.w3.org/2000/svg" height="24" width="24" viewBox="0 0 24 24"><path data-cap="butt" data-color="color-2" d="M13.849,5.909,5.3,2.082a2,2,0,0,0-2.274.455L1.65,4l8.414,5.693" fill="none" stroke="#61616b" stroke-width="2"></path><path data-cap="butt" data-color="color-2" d="M18.091,10.151l3.827,8.55a2,2,0,0,1-.455,2.274L20,22.35l-5.693-8.414" fill="none" stroke="#61616b" stroke-width="2"></path><polyline points="5.8 15.292 2 15 4.44 17.44" fill="none" stroke="#61616b" stroke-width="2"></polyline><polyline points="6.56 19.56 9 22 8.708 18.201" fill="none" stroke="#61616b" stroke-width="2"></polyline><path d="M11.343,16.9,4.521,20.851a1,1,0,0,1-1.372-1.372L7.1,12.657,17.879,1.879a3,3,0,0,1,4.243,0h0a3,3,0,0,1,0,4.243Z" fill="none" stroke="#61616b" stroke-width="2"></path></svg>