<svg xmlns="http://www.w3.org/2000/svg" height="24" width="24" viewBox="0 0 24 24"><polyline fill="none" stroke="#61616b" stroke-width="2" points="10,6 10,1 14,1 14,6 "></polyline> <polyline data-cap="butt" fill="none" stroke="#61616b" stroke-width="2" points="5,13.9 5,6 19,6 19,13.9 "></polyline> <path data-color="color-2" fill="none" stroke="#61616b" stroke-width="2" d="M1,19.1 c0,2.2,1.8,4,4,4c1.5,0,2.8-0.9,3.5-2.1c0.7,1.2,2,2.1,3.5,2.1s2.8-0.9,3.5-2.1c0.7,1.2,2,2.1,3.5,2.1c2.2,0,4-1.8,4-4"></path> <polyline fill="none" stroke="#61616b" stroke-width="2" points="5,19 3,15 12,10 21,15 19,19 "></polyline></svg>