<svg xmlns="http://www.w3.org/2000/svg" height="24" width="24" viewBox="0 0 24 24"><path data-cap="butt" d="M21,10,19.348,2.566A2,2,0,0,0,17.4,1H6.6A2,2,0,0,0,4.652,2.566L3,10" fill="none" stroke="#61616b" stroke-width="2"></path><polyline data-color="color-2" points="6 21 6 23 2 23 2 21" fill="none" stroke="#61616b" stroke-width="2"></polyline><polyline data-color="color-2" points="22 21 22 23 18 23 18 21" fill="none" stroke="#61616b" stroke-width="2"></polyline><path d="M23,18H1V12.828a2,2,0,0,1,.586-1.414L3,10H21l1.414,1.414A2,2,0,0,1,23,12.828Z" fill="none" stroke="#61616b" stroke-width="2"></path><circle data-stroke="none" cx="5" cy="14" r="1" fill="#61616b" stroke="none"></circle><circle data-stroke="none" cx="19" cy="14" r="1" fill="#61616b" stroke="none"></circle></svg>