<svg xmlns="http://www.w3.org/2000/svg" height="24" width="24" viewBox="0 0 24 24"><path d="M20,15,18.2,9.7a.961.961,0,0,0-.9-.7H6.7a.961.961,0,0,0-.9.7L4,15" fill="none" stroke="#61616b" stroke-width="2" data-cap="butt"></path> <path d="M22,21H2V17.4a.908.908,0,0,1,.3-.7L4,15H20l1.7,1.7a.908.908,0,0,1,.3.7Z" fill="none" stroke="#61616b" stroke-width="2"></path> <circle cx="6" cy="18" r="1" fill="#61616b" data-stroke="none" stroke="none"></circle> <circle cx="18" cy="18" r="1" fill="#61616b" data-stroke="none" stroke="none"></circle> <polyline points="1 7 12 2 23 7" fill="none" stroke="#61616b" stroke-width="2" data-cap="butt" data-color="color-2"></polyline> <rect x="2" y="21" width="4" height="2" fill="none" stroke="#61616b" stroke-width="2"></rect> <rect x="18" y="21" width="4" height="2" fill="none" stroke="#61616b" stroke-width="2"></rect></svg>