<svg xmlns="http://www.w3.org/2000/svg" height="24" width="24" viewBox="0 0 24 24"><path d="M4,22a5,5,0,0,1,5-5" fill="none" stroke="#61616b" stroke-width="2"></path><path d="M20,22a5,5,0,0,0-5-5" fill="none" stroke="#61616b" stroke-width="2"></path><line x1="5" y1="3" x2="5" y2="9" fill="none" stroke="#61616b" stroke-width="2"></line><line x1="19" y1="3" x2="19" y2="9" fill="none" stroke="#61616b" stroke-width="2"></line><circle cx="12" cy="13" r="1" fill="#61616b" data-color="color-2" data-stroke="none" stroke="none"></circle><path d="M19,9H5a2,2,0,0,0,0,4H8l1,4h6l1-4h3a2,2,0,0,0,0-4Z" fill="none" stroke="#61616b" stroke-width="2"></path><line x1="1" y1="5" x2="9" y2="5" fill="none" stroke="#61616b" stroke-width="2" data-color="color-2"></line><line x1="15" y1="5" x2="23" y2="5" fill="none" stroke="#61616b" stroke-width="2" data-color="color-2"></line></svg>