<svg xmlns="http://www.w3.org/2000/svg" height="24" width="24" viewBox="0 0 24 24"><path data-color="color-2" fill="none" stroke="#61616b" stroke-width="2" d="M16,15v1.5 c0,1.38071,1.11929,2.5,2.5,2.5h0c1.38071,0,2.5-1.11929,2.5-2.5V11"></path> <rect data-color="color-2" x="5" y="6" fill="none" stroke="#61616b" stroke-width="2" width="7" height="5"></rect> <path data-color="color-2" fill="none" stroke="#61616b" stroke-width="2" d="M19,7h4v2 c0,1.10457-0.89543,2-2,2h0c-1.10457,0-2-0.89543-2-2V7z"></path> <line data-color="color-2" fill="none" stroke="#61616b" stroke-width="2" x1="19" y1="5" x2="19" y2="7"></line> <line data-color="color-2" fill="none" stroke="#61616b" stroke-width="2" x1="23" y1="5" x2="23" y2="7"></line> <path fill="none" stroke="#61616b" stroke-width="2" d="M1,22V4 c0-1.10457,0.89543-2,2-2h11c1.10457,0,2,0.89543,2,2v18H1z"></path></svg>