<svg xmlns="http://www.w3.org/2000/svg" height="24" width="24" viewBox="0 0 24 24"><line data-color="color-2" fill="none" stroke="#61616b" stroke-width="2" x1="9" y1="2" x2="23" y2="2"></line> <line data-color="color-2" fill="none" stroke="#61616b" stroke-width="2" x1="16" y1="2" x2="16" y2="6"></line> <line data-cap="butt" data-color="color-2" fill="none" stroke="#61616b" stroke-width="2" x1="15" y1="18" x2="13" y2="22"></line> <line data-cap="butt" data-color="color-2" fill="none" stroke="#61616b" stroke-width="2" x1="18" y1="18" x2="20" y2="22"></line> <polyline data-color="color-2" fill="none" stroke="#61616b" stroke-width="2" points=" 15,9 15,12 20,12 "></polyline> <path fill="none" stroke="#61616b" stroke-width="2" d="M6,6L5,3H2l0.7,4.3 c0.2,1,1,1.7,2,1.7H9v3c0,3.3,2.7,6,6,6h2c3.3,0,6-2.7,6-6v0c0-3.3-2.7-6-6-6H6z"></path> <path data-color="color-2" fill="none" stroke="#61616b" stroke-width="2" d="M9,22h12 c1.1,0,2-0.9,2-2v0"></path></svg>