<svg xmlns="http://www.w3.org/2000/svg" height="24" width="24" viewBox="0 0 24 24"><polygon data-stroke="none" fill="#61616b" points="4,7 2,7 0,2 4,2 " stroke="none"></polygon> <polygon data-stroke="none" fill="#61616b" points="4,14 2,14 0,9 4,9 " stroke="none"></polygon> <polygon data-stroke="none" fill="#61616b" points="4,21 2,21 0,16 4,16 " stroke="none"></polygon> <polygon data-stroke="none" fill="#61616b" points="20,7 22,7 24,2 20,2 " stroke="none"></polygon> <polygon data-stroke="none" fill="#61616b" points="20,14 22,14 24,9 20,9 " stroke="none"></polygon> <polygon data-stroke="none" fill="#61616b" points="20,21 22,21 24,16 20,16 " stroke="none"></polygon> <rect x="6" y="1" fill="none" stroke="#61616b" stroke-width="2" width="12" height="22"></rect> <circle data-color="color-2" data-stroke="none" fill="#61616b" cx="12" cy="12" r="2" stroke="none"></circle> <circle data-color="color-2" data-stroke="none" fill="#61616b" cx="12" cy="18" r="2" stroke="none"></circle> <circle data-color="color-2" data-stroke="none" fill="#61616b" cx="12" cy="6" r="2" stroke="none"></circle></svg>