<svg xmlns="http://www.w3.org/2000/svg" height="24" width="24" viewBox="0 0 24 24"><path d="M9,1h6a1,1,0,0,1,1,1V5a0,0,0,0,1,0,0H8A0,0,0,0,1,8,5V2A1,1,0,0,1,9,1Z" fill="none" stroke="#61616b" stroke-width="2" data-color="color-2"></path> <line x1="12" y1="5" x2="12" y2="9" fill="none" stroke="#61616b" stroke-width="2" data-cap="butt" data-color="color-2"></line> <path d="M22,23H2V21a2,2,0,0,1,2-2H20a2,2,0,0,1,2,2Z" fill="none" stroke="#61616b" stroke-width="2"></path> <path d="M5,19l.82-8.2A2,2,0,0,1,7.81,9h8.38a2,2,0,0,1,1.99,1.8L19,19" fill="none" stroke="#61616b" stroke-width="2" data-cap="butt"></path></svg>