<svg xmlns="http://www.w3.org/2000/svg" height="24" width="24" viewBox="0 0 24 24"><polyline points="3.75 12.25 3 10 2 10 2 13.275" fill="none" stroke="#61616b" stroke-width="2" data-cap="butt"></polyline><polyline points="3.796 17.612 3 20 2 20 2 16.724" fill="none" stroke="#61616b" stroke-width="2" data-cap="butt"></polyline><polyline points="16.667 11 16 7 9 7 8.31 11.142" fill="none" stroke="#61616b" stroke-width="2" data-cap="butt"></polyline><path d="M14,3a2,2,0,0,0-2,2V7" fill="none" stroke="#61616b" stroke-width="2"></path><path d="M19,11H11C5,11,1,13,1,15s5,4,10,4h8a4,4,0,0,0,0-8Z" fill="none" stroke="#61616b" stroke-width="2" data-cap="butt"></path><circle cx="17" cy="15" r="1" fill="#61616b" data-color="color-2" data-stroke="none" stroke="none"></circle><circle cx="13" cy="15" r="1" fill="#61616b" data-color="color-2" data-stroke="none" stroke="none"></circle><circle cx="9" cy="15" r="1" fill="#61616b" data-color="color-2" data-stroke="none" stroke="none"></circle></svg>