<svg xmlns="http://www.w3.org/2000/svg" height="24" width="24" viewBox="0 0 24 24"><path data-cap="butt" fill="none" stroke="#61616b" stroke-width="2" d="M14.2,6c2.1,0.1,3.8,1.9,3.8,4v10h-4"></path> <path data-cap="butt" fill="none" stroke="#61616b" stroke-width="2" d="M10,20H6V10c0-2.1,1.7-3.9,3.8-4"></path> <path data-color="color-2" fill="none" stroke="#61616b" stroke-width="2" d="M12,23 L12,23c-1.1,0-2-0.9-2-2v-5c0-1.1,0.9-2,2-2h0c1.1,0,2,0.9,2,2v5C14,22.1,13.1,23,12,23z"></path> <line fill="none" stroke="#61616b" stroke-width="2" x1="9" y1="4" x2="6" y2="4"></line> <line fill="none" stroke="#61616b" stroke-width="2" x1="18" y1="4" x2="15" y2="4"></line> <circle data-color="color-2" fill="none" stroke="#61616b" stroke-width="2" cx="12" cy="4" r="3"></circle></svg>