<svg xmlns="http://www.w3.org/2000/svg" height="24" width="24" viewBox="0 0 24 24"><path data-cap="butt" fill="none" stroke="#61616b" stroke-width="2" d="M1,10v7c0,1.105,0.895,2,2,2"></path> <path fill="none" stroke="#61616b" stroke-width="2" d="M10,10v3 c0,1.105,0.895,2,2,2h2c1.105,0,2-0.895,2-2V2h-3"></path> <line data-cap="butt" fill="none" stroke="#61616b" stroke-width="2" x1="21.9" y1="16.667" x2="19" y2="8"></line> <polyline data-cap="butt" fill="none" stroke="#61616b" stroke-width="2" points="9,19 10,19 16,19 16,19 17,19 "></polyline> <circle data-color="color-2" fill="none" stroke="#61616b" stroke-width="2" cx="6" cy="19" r="3"></circle> <path fill="none" stroke="#61616b" stroke-width="2" d="M10,10H1V8 c0-1.105,0.895-2,2-2h5c1.105,0,2,0.895,2,2V10z"></path> <circle data-color="color-2" fill="none" stroke="#61616b" stroke-width="2" cx="20" cy="19" r="3"></circle> <path fill="none" stroke="#61616b" stroke-width="2" d="M21,8l-3,0 c-1.105,0-2-0.895-2-2v0c0-1.105,0.895-2,2-2l3,0V8z"></path></svg>