<svg xmlns="http://www.w3.org/2000/svg" height="24" width="24" viewBox="0 0 24 24"><line x1="20" y1="1" x2="20" y2="7" fill="none" stroke="#61616b" stroke-width="2" data-color="color-2"></line><line x1="17" y1="4" x2="23" y2="4" fill="none" stroke="#61616b" stroke-width="2" data-color="color-2"></line><path d="M13.616,1.139A10.507,10.507,0,0,0,12,1,11,11,0,1,0,23,12a10.507,10.507,0,0,0-.139-1.616" fill="none" stroke="#61616b" stroke-width="2"></path><path d="M7.854,9.823H7.831l-1.488.708-.3-1.367L8.106,8.2H9.617V16H7.854Z" fill="#61616b" data-color="color-2" data-stroke="none" stroke="none"></path><path d="M12.068,13.961a2.07,2.07,0,0,1,1.391-1.955V11.97a1.892,1.892,0,0,1-1.127-1.7c0-1.319,1.187-2.2,2.746-2.2,1.823,0,2.579,1.056,2.579,2a1.9,1.9,0,0,1-1.128,1.716v.035a2.064,2.064,0,0,1,1.428,1.943c0,1.416-1.188,2.363-3,2.363C12.979,16.132,12.068,15.017,12.068,13.961Zm4.03-.06c0-.683-.5-1.091-1.223-1.283a1.183,1.183,0,0,0-.948,1.163,1.068,1.068,0,0,0,1.1,1.092A.98.98,0,0,0,16.1,13.9Zm-2.051-3.694c0,.528.479.864,1.1,1.056a1.068,1.068,0,0,0,.792-1,.894.894,0,0,0-.948-.959A.869.869,0,0,0,14.047,10.207Z" fill="#61616b" data-color="color-2" data-stroke="none" stroke="none"></path></svg>