<svg xmlns="http://www.w3.org/2000/svg" height="24" width="24" viewBox="0 0 24 24"><polygon points="15.68 2.673 13.137 2.304 12 0 10.863 2.304 8.32 2.673 10.16 4.467 9.726 7 12 5.805 14.274 7 13.84 4.467 15.68 2.673" fill="#61616b" data-color="color-2" data-stroke="none" stroke="none"></polygon><polygon points="7.949 18.524 5.548 18.175 4.475 16 3.401 18.175 1 18.524 2.737 20.217 2.327 22.609 4.475 21.48 6.622 22.609 6.212 20.217 7.949 18.524" fill="#61616b" data-color="color-2" data-stroke="none" stroke="none"></polygon><polygon points="23 18.524 20.599 18.175 19.525 16 18.452 18.175 16.051 18.524 17.788 20.217 17.378 22.609 19.525 21.48 21.673 22.609 21.263 20.217 23 18.524" fill="#61616b" data-color="color-2" data-stroke="none" stroke="none"></polygon><path d="M17,12s-5,2-5,11c0-9-5-11-5-11" fill="none" stroke="#61616b" stroke-width="2"></path><line x1="12" y1="9" x2="12" y2="12" fill="none" stroke="#61616b" stroke-width="2"></line><circle cx="2.5" cy="9.5" r="1.5" fill="#61616b" data-stroke="none" stroke="none"></circle><circle cx="21.5" cy="9.5" r="1.5" fill="#61616b" data-stroke="none" stroke="none"></circle></svg>