<svg xmlns="http://www.w3.org/2000/svg" height="24" width="24" viewBox="0 0 24 24"><line data-color="color-2" fill="none" stroke="#61616b" stroke-width="2" x1="12" y1="6" x2="12" y2="3"></line> <line fill="none" stroke="#61616b" stroke-width="2" x1="14" y1="17" x2="10" y2="17"></line> <path data-cap="butt" fill="none" stroke="#61616b" stroke-width="2" d="M6.8,18.6l-3.7,2.8 c-0.7,0.6-1.8-0.1-1.6-1l2-9.8C3.8,9.1,5.1,8,6.7,8h0c0.9,0,1.7,0.3,2.3,0.9L10,10h4l1.1-1.1C15.7,8.3,16.5,8,17.3,8h0 c1.5,0,2.9,1.1,3.2,2.6l2,9.8c0.2,0.9-0.8,1.5-1.6,1l-3.7-2.8"></path> <circle data-color="color-2" fill="none" stroke="#61616b" stroke-width="2" cx="8" cy="17" r="2"></circle> <circle data-color="color-2" fill="none" stroke="#61616b" stroke-width="2" cx="16" cy="17" r="2"></circle></svg>