<svg xmlns="http://www.w3.org/2000/svg" height="24" width="24" viewBox="0 0 24 24"><circle cx="9" cy="12" r="4" fill="none" stroke="#61616b" stroke-width="2"></circle><path d="M5.555,10H3a2,2,0,0,0-2,2v6a2,2,0,0,0,2,2H21a2,2,0,0,0,2-2V12a2,2,0,0,0-2-2H12.445" fill="none" stroke="#61616b" stroke-width="2" data-cap="butt"></path><circle cx="9" cy="12" r="1" fill="#61616b" data-color="color-2" data-stroke="none" stroke="none"></circle><line x1="17" y1="14" x2="19" y2="14" fill="none" stroke="#61616b" stroke-width="2"></line><line x1="5" y1="20" x2="5" y2="22" fill="none" stroke="#61616b" stroke-width="2"></line><line x1="19" y1="20" x2="19" y2="22" fill="none" stroke="#61616b" stroke-width="2"></line><line x1="9" y1="4" x2="9" y2="2" fill="none" stroke="#61616b" stroke-width="2" data-color="color-2"></line><line x1="14.657" y1="6.343" x2="16.071" y2="4.929" fill="none" stroke="#61616b" stroke-width="2" data-color="color-2"></line><line x1="3.343" y1="6.343" x2="1.929" y2="4.929" fill="none" stroke="#61616b" stroke-width="2" data-color="color-2"></line></svg>