<svg xmlns="http://www.w3.org/2000/svg" height="24" width="24" viewBox="0 0 24 24"><line x1="11.207" y1="6.186" x2="12.621" y2="7.601" fill="none" stroke="#61616b" stroke-width="2" data-color="color-2"></line><line x1="9.086" y1="8.308" x2="10.5" y2="9.722" fill="none" stroke="#61616b" stroke-width="2" data-color="color-2"></line><line x1="6.964" y1="10.429" x2="8.379" y2="11.843" fill="none" stroke="#61616b" stroke-width="2" data-color="color-2"></line><path d="M14.489,1.49,16.61,3.612l.354-.354a1.5,1.5,0,0,1,2.121,2.121L8.736,15.736a1.5,1.5,0,1,0,2.121,2.121l1.415-1.414A10.029,10.029,0,0,1,18,13.7V20a5.082,5.082,0,0,0-3.611,1.389,5.5,5.5,0,0,1-7.778-7.778l7.878-7.878" fill="none" stroke="#61616b" stroke-width="2"></path></svg>