<svg xmlns="http://www.w3.org/2000/svg" height="24" width="24" viewBox="0 0 24 24"><path fill="#61616b" d="M21.293,2.293l-7,7c-0.391,0.391-0.391,1.023,0,1.414c0.391,0.391,1.023,0.391,1.414,0l7-7 c0.391-0.391,0.391-1.023,0-1.414S21.684,1.902,21.293,2.293z"></path> <path fill="#61616b" d="M21.293,9.293l-7,7c-0.391,0.391-0.391,1.023,0,1.414c0.391,0.391,1.023,0.391,1.414,0l7-7 c0.391-0.391,0.391-1.023,0-1.414S21.684,8.902,21.293,9.293z"></path> <path fill="#61616b" d="M12.707,5.293c-0.391-0.391-1.023-0.391-1.414,0l-7,7c-0.391,0.391-0.391,1.023,0,1.414 c0.391,0.391,1.023,0.391,1.414,0l7-7C13.098,6.316,13.098,5.684,12.707,5.293z"></path> <circle data-color="color-2" fill="#61616b" cx="2" cy="16" r="1"></circle> <circle data-color="color-2" fill="#61616b" cx="12" cy="13" r="1"></circle> <circle data-color="color-2" fill="#61616b" cx="12" cy="20" r="1"></circle></svg>