<svg xmlns="http://www.w3.org/2000/svg" height="24" width="24" viewBox="0 0 24 24"><path d="M2,18H16a2,2,0,0,0,2-2V10H0v6A2,2,0,0,0,2,18Z" fill="#61616b"></path><path d="M18,6a2,2,0,0,0-2-2H13V1a1,1,0,0,0-1-1H6A1,1,0,0,0,5,1V4H2A2,2,0,0,0,0,6V8H18ZM7,2h4V4H7Z" fill="#61616b"></path><path data-color="color-2" d="M23,0H21a.945.945,0,0,0-1,1V20H1a1,1,0,0,0,0,2H2v1a.945.945,0,0,0,1,1,.945.945,0,0,0,1-1V22H18v1a1,1,0,0,0,2,0V22h1a.945.945,0,0,0,1-1V2h1a.945.945,0,0,0,1-1A.945.945,0,0,0,23,0Z" fill="#61616b"></path></svg>