<svg xmlns="http://www.w3.org/2000/svg" height="24" width="24" viewBox="0 0 24 24"><path d="M22.121,1.879h0a3,3,0,0,0-4.24,0L14.269,5.465,2.274,2.039a1,1,0,0,0-.981.254l-1,1A1,1,0,0,0,.427,4.819l8.5,5.952L7.648,12.043,6.17,13.913,4.523,16.6l-2.281-.57a1,1,0,0,0-.949,1.677l1.582,1.582-.728,1.189A1,1,0,0,0,3.526,21.85l1.18-.73,1.587,1.587a1,1,0,0,0,1.677-.95l-.576-2.3,2.7-1.669L11.9,16.352,22.042,6.2a3.156,3.156,0,0,0,.907-1.639A3,3,0,0,0,22.121,1.879Z" fill="#61616b"></path><path data-color="color-2" d="M19,12.081l-4.621,4.625,4.807,6.867a1,1,0,0,0,.732.423A.844.844,0,0,0,20,24a1,1,0,0,0,.707-.293l1-1a1,1,0,0,0,.249-1Z" fill="#61616b"></path></svg>