<svg xmlns="http://www.w3.org/2000/svg" height="24" width="24" viewBox="0 0 24 24"><rect data-color="color-2" x="11" width="2" height="4" rx="1" fill="#61616b"></rect><rect data-color="color-2" x="6" y="1" width="2" height="4" rx="1" fill="#61616b"></rect><rect data-color="color-2" x="16" y="1" width="2" height="4" rx="1" fill="#61616b"></rect><rect y="7" width="24" height="2" rx="1" fill="#61616b"></rect><path d="M19.248,19.26A10.962,10.962,0,0,0,23,11H15.5a.5.5,0,0,0-.5.5v1a.5.5,0,0,1-.5.5h-5a.5.5,0,0,1-.5-.5v-1a.5.5,0,0,0-.5-.5H1a10.962,10.962,0,0,0,3.752,8.26L3.105,22.553a1,1,0,0,0,1.79.894l1.5-3a10.922,10.922,0,0,0,11.214,0l1.5,3a1,1,0,1,0,1.79-.894Z" fill="#61616b"></path></svg>