<svg xmlns="http://www.w3.org/2000/svg" height="24" width="24" viewBox="0 0 24 24"><rect data-color="color-2" x="6" y="1" width="5" height="2" rx="0.5" fill="#61616b"></rect><rect data-color="color-2" x="13" y="1" width="5" height="2" rx="0.5" fill="#61616b"></rect><rect data-color="color-2" y="21" width="11" height="2" rx="0.5" fill="#61616b"></rect><rect data-color="color-2" x="13" y="21" width="11" height="2" rx="0.5" fill="#61616b"></rect><path d="M22.958,15.712l-3-10A1,1,0,0,0,19,5H14a1,1,0,0,0-1,1v5h2.5a.5.5,0,0,1,.5.5v1a.5.5,0,0,1-.5.5H13v6H23V16Z" fill="#61616b"></path><path d="M8,12.5v-1a.5.5,0,0,1,.5-.5H11V6a1,1,0,0,0-1-1H5a1,1,0,0,0-.958.713l-3,10L1,16v3H11V13H8.5A.5.5,0,0,1,8,12.5Z" fill="#61616b"></path></svg>