<svg xmlns="http://www.w3.org/2000/svg" height="24" width="24" viewBox="0 0 24 24"><path d="M21,3.2V1a1,1,0,0,0-2,0V3.2a2.9,2.9,0,0,0-1.986,2.623A8.043,8.043,0,0,1,18.91,8H23V6A2.913,2.913,0,0,0,21,3.2Z" fill="#61616b"></path><path data-color="color-2" d="M13,6.1V4a1,1,0,0,0-2,0V6.1A6.066,6.066,0,0,0,6.355,10H1v2H23V10H17.645A6.066,6.066,0,0,0,13,6.1Z" fill="#61616b"></path><path d="M6.986,5.823A2.9,2.9,0,0,0,5,3.2V1A1,1,0,0,0,3,1V3.2A2.913,2.913,0,0,0,1,6V8H5.09A8.043,8.043,0,0,1,6.986,5.823Z" fill="#61616b"></path><path d="M1,22a1,1,0,0,0,1,1H6V14H1Z" fill="#61616b"></path><path d="M8,23h2V21.121a2.086,2.086,0,0,1,1.658-2.092A2.005,2.005,0,0,1,14,21v2h2V14H8Z" fill="#61616b"></path><path d="M18,23h4a1,1,0,0,0,1-1V14H18Z" fill="#61616b"></path></svg>