<svg xmlns="http://www.w3.org/2000/svg" height="24" width="24" viewBox="0 0 24 24"><path d="M23,12a4,4,0,0,1-2.4-1H21a.945.945,0,0,0,1-1V9a1,1,0,0,0-1-1s-2.5-.1-3-2.2A.974.974,0,0,0,17,5H16C16,2.311,12.871.356,12.515.143a1,1,0,0,0-1.03,0C11.129.356,8,2.311,8,5H7a.974.974,0,0,0-1,.8C5.5,7.9,3.1,8,3,8A1,1,0,0,0,2,9v1a.945.945,0,0,0,1,1h.4A4,4,0,0,1,1,12a1.075,1.075,0,0,0-1,1v1a.945.945,0,0,0,1,1H23a.945.945,0,0,0,1-1V13A1,1,0,0,0,23,12Z" fill="#61616b"></path><path data-color="color-2" d="M2,17v6a1,1,0,0,0,1,1h7V20.5a.5.5,0,0,1,.5-.5h3a.5.5,0,0,1,.5.5V24h7a1,1,0,0,0,1-1V17Z" fill="#61616b"></path></svg>