<svg xmlns="http://www.w3.org/2000/svg" height="24" width="24" viewBox="0 0 24 24"><path d="M17.348,9.667,9.765,14h8.961A16.933,16.933,0,0,0,17.348,9.667Z" fill="#61616b"></path><polygon points="7 16 7 20.484 17.462 16 7 16" fill="#61616b" data-color="color-2"></polygon><polygon points="7 8 7 13.277 16.235 8 7 8" fill="#61616b" data-color="color-2"></polygon><path d="M20,22H18.239a17.1,17.1,0,0,0,.736-4.473L8.538,22H4a1,1,0,0,0,0,2H20a1,1,0,0,0,0-2Z" fill="#61616b"></path><path d="M9,1.546V1A1,1,0,0,0,7,1V4H5A1,1,0,0,0,5,6h9.958A17.03,17.03,0,0,0,9,1.546Z" fill="#61616b"></path></svg>