<svg xmlns="http://www.w3.org/2000/svg" height="24" width="24" viewBox="0 0 24 24"><path d="M21.7,13.3l-7-7A.908.908,0,0,0,14,6H13V4h1.5a.5.5,0,0,0,.5-.5v-1a.5.5,0,0,0-.5-.5H13V.5a.5.5,0,0,0-.5-.5h-1a.5.5,0,0,0-.5.5V2H9.5a.5.5,0,0,0-.5.5v1a.5.5,0,0,0,.5.5H11V6H10a.908.908,0,0,0-.7.3l-7,7A.908.908,0,0,0,2,14v2H22V14A.908.908,0,0,0,21.7,13.3Z" fill="#61616b"></path><path data-color="color-2" d="M23,18H1a1,1,0,0,0-1,1v4a1,1,0,0,0,1,1h9V20.5a.5.5,0,0,1,.5-.5h3a.5.5,0,0,1,.5.5V24h9a1,1,0,0,0,1-1V19A1,1,0,0,0,23,18Z" fill="#61616b"></path></svg>