<svg xmlns="http://www.w3.org/2000/svg" height="24" width="24" viewBox="0 0 24 24"><path d="M23,18V14H1v4H5V16.5a.5.5,0,0,1,.5-.5h1a.5.5,0,0,1,.5.5V18H9V16.5a.5.5,0,0,1,.5-.5h1a.5.5,0,0,1,.5.5V18h2V16.5a.5.5,0,0,1,.5-.5h1a.5.5,0,0,1,.5.5V18h2V16.5a.5.5,0,0,1,.5-.5h1a.5.5,0,0,1,.5.5V18Z" fill="#61616b"></path><path d="M1,8v4H5V10.5a.5.5,0,0,1,.5-.5h1a.5.5,0,0,1,.5.5V12H9V10.5a.5.5,0,0,1,.5-.5h1a.5.5,0,0,1,.5.5V12h2V10.5a.5.5,0,0,1,.5-.5h1a.5.5,0,0,1,.5.5V12h2V10.5a.5.5,0,0,1,.5-.5h1a.5.5,0,0,1,.5.5V12h4V9a1,1,0,0,0-1-1Z" fill="#61616b"></path><path d="M5,6V4.5A.5.5,0,0,1,5.5,4h1a.5.5,0,0,1,.5.5V6H9V4.5A.5.5,0,0,1,9.5,4h1a.5.5,0,0,1,.5.5V6h5.5L12.8.4A1.234,1.234,0,0,0,12,0H4A3,3,0,0,0,1,3V6Z" fill="#61616b"></path><path data-color="color-2" d="M0,21v1a1,1,0,0,0,1,1H23a1,1,0,0,0,1-1V21a1,1,0,0,0-1-1H1A1,1,0,0,0,0,21Z" fill="#61616b"></path></svg>