<svg xmlns="http://www.w3.org/2000/svg" height="24" width="24" viewBox="0 0 24 24"><path d="M21.545,16.561,16.84,13.725A10.3,10.3,0,0,0,19,7V2a1,1,0,0,0-.553-.895A15.455,15.455,0,0,0,12,0,15.455,15.455,0,0,0,5.553,1.105,1,1,0,0,0,5,2V7a10.3,10.3,0,0,0,2.16,6.725l-4.7,2.836A3.005,3.005,0,0,0,1,19.137V23a1,1,0,0,0,1,1h9V20a1,1,0,0,1,2,0v4h9a1,1,0,0,0,1-1V19.132A3.013,3.013,0,0,0,21.545,16.561ZM8,21a1,1,0,1,1,1-1A1,1,0,0,1,8,21Zm4-7c-2.944,0-5-2.879-5-7V6.689A15.987,15.987,0,0,1,12,6a16,16,0,0,1,5,.688V7C17,11.121,14.944,14,12,14Zm4,7a1,1,0,1,1,1-1A1,1,0,0,1,16,21Z" fill="#61616b"></path></svg>