<svg xmlns="http://www.w3.org/2000/svg" height="24" width="24" viewBox="0 0 24 24"><path d="M23.061,10.086,20.71,7.735,22.476,2.3a.5.5,0,0,0-.122-.507l-1-1a.5.5,0,0,0-.777.086L17.974,5,16.207,3.232l.519-1.958A.5.5,0,0,0,16.52.73L15.553.084a.5.5,0,0,0-.41-.066.493.493,0,0,0-.318.265l-1.2,2.489-2.488,1.2a.5.5,0,0,0-.2.728l.646.967a.5.5,0,0,0,.544.206l1.958-.519L15.853,7.12l-4.12,2.6a.5.5,0,0,0-.087.777l1,1a.5.5,0,0,0,.508.122l5.435-1.765,2.357,2.356a1.5,1.5,0,0,0,2.115-2.127Z" fill="#61616b"></path><path d="M13.062,19.3l-.646-.967a.5.5,0,0,0-.544-.206l-1.958.519L8.147,16.88l4.12-2.6a.5.5,0,0,0,.087-.777l-1-1a.506.506,0,0,0-.508-.122L5.411,14.144,3.054,11.787A1.5,1.5,0,0,0,.939,13.915l2.351,2.35L1.524,21.7a.5.5,0,0,0,.122.508l1,1a.515.515,0,0,0,.409.143.5.5,0,0,0,.368-.23L6.026,19l1.767,1.767-.519,1.958a.5.5,0,0,0,.206.544l.967.646a.5.5,0,0,0,.41.066.493.493,0,0,0,.318-.265l1.2-2.488,2.488-1.2a.493.493,0,0,0,.265-.318A.5.5,0,0,0,13.062,19.3Z" fill="#61616b"></path><path data-color="color-2" d="M3,9A1,1,0,0,0,4,8,4,4,0,0,1,8,4,1,1,0,0,0,8,2,6.006,6.006,0,0,0,2,8,1,1,0,0,0,3,9Z" fill="#61616b"></path><path data-color="color-2" d="M21,15a1,1,0,0,0-1,1,4,4,0,0,1-4,4,1,1,0,0,0,0,2,6.006,6.006,0,0,0,6-6A1,1,0,0,0,21,15Z" fill="#61616b"></path></svg>