<svg xmlns="http://www.w3.org/2000/svg" height="24" width="24" viewBox="0 0 24 24"><rect data-color="color-2" y="22" width="24" height="2" rx="1" fill="#61616b"></rect><path d="M12.783,5.189,7.2,1.47a.5.5,0,0,0-.435-.059l-1.729.577a.5.5,0,0,0-.222.8L8.189,6.721Z" fill="#61616b"></path><path d="M23.953,5.9a2,2,0,0,0-2.387-1.517,1.935,1.935,0,0,0-.2.055L5.6,9.693,3.129,8.259a.5.5,0,0,0-.407-.042l-1.348.442a.5.5,0,0,0-.234.788l2.56,3.18A1,1,0,0,0,4.479,13H8.162l.318-.052,2.068-.689L9.12,19.4a.5.5,0,0,0,.49.6h2.057a.5.5,0,0,0,.461-.308l3.851-9.244h0l6.545-2.181A2.079,2.079,0,0,0,23.953,5.9Z" fill="#61616b"></path></svg>