<svg xmlns="http://www.w3.org/2000/svg" height="24" width="24" viewBox="0 0 24 24"><path data-color="color-2" d="M23,22h0a5.943,5.943,0,0,1-4.71-2.3,1.035,1.035,0,0,0-1.576,0A6,6,0,0,1,12.117,22h-.21q-.315-.006-.631-.044A5.945,5.945,0,0,1,7.288,19.7a1.037,1.037,0,0,0-1.576,0A5.943,5.943,0,0,1,1,22H1a1,1,0,0,0,0,2H23a1,1,0,0,0,0-2Z" fill="#61616b"></path><rect width="5" height="18" rx="1" fill="#61616b"></rect><rect x="19" width="5" height="18" rx="1" fill="#61616b"></rect><path d="M7,14H17V6.921a7.052,7.052,0,0,1-10,0Z" fill="#61616b"></path></svg>