<svg xmlns="http://www.w3.org/2000/svg" height="24" width="24" viewBox="0 0 24 24"><path d="M.553,9.277,6,12H9a3.006,3.006,0,0,1,2.892,2.2L12,14.146V10.5L3,6A2,2,0,0,1,5,4,2.191,2.191,0,0,1,7,5.764l5,2.5h0V8a2.993,2.993,0,0,1,.535-1.7L10,5.027V1A1,1,0,0,0,9,0H1A1,1,0,0,0,0,1V8.382A1,1,0,0,0,.553,9.277Z" fill="#61616b" data-color="color-2"></path><path d="M1,14a1,1,0,0,0-1,1v8a1,1,0,0,0,1,1H3V21.107a2.075,2.075,0,0,1,1.664-2.08A2,2,0,0,1,7,21v3H9a1,1,0,0,0,.447-.105l14-7A1,1,0,0,0,24,16V8a1,1,0,0,0-.553-.895l-4-2a1,1,0,0,0-.894,0l-4,2A1,1,0,0,0,14,8v5.146l3-1.5V10a2,2,0,0,1,4,0v1.882l-11,5.5V15a1,1,0,0,0-1-1Z" fill="#61616b"></path></svg>