<svg xmlns="http://www.w3.org/2000/svg" height="24" width="24" viewBox="0 0 24 24"><path d="M24,2.5A2.486,2.486,0,0,0,23.268.732a2.56,2.56,0,0,0-3.536,0L15.25,5.215h0L11.86,4.048a4.962,4.962,0,0,1-1.136,2.27L8.8,8.253l2.037,1.372h0L7.732,12.732a1.075,1.075,0,0,0-.121.147L6.176,15H2L1,17l3.27.817-1.1,1.622a1,1,0,0,0,1.389,1.389l1.622-1.1L7,23l2-1V17.824l2.121-1.435a1.006,1.006,0,0,0,.147-.121l3.107-3.108h0L21,23l2-2L18.786,8.75h0l4.483-4.482A2.486,2.486,0,0,0,24,2.5Z" fill="#61616b"></path><path d="M9.23,4.988A2.987,2.987,0,0,0,5,.78,2.987,2.987,0,0,0,.77,4.988L5,9.243Z" fill="#61616b" data-color="color-2"></path></svg>