<svg xmlns="http://www.w3.org/2000/svg" height="24" width="24" viewBox="0 0 24 24"><path data-color="color-2" d="M22,24h1a.945.945,0,0,0,1-1V14a.945.945,0,0,0-1-1H22V24Z" fill="#61616b"></path><path data-color="color-2" d="M2,23V13H1a.945.945,0,0,0-1,1v9a.945.945,0,0,0,1,1H2Z" fill="#61616b"></path><path d="M19,0H5A1,1,0,0,0,4,1V23a1,1,0,0,0,1,1h5V20.5a.5.5,0,0,1,.5-.5h3a.5.5,0,0,1,.5.5V24h5a1,1,0,0,0,1-1V1A1,1,0,0,0,19,0ZM9.5,17h-2a.5.5,0,0,1-.5-.5v-1a.5.5,0,0,1,.5-.5h2a.5.5,0,0,1,.5.5v1A.5.5,0,0,1,9.5,17Zm0-4h-2a.5.5,0,0,1-.5-.5v-1a.5.5,0,0,1,.5-.5h2a.5.5,0,0,1,.5.5v1A.5.5,0,0,1,9.5,13Zm0-4h-2A.5.5,0,0,1,7,8.5v-1A.5.5,0,0,1,7.5,7h2a.5.5,0,0,1,.5.5v1A.5.5,0,0,1,9.5,9Zm0-4h-2A.5.5,0,0,1,7,4.5v-1A.5.5,0,0,1,7.5,3h2a.5.5,0,0,1,.5.5v1A.5.5,0,0,1,9.5,5Zm7,12h-2a.5.5,0,0,1-.5-.5v-1a.5.5,0,0,1,.5-.5h2a.5.5,0,0,1,.5.5v1A.5.5,0,0,1,16.5,17Zm0-4h-2a.5.5,0,0,1-.5-.5v-1a.5.5,0,0,1,.5-.5h2a.5.5,0,0,1,.5.5v1A.5.5,0,0,1,16.5,13Zm0-4h-2a.5.5,0,0,1-.5-.5v-1a.5.5,0,0,1,.5-.5h2a.5.5,0,0,1,.5.5v1A.5.5,0,0,1,16.5,9Zm0-4h-2a.5.5,0,0,1-.5-.5v-1a.5.5,0,0,1,.5-.5h2a.5.5,0,0,1,.5.5v1A.5.5,0,0,1,16.5,5Z" fill="#61616b"></path></svg>