<svg xmlns="http://www.w3.org/2000/svg" height="24" width="24" viewBox="0 0 24 24"><polygon points="17 10 17 6 13 6 11 6 7 6 7 10 11 10 13 10 17 10" fill="#61616b"></polygon><path d="M13,4h7.926A11.956,11.956,0,0,0,13,.05Z" fill="#61616b"></path><path d="M11,4V.05A11.956,11.956,0,0,0,3.074,4Z" fill="#61616b"></path><path d="M23.82,10a11.907,11.907,0,0,0-1.438-4H19v4Z" fill="#61616b"></path><path d="M5,10V6H1.619A11.908,11.908,0,0,0,.18,10Z" fill="#61616b"></path><path data-color="color-2" d="M16,19a4.01,4.01,0,0,0-4.41-3.979A4.13,4.13,0,0,0,8,19.189V23a1,1,0,0,0,1,1h6a1,1,0,0,0,1-1Z" fill="#61616b"></path><path d="M17.184,16H24V12H13v1.091A6.033,6.033,0,0,1,17.184,16Z" fill="#61616b"></path><path d="M17.909,18A6,6,0,0,1,18,19v3h5a1,1,0,0,0,1-1V18Z" fill="#61616b"></path><path d="M6.886,16A5.931,5.931,0,0,1,11,13.1V12H0v4Z" fill="#61616b"></path><path d="M0,18v3a1,1,0,0,0,1,1H6V19.225A6.31,6.31,0,0,1,6.129,18Z" fill="#61616b"></path></svg>