<svg xmlns="http://www.w3.org/2000/svg" height="24" width="24" viewBox="0 0 24 24"><path data-color="color-2" d="M23,22h0a5.943,5.943,0,0,1-4.71-2.3,1.035,1.035,0,0,0-1.576,0A6,6,0,0,1,12.117,22h-.21q-.315-.006-.631-.044A5.945,5.945,0,0,1,7.288,19.7a1.037,1.037,0,0,0-1.576,0A5.943,5.943,0,0,1,1,22H1a1,1,0,0,0,0,2H23a1,1,0,0,0,0-2Z" fill="#61616b"></path><path d="M2,12a1,1,0,0,1-.287-1.958l2.414-.724A1,1,0,0,1,4.7,11.234l-2.414.724A1.023,1.023,0,0,1,2,12Z" fill="#61616b"></path><path d="M4.414,6.725a.989.989,0,0,1-.287-.043L1.713,5.958a1,1,0,0,1,.574-1.916L4.7,4.766a1,1,0,0,1-.287,1.959Z" fill="#61616b"></path><path d="M22,12a.987.987,0,0,1-.287-.042L19.3,11.234a1,1,0,0,1,.574-1.916l2.414.724A1,1,0,0,1,22,12Z" fill="#61616b"></path><path d="M19.586,6.725A1,1,0,0,1,19.3,4.766l2.414-.724a1,1,0,1,1,.574,1.916l-2.414.724A1.024,1.024,0,0,1,19.586,6.725Z" fill="#61616b"></path><path d="M18.962,16.725,17,9.86V5a1,1,0,0,0-.293-.707l-4-4a1,1,0,0,0-1.414,0l-4,4A1,1,0,0,0,7,5V9.86L5.038,16.725A1,1,0,0,0,6,18H18a1,1,0,0,0,.962-1.275ZM12,10a2,2,0,1,1,2-2A2,2,0,0,1,12,10Z" fill="#61616b"></path></svg>