<svg xmlns="http://www.w3.org/2000/svg" height="24" width="24" viewBox="0 0 24 24"><path d="M24,7H18v5H6V7H0V22a1,1,0,0,0,1,1H8a1,1,0,0,0,1-1v-.884A3.075,3.075,0,0,1,11.91,18,2.949,2.949,0,0,1,15,21v1a1,1,0,0,0,1,1h7a1,1,0,0,0,1-1Z" fill="#61616b"></path><path data-color="color-2" d="M8,8v2h8V7.4A6.085,6.085,0,0,0,12,6,6.371,6.371,0,0,0,8,7.5Z" fill="#61616b"></path><path data-color="color-2" d="M24,5c0-1.4-1.8-3.2-2.3-3.7a.967.967,0,0,0-1.4,0C19.8,1.8,18,3.6,18,5Z" fill="#61616b"></path><path data-color="color-2" d="M6,5C6,3.6,4.2,1.8,3.7,1.3a.967.967,0,0,0-1.4,0C1.8,1.8,0,3.6,0,5Z" fill="#61616b"></path></svg>