<svg xmlns="http://www.w3.org/2000/svg" height="24" width="24" viewBox="0 0 24 24"><path data-color="color-2" d="M4,24H2a1,1,0,0,1-1-1V13a1,1,0,0,1,1-1H3a1,1,0,0,1,1,1Z" fill="#61616b"></path><path data-color="color-2" d="M20,24h2a1,1,0,0,0,1-1V13a1,1,0,0,0-1-1H21a1,1,0,0,0-1,1Z" fill="#61616b"></path><path d="M17,8.642V7a5.009,5.009,0,0,0-4-4.9V1a1,1,0,0,0-2,0V2.1A5.009,5.009,0,0,0,7,7V8.642A6.035,6.035,0,0,0,6,12V24H18V12A6.035,6.035,0,0,0,17,8.642ZM14,20.5a.5.5,0,0,1-.5.5h-3a.5.5,0,0,1-.5-.5v-1a.5.5,0,0,1,.5-.5h3a.5.5,0,0,1,.5.5Zm0-4a.5.5,0,0,1-.5.5h-3a.5.5,0,0,1-.5-.5v-1a.5.5,0,0,1,.5-.5h3a.5.5,0,0,1,.5.5Zm0-4a.5.5,0,0,1-.5.5h-3a.5.5,0,0,1-.5-.5v-1a.5.5,0,0,1,.5-.5h3a.5.5,0,0,1,.5.5ZM12,6a6.055,6.055,0,0,0-2.977.771,2.985,2.985,0,0,1,5.954,0A6.055,6.055,0,0,0,12,6Z" fill="#61616b"></path></svg>