<svg xmlns="http://www.w3.org/2000/svg" height="24" width="24" viewBox="0 0 24 24"><path d="M5,11v4H8V13.5a.5.5,0,0,1,.5-.5h1a.5.5,0,0,1,.5.5V15h4V13.5a.5.5,0,0,1,.5-.5h1a.5.5,0,0,1,.5.5V15h3V11Z" fill="#61616b"></path><path d="M5,20v3a1,1,0,0,0,1,1H8V22.5a.5.5,0,0,1,.5-.5h1a.5.5,0,0,1,.5.5V24h4V22.5a.5.5,0,0,1,.5-.5h1a.5.5,0,0,1,.5.5V24h2a1,1,0,0,0,1-1V20Z" fill="#61616b"></path><path d="M22.892,6.188a.5.5,0,0,0-.536-.167,3.9,3.9,0,0,1-3.079-.437L12.309.106a.56.56,0,0,0-.618,0L4.723,5.584a3.9,3.9,0,0,1-3.079.437.5.5,0,0,0-.578.727A4.527,4.527,0,0,0,5,9H19a4.527,4.527,0,0,0,3.934-2.252A.5.5,0,0,0,22.892,6.188Z" fill="#61616b" data-color="color-2"></path><path d="M22.911,15.715a.5.5,0,0,0-.555-.194A4.616,4.616,0,0,1,19,15H5a4.616,4.616,0,0,1-3.356.521A.5.5,0,0,0,1.1,16.3,4.49,4.49,0,0,0,5,18H19a4.49,4.49,0,0,0,3.9-1.7A.5.5,0,0,0,22.911,15.715Z" fill="#61616b" data-color="color-2"></path></svg>