<svg xmlns="http://www.w3.org/2000/svg" height="24" width="24" viewBox="0 0 24 24"><path d="M8,9h8a1,1,0,0,0,0-2h-.89c-.059-.664-.1-1.329-.11-2a3,3,0,0,0-2-2.816V1a1,1,0,0,0-2,0V2.184A2.991,2.991,0,0,0,9,4.99c-.007.674-.051,1.343-.111,2.01H8A1,1,0,0,0,8,9Z" fill="#61616b"></path><path d="M21.744,22.332a26.438,26.438,0,0,1-3.181-4.389A2.986,2.986,0,0,1,18,18H6a2.986,2.986,0,0,1-.563-.057,26.438,26.438,0,0,1-3.181,4.389A1,1,0,0,0,3,24H9.292a1,1,0,0,0,.98-.8C10.718,21.017,11.566,20,12,20s1.282,1.017,1.728,3.2a1,1,0,0,0,.98.8H21a1,1,0,0,0,.744-1.668Z" fill="#61616b"></path><path data-color="color-2" d="M6,16H18a1,1,0,0,0,0-2H16.7a26.32,26.32,0,0,1-.944-3H8.244A26.32,26.32,0,0,1,7.3,14H6a1,1,0,0,0,0,2Z" fill="#61616b"></path></svg>