<svg xmlns="http://www.w3.org/2000/svg" height="24" width="24" viewBox="0 0 24 24"><path d="M6.856,14.639l-.409,1.228L4.4,15.184a1,1,0,0,0-1.265.632L1.447,20.868a1,1,0,0,0,.632,1.265l2.526.842A.511.511,0,0,0,4.763,23a.5.5,0,0,0,.474-.342l2.568-7.7Z" fill="#61616b" data-color="color-2"></path><path d="M9.818,10.709l1.124-.562.6-2.534L8.553,9.105a1,1,0,0,0-.5.578l-1.318,3.95,1.9.632Z" fill="#61616b"></path><path d="M16.241,13.827,15.7,16.116l1.3,1.3V23h2V17a1,1,0,0,0-.293-.707Z" fill="#61616b"></path><path d="M21.684,10.052l-2.5.834L15.523,8.143,15.8,6.97a3.5,3.5,0,1,0-1.959-.408L10.026,22.771l1.947.459,3.05-12.962L18.4,12.8a1,1,0,0,0,.916.148l3-1Z" fill="#61616b"></path></svg>