<svg xmlns="http://www.w3.org/2000/svg" height="24" width="24" viewBox="0 0 24 24"><path d="M23,22H18.073l.343-2.786a1,1,0,0,0,.243-1.985l.488-3.97a1,1,0,0,0,.244-1.985L19.878,7.3a1,1,0,0,0,.244-1.985l-1.985-.243L18.5,2.1a1,1,0,0,0-.87-1.115L9.691.008a1,1,0,0,0-1.114.87L8.211,3.856,6.226,3.612A1,1,0,0,0,5.982,5.6L5.5,9.567a1,1,0,1,0-.244,1.985l-.487,3.971a1,1,0,1,0-.244,1.985L3.968,22H1a1,1,0,0,0,0,2H23a1,1,0,0,0,0-2Zm-6.326-5.015-1.985-.244.244-1.985A1,1,0,0,1,16.918,15Zm.975-7.94-.244,1.985-1.985-.244L15.664,8.8a1,1,0,1,1,1.985.244ZM10.44,2.115l5.955.731-.243,1.985L10.2,4.1ZM12.7,16.5l-1.985-.244.244-1.985a1,1,0,1,1,1.985.244Zm.731-5.956L11.45,10.3l.244-1.985a1,1,0,0,1,1.985.243ZM7.724,7.826a1,1,0,1,1,1.985.244l-.244,1.985L7.48,9.811Zm-.732,5.955a1,1,0,0,1,1.986.244L8.734,16.01l-1.985-.244ZM5.983,22l.278-2.263a1,1,0,1,1,1.985.243L8,22Zm4.03,0,.218-1.776a1,1,0,0,1,1.986.244L12.028,22Zm4.03,0,.159-1.288a1,1,0,1,1,1.985.243L16.058,22Z" fill="#61616b"></path></svg>