<svg xmlns="http://www.w3.org/2000/svg" height="24" width="24" viewBox="0 0 24 24"><circle cx="3.5" cy="4.5" r="1.5" fill="#61616b" data-color="color-2"></circle><circle cx="8.5" cy="1.5" r="1.5" fill="#61616b" data-color="color-2"></circle><circle cx="20.5" cy="4.5" r="1.5" fill="#61616b" data-color="color-2"></circle><circle cx="15.5" cy="1.5" r="1.5" fill="#61616b" data-color="color-2"></circle><path d="M18.97,22.758l-1-4a1,1,0,0,0-.345-.539l-5-4a1,1,0,0,0-1.25,0l-5,4a1,1,0,0,0-.345.539l-1,4A1,1,0,0,0,6,24h4V21a2,2,0,0,1,4,0v3h4a1,1,0,0,0,.97-1.242Z" fill="#61616b" data-color="color-2"></path><path d="M3.5,7a2.473,2.473,0,0,1-.707-.114C1.809,9.366,1.077,16.637,1.006,23a1,1,0,0,0,1,1H3.189a2.971,2.971,0,0,1-.1-1.728l.988-3.95c.113-4.054.347-7.176.658-9.553A12.174,12.174,0,0,0,4.2,6.887,2.487,2.487,0,0,1,3.5,7Z" fill="#61616b"></path><path d="M8.5,4a2.456,2.456,0,0,1-.716-.117c-.716,1.8-1.3,6.206-1.586,11.917l3.928-3.143a3,3,0,0,1,.454-.3A35.68,35.68,0,0,0,9.215,3.883,2.455,2.455,0,0,1,8.5,4Z" fill="#61616b"></path><path d="M20.5,7a2.487,2.487,0,0,1-.7-.113,12.174,12.174,0,0,0-.531,1.882c.311,2.377.545,5.5.658,9.553l.988,3.95a2.971,2.971,0,0,1-.1,1.728h1.181a1,1,0,0,0,1-1c-.071-6.358-.8-13.629-1.787-16.109A2.473,2.473,0,0,1,20.5,7Z" fill="#61616b"></path><path d="M15.5,4a2.455,2.455,0,0,1-.715-.117A35.679,35.679,0,0,0,13.42,12.36a3.087,3.087,0,0,1,.451.294L17.8,15.8c-.289-5.711-.87-10.121-1.586-11.917A2.456,2.456,0,0,1,15.5,4Z" fill="#61616b"></path></svg>