<svg xmlns="http://www.w3.org/2000/svg" height="24" width="24" viewBox="0 0 24 24"><path d="M5,8H5A1,1,0,0,0,4,7H4A1,1,0,0,0,3,8H3c0,3-3,3-3,6a2.613,2.613,0,0,0,.991,2H7.009A2.613,2.613,0,0,0,8,14C8,11,5,11,5,8Z" fill="#61616b" data-color="color-2"></path><path d="M21,8h0a1,1,0,0,0-1-1h0a1,1,0,0,0-1,1h0c0,3-3,3-3,6a2.613,2.613,0,0,0,.991,2h6.018A2.613,2.613,0,0,0,24,14C24,11,21,11,21,8Z" fill="#61616b" data-color="color-2"></path><path d="M15,24V16.836A4.545,4.545,0,0,1,14,14a4.83,4.83,0,0,1,.777-2.622L13.5,8h-3L9.267,11.228A5.322,5.322,0,0,1,10,14a4.468,4.468,0,0,1-1,2.8V24h2V21.5a.5.5,0,0,1,.5-.5h1a.5.5,0,0,1,.5.5V24Z" fill="#61616b"></path><path d="M1,18.022V23a1,1,0,0,0,1,1H7V18Z" fill="#61616b"></path><path d="M23,18.022V23a1,1,0,0,1-1,1H17V18Z" fill="#61616b"></path><path d="M13,1a1,1,0,0,0-2,0c0,2-1.5,2-1.5,3.5A2.471,2.471,0,0,0,10.013,6h3.974A2.471,2.471,0,0,0,14.5,4.5C14.5,3,13,3,13,1Z" fill="#61616b" data-color="color-2"></path></svg>