<svg xmlns="http://www.w3.org/2000/svg" height="24" width="24" viewBox="0 0 24 24"><polygon points="3.667 9 3 23 6 23 6 9 3.667 9" fill="#61616b" data-color="color-2"></polygon><path d="M23.079,2.487,22.914.494l-1,.082C18.529.857,15.192,1,12,1S5.471.857,2.083.576l-1-.082L.921,2.487l1,.082c.69.058,1.365.084,2.05.13L3.857,5H2V7H22V5H20.143l-.11-2.3c.685-.046,1.36-.072,2.05-.13ZM11,5H6V2.827q2.543.129,5,.151Zm7,0H13V2.978q2.458-.021,5-.151Z" fill="#61616b"></path><polygon points="18 9 18 23 21 23 20.333 9 18 9" fill="#61616b" data-color="color-2"></polygon></svg>