<svg xmlns="http://www.w3.org/2000/svg" height="24" width="24" viewBox="0 0 24 24"><path data-color="color-2" d="M3,15c0-2.941,1.982-6.511,3.863-9.238C5.323,4.7,4.047,3.966,3.724,3.784A1.033,1.033,0,0,0,2.3,4.3c-.347.918-3.35,9.086-1.906,13.08A7,7,0,0,0,6.3,21.958,8.983,8.983,0,0,1,3,15Z" fill="#61616b"></path><path data-color="color-2" d="M21.7,4.3a1.033,1.033,0,0,0-1.428-.516c-.323.182-1.6.919-3.139,1.978C19.018,8.489,21,12.059,21,15a8.983,8.983,0,0,1-3.3,6.958,7,7,0,0,0,5.91-4.578C25.054,13.386,22.051,5.218,21.7,4.3Z" fill="#61616b"></path><path d="M12,22a7.008,7.008,0,0,1-7-7c0-4.247,5.6-10.907,6.241-11.652a1.031,1.031,0,0,1,1.518,0C13.4,4.093,19,10.753,19,15A7.008,7.008,0,0,1,12,22Z" fill="#61616b"></path></svg>