<svg xmlns="http://www.w3.org/2000/svg" height="24" width="24" viewBox="0 0 24 24"><path d="M5,19H2a2,2,0,0,0-2,2v2a1,1,0,0,0,1,1H6a1,1,0,0,0,1-1V21A2,2,0,0,0,5,19Z" fill="#61616b" data-color="color-2"></path><path d="M22,19H19a2,2,0,0,0-2,2v2a1,1,0,0,0,1,1h5a1,1,0,0,0,1-1V21A2,2,0,0,0,22,19Z" fill="#61616b" data-color="color-2"></path><path d="M21.722,15.608A2,2,0,0,0,19.76,14H16.6l4.024-3.219A1,1,0,0,0,20.868,9.5l-4-7A1,1,0,0,0,16,2H13V1a1,1,0,0,0-2,0V2H8a1,1,0,0,0-.868.5l-4,7a1,1,0,0,0,.243,1.277L7.4,14H4.24a2,2,0,0,0-1.962,1.608L2,17H5a4,4,0,0,1,4,4v2h2V20a1,1,0,0,1,2,0v3h2V21a4,4,0,0,1,4-4h3ZM8,5A1,1,0,0,1,9,4h6a1,1,0,0,1,1,1V8A4,4,0,0,1,8,8Z" fill="#61616b"></path></svg>