<svg xmlns="http://www.w3.org/2000/svg" height="24" width="24" viewBox="0 0 24 24"><path d="M16.694,10.555,15.1,9.744l.862-2.051a.5.5,0,0,0-.655-.654l-1.988.836-.844-2.533a.52.52,0,0,0-.948,0l-.844,2.533L8.694,7.039a.5.5,0,0,0-.655.654L8.9,9.741l-1.624.812a.5.5,0,0,0,.1.932l1.785.446a2.98,2.98,0,0,0,5.675,0l1.753-.446a.5.5,0,0,0,.1-.929Z" fill="#61616b"></path><path d="M13.42,24l2.326-3.876a3.017,3.017,0,0,1,2.573-1.456,2.982,2.982,0,0,1,.681.086V18a3,3,0,0,0-3-3h-.009L12.2,21.5A1,1,0,1,1,10.47,20.5L13.676,15H8.414L6.89,13.477,5.326,8H6A1,1,0,0,0,6,6H2A1,1,0,0,0,2,8H3.117l.891,7.124.064.249L6,20.192V24Z" fill="#61616b"></path><path d="M19.952,24l.557-.928a1,1,0,0,0-.3-1.347l-1.334-.889a1,1,0,0,0-1.413.317L15.752,24Z" fill="#61616b" data-color="color-2"></path><path d="M4,0S2,1.608,2,3A2,2,0,0,0,6,3C6,1.608,4,0,4,0Z" fill="#61616b" data-color="color-2"></path></svg>