<svg xmlns="http://www.w3.org/2000/svg" height="24" width="24" viewBox="0 0 24 24"><path d="M23.357,11.2,20.274,3.489a2.992,2.992,0,0,0-1.837-1.732L16.318,1.05a1,1,0,1,0-.633,1.9l2.119.706a1,1,0,0,1,.613.578L21.5,11.939l.024.06H16a3,3,0,0,0-3,3H11a3,3,0,0,0-3-3H2.478L2.5,11.94,5.585,4.231A1,1,0,0,1,6.2,3.654l2.12-.706a1,1,0,0,0-.632-1.9l-2.12.707A2.99,2.99,0,0,0,3.728,3.489L.644,11.2A8.961,8.961,0,0,0,0,14.539V17a5.006,5.006,0,0,0,5,5H6a5.006,5.006,0,0,0,5-5h2a5.006,5.006,0,0,0,5,5h1a5.006,5.006,0,0,0,5-5v-2.46A8.966,8.966,0,0,0,23.357,11.2ZM2.616,18.8A2.966,2.966,0,0,1,2,17l0-.417L4.587,14H7.415Zm13,0A2.966,2.966,0,0,1,15,17l0-.417L17.587,14h2.828Z" fill="#61616b"></path></svg>