<svg xmlns="http://www.w3.org/2000/svg" height="24" width="24" viewBox="0 0 24 24"><path d="M23,24H1a1,1,0,0,1,0-2H23a1,1,0,0,1,0,2Z" fill="#61616b" data-color="color-2"></path><path d="M20.754,13l2.207-7.726A1,1,0,0,0,22,4a10.951,10.951,0,0,0-10.812,9Z" fill="#61616b" data-color="color-2"></path><path d="M8.121,11.88c-.045-.046-.1-.079-.147-.121L7,1.091A1,1,0,0,1,8,0a12.926,12.926,0,0,1,8.523,3.208,12.955,12.955,0,0,0-7.3,9.434l-.052.284Z" fill="#61616b"></path><path d="M2.219,11H5.9L5.413,5.676A8.958,8.958,0,0,0,2,5a1,1,0,0,0-.97,1.242Z" fill="#61616b" data-color="color-2"></path><path d="M1,20V14a1,1,0,0,1,1-1H6a1,1,0,0,1,.707.293L8.414,15H22a1,1,0,0,1,1,1v4Z" fill="#61616b"></path></svg>