<svg xmlns="http://www.w3.org/2000/svg" height="24" width="24" viewBox="0 0 24 24"><path data-color="color-2" d="M9.5,0h5a.5.5,0,0,1,.5.5V2H9V.5A.5.5,0,0,1,9.5,0Z" fill="#61616b"></path><path d="M23.121,11.121l-1.04-1.041L20.4,5.051A3,3,0,0,0,17.559,3H6.441A3,3,0,0,0,3.6,5.051L1.92,10.078.878,11.121A3,3,0,0,0,0,13.242V22a1,1,0,0,0,1,1H4a1,1,0,0,0,1-1V20H19v2a1,1,0,0,0,1,1h3a1,1,0,0,0,1-1V13.243A3,3,0,0,0,23.121,11.121ZM5.492,5.684A1,1,0,0,1,6.441,5H17.559a1,1,0,0,1,.949.684L19.946,10H4.054ZM7,14.5a.5.5,0,0,1-.5.5h-3a.5.5,0,0,1-.5-.5v-1a.5.5,0,0,1,.5-.5h3a.5.5,0,0,1,.5.5Zm10.5.5a.5.5,0,0,1-.5-.5v-1a.5.5,0,0,1,.5-.5h3a.5.5,0,0,1,.5.5v1a.5.5,0,0,1-.5.5Z" fill="#61616b"></path></svg>