<svg xmlns="http://www.w3.org/2000/svg" height="24" width="24" viewBox="0 0 24 24"><path data-color="color-2" d="M23,22h0a5.943,5.943,0,0,1-4.71-2.3,1.035,1.035,0,0,0-1.576,0A6,6,0,0,1,12.117,22h-.21q-.315-.006-.631-.044A5.945,5.945,0,0,1,7.288,19.7a1.037,1.037,0,0,0-1.576,0A5.943,5.943,0,0,1,1,22H1a1,1,0,0,0,0,2H23a1,1,0,0,0,0-2Z" fill="#61616b"></path><path d="M15.52,17.288a1,1,0,0,1-.936-.647L8.9,1.689a1,1,0,0,1,.617-1.3A8.451,8.451,0,0,1,12.068.021c3.131,0,7.422,1.473,10.09,8.486l1.778,4.673a1,1,0,0,1-.59,1.294L16,17.177a1.351,1.351,0,0,1-.458.111Z" fill="#61616b"></path><circle cx="3.001" cy="5.999" r="2" fill="#61616b"></circle><path d="M7.075,14.2l-1.493.374L5.022,11H7a1.014,1.014,0,0,0,.447-.1L9.81,9.715c-.242-.635-.482-1.268-.716-1.881L6.765,9H4.182a1.963,1.963,0,0,0-.334.027,2,2,0,0,0-1.639,2.306L2.837,15.1c.009.051.019.1.032.152a2,2,0,0,0,2.425,1.456L7.56,16.14l2.164,3.246,1.664-1.111L9.224,15.03A2,2,0,0,0,7.075,14.2Z" fill="#61616b"></path></svg>