<svg xmlns="http://www.w3.org/2000/svg" height="24" width="24" viewBox="0 0 24 24"><g stroke-linecap="square" stroke-miterlimit="10" fill="#61616b" stroke-linejoin="miter" class="nc-icon-wrapper"><line x1="7" y1="12" x2="17" y2="12" fill="none" stroke="#61616b" stroke-width="2" data-color="color-2"></line><path d="m10,16c0,1.105-.895,2-2,2H3c-1.105,0-2-.895-2-2v-8c0-1.105.895-2,2-2h5c1.105,0,2,.895,2,2" fill="none" stroke="#61616b" stroke-width="2"></path><path d="m14,16c0,1.105.895,2,2,2h5c1.105,0,2-.895,2-2v-8c0-1.105-.895-2-2-2h-5c-1.105,0-2,.895-2,2" fill="none" stroke="#61616b" stroke-width="2"></path></svg>