<svg xmlns="http://www.w3.org/2000/svg" height="24" width="24" viewBox="0 0 24 24"><g stroke-linecap="square" stroke-miterlimit="10" fill="#61616b" stroke-linejoin="miter" class="nc-icon-wrapper"><path d="M12 22L18 14.5L22 18.5" stroke="#61616b" stroke-width="2" data-cap="butt" fill="none" stroke-linecap="butt"></path> <path d="M20 9L11 9C9.89543 9 9 9.89543 9 11L9 20C9 21.1046 9.89543 22 11 22H20C21.1046 22 22 21.1046 22 20V11C22 9.89543 21.1046 9 20 9Z" stroke="#61616b" stroke-width="2" fill="none"></path> <path d="M13.5 14C13.7761 14 14 13.7761 14 13.5C14 13.2239 13.7761 13 13.5 13C13.2239 13 13 13.2239 13 13.5C13 13.7761 13.2239 14 13.5 14Z" fill="#61616b" stroke="#61616b" stroke-width="2"></path> <path d="M5 11V2" stroke="#61616b" stroke-width="2" fill="none"></path> <path d="M1 2H9" stroke="#61616b" stroke-width="2" fill="none"></path> <path d="M3.25 15.75L2.5 14L1.75 15.75L0 16.5L1.75 17.25L2.5 19L3.25 17.25L5 16.5L3.25 15.75Z" fill="#61616b" data-color="color-2" data-stroke="none" stroke="none"></path> <path d="M4.95 21.05L4.5 20L4.05 21.05L3 21.5L4.05 21.95L4.5 23L4.95 21.95L6 21.5L4.95 21.05Z" fill="#61616b" data-color="color-2" data-stroke="none" stroke="none"></path> <path d="M18.9 2.1L18 0L17.1 2.1L15 3L17.1 3.9L18 6L18.9 3.9L21 3L18.9 2.1Z" fill="#61616b" data-color="color-2" data-stroke="none" stroke="none"></path></svg>