<svg xmlns="http://www.w3.org/2000/svg" height="24" width="24" viewBox="0 0 24 24"><g stroke-linecap="square" stroke-miterlimit="10" fill="#61616b" stroke-linejoin="miter" class="nc-icon-wrapper"><path d="M19 3H5C3.89543 3 3 3.89543 3 5V19C3 20.1046 3.89543 21 5 21H19C20.1046 21 21 20.1046 21 19V5C21 3.89543 20.1046 3 19 3Z" stroke="#61616b" stroke-width="2" fill="none"></path> <path d="M10 7V7C11.1046 7 12 7.89543 12 9L12 15C12 16.1046 11.1046 17 10 17V17" stroke="#61616b" stroke-width="2" data-color="color-2" fill="none"></path> <path d="M14 7V7C12.8954 7 12 7.89543 12 9L12 15C12 16.1046 12.8954 17 14 17V17" stroke="#61616b" stroke-width="2" data-color="color-2" fill="none"></path></svg>