<svg xmlns="http://www.w3.org/2000/svg" height="24" width="24" viewBox="0 0 24 24"><path d="M21,0H3A1,1,0,0,0,2,1V23a1,1,0,0,0,1,1H21a1,1,0,0,0,1-1V1A1,1,0,0,0,21,0ZM12.457,18.28a1.252,1.252,0,0,1-.962.365,1.247,1.247,0,0,1-.958-.357,1.4,1.4,0,0,1-.334-1A1.157,1.157,0,0,1,11.5,15.964a1.275,1.275,0,0,1,.966.348,1.351,1.351,0,0,1,.334.979A1.4,1.4,0,0,1,12.457,18.28ZM15.59,9.7a3.378,3.378,0,0,1-.584.98A9.58,9.58,0,0,1,13.657,11.9a5.18,5.18,0,0,0-1.1,1.063,2.046,2.046,0,0,0-.276,1.134v.395H10.563v-.562a3.311,3.311,0,0,1,.352-1.609,4.582,4.582,0,0,1,1.23-1.327,6.805,6.805,0,0,0,1.349-1.283,1.928,1.928,0,0,0,.3-1.09,1.371,1.371,0,0,0-.492-1.134,2.216,2.216,0,0,0-1.415-.4,4.871,4.871,0,0,0-1.547.237A10.923,10.923,0,0,0,8.955,7.9L8.216,6.349a7.742,7.742,0,0,1,3.824-.994,4.135,4.135,0,0,1,2.733.844,2.87,2.87,0,0,1,1.011,2.329A3.322,3.322,0,0,1,15.59,9.7Z" fill="#61616b"></path></svg>