<svg xmlns="http://www.w3.org/2000/svg" height="24" width="24" viewBox="0 0 24 24"><circle cx="12" cy="12" r="2" fill="#61616b"></circle><path d="M21,0H3A1,1,0,0,0,2,1V23a1,1,0,0,0,1,1H21a1,1,0,0,0,1-1V1A1,1,0,0,0,21,0ZM18,13H15.858a3.915,3.915,0,0,1-.425,1.019l1.516,1.516-1.414,1.414-1.516-1.516A4,4,0,0,1,13,15.858V18H11V15.858a3.915,3.915,0,0,1-1.019-.425L8.465,16.949,7.051,15.535l1.516-1.516A3.915,3.915,0,0,1,8.142,13H6V11H8.142a3.915,3.915,0,0,1,.425-1.019L7.051,8.465,8.465,7.051,9.981,8.567A3.915,3.915,0,0,1,11,8.142V6h2V8.142a3.915,3.915,0,0,1,1.019.425l1.516-1.516,1.414,1.414L15.433,9.981A4,4,0,0,1,15.858,11H18Z" fill="#61616b"></path></svg>