<svg xmlns="http://www.w3.org/2000/svg" height="24" width="24" viewBox="0 0 24 24"><path d="M9.952,9.051a1.171,1.171,0,0,0,.313.835,3.175,3.175,0,0,0,1.129.659V7.812a2.052,2.052,0,0,0-1.073.431A1.032,1.032,0,0,0,9.952,9.051Z" fill="#61616b"></path><path d="M12.562,12.98v2.8q1.548-.239,1.547-1.327a1.093,1.093,0,0,0-.356-.84A3.658,3.658,0,0,0,12.562,12.98Z" fill="#61616b"></path><path d="M21,0H3A1,1,0,0,0,2,1V23a1,1,0,0,0,1,1H21a1,1,0,0,0,1-1V1A1,1,0,0,0,21,0ZM15.252,16.425a4.747,4.747,0,0,1-2.69,1.02v1.907H11.394V17.5a9.1,9.1,0,0,1-3.578-.668V14.975a9,9,0,0,0,1.767.62,8.042,8.042,0,0,0,1.811.259V12.567l-.739-.273a5.2,5.2,0,0,1-2.1-1.322,2.813,2.813,0,0,1-.663-1.9,2.477,2.477,0,0,1,.944-2,4.678,4.678,0,0,1,2.563-.949V4.648h1.168V6.1a9.668,9.668,0,0,1,3.384.721l-.641,1.608a9.423,9.423,0,0,0-2.743-.65v3.2l.668.255a6.113,6.113,0,0,1,2.312,1.353,2.507,2.507,0,0,1,.642,1.741A2.683,2.683,0,0,1,15.252,16.425Z" fill="#61616b"></path></svg>