<svg xmlns="http://www.w3.org/2000/svg" height="24" width="24" viewBox="0 0 24 24"><path d="M23,5H12.5l-3-4H1A1,1,0,0,0,0,2V20a3,3,0,0,0,3,3H21a3,3,0,0,0,3-3V6A1,1,0,0,0,23,5ZM11,18H7.929A3.949,3.949,0,0,1,4,14.128v-.141A3.945,3.945,0,0,1,7.873,10H11v2H8a1.986,1.986,0,0,0-1.456.6A1.934,1.934,0,0,0,6,13.982v.109A1.973,1.973,0,0,0,7.982,16H11Zm3-5a1,1,0,0,1,0,2H10a1,1,0,0,1,0-2Zm6,1.013A3.947,3.947,0,0,1,16.127,18H13V16h3.109A1.947,1.947,0,0,0,18,14.02v-.11A1.945,1.945,0,0,0,16.019,12H13V10h3a3.973,3.973,0,0,1,4,3.872Z" fill="#61616b"></path></svg>