<svg xmlns="http://www.w3.org/2000/svg" height="24" width="24" viewBox="0 0 24 24"><path d="M23,5H12.5l-2.7-3.6c-.189-.252-.485-.4-.8-.4H1c-.552,0-1,.448-1,1V20c0,1.657,1.343,3,3,3H21c1.657,0,3-1.343,3-3V6c0-.552-.448-1-1-1Zm-8,3c1.105,0,2,.895,2,2s-.895,2-2,2-2-.895-2-2,.895-2,2-2Zm-6,3c1.105,0,2,.895,2,2s-.895,2-2,2-2-.895-2-2,.895-2,2-2Zm-2.827,9c-.668,0-1.177-.652-.962-1.285,.535-1.579,2.029-2.715,3.789-2.715s3.254,1.136,3.789,2.715c.214,.633-.294,1.285-.962,1.285H6.173Zm8.015-3c-.574-.99-1.418-1.796-2.433-2.324,1.28-1.796,3.773-2.215,5.569-.935,.69,.492,1.196,1.182,1.463,1.964,.217,.636-.288,1.295-.961,1.295h-3.638Z" fill="#61616b"></path></svg>