<svg xmlns="http://www.w3.org/2000/svg" height="24" width="24" viewBox="0 0 24 24"><circle cx="12" cy="14" r="2" fill="#61616b"></circle><path d="M23,5H12.5l-3-4H1A1,1,0,0,0,0,2V20a3,3,0,0,0,3,3H21a3,3,0,0,0,3-3V6A1,1,0,0,0,23,5ZM18,15H15.858a3.915,3.915,0,0,1-.425,1.019l1.517,1.517L15.536,18.95l-1.517-1.517A3.915,3.915,0,0,1,13,17.858V20H11V17.858a3.915,3.915,0,0,1-1.019-.425L8.464,18.95,7.05,17.536l1.517-1.517A3.915,3.915,0,0,1,8.142,15H6V13H8.142a3.915,3.915,0,0,1,.425-1.019L7.05,10.464,8.464,9.05l1.517,1.517A3.915,3.915,0,0,1,11,10.142V8h2v2.142a3.915,3.915,0,0,1,1.019.425L15.536,9.05l1.414,1.414-1.517,1.517A3.915,3.915,0,0,1,15.858,13H18Z" fill="#61616b"></path></svg>