<svg xmlns="http://www.w3.org/2000/svg" height="24" width="24" viewBox="0 0 24 24"><path d="M23,5H12.5l-3-4H1A1,1,0,0,0,0,2V20a3,3,0,0,0,3,3H21a3,3,0,0,0,3-3V6A1,1,0,0,0,23,5ZM12.593,19.375a1.27,1.27,0,0,1-.937.333,1.313,1.313,0,0,1-.952-.325,1.448,1.448,0,0,1-.007-1.849,1.334,1.334,0,0,1,.959-.316,1.3,1.3,0,0,1,.941.322,1.424,1.424,0,0,1,0,1.835ZM15.01,12.7a5.227,5.227,0,0,1-1.391,1.318,4.276,4.276,0,0,0-.89.791,1.224,1.224,0,0,0-.187.71v.439H10.6v-.541a2.4,2.4,0,0,1,.3-1.223A3.933,3.933,0,0,1,12,13.087a4.556,4.556,0,0,0,1.014-.892,1.3,1.3,0,0,0,.245-.77.832.832,0,0,0-.351-.724,1.669,1.669,0,0,0-.981-.25,5.65,5.65,0,0,0-2.506.718l-.8-1.6a6.965,6.965,0,0,1,3.463-.915,3.692,3.692,0,0,1,2.4.724,2.369,2.369,0,0,1,.889,1.934A2.576,2.576,0,0,1,15.01,12.7Z" fill="#61616b"></path></svg>