<svg xmlns="http://www.w3.org/2000/svg" height="24" width="24" viewBox="0 0 24 24"><path d="M10.528,11.316a.7.7,0,0,0,.223.532,2.651,2.651,0,0,0,.722.428V10.555Q10.528,10.695,10.528,11.316Z" fill="#61616b"></path><path d="M12.476,14.8v1.824q1-.168,1-.864a.663.663,0,0,0-.249-.521A3.35,3.35,0,0,0,12.476,14.8Z" fill="#61616b"></path><path d="M23,5H12.5l-3-4H1A1,1,0,0,0,0,2V20a3,3,0,0,0,3,3H21a3,3,0,0,0,3-3V6A1,1,0,0,0,23,5ZM14.834,17.524a4.184,4.184,0,0,1-2.358.846v1.5h-1V18.4a8.142,8.142,0,0,1-3.135-.629V15.836a8.5,8.5,0,0,0,1.534.557,8.268,8.268,0,0,0,1.6.285v-2.27l-.491-.191a5.465,5.465,0,0,1-2.054-1.241,2.381,2.381,0,0,1-.605-1.66A2.164,2.164,0,0,1,9.154,9.57a4.232,4.232,0,0,1,2.319-.832V7.618h1V8.709a8.346,8.346,0,0,1,3.032.674L14.82,11.1a7.958,7.958,0,0,0-2.344-.573v2.162a11.275,11.275,0,0,1,2.033.952,2.785,2.785,0,0,1,.886.886,2.2,2.2,0,0,1,.282,1.127A2.32,2.32,0,0,1,14.834,17.524Z" fill="#61616b"></path></svg>