<svg xmlns="http://www.w3.org/2000/svg" height="24" width="24" viewBox="0 0 24 24"><line x1="14.042" y1="12" x2="9.958" y2="12" fill="none" stroke="#61616b" stroke-width="2" data-cap="butt"></line><line x1="9.958" y1="12" x2="14.042" y2="12" fill="none" stroke="#61616b" stroke-width="2" data-cap="butt" data-color="color-2"></line><polyline points="7.917 8.5 9.958 5 14.042 5 16.083 8.5" fill="none" stroke="#61616b" stroke-width="2" data-cap="butt"></polyline><polyline points="16.083 15.5 14.042 19 9.958 19 7.917 15.5" fill="none" stroke="#61616b" stroke-width="2" data-cap="butt"></polyline><line x1="3.833" y1="8.5" x2="1.792" y2="5" fill="none" stroke="#61616b" stroke-width="2" data-cap="butt"></line><line x1="7.917" y1="1.5" x2="9.958" y2="5" fill="none" stroke="#61616b" stroke-width="2" data-cap="butt"></line><line x1="14.042" y1="5" x2="16.083" y2="1.5" fill="none" stroke="#61616b" stroke-width="2" data-cap="butt"></line><line x1="22.208" y1="5" x2="20.167" y2="8.5" fill="none" stroke="#61616b" stroke-width="2" data-cap="butt"></line><line x1="20.167" y1="15.5" x2="22.208" y2="19" fill="none" stroke="#61616b" stroke-width="2" data-cap="butt"></line><line x1="16.083" y1="22.5" x2="14.042" y2="19" fill="none" stroke="#61616b" stroke-width="2" data-cap="butt"></line><line x1="9.958" y1="19" x2="7.917" y2="22.5" fill="none" stroke="#61616b" stroke-width="2" data-cap="butt"></line><line x1="1.792" y1="19" x2="3.833" y2="15.5" fill="none" stroke="#61616b" stroke-width="2" data-cap="butt"></line><polygon points="7.917 15.5 3.833 15.5 1.792 12 3.833 8.5 7.917 8.5 9.958 12 7.917 15.5" fill="none" stroke="#61616b" stroke-width="2" data-cap="butt" data-color="color-2"></polygon><polygon points="16.083 15.5 20.167 15.5 22.208 12 20.167 8.5 16.083 8.5 14.042 12 16.083 15.5" fill="none" stroke="#61616b" stroke-width="2" data-cap="butt" data-color="color-2"></polygon></svg>