<svg xmlns="http://www.w3.org/2000/svg" height="24" width="24" viewBox="0 0 24 24"><path d="M14.308,15.191,12.167,17.3a17.411,17.411,0,0,1-3.092-2.376A17.607,17.607,0,0,1,6.7,11.834L8.81,9.693a.918.918,0,0,0,.189-1L6.8,3.56a.918.918,0,0,0-1.078-.525L1.688,4.1A.919.919,0,0,0,1,5.019,19.4,19.4,0,0,0,6.49,17.511,19.4,19.4,0,0,0,18.986,23a.917.917,0,0,0,.917-.688l1.066-4.036a.917.917,0,0,0-.524-1.078L15.316,15A.917.917,0,0,0,14.308,15.191Z" fill="none" stroke="#61616b" stroke-width="2"></path><line x1="18" y1="4" x2="18" y2="8" fill="none" stroke="#61616b" stroke-width="2" data-color="color-2"></line><line x1="16" y1="6" x2="20" y2="6" fill="none" stroke="#61616b" stroke-width="2" data-color="color-2"></line><path d="M18,1a4.974,4.974,0,0,0-4.518,7.11L13,11l2.89-.482A4.994,4.994,0,1,0,18,1Z" fill="none" stroke="#61616b" stroke-width="2" data-color="color-2"></path></svg>