<svg xmlns="http://www.w3.org/2000/svg" height="24" width="24" viewBox="0 0 24 24"><line x1="19.219" y1="15.888" x2="17" y2="15" fill="none" stroke="#61616b" stroke-width="2" data-color="color-2"></line><circle cx="22" cy="17" r="1" fill="#61616b" data-color="color-2" data-stroke="none" stroke="none"></circle><circle cx="20" cy="21" r="1.25" fill="#61616b" data-color="color-2" data-stroke="none" stroke="none"></circle><line x1="14" y1="18" x2="14.888" y2="20.219" fill="none" stroke="#61616b" stroke-width="2" data-color="color-2"></line><circle cx="16" cy="23" r="1" fill="#61616b" data-color="color-2" data-stroke="none" stroke="none"></circle><path d="M3.683,22.342a3,3,0,0,1-1.341-4.025L3,17l3.317,1.658a3,3,0,0,0,4.025-1.341L11,16,9,13h4.541L14,11l3.5-.5L15.985,3.936A12.91,12.91,0,0,0,17,2" fill="none" stroke="#61616b" stroke-width="2"></path><path d="M3,3.706A6.99,6.99,0,0,0,5,4,6.972,6.972,0,0,0,9.894,2" fill="none" stroke="#61616b" stroke-width="2"></path></svg>