<svg xmlns="http://www.w3.org/2000/svg" height="24" width="24" viewBox="0 0 24 24"><path d="M18.416,13.815A18.657,18.657,0,0,0,22.5,10S19,5,15,5a6.553,6.553,0,0,0-3,1A6.553,6.553,0,0,0,9,5c-4,0-7.5,5-7.5,5S5.925,16,12,16a9.568,9.568,0,0,0,2.021-.227" fill="none" stroke="#61616b" stroke-width="2" data-cap="butt"></path><path d="M1.5,10c3,1,4.5,0,6,0s2,.5,4.5.5c2,0,2.5-.5,4-.5s3.5,1,6.5,0" fill="none" stroke="#61616b" stroke-width="2" data-cap="butt"></path><path d="M22.572,16.966l-4.561-3.458a2.5,2.5,0,1,0-3.021,3.984L20.935,22" fill="none" stroke="#61616b" stroke-width="2"></path><line x1="2" y1="22" x2="22" y2="2" fill="none" stroke="#61616b" stroke-width="2" data-color="color-2"></line></svg>