<svg xmlns="http://www.w3.org/2000/svg" height="24" width="24" viewBox="0 0 24 24"><path d="M8.2,1l.214.535a3,3,0,0,1-.289,2.778l-.182.273a3,3,0,0,0-.215,2.95l1.948,4.107" fill="none" stroke="#61616b" stroke-width="2" data-cap="butt" data-color="color-2"></path><path d="M13,16a3,3,0,0,1,0-6h1.258" fill="none" stroke="#61616b" stroke-width="2" data-cap="butt"></path><path d="M4,14V13a3,3,0,0,1,6,0" fill="none" stroke="#61616b" stroke-width="2" data-cap="butt"></path><line x1="15.318" y1="11.682" x2="14" y2="13" fill="none" stroke="#61616b" stroke-width="2"></line><path d="M3.561,16.561A1.5,1.5,0,0,1,1,15.5v-3a1.5,1.5,0,0,1,3,0V13" fill="none" stroke="#61616b" stroke-width="2"></path><path d="M7.172,14.172A3.984,3.984,0,0,0,6,17c0,2.209,2,4,5,4a9,9,0,0,0,8.963-8.264,4.48,4.48,0,1,0-4.645-1.054h0" fill="none" stroke="#61616b" stroke-width="2" data-cap="butt"></path></svg>