<svg xmlns="http://www.w3.org/2000/svg" height="24" width="24" viewBox="0 0 24 24"><polyline data-color="color-2" points="1 11 8 11 10 8 14 14 16 11 23 11" fill="none" stroke="#61616b" stroke-width="2"></polyline> <path d="M5,14.2A58.932,58.932,0,0,0,12,22a58.932,58.932,0,0,0,7-7.8" fill="none" stroke="#61616b" stroke-width="2"></path> <path d="M22,7.429A5.458,5.458,0,0,0,16.545,2,5.521,5.521,0,0,0,12,4.443,5.521,5.521,0,0,0,7.455,2,5.458,5.458,0,0,0,2,7.429" fill="none" stroke="#61616b" stroke-width="2"></path></svg>