<svg xmlns="http://www.w3.org/2000/svg" height="24" width="24" viewBox="0 0 24 24"><path data-color="color-2" fill="none" stroke="#61616b" stroke-width="2" d="M6,7L6,7 C4.3,7,3,5.7,3,4v0c0-1.7,1.3-3,3-3h0c1.7,0,3,1.3,3,3v0C9,5.7,7.7,7,6,7z"></path> <polygon fill="none" stroke="#61616b" stroke-width="2" points="8,23 4,23 4,19 2,16 2,10 10,10 10,16 8,19 "></polygon> <line data-color="color-2" fill="none" stroke="#61616b" stroke-width="2" x1="15" y1="6" x2="18" y2="6"></line> <line data-color="color-2" fill="none" stroke="#61616b" stroke-width="2" x1="15" y1="10" x2="17" y2="10"></line> <line data-color="color-2" fill="none" stroke="#61616b" stroke-width="2" x1="15" y1="14" x2="18" y2="14"></line> <line data-color="color-2" fill="none" stroke="#61616b" stroke-width="2" x1="15" y1="18" x2="17" y2="18"></line> <rect x="15" y="1" fill="none" stroke="#61616b" stroke-width="2" width="7" height="22"></rect></svg>