<svg xmlns="http://www.w3.org/2000/svg" height="24" width="24" viewBox="0 0 24 24"><path fill="none" stroke="#61616b" stroke-width="2" d="M7,9H6C3.8,9,2,7.2,2,5v0 c0-2.2,1.8-4,4-4h10c1.1,0,2,0.9,2,2v0c0,1.1-0.9,2-2,2"></path> <path fill="none" stroke="#61616b" stroke-width="2" d="M7,5h12c2.2,0,4,1.8,4,4v0 c0,2.2-1.8,4-4,4H7"></path> <path fill="none" stroke="#61616b" stroke-width="2" d="M17,9H5c-2.2,0-4,1.8-4,4v0 c0,2.2,1.8,4,4,4h5v6"></path> <path fill="none" stroke="#61616b" stroke-width="2" d="M9,13h2c1.7,0,3,1.3,3,3v7"></path></svg>