<svg xmlns="http://www.w3.org/2000/svg" height="24" width="24" viewBox="0 0 24 24"><line x1="1.521" y1="16" x2="14.5" y2="16" fill="none" stroke="#61616b" stroke-width="2" data-cap="butt" data-color="color-2"></line><path d="M23,12a2,2,0,0,1-4,0c0-2,2-4,2-4S23,10,23,12Z" fill="none" stroke="#61616b" stroke-width="2" data-color="color-2"></path><path d="M12.848,23h-9.7a2,2,0,0,1-2-2.147l.714-9.992A2,2,0,0,1,3.866,9h8.268a2,2,0,0,1,2,1.861l.714,9.992A2,2,0,0,1,12.848,23Z" fill="none" stroke="#61616b" stroke-width="2"></path><path d="M3,1H18a3,3,0,0,1,3,3" fill="none" stroke="#61616b" stroke-width="2"></path><rect x="5" y="5" width="6" height="4" fill="none" stroke="#61616b" stroke-width="2"></rect><path d="M8,1V5" fill="none" stroke="#61616b" stroke-width="2" data-cap="butt"></path></svg>