<svg xmlns="http://www.w3.org/2000/svg" height="24" width="24" viewBox="0 0 24 24"><line x1="12" y1="12" x2="12" y2="1" fill="none" stroke="#61616b" stroke-width="2"></line><polyline points="16 15 12 12 8 15" fill="none" stroke="#61616b" stroke-width="2" data-cap="butt"></polyline><path d="M3.708,22.869l1.707-.647A4,4,0,0,0,8,18.482V4S1,6,1,15v6A2,2,0,0,0,3.708,22.869Z" fill="none" stroke="#61616b" stroke-width="2"></path><path d="M22.464,11A14.217,14.217,0,0,1,23,15v6a2,2,0,0,1-2.708,1.871l-1.707-.647A4,4,0,0,1,16,18.482V4a9.133,9.133,0,0,1,2.674,1.434" fill="none" stroke="#61616b" stroke-width="2"></path><circle cx="21" cy="8" r="1" fill="#61616b" data-color="color-2" data-stroke="none" stroke="none"></circle><circle cx="19" cy="12" r="1" fill="#61616b" data-color="color-2" data-stroke="none" stroke="none"></circle><circle cx="20" cy="16" r="1" fill="#61616b" data-color="color-2" data-stroke="none" stroke="none"></circle></svg>