<svg xmlns="http://www.w3.org/2000/svg" height="24" width="24" viewBox="0 0 24 24"><line data-color="color-2" x1="12" y1="12" x2="12" y2="1" fill="none" stroke="#61616b" stroke-width="2"></line><polyline data-cap="butt" data-color="color-2" points="16 15 12 12 8 15" fill="none" stroke="#61616b" stroke-width="2"></polyline><path d="M3.708,22.869l1.707-.647A4,4,0,0,0,8,18.482V4S1,6,1,15v6A2,2,0,0,0,3.708,22.869Z" fill="none" stroke="#61616b" stroke-width="2"></path><path d="M20.292,22.869l-1.707-.647A4,4,0,0,1,16,18.482V4s7,2,7,11v6A2,2,0,0,1,20.292,22.869Z" fill="none" stroke="#61616b" stroke-width="2"></path></svg>