<svg xmlns="http://www.w3.org/2000/svg" height="24" width="24" viewBox="0 0 24 24"><path d="M19,18.663V5a2,2,0,0,1,4,0v8c0,4.418-4.5,7-11,7S1,17.418,1,13V5A2,2,0,0,1,5,5V18.664" fill="none" stroke="#61616b" stroke-width="2" data-cap="butt"></path><path d="M19,6.343A16.549,16.549,0,0,0,12,5,16.549,16.549,0,0,0,5,6.343" fill="none" stroke="#61616b" stroke-width="2" data-cap="butt"></path><path d="M16,10.126C14.783,10.044,13.443,10,12,10s-2.783.044-4,.126" fill="none" stroke="#61616b" stroke-width="2" data-color="color-2"></path><path d="M16,14.874c-1.217.082-2.557.126-4,.126s-2.783-.044-4-.126" fill="none" stroke="#61616b" stroke-width="2" data-color="color-2"></path></svg>