<svg xmlns="http://www.w3.org/2000/svg" height="24" width="24" viewBox="0 0 24 24"><path d="M4.5,7h0a2,2,0,0,1-2-2h0a2,2,0,0,1,2-2h0a2,2,0,0,1,2,2h0A2,2,0,0,1,4.5,7Z" fill="none" stroke="#61616b" stroke-width="2"></path><path d="M2,22V17H1V13a3,3,0,0,1,3-3H5a3,3,0,0,1,3,3v4H7v5Z" fill="none" stroke="#61616b" stroke-width="2"></path><path d="M19.5,7h0a2,2,0,0,1-2-2h0a2,2,0,0,1,2-2h0a2,2,0,0,1,2,2h0A2,2,0,0,1,19.5,7Z" fill="none" stroke="#61616b" stroke-width="2"></path><path d="M17,22V17H16V13a3,3,0,0,1,3-3h1a3,3,0,0,1,3,3v4H22v5Z" fill="none" stroke="#61616b" stroke-width="2"></path><line x1="12" y1="1" x2="12" y2="23" fill="none" stroke="#61616b" stroke-width="2" data-color="color-2"></line></svg>