<svg xmlns="http://www.w3.org/2000/svg" height="24" width="24" viewBox="0 0 24 24"><polyline points="10 23 2 23 2 1 20 1 20 5" fill="none" stroke="#61616b" stroke-width="2"></polyline> <line x1="7" y1="7" x2="13" y2="7" fill="none" stroke="#61616b" stroke-width="2"></line> <line x1="7" y1="12" x2="10" y2="12" fill="none" stroke="#61616b" stroke-width="2"></line> <line x1="7" y1="17" x2="8" y2="17" fill="none" stroke="#61616b" stroke-width="2"></line> <path d="M18,22.567l1.084.338a2,2,0,0,0,2.487-1.163l1.247-3.5c.875-2.456-1.549-4.824-4.209-4.113L18,14.291l-.609-.163c-2.66-.711-5.084,1.657-4.209,4.113l1.247,3.5A2,2,0,0,0,16.916,22.9Z" fill="none" stroke="#61616b" stroke-width="2" data-color="color-2"></path> <path d="M21,8h0V9a3,3,0,0,1-3,3h0V11A3,3,0,0,1,21,8Z" fill="#61616b" data-color="color-2" data-stroke="none" stroke="none"></path></svg>