<svg xmlns="http://www.w3.org/2000/svg" height="24" width="24" viewBox="0 0 24 24"><path d="M14.93,14.483A3.987,3.987,0,1,0,9.471,9.154" fill="none" stroke="#61616b" stroke-width="2"></path><path d="M11,19.77A8.848,8.848,0,0,0,13,20a9,9,0,1,0-8.484-6" fill="none" stroke="#61616b" stroke-width="2"></path><path d="M2.376,23a2.352,2.352,0,0,0,.36-1.232v-.045A2.368,2.368,0,0,1,5.1,19.355,2.368,2.368,0,0,0,7.317,17.83l.651-1.707" fill="none" stroke="#61616b" stroke-width="2" data-cap="butt" data-color="color-2"></path><ellipse cx="9.736" cy="14.355" rx="2.5" ry="2" transform="translate(-7.299 11.089) rotate(-45)" fill="none" stroke="#61616b" stroke-width="2" data-color="color-2"></ellipse></svg>