<svg xmlns="http://www.w3.org/2000/svg" height="24" width="24" viewBox="0 0 24 24"><path d="M9,22.025a1.976,1.976,0,0,1-3.951,0c0-1.314,1.976-2.913,1.976-2.913S9,20.593,9,22.025Z" fill="#61616b" data-color="color-2" data-stroke="none" stroke="none"></path><path d="M17,19v2.5a1.5,1.5,0,0,1-3,0V21" fill="none" stroke="#61616b" stroke-width="2" data-color="color-2"></path><path d="M16.481,11.406,14.95,3.5a2.99,2.99,0,0,0-5.9,0l-1.531,7.9A2.991,2.991,0,0,0,9,17a2.887,2.887,0,0,0,.338-.034,3.944,3.944,0,0,0,5.324,0A2.887,2.887,0,0,0,15,17a2.991,2.991,0,0,0,1.481-5.594Z" fill="none" stroke="#61616b" stroke-width="2"></path></svg>