<svg xmlns="http://www.w3.org/2000/svg" height="24" width="24" viewBox="0 0 24 24"><path d="M4.5,6h0a2,2,0,0,1-2-2h0a2,2,0,0,1,2-2h0a2,2,0,0,1,2,2h0A2,2,0,0,1,4.5,6Z" fill="none" stroke="#61616b" stroke-width="2"></path><path d="M2,22V16H1V12A3,3,0,0,1,4,9H5a3,3,0,0,1,3,3" fill="none" stroke="#61616b" stroke-width="2"></path><path d="M17.5,4h0a2,2,0,0,1,2-2h0a2,2,0,0,1,2,2h0a2,2,0,0,1-2,2h0A2,2,0,0,1,17.5,4Z" fill="none" stroke="#61616b" stroke-width="2"></path><path d="M16,12a3,3,0,0,1,3-3h1a3,3,0,0,1,3,3v4H22v6" fill="none" stroke="#61616b" stroke-width="2"></path><line x1="6" y1="19" x2="18" y2="19" fill="none" stroke="#61616b" stroke-width="2" data-cap="butt" data-color="color-2"></line><polyline points="9 22 6 19 9 16" fill="none" stroke="#61616b" stroke-width="2" data-color="color-2"></polyline><polyline points="14.998 22 17.998 19 14.998 16" fill="none" stroke="#61616b" stroke-width="2" data-color="color-2"></polyline></svg>