<svg xmlns="http://www.w3.org/2000/svg" height="24" width="24" viewBox="0 0 24 24"><path d="M22.278,1.722a3.018,3.018,0,0,0-4.23.326,3.018,3.018,0,0,0-.326,4.23,3.018,3.018,0,0,0,4.23-.326A3.018,3.018,0,0,0,22.278,1.722Z" fill="none" stroke="#61616b" stroke-width="2" data-cap="butt" data-color="color-2"></path><path d="M12.4,1.6a2.515,2.515,0,0,0-3.525.271A2.515,2.515,0,0,0,8.6,5.4a2.515,2.515,0,0,0,3.525-.271A2.515,2.515,0,0,0,12.4,1.6Z" fill="none" stroke="#61616b" stroke-width="2" data-cap="butt"></path><path d="M22.4,11.6a2.515,2.515,0,0,0-3.525.271A2.515,2.515,0,0,0,18.6,15.4a2.515,2.515,0,0,0,3.525-.271A2.515,2.515,0,0,0,22.4,11.6Z" fill="none" stroke="#61616b" stroke-width="2" data-cap="butt"></path><path d="M18.6,15.4l-.654,1.062A3.238,3.238,0,0,1,15.191,18h0a3.237,3.237,0,0,0-3.005,2.035L11,23" fill="none" stroke="#61616b" stroke-width="2" data-cap="butt"></path><path d="M8.6,5.4l-1.062.654A3.237,3.237,0,0,0,6,8.808H6a3.238,3.238,0,0,1-2.035,3.006L1,13" fill="none" stroke="#61616b" stroke-width="2" data-cap="butt"></path><path d="M17.762,6.317l-1.873,2.5a4.174,4.174,0,0,1-2.327,1.544h0a4.175,4.175,0,0,0-3.08,3.231l-.039.193A4.174,4.174,0,0,1,7.9,16.84l-1.879.751a4.171,4.171,0,0,0-1.709,1.268L1,23" fill="none" stroke="#61616b" stroke-width="2" data-cap="butt" data-color="color-2"></path></svg>