<svg xmlns="http://www.w3.org/2000/svg" height="24" width="24" viewBox="0 0 24 24"><path fill="none" stroke="#61616b" stroke-width="2" d="M21,13h-6c0-3.8-1-4.6-1-7 c0-3,1.8-5,4-5h0c2.2,0,4,2,4,5S21,13,21,13z"></path> <path data-color="color-2" fill="none" stroke="#61616b" stroke-width="2" d="M18,21L18,21 c-2.1,0-3.6-1.9-3.2-3.9L15,16h6l0.2,1.1C21.6,19.1,20.1,21,18,21z"></path> <path fill="none" stroke="#61616b" stroke-width="2" d="M3,15h6c0-3.8,1-4.6,1-7 c0-3-1.8-5-4-5h0C3.8,3,2,5,2,8S3,15,3,15z"></path> <path data-color="color-2" fill="none" stroke="#61616b" stroke-width="2" d="M6,23L6,23 c2.1,0,3.6-1.9,3.2-3.9L9,18H3l-0.2,1.1C2.4,21.1,3.9,23,6,23z"></path></svg>