<svg xmlns="http://www.w3.org/2000/svg" height="24" width="24" viewBox="0 0 24 24"><line x1="6.867" y1="2.22" x2="8.714" y2="1.455" fill="none" stroke="#61616b" stroke-width="2"></line><line x1="7.79" y1="1.837" x2="9.321" y2="5.533" fill="none" stroke="#61616b" stroke-width="2" data-cap="butt"></line><line x1="1.455" y1="8.714" x2="2.22" y2="6.867" fill="none" stroke="#61616b" stroke-width="2"></line><line x1="1.837" y1="7.79" x2="5.533" y2="9.321" fill="none" stroke="#61616b" stroke-width="2" data-cap="butt"></line><line x1="2.22" y1="17.133" x2="1.455" y2="15.286" fill="none" stroke="#61616b" stroke-width="2"></line><line x1="1.837" y1="16.21" x2="5.533" y2="14.679" fill="none" stroke="#61616b" stroke-width="2" data-cap="butt"></line><line x1="8.714" y1="22.545" x2="6.867" y2="21.78" fill="none" stroke="#61616b" stroke-width="2"></line><line x1="7.79" y1="22.163" x2="9.321" y2="18.467" fill="none" stroke="#61616b" stroke-width="2" data-cap="butt"></line><line x1="17.133" y1="21.78" x2="15.286" y2="22.545" fill="none" stroke="#61616b" stroke-width="2"></line><line x1="16.21" y1="22.163" x2="14.679" y2="18.467" fill="none" stroke="#61616b" stroke-width="2" data-cap="butt"></line><line x1="22.545" y1="15.286" x2="21.78" y2="17.133" fill="none" stroke="#61616b" stroke-width="2"></line><line x1="22.163" y1="16.21" x2="18.467" y2="14.679" fill="none" stroke="#61616b" stroke-width="2" data-cap="butt"></line><line x1="21.78" y1="6.867" x2="22.545" y2="8.714" fill="none" stroke="#61616b" stroke-width="2"></line><line x1="22.163" y1="7.79" x2="18.467" y2="9.321" fill="none" stroke="#61616b" stroke-width="2" data-cap="butt"></line><line x1="15.286" y1="1.455" x2="17.133" y2="2.22" fill="none" stroke="#61616b" stroke-width="2"></line><line x1="16.21" y1="1.837" x2="14.679" y2="5.533" fill="none" stroke="#61616b" stroke-width="2" data-cap="butt"></line><circle cx="12" cy="12" r="7" fill="none" stroke="#61616b" stroke-width="2" data-cap="butt"></circle><circle cx="10.5" cy="14.5" r="1.5" fill="#61616b" data-color="color-2" data-stroke="none" stroke="none"></circle><circle cx="15" cy="12" r="1.5" fill="#61616b" data-color="color-2" data-stroke="none" stroke="none"></circle><circle cx="10.5" cy="9.5" r="1.5" fill="#61616b" data-color="color-2" data-stroke="none" stroke="none"></circle></svg>