<svg xmlns="http://www.w3.org/2000/svg" height="24" width="24" viewBox="0 0 24 24"><path d="M20,18a2,2,0,0,1-2,2H6a2,2,0,0,1-2-2V6A2,2,0,0,1,6,4H18a2,2,0,0,1,2,2Z" fill="none" stroke="#61616b" stroke-width="2"></path> <line x1="6" y1="1" x2="18" y2="1" fill="none" stroke="#61616b" stroke-width="2"></line> <line x1="6" y1="23" x2="18" y2="23" fill="none" stroke="#61616b" stroke-width="2"></line> <path d="M15.674,8.741a2.537,2.537,0,0,0-3.674.1,2.535,2.535,0,1,0-3.674,3.49L12,16l3.674-3.675a2.533,2.533,0,0,0,0-3.584Z" fill="#61616b" data-color="color-2" data-stroke="none" stroke="none"></path></svg>