<svg xmlns="http://www.w3.org/2000/svg" height="24" width="24" viewBox="0 0 24 24"><path d="M5.2,1A14.94,14.94,0,0,1,7,8c0,4-3,6-1.8,15" fill="none" stroke="#61616b" stroke-width="2" data-cap="butt"></path><path d="M18.8,1A14.94,14.94,0,0,0,17,8c0,4,3,6,1.8,15" fill="none" stroke="#61616b" stroke-width="2" data-cap="butt"></path><line x1="12" y1="22" x2="12" y2="20" fill="none" stroke="#61616b" stroke-width="2"></line><line x1="5.836" y1="13" x2="18.164" y2="13" fill="none" stroke="#61616b" stroke-width="2" data-cap="butt"></line><path d="M12,20s-3.209-4-6.865-4" fill="none" stroke="#61616b" stroke-width="2" data-cap="butt"></path><path d="M12,20s3.209-4,6.865-4" fill="none" stroke="#61616b" stroke-width="2" data-cap="butt"></path><circle cx="12" cy="9" r="1" fill="#61616b" data-stroke="none" stroke="none"></circle><path d="M3.18,11.884A.5.5,0,0,0,4,11.5v-5a.5.5,0,0,0-.288-.453A.507.507,0,0,0,3.5,6a.5.5,0,0,0-.32.116l-3,2.5a.5.5,0,0,0,0,.768Z" fill="#61616b" data-color="color-2" data-stroke="none" stroke="none"></path><path d="M20.288,11.953a.5.5,0,0,0,.532-.068l3-2.5a.5.5,0,0,0,0-.769l-3-2.5A.5.5,0,0,0,20.5,6a.493.493,0,0,0-.212.048A.5.5,0,0,0,20,6.5v5A.5.5,0,0,0,20.288,11.953Z" fill="#61616b" data-color="color-2" data-stroke="none" stroke="none"></path></svg>