<svg xmlns="http://www.w3.org/2000/svg" height="24" width="24" viewBox="0 0 24 24"><path data-cap="butt" d="M5.2,1A14.94,14.94,0,0,1,7,8c0,4-3,6-1.8,15" fill="none" stroke="#61616b" stroke-width="2"></path><path data-cap="butt" d="M18.8,1A14.94,14.94,0,0,0,17,8c0,4,3,6,1.8,15" fill="none" stroke="#61616b" stroke-width="2"></path><line x1="12" y1="22" x2="12" y2="20" fill="none" stroke="#61616b" stroke-width="2"></line><line data-cap="butt" x1="5.836" y1="13" x2="18.164" y2="13" fill="none" stroke="#61616b" stroke-width="2"></line><path data-cap="butt" d="M12,20s-3.209-4-6.865-4" fill="none" stroke="#61616b" stroke-width="2"></path><path data-cap="butt" d="M12,20s3.209-4,6.865-4" fill="none" stroke="#61616b" stroke-width="2"></path><circle data-stroke="none" cx="12" cy="9" r="1" fill="#61616b" stroke="none"></circle><path data-color="color-2" data-stroke="none" d="M.82,6.116A.5.5,0,0,0,0,6.5v5a.5.5,0,0,0,.288.453A.507.507,0,0,0,.5,12a.5.5,0,0,0,.32-.116l3-2.5a.5.5,0,0,0,0-.768Z" fill="#61616b" stroke="none"></path><path data-color="color-2" data-stroke="none" d="M23.712,6.047a.5.5,0,0,0-.532.069l-3,2.5a.5.5,0,0,0,0,.768l3,2.5A.5.5,0,0,0,23.5,12a.507.507,0,0,0,.212-.047A.5.5,0,0,0,24,11.5v-5A.5.5,0,0,0,23.712,6.047Z" fill="#61616b" stroke="none"></path></svg>