<svg xmlns="http://www.w3.org/2000/svg" height="48" width="48" style="" viewBox="0 0 48 48"><path d="M33 1H7C4.24 1.003 2.003 3.24 2 6V46C2 46.552 2.448 47 3 47C3.178 47 3.353 46.952 3.507 46.862L20 37.16L36.493 46.86C36.969 47.14 37.582 46.981 37.862 46.505C37.952 46.352 38 46.178 38 46V6C37.997 3.24 35.76 1.003 33 1Z" fill="url(#nc-ui-7-0_linear_219_175)"></path><path d="M29 24C29 28.971 33.029 33 38 33C42.971 33 47 28.971 47 24C47 19.029 42.971 15 38 15C33.029 15 29 19.029 29 24Z" fill="url(#nc-ui-7-1_linear_219_175)"></path><path d="M39 19V23H43C43.552 23 44 23.448 44 24C44 24.552 43.552 25 43 25H39V29C39 29.552 38.552 30 38 30C37.448 30 37 29.552 37 29V25H33C32.448 25 32 24.552 32 24C32 23.448 32.448 23 33 23H37V19C37 18.448 37.448 18 38 18C38.552 18 39 18.448 39 19Z" fill="url(#nc-ui-7-2_linear_219_175)"></path><defs><linearGradient id="nc-ui-7-0_linear_219_175" x1="20" y1="1" x2="20" y2="47" gradientUnits="userSpaceOnUse"><stop stop-color="#FFD36E"></stop><stop offset="1" stop-color="#F6B828"></stop></linearGradient><linearGradient id="nc-ui-7-1_linear_219_175" x1="38" y1="15" x2="38" y2="33" gradientUnits="userSpaceOnUse"><stop stop-color="#C88509"></stop><stop offset="1" stop-color="#976507"></stop></linearGradient><linearGradient id="nc-ui-7-2_linear_219_175" x1="38" y1="18" x2="38" y2="30" gradientUnits="userSpaceOnUse"><stop stop-color="white"></stop><stop offset="1" stop-color="#FFF0CC"></stop></linearGradient></defs></svg>