<svg xmlns="http://www.w3.org/2000/svg" height="48" width="48" style="" viewBox="0 0 48 48"><path d="M37 1H11C8.24 1.003 6.003 3.24 6 6V46C6 46.552 6.448 47 7 47C7.178 47 7.353 46.952 7.507 46.862L24 37.16L40.493 46.86C40.969 47.14 41.582 46.981 41.862 46.505C41.952 46.352 42 46.178 42 46V6C41.997 3.24 39.76 1.003 37 1Z" fill="url(#nc-ui-7-0_linear_219_172)"></path> <path d="M30 20H25V25C25 25.552 24.552 26 24 26C23.448 26 23 25.552 23 25V20H18C17.448 20 17 19.552 17 19C17 18.448 17.448 18 18 18H23V13C23 12.448 23.448 12 24 12C24.552 12 25 12.448 25 13V18H30C30.552 18 31 18.448 31 19C31 19.552 30.552 20 30 20Z" fill="url(#nc-ui-7-1_linear_219_172)"></path> <defs> <linearGradient id="nc-ui-7-0_linear_219_172" x1="24" y1="1" x2="24" y2="47" gradientUnits="userSpaceOnUse"> <stop stop-color="#FFF0CC"></stop> <stop offset="1" stop-color="#FFE39E"></stop> </linearGradient> <linearGradient id="nc-ui-7-1_linear_219_172" x1="24" y1="12" x2="24" y2="26" gradientUnits="userSpaceOnUse"> <stop stop-color="#FFD36E"></stop> <stop offset="1" stop-color="#F6B828"></stop> </linearGradient> </defs></svg>