<svg xmlns="http://www.w3.org/2000/svg" height="48" width="48" viewBox="0 0 48 48"><path d="M41,43V3a1,1,0,0,0-1-1H36a1,1,0,0,0-1,1V43Z" fill="#d8d8d8"></path><path d="M13,43V3a1,1,0,0,0-1-1H8A1,1,0,0,0,7,3V43Z" fill="#d8d8d8"></path><rect x="3" y="43" width="14" height="3" fill="#b3b3b3"></rect><rect x="31" y="43" width="14" height="3" fill="#b3b3b3"></rect><rect x="7" y="26" width="6" height="2" fill="#b3b3b3"></rect><rect x="35" y="26" width="6" height="2" fill="#b3b3b3"></rect><path d="M46,6H2A1,1,0,0,0,1,7V25a1,1,0,0,0,1,1H46a1,1,0,0,0,1-1V7A1,1,0,0,0,46,6Z" fill="#d8d8d8"></path><rect x="3" y="8" width="42" height="16" fill="#fff"></rect><path d="M45,17.036l-9-9h9Zm-25-9h8l16,16H36Zm8,16H20l-16-16h8Zm-25-9,9,9H3Z" fill="#ed7064"></path><path d="M13,6H6.966V3a1,1,0,0,1,1-1H12a1,1,0,0,1,1,1Z" fill="#ffd764"></path><path d="M41,6H34.966V3a1,1,0,0,1,1-1H40a1,1,0,0,1,1,1Z" fill="#ffd764"></path></svg>