<svg xmlns="http://www.w3.org/2000/svg" height="48" width="48" viewBox="0 0 48 48"><path d="M39,13H25V5H39a1,1,0,0,1,.707.293l3,3a1,1,0,0,1,0,1.414l-3,3A1,1,0,0,1,39,13Z" fill="#47b0ea"></path><path d="M39,25H25V17H39a1,1,0,0,1,.707.293l3,3a1,1,0,0,1,0,1.414l-3,3A1,1,0,0,1,39,25Z" fill="#47b0ea"></path><path d="M23,11H9a1,1,0,0,0-.707.293l-3,3a1,1,0,0,0,0,1.414l3,3A1,1,0,0,0,9,19H23Z" fill="#47b0ea"></path><path d="M30,45H25V2a1,1,0,0,0-2,0V45H18a1,1,0,0,0,0,2H30a1,1,0,0,0,0-2Z" fill="#c6c6c6"></path><rect x="25" y="5" width="2" height="8" fill="#3584b0"></rect><rect x="25" y="17" width="2" height="8" fill="#3584b0"></rect></svg>