<svg xmlns="http://www.w3.org/2000/svg" height="48" width="48" viewBox="0 0 48 48"><path d="M22,41A13.015,13.015,0,0,1,9,28a1,1,0,0,1,2,0A11.013,11.013,0,0,0,22,39a1,1,0,0,1,0,2Z" fill="#ea9860"></path> <path d="M10,1a9.011,9.011,0,0,0-9,9c0,4.712,7.461,11.919,8.312,12.726a1,1,0,0,0,1.376,0C11.539,21.919,19,14.712,19,10A9.011,9.011,0,0,0,10,1Zm0,12a3,3,0,1,1,3-3A3,3,0,0,1,10,13Z" fill="#5a7a84"></path> <path d="M34,12A13.015,13.015,0,0,0,21,25c0,6.953,11.781,19.179,12.282,19.7a1,1,0,0,0,1.436,0C35.219,44.179,47,31.953,47,25A13.015,13.015,0,0,0,34,12Zm0,18a5,5,0,1,1,5-5A5,5,0,0,1,34,30Z" fill="#335262"></path></svg>