<svg xmlns="http://www.w3.org/2000/svg" height="48" width="48" viewBox="0 0 48 48"><path d="M24,2.876,6,17.6V44a2,2,0,0,0,2,2H40a2,2,0,0,0,2-2V17.6Z" fill="#e6e6e6"></path><path d="M46,22a1,1,0,0,1-.632-.226L24,4.292,2.633,21.774a1,1,0,0,1-1.266-1.548l22-18a1,1,0,0,1,1.266,0l22,18A1,1,0,0,1,46,22Z" fill="#e86c60"></path><rect x="28.879" y="31.05" width="4.243" height="9.899" transform="translate(-16.376 32.464) rotate(-45)" fill="#c19f85"></rect><circle cx="23" cy="28" r="8" fill="#bfdee0"></circle><path d="M23,37a9,9,0,1,1,9-9A9.01,9.01,0,0,1,23,37Zm0-16a7,7,0,1,0,7,7A7.009,7.009,0,0,0,23,21Z" fill="#223e49"></path></svg>