<svg xmlns="http://www.w3.org/2000/svg" height="48" width="48" viewBox="0 0 48 48"><path d="M18.294,1.044A.981.981,0,0,0,18,1V39.046l12.706,3.91A1.015,1.015,0,0,0,31,43V4.954Z" fill="#76b5b4"></path> <path d="M17.757,1.03l-16,4A1,1,0,0,0,1,6V42a1,1,0,0,0,1.243.97l15.729-3.932.028.008V1A1,1,0,0,0,17.757,1.03Z" fill="#bfdee0"></path> <path d="M46.609,1.207a1,1,0,0,0-.867-.173L31.02,4.96,31,4.954V43a.976.976,0,0,0,.258-.032l15-4A1,1,0,0,0,47,38V2A1,1,0,0,0,46.609,1.207Z" fill="#9bced3"></path> <path d="M32,47a1,1,0,0,0,.709-.294l7.563-7.59a5.946,5.946,0,0,0,0-8.379A5.9,5.9,0,0,0,32,30.648a5.9,5.9,0,0,0-8.27.089,5.945,5.945,0,0,0,0,8.379l7.561,7.59A1,1,0,0,0,32,47Z" fill="#e86c60"></path></svg>