<svg xmlns="http://www.w3.org/2000/svg" height="48" width="48" viewBox="0 0 48 48"><path d="M18.294,2.044A.981.981,0,0,0,18,2V40.046l12.706,3.91A1.015,1.015,0,0,0,31,44V5.954Z" fill="#76b5b4"></path> <path d="M17.757,2.03l-16,4A1,1,0,0,0,1,7V43a1,1,0,0,0,1.243.97l15.729-3.932.028.008V2A1,1,0,0,0,17.757,2.03Z" fill="#bfdee0"></path> <path d="M46.609,2.207a1,1,0,0,0-.867-.173L31.02,5.96,31,5.954V44a.976.976,0,0,0,.258-.032l15-4A1,1,0,0,0,47,39V3A1,1,0,0,0,46.609,2.207Z" fill="#9bced3"></path> <path d="M32,24c-4.424,0-9,3.229-9,8.634,0,5.015,7.459,12.278,8.31,13.09a1,1,0,0,0,1.38,0c.851-.812,8.31-8.075,8.31-13.09C41,27.229,36.424,24,32,24Z" fill="#e86c60"></path> <path d="M32,36a3,3,0,1,1,3-3A3,3,0,0,1,32,36Z" fill="#fff"></path></svg>