<svg xmlns="http://www.w3.org/2000/svg" height="48" width="48" viewBox="0 0 48 48"><path d="M18.294,1.044A.981.981,0,0,0,18,1V39.046l12.706,3.91A1.015,1.015,0,0,0,31,43V4.954Z" fill="#76b5b4"></path> <path d="M17.757,1.03l-16,4A1,1,0,0,0,1,6V42a1,1,0,0,0,1.243.97l15.729-3.932.028.008V1A1,1,0,0,0,17.757,1.03Z" fill="#bfdee0"></path> <path d="M46.609,1.207a1,1,0,0,0-.867-.173L31.02,4.96,31,4.954V43a.976.976,0,0,0,.258-.032l15-4A1,1,0,0,0,47,38V2A1,1,0,0,0,46.609,1.207Z" fill="#9bced3"></path> <path d="M37.657,28.515l-2.329,2.329A6.914,6.914,0,0,0,34,30.3V27H30v3.3a6.914,6.914,0,0,0-1.328.549l-2.329-2.329-2.828,2.828,2.329,2.329A6.914,6.914,0,0,0,25.3,35H22v4h3.3a6.914,6.914,0,0,0,.549,1.328l-2.329,2.329,2.828,2.828,2.329-2.329A6.914,6.914,0,0,0,30,43.705V47h4v-3.3a6.914,6.914,0,0,0,1.328-.549l2.329,2.329,2.828-2.828-2.329-2.329A6.914,6.914,0,0,0,38.705,39H42V35h-3.3a6.914,6.914,0,0,0-.549-1.328l2.329-2.329Z" fill="#444"></path> <circle cx="32" cy="37" r="3" fill="#fff"></circle></svg>