<svg xmlns="http://www.w3.org/2000/svg" height="48" width="48" viewBox="0 0 48 48"><path d="M18.294,1.044A.981.981,0,0,0,18,1V39.046l12.706,3.91A1.015,1.015,0,0,0,31,43V4.954Z" fill="#76b5b4"></path> <path d="M17.757,1.03l-16,4A1,1,0,0,0,1,6V42a1,1,0,0,0,1.243.97l15.729-3.932.028.008V1A1,1,0,0,0,17.757,1.03Z" fill="#bfdee0"></path> <path d="M46.609,1.207a1,1,0,0,0-.867-.173L31.02,4.96,31,4.954V43a.976.976,0,0,0,.258-.032l15-4A1,1,0,0,0,47,38V2A1,1,0,0,0,46.609,1.207Z" fill="#9bced3"></path> <path d="M37,27A10,10,0,1,0,47,37,10.011,10.011,0,0,0,37,27Z" fill="#efd358"></path> <path d="M40.3,42.724a.668.668,0,0,1-.31-.077L37,41.078l-2.986,1.569a.667.667,0,0,1-.967-.7l.57-3.324L31.2,36.265a.667.667,0,0,1,.37-1.137l3.339-.485L36.4,31.618a.7.7,0,0,1,1.2,0l1.492,3.025,3.339.485a.667.667,0,0,1,.37,1.137L40.383,38.62l.57,3.324a.668.668,0,0,1-.657.78Z" fill="#fff"></path></svg>