<svg xmlns="http://www.w3.org/2000/svg" height="48" width="48" viewBox="0 0 48 48"><path d="M18.294,1.044A.981.981,0,0,0,18,1V39.046l12.706,3.91A1.015,1.015,0,0,0,31,43V4.954Z" fill="#76b5b4"></path> <path d="M17.757,1.03l-16,4A1,1,0,0,0,1,6V42a1,1,0,0,0,1.243.97l15.729-3.932.028.008V1A1,1,0,0,0,17.757,1.03Z" fill="#bfdee0"></path> <path d="M46.609,1.207a1,1,0,0,0-.867-.173L31.02,4.96,31,4.954V43a.976.976,0,0,0,.258-.032l15-4A1,1,0,0,0,47,38V2A1,1,0,0,0,46.609,1.207Z" fill="#9bced3"></path> <path d="M37,27A10,10,0,1,0,47,37,10.011,10.011,0,0,0,37,27Z" fill="#8680d8"></path> <path d="M41.185,32.709A5.988,5.988,0,0,0,31.09,36h2.052a3.98,3.98,0,0,1,6.652-1.854L38,36h5V30.834Z" fill="#fff"></path> <path d="M40.858,38A4,4,0,0,1,37,41a4.071,4.071,0,0,1-2.794-1.146L36,38H31v5.166l1.814-1.874A6.088,6.088,0,0,0,37,43a6.006,6.006,0,0,0,5.91-5Z" fill="#fff"></path></svg>