<svg xmlns="http://www.w3.org/2000/svg" height="48" width="48" viewBox="0 0 48 48"><path d="M18.294,3.044A.981.981,0,0,0,18,3V41.046l12.706,3.91A1.015,1.015,0,0,0,31,45V6.954Z" fill="#76b5b4"></path> <path d="M17.757,3.03l-16,4A1,1,0,0,0,1,8V44a1,1,0,0,0,1.243.97l15.729-3.932.028.008V3A1,1,0,0,0,17.757,3.03Z" fill="#bfdee0"></path> <path d="M46.609,3.207a1,1,0,0,0-.867-.173L31.02,6.96,31,6.954V45a.976.976,0,0,0,.258-.032l15-4A1,1,0,0,0,47,40V4A1,1,0,0,0,46.609,3.207Z" fill="#9bced3"></path> <path d="M45,36H41V25H37V36H33a1,1,0,0,0-.8,1.6l6,8a1,1,0,0,0,1.6,0l6-8A1,1,0,0,0,45,36Z" fill="#335262"></path></svg>