<svg xmlns="http://www.w3.org/2000/svg" height="48" width="48" viewBox="0 0 48 48"><path d="M24,46a1,1,0,0,1-.707-.293C22.627,45.042,7,29.285,7,18A16.836,16.836,0,0,1,24,1,16.836,16.836,0,0,1,41,18c0,11.285-15.627,27.042-16.293,27.707A1,1,0,0,1,24,46Z" fill="#e86c60"></path> <path d="M32,26H16V23.869a2.991,2.991,0,0,1,1.919-2.8,17.711,17.711,0,0,1,12.15.013A2.993,2.993,0,0,1,32,23.886Z" fill="#fff"></path> <path d="M20,13.091a4,4,0,1,1,8,0C28,15.35,26.209,18,24,18S20,15.35,20,13.091Z" fill="#fff"></path></svg>