<svg xmlns="http://www.w3.org/2000/svg" height="48" width="48" viewBox="0 0 48 48"><path d="M20,46a1,1,0,0,1-.707-.293C18.627,45.042,3,29.285,3,18A16.836,16.836,0,0,1,20,1,16.836,16.836,0,0,1,37,18c0,11.285-15.627,27.042-16.293,27.707A1,1,0,0,1,20,46Z" fill="#5a7a84"></path> <circle cx="20" cy="18" r="6" fill="#fff"></circle> <path d="M34,46a1,1,0,0,0,.709-.294l7.563-7.59a5.946,5.946,0,0,0,0-8.379A5.9,5.9,0,0,0,34,29.649a5.9,5.9,0,0,0-8.27.089,5.945,5.945,0,0,0,0,8.379l7.561,7.59A1,1,0,0,0,34,46Z" fill="#e86c60"></path></svg>