<svg xmlns="http://www.w3.org/2000/svg" height="48" width="48" viewBox="0 0 48 48"><path d="M32,29a3.99,3.99,0,0,1,3.4-3.94A19.21,19.21,0,0,0,37,18,16.836,16.836,0,0,0,20,1,16.836,16.836,0,0,0,3,18C3,29.285,18.627,45.042,19.293,45.707a1,1,0,0,0,1.414,0A90.145,90.145,0,0,0,32,31.582Z" fill="#5a7a84"></path> <circle cx="20" cy="18" r="6" fill="#fff"></circle> <path d="M40,34a1,1,0,0,1-1-1V29a3,3,0,0,0-6,0v4a1,1,0,0,1-2,0V29a5,5,0,0,1,10,0v4A1,1,0,0,1,40,34Z" fill="#a68d0c"></path> <path d="M43,46H29a2,2,0,0,1-2-2V34a2,2,0,0,1,2-2H43a2,2,0,0,1,2,2V44A2,2,0,0,1,43,46Z" fill="#efd358"></path> <path d="M38,38a2,2,0,1,0-3,1.723V43h2V39.723A1.994,1.994,0,0,0,38,38Z" fill="#a68d0c"></path></svg>