<svg xmlns="http://www.w3.org/2000/svg" height="48" width="48" viewBox="0 0 48 48"><path d="M22,46a1,1,0,0,1-.707-.293C20.627,45.042,5,29.285,5,18A16.836,16.836,0,0,1,22,1,16.836,16.836,0,0,1,39,18c0,11.285-15.627,27.042-16.293,27.707A1,1,0,0,1,22,46Z" fill="#5a7a84"></path> <circle cx="22" cy="18" r="6" fill="#fff"></circle> <circle cx="32" cy="35" r="6" fill="#bfdee0"></circle> <rect x="37.122" y="38.05" width="4" height="8.142" transform="translate(-18.326 39.998) rotate(-44.998)" fill="#c19f85"></rect> <path d="M32,42a7,7,0,1,1,7-7A7.008,7.008,0,0,1,32,42Zm0-12a5,5,0,1,0,5,5A5.006,5.006,0,0,0,32,30Z" fill="#223e49"></path></svg>