<svg xmlns="http://www.w3.org/2000/svg" height="48" width="48" viewBox="0 0 48 48"><path d="M20,46a1,1,0,0,1-.707-.293C18.627,45.042,3,29.285,3,18A16.836,16.836,0,0,1,20,1,16.836,16.836,0,0,1,37,18c0,11.285-15.627,27.042-16.293,27.707A1,1,0,0,1,20,46Z" fill="#5a7a84"></path> <circle cx="20" cy="18" r="6" fill="#fff"></circle> <path d="M25,36A10,10,0,1,0,35,26,10,10,0,0,0,25,36Z" fill="#72c472"></path> <path d="M36,32v3h3a1,1,0,0,1,0,2H36v3a1,1,0,0,1-2,0V37H31a1,1,0,0,1,0-2h3V32a1,1,0,0,1,2,0Z" fill="#fff"></path></svg>