<svg xmlns="http://www.w3.org/2000/svg" height="48" width="48" viewBox="0 0 48 48"><path d="M20,46a1,1,0,0,1-.707-.293C18.627,45.042,3,29.285,3,18A16.836,16.836,0,0,1,20,1,16.836,16.836,0,0,1,37,18c0,11.285-15.627,27.042-16.293,27.707A1,1,0,0,1,20,46Z" fill="#5a7a84"></path> <circle cx="20" cy="18" r="6" fill="#fff"></circle> <path d="M40.657,27.515l-2.329,2.329A6.914,6.914,0,0,0,37,29.3V26H33v3.3a6.914,6.914,0,0,0-1.328.549l-2.329-2.329-2.828,2.828,2.329,2.329A6.914,6.914,0,0,0,28.3,34H25v4h3.3a6.914,6.914,0,0,0,.549,1.328l-2.329,2.329,2.828,2.828,2.329-2.329A6.914,6.914,0,0,0,33,42.705V46h4v-3.3a6.914,6.914,0,0,0,1.328-.549l2.329,2.329,2.828-2.828-2.329-2.329A6.914,6.914,0,0,0,41.705,38H45V34h-3.3a6.914,6.914,0,0,0-.549-1.328l2.329-2.329Z" fill="#444"></path> <circle cx="35" cy="36" r="3" fill="#fff"></circle></svg>