<svg xmlns="http://www.w3.org/2000/svg" height="48" width="48" viewBox="0 0 48 48"><path fill="#72C472" d="M24,1C14.61121,1,7,8.61115,7,18 c0,10.1424,12.87262,23.22955,16.2149,26.4566c0.44031,0.42517,1.12988,0.42517,1.57025,0C28.12744,41.22955,41,28.1424,41,18 C41,8.61115,33.38879,1,24,1z"></path> <path fill="#FFFFFF" d="M30,17h-5v-5c0-0.55225-0.44727-1-1-1s-1,0.44775-1,1v5h-5c-0.55273,0-1,0.44775-1,1s0.44727,1,1,1h5v5 c0,0.55225,0.44727,1,1,1s1-0.44775,1-1v-5h5c0.55273,0,1-0.44775,1-1S30.55273,17,30,17z"></path></svg>