<svg xmlns="http://www.w3.org/2000/svg" height="48" width="48" viewBox="0 0 48 48"><path fill="#B3B3B3" d="M12,7C5.9249,7,1,11.92486,1,18 c0,6.56273,8.32934,15.03089,10.492,17.11898c0.28491,0.27511,0.7311,0.27511,1.01605,0C14.6707,33.03089,23,24.56273,23,18 C23,11.92486,18.0751,7,12,7z"></path> <path fill="#B3B3B3" d="M36,7c-6.0751,0-11,4.92486-11,11 c0,6.56273,8.32934,15.03089,10.492,17.11898c0.2849,0.27511,0.7311,0.27511,1.01604,0C38.6707,33.03089,47,24.56273,47,18 C47,11.92486,42.0751,7,36,7z"></path> <path fill="#E86C60" d="M24,9c-7.17967,0-13,5.82029-13,13 c0,7.75595,9.84377,17.76377,12.39963,20.23152c0.33671,0.32513,0.86403,0.32513,1.20078,0C27.15628,39.76377,37,29.75595,37,22 C37,14.82029,31.17967,9,24,9z"></path> <circle fill="#FFFFFF" cx="24" cy="22" r="5"></circle></svg>