<svg xmlns="http://www.w3.org/2000/svg" height="48" width="48" viewBox="0 0 48 48"><path d="M24,46a1,1,0,0,1-.707-.293C22.627,45.042,7,29.285,7,18A16.836,16.836,0,0,1,24,1,16.836,16.836,0,0,1,41,18c0,11.285-15.627,27.042-16.293,27.707A1,1,0,0,1,24,46Z" fill="#e86c60"></path> <path d="M19,10.3h4.662a8.85,8.85,0,0,1,4.689.945A3.312,3.312,0,0,1,29.8,14.227a3.616,3.616,0,0,1-.709,2.288,3.167,3.167,0,0,1-2.041,1.149v.107A4.06,4.06,0,0,1,29.479,19a3.724,3.724,0,0,1,.779,2.487A4.033,4.033,0,0,1,28.781,24.8,6.353,6.353,0,0,1,24.672,26H19Zm2.567,6.488h2.471a4.236,4.236,0,0,0,2.353-.51,1.955,1.955,0,0,0,.741-1.735,1.738,1.738,0,0,0-.8-1.6,5,5,0,0,0-2.541-.5H21.567Zm0,2.084v4.974H24.3a4.015,4.015,0,0,0,2.433-.618,2.278,2.278,0,0,0,.822-1.95,2.072,2.072,0,0,0-.838-1.815,4.44,4.44,0,0,0-2.546-.591Z" fill="#fff"></path></svg>