<svg xmlns="http://www.w3.org/2000/svg" height="48" width="48" viewBox="0 0 48 48"><path d="M24,2.876,6,17.6V44a2,2,0,0,0,2,2H36a6,6,0,0,0,6-6V17.6Z" fill="#ead8c5"></path><path d="M46,22a1,1,0,0,1-.632-.226L24,4.292,2.633,21.774a1,1,0,0,1-1.266-1.548l22-18a1,1,0,0,1,1.266,0l22,18A1,1,0,0,1,46,22Z" fill="#5a7a84"></path><path d="M38,25c-4.424,0-9,3.229-9,8.634,0,5.015,7.459,12.278,8.31,13.09a1,1,0,0,0,1.38,0c.851-.812,8.31-8.075,8.31-13.09C47,28.229,42.424,25,38,25Z" fill="#e86c60"></path><path d="M38,37a3,3,0,1,1,3-3A3,3,0,0,1,38,37Z" fill="#fff"></path></svg>