<svg xmlns="http://www.w3.org/2000/svg" height="48" width="48" viewBox="0 0 48 48"><path fill="#335262" d="M46,23h-8.00098c-0.55225,0-1-0.44775-1-1s0.44775-1,1-1H46c0.55225,0,1,0.44775,1,1S46.55225,23,46,23z"></path> <path fill="#335262" d="M10,23H2c-0.55225,0-1-0.44775-1-1s0.44775-1,1-1h8c0.55225,0,1,0.44775,1,1S10.55225,23,10,23z"></path> <path fill="#EFD358" d="M24,37c-8.271,0-15-6.729-15-15S15.729,7,24,7s15,6.729,15,15S32.271,37,24,37z"></path> <path fill="#FFFFFF" d="M24,23c-0.55225,0-1-0.44775-1-1v-8c0-0.55225,0.44775-1,1-1s1,0.44775,1,1v8C25,22.55225,24.55225,23,24,23 z"></path> <path fill="#FFFFFF" d="M24,30c-0.55225,0-1-0.44775-1-1v-1c0-0.55225,0.44775-1,1-1s1,0.44775,1,1v1C25,29.55225,24.55225,30,24,30 z"></path></svg>