<svg xmlns="http://www.w3.org/2000/svg" height="48" width="48" viewBox="0 0 48 48"><circle cx="24" cy="25" r="22" fill="#cbeafb"></circle><path d="M2,25A21.942,21.942,0,0,0,9.43,41.478l1.944-2.915s1.389-.4,1.688-.938C14,35.938,12.335,33,12.335,33A9.523,9.523,0,0,0,12,30.919c-.25-.625-2-1.481-2-1.481S8.312,26.688,8.312,25a2.517,2.517,0,0,1,2.375-2.624,4.1,4.1,0,0,0,2.688-1.938S15.5,19.875,16,19s-.562-3.994-.562-3.994a5.221,5.221,0,0,0-.021-2.506,4.739,4.739,0,0,0-1.574-1.895,10.4,10.4,0,0,0-2.449-3.631A21.97,21.97,0,0,0,2,25Z" fill="#78d478"></path><path d="M40.9,25.716c.5,1.188-.939,4.22-2.125,4.812a8.054,8.054,0,0,0-3.08,2.456c-.438.688-1.013,3.524-2.45,4.087s-4.845,3.77-6.657,3.27-1.813-4.813-.563-6.751c.746-1.157-.125-3.688-.188-4.562s-2.687-2.5-2.688-3.375c0-1.375,3-5,3-5a10.673,10.673,0,0,1,3.208-.625,11.346,11.346,0,0,1,2.167,1.062A15.05,15.05,0,0,1,35.4,21.9l1.438,1.312S40.4,24.528,40.9,25.716Z" fill="#78d478"></path><path d="M33,25a1,1,0,0,1-1-1V18a1,1,0,0,1,2,0v6A1,1,0,0,1,33,25Z" fill="#2a4b55"></path><path d="M33,19a9,9,0,1,1,9-9A9.01,9.01,0,0,1,33,19Z" fill="#ff7163"></path></svg>