<svg xmlns="http://www.w3.org/2000/svg" height="48" width="48" viewBox="0 0 48 48"><path d="M48,40c0,1.105-.895,2-2,2H2c-1.105,0-2-.895-2-2V17H48v23Z" fill="#da1f27"></path><path d="M48,18H0V8c0-1.105,.895-2,2-2H46c1.105,0,2,.895,2,2v10Z" fill="#29357e"></path><path id="path1328" d="M23.34,7.766c-.576,.95-.645,1.71-.252,3.022,.189,.612,.397,1.527,.485,2.022,.116,.7,.104,.766,.121,.918,.146,0,.476,0,.629,0,.022-.242,.04-.522,.091-.906,.06-.448,.239-1.386,.431-2.037,.384-1.301,.358-2.1-.239-3.004-.218-.335-.51-.612-.641-.612s-.427,.256-.626,.598Z" fill="#fbdd03"></path><path id="path1330" d="M26.168,10.454c-.815,.35-1.306,1.318-1.574,2.653-.049,.251-.062,.339-.086,.622,.176,0,.246,.002,.418,0,.038-.19,.065-.29,.148-.56,.329-1.043,1.298-1.462,1.254-.485-.015,.27-.128,.42-.255,.565,.156-.039,.489-.194,.758-.347,1.5-.904,.909-3.118-.663-2.448h0Z" fill="#fbdd03"></path><path id="path1332" d="M22.837,14.069c.658,.003,1.795,.008,2.342,.005,0-.14,.003-.069,.004-.182-.402-.003-1.942,.002-2.342,.002,0,.073,0,.109-.003,.175Z" fill="#fbdd03"></path><path id="path1334" d="M23.03,14.841c-.237,.256-.608,.447-.608,.447,0,0,.328,.037,.633,.015,.306-.022,.475-.061,.656-.148-.049,.365-.052,.717-.052,.717,.044,.469,.095,.589,.196,.818,.138,.191,.218,.192,.32-.01,.11-.225,.182-.457,.205-.811-.008-.265-.023-.386-.085-.71,.212,.092,.345,.115,.661,.144,.323,.029,.62,.015,.62,.015,0,0-.436-.219-.628-.488-.19-.265-.149-.22-.287-.562-.167-.008-1.016,0-1.286,0-.148,.312-.162,.377-.345,.573h0Z" fill="#fbdd03"></path><path id="path1336" d="M21.832,10.454c.815,.35,1.306,1.318,1.574,2.653,.049,.251,.062,.339,.086,.622-.176,0-.246,.002-.418,0-.038-.19-.065-.29-.148-.56-.329-1.043-1.298-1.462-1.254-.485,.015,.27,.128,.42,.255,.565-.156-.039-.489-.194-.758-.347-1.5-.904-.909-3.118,.663-2.448h0Z" fill="#fbdd03"></path><path id="path1328-2" d="M9.34,8.038c-.576,.95-.645,1.71-.252,3.022,.189,.612,.397,1.527,.485,2.022,.116,.7,.104,.766,.121,.918,.146,0,.476,0,.629,0,.022-.242,.04-.522,.091-.906,.06-.448,.239-1.386,.431-2.037,.384-1.301,.358-2.1-.239-3.004-.218-.335-.51-.612-.641-.612s-.427,.256-.626,.598Z" fill="#fbdd03"></path><path id="path1330-2" d="M12.168,10.725c-.815,.35-1.306,1.318-1.574,2.653-.049,.251-.062,.339-.086,.622,.176,0,.246,.002,.418,0,.038-.19,.065-.29,.148-.56,.329-1.043,1.298-1.462,1.254-.485-.015,.27-.128,.42-.255,.565,.156-.039,.489-.194,.758-.347,1.5-.904,.909-3.118-.663-2.448h0Z" fill="#fbdd03"></path><path id="path1332-2" d="M8.837,14.34c.658,.003,1.795,.008,2.342,.005,0-.14,.003-.069,.004-.182-.402-.003-1.942,.002-2.342,.002,0,.073,0,.109-.003,.175Z" fill="#fbdd03"></path><path id="path1334-2" d="M9.03,15.112c-.237,.256-.608,.447-.608,.447,0,0,.328,.037,.633,.015,.306-.022,.475-.061,.656-.148-.049,.365-.052,.717-.052,.717,.044,.469,.095,.589,.196,.818,.138,.191,.218,.192,.32-.01,.11-.225,.182-.457,.205-.811-.008-.265-.023-.386-.085-.71,.212,.092,.345,.115,.661,.144,.323,.029,.62,.015,.62,.015,0,0-.436-.219-.628-.488-.19-.265-.149-.22-.287-.562-.167-.008-1.016,0-1.286,0-.148,.312-.162,.377-.345,.573h0Z" fill="#fbdd03"></path><path id="path1336-2" d="M7.832,10.725c.815,.35,1.306,1.318,1.574,2.653,.049,.251,.062,.339,.086,.622-.176,0-.246,.002-.418,0-.038-.19-.065-.29-.148-.56-.329-1.043-1.298-1.462-1.254-.485,.015,.27,.128,.42,.255,.565-.156-.039-.489-.194-.758-.347-1.5-.904-.909-3.118,.663-2.448h0Z" fill="#fbdd03"></path><path id="path1328-3" d="M38.034,7.44c-.131,0-.422,.277-.641,.612-.597,.904-.623,1.702-.239,3.004,.192,.651,.371,1.589,.431,2.037,.052,.385,.069,.664,.091,.906,.153,0,.484,0,.629,0,.016-.152,.004-.219,.121-.918,.087-.496,.295-1.41,.485-2.022,.393-1.312,.324-2.072-.252-3.022-.199-.342-.495-.598-.626-.598Z" fill="#fbdd03"></path><path id="path1330-3" d="M35.832,10.725c-1.572-.671-2.163,1.544-.663,2.448,.269,.153,.602,.308,.758,.347-.127-.145-.24-.295-.255-.565-.044-.977,.925-.558,1.254,.485,.083,.27,.11,.37,.148,.56,.172,.001,.241,0,.418,0-.025-.282-.037-.371-.086-.622-.268-1.335-.758-2.303-1.574-2.653h0Z" fill="#fbdd03"></path><path id="path1332-3" d="M39.16,14.166c-.4,0-1.94-.006-2.342-.002,.001,.114,.003,.042,.004,.182,.546,.003,1.684-.002,2.342-.005-.002-.066-.004-.101-.003-.175Z" fill="#fbdd03"></path><path id="path1334-3" d="M38.97,15.112c-.182-.197-.197-.262-.345-.573-.269,0-1.118-.008-1.286,0-.138,.342-.097,.297-.287,.562-.192,.269-.628,.488-.628,.488,0,0,.297,.014,.62-.015,.316-.028,.449-.052,.661-.144-.063,.324-.077,.445-.085,.71,.023,.353,.095,.585,.205,.811,.101,.201,.182,.2,.32,.01,.102-.228,.152-.349,.196-.818,0,0-.003-.352-.052-.717,.181,.088,.35,.126,.656,.148,.306,.022,.633-.015,.633-.015,0,0-.371-.191-.608-.447h0Z" fill="#fbdd03"></path><path id="path1336-3" d="M40.168,10.725c1.572-.671,2.163,1.544,.663,2.448-.269,.153-.602,.308-.758,.347,.127-.145,.24-.295,.255-.565,.044-.977-.925-.558-1.254,.485-.083,.27-.11,.37-.148,.56-.172,.001-.241,0-.418,0,.025-.282,.037-.371,.086-.622,.268-1.335,.758-2.303,1.574-2.653h0Z" fill="#fbdd03"></path><path d="M10.633,23.727c.707,.482,1.324,.859,1.354,.829,.06-.075-3.461-3.345-3.702-3.435-.09-.03,.105,.347,.451,.844,.436,.648,.933,1.115,1.896,1.763Z" fill="#0f8140"></path><path d="M18.469,25.46c-.216-.084-.456-.203-.657-.316,.258-.042,.186-.114-.296-.185-.013-.01-.026-.019-.038-.028-.134-.109-.215-.176-.264-.203-.007-.008-.014-.016-.022-.025-.376-.437-1.189-2.034-1.189-2.335,0-.166-.075-.286-.166-.286-.105,0-.135,.151-.075,.392,.2,.802,.998,2.243,1.335,2.435-.047-.005-.096-.009-.147-.014-.147-.015-.289-.028-.427-.04,.004-.07-.136-.23-.457-.593-.331-.347-.767-.874-.993-1.16s-.421-.467-.421-.407h0c0,.166,.587,1.311,.933,1.793,.103,.143,.214,.251,.334,.322-.59-.035-1.062-.034-1.384-.001-.054-.138-.21-.398-.43-.694-.728-.994-.837-1.1-.837-.934,0,.193,.8,1.317,1.141,1.643-.099,.015-.179,.034-.238,.057-.013-.005-.025-.009-.038-.013l-.262-.29c-.707-.768-1.791-2.245-2.137-2.893-.376-.708-.421-.527-.105,.377,.12,.362,.602,1.085,1.068,1.597,.466,.527,.767,.964,.692,.964-.196,0-1.46-1.492-2.363-2.787-.978-1.416-1.023-1.461-.752-.678,.135,.377,.436,.934,.692,1.235,.241,.316,.391,.573,.316,.573-.15,0-.813-.753-1.64-1.838-.226-.316-.542-.723-.677-.904-.15-.196-.045,.06,.226,.557,.467,.889,2.363,2.938,3.416,3.721,.286,.211,.798,.422,1.114,.467l.303,.047c.009,.005,.018,.009,.027,.014,.034,.121,.243,.364,.491,.557,.258,.195,.655,.433,1.083,.661,0,.001-.002,.002-.003,.003-.079,.031-.168,.071-.261,.117-.622-.372-1.385-.897-1.543-1.068-.114-.129-.898-.41-1.913-.722-.194-.156-.266-.173-.22-.067-.294-.088-.603-.179-.918-.268,.038-.052-.334-.298-.824-.577-.007-.171-1.621-1.474-2.318-1.862-.861-.489-.891-.494-.909-.39-.005,.03,.277,.248,.631,.494,.354,.246,.766,.594,.903,.771,.055,.074,.171,.175,.317,.283-.152-.067-.29-.124-.403-.163-.933-.331-.963-.331-.963-.226,0,.03,.316,.196,.707,.377,.391,.181,.858,.452,1.023,.603,.111,.105,.394,.25,.707,.382-1.381-.364-2.659-.651-3.026-.638-.406,.03-.421,.03-.09,.09,1.009,.184,2.431,.569,3.743,.981,.003,.005,.006,.011,.009,.017-.165,.004-.373,.06-.755,.177l-.097,.031c-.169-.109-.322-.207-.415-.267-.183-.116-.061,.028,.259,.318l-.349,.114,.451,.075c.044,.011,.091,.018,.139,.023,.211,.174,.516,.379,.875,.595-1.513,.165-1.769,.302-1.739,.918q.015,.301,.09,0c.135-.557,.361-.678,1.219-.678,.233,0,.568,.024,.956,.064,.437,.243,.915,.486,1.378,.702-.903,0-1.776,.049-2.214,.154-.647,.151-.993,.377-.993,.648,0,.105,.06,.09,.135-.03,.12-.196,1.354-.557,1.475-.437,.03,.03-.015,.256-.105,.482-.09,.226-.12,.452-.075,.497,.045,.06,.12-.06,.166-.226,.181-.648,.737-.844,2.077-.723,.157,.014,.318,.029,.475,.043,.126,.05,.247,.095,.361,.135h-.08c-.241,.015-.828,.166-1.279,.331-.993,.392-1.204,.527-1.204,.738,0,.09,.105,.075,.271-.06,.135-.136,.632-.316,1.083-.422,.451-.105,.993-.286,1.204-.392l.231-.12c.025,.008,.051,.016,.076,.024,.106,.031,.234,.055,.368,.071-.312,.314-.503,.594-.589,.88-1.692,.487-1.879,.733-1.601,1.612,.12,.362,.12,.347,.135-.121,.015-.256,.15-.618,.301-.768,.142-.142,.546-.306,1.114-.463-.013,.143-.003,.29,.03,.446-.073,.082-.144,.175-.212,.28l-.391,.608,.503-.478c.058-.056,.115-.107,.171-.155,.004,.011,.006,.021,.01,.033l.238,.683-.066-.691c-.006-.054-.01-.106-.014-.157,.496-.356,.974-.379,1.848-.146-.941,.444-1.256,.893-1.241,1.697l.015,.723,.15-.678c.185-.883,.532-1.228,1.599-1.594,.436,.12,.766,.191,.78,.171,.04-.059-.119-.182-.36-.309,.462-.153,.81-.292,.81-.318,0-.135-.711-.06-1.267,.112-.224-.086-.458-.157-.652-.187-.794-.142-1.297-.095-1.684,.189,.007-.11,.024-.213,.05-.312,.452-.113,.981-.22,1.55-.312,.361-.045,.602-.151,.557-.226-.12-.196-.602-.136-1.941,.241-.019,.005-.038,.01-.057,.016,.13-.252,.345-.487,.671-.752,.143-.002,.277-.014,.383-.036l.042-.008c.024,.011,.047,.023,.067,.034,.391,.211,1.911,.226,1.776,.015-.032-.053-.183-.121-.379-.172-.02-.013-.041-.026-.063-.039-.196-.105-.451-.271-.557-.392-.077-.072-.175-.126-.269-.158,.04-.032,.076-.062,.107-.088,.844,.436,1.743,.81,1.913,.743,.166-.06-.09-.226-.813-.497-.295-.116-.585-.241-.855-.368,.195-.082,.419-.151,.601-.188,.434,.12,.754,.182,.755,.124,.004-.042-.09-.119-.237-.209-.013-.026-.076-.065-.182-.132-.04-.025-.092-.043-.152-.053-.088-.045-.182-.09-.277-.133-.037-.027-.08-.054-.125-.081-.196-.105-.451-.271-.557-.392-.014-.013-.028-.025-.043-.036,.119,.006,.244,.013,.38,.021,.054,.003,.108,.006,.16,.008,.217,.363,.786,.609,1.53,.673,.546,.039,.296-.197-.468-.475-.147-.047-.303-.111-.449-.179,.145,.002,.275,0,.389-.003,.107,.084,.247,.168,.404,.237h0c.327,.153,.744,.273,.954,.28,.249,.008,.183-.053-.281-.234Zm-2.589,1.426c-.179-.039-.378-.086-.572-.134,.061-.045,.119-.089,.174-.13,.002,0,.005,.001,.007,.002,.082,.074,.227,.169,.391,.262Zm-5.091-2.247c.179-.004,.188-.021,.047-.086,.218,.071,.43,.143,.635,.214-.048-.001-.098-.003-.155-.004-.116-.004-.23,0-.338,.008-.068-.048-.131-.092-.189-.132Zm.048,.416c.111,.108,.233,.217,.356,.317-.15,.011-.314,.025-.485,.044-.142-.086-.291-.178-.447-.275,.076-.008,.18-.024,.318-.047,.079-.011,.167-.024,.258-.039Zm.66,.083c-.08-.057-.155-.11-.227-.161,.141-.028,.269-.055,.362-.079,.046-.012,.086-.023,.119-.033,.079,.028,.157,.056,.232,.084,.047,.061,.098,.125,.156,.196,.101,.128,.287,.295,.514,.469-.296-.08-.56-.166-.638-.22-.021-.021-.095-.033-.205-.039-.107-.072-.212-.145-.314-.217Zm1.911,.983c.095,.056,.189,.109,.282,.158,.166,.09,.318,.178,.451,.259-.15-.014-.31-.027-.478-.037-.248-.138-.525-.301-.813-.477,.191,.032,.378,.064,.559,.098Zm1.687,.396c-.064,.037-.127,.076-.188,.116-.17-.093-.355-.2-.546-.315,.076,.018,.148,.036,.214,.054,.198,.056,.37,.104,.52,.145Zm-1.408-.717c-.013,.013-.064,.013-.14,.005-.3-.198-.59-.398-.84-.58,.671,.271,1.071,.488,.98,.575Zm-3.865-.943c.102-.012,.193-.035,.255-.066,.094-.052,.253-.097,.406-.124,.023,.029,.048,.059,.074,.092,.019,.022,.039,.045,.059,.069-.152,.037-.277,.087-.355,.146-.05,.038-.089,.07-.117,.095-.063-.04-.127-.08-.192-.122-.042-.029-.086-.059-.132-.089Zm2.301,1.255c-.072,.026-.336-.086-.728-.299,.17,.021,.347,.044,.525,.069,.163,.122,.25,.213,.203,.23Zm3.675-.011c-.674-.334-1.183-.659-1.281-.834,.019,.01,.038,.019,.058,.029,.347,.176,.995,.412,1.586,.596-.132,.058-.259,.132-.363,.209Zm-.462-.979c.028,.049,.112,.118,.226,.193-.186-.028-.477-.107-.76-.202,.13-.009,.305-.01,.528-.004,.002,.004,.003,.008,.006,.012Z" fill="#0f8140"></path><path d="M15.315,24.78c.12-.045-.15-.482-.737-1.19-.527-.618-.978-1.16-1.023-1.205-.045-.045,.12,.286,.361,.723,.572,1.055,1.159,1.748,1.399,1.672Z" fill="#0f8140"></path><path d="M9.276,24.072c-.632-.196-1.264-.151-1.61,.121-.181,.136-.376,.452-.421,.708q-.09,.437,.15,.151c.632-.799,.677-.829,1.46-.844,.632-.015,.722-.045,.421-.136Z" fill="#0f8140"></path><path d="M16.312,29.526c-.181,0-.451,.181-.632,.437-.181,.241-.316,.557-.316,.723,0,.196,.075,.151,.286-.196,.166-.271,.451-.588,.632-.723q.346-.241,.03-.241Z" fill="#0f8140"></path><path d="M41.123,34.993s-.008-.001-.012-.002c-.301,.745,.607-1.296,.012,.002Z" fill="#0f8140"></path><path d="M35.424,33.144c-1.222-.342-2.955-.877-3.399-.975-.444-.098-.45,.086-.075,.249h0c.489,.212,3.024,.852,4.818,1.378,1.78,.522,3.858,1.122,4.343,1.195,.035-.086,.086-.209,.157-.379-.896-.228-4.427-1.06-5.844-1.468Z" fill="#0f8140"></path><path d="M41.517,34.295s-.008-.001-.012-.001c-.275,.755,.561-1.316,.012,.001Z" fill="#0f8140"></path><path d="M35.757,32.646c-1.233-.3-2.984-.773-3.431-.855-.447-.082-.447,.101-.067,.251h0c.496,.195,3.052,.746,4.863,1.209,1.797,.459,3.894,.986,4.382,1.042,.032-.087,.078-.212,.144-.384-.903-.197-4.461-.905-5.892-1.263Z" fill="#0f8140"></path><path d="M34.989,33.598c-1.202-.406-2.905-1.03-3.343-1.151s-.454,.062-.088,.244c.477,.237,2.975,1.009,4.739,1.629,1.75,.614,3.794,1.322,4.275,1.421,.039-.084,.096-.204,.177-.37-.883-.275-4.366-1.291-5.76-1.772Z" fill="#0f8140"></path><path d="M40.584,35.743s-.008-.002-.012-.003c-.34,.728,.674-1.262,.012,.003Z" fill="#0f8140"></path><path d="M40.105,36.088c.107,.004,.158-.019,.158-.069,0-.075-1.806-.738-4.018-1.461-.993-.329-1.953-.655-2.739-.93-.929-.382-1.847-.766-2.151-.867-.431-.144-.456,.038-.101,.24,.464,.262,2.918,1.164,4.647,1.875,1.716,.705,3.719,1.519,4.195,1.643,.044-.082,.107-.199,.196-.361-.053-.02-.116-.043-.187-.068Z" fill="#0f8140"></path><path d="M40.108,36.52s-.008-.002-.012-.003c-.011,.021-.021,.039-.029,.056-.03-.04-.083-.077-.165-.106-.105-.03-1.144-.407-2.302-.829-1.776-.648-2.664-.979-4.274-1.627-.135-.045-.181-.015-.12,.075,.004,.006,.018,.017,.04,.03-.931-.421-1.863-.85-2.169-.964-.426-.159-.457,.022-.109,.236,.454,.278,2.876,1.265,4.579,2.036,1.69,.765,3.664,1.648,4.135,1.788,.047-.08,.114-.195,.208-.354-.17-.07-.441-.178-.775-.311,.284,.105,.506,.182,.637,.221,.255,.078,.403-.057,.325-.182,.158-.257,.532-.913,.031-.067Z" fill="#0f8140"></path><path d="M39.693,37.216s-.008-.002-.012-.004c-.402,.696,.781-1.199,.012,.004Z" fill="#0f8140"></path><path d="M39.157,38.022s-.008-.003-.011-.004c-.438,.673,.843-1.156,.011,.004Z" fill="#0f8140"></path><path d="M33.915,35.119c-1.134-.57-2.733-1.425-3.15-1.606-.417-.181-.458-.002-.121,.23h0c.439,.301,2.806,1.414,4.467,2.273,1.648,.852,3.573,1.838,4.036,2.003,.051-.078,.124-.189,.227-.342-.836-.395-4.144-1.886-5.457-2.557Z" fill="#0f8140"></path><path id="path2404" d="M25.403,36.945l.487,.349c.699,.487,1.083,1.165,1.045,1.864l-.026,.577,.229-.568c.251-.594,.216-1.494-.08-2.161l-.173-.389,.549,.239c.785,.331,1.301,.914,1.409,1.606l.095,.57,.106-.604c.122-.634-.099-1.507-.527-2.097l-.25-.344,.587,.12c.836,.161,1.462,.623,1.712,1.277l.211,.538-.021-.613c-.012-.645-.409-1.453-.951-1.941l-.316-.285,.599-.005c.851-.017,1.56,.305,1.94,.893l.318,.482-.148-.595c-.146-.628-.702-1.336-1.333-1.701l-.368-.213,.585-.129c.829-.194,1.589-.027,2.083,.47l.411,.405-.268-.551c-.273-.584-.964-1.161-1.657-1.386l-.404-.131,.545-.248c.771-.362,1.549-.357,2.135,.026l.486,.311-.377-.483c-.389-.515-1.184-.935-1.909-1.011l-.423-.044,.482-.356c.679-.515,1.441-.671,2.093-.419l.54,.203-.469-.394c-.487-.423-1.353-.668-2.077-.591l-.423,.044,.397-.449c.557-.645,1.27-.957,1.961-.845l.571,.086-.54-.288c-.564-.312-1.462-.372-2.155-.146l-.404,.131,.295-.522c.411-.747,1.044-1.2,1.742-1.235l.576-.035-.588-.169c-.617-.188-1.507-.059-2.138,.305l-.368,.213,.18-.572c.247-.816,.772-1.391,1.448-1.571l.556-.154-.611-.043c-.642-.055-1.486,.255-2.028,.744l-.316,.285,.058-.597c.072-.85,.466-1.521,1.09-1.838l.512-.266-.606,.085c-.64,.08-1.401,.559-1.829,1.15l-.25,.344-.067-.596c-.106-.846,.14-1.585,.684-2.025l.446-.367-.575,.209c-.609,.211-1.254,.839-1.55,1.505l-.173,.389-.19-.569c-.279-.805-.192-1.58,.249-2.123l.36-.452-.519,.325c-.552,.333-1.052,1.081-1.204,1.795l-.088,.416-.304-.517c-.44-.73-.516-1.505-.197-2.128l.258-.517-.44,.425c-.471,.441-.805,1.277-.805,2.007v.426l-.404-.442c-.582-.622-.817-1.365-.635-2.041l.145-.559-.342,.508c-.369,.529-.522,1.416-.37,2.13l.088,.416-.487-.349c-.699-.487-1.083-1.165-1.045-1.864l.026-.577-.229,.568c-.251,.594-.216,1.494,.08,2.161l.173,.389-.549-.239c-.785-.331-1.301-.914-1.409-1.605l-.095-.57-.106,.603c-.122,.634,.099,1.507,.527,2.097l.25,.344-.587-.12c-.836-.161-1.462-.623-1.712-1.277l-.211-.538,.021,.612c.012,.645,.409,1.453,.951,1.941l.316,.285-.599,.005c-.851,.017-1.56-.305-1.94-.893l-.318-.482,.148,.594c.146,.629,.702,1.336,1.333,1.701l.368,.213-.585,.129c-.829,.194-1.589,.027-2.083-.47l-.411-.406,.268,.551c.273,.584,.964,1.161,1.657,1.386l.404,.132-.545,.248c-.771,.362-1.549,.357-2.135-.026l-.486-.311,.377,.483c.389,.515,1.184,.935,1.909,1.011l.423,.045-.482,.356c-.679,.515-1.441,.671-2.093,.419l-.54-.203,.469,.394c.487,.423,1.353,.668,2.077,.592l.423-.044-.397,.449c-.557,.645-1.27,.957-1.961,.846l-.571-.086,.54,.288c.564,.312,1.462,.372,2.155,.146l.404-.131-.295,.522c-.411,.747-1.044,1.2-1.742,1.235l-.576,.034,.588,.169c.617,.188,1.507,.059,2.138-.306l.368-.213-.18,.572c-.247,.816-.772,1.391-1.448,1.571l-.556,.154,.611,.043c.642,.055,1.486-.256,2.028-.744l.316-.285-.058,.597c-.072,.849-.466,1.521-1.09,1.838l-.512,.266,.606-.085c.64-.08,1.401-.56,1.829-1.15l.25-.344,.067,.596c.106,.846-.14,1.585-.684,2.024l-.446,.367,.575-.209c.609-.211,1.254-.839,1.55-1.505l.173-.389,.19,.569c.279,.806,.192,1.58-.249,2.123l-.36,.452,.519-.325c.552-.333,1.052-1.082,1.204-1.795l.088-.416,.304,.517c.44,.73,.516,1.505,.197,2.128l-.258,.517,.44-.426c.471-.441,.805-1.277,.805-2.007v-.426l.404,.442c.582,.622,.817,1.365,.635,2.041l-.145,.559,.342-.508c.369-.529,.522-1.416,.37-2.13l-.088-.416" fill="#fbdd03"></path></svg>