<svg xmlns="http://www.w3.org/2000/svg" height="24" width="24" viewBox="0 0 24 24"><circle cx="9" cy="4" r="3" fill="#61616b"></circle> <path d="M12,10h7V8H4a1,1,0,0,0,0,2H6v5.7L4.168,18.445a1,1,0,0,0-.138.8l1,4,1.94-.484-.892-3.571L8.2,16H9.849l4.283,7.5,1.736-.992L12,15.734Z" fill="#61616b"></path> <path d="M19.668.869,18.924.2,17.588,1.689l.745.668A8.97,8.97,0,0,1,21,9a8.97,8.97,0,0,1-2.667,6.643l-.745.668L18.924,17.8l.744-.668A10.986,10.986,0,0,0,23,9,10.986,10.986,0,0,0,19.668.869Z" fill="#61616b" data-color="color-2"></path></svg>