<svg xmlns="http://www.w3.org/2000/svg" height="24" width="24" viewBox="0 0 24 24"><circle cx="18" cy="3" r="3" fill="#61616b"></circle> <path d="M6.729,15.56a3.938,3.938,0,0,1-.742-.906L.592,21.128l1.536,1.28,5.281-6.336C7.074,15.83,6.829,15.648,6.729,15.56Z" fill="#61616b"></path> <path d="M21.632,10.735,18.439,11.8l-3.1-5.035A1.981,1.981,0,0,0,15,6.338a2.294,2.294,0,0,0-.884-.451L8.3,4.046a1,1,0,0,0-1.133.4L4.613,8.277l1.664,1.11L8.416,6.18l3.14.989L7.9,11.232a1.991,1.991,0,0,0,.149,2.825c.359.316,4.4,3.084,4.4,3.084L9.293,20.293l1.414,1.414,4-4a1,1,0,0,0-.139-1.53L11.1,13.652,14.752,9.6l2.394,3.922A1,1,0,0,0,18,14a1.019,1.019,0,0,0,.316-.051l3.949-1.317Z" fill="#61616b"></path></svg>