<svg xmlns="http://www.w3.org/2000/svg" height="24" width="24" viewBox="0 0 24 24"><circle cx="13" cy="4" r="3" fill="#61616b"></circle> <path d="M5.485,6.857a1,1,0,0,0,1.372-.342l3-5A1,1,0,1,0,8.143.485l-3,5A1,1,0,0,0,5.485,6.857Z" fill="#61616b" data-color="color-2"></path> <path d="M7.447,11.9,10,10.618v5.22L7.612,23H9.721l2.35-7h1.841l2.366,7h2.11L16,15.838V9a1,1,0,0,0-1-1H11a1,1,0,0,0-.447.105L7.072,9.846,3.723,7.613,2.613,9.277l3.832,2.555A1.006,1.006,0,0,0,7.447,11.9Z" fill="#61616b"></path></svg>