<svg xmlns="http://www.w3.org/2000/svg" height="24" width="24" viewBox="0 0 24 24"><circle data-color="color-2" cx="17" cy="13" r="3" fill="#61616b"></circle> <path d="M22.95,1.051a3.583,3.583,0,0,0-4.95,0L7.214,11.836a8.018,8.018,0,0,0-1.745,3.745,7.352,7.352,0,0,1-.376,1.205l-4.8,4.8A1,1,0,0,0,.292,23L1,23.707a1,1,0,0,0,1.415,0l4.766-4.768a6.7,6.7,0,0,1,1.177-.376,8.214,8.214,0,0,0,3.808-1.776l.827-.827a4.933,4.933,0,0,1-.88-4.007,5.03,5.03,0,0,1,3.841-3.841,4.931,4.931,0,0,1,4.006.88l2.9-2.9A3.675,3.675,0,0,0,23.916,4.18,3.5,3.5,0,0,0,22.95,1.051Z" fill="#61616b"></path></svg>