<svg xmlns="http://www.w3.org/2000/svg" height="24" width="24" viewBox="0 0 24 24"><path data-color="color-2" d="M2.625,4.53a11.941,11.941,0,0,0,0,14.94,10.051,10.051,0,0,0,2.088-2.579L3.16,16.166,3.8,14.807l1.55.723a9.928,9.928,0,0,0,.617-2.78H4.25v-1.5H5.962a9.928,9.928,0,0,0-.617-2.78L3.8,9.193,3.16,7.834l1.553-.725A10.051,10.051,0,0,0,2.625,4.53Z" fill="#61616b"></path> <path data-color="color-2" d="M21.375,4.53a10.051,10.051,0,0,0-2.088,2.579l1.553.725L20.2,9.193l-1.55-.723a9.928,9.928,0,0,0-.617,2.78H19.75v1.5H18.038a9.929,9.929,0,0,0,.618,2.78l1.549-.723.635,1.359-1.553.725a10.051,10.051,0,0,0,2.088,2.579,11.941,11.941,0,0,0,0-14.94Z" fill="#61616b"></path> <path d="M17.465,17.74l-1.61.751-.634-1.359,1.617-.755a11.89,11.89,0,0,1-.8-3.627H14.25v-1.5h1.788a11.89,11.89,0,0,1,.8-3.627l-1.617-.755.634-1.359,1.61.751A12.08,12.08,0,0,1,20,3.081a11.927,11.927,0,0,0-16,0A12.08,12.08,0,0,1,6.535,6.26l1.61-.751.634,1.359-1.617.755a11.89,11.89,0,0,1,.8,3.627H9.75v1.5H7.962a11.89,11.89,0,0,1-.8,3.627l1.617.755-.634,1.359-1.61-.751A12.08,12.08,0,0,1,4,20.919a11.927,11.927,0,0,0,16,0A12.08,12.08,0,0,1,17.465,17.74Z" fill="#61616b"></path></svg>