<svg xmlns="http://www.w3.org/2000/svg" height="24" width="24" viewBox="0 0 24 24"><path d="M11.157,8.155a6.967,6.967,0,0,0,0,7.69,4.932,4.932,0,0,0,0-7.69Z" fill="#61616b"></path> <path d="M22.843,8.155a4.932,4.932,0,0,0,0,7.69,6.967,6.967,0,0,0,0-7.69Z" fill="#61616b"></path> <path d="M19,12a6.986,6.986,0,0,1,2.5-5.354,6.974,6.974,0,0,0-9,0,6.983,6.983,0,0,1,0,10.708,6.974,6.974,0,0,0,9,0A6.986,6.986,0,0,1,19,12Z" fill="#61616b"></path> <rect data-color="color-2" x="2" y="6" width="7" height="2" fill="#61616b"></rect> <rect data-color="color-2" x="2" y="16" width="7" height="2" fill="#61616b"></rect> <rect data-color="color-2" y="11" width="7" height="2" fill="#61616b"></rect></svg>