<svg xmlns="http://www.w3.org/2000/svg" height="24" width="24" viewBox="0 0 24 24"><circle cx="14" cy="3" r="3" fill="#61616b"></circle> <circle cx="19" cy="17" r="2" fill="#61616b" data-color="color-2"></circle> <path d="M15.607,12,13.751,8.437a2.435,2.435,0,0,0-2.3-1.426l0-.011H7a1,1,0,0,0-.832.445L3.613,11.277l1.664,1.11L7.535,9h1.42L7.264,12.382a2.5,2.5,0,0,0,1.078,3.329L12,17.605V22h2V17a1,1,0,0,0-.537-.886l-2.029-1.06a2.486,2.486,0,0,0,.3-.436L13.2,11.7l.915,1.764A1,1,0,0,0,15,14h4V12Z" fill="#61616b"></path> <path d="M6.143,16.485,2.628,22.343l1.715,1.029,3.434-5.723c-.1-.04-.2-.077-.291-.125A4.471,4.471,0,0,1,6.143,16.485Z" fill="#61616b"></path></svg>