<svg xmlns="http://www.w3.org/2000/svg" height="24" width="24" viewBox="0 0 24 24"><path d="M23.327,5.48a6.088,6.088,0,0,0-4.708-3.285l-.3-.066A3.909,3.909,0,0,1,15.848.47,1,1,0,0,0,15,0H9a1,1,0,0,0-.848.47A3.909,3.909,0,0,1,5.679,2.129l-.3.066A6.088,6.088,0,0,0,.673,5.48C.1,6.593,0,9.438,0,14.642V15a75.9,75.9,0,0,0,2.039,8.274A1,1,0,0,0,3,24H5c0-.007,0-.012,0-.019,0-.074.115-7.419-1.9-11.543a1,1,0,1,1,1.8-.876C7.106,16.082,7.008,23.56,7,24H17c-.008-.44-.106-7.918,2.1-12.438a1,1,0,1,1,1.8.876C18.882,16.569,19,23.907,19,23.98c0,.007,0,.013,0,.02h2a1,1,0,0,0,.961-.726A75.9,75.9,0,0,0,24,15v-.358C24,9.438,23.9,6.593,23.327,5.48ZM8,13a1,1,0,0,1-.707-1.707C8.693,9.893,9,7,9,6a1,1,0,0,1,2,0c0,.181-.026,4.44-2.293,6.707A1,1,0,0,1,8,13Zm5,7a1,1,0,0,1-2,0V14a1,1,0,0,1,2,0Zm3.707-7.293a1,1,0,0,1-1.414,0C13.026,10.44,13,6.181,13,6a1,1,0,0,1,1-1h0a1,1,0,0,1,1,1c0,.035.029,3.616,1.707,5.294A1,1,0,0,1,16.707,12.707Z" fill="#61616b"></path></svg>