<svg xmlns="http://www.w3.org/2000/svg" height="24" width="24" viewBox="0 0 24 24"><path d="M21.019,4.136A7.471,7.471,0,0,1,20,1a1,1,0,0,0-2,0,6.172,6.172,0,0,0,.356,2H5.644A6.172,6.172,0,0,0,6,1,1,1,0,0,0,4,1,7.471,7.471,0,0,1,2.981,4.136,16.466,16.466,0,0,0,1,12,103.6,103.6,0,0,0,2.01,23.142,1,1,0,0,0,3,24h7a1,1,0,0,0,1-1V17l0-.024A4.949,4.949,0,0,1,8,18H6a1,1,0,0,1,0-2H8a3,3,0,0,0,3-3V11a1,1,0,0,1,2,0v2a3,3,0,0,0,3,3h2a1,1,0,0,1,0,2H16a4.949,4.949,0,0,1-3-1.024L13,17v6a1,1,0,0,0,1,1h7a1,1,0,0,0,.99-.858A103.6,103.6,0,0,0,23,12,16.466,16.466,0,0,0,21.019,4.136Z" fill="#61616b"></path> <path d="M12,15.969c-.008.011-.017.02-.026.031h.052C12.017,15.989,12.008,15.98,12,15.969Z" fill="#61616b"></path></svg>