<svg xmlns="http://www.w3.org/2000/svg" height="24" width="24" viewBox="0 0 24 24"><circle cx="13" cy="4" r="3" fill="#61616b"></circle> <path d="M19.323,10.054,13.758,8.149h0A2.008,2.008,0,0,0,13,8a2.045,2.045,0,0,0-.37.037L7.563,8.89,5.447,4.658l-1.789.895,2.447,4.894A1,1,0,0,0,7,11a.949.949,0,0,0,.167-.014l3.833-.6V15l-3.606-.919a1,1,0,0,0-1.1.212l-4,4,1.414,1.414,3.522-3.521,4.983,2.136A2,2,0,0,0,15,16.483V10.691l3,1.024V16h2V11A1,1,0,0,0,19.323,10.054Z" fill="#61616b"></path> <rect data-color="color-2" x="7" y="19" width="2" height="5" fill="#61616b"></rect> <rect data-color="color-2" x="7" width="2" height="5" fill="#61616b"></rect></svg>