<svg xmlns="http://www.w3.org/2000/svg" height="24" width="24" viewBox="0 0 24 24"><path d="M5.257,10.364l.391.684A1.975,1.975,0,0,1,6,11a2.006,2.006,0,0,1,1.249.438l1.693,1.355,0,0L6.587,8.66A1,1,0,0,0,5.4,8.208L1.454,9.523l.632,1.9Z" fill="#61616b"></path> <path d="M22.105,12.553l-1.379,2.759L14.57,9.155l1.985-1.323-1.11-1.664-3,2a1,1,0,0,0-.152,1.539l1.686,1.686L8.817,13.974,6.625,12.219a1,1,0,0,0-1.14-.076l-5,3,1.03,1.714,4.4-2.642L9.376,16.98a3.007,3.007,0,0,0,3.216.342L17.447,14.9c.007,0,.011-.012.018-.016l2.828,2.828A1,1,0,0,0,21,18a.959.959,0,0,0,.16-.013,1,1,0,0,0,.735-.54l2-4Z" fill="#61616b"></path> <circle cx="20" cy="9" r="2.5" fill="#61616b"></circle></svg>