<svg xmlns="http://www.w3.org/2000/svg" height="24" width="24" viewBox="0 0 24 24"><path d="M14,7a3,3,0,1,1,3-3A3,3,0,0,1,14,7Z" fill="#61616b"></path> <path d="M22,23H20a2,2,0,0,1,0-4h2a2,2,0,0,1,0,4Z" fill="#61616b" data-color="color-2"></path> <path d="M7.211,19.578A3.946,3.946,0,0,1,6.38,19l-1,2H2a1,1,0,0,0,0,2H6a1,1,0,0,0,.895-.553L8.166,19.9A3.979,3.979,0,0,1,7.211,19.578Z" fill="#61616b"></path> <path d="M18.243,16.242l1.414-1.414L13.408,8.592a1.959,1.959,0,0,0-.513-.381,2,2,0,0,0-2.684.894l-3,6A2,2,0,0,0,9,18h4.524l-1.452,3.629a1,1,0,0,0,1.858.742l2-5A1,1,0,0,0,15,16H11.236l2.255-4.509Z" fill="#61616b"></path></svg>