<svg xmlns="http://www.w3.org/2000/svg" height="24" width="24" viewBox="0 0 24 24"><path d="M5,12a5,5,0,1,0,5,5A5.006,5.006,0,0,0,5,12Zm0,8a3,3,0,1,1,3-3A3,3,0,0,1,5,20Z" fill="#61616b" data-color="color-2"></path> <path d="M19,12a5,5,0,1,0,5,5A5.006,5.006,0,0,0,19,12Zm0,8a3,3,0,1,1,3-3A3,3,0,0,1,19,20Z" fill="#61616b" data-color="color-2"></path> <path d="M17.419,6.865a3.025,3.025,0,0,0,.825.115,3,3,0,0,0,.815-5.886c-1.2-.344-4.124.387-5.324.718l-1.592.437,1.125,1.209C14.116,4.368,16.218,6.524,17.419,6.865Z" fill="#61616b"></path> <path d="M11.165,11.124l3.6-1.948,1.531,1.531A1,1,0,0,0,17,11h4V9H17.414l-2.2-2.2a1.994,1.994,0,0,0-2.309-.375L9,8.382a2,2,0,0,0-.306,3.389L11,13.5V19h2V13a1,1,0,0,0-.4-.8Z" fill="#61616b"></path></svg>