<svg xmlns="http://www.w3.org/2000/svg" height="24" width="24" viewBox="0 0 24 24"><path d="M20.661,10.63l-.944-4.507a1,1,0,0,1,.05-.577L21.629.9l1.856.745L21.736,6.01l.882,4.21Z" fill="#61616b" data-color="color-2"></path> <path d="M14.208,7.892l2.771,1.7,2.068,5.874,2.2.567c.046.014.087.03.132.044L18.748,8.591a1.008,1.008,0,0,0-.421-.521L15.511,6.345,13.539,2.081l-1.815.839,2.1,4.539A1,1,0,0,0,14.208,7.892Z" fill="#61616b" data-color="color-2"></path> <path d="M21,17,6.682,13.311A5.421,5.421,0,0,0,5,13,5,5,0,0,0,5,23H21a3,3,0,0,0,3-3C24,18.343,22.632,17.483,21,17Z" fill="#61616b"></path></svg>