<svg xmlns="http://www.w3.org/2000/svg" height="24" width="24" viewBox="0 0 24 24"><path d="M2.707,14.293a1,1,0,0,0-1.414,1.414L4.086,18.5.586,22,2,23.414l3.5-3.5,2.793,2.793a1,1,0,0,0,1.414-1.414Z" fill="#61616b"></path> <path d="M15.672,6.914l-.212.212-2.3.768a2.009,2.009,0,0,0-1.264,1.264l-.683,2.051-2.053.685a2.009,2.009,0,0,0-1.264,1.264l-.767,2.3-.212.212,1.414,1.414.379-.379a1,1,0,0,0,.242-.391l.841-2.525,2.053-.685a2.009,2.009,0,0,0,1.264-1.264l.684-2.052,2.525-.842a1,1,0,0,0,.391-.241l.379-.379Z" fill="#61616b" data-color="color-2"></path> <path d="M19.914,5.5l3.5-3.5L22,.586l-3.5,3.5L15.707,1.293a1,1,0,0,0-1.414,1.414l7,7a1,1,0,0,0,1.414-1.414Z" fill="#61616b"></path></svg>