<svg xmlns="http://www.w3.org/2000/svg" height="24" width="24" viewBox="0 0 24 24"><circle cx="11" cy="4" r="3" fill="#61616b"></circle> <path d="M18.649,10.953a.75.75,0,0,1-.55-1.259l3.881-4.2a.75.75,0,1,1,1.1,1.018l-3.882,4.2A.746.746,0,0,1,18.649,10.953Z" fill="#61616b" data-color="color-2"></path> <path d="M10.486,14.864l.7-2.808,1.091,1.136a.995.995,0,0,0,1.037.256l3.949-1.315-.633-1.9-3.348,1.117-2.5-2.6a2.485,2.485,0,0,0-1.176-.683A2.277,2.277,0,0,0,9,8H5.721L4.632,4.735l-1.9.632L4.051,9.316A1,1,0,0,0,5,10H6.548l-.973,3.894a2.478,2.478,0,0,0,.21,1.742L6.954,18.13,6.02,22.8l1.96.392,1-5a1,1,0,0,0-.077-.627l-.309-.648a2.5,2.5,0,0,0,.815-.364L12,18.5V23h2V18a1,1,0,0,0-.4-.8Z" fill="#61616b"></path></svg>