<svg xmlns="http://www.w3.org/2000/svg" height="24" width="24" viewBox="0 0 24 24"><path d="M22.536,15.465a5.01,5.01,0,0,0-6.293-.636l-1.768-1.768-1.414,1.414,1.768,1.768a5,5,0,0,0,.635,6.292l.707.707L19.016,20.4l2.272,2.3a1,1,0,0,0,1.424-1.4L20.43,18.984l2.813-2.812Z" fill="#61616b"></path> <path d="M23.707,1.707,22.293.293,12,10.586,1.707.293.293,1.707,10.586,12,7.757,14.829a5.01,5.01,0,0,0-6.293.636l-.707.707L3.57,18.984,1.288,21.3a1,1,0,1,0,1.424,1.4l2.272-2.3,2.845,2.844.707-.707a5,5,0,0,0,.635-6.292Z" fill="#61616b"></path></svg>