<svg xmlns="http://www.w3.org/2000/svg" height="24" width="24" viewBox="0 0 24 24"><path d="M24,10.91A12.106,12.106,0,0,0,12,0,11.932,11.932,0,0,0,.054,10.91a1,1,0,0,0,1,1.09H10a1,1,0,0,1,1,1v6a5,5,0,0,0,10,0V18c0-.608.607-1.228,1.25-1.884A4.625,4.625,0,0,0,24,13Z" fill="#61616b"></path> <path data-color="color-2" d="M10,16H7.7a23.49,23.49,0,0,0,.276-3h-2a20.564,20.564,0,0,1-.305,3H0v7H1c2.1,0,4.887-.852,6.2-4.912L7.231,18H10ZM2,20.908V18H5.112A4.169,4.169,0,0,1,2,20.908Z" fill="#61616b"></path></svg>