<svg xmlns="http://www.w3.org/2000/svg" height="24" width="24" viewBox="0 0 24 24"><path d="M22.521.813A2.973,2.973,0,0,0,19.543.777l-5,2.777A3,3,0,0,0,13,6.177V14h2V9h6a3,3,0,0,0,3-3V3.4A2.974,2.974,0,0,0,22.521.813Z" fill="#61616b"></path> <path d="M9,11v3h2V7.659A2,2,0,0,0,9.788,5.821l-5-2.143A2,2,0,0,0,2,5.517V9a2,2,0,0,0,2,2Z" fill="#61616b"></path> <path data-color="color-2" d="M19,15H5a1,1,0,0,0-1,1v2a1,1,0,0,0,1,1H7v5H17V19h2a1,1,0,0,0,1-1V16A1,1,0,0,0,19,15Z" fill="#61616b"></path></svg>