<svg xmlns="http://www.w3.org/2000/svg" height="24" width="24" viewBox="0 0 24 24"><circle cx="9" cy="3" r="3" fill="#61616b"></circle> <path d="M18,23H15a1,1,0,0,1-.942-.664L11.937,16.4l1.883-.673L15.705,21H18Z" fill="#61616b" data-color="color-2"></path> <circle cx="20.5" cy="21.5" r="1.5" fill="#61616b" data-color="color-2"></circle> <path d="M7.857,14.743l1.4-3.511,2.368,4.133,1.736-1-3.6-6.31a3.546,3.546,0,0,0-1.022-.917,2,2,0,0,0-2.6,1.114l-2,5a2,2,0,0,0,.4,2.1l2.459,3V23H9V18a1,1,0,0,0-.228-.635L7.261,15.527A1.963,1.963,0,0,0,7.857,14.743Z" fill="#61616b"></path></svg>