<svg xmlns="http://www.w3.org/2000/svg" height="24" width="24" viewBox="0 0 24 24"><path d="M11,6a3,3,0,1,1,3-3A3,3,0,0,1,11,6Z" fill="#61616b"></path> <path d="M9.632,23.265l-1.9-.632L9,18.838V17h2v2a1,1,0,0,1-.051.316Z" fill="#61616b"></path> <polygon points="20 24 12 24 13 21 19 21 20 24" fill="#61616b" data-color="color-2"></polygon> <path d="M15,14H12.95a2.577,2.577,0,0,0,.05-.5V10.385l2.49,1.475a1,1,0,0,0,1.217-.153L19.414,9,18,7.586,15.842,9.744,11.721,7.331A2.47,2.47,0,0,0,10.5,7a2.5,2.5,0,0,0-.889.17l-4.969,1.9A1,1,0,0,0,4,10v4H6V10.688L8,9.92V13.5A2.5,2.5,0,0,0,10.5,16h3.719l.811,3.242,1.94-.484-1-4A1,1,0,0,0,15,14Z" fill="#61616b"></path></svg>