<svg xmlns="http://www.w3.org/2000/svg" height="24" width="24" viewBox="0 0 24 24"><path d="M6.434,11,9.143,6.485A.985.985,0,0,1,10.08,6a1,1,0,0,1,.849.625l3.251,8.129,1.963-3.272A1,1,0,0,1,17,11h6.339A8.161,8.161,0,0,0,24,8a6.957,6.957,0,0,0-7-7,7.119,7.119,0,0,0-5,2.1A7.119,7.119,0,0,0,7,1,6.957,6.957,0,0,0,0,8a8.161,8.161,0,0,0,.661,3Z" fill="#61616b"></path> <path data-color="color-2" d="M17.566,13l-2.709,4.515A1,1,0,0,1,14,18l-.08,0a1,1,0,0,1-.849-.625L9.82,9.243,7.857,12.515A1,1,0,0,1,7,13H1.648c3.065,5.289,9.374,10.5,9.752,10.8a.735.735,0,0,0,.6.2,1.421,1.421,0,0,0,.6-.2c.378-.3,6.687-5.511,9.752-10.8Z" fill="#61616b"></path></svg>