<svg xmlns="http://www.w3.org/2000/svg" height="24" width="24" viewBox="0 0 24 24"><circle cx="11" cy="4" r="3" fill="#61616b"></circle> <path d="M5.279,15.994,3.068,14.888a2,2,0,0,0,.043.681l.829,3.315L2.105,22.553l1.79.894,2-4a1,1,0,0,0,.075-.689Z" fill="#61616b"></path> <path d="M8.079,17.394,9,19.236V23h2V19a.964.964,0,0,0-.039-.165Z" fill="#61616b"></path> <path d="M21,14.586l-3.2,3.2-8.2-4.1,1.047-2.618L15,15.414,16.414,14,11.707,9.293a1,1,0,0,0-.26-.188l-4-2A1,1,0,0,0,7,7H3a1,1,0,0,0-.949.684l-1,3a1,1,0,0,0,.5,1.211l16,8a1,1,0,0,0,1.154-.188L22.414,16ZM4.558,11.161l-1.335-.668L3.721,9H5.484Z" fill="#61616b"></path> <rect x="19" y="21" width="5" height="2" fill="#61616b" data-color="color-2"></rect></svg>