<svg xmlns="http://www.w3.org/2000/svg" height="24" width="24" viewBox="0 0 24 24"><circle cx="12" cy="3" r="3" fill="#61616b"></circle> <path d="M22.236,9.313,14.275,7.038A1.02,1.02,0,0,0,14,7H10a1.02,1.02,0,0,0-.275.038L1.764,9.313l.549,1.923L9,9.326V19h2V16h2v8h2V9.326l6.687,1.91Z" fill="#61616b"></path> <path d="M11,21.931A8.008,8.008,0,0,1,4,14V13H2v1a10.013,10.013,0,0,0,9,9.949Z" fill="#61616b" data-color="color-2"></path> <path d="M20,13v1a7.984,7.984,0,0,1-3,6.235v2.412A10,10,0,0,0,22,14V13Z" fill="#61616b" data-color="color-2"></path></svg>