<svg xmlns="http://www.w3.org/2000/svg" height="24" width="24" viewBox="0 0 24 24"><path d="M19.458,8H15a3.827,3.827,0,0,1-3-1.428A3.827,3.827,0,0,1,9,8H4.542A3.986,3.986,0,0,1,.6,4.657L.014,1.164A1,1,0,0,1,1,0H23a1,1,0,0,1,.986,1.164L23.4,4.657A3.986,3.986,0,0,1,19.458,8Z" fill="#61616b" data-color="color-2"></path> <path d="M20.9,22.553c-1.29-2.579-.713-9-.179-12.7A6,6,0,0,1,19.458,10H15a5.785,5.785,0,0,1-3-.821A5.785,5.785,0,0,1,9,10H4.542a6,6,0,0,1-1.258-.145c.534,3.7,1.111,10.119-.179,12.7A1,1,0,0,0,4,24H20a1,1,0,0,0,.895-1.447ZM12,20a1,1,0,1,1,1-1A1,1,0,0,1,12,20Zm4.1-1c-.034,0-.066,0-.1,0a1,1,0,0,1-.994-.9,21.038,21.038,0,0,0-.607-3.651,6.656,6.656,0,0,0-4.8,0A21.038,21.038,0,0,0,8.995,18.1a1,1,0,1,1-1.99-.2c.172-1.755.484-3.988,1-4.669C8.917,12.014,11.969,12,12,12s3.083.014,4,1.232c.511.682.823,2.915,1,4.67A1,1,0,0,1,16.1,19Z" fill="#61616b"></path></svg>