<svg xmlns="http://www.w3.org/2000/svg" height="24" width="24" viewBox="0 0 24 24"><path d="M15.012,24.006H9a1,1,0,0,1-1-1V19.867l-4.761-.679A2.608,2.608,0,0,1,1,16.606V15H23v1.606a2.608,2.608,0,0,1-2.239,2.582l-4.756.678L16.012,23a1,1,0,0,1-1,1.006Z" fill="#61616b"></path> <path d="M11.014,0A5.781,5.781,0,0,1,9.555,3.71C8.218,5.045,7,6.35,7,8.386A5.109,5.109,0,0,0,9.873,13c0-.08-.016-.158-.016-.239,0-2.188,1.429-1.459,2.143-3.785a4.386,4.386,0,0,1,2.143,3.785c0,.081-.012.159-.016.239A5.109,5.109,0,0,0,17,8.386C17,6.073,15.988,2.381,11.014,0Z" fill="#61616b" data-color="color-2"></path></svg>