<svg xmlns="http://www.w3.org/2000/svg" height="24" width="24" viewBox="0 0 24 24"><path d="M17,6a3,3,0,1,1,3-3A3,3,0,0,1,17,6Z" fill="#61616b"></path> <circle cx="18" cy="22" r="2" fill="#61616b" data-color="color-2"></circle> <path d="M13,18a4,4,0,1,1-4.984-3.864,3.951,3.951,0,0,1,.189-1.4l.236-.707A6,6,0,1,0,15,18Z" fill="#61616b" data-color="color-2"></path> <path d="M18,14H14.108l1.424-4.272,1.72,1.936a1,1,0,0,0,1.2.231l4-2-.894-1.79L18.238,9.763,15.449,6.634a1.983,1.983,0,0,0-.817-.531A1.92,1.92,0,0,0,14,6.009V6H9a1,1,0,0,0-.707.293l-3,3,1.414,1.414L9.414,8h2.478L10.1,13.367a2,2,0,0,0,1.265,2.53A1.965,1.965,0,0,0,12,16h5v2h2V15A1,1,0,0,0,18,14Z" fill="#61616b"></path></svg>