<svg xmlns="http://www.w3.org/2000/svg" height="24" width="24" viewBox="0 0 24 24"><rect x="5" y="5" width="14" height="2" fill="#61616b" data-color="color-2"></rect> <path d="M3,1A1,1,0,0,0,2,2V5H0V7H2v3a1,1,0,0,0,2,0V2A1,1,0,0,0,3,1Z" fill="#61616b" data-color="color-2"></path> <path d="M24,5H22V2a1,1,0,0,0-2,0v8a1,1,0,0,0,2,0V7h2Z" fill="#61616b" data-color="color-2"></path> <polygon points="8 9 6 9 6 21 4 21 4 23 10 23 10 21 8 21 8 9" fill="#61616b"></polygon> <polygon points="18 21 18 9 16 9 16 21 14 21 14 23 20 23 20 21 18 21" fill="#61616b"></polygon></svg>