<svg xmlns="http://www.w3.org/2000/svg" height="24" width="24" viewBox="0 0 24 24"><path d="M19.364,6.628l-1.736-.992L13.42,13H10.58L6.372,5.636l-1.736.992L9,14.265v2.954l-3.243.811A1,1,0,0,0,5,19v4H7V19.781L10.122,19h3.756L17,19.781V23h2V19a1,1,0,0,0-.757-.97L15,17.219V14.265Z" fill="#61616b"></path> <circle cx="12" cy="9" r="2" fill="#61616b"></circle> <path d="M24,3H23V1a1,1,0,0,0-2,0V3H3V1A1,1,0,0,0,1,1V3H0V5H1V7A1,1,0,0,0,3,7V5H21V7a1,1,0,0,0,2,0V5h1Z" fill="#61616b" data-color="color-2"></path></svg>