<svg xmlns="http://www.w3.org/2000/svg" height="24" width="24" viewBox="0 0 24 24"><path d="M16,24a5.006,5.006,0,0,1-5-5V5A3,3,0,0,0,5,5v5H3V5A5,5,0,0,1,13,5V19a3,3,0,0,0,6,0V14h2v5A5.006,5.006,0,0,1,16,24Z" fill="#61616b" data-color="color-2"></path> <path d="M7,20H1a1,1,0,0,1-1-1V15a4,4,0,0,1,8,0v4A1,1,0,0,1,7,20ZM2,17H6V15a2,2,0,0,0-4,0Z" fill="#61616b"></path> <path d="M20,13a4,4,0,0,1-4-4V5a1,1,0,0,1,1-1h6a1,1,0,0,1,1,1V9A4,4,0,0,1,20,13ZM18,7V9a2,2,0,0,0,4,0V7Z" fill="#61616b"></path></svg>