<svg xmlns="http://www.w3.org/2000/svg" height="24" width="24" viewBox="0 0 24 24"><path data-color="color-2" d="M19,9.294V1a1,1,0,0,0-1-1H16a1,1,0,0,0-1,1V9.312a7.164,7.164,0,0,0-1.407.609,9.106,9.106,0,0,1,1.19,1.617,4.9,4.9,0,0,1,3.306-.419A5,5,0,0,1,17,21a4.863,4.863,0,0,1-2.191-.535A9.046,9.046,0,0,1,13.6,22.1,6.993,6.993,0,1,0,19,9.294Z" fill="#61616b"></path> <path d="M9,9.294V1A1,1,0,0,0,8,0H6A1,1,0,0,0,5,1V9.294a7,7,0,1,0,4,0ZM7,21a5,5,0,1,1,5-5A5,5,0,0,1,7,21Z" fill="#61616b"></path></svg>