<svg xmlns="http://www.w3.org/2000/svg" height="24" width="24" viewBox="0 0 24 24"><path d="M8,0H4A3,3,0,0,0,1,3v7.171a2.978,2.978,0,0,0,.879,2.122L5,15.414V22H4a1,1,0,0,0,0,2H8a1,1,0,0,0,0-2H7V15.414l3.121-3.121A2.983,2.983,0,0,0,11,10.171V3A3,3,0,0,0,8,0Z" fill="#61616b"></path><path data-color="color-2" d="M22.121,11.707,19,8.586V2h1a1,1,0,0,0,0-2H16a1,1,0,0,0,0,2h1V8.586l-3.121,3.121A2.978,2.978,0,0,0,13,13.829V21a3,3,0,0,0,3,3h4a3,3,0,0,0,3-3V13.829A2.983,2.983,0,0,0,22.121,11.707Z" fill="#61616b"></path></svg>