<svg xmlns="http://www.w3.org/2000/svg" height="24" width="24" viewBox="0 0 24 24"><circle cx="13" cy="3" r="3" fill="#61616b"></circle> <path d="M23,14H9.111l6.125,7H20a1,1,0,0,0,.316-.052C20.467,20.9,24,19.667,24,15A1,1,0,0,0,23,14Z" fill="#61616b" data-color="color-2"></path> <path d="M6.752,14.342A1,1,0,0,0,6,14H1a1,1,0,0,0-1,1c0,4.667,3.533,5.9,3.684,5.948A1,1,0,0,0,4,21H9.921l2.593,2.981,1.505-1.316Z" fill="#61616b" data-color="color-2"></path> <path d="M9.471,10.882l1.739-.928L12.225,13h4.217L14.9,8.367A2,2,0,0,0,12.368,7.1,3.533,3.533,0,0,0,12,7.268L8.75,9H5v2H9A.994.994,0,0,0,9.471,10.882Z" fill="#61616b"></path></svg>