<svg xmlns="http://www.w3.org/2000/svg" height="24" width="24" viewBox="0 0 24 24"><path d="M13.179,1.6A17.048,17.048,0,0,0,5.814,5.8a16.689,16.689,0,0,0-4.232,7.32l9.3,9.289A17.137,17.137,0,0,0,18.2,18.176a16.735,16.735,0,0,0,4.2-7.351ZM15.5,13.561l-2-2L11.561,13.5l2,2L12.5,16.561l-2-2L9,16.061,7.939,15l1.5-1.5-2-2L8.5,10.439l2,2L12.439,10.5l-2-2L11.5,7.439l2,2,1.5-1.5L16.061,9l-1.5,1.5,2,2Z" fill="#61616b"></path> <path data-color="color-2" d="M1.118,15.483A13.826,13.826,0,0,0,1,17.134,6.315,6.315,0,0,0,2.386,21.6a6.311,6.311,0,0,0,4.472,1.417A13.314,13.314,0,0,0,8.536,22.9Z" fill="#61616b"></path> <path data-color="color-2" d="M22.875,8.464A13.589,13.589,0,0,0,23,6.8a6.262,6.262,0,0,0-1.364-4.423c-1.181-1.179-3.487-1.587-6.11-1.252Z" fill="#61616b"></path></svg>