<svg xmlns="http://www.w3.org/2000/svg" height="24" width="24" viewBox="0 0 24 24"><circle cx="19" cy="4" r="3" fill="#61616b"></circle> <path d="M23.414,15l-1.98-1.98a3.842,3.842,0,0,0,.458-2.912,3.972,3.972,0,0,0-4.784,4.784,3.842,3.842,0,0,0,2.912-.458L22,16.414Z" fill="#61616b"></path> <path d="M6.96,16.584a4.087,4.087,0,0,1-.394-.564L.586,22,2,23.414l5.825-5.825Z" fill="#61616b"></path> <path d="M16.414,7.586a1.978,1.978,0,0,0-.783-.476C15.613,7.1,9.309,5.049,9.309,5.049a1,1,0,0,0-1.141.4L5.613,9.277l1.664,1.11,2.135-3.2,3.452,1.121L8.586,12.586A1.928,1.928,0,0,0,8.011,14a1.887,1.887,0,0,0,.575,1.414c.414.339,3.994,2.813,3.994,2.813L9.6,22.2l1.6,1.2,3.6-4.8a1,1,0,0,0-.226-1.419l-2.9-2.029,4.738-4.738A2,2,0,0,0,16.414,7.586Z" fill="#61616b"></path></svg>