<svg xmlns="http://www.w3.org/2000/svg" height="24" width="24" viewBox="0 0 24 24"><path d="M15.149,5.014,17.745,13l3.785,2.8a3.143,3.143,0,0,1,.986,4.335l-.558.887a2.1,2.1,0,0,1-2.89.658L1.978,10.505A2.1,2.1,0,0,1,1.32,7.614l4-6.358c.425-.676,1.58-.715,1.8.052a5.739,5.739,0,0,0,3.067,3.509A7.5,7.5,0,0,0,15.149,5.014Z" fill="#61616b"></path> <rect data-color="color-2" y="20" width="12" height="2" fill="#61616b"></rect> <rect data-color="color-2" y="15" width="5" height="2" fill="#61616b"></rect></svg>