<svg xmlns="http://www.w3.org/2000/svg" height="24" width="24" viewBox="0 0 24 24"><circle cx="19" cy="3" r="3" fill="#61616b"></circle> <rect x="8" y="19" width="12" height="2" fill="#61616b" data-color="color-2"></rect> <circle cx="11" cy="23" r="1" fill="#61616b" data-color="color-2"></circle> <circle cx="17" cy="23" r="1" fill="#61616b" data-color="color-2"></circle> <path d="M8.958,15.431a3.819,3.819,0,0,1-.789-.606,3.926,3.926,0,0,1-.605-.8L6.489,15.1l-4.7,1.175.485,1.941L7.243,16.97a1,1,0,0,0,.464-.263L8.974,15.44Z" fill="#61616b"></path> <path d="M16.414,6.586A1.99,1.99,0,0,0,15,6H5V8h7.172L9.586,10.586a2,2,0,0,0,0,2.828,1.925,1.925,0,0,0,.416.31l3,1.836V18h2V15a1,1,0,0,0-.477-.853l-1.761-1.081,3.652-3.652A2,2,0,0,0,16.414,6.586Z" fill="#61616b"></path></svg>