<svg xmlns="http://www.w3.org/2000/svg" height="24" width="24" viewBox="0 0 24 24"><circle cx="20" cy="3" r="3" fill="#61616b"></circle> <path d="M8.909,16.505c-.69-.631-.714-.653-.738-.677l-.007-.009a3.441,3.441,0,0,1-.386-.473c-.077-.106-.147-.214-.213-.325L4,18.586l-.707-.707L1.879,19.293l3.539,3.539,1.415-1.414L5.414,20Z" fill="#61616b"></path> <path d="M17.414,6.586A1.99,1.99,0,0,0,16,6H5V8h8.172L9.586,11.586a2,2,0,0,0,0,2.828c.036.036,4.322,3.942,4.322,3.942L13.174,22H12v2h5.006V22H15.214l.766-3.8a1,1,0,0,0-.3-.935l-3.19-2.919,4.929-4.929A2,2,0,0,0,17.414,6.586Z" fill="#61616b"></path></svg>