<svg xmlns="http://www.w3.org/2000/svg" height="24" width="24" viewBox="0 0 24 24"><path d="M21,6a3,3,0,1,1,3-3A3,3,0,0,1,21,6Z" fill="#61616b"></path> <path d="M8.211,10.9a1.95,1.95,0,0,0,.462.579l3.575,3.284-2.63,1.315,2.236,1.118,2.593-1.3a1,1,0,0,0,.226-1.634l-3.09-2.816L16,9.236V12a1,1,0,0,0,.553.891l4,2,.894-1.79L18,11.381,18,7h-.008a1.985,1.985,0,0,0-2.887-1.789L10.882,7.323,2.447,3.105l-.894,1.79,7.161,3.58A2,2,0,0,0,8.211,10.9Z" fill="#61616b"></path> <rect x="9" y="8.438" width="2" height="20.125" transform="translate(-11.019 19.171) rotate(-63.435)" fill="#61616b" data-color="color-2"></rect></svg>