<svg xmlns="http://www.w3.org/2000/svg" height="24" width="24" viewBox="0 0 24 24"><path d="M21.721,20l-.831-2.5a3.966,3.966,0,0,0-2.482-7.445L16.388,4H20a1.006,1.006,0,0,0,.555-.168l3-2L22.445.168,19.7,2H15a1,1,0,0,0-.949,1.316L15.109,6.49,2.564,20H0v2H7V20H5.294L15.83,8.653l.732,2.2a3.983,3.983,0,0,0,2.382,7.145L19.613,20H17v2h7V20Z" fill="#61616b"></path> <polygon points="6.365 12.967 7.819 11.402 6.618 9 9 9 9 7 2 7 2 9 4.382 9 6.365 12.967" fill="#61616b" data-color="color-2"></polygon></svg>