<svg xmlns="http://www.w3.org/2000/svg" height="24" width="24" viewBox="0 0 24 24"><path d="M24,8c0-3.421-5.159-6-12-6S0,4.579,0,8c0,1,1.5,9.588,1.5,9.588.085,2.33,3.484,3.764,7.5,4.236V19a1,1,0,0,1,1-1h4a1,1,0,0,1,1,1v2.824c4.015-.472,7.414-1.906,7.5-4.236C22.5,17.588,24,9,24,8ZM12,12a16.558,16.558,0,0,1-8.407-1.948C4.808,9.023,7.829,8,12,8s7.192,1.023,8.407,2.052A16.555,16.555,0,0,1,12,12Zm9.817-3.341C19.882,6.921,15.859,6,12,6s-7.882.921-9.817,2.659a1.677,1.677,0,0,1-.177-.7C2.067,6.08,6.318,4,12,4s9.932,2.08,9.994,3.958A1.53,1.53,0,0,1,21.817,8.659Z" fill="#61616b"></path></svg>