<svg xmlns="http://www.w3.org/2000/svg" height="24" width="24" viewBox="0 0 24 24"><path d="M20,0a3,3,0,0,0-3,3V6H7V3A1,1,0,0,1,8,2,1,1,0,0,0,8,0,3,3,0,0,0,5,3V17a1,1,0,0,0,2,0V14H17v3a1,1,0,0,0,2,0V3a1,1,0,0,1,1-1,1,1,0,0,0,0-2ZM7,12V8H17v4Z" fill="#61616b"></path><path data-color="color-2" d="M23,22h0a5.943,5.943,0,0,1-4.71-2.3,1.035,1.035,0,0,0-1.576,0A6,6,0,0,1,12.117,22h-.21q-.315-.006-.631-.044A5.945,5.945,0,0,1,7.288,19.7a1.037,1.037,0,0,0-1.576,0A5.943,5.943,0,0,1,1,22H1a1,1,0,0,0,0,2H23a1,1,0,0,0,0-2Z" fill="#61616b"></path></svg>