<svg xmlns="http://www.w3.org/2000/svg" height="24" width="24" viewBox="0 0 24 24"><path data-color="color-2" d="M21.379,4.526a9.955,9.955,0,0,0,0,14.948,11.967,11.967,0,0,0,0-14.948Z" fill="#61616b"></path> <path data-color="color-2" d="M2.621,4.526a11.967,11.967,0,0,0,0,14.948A9.968,9.968,0,0,0,6,12,9.968,9.968,0,0,0,2.621,4.526Z" fill="#61616b"></path> <path d="M16,12a11.96,11.96,0,0,1,4-8.923A11.949,11.949,0,0,0,4,3.077,11.96,11.96,0,0,1,8,12a11.96,11.96,0,0,1-4,8.923,11.949,11.949,0,0,0,16.008,0A11.96,11.96,0,0,1,16,12Z" fill="#61616b"></path></svg>