<svg xmlns="http://www.w3.org/2000/svg" height="24" width="24" viewBox="0 0 24 24"><circle cx="11" cy="4" r="3" fill="#61616b"></circle> <path d="M23.922,2.633A3.271,3.271,0,0,0,22.284.356a3.768,3.768,0,0,0-4.93,1.915,3.961,3.961,0,0,0,.39,4.518l-1.732,3.272L17.779,11l1.733-3.272a3.17,3.17,0,0,0,.465.054,4.079,4.079,0,0,0,3.492-2.266A4.345,4.345,0,0,0,23.922,2.633ZM21.7,4.574c-.508.959-1.528,1.457-2.227,1.084a1.819,1.819,0,0,1-.353-2.45A2.111,2.111,0,0,1,20.835,2a1.079,1.079,0,0,1,.513.123,1.291,1.291,0,0,1,.614.9A2.373,2.373,0,0,1,21.7,4.574Z" fill="#61616b" data-color="color-2"></path> <path d="M11.555,16.168,9.276,14.649l-.846,1.41c-.062.1-.134.2-.2.293L10,17.535V22h2V17A1,1,0,0,0,11.555,16.168Z" fill="#61616b"></path> <path d="M6.285,7.971l-3,5a1.994,1.994,0,0,0,.163,2.279l2.459,3-1.12,4.48,1.941.485L7.97,18.242a1,1,0,0,0-.2-.88L6.26,15.536a1.964,1.964,0,0,0,.455-.507L9.674,10.1,16.3,14.383,17.383,12.7,9.029,7.285A2,2,0,0,0,6.285,7.971Z" fill="#61616b"></path></svg>