<svg xmlns="http://www.w3.org/2000/svg" height="24" width="24" viewBox="0 0 24 24"><polygon points="20.721 17 18.612 17 19.612 20 18 20 18 22 24 22 24 20 21.721 20 20.721 17" fill="#61616b" data-color="color-2"></polygon> <polygon points="7.399 12.349 5.851 10.8 2.313 20 0 20 0 22 6 22 6 20 4.456 20 7.399 12.349" fill="#61616b" data-color="color-2"></polygon> <path d="M24,14.5A1.5,1.5,0,0,0,22.5,13H15.121L3.561,1.439A1.5,1.5,0,0,0,1.439,3.561l12,12a1.515,1.515,0,0,0,.492.326l.023.007A1.485,1.485,0,0,0,14.5,16h8A1.5,1.5,0,0,0,24,14.5Z" fill="#61616b"></path></svg>