<svg xmlns="http://www.w3.org/2000/svg" height="24" width="24" viewBox="0 0 24 24"><path d="M22.553,17.716a11.925,11.925,0,0,0,1.363-4.342c-5.027-6.289-8.751-7.352-12.881-6.629a13.514,13.514,0,0,0,1.573,4.612,13.664,13.664,0,0,1,8.3,4.073A13.721,13.721,0,0,1,22.553,17.716Z" fill="#61616b"></path> <path d="M10.706,12.051A13.548,13.548,0,0,1,9.137,3.245,13.772,13.772,0,0,1,10.159.156a11.913,11.913,0,0,0-5.024,2.01C4.029,4.984,3.827,10.481,6.628,14.328A13.338,13.338,0,0,0,10.706,12.051Z" fill="#61616b"></path> <path d="M16.976,14.85a13.538,13.538,0,0,0-4.689-1.519,13.686,13.686,0,0,1-8.612,3.508,13.724,13.724,0,0,1-2.779-.3,12.008,12.008,0,0,0,2.9,4.194C11.712,20.859,14.893,18.6,16.976,14.85Z" fill="#61616b"></path> <path data-color="color-2" d="M11.1,3.637a8.709,8.709,0,0,0-.138,1.1c3.715-.6,7.856.029,12.9,5.5A11.984,11.984,0,0,0,12.474.024,11.984,11.984,0,0,0,11.1,3.637Z" fill="#61616b"></path> <path data-color="color-2" d="M19.422,16.764a8.77,8.77,0,0,0-.8-.772c-2.11,3.714-5.276,6.249-12.087,6.683A11.972,11.972,0,0,0,21.288,19.6,11.921,11.921,0,0,0,19.422,16.764Z" fill="#61616b"></path> <path data-color="color-2" d="M3.675,14.839c.29,0,.568-.034.849-.061A15.918,15.918,0,0,1,2.479,4.716a11.92,11.92,0,0,0-2.251,9.6A11.89,11.89,0,0,0,3.675,14.839Z" fill="#61616b"></path></svg>