<svg xmlns="http://www.w3.org/2000/svg" height="24" width="24" viewBox="0 0 24 24"><circle cx="13" cy="3" r="3" fill="#61616b"></circle> <circle cx="20.5" cy="7.5" r="2.5" fill="#61616b" data-color="color-2"></circle> <path d="M12.515,16.143l-3.506-2.1L8.2,15.055l.631,1.208,2.261,1.357.925,5.544,1.972-.328-1-6A1,1,0,0,0,12.515,16.143Z" fill="#61616b"></path> <path d="M19.382,11.7,11.134,6.364a1.993,1.993,0,0,0-2.7.387l-4,5a2,2,0,0,0-.22,2.146l0,0,2.57,4.9-3.49,3.49,1.414,1.414,4-4A1,1,0,0,0,8.9,18.553L7.009,14.94l4.553-5.691c.042-.053.071-.111.107-.166l6.631,4.3Z" fill="#61616b"></path></svg>