<svg xmlns="http://www.w3.org/2000/svg" height="24" width="24" viewBox="0 0 24 24"><path data-color="color-2" d="M16.2,11.4l-2.029,2.705L10.9,7.553A1,1,0,0,0,9.2,7.4L6.5,11H1v2H7a1,1,0,0,0,.8-.4L9.829,9.9l3.276,6.552a1,1,0,0,0,.8.549c.03,0,.06,0,.09,0a1,1,0,0,0,.8-.4L17.5,13H23V11H17A1,1,0,0,0,16.2,11.4Z" fill="#61616b"></path> <path d="M19,18a1,1,0,0,1-1,1H6a1,1,0,0,1-1-1V15H3v3a3,3,0,0,0,2.243,2.891l.808,2.425A1,1,0,0,0,7,24H17a1,1,0,0,0,.949-.684l.808-2.425A3,3,0,0,0,21,18V15H19Z" fill="#61616b"></path> <path d="M5,6A1,1,0,0,1,6,5H18a1,1,0,0,1,1,1V9h2V6a3,3,0,0,0-2.243-2.891L17.949.684A1,1,0,0,0,17,0H7a1,1,0,0,0-.949.684L5.243,3.109A3,3,0,0,0,3,6V9H5Z" fill="#61616b"></path></svg>