<svg xmlns="http://www.w3.org/2000/svg" height="24" width="24" viewBox="0 0 24 24"><path d="M18.757,3.109,17.949.684A1,1,0,0,0,17,0H7a1,1,0,0,0-.949.684L5.243,3.109A3,3,0,0,0,3,6V18a3,3,0,0,0,2.243,2.891l.808,2.425A1,1,0,0,0,7,24H17a1,1,0,0,0,.949-.684l.808-2.425A3,3,0,0,0,21,18V6A3,3,0,0,0,18.757,3.109ZM19,18a1,1,0,0,1-1,1H6a1,1,0,0,1-1-1V6A1,1,0,0,1,6,5H18a1,1,0,0,1,1,1Z" fill="#61616b"></path> <path d="M15.674,8.741a2.537,2.537,0,0,0-3.674.1,2.535,2.535,0,1,0-3.674,3.49L12,16l3.674-3.675a2.533,2.533,0,0,0,0-3.584Z" fill="#61616b" data-color="color-2"></path></svg>