<svg xmlns="http://www.w3.org/2000/svg" height="24" width="24" viewBox="0 0 24 24"><path d="M13,11a3,3,0,1,1,3-3A3,3,0,0,1,13,11Z" fill="#61616b"></path> <circle cx="6" cy="3" r="2" fill="#61616b" data-color="color-2"></circle> <path d="M6.584,16.248a2.847,2.847,0,0,1,2.161,1.074,4.173,4.173,0,0,0,.885.9A3.957,3.957,0,0,0,12,19c.12,0,.233-.03.351-.041l1.337-4.011,6.948,2.316.633-1.9L8.586,11.141,3.128,4.592,1.592,5.872l6.036,7.244Z" fill="#61616b"></path> <path d="M18.179,18.566a.867.867,0,0,0-1.218-.14.843.843,0,0,0-.14.14,5.991,5.991,0,0,1-9.642,0,.867.867,0,0,0-1.218-.14.843.843,0,0,0-.14.14C5.306,19.229,4.435,21,0,21v2H24V21C19.565,21,18.694,19.229,18.179,18.566Z" fill="#61616b" data-color="color-2"></path></svg>