<svg xmlns="http://www.w3.org/2000/svg" height="24" width="24" viewBox="0 0 24 24"><path d="M12,1A9.979,9.979,0,0,0,2.581,14.334a1,1,0,0,0,1.884-.668,7.94,7.94,0,0,1,2.05-8.475,9.844,9.844,0,0,0,.37,1.491,9.445,9.445,0,0,0,3.886,4.74A9.118,9.118,0,0,1,9.652,13.4a1,1,0,0,0,1.6,1.2,11.3,11.3,0,0,0,1.527-2.842,7.7,7.7,0,0,1,5.111-.354,7.9,7.9,0,0,1,1.984.988,8.262,8.262,0,0,1-.337,1.272,1,1,0,1,0,1.884.668A9.979,9.979,0,0,0,12,1Zm.084,8.89a7.675,7.675,0,0,1-3.3-3.849,7.877,7.877,0,0,1-.4-2.166,7.982,7.982,0,0,1,11.568,6.24,9.714,9.714,0,0,0-1.435-.609A9.551,9.551,0,0,0,12.084,9.89Z" fill="#61616b"></path> <path d="M18.179,15.566a.867.867,0,0,0-1.218-.14.9.9,0,0,0-.141.141,5.733,5.733,0,0,1-2.508,2.058,6.18,6.18,0,0,1-7.133-2.059.867.867,0,0,0-1.218-.14.843.843,0,0,0-.14.14C5.306,16.229,4.435,18,0,18v3a1,1,0,0,0,1,1H23a1,1,0,0,0,1-1V18C19.565,18,18.694,16.229,18.179,15.566Z" fill="#61616b" data-color="color-2"></path></svg>