<svg xmlns="http://www.w3.org/2000/svg" height="24" width="24" viewBox="0 0 24 24"><rect x="5" y="5" width="14" height="2" fill="#61616b" data-color="color-2"></rect> <path d="M3,1A1,1,0,0,0,2,2V5H0V7H2v3a1,1,0,0,0,2,0V2A1,1,0,0,0,3,1Z" fill="#61616b" data-color="color-2"></path> <path d="M16.18,13.258A1.99,1.99,0,0,0,14.323,12H9.677A1.99,1.99,0,0,0,7.82,13.258L6.071,17.629A1,1,0,0,0,6,18v5H8V19h8v4h2V18a1,1,0,0,0-.071-.371Z" fill="#61616b"></path> <path d="M24,5H22V2a1,1,0,0,0-2,0v8a1,1,0,0,0,2,0V7h2Z" fill="#61616b" data-color="color-2"></path></svg>