<svg xmlns="http://www.w3.org/2000/svg" height="24" width="24" viewBox="0 0 24 24"><path d="M12,0A12,12,0,1,0,24,12,12.013,12.013,0,0,0,12,0Zm6,12a5.961,5.961,0,0,1-1.115,3.471l1.822,1.822a1,1,0,1,1-1.414,1.414l-1.822-1.822a5.96,5.96,0,0,1-6.942,0L6.707,18.707a1,1,0,0,1-1.414-1.414l1.822-1.822a5.96,5.96,0,0,1,0-6.942L5.293,6.707A1,1,0,0,1,6.707,5.293L8.529,7.115a5.96,5.96,0,0,1,6.942,0l1.822-1.822a1,1,0,1,1,1.414,1.414L16.885,8.529A5.961,5.961,0,0,1,18,12Z" fill="#61616b"></path> <path d="M12,8a4,4,0,1,0,4,4A4,4,0,0,0,12,8Zm0,6a2,2,0,1,1,2-2A2,2,0,0,1,12,14Z" fill="#61616b" data-color="color-2"></path></svg>