<svg xmlns="http://www.w3.org/2000/svg" height="24" width="24" viewBox="0 0 24 24"><path d="M9.414,16.414h0L6,13a1.471,1.471,0,0,0-2,0,1.417,1.417,0,0,0,0,2l3,3a.5.5,0,1,1-.707.707l-3-3A2.417,2.417,0,0,1,3,12.652V8.5a1.5,1.5,0,0,0-3,0v6.8a2,2,0,0,0,.438,1.25L4,21v3h6V17.828a2,2,0,0,0-.586-1.414Z" fill="#61616b"></path> <path d="M14.586,16.414h0L18,13a1.471,1.471,0,0,1,2,0,1.417,1.417,0,0,1,0,2l-3,3a.5.5,0,1,0,.707.707l3-3A2.417,2.417,0,0,0,21,12.652V8.5a1.5,1.5,0,0,1,3,0v6.8a2,2,0,0,1-.438,1.25L20,21v3H14V17.828a2,2,0,0,1,.586-1.414Z" fill="#61616b"></path> <path d="M18.25,0H5.75A.75.75,0,0,0,5,.75v2a3.743,3.743,0,0,0,3.283,3.7A4,4,0,0,0,11,8.858V11H9v2h6V11H13V8.858a4,4,0,0,0,2.717-2.405A3.743,3.743,0,0,0,19,2.75v-2A.75.75,0,0,0,18.25,0ZM8,4.862A2.248,2.248,0,0,1,6.5,2.75V1.5H8ZM17.5,2.75A2.248,2.248,0,0,1,16,4.862V1.5h1.5Z" fill="#61616b" data-color="color-2"></path></svg>