<svg xmlns="http://www.w3.org/2000/svg" height="24" width="24" viewBox="0 0 24 24"><path d="M20.921,22.611a29.7,29.7,0,0,1-2.067-10.774,6.1,6.1,0,0,1-1.4.163H6.55a6.1,6.1,0,0,1-1.4-.163A29.7,29.7,0,0,1,3.079,22.611,1,1,0,0,0,4,24H20a1,1,0,0,0,.921-1.389ZM12,20a1,1,0,1,1,1-1A1,1,0,0,1,12,20Z" fill="#61616b"></path> <path d="M21.245,4.735,20.2.746A1,1,0,0,0,19.229,0H16a4,4,0,0,1-4,4A4,4,0,0,1,8,0H4.771A1,1,0,0,0,3.8.746L2.755,4.735A4,4,0,0,0,6.55,10h10.9A4,4,0,0,0,21.245,4.735Z" fill="#61616b" data-color="color-2"></path></svg>