<svg xmlns="http://www.w3.org/2000/svg" height="24" width="24" viewBox="0 0 24 24"><path d="M23,3H18V1a1,1,0,0,0-2,0V3H8V1A1,1,0,0,0,6,1V3H1A1,1,0,0,0,0,4V22a1,1,0,0,0,1,1H8V21H2V7H22v5h2V4A1,1,0,0,0,23,3Z" fill="#61616b"></path> <path d="M23,18H22V15a1,1,0,0,0-1-1H20a1,1,0,0,0-1,1v3H14V15a1,1,0,0,0-1-1H12a1,1,0,0,0-1,1v3H10a1,1,0,0,0-1,1H9a1,1,0,0,0,1,1h1v3a1,1,0,0,0,1,1h1a1,1,0,0,0,1-1V20h5v3a1,1,0,0,0,1,1h1a1,1,0,0,0,1-1V20h1a1,1,0,0,0,1-1h0A1,1,0,0,0,23,18Z" fill="#61616b" data-color="color-2"></path></svg>