<svg xmlns="http://www.w3.org/2000/svg" height="48" width="48" viewBox="0 0 48 48"><circle cx="41" cy="10" r="6" fill="#5a7a84"></circle> <path d="M27,15A13,13,0,1,0,14,28,13.015,13.015,0,0,0,27,15Z" fill="#e6e6e6"></path> <path d="M38.367,18.241a4,4,0,0,0-5.126,2.392l-4,11c-.044.121-.061.245-.093.367H20.5a2.5,2.5,0,0,0-1.952.938l-8,10a2.5,2.5,0,1,0,3.9,3.123L21.7,37H32.5c.078,0,.151-.016.226-.023.091.006.183.024.274.024a4,4,0,0,0,3.759-2.634l4-11A4,4,0,0,0,38.367,18.241Z" fill="#335262"></path></svg>