<svg xmlns="http://www.w3.org/2000/svg" height="48" width="48" viewBox="0 0 48 48"><path d="M37.028,19.373l-9.2,9.2L38.056,45.517a1,1,0,0,0,1.563.19l2.275-2.275a4.977,4.977,0,0,0,1.225-5.061Z" fill="#c8c8c8"></path><path d="M18.3,36.539a35.965,35.965,0,0,0,7.03-5.471L43.17,13.233c2.343-2.343,3.656-8.828,2-10.484-1.672-1.672-8.142-.344-10.485,2L16.844,22.583a36.014,36.014,0,0,0-5.472,7.031L5.034,41.55a.981.981,0,0,0,1.328,1.328Z" fill="#e0e0e0"></path><path d="M2.4,9.856,19.339,20.088l9.206-9.2-19-6.093A4.979,4.979,0,0,0,4.48,6.018L2.205,8.293A1,1,0,0,0,2.4,9.856Z" fill="#c8c8c8"></path><path d="M42,11.171h-.043A1,1,0,0,1,41,10.129a3.011,3.011,0,0,0-.876-2.251A2.972,2.972,0,0,0,37.87,7a1.03,1.03,0,0,1-1.041-.956A1,1,0,0,1,37.787,5,5,5,0,0,1,43,10.214,1,1,0,0,1,42,11.171Z" fill="#444"></path><path d="M2.991,31a1,1,0,0,0-.784,1.7L7.121,37.62l3.213-6.052Z" fill="#c6c6c6"></path><path d="M15.205,45.705a1,1,0,0,0,1.7-.784l-.565-7.344-6.053,3.214Z" fill="#c6c6c6"></path></svg>