<svg xmlns="http://www.w3.org/2000/svg" height="48" width="48" viewBox="0 0 48 48"><path d="M42.708,29.294a1.008,1.008,0,0,0-.818-.288l-9.02,1a1,1,0,0,0-.6,1.7l2.833,2.833a16.007,16.007,0,0,1-22.192-.02l2.813-2.813a1,1,0,0,0-.6-1.7l-9.02-1a.99.99,0,0,0-.818.288,1,1,0,0,0-.286.819l1.02,9a1,1,0,0,0,.664.831,1,1,0,0,0,1.037-.237l2.359-2.359a20,20,0,0,0,27.848.02l2.339,2.339a1,1,0,0,0,1.7-.594l1.02-9A1,1,0,0,0,42.708,29.294Z" fill="#aeaeae"></path><path d="M30.02,7a6,6,0,1,0-8,5.65L22,43a2,2,0,1,0,4,0V12.65A6.021,6.021,0,0,0,30.02,7Zm-6,2a2,2,0,1,1,2-2A2,2,0,0,1,24.02,9Z" fill="#949494"></path><path d="M31.02,16h-14a1,1,0,0,1-1-1V13a1,1,0,0,1,1-1h14a1,1,0,0,1,1,1v2A1,1,0,0,1,31.02,16Z" fill="#aeaeae"></path><rect x="22" y="16" width="4" height="3" fill="#7b7b7b"></rect></svg>