<svg xmlns="http://www.w3.org/2000/svg" height="48" width="48" viewBox="0 0 48 48"><path d="M22,27a1,1,0,0,1-.833-.445l-8-12a1,1,0,1,1,1.664-1.109l8,12A1,1,0,0,1,22,27Z" fill="#b3b3b3"></path> <path d="M14.006,15.11l-6.9.766A1,1,0,0,1,6,14.883V13.117a1,1,0,0,1,1.11-.994l6.9.766A1.117,1.117,0,0,1,15,14h0A1.117,1.117,0,0,1,14.006,15.11Z" fill="#444"></path> <path d="M10,43a9,9,0,1,1,9-9A9.01,9.01,0,0,1,10,43Zm0-16a7,7,0,1,0,7,7A7.008,7.008,0,0,0,10,27Z" fill="#444"></path> <path d="M38,43a9,9,0,1,1,9-9A9.01,9.01,0,0,1,38,43Zm0-16a7,7,0,1,0,7,7A7.008,7.008,0,0,0,38,27Z" fill="#444"></path> <path d="M38.962,33.726l-8-28a1,1,0,1,0-1.924.549l3.32,11.619L9.445,33.168a1,1,0,1,0,1.109,1.664l22.38-14.92,4.1,14.362A1,1,0,0,0,38,35a1.029,1.029,0,0,0,.275-.038A1,1,0,0,0,38.962,33.726Z" fill="#43a6dd"></path> <path d="M30,7H22a1,1,0,0,1,0-2h8a1,1,0,0,1,0,2Z" fill="#b3b3b3"></path></svg>