<svg xmlns="http://www.w3.org/2000/svg" height="48" width="48" viewBox="0 0 48 48"><path d="M28,14H20a1,1,0,0,1-1-1V3a1,1,0,0,1,1-1h8a1,1,0,0,1,1,1V13A1,1,0,0,1,28,14Z" fill="#5b5b5b"></path> <path d="M38,30H10a1,1,0,0,1-1-1V17a5.006,5.006,0,0,1,5-5H34a5.006,5.006,0,0,1,5,5V29A1,1,0,0,1,38,30Z" fill="#d8d8d8"></path> <rect x="19" y="5" width="10" height="2" fill="#e86c60"></rect> <path d="M23.514,20.126l-18,10a1,1,0,0,0-.463,1.19l4,12A1,1,0,0,0,10,44H24V20A1,1,0,0,0,23.514,20.126Z" fill="#5b5b5b"></path> <path d="M42.486,30.126l-18-10A1,1,0,0,0,24,20V44H38a1,1,0,0,0,.949-.684l4-12A1,1,0,0,0,42.486,30.126Z" fill="#444"></path> <polygon points="6.753 36.42 24 30.066 24 27.934 6.12 34.522 6.753 36.42" fill="gray"></polygon> <polygon points="24 27.934 24 30.066 41.248 36.42 41.88 34.522 24 27.934" fill="#5b5b5b"></polygon></svg>