<svg xmlns="http://www.w3.org/2000/svg" height="48" width="48" viewBox="0 0 48 48"><circle cx="22" cy="26" r="18" fill="#e6e6e6"></circle> <circle cx="22" cy="26" r="5" fill="#b3b3b3"></circle> <path d="M22,47A21,21,0,1,1,43,26,21.024,21.024,0,0,1,22,47Zm0-36A15,15,0,1,0,37,26,15.016,15.016,0,0,0,22,11Z" fill="#444"></path> <path d="M46,28H34a1,1,0,0,1-1-1A12.013,12.013,0,0,0,21,15a1,1,0,0,1-1-1V2a1,1,0,0,1,1-1A26.029,26.029,0,0,1,47,27,1,1,0,0,1,46,28ZM35,27h0Z" fill="#efd358"></path> <circle cx="26.5" cy="8.5" r="1.5" fill="#a67c52"></circle> <circle cx="39.5" cy="21.5" r="1.5" fill="#a67c52"></circle> <circle cx="34.5" cy="13.5" r="1.5" fill="#a67c52"></circle></svg>