<svg xmlns="http://www.w3.org/2000/svg" height="48" width="48" viewBox="0 0 48 48"><polygon points="12 16 36 16 40 28 8 28 12 16" fill="#e6e6e6"></polygon> <path d="M3,41v5a1,1,0,0,0,1,1h8a1,1,0,0,0,1-1V41Z" fill="#444"></path> <path d="M35,41v5a1,1,0,0,0,1,1h8a1,1,0,0,0,1-1V41Z" fill="#444"></path> <path d="M44.121,30.707l-3.248-3.248L37.4,17.051A3,3,0,0,0,34.559,15H13.441A3,3,0,0,0,10.6,17.051L7.126,27.459,3.878,30.708A3,3,0,0,0,3,32.828V41H45V32.829A3,3,0,0,0,44.121,30.707ZM12.492,17.684A1,1,0,0,1,13.441,17H34.559a1,1,0,0,1,.949.684L38.613,27H9.387Z" fill="#72c472"></path> <rect x="3" y="39" width="42" height="3" fill="#4da34d"></rect> <circle cx="9" cy="34" r="2" fill="#e6e6e6"></circle> <circle cx="39" cy="34" r="2" fill="#e6e6e6"></circle> <path d="M28,35H20a1,1,0,0,1,0-2h8a1,1,0,0,1,0,2Z" fill="#4da34d"></path> <path d="M34.252,8a1,1,0,0,1-.789-.385,12,12,0,0,0-18.923,0,1,1,0,1,1-1.576-1.232,14,14,0,0,1,22.075.006A1,1,0,0,1,34.252,8Z" fill="#43a6dd"></path> <path d="M19.528,12a1,1,0,0,1-.745-1.667,7,7,0,0,1,10.434,0,1,1,0,0,1-1.49,1.334,5,5,0,0,0-7.453,0A1,1,0,0,1,19.528,12Z" fill="#badefc"></path></svg>