<svg xmlns="http://www.w3.org/2000/svg" height="48" width="48" viewBox="0 0 48 48"><polygon points="12 16 36 16 40 28 8 28 12 16" fill="#e6e6e6"></polygon> <path d="M3,41v5a1,1,0,0,0,1,1h8a1,1,0,0,0,1-1V41Z" fill="#444"></path> <path d="M35,41v5a1,1,0,0,0,1,1h8a1,1,0,0,0,1-1V41Z" fill="#444"></path> <path d="M44.121,30.707l-3.248-3.248L37.4,17.051A3,3,0,0,0,34.559,15H13.441A3,3,0,0,0,10.6,17.051L7.126,27.459,3.878,30.708A3,3,0,0,0,3,32.828V41H45V32.829A3,3,0,0,0,44.121,30.707ZM12.492,17.684A1,1,0,0,1,13.441,17H34.559a1,1,0,0,1,.949.684L38.613,27H9.387Z" fill="#72c472"></path> <rect x="3" y="39" width="42" height="3" fill="#4da34d"></rect> <circle cx="9" cy="34" r="2" fill="#e6e6e6"></circle> <circle cx="39" cy="34" r="2" fill="#e6e6e6"></circle> <path d="M28,35H20a1,1,0,0,1,0-2h8a1,1,0,0,1,0,2Z" fill="#4da34d"></path> <path d="M24.749,1.338a1.032,1.032,0,0,0-1.5,0C22.611,2.062,17,8.516,17,12.286A6.8,6.8,0,0,0,24,19a6.8,6.8,0,0,0,7-6.714C31,8.516,25.389,2.062,24.749,1.338Z" fill="#e86c60"></path> <path d="M24,15a2.838,2.838,0,0,1-3-2.714c.021-.839,1.182-3.038,3-5.513,1.818,2.476,2.979,4.675,3,5.516A2.838,2.838,0,0,1,24,15Z" fill="#efd358"></path></svg>