<svg xmlns="http://www.w3.org/2000/svg" height="48" width="48" viewBox="0 0 48 48"><path d="M46,22V6a4,4,0,0,0-4-4H32C14,2,4,14,4,22Z" fill="#badefc"></path> <path d="M46,23a1,1,0,0,1-1-1V6a3,3,0,0,0-3-3H32C15.271,3,5,14.066,5,22a1,1,0,0,1-2,0C3,13.417,13.327,1,32,1H42a5.006,5.006,0,0,1,5,5V22A1,1,0,0,1,46,23Z" fill="#223e49"></path> <path d="M46,47H7a1,1,0,0,1-.982-.815C5.894,45.527,3,30,3,22a1,1,0,0,1,1-1H46a1,1,0,0,1,1,1V46A1,1,0,0,1,46,47Z" fill="#5a7a84"></path> <path d="M10,15H5.5a4.5,4.5,0,0,0,0,9H10a1,1,0,0,0,1-1V16A1,1,0,0,0,10,15Z" fill="#e6e6e6"></path> <path d="M40,29H32a1,1,0,0,1,0-2h8a1,1,0,0,1,0,2Z" fill="#223e49"></path></svg>