<svg xmlns="http://www.w3.org/2000/svg" height="48" width="48" viewBox="0 0 48 48"><path d="M46,34V8S38,5,24,5,2,8,2,8V34s8-3,22-3S46,34,46,34Z" fill="#badefc"></path> <path d="M46,35a1.01,1.01,0,0,1-.35-.063C45.571,34.907,37.622,32,24,32S2.429,34.907,2.351,34.937A1,1,0,0,1,1,34V8a1,1,0,0,1,.648-.937C1.982,6.938,9.979,4,24,4S46.018,6.938,46.352,7.063A1,1,0,0,1,47,8V34a1,1,0,0,1-1,1ZM24,30a75.229,75.229,0,0,1,21,2.623V8.72C42.844,8.041,35.413,6,24,6S5.156,8.041,3,8.72v23.9A75.229,75.229,0,0,1,24,30Z" fill="#335262"></path> <path d="M7,21a1,1,0,0,1-1-1V12a1,1,0,0,1,2,0v8A1,1,0,0,1,7,21Z" fill="#fff"></path> <circle cx="7" cy="24" r="1" fill="#fff"></circle> <path d="M15,45a1,1,0,0,1-.707-1.707c5.232-5.232.216-10.37,0-10.586-2.32-2.319-5.306-8.108,0-13.414a1,1,0,0,1,1.414,1.414c-5.232,5.232-.216,10.37,0,10.586,2.32,2.319,5.306,8.108,0,13.414A1,1,0,0,1,15,45Z" fill="#43a6dd"></path> <path d="M24,45a1,1,0,0,1-.707-1.707c5.232-5.232.216-10.37,0-10.586-2.32-2.319-5.306-8.108,0-13.414a1,1,0,0,1,1.414,1.414c-5.232,5.232-.216,10.37,0,10.586,2.32,2.319,5.306,8.108,0,13.414A1,1,0,0,1,24,45Z" fill="#43a6dd"></path> <path d="M33,45a1,1,0,0,1-.707-1.707c5.232-5.232.216-10.37,0-10.586-2.32-2.319-5.306-8.108,0-13.414a1,1,0,0,1,1.414,1.414c-5.232,5.232-.216,10.37,0,10.586,2.32,2.319,5.306,8.108,0,13.414A1,1,0,0,1,33,45Z" fill="#43a6dd"></path></svg>