<svg xmlns="http://www.w3.org/2000/svg" height="48" width="48" viewBox="0 0 48 48"><polygon points="12 16 36 16 40 28 8 28 12 16" fill="#e6e6e6"></polygon> <path d="M46,14a.992.992,0,0,1-.413-.09L24,4.1,2.414,13.91a1,1,0,1,1-.828-1.82l22-10a1,1,0,0,1,.828,0l22,10A1,1,0,0,1,46,14Z" fill="#ed69ab"></path> <path d="M3,41v5a1,1,0,0,0,1,1h8a1,1,0,0,0,1-1V41Z" fill="#444"></path> <path d="M35,41v5a1,1,0,0,0,1,1h8a1,1,0,0,0,1-1V41Z" fill="#444"></path> <path d="M44.121,30.707l-3.248-3.248L37.4,17.051A3,3,0,0,0,34.559,15H13.441A3,3,0,0,0,10.6,17.051L7.126,27.459,3.878,30.708A3,3,0,0,0,3,32.828V41H45V32.829A3,3,0,0,0,44.121,30.707ZM12.492,17.684A1,1,0,0,1,13.441,17H34.559a1,1,0,0,1,.949.684L38.613,27H9.387Z" fill="#72c472"></path> <rect x="3" y="39" width="42" height="3" fill="#4da34d"></rect> <circle cx="9" cy="34" r="2" fill="#e6e6e6"></circle> <circle cx="39" cy="34" r="2" fill="#e6e6e6"></circle> <path d="M28,35H20a1,1,0,0,1,0-2h8a1,1,0,0,1,0,2Z" fill="#4da34d"></path></svg>