<svg xmlns="http://www.w3.org/2000/svg" height="48" width="48" viewBox="0 0 48 48"><path d="M24,38c-3.282,0-5-7.043-5-14s1.718-14,5-14,5,7.043,5,14S27.282,38,24,38Z" fill="#efd358"></path> <path d="M24,41C14.4,41,1,34.532,1,24S14.4,7,24,7a1,1,0,0,1,1,1V40A1,1,0,0,1,24,41Z" fill="#335262"></path> <path d="M46,21H36a1,1,0,0,1,0-2H46a1,1,0,0,1,0,2Z" fill="#e86c60"></path> <path d="M44,13H34a1,1,0,0,1,0-2H44a1,1,0,0,1,0,2Z" fill="#e86c60"></path> <path d="M44,37H34a1,1,0,0,1,0-2H44a1,1,0,0,1,0,2Z" fill="#e86c60"></path> <path d="M46,29H36a1,1,0,0,1,0-2H46a1,1,0,0,1,0,2Z" fill="#e86c60"></path></svg>