<svg xmlns="http://www.w3.org/2000/svg" height="48" width="48" style="" viewBox="0 0 48 48"><path d="M24 46C36.1503 46 46 36.1503 46 24C46 11.8497 36.1503 2 24 2C11.8497 2 2 11.8497 2 24C2 36.1503 11.8497 46 24 46Z" fill="url(#nc-ui-6-0_linear_215_142)"></path><path d="M24 12C24.552 12 25 11.552 25 11V7C25 6.448 24.552 6 24 6C23.448 6 23 6.448 23 7V11C23 11.552 23.448 12 24 12Z" fill="#C2C3CD"></path><path d="M36.728 11.272C36.338 10.882 35.704 10.882 35.314 11.272L32.486 14.1C32.096 14.49 32.096 15.124 32.486 15.514C32.876 15.904 33.51 15.904 33.9 15.514L36.728 12.686C37.118 12.296 37.118 11.662 36.728 11.272Z" fill="#C2C3CD"></path><path d="M41 23H37C36.448 23 36 23.448 36 24C36 24.552 36.448 25 37 25H41C41.552 25 42 24.552 42 24C42 23.448 41.552 23 41 23Z" fill="#C2C3CD"></path><path d="M11 23H7C6.448 23 6 23.448 6 24C6 24.552 6.448 25 7 25H11C11.552 25 12 24.552 12 24C12 23.448 11.552 23 11 23Z" fill="#C2C3CD"></path><path d="M24 1C11.318 1 1 11.318 1 24C1 36.682 11.318 47 24 47C36.682 47 47 36.682 47 24C47 11.318 36.682 1 24 1ZM4.587 32C3.569 29.533 3 26.834 3 24C3 12.402 12.402 3 24 3C35.598 3 45 12.402 45 24C45 26.834 44.431 29.533 43.413 32H4.587Z" fill="url(#nc-ui-6-1_linear_215_142)"></path><path d="M12.586 11.1901C12.187 10.9011 11.638 10.9451 11.293 11.2931C10.946 11.6401 10.902 12.1891 11.19 12.5861C12.142 13.9021 20.522 25.4711 21.525 26.4741C22.186 27.1351 23.065 27.4991 24 27.4991C24.935 27.4991 25.814 27.1351 26.475 26.4741C27.136 25.8131 27.5 24.9341 27.5 23.9991C27.5 23.0641 27.136 22.1851 26.475 21.5241C25.471 20.5201 13.902 12.1421 12.586 11.1901Z" fill="url(#nc-ui-6-2_linear_215_142)"></path><defs><linearGradient id="nc-ui-6-0_linear_215_142" x1="24" y1="2" x2="24" y2="46" gradientUnits="userSpaceOnUse"><stop stop-color="#A2A3B4"></stop><stop offset="1" stop-color="#83849B"></stop></linearGradient><linearGradient id="nc-ui-6-1_linear_215_142" x1="24" y1="1" x2="24" y2="47" gradientUnits="userSpaceOnUse"><stop stop-color="#5B5E71"></stop><stop offset="1" stop-color="#393A46"></stop></linearGradient><linearGradient id="nc-ui-6-2_linear_215_142" x1="19.2501" y1="10.9995" x2="19.2501" y2="27.4991" gradientUnits="userSpaceOnUse"><stop stop-color="white"></stop><stop offset="1" stop-color="#E0E0E6"></stop></linearGradient></defs></svg>