<svg xmlns="http://www.w3.org/2000/svg" height="48" width="48" viewBox="0 0 48 48"><circle cx="11" cy="11" r="8" fill="#e6e6e6"></circle><circle cx="37" cy="11" r="8" fill="#e6e6e6"></circle><circle cx="11" cy="37" r="8" fill="#e6e6e6"></circle><circle cx="37" cy="37" r="8" fill="#e6e6e6"></circle><path d="M37,38a.993.993,0,0,1-.633-.226L26.865,30h-5.73l-9.5,7.774a1,1,0,0,1-1.407-1.407L18,26.865v-5.73l-7.774-9.5a1,1,0,0,1,1.407-1.407L21.135,18h5.73l9.5-7.774a1,1,0,0,1,1.407,1.407L30,21.135v5.73l7.774,9.5A1,1,0,0,1,37,38Z" fill="#444"></path><rect x="23" y="22" width="2" height="4" rx="1" fill="#ed7064"></rect></svg>