<svg xmlns="http://www.w3.org/2000/svg" height="48" width="48" viewBox="0 0 48 48"><rect x="40" y="28" width="6" height="2" fill="#b3b3b3"></rect> <rect x="19" y="8" width="2" height="6" fill="#b3b3b3"></rect> <path d="M40,18H33.414l-4.707-4.707A1,1,0,0,0,28,13H12a1,1,0,0,0-.707.293L6.586,18H2a1,1,0,0,0-1,1V35a1,1,0,0,0,1,1H6.586l4.707,4.707A1,1,0,0,0,12,41H40a1,1,0,0,0,1-1V19A1,1,0,0,0,40,18Z" fill="#444"></path> <path d="M46,36a1,1,0,0,1-1-1V23a1,1,0,0,1,2,0V35A1,1,0,0,1,46,36Z" fill="#444"></path> <circle cx="35" cy="34" r="2" fill="#b3b3b3"></circle> <path d="M27,9H13a1,1,0,0,1,0-2H27a1,1,0,0,1,0,2Z" fill="#444"></path> <path d="M28,35H21a1,1,0,0,1,0-2h7a1,1,0,0,1,0,2Z" fill="#b3b3b3"></path></svg>