<svg xmlns="http://www.w3.org/2000/svg" height="48" width="48" viewBox="0 0 48 48"><path d="M21.449,18.075a1,1,0,0,1-.764-.355L9.615,4.572a1,1,0,0,1,.448-1.593l3.473-1.157a1,1,0,0,1,.871.116L31.241,13.164A1,1,0,0,1,31,14.944l-9.237,3.079A.958.958,0,0,1,21.449,18.075Z" fill="#aeaeae"></path><path d="M16,25H6.3a1,1,0,0,1-.886-.536L1.923,17.816a1,1,0,0,1,.421-1.35A.89.89,0,0,1,2.5,16.4l2.255-.736a1,1,0,0,1,.814.086L10.5,18.617,40.735,8.539a4.056,4.056,0,0,1,2.738.069,3.814,3.814,0,0,1,1.765,1.365,4.012,4.012,0,0,1-1.972,6.156l-26,8.667A3.976,3.976,0,0,1,16,25Z" fill="#e3e3e3"></path><path d="M44,46H4a1,1,0,0,1,0-2H44a1,1,0,0,1,0,2Z" fill="#aeaeae"></path><path d="M23.333,39H19.22a1,1,0,0,1-1-1,.972.972,0,0,1,.02-.2L21.66,20.7a1,1,0,0,1,.664-.752L31.4,16.92a1,1,0,0,1,1.24,1.333L24.256,38.385A1,1,0,0,1,23.333,39Z" fill="#aeaeae"></path></svg>