<svg xmlns="http://www.w3.org/2000/svg" height="48" width="48" viewBox="0 0 48 48"><path d="M13.34,11.45l-.224-.272C10.521,8,8.068,5,1,5V2C9.491,2,12.79,6.036,15.439,9.279l.221.271Z" fill="#b3b3b3"></path> <path d="M11.879,17,9.586,14.707a1,1,0,0,1,0-1.414l7.707-7.707a1,1,0,0,1,1.414,0L20.92,7.8Z" fill="#335262"></path> <path d="M42,5H23a1,1,0,0,0-.707.293l-13,13A1,1,0,0,0,9,19V44a2,2,0,0,0,2,2H45a2,2,0,0,0,2-2V10A5,5,0,0,0,42,5Zm-2,9H28a2,2,0,0,1,0-4H40a2,2,0,0,1,0,4Z" fill="#5a7a84"></path></svg>