<svg xmlns="http://www.w3.org/2000/svg" height="48" width="48" viewBox="0 0 48 48"><path d="M2,45H46a1,1,0,0,1,1,1h0a1,1,0,0,1-1,1H2a1,1,0,0,1-1-1H1A1,1,0,0,1,2,45Z" fill="#aeaeae"></path><path d="M4.412,23.939a4.042,4.042,0,0,1-1.325-2.154l-1.41-6.048a1,1,0,0,1,1.151-1.211l2.862.518a1,1,0,0,1,.649.422l3.108,4.578,34.4,6.179a3.834,3.834,0,0,1-1.365,7.546L13.673,28.6a4.016,4.016,0,0,1-1.116-.376l-7.4-3.788A4.046,4.046,0,0,1,4.412,23.939Z" fill="#e3e3e3"></path><circle cx="19.813" cy="33.46" r="1.5" fill="#363636"></circle><circle cx="15.463" cy="32.421" r="1.5" fill="#363636"></circle><path d="M30.707,23.863,18.348,5.038a.993.993,0,0,0-.665-.436L14.3,4.015a1,1,0,0,0-1.119,1.3L18.646,21.7Z" fill="#aeaeae"></path></svg>