<svg xmlns="http://www.w3.org/2000/svg" height="48" width="48" viewBox="0 0 48 48"><path d="M44.305,30.789l-9.662-.74-3.748-7.5a1,1,0,1,0-1.79.894L32.382,30H17a2,2,0,0,1-2-2V24.5a1.5,1.5,0,0,0-3,0v4.463l-8.344.721A4,4,0,0,0,0,33.669V42a1,1,0,0,0,1,1H47a1,1,0,0,0,1-1V34.778A4,4,0,0,0,44.305,30.789Z" fill="#e3e3e3"></path><path d="M32.535,2.763A5.4,5.4,0,0,0,24,3.48a5.4,5.4,0,0,0-8.541-.711,5.754,5.754,0,0,0,.309,7.867l7.517,7.64a1,1,0,0,0,1.414.012l.012-.012,7.519-7.64A5.751,5.751,0,0,0,32.535,2.763Z" fill="#f74b3b"></path><path d="M44.819,41a6.493,6.493,0,0,0-12.638,0H17.819A6.493,6.493,0,0,0,5.181,41H0v1a1,1,0,0,0,1,1H47a1,1,0,0,0,1-1V41Z" fill="#949494"></path><path d="M32.382,30l2.26.049-3.748-7.5a1,1,0,0,0-1.8.88l.007.014Z" fill="#363636"></path><path d="M15,25h0a3,3,0,0,1,3,3v2H17a2,2,0,0,1-2-2V25Z" fill="#363636"></path><path d="M38.5,38A4.5,4.5,0,1,0,43,42.5,4.5,4.5,0,0,0,38.5,38Z" fill="#363636"></path><circle cx="38.5" cy="42.5" r="2.5" fill="#e0e0e0"></circle><path d="M11.5,38A4.5,4.5,0,1,0,16,42.5,4.5,4.5,0,0,0,11.5,38Z" fill="#363636"></path><circle cx="11.5" cy="42.5" r="2.5" fill="#e3e3e3"></circle></svg>