<svg xmlns="http://www.w3.org/2000/svg" height="48" width="48" viewBox="0 0 48 48"><path d="M30.93,17.012a1,1,0,0,1-.867-.5,7,7,0,0,0-12.125,0,1,1,0,1,1-1.732-1,9,9,0,0,1,15.59,0,1,1,0,0,1-.865,1.5Z" fill="#9edb9e"></path> <path d="M8,12.758a.986.986,0,0,1-.457-.111A1,1,0,0,1,7.111,11.3a19,19,0,0,1,33.777,0,1,1,0,0,1-1.777.916,17,17,0,0,0-30.223,0A1,1,0,0,1,8,12.758Z" fill="#72c472"></path> <path d="M24,47C11.562,47,3.47,35.088,3.132,34.5a1,1,0,0,1,0-.989C3.466,32.915,11.5,21,24,21c12.437,0,20.53,11.912,20.868,12.5a1,1,0,0,1,0,1C44.525,35.091,36.373,47,24,47Z" fill="#e6e6e6"></path> <circle cx="24" cy="34" r="11" fill="#43a6dd"></circle> <circle cx="24" cy="34" r="6" fill="#444"></circle> <circle cx="19.5" cy="30.5" r="2.5" fill="#fff"></circle></svg>