<svg xmlns="http://www.w3.org/2000/svg" height="48" width="48" viewBox="0 0 48 48"><path d="M33.453,18.355a8.327,8.327,0,0,1-2.93,6.855q-2.93,2.383-8.34,2.383H19.215V38.277H14.547V9.723H22.77q5.351,0,8.018,2.188A7.85,7.85,0,0,1,33.453,18.355ZM19.215,23.668H21.7q3.592,0,5.273-1.25a4.546,4.546,0,0,0,1.68-3.906,4.433,4.433,0,0,0-1.5-3.672,7.426,7.426,0,0,0-4.687-1.211H19.215Z" fill="#fff"></path><path d="M24.2,14.557H21.25V23.7h2.263a8.094,8.094,0,0,0,4.8-1.139A4.141,4.141,0,0,0,29.844,19a4.034,4.034,0,0,0-1.366-3.344A6.76,6.76,0,0,0,24.2,14.557Z" fill="#444"></path><path d="M40,3H8A5,5,0,0,0,3,8V40a5,5,0,0,0,5,5H40a5,5,0,0,0,5-5V8A5,5,0,0,0,40,3Z" fill="#3aace9"></path><path d="M25.717,12H18a1,1,0,0,0-1,1V35a1,1,0,0,0,1,1h2a1,1,0,0,0,1-1V28h5a8.009,8.009,0,0,0,7.982-8.548A8.19,8.19,0,0,0,25.717,12ZM26,24H21V16h5a4,4,0,0,1,0,8Z" fill="#fff"></path></svg>