<svg xmlns="http://www.w3.org/2000/svg" height="48" width="48" viewBox="0 0 48 48"><path d="M32.327,17,22.287,4.282A6,6,0,0,0,17.577,2H14a1,1,0,0,0-.885,1.466L20.238,17Z" fill="#c8c8c8"></path><path d="M42,17H9.308L5.884,10.532A1,1,0,0,0,5,10H1a1,1,0,0,0-.959,1.282L3.985,24.693A6.033,6.033,0,0,0,9.741,29h10.5L13.115,42.534A1,1,0,0,0,14,44h4.062a5,5,0,0,0,3.924-1.9L32.327,29H42a6,6,0,0,0,0-12Z" fill="#e6e6e6"></path><circle cx="15.5" cy="22.5" r="1.5" fill="#444"></circle><circle cx="22.5" cy="22.5" r="1.5" fill="#444"></circle><circle cx="29.5" cy="22.5" r="1.5" fill="#444"></circle><circle cx="36.5" cy="22.5" r="1.5" fill="#444"></circle></svg>