<svg xmlns="http://www.w3.org/2000/svg" height="48" width="48" viewBox="0 0 48 48"><path d="M24,1A23,23,0,1,0,47,24,23.026,23.026,0,0,0,24,1Zm0,32a9,9,0,1,1,9-9A9.01,9.01,0,0,1,24,33Z" fill="#e6e6e6"></path> <path d="M24,10a2,2,0,1,1,2-2A2,2,0,0,1,24,10Zm0-2V8Z" fill="#b3b3b3"></path> <path d="M33.9,14.1a2,2,0,1,1,2.828,0A2,2,0,0,1,33.9,14.1Zm1.416-1.416h0Z" fill="#b3b3b3"></path> <path d="M38,24a2,2,0,1,1,2,2A2,2,0,0,1,38,24Zm2,0h0Z" fill="#b3b3b3"></path> <path d="M33.9,33.9a2,2,0,1,1,0,2.828A2,2,0,0,1,33.9,33.9Zm1.416,1.416h0Z" fill="#b3b3b3"></path> <path d="M24,38a2,2,0,1,1-2,2A2,2,0,0,1,24,38Zm0,2v0Z" fill="#b3b3b3"></path> <path d="M14.1,33.9a2,2,0,1,1-2.828,0A2,2,0,0,1,14.1,33.9Zm-1.416,1.416h0Z" fill="#b3b3b3"></path> <path d="M10,24a2,2,0,1,1-2-2A2,2,0,0,1,10,24ZM8,24H8Z" fill="#b3b3b3"></path> <path d="M14.1,14.1a2,2,0,1,1,0-2.828A2,2,0,0,1,14.1,14.1Zm-1.416-1.416h0Z" fill="#b3b3b3"></path></svg>