<svg xmlns="http://www.w3.org/2000/svg" height="48" width="48" viewBox="0 0 48 48"><path d="M24,16c4.007,0,7-4.224,7-8A7,7,0,0,0,17,8C17,11.776,19.993,16,24,16Z" fill="#eebc99"></path> <path d="M33.843,19.887A27.248,27.248,0,0,0,24,18a27.248,27.248,0,0,0-9.843,1.887A4.962,4.962,0,0,0,11,24.537V46a1,1,0,0,0,1,1H36a1,1,0,0,0,1-1V24.537A4.962,4.962,0,0,0,33.843,19.887Z" fill="#43a6dd"></path> <polyline points="39 16 9 42 41 42" fill="none" stroke="#444" stroke-linecap="round" stroke-linejoin="round" stroke-width="2"></polyline></svg>