<svg xmlns="http://www.w3.org/2000/svg" height="48" width="48" viewBox="0 0 48 48"><rect x="19" y="10" width="2" height="5" fill="#141414"></rect> <rect x="27" y="10" width="2" height="5" fill="#141414"></rect> <path d="M36.332,17.482A4.01,4.01,0,0,0,32.366,14H15.634a4.01,4.01,0,0,0-3.966,3.483L9.009,37.871A1,1,0,0,0,10,39H38a1,1,0,0,0,.991-1.129Z" fill="#444"></path> <path d="M30,1H18a3,3,0,0,0-3,3v6a1,1,0,0,0,1,1H32a1,1,0,0,0,1-1V4A3,3,0,0,0,30,1Z" fill="#636363"></path> <path d="M40,37H8a5.006,5.006,0,0,0-5,5v4a1,1,0,0,0,1,1H44a1,1,0,0,0,1-1V42A5.006,5.006,0,0,0,40,37Z" fill="#636363"></path> <path d="M31,32H17a1,1,0,0,1-.992-1.124l1-8A1,1,0,0,1,18,22H30a1,1,0,0,1,.992.876l1,8A1,1,0,0,1,31,32ZM18.133,30H29.867l-.75-6H18.883Z" fill="#636363"></path></svg>