<svg xmlns="http://www.w3.org/2000/svg" height="48" width="48" viewBox="0 0 48 48"><path d="M40,3H8A5.006,5.006,0,0,0,3,8V39a1,1,0,0,0,1,1H44a1,1,0,0,0,1-1V8A5.006,5.006,0,0,0,40,3Zm3,24a1,1,0,0,1-1,1H6a1,1,0,0,1-1-1V12a1,1,0,0,1,1-1H42a1,1,0,0,1,1,1Z" fill="#f74b3b"></path><rect x="5" y="11" width="38" height="17" rx="1" fill="#444"></rect><rect x="5" y="11" width="38" height="17" rx="1" fill="#c2eff4"></rect><path d="M6,40v4a1,1,0,0,0,1,1h7a1,1,0,0,0,1-1V40Z" fill="#4c4c4c"></path><path d="M33,40v4a1,1,0,0,0,1,1h7a1,1,0,0,0,1-1V40Z" fill="#4c4c4c"></path><path d="M18,6H30a1,1,0,0,1,0,2H18a1,1,0,0,1,0-2Z" fill="#4c4c4c"></path><path d="M23,29a1,1,0,0,1-.707-1.707l7-7a1,1,0,0,1,1.414,1.414l-7,7A1,1,0,0,1,23,29Z" fill="#4c4c4c"></path><rect x="6" y="32" width="7" height="3" rx="1" fill="#ffd764"></rect><rect x="35" y="32" width="7" height="3" rx="1" fill="#ffd764"></rect></svg>