<svg xmlns="http://www.w3.org/2000/svg" height="48" width="48" style="" viewBox="0 0 48 48"><path d="M24 1C11.297 1 1 11.297 1 24C1 36.703 11.297 47 24 47C36.703 47 47 36.703 47 24C47 11.297 36.703 1 24 1Z" fill="url(#nc-ui-6-0_linear_215_123)"></path><path d="M41 25C40.448 25 40 24.553 40 24C40 15.178 32.822 8 24 8C15.178 8 8 15.178 8 24C8 24.553 7.552 25 7 25C6.448 25 6 24.553 6 24C6 14.075 14.075 6 24 6C33.925 6 42 14.075 42 24C42 24.553 41.552 25 41 25Z" fill="url(#nc-ui-6-1_linear_215_123)"></path><path d="M7 25C6.448 25 6 24.553 6 24C6 19.203 7.865 14.69 11.25 11.294C11.639 10.902 12.272 10.902 12.664 11.292C13.055 11.682 13.056 12.314 12.666 12.706C9.657 15.725 7.999 19.736 7.999 24C7.999 24.553 7.552 25 7 25Z" fill="url(#nc-ui-6-2_linear_215_123)"></path><path d="M26.118 26.1211C24.946 27.2931 23.047 27.2931 21.875 26.1211C21.075 25.3211 11.323 13.0211 10.213 11.6211C9.87701 11.1831 9.95901 10.5551 10.397 10.2191C10.757 9.94209 11.259 9.94309 11.618 10.2211C13.018 11.3311 25.318 21.0831 26.118 21.8841C27.286 23.0551 27.286 24.9501 26.118 26.1211Z" fill="url(#nc-ui-6-3_linear_215_123)"></path><defs><linearGradient id="nc-ui-6-0_linear_215_123" x1="24" y1="1" x2="24" y2="47" gradientUnits="userSpaceOnUse"><stop stop-color="#5B5E71"></stop><stop offset="1" stop-color="#393A46"></stop></linearGradient><linearGradient id="nc-ui-6-1_linear_215_123" x1="24" y1="6" x2="24" y2="25" gradientUnits="userSpaceOnUse"><stop stop-color="#A2A3B4"></stop><stop offset="1" stop-color="#83849B"></stop></linearGradient><linearGradient id="nc-ui-6-2_linear_215_123" x1="9.47894" y1="10.9998" x2="9.47894" y2="25" gradientUnits="userSpaceOnUse"><stop stop-color="#FF9EA8"></stop><stop offset="1" stop-color="#FF666D"></stop></linearGradient><linearGradient id="nc-ui-6-3_linear_215_123" x1="18.5001" y1="10.012" x2="18.5001" y2="27.0001" gradientUnits="userSpaceOnUse"><stop stop-color="white"></stop><stop offset="1" stop-color="#E0E0E6"></stop></linearGradient></defs></svg>