<svg xmlns="http://www.w3.org/2000/svg" height="48" width="48" viewBox="0 0 48 48"><path d="M46.707,14.6l-12.3-12.3A1,1,0,0,0,33.7,2H16.3a1,1,0,0,0-.707.293L3.293,14.6A1,1,0,0,0,3,15.3V32.7a1,1,0,0,0,.293.707l12.3,12.3A1,1,0,0,0,16.3,46H33.7a1,1,0,0,0,.707-.293l12.3-12.3A1,1,0,0,0,47,32.7V15.3A1,1,0,0,0,46.707,14.6Z" fill="#f74b3b"></path><path d="M36,29a8,8,0,0,1-8,8H22.743a8,8,0,0,1-7.019-4.162L11.2,24.571l.006,0a1.733,1.733,0,0,1-.21-.816,1.745,1.745,0,0,1,3.108-1.1l.006,0L18,26.781V12.5a1.5,1.5,0,0,1,3,0V21a1,1,0,0,0,2,0V11.5a1.5,1.5,0,0,1,3,0V21a1,1,0,0,0,2,0V12.5a1.5,1.5,0,0,1,3,0V22a1,1,0,0,0,2,0V16a1.5,1.5,0,0,1,3,0Z" fill="#fff"></path></svg>