<svg xmlns="http://www.w3.org/2000/svg" height="48" width="48" viewBox="0 0 48 48"><path d="M33.263,13.51A3,3,0,0,0,30.3,11H26V8a3,3,0,0,1,3-3,1,1,0,0,0,0-2,5.006,5.006,0,0,0-5,5v3H19.7a3,3,0,0,0-2.959,2.51L15,24H35Z" fill="#363636"></path><path d="M38,20,22,20A41.639,41.639,0,0,0,8.789,21.96L6.874,18.515A1,1,0,0,0,6,18H4a1,1,0,0,0-1,1v6.127A5.34,5.34,0,0,0,1,29a4.966,4.966,0,0,0,2,3.633V39a1,1,0,0,0,1,1H6a1,1,0,0,0,.879-.522l2-3.683A40.1,40.1,0,0,0,21.992,38H22l16,0a9,9,0,0,0,0-18Z" fill="#363636"></path><path d="M47,29a9.01,9.01,0,0,0-9-9L22,20A41.639,41.639,0,0,0,8.789,21.96L6.874,18.515A1,1,0,0,0,6,18H4a1,1,0,0,0-1,1v6.127A5.34,5.34,0,0,0,1,29a3.544,3.544,0,0,0,.15,1H46.941A8.935,8.935,0,0,0,47,29Z" fill="#4c4c4c"></path><circle cx="25" cy="29" r="4" fill="#636363"></circle><circle cx="35" cy="29" r="4" fill="#636363"></circle><circle cx="15" cy="29" r="4" fill="#636363"></circle><circle cx="25" cy="29" r="2" fill="#f7bf26"></circle><circle cx="35" cy="29" r="2" fill="#f7bf26"></circle><circle cx="15" cy="29" r="2" fill="#f7bf26"></circle><path d="M29,3a5.006,5.006,0,0,0-5,5v3h2V8a3,3,0,0,1,3-3,1,1,0,0,0,0-2Z" fill="#4c4c4c"></path><path d="M8.789,21.961,6.874,18.515A1,1,0,0,0,6,18H4a1,1,0,0,0-1,1v6.128A16.482,16.482,0,0,1,8.789,21.961Z" fill="#636363"></path></svg>