<svg xmlns="http://www.w3.org/2000/svg" height="48" width="48" viewBox="0 0 48 48"><path d="M9.582,36.106a4.04,4.04,0,0,1-2.4-.8L2.215,31.581a1,1,0,0,1,.1-1.668l2.526-1.442a1,1,0,0,1,.768-.094l5.324,1.509L41.26,12.507a3.834,3.834,0,1,1,3.949,6.573c-.049.03-.1.058-.149.085L19.673,33.724a3.988,3.988,0,0,1-1.1.429l-8.1,1.853A4.043,4.043,0,0,1,9.582,36.106Z" fill="#e3e3e3"></path><path d="M2,45H46a1,1,0,0,1,1,1h0a1,1,0,0,1-1,1H2a1,1,0,0,1-1-1H1A1,1,0,0,1,2,45Z" fill="#aeaeae"></path><circle cx="27.5" cy="33.5" r="1.5" fill="#363636"></circle><circle cx="23.5" cy="35.5" r="1.5" fill="#363636"></circle><path d="M29.676,19.145,8.108,12.669a1,1,0,0,0-.79.094l-2.97,1.726a1,1,0,0,0-.363,1.367,1.014,1.014,0,0,0,.342.35l14.717,9.033Z" fill="#aeaeae"></path></svg>