<svg xmlns="http://www.w3.org/2000/svg" height="48" width="48" style="" viewBox="0 0 48 48"> <path d="M34 23C33.447 23 33 22.553 33 22V16C33 14.346 34.346 13 36 13H38C38.553 13 39 13.447 39 14C39 14.553 38.553 15 38 15H36C35.448 15 35 15.448 35 16V22C35 22.553 34.553 23 34 23Z" fill="url(#nc-tractor-0_linear_307_243)"></path> <path fill-rule="evenodd" clip-rule="evenodd" d="M11 7H8C7.447 7 7 6.553 7 6C7 5.447 7.447 5 8 5H12H24C24.459 5 24.858 5.312 24.97 5.758L28.7805 21H39C40.105 21 41 21.895 41 23V36C41 36.552 40.552 37 40 37H12C11.448 37 11 36.552 11 36V22V7Z" fill="url(#nc-tractor-1_linear_307_243)"></path> <path d="M12 43C5.935 43 1 38.065 1 32C1 25.935 5.935 21 12 21C18.065 21 23 25.935 23 32C23 38.065 18.065 43 12 43Z" fill="url(#nc-tractor-2_linear_307_243)"></path> <path d="M12 41C7.038 41 3 36.962 3 32C3 27.038 7.038 23 12 23C16.962 23 21 27.038 21 32C21 36.962 16.962 41 12 41Z" fill="url(#nc-tractor-3_linear_307_243)"></path> <path d="M40 43C36.141 43 33 39.859 33 36C33 32.141 36.141 29 40 29C43.859 29 47 32.141 47 36C47 39.859 43.859 43 40 43Z" fill="url(#nc-tractor-4_linear_307_243)"></path> <path d="M40 41C42.7614 41 45 38.7614 45 36C45 33.2386 42.7614 31 40 31C37.2386 31 35 33.2386 35 36C35 38.7614 37.2386 41 40 41Z" fill="url(#nc-tractor-5_linear_307_243)"></path> <path d="M20.642 21H26.719L23.219 7H13V18.05C15.875 18.254 18.507 19.32 20.642 21Z" fill="url(#nc-tractor-6_linear_307_243)"></path> <defs> <linearGradient id="nc-tractor-0_linear_307_243" x1="36" y1="13" x2="36" y2="23" gradientUnits="userSpaceOnUse"> <stop stop-color="#F6B828"></stop> <stop offset="1" stop-color="#C88509"></stop> </linearGradient> <linearGradient id="nc-tractor-1_linear_307_243" x1="24" y1="5" x2="24" y2="37" gradientUnits="userSpaceOnUse"> <stop stop-color="#FFD36E"></stop> <stop offset="1" stop-color="#F6B828"></stop> </linearGradient> <linearGradient id="nc-tractor-2_linear_307_243" x1="12" y1="21" x2="12" y2="43" gradientUnits="userSpaceOnUse"> <stop stop-color="#5B5E71"></stop> <stop offset="1" stop-color="#393A46"></stop> </linearGradient> <linearGradient id="nc-tractor-3_linear_307_243" x1="12" y1="23" x2="12" y2="41" gradientUnits="userSpaceOnUse"> <stop stop-color="#A2A3B4"></stop> <stop offset="1" stop-color="#83849B"></stop> </linearGradient> <linearGradient id="nc-tractor-4_linear_307_243" x1="40" y1="29" x2="40" y2="43" gradientUnits="userSpaceOnUse"> <stop stop-color="#5B5E71"></stop> <stop offset="1" stop-color="#393A46"></stop> </linearGradient> <linearGradient id="nc-tractor-5_linear_307_243" x1="40" y1="31" x2="40" y2="41" gradientUnits="userSpaceOnUse"> <stop stop-color="#A2A3B4"></stop> <stop offset="1" stop-color="#83849B"></stop> </linearGradient> <linearGradient id="nc-tractor-6_linear_307_243" x1="19.8595" y1="7" x2="19.8595" y2="21" gradientUnits="userSpaceOnUse"> <stop stop-color="white"></stop> <stop offset="1" stop-color="#FFF0CC"></stop> </linearGradient> </defs> </svg>