<svg xmlns="http://www.w3.org/2000/svg" height="48" width="48" viewBox="0 0 48 48"><circle cx="28" cy="37" r="6" fill="#e6e6e6"></circle> <polygon points="47 4 26 4 18.001 19 47 19 47 4" fill="#badefc"></polygon> <path d="M18,19a1,1,0,0,1-.814-.419L7.485,5H2A1,1,0,0,1,2,3H8a1,1,0,0,1,.813.419l10,14A1,1,0,0,1,18,19Z" fill="#458bc4"></path> <path d="M28,29a8,8,0,1,0,8,8A8.009,8.009,0,0,0,28,29Zm0,12a4,4,0,1,1,4-4A4,4,0,0,1,28,41Z" fill="#444"></path> <path d="M27.742,5H47V3H27.741a4,4,0,0,0-3.472,2.015L17.42,17H3a2,2,0,0,0-2,2V35a2,2,0,0,0,2,2H18a10,10,0,0,1,20,0h9V17H19.724L26,6.008A2,2,0,0,1,27.742,5Z" fill="#43a6dd"></path> <path d="M1,26H4a1,1,0,0,1,1,1v5a1,1,0,0,1-1,1H1a0,0,0,0,1,0,0V26A0,0,0,0,1,1,26Z" fill="#efd358"></path></svg>