<svg xmlns="http://www.w3.org/2000/svg" height="48" width="48" viewBox="0 0 48 48"><path d="M27.453,25.444a1,1,0,0,0,1.248-.269,14.242,14.242,0,0,0,3.064-8.895A14.911,14.911,0,0,0,23.445,3.1,1,1,0,0,0,22,4V22a1,1,0,0,0,.538.887Z" fill="#b3b3b3"></path> <path d="M17.7,24.476a14.216,14.216,0,0,0-9.236,1.793,14.91,14.91,0,0,0-7.25,13.793,1,1,0,0,0,1.5.8l15.588-9a1,1,0,0,0,.5-.91l-.242-5.535A1,1,0,0,0,17.7,24.476Z" fill="#b3b3b3"></path> <path d="M44.284,39.134l-15.588-9a1.006,1.006,0,0,0-1.037.022l-4.672,2.978a1,1,0,0,0-.392,1.215,14.242,14.242,0,0,0,6.171,7.1,14.408,14.408,0,0,0,7.208,1.9,15.162,15.162,0,0,0,8.362-2.52,1,1,0,0,0-.053-1.7Z" fill="#b3b3b3"></path> <circle cx="23" cy="28" r="7" fill="#e6e6e6"></circle></svg>