<svg xmlns="http://www.w3.org/2000/svg" height="48" width="48" viewBox="0 0 48 48"><circle cx="26" cy="6" r="5" fill="#5a7a84"></circle> <path d="M21.45,18.561l.983-5.238-9.459,4.75a2,2,0,0,0-.964,1.05L9.967,24.26a1.494,1.494,0,0,0,2.775,1.107l1.912-4.78Z" fill="#335262"></path> <path d="M31.2,32.4l-7.638-5.744-1.708,5.832L28,36v8a2,2,0,0,0,4,0V34A2,2,0,0,0,31.2,32.4Z" fill="#335262"></path> <path d="M39.083,19.083a1.5,1.5,0,0,0-1.95-.836L32.365,20.12,27,14.375a3.969,3.969,0,0,0-6.947,2.136S15,44.4,15,45a2,2,0,0,0,3.92.53l8.185-25.2,3.848,2.63a2,2,0,0,0,1.871.206l5.423-2.134A1.5,1.5,0,0,0,39.083,19.083Z" fill="#5a7a84"></path></svg>