<svg xmlns="http://www.w3.org/2000/svg" height="48" width="48" viewBox="0 0 48 48"><path d="M46,46V20s-8-3-22-3S2,20,2,20V46s8-3,22-3S46,46,46,46Z" fill="#badefc"></path> <path d="M46,47a1.01,1.01,0,0,1-.35-.063C45.571,46.907,37.622,44,24,44S2.429,46.907,2.351,46.937A1,1,0,0,1,1,46V20a1,1,0,0,1,.648-.937C1.982,18.938,9.979,16,24,16s22.018,2.938,22.352,3.063A1,1,0,0,1,47,20V46a1,1,0,0,1-1,1ZM24,42a75.229,75.229,0,0,1,21,2.623V20.72C42.844,20.041,35.413,18,24,18S5.156,20.041,3,20.72v23.9A75.229,75.229,0,0,1,24,42Z" fill="#335262"></path> <path d="M30,2a7,7,0,0,0-6,3.413A6.993,6.993,0,0,0,11,9a1,1,0,0,0,2,0A5,5,0,0,1,23,9V29a1,1,0,0,0,2,0V9A5,5,0,0,1,35,9a1,1,0,0,0,2,0A7.008,7.008,0,0,0,30,2Z" fill="#43a6dd"></path> <path d="M7,33a1,1,0,0,1-1-1V24a1,1,0,0,1,2,0v8A1,1,0,0,1,7,33Z" fill="#fff"></path> <circle cx="7" cy="36" r="1" fill="#fff"></circle></svg>