<svg xmlns="http://www.w3.org/2000/svg" height="48" width="48" viewBox="0 0 48 48"><polygon points="27 20 21 20 22 5 26 5 27 20" fill="#b3b3b3"></polygon> <polygon points="21.123 19.911 19.269 25.617 5.312 20.031 6.548 16.227 21.123 19.911" fill="#b3b3b3"></polygon> <polygon points="19.222 25.473 24.076 28.999 14.45 40.547 11.214 38.196 19.222 25.473" fill="#b3b3b3"></polygon> <polygon points="23.924 28.999 28.778 25.473 36.786 38.196 33.55 40.547 23.924 28.999" fill="#b3b3b3"></polygon> <polygon points="28.731 25.617 26.877 19.911 41.452 16.227 42.688 20.031 28.731 25.617" fill="#b3b3b3"></polygon> <path d="M24,1A23,23,0,1,0,47,24,23.026,23.026,0,0,0,24,1Zm0,40A17,17,0,1,1,41,24,17.019,17.019,0,0,1,24,41Z" fill="#444"></path> <path d="M24,31a7,7,0,1,1,7-7A7.008,7.008,0,0,1,24,31Z" fill="#e6e6e6"></path></svg>