<svg xmlns="http://www.w3.org/2000/svg" height="24" width="24" viewBox="0 0 24 24"><path fill="none" stroke="#61616b" stroke-width="2" d="M1,23l0-11c0-1.1,0.9-2,2-2 h0c1.1,0,2,0.9,2,2v8"></path> <path fill="none" stroke="#61616b" stroke-width="2" d="M13,20l0-8c0-1.1-0.9-2-2-2 h0c-1.1,0-2,0.9-2,2v8"></path> <path fill="none" stroke="#61616b" stroke-width="2" d="M17,23l0-9c0-1.1-0.9-2-2-2 h0c-1.1,0-2,0.9-2,2v6"></path> <path display="none" fill="none" stroke="#61616b" stroke-width="2" d="M19,10 c0-2.8-2.2-5-5-5"></path> <path fill="none" stroke="#61616b" stroke-width="2" d="M5,20V10c0-1.1,0.9-2,2-2h0 c1.1,0,2,0.9,2,2v10"></path> <path data-color="color-2" fill="none" stroke="#61616b" stroke-width="2" d="M19,10 c0-2.8-2.2-5-5-5"></path> <path data-color="color-2" fill="none" stroke="#61616b" stroke-width="2" d="M23,10 c0-5-4-9-9-9"></path></svg>