<svg xmlns="http://www.w3.org/2000/svg" height="24" width="24" viewBox="0 0 24 24"><path d="M17,2a3,3,0,0,0-3,3V8a3,3,0,0,0,3,3,3.916,3.916,0,0,0,2-.565V22h4V11C23,6.029,20.314,2,17,2Z" fill="none" stroke="#61616b" stroke-width="2"></path><path d="M7,2a3,3,0,0,1,3,3V8a3,3,0,0,1-3,3,3.916,3.916,0,0,1-2-.565V22H1V11C1,6.029,3.686,2,7,2Z" fill="none" stroke="#61616b" stroke-width="2"></path><line x1="7" y1="7" x2="7" y2="6" fill="none" stroke="#61616b" stroke-width="2" data-color="color-2"></line><line x1="17" y1="7" x2="17" y2="6" fill="none" stroke="#61616b" stroke-width="2" data-color="color-2"></line></svg>