<svg xmlns="http://www.w3.org/2000/svg" height="24" width="24" viewBox="0 0 24 24"><rect x="7" y="7" width="10" height="10" fill="none" stroke="#61616b" stroke-width="2" data-color="color-2"></rect><path d="M19.723,2H22V4.277a1.984,1.984,0,0,0,0,3.446v2.554a1.984,1.984,0,0,0,0,3.446v2.554a1.984,1.984,0,0,0,0,3.446V22H19.723a1.984,1.984,0,0,0-3.446,0H13.723a1.984,1.984,0,0,0-3.446,0H7.723a1.984,1.984,0,0,0-3.446,0H2V19.723a1.984,1.984,0,0,0,0-3.446V13.723a1.984,1.984,0,0,0,0-3.446V7.723A1.984,1.984,0,0,0,2,4.277V2H4.277A1.984,1.984,0,0,0,7.723,2h2.554a1.984,1.984,0,0,0,3.446,0h2.554a1.984,1.984,0,0,0,3.446,0Z" fill="none" stroke="#61616b" stroke-width="2"></path></svg>