<svg xmlns="http://www.w3.org/2000/svg" height="24" width="24" viewBox="0 0 24 24"><path d="M14,8a2.489,2.489,0,0,0-2,1.014,2.5,2.5,0,1,0-3.768,3.254L12,16.036l3.768-3.768A2.5,2.5,0,0,0,14,8Z" fill="#61616b" data-color="color-2" data-stroke="none" stroke="none"></path><rect x="2" y="2" width="20" height="20" fill="none" stroke="#61616b" stroke-width="2"></rect><line x1="2" y1="6" x2="22" y2="6" fill="none" stroke="#61616b" stroke-width="2" data-cap="butt"></line><line x1="12" y1="2" x2="12" y2="6" fill="none" stroke="#61616b" stroke-width="2" data-cap="butt"></line><line x1="7" y1="2" x2="7" y2="6" fill="none" stroke="#61616b" stroke-width="2" data-cap="butt"></line><line x1="17" y1="2" x2="17" y2="6" fill="none" stroke="#61616b" stroke-width="2" data-cap="butt"></line><line x1="2" y1="18" x2="22" y2="18" fill="none" stroke="#61616b" stroke-width="2" data-cap="butt"></line><line x1="12" y1="22" x2="12" y2="18" fill="none" stroke="#61616b" stroke-width="2" data-cap="butt"></line><line x1="7" y1="22" x2="7" y2="18" fill="none" stroke="#61616b" stroke-width="2" data-cap="butt"></line><line x1="17" y1="22" x2="17" y2="18" fill="none" stroke="#61616b" stroke-width="2" data-cap="butt"></line></svg>