<svg xmlns="http://www.w3.org/2000/svg" height="24" width="24" viewBox="0 0 24 24"><path d="M7,10V6a4.951,4.951,0,0,1,5-5h0a4.951,4.951,0,0,1,5,5" fill="none" stroke="#61616b" stroke-width="2" data-cap="butt"></path><line x1="7" y1="23" x2="17" y2="23" fill="none" stroke="#61616b" stroke-width="2"></line><line x1="12" y1="19" x2="12" y2="23" fill="none" stroke="#61616b" stroke-width="2" data-cap="butt"></line><path d="M17,7V6A5,5,0,0,0,7,6v4a4.931,4.931,0,0,0,2.615,4.385" fill="none" stroke="#61616b" stroke-width="2" data-cap="butt"></path><path d="M13.484,14.758a4.881,4.881,0,0,0,3.274-3.274" fill="none" stroke="#61616b" stroke-width="2" data-cap="butt"></path><path d="M3,10a8.956,8.956,0,0,0,3.711,7.289" fill="none" stroke="#61616b" stroke-width="2" data-cap="butt"></path><path d="M9.577,18.665A9.076,9.076,0,0,0,12,19a8.963,8.963,0,0,0,9-9" fill="none" stroke="#61616b" stroke-width="2" data-cap="butt"></path><line x1="3" y1="21" x2="21" y2="3" fill="none" stroke="#61616b" stroke-width="2" data-color="color-2"></line></svg>