<svg xmlns="http://www.w3.org/2000/svg" height="24" width="24" viewBox="0 0 24 24"><path d="M5.343,13.182V15H3.993V10H5.63q2.037,0,2.037,1.476a1.476,1.476,0,0,1-.847,1.344L8.276,15H6.745l-1.06-1.818Zm0-1.015H5.6q.708,0,.708-.626,0-.516-.694-.516H5.343Z" fill="#61616b" data-color="color-2" data-stroke="none" stroke="none"></path><path d="M12.076,15l-.246-.937H10.207L9.954,15H8.47L10.1,9.982h1.8L13.553,15Zm-.526-2.044-.216-.82q-.075-.273-.182-.708t-.142-.622c-.021.116-.061.308-.122.574s-.194.792-.4,1.576Z" fill="#61616b" data-color="color-2" data-stroke="none" stroke="none"></path><path d="M19.21,15h-1.6l-.479-2.177c-.023-.092-.058-.273-.107-.544s-.085-.5-.108-.68q-.027.222-.089.552c-.041.22-.081.422-.122.607s-.2.932-.5,2.242h-1.6l-1.237-5h1.3l.544,2.5q.185.831.253,1.323.043-.348.158-.947t.214-.991L16.291,10h1.251l.427,1.89q.11.454.222,1.049t.151.889q.045-.38.242-1.316L19.138,10h1.3Z" fill="#61616b" data-color="color-2" data-stroke="none" stroke="none"></path><rect x="1" y="5" width="22" height="15" fill="none" stroke="#61616b" stroke-width="2" data-cap="butt"></rect></svg>