<svg xmlns="http://www.w3.org/2000/svg" height="24" width="24" viewBox="0 0 24 24"><polyline points="11 16 14 19 11 22" fill="none" stroke="#61616b" stroke-width="2" data-color="color-2"></polyline><path d="M5,11.914C2.557,12.648,1,13.758,1,15c0,2.209,4.925,4,11,4,.661,0,1.306-.024,1.935-.065" fill="none" stroke="#61616b" stroke-width="2" data-cap="butt" data-color="color-2"></path><path d="M18.8,18.141C21.353,17.408,23,16.275,23,15c0-1.242-1.557-2.352-4-3.086" fill="none" stroke="#61616b" stroke-width="2" data-color="color-2"></path><path d="M18,13H6a1,1,0,0,1-1-1V4A1,1,0,0,1,6,3H9l1-2h4l1,2h3a1,1,0,0,1,1,1v8A1,1,0,0,1,18,13Z" fill="none" stroke="#61616b" stroke-width="2"></path><circle cx="12" cy="8" r="2" fill="none" stroke="#61616b" stroke-width="2"></circle></svg>