<svg xmlns="http://www.w3.org/2000/svg" height="24" width="24" viewBox="0 0 24 24"><rect x="17.728" y="2.272" width="4" height="4" stroke-width="2" fill="none" stroke="#61616b" transform="translate(2.757 15.201) rotate(-45)"></rect><line x1="18.314" y1="5.686" x2="10.5" y2="13.5" fill="none" stroke="#61616b" stroke-width="2"></line><line x1="5.586" y1="18.414" x2="2.944" y2="21.056" fill="none" stroke="#61616b" stroke-width="2" data-cap="butt"></line><line x1="2" y1="2" x2="6" y2="6" fill="none" stroke="#61616b" stroke-width="2" data-color="color-2"></line><line x1="18" y1="18" x2="22" y2="22" fill="none" stroke="#61616b" stroke-width="2" data-color="color-2"></line><path d="M11.783,20A2.5,2.5,0,0,1,14.9,16.123a4.978,4.978,0,0,0,.423-.37c1.953-1.953,1.6-4.765-.353-6.718S10.2,6.729,8.247,8.682a4.978,4.978,0,0,0-.37.423,2.5,2.5,0,0,1-3.872,3.112,2.261,2.261,0,0,1-.193-.236,6.331,6.331,0,0,0-1.221.943C.247,15.267.6,18.713,2.944,21.056s5.789,2.7,8.132.353a6.331,6.331,0,0,0,.943-1.221A2.261,2.261,0,0,1,11.783,20Z" fill="none" stroke="#61616b" stroke-width="2"></path></svg>