<svg xmlns="http://www.w3.org/2000/svg" height="24" width="24" viewBox="0 0 24 24"><circle data-color="color-2" cx="6.5" cy="21.5" r="2.5" fill="#61616b"></circle><circle data-color="color-2" cx="19.5" cy="21.5" r="2.5" fill="#61616b"></circle><path d="M23.8,5.4c-.189-.252-.485-.4-.8-.4H15v4h2.5c.276,0,.5,.224,.499,.5,0,.121-.044,.237-.123,.328l-3.5,4c-.194,.208-.519,.219-.726,.026-.009-.008-.017-.017-.026-.026l-3.5-4c-.129-.148-.16-.357-.079-.536,.081-.178,.259-.293,.455-.293h2.5V5H5.542L4.991,.868c-.066-.497-.49-.868-.991-.868H1C.448,0,0,.448,0,1s.448,1,1,1H3.125l1.884,14.132c.066,.497,.49,.868,.991,.868h14c.442,0,.831-.29,.958-.713l3-10c.091-.304,.032-.633-.158-.887Z" fill="#61616b"></path></svg>