<svg xmlns="http://www.w3.org/2000/svg" height="24" width="24" viewBox="0 0 24 24"><path data-color="color-2" d="M18,0c-3.314,0-6,2.686-6,6s2.686,6,6,6,6-2.686,6-6S21.314,0,18,0Zm4,6.5c0,.276-.224,.5-.5,.5h-2.5v2.5c0,.276-.224,.5-.5,.5h-1c-.276,0-.5-.224-.5-.5v-2.5h-2.5c-.276,0-.5-.224-.5-.5v-1c0-.276,.224-.5,.5-.5h2.5V2.5c0-.276,.224-.5,.5-.5h1c.276,0,.5,.224,.5,.5v2.5h2.5c.276,0,.5,.224,.5,.5v1Z" fill="#61616b"></path><path d="M19,14c-.552,0-1,.447-1,1v5c0,.552-.449,1-1,1H4c-.551,0-1-.448-1-1V7c0-.552,.449-1,1-1h5c.552,0,1-.447,1-1s-.448-1-1-1H4c-1.654,0-3,1.346-3,3v13c0,1.654,1.346,3,3,3h13c1.654,0,3-1.346,3-3v-5c0-.553-.448-1-1-1Z" fill="#61616b"></path></svg>