<svg xmlns="http://www.w3.org/2000/svg" height="24" width="24" viewBox="0 0 24 24"><path data-color="color-2" d="M24,14c0-1.694-.773-3.246-2.06-4.457-.6,5.302-5.725,9.457-11.94,9.457-.473,0-.937-.03-1.395-.077,1.631,1.282,3.893,2.077,6.395,2.077,.422,0,.834-.03,1.24-.074,.001,0,.002,.002,.003,.003l5,3c.079,.047,.168,.071,.257,.071,.085,0,.17-.021,.246-.065,.157-.089,.254-.255,.254-.435v-5.105c1.249-1.202,2-2.73,2-4.395Z" fill="#61616b"></path><path d="M10,17c5.523,0,10-3.806,10-8.5S15.523,0,10,0,0,3.806,0,8.5c0,1.909,.75,3.666,2,5.085v4.915c0,.173,.09,.334,.237,.425,.08,.05,.171,.075,.263,.075,.076,0,.153-.018,.224-.053l4.55-2.275c.868,.209,1.78,.328,2.726,.328Z" fill="#61616b"></path></svg>