<svg xmlns="http://www.w3.org/2000/svg" height="24" width="24" viewBox="0 0 24 24"><path data-color="color-2" d="M23,4h-6V1c0-.552-.448-1-1-1H8c-.552,0-1,.448-1,1v3H1c-.552,0-1,.448-1,1s.448,1,1,1H23c.552,0,1-.448,1-1s-.448-1-1-1ZM9,2h6v2h-6V2Z" fill="#61616b"></path><path d="M3,8v13c0,1.657,1.343,3,3,3h12c1.657,0,3-1.343,3-3V8H3Zm6,10c0,.552-.447,1-1,1s-1-.448-1-1v-5c0-.552,.447-1,1-1s1,.448,1,1v5Zm4,0c0,.552-.447,1-1,1s-1-.448-1-1v-5c0-.552,.447-1,1-1s1,.448,1,1v5Zm4,0c0,.552-.447,1-1,1s-1-.448-1-1v-5c0-.552,.447-1,1-1s1,.448,1,1v5Z" fill="#61616b"></path></svg>