<svg xmlns="http://www.w3.org/2000/svg" height="24" width="24" viewBox="0 0 24 24"><path d="M21.75,10.767c-.123-.538-.659-.875-1.198-.752-.538,.123-.875,.659-.752,1.198,.129,.587,.196,1.186,.2,1.787,0,4.971-4.029,9-9,9S2,17.971,2,13,6.029,4,11,4c.6,.005,1.198,.077,1.783,.214,.539,.12,1.074-.22,1.193-.759s-.22-1.074-.76-1.194c-.727-.168-1.471-.256-2.217-.261C4.925,2,0,6.925,0,13s4.925,11,11,11c6.072-.007,10.993-4.928,11-11-.004-.744-.086-1.486-.246-2.213-.001-.007-.003-.013-.004-.02Z" fill="#61616b"></path><path data-color="color-2" d="M20.732,1h0c-.605,0-1.175,.236-1.603,.665L10,10.792c-.045,.045-.082,.099-.106,.158l-1.854,4.354c-.08,.188-.038,.405,.106,.549,.096,.096,.224,.146,.354,.146,.066,0,.133-.013,.196-.04l4.354-1.854c.059-.025,.112-.061,.158-.106L22.336,4.871c.428-.429,.664-.998,.664-1.604,0-.605-.237-1.175-.666-1.603-.428-.428-.997-.664-1.603-.664Z" fill="#61616b"></path></svg>