<svg xmlns="http://www.w3.org/2000/svg" height="24" width="24" viewBox="0 0 24 24"><path data-color="color-2" d="M19,1c0-.552-.448-1-1-1s-1,.448-1,1V3h2V1Z" fill="#61616b"></path><path data-color="color-2" d="M7,1c0-.552-.448-1-1-1s-1,.448-1,1V3h2V1Z" fill="#61616b"></path><path d="M21,4H3c-1.657,0-3,1.343-3,3v13c0,1.657,1.343,3,3,3H21c1.657,0,3-1.343,3-3V7c0-1.657-1.343-3-3-3Zm1,16c0,.552-.448,1-1,1H3c-.552,0-1-.448-1-1V9H22v11Z" fill="#61616b"></path><rect data-color="color-2" x="4" y="11" width="4" height="3" rx=".5" ry=".5" fill="#61616b"></rect><rect data-color="color-2" x="10" y="11" width="4" height="3" rx=".5" ry=".5" fill="#61616b"></rect><rect data-color="color-2" x="4" y="16" width="4" height="3" rx=".5" ry=".5" fill="#61616b"></rect><rect data-color="color-2" x="10" y="16" width="4" height="3" rx=".5" ry=".5" fill="#61616b"></rect><rect data-color="color-2" x="16" y="11" width="4" height="3" rx=".5" ry=".5" fill="#61616b"></rect></svg>