<svg xmlns="http://www.w3.org/2000/svg" height="24" width="24" viewBox="0 0 24 24"><rect data-color="color-2" x="4" y="11" width="4" height="3" rx=".5" ry=".5" fill="#61616b"></rect><rect data-color="color-2" x="10" y="11" width="4" height="3" rx=".5" ry=".5" fill="#61616b"></rect><rect data-color="color-2" x="4" y="16" width="4" height="3" rx=".5" ry=".5" fill="#61616b"></rect><rect data-color="color-2" x="10" y="16" width="4" height="3" rx=".5" ry=".5" fill="#61616b"></rect><rect data-color="color-2" x="16" y="11" width="4" height="3" rx=".5" ry=".5" fill="#61616b"></rect><path data-color="color-2" d="M6,6c.552,0,1-.447,1-1V1c0-.553-.448-1-1-1s-1,.447-1,1V5c0,.553,.448,1,1,1Z" fill="#61616b"></path><path d="M23,3h-3v1.888c0,.997-.679,1.923-1.662,2.085-1.252,.206-2.338-.759-2.338-1.972V3H8v1.888c0,.997-.679,1.923-1.662,2.085-1.252,.206-2.338-.759-2.338-1.972V3H1c-.552,0-1,.448-1,1V22c0,.552,.448,1,1,1H23c.552,0,1-.448,1-1V4c0-.552-.448-1-1-1Zm-1,18H2V9H22v12Z" fill="#61616b"></path><path data-color="color-2" d="M18,6c.552,0,1-.447,1-1V1c0-.553-.448-1-1-1s-1,.447-1,1V5c0,.553,.448,1,1,1Z" fill="#61616b"></path></svg>