<svg xmlns="http://www.w3.org/2000/svg" height="24" width="24" viewBox="0 0 24 24"><path data-color="color-2" d="M9.293,18.707c.195,.195,.451,.293,.707,.293s.512-.098,.707-.293l7-7c.391-.391,.391-1.023,0-1.414s-1.023-.391-1.414,0l-6.293,6.293-2.293-2.293c-.391-.391-1.023-.391-1.414,0s-.391,1.023,0,1.414l3,3Z" fill="#61616b"></path><path data-color="color-2" d="M6,6c.552,0,1-.447,1-1V1c0-.553-.448-1-1-1s-1,.447-1,1V5c0,.553,.448,1,1,1Z" fill="#61616b"></path><path d="M23,3h-3v1.888c0,.997-.679,1.923-1.662,2.085-1.252,.206-2.338-.759-2.338-1.972V3H8v1.888c0,.997-.679,1.923-1.662,2.085-1.252,.206-2.338-.759-2.338-1.972V3H1c-.552,0-1,.448-1,1V22c0,.552,.448,1,1,1H23c.552,0,1-.448,1-1V4c0-.552-.448-1-1-1Zm-1,18H2V9H22v12Z" fill="#61616b"></path><path data-color="color-2" d="M18,6c.552,0,1-.447,1-1V1c0-.553-.448-1-1-1s-1,.447-1,1V5c0,.553,.448,1,1,1Z" fill="#61616b"></path></svg>