<svg xmlns="http://www.w3.org/2000/svg" height="24" width="24" viewBox="0 0 24 24"><path d="M23,5H12c-.552,0-1,.448-1,1s.448,1,1,1h11c.552,0,1-.448,1-1s-.448-1-1-1Z" fill="#61616b"></path><rect x="1" y="2" width="8" height="8" rx="1" ry="1" fill="#61616b"></rect><path data-color="color-2" d="M23,17H12c-.552,0-1,.448-1,1s.448,1,1,1h11c.552,0,1-.448,1-1s-.448-1-1-1Z" fill="#61616b"></path><path data-color="color-2" d="M4,21c-.256,0-.512-.098-.707-.293l-2-2c-.391-.391-.391-1.023,0-1.414s1.023-.391,1.414,0l1.293,1.293,5.293-5.293c.391-.391,1.023-.391,1.414,0s.391,1.023,0,1.414l-6,6c-.195,.195-.451,.293-.707,.293Z" fill="#61616b"></path></svg>