<svg xmlns="http://www.w3.org/2000/svg" height="24" width="24" viewBox="0 0 24 24"><path d="M23,16H17a1,1,0,0,1,0-2h6a1,1,0,0,1,0,2Z" fill="#61616b" data-color="color-2"></path><path d="M23,20H16a1,1,0,0,1,0-2h7a1,1,0,0,1,0,2Z" fill="#61616b" data-color="color-2"></path><path d="M23,24H18a1,1,0,0,1,0-2h5a1,1,0,0,1,0,2Z" fill="#61616b" data-color="color-2"></path><path d="M21.637.229a1,1,0,0,0-1.408.134L12.1,10.215A2.975,2.975,0,0,0,11,10C4.318,10,0,15.1,0,23a1,1,0,0,0,1,1H13.258a1,1,0,0,0,.866-1.5,8.974,8.974,0,0,1-.387-8.27A4.318,4.318,0,0,0,14,13a2.97,2.97,0,0,0-.4-1.466l8.169-9.9A1,1,0,0,0,21.637.229ZM9.822,22a10.4,10.4,0,0,1-.034-1.921,1,1,0,0,0-1.994-.158A12.251,12.251,0,0,0,7.811,22H6.018a12.671,12.671,0,0,1,.193-1.821,1,1,0,0,0-1.968-.358A14.635,14.635,0,0,0,4.02,22H2.028c.214-3.78,1.676-7.549,5.056-9.171a5,5,0,0,0,3.884,4.061A11.059,11.059,0,0,0,10.91,18a10.948,10.948,0,0,0,.759,4Z" fill="#61616b"></path></svg>