<svg xmlns="http://www.w3.org/2000/svg" height="24" width="24" viewBox="0 0 24 24"><path d="M21,4h-7.263c1.113,4.267-1.444,8.629-5.711,9.742-1.667,.435-3.43,.319-5.026-.331v9.589c0,.552,.447,1,.999,1.001,.234,0,.461-.082,.641-.232l5.722-4.769h10.638c1.657,0,3-1.343,3-3V7c0-1.657-1.343-3-3-3Z" fill="#61616b"></path><path data-color="color-2" d="M6,0C2.686,0,0,2.686,0,6s2.686,6,6,6,6-2.686,6-6S9.314,0,6,0Zm3.5,7h-2.5v2.5c0,.276-.224,.5-.5,.5h-1c-.276,0-.5-.224-.5-.5v-2.5H2.5c-.276,0-.5-.224-.5-.5v-1c0-.276,.224-.5,.5-.5h2.5V2.5c0-.276,.224-.5,.5-.5h1c.276,0,.5,.224,.5,.5v2.5h2.5c.276,0,.5,.224,.5,.5v1c0,.276-.224,.5-.5,.5Z" fill="#61616b"></path></svg>