<svg xmlns="http://www.w3.org/2000/svg" height="24" width="24" viewBox="0 0 24 24"><path d="M20,1H4c-1.657,0-3,1.343-3,3V20c0,1.657,1.343,3,3,3H20c1.657,0,3-1.343,3-3V4c0-1.657-1.343-3-3-3ZM4.5,7h1.5v-1.5c0-.276,.224-.5,.5-.5h2c.276,0,.5,.224,.5,.5v5c0,.276-.224,.5-.5,.5h-2c-.276,0-.5-.224-.5-.5v-1.5h-1.5c-.276,0-.5-.224-.5-.5v-1c0-.276,.224-.5,.5-.5Zm8.5,10H4.5c-.276,0-.5-.224-.5-.5v-1c0-.276,.224-.5,.5-.5H13v2Zm6.5,0h-1.5v1.5c0,.276-.224,.5-.5,.5h-2c-.276,0-.5-.224-.5-.5v-5c0-.276,.224-.5,.5-.5h2c.276,0,.5,.224,.5,.5v1.5h1.5c.276,0,.5,.224,.5,.5v1c0,.276-.224,.5-.5,.5Zm0-8H11v-2h8.5c.276,0,.5,.224,.5,.5v1c0,.276-.224,.5-.5,.5Z" fill="#61616b"></path></svg>