<svg xmlns="http://www.w3.org/2000/svg" height="24" width="24" viewBox="0 0 24 24"><path data-color="color-2" d="M23,4h-6V1c0-.552-.448-1-1-1H8c-.552,0-1,.448-1,1v3H1c-.552,0-1,.448-1,1s.448,1,1,1H23c.552,0,1-.448,1-1s-.448-1-1-1ZM9,2h6v2h-6V2Z" fill="#61616b"></path><path d="M3,8v13c0,1.657,1.343,3,3,3h12c1.657,0,3-1.343,3-3V8H3Zm12.707,10.293c.391,.391,.391,1.023,0,1.414-.195,.195-.451,.293-.707,.293s-.512-.098-.707-.293l-2.293-2.293-2.293,2.293c-.195,.195-.451,.293-.707,.293s-.512-.098-.707-.293c-.391-.391-.391-1.023,0-1.414l2.293-2.293-2.293-2.293c-.391-.391-.391-1.023,0-1.414s1.023-.391,1.414,0l2.293,2.293,2.293-2.293c.391-.391,1.023-.391,1.414,0s.391,1.023,0,1.414l-2.293,2.293,2.293,2.293Z" fill="#61616b"></path></svg>