<svg xmlns="http://www.w3.org/2000/svg" height="24" width="24" viewBox="0 0 24 24"><path d="M19,23H4c-1.657,0-3-1.343-3-3V5c0-1.657,1.343-3,3-3h4c.552,0,1,.448,1,1h0c0,.552-.448,1-1,1H4c-.552,0-1,.448-1,1v15c0,.552,.448,1,1,1h15c.552,0,1-.448,1-1v-4c0-.552,.448-1,1-1h0c.552,0,1,.448,1,1v4c0,1.657-1.343,3-3,3Z" fill="#61616b"></path><path data-color="color-2" d="M22.7,1.3c-.217-.2-.504-.308-.8-.3-.3,0-6.8,.5-10.6,4.3-2.207,2.192-3.116,5.373-2.4,8.4l-2.6,2.6c-.387,.368-.401,.981-.033,1.367,.011,.011,.022,.022,.033,.033,.368,.387,.981,.401,1.367,.033,.011-.011,.022-.022,.033-.033l6.531-6.531-1.913,4.128c.027,0,.054,.004,.082,.004,2.38-.007,4.654-.981,6.3-2.7,3.8-3.7,4.3-10.3,4.3-10.5,.008-.296-.1-.583-.3-.8Z" fill="#61616b"></path></svg>