<svg xmlns="http://www.w3.org/2000/svg" height="24" width="24" viewBox="0 0 24 24"><path d="M23,3h-5V1c0-.552-.448-1-1-1s-1,.448-1,1V3H8V1C8.031,.479,7.634,.031,7.113,0c0,0,0,0,0,0-.038-.002-.075-.002-.113,0-.521-.031-.969,.366-1,.887h0c-.002,.038-.002,.076,0,.113V3H1C.479,2.969,.031,3.366,0,3.887c0,0,0,0,0,0-.002,.038-.002,.075,0,.113V22c-.031,.521,.366,.969,.887,1h0c.038,.002,.075,.002,.113,0H10c.552,0,1-.448,1-1h0c0-.552-.448-1-1-1H2V7H22v4.339c0,.365,.296,.661,.661,.661h.678c.365,0,.661-.296,.661-.661V4c.031-.521-.366-.969-.887-1,0,0,0,0,0,0-.038-.002-.075-.002-.113,0Z" fill="#61616b"></path><path data-color="color-2" d="M17,23c-.256,0-.512-.098-.707-.293l-2-2c-.391-.391-.391-1.023,0-1.414s1.023-.391,1.414,0l1.293,1.293,4.293-4.293c.391-.391,1.023-.391,1.414,0s.391,1.023,0,1.414l-5,5c-.195,.195-.451,.293-.707,.293Z" fill="#61616b"></path></svg>