<svg xmlns="http://www.w3.org/2000/svg" height="24" width="24" viewBox="0 0 24 24"><path d="M12,0C5.383,0,0,5.383,0,12s5.383,12,12,12,12-5.383,12-12S18.617,0,12,0Zm-1,3.5c0-.276,.224-.5,.5-.5h1c.276,0,.5,.224,.5,.5v2c0,.276-.224,.5-.5,.5h-1c-.276,0-.5-.224-.5-.5V3.5ZM6,12.5c0,.276-.224,.5-.5,.5H3.5c-.276,0-.5-.224-.5-.5v-1c0-.276,.224-.5,.5-.5h2c.276,0,.5,.224,.5,.5v1Zm7.414,.914c-.377,.378-.88,.586-1.414,.586s-1.037-.208-1.414-.586c-.603-.602-4.553-6.468-5.001-7.135-.133-.198-.107-.463,.062-.632,.17-.168,.435-.194,.632-.062,.667,.448,6.533,4.398,7.135,5.001,.378,.377,.586,.88,.586,1.414s-.208,1.037-.586,1.414Zm3.182-5.304l-.707-.707c-.195-.195-.195-.512,0-.707l1.414-1.414c.195-.195,.512-.195,.707,0l.707,.707c.195,.195,.195,.512,0,.707l-1.414,1.414c-.195,.195-.512,.195-.707,0Zm3.904,4.89h-2c-.276,0-.5-.224-.5-.5v-1c0-.276,.224-.5,.5-.5h2c.276,0,.5,.224,.5,.5v1c0,.276-.224,.5-.5,.5Z" fill="#61616b"></path></svg>