<svg xmlns="http://www.w3.org/2000/svg" height="24" width="24" viewBox="0 0 24 24"><path d="M10,18.5a7.494,7.494,0,0,1,10.358-6.931l2.436-2.375a.832.832,0,0,0-.461-1.419L15.38,6.765,12.269.464a.831.831,0,0,0-1.492,0l-3.11,6.3L.713,7.775A.832.832,0,0,0,.252,9.194l5.032,4.9L4.1,21.025A.833.833,0,0,0,5.3,21.9l4.757-2.5A7.452,7.452,0,0,1,10,18.5Z" fill="#61616b"></path> <path d="M17.5,13A5.5,5.5,0,1,0,23,18.5,5.5,5.5,0,0,0,17.5,13ZM20,20H15V19h5Zm0-2H15V17h5Z" fill="#61616b" data-color="color-2"></path></svg>