<svg xmlns="http://www.w3.org/2000/svg" height="24" width="24" viewBox="0 0 24 24"><path data-color="color-2" d="M12,2c-3.866,0-7,3.134-7,7s3.134,7,7,7,7-3.134,7-7-3.134-7-7-7Zm3,8h-2v2c0,.552-.448,1-1,1h0c-.552,0-1-.448-1-1v-2h-2c-.552,0-1-.448-1-1h0c0-.552,.448-1,1-1h2v-2c0-.552,.448-1,1-1h0c.552,0,1,.448,1,1v2h2c.552,0,1,.448,1,1h0c0,.552-.448,1-1,1Z" fill="#61616b"></path><path d="M22,14c-.552,0-1,.448-1,1v4c0,.552-.448,1-1,1H4c-.552,0-1-.448-1-1v-4c0-.552-.448-1-1-1s-1,.448-1,1v4c0,1.657,1.343,3,3,3H20c1.657,0,3-1.343,3-3v-4c0-.552-.448-1-1-1Z" fill="#61616b"></path> </svg>