<svg xmlns="http://www.w3.org/2000/svg" height="24" width="24" viewBox="0 0 24 24"><path d="M23,8H1c-.552,0-1,.448-1,1s.448,1,1,1H23c.552,0,1-.448,1-1s-.448-1-1-1Z" fill="#61616b"></path><path d="M23,2H1c-.552,0-1,.448-1,1s.448,1,1,1H23c.552,0,1-.448,1-1s-.448-1-1-1Z" fill="#61616b"></path><path d="M11,14H1c-.552,0-1,.448-1,1s.448,1,1,1H11c.552,0,1-.448,1-1s-.448-1-1-1Z" fill="#61616b"></path><path d="M11,20H1c-.552,0-1,.448-1,1s.448,1,1,1H11c.552,0,1-.448,1-1s-.448-1-1-1Z" fill="#61616b"></path><path data-color="color-2" d="M22.707,14.293c-.391-.391-1.023-.391-1.414,0l-2.293,2.293-2.293-2.293c-.391-.391-1.023-.391-1.414,0s-.391,1.023,0,1.414l2.293,2.293-2.293,2.293c-.391,.391-.391,1.023,0,1.414,.195,.195,.451,.293,.707,.293s.512-.098,.707-.293l2.293-2.293,2.293,2.293c.195,.195,.451,.293,.707,.293s.512-.098,.707-.293c.391-.391,.391-1.023,0-1.414l-2.293-2.293,2.293-2.293c.391-.391,.391-1.023,0-1.414Z" fill="#61616b"></path></svg>