<svg xmlns="http://www.w3.org/2000/svg" height="24" width="24" viewBox="0 0 24 24"><path d="M23,8H1c-.552,0-1,.448-1,1s.448,1,1,1H23c.552,0,1-.448,1-1s-.448-1-1-1Z" fill="#61616b"></path><path d="M23,2H1c-.552,0-1,.448-1,1s.448,1,1,1H23c.552,0,1-.448,1-1s-.448-1-1-1Z" fill="#61616b"></path><path d="M9,14H1c-.552,0-1,.448-1,1s.448,1,1,1H9c.552,0,1-.448,1-1s-.448-1-1-1Z" fill="#61616b"></path><path d="M9,20H1c-.552,0-1,.448-1,1s.448,1,1,1H9c.552,0,1-.448,1-1s-.448-1-1-1Z" fill="#61616b"></path><path data-color="color-2" d="M16,22c-.256,0-.512-.098-.707-.293l-3-3c-.391-.391-.391-1.023,0-1.414s1.023-.391,1.414,0l2.293,2.293,6.293-6.293c.391-.391,1.023-.391,1.414,0s.391,1.023,0,1.414l-7,7c-.195,.195-.451,.293-.707,.293Z" fill="#61616b"></path></svg>