<svg xmlns="http://www.w3.org/2000/svg" height="24" width="24" viewBox="0 0 24 24"><path d="M23.707,22.293,16.564,15.15a8.966,8.966,0,0,0,2.142-3.9,1,1,0,1,0-1.936-.5A6.977,6.977,0,0,1,5.15,14.029l2.3-2.3L.307,11l.963,6.909,2.465-2.465a8.958,8.958,0,0,0,11.3,1.007l7.257,7.256a1,1,0,0,0,1.414-1.414Z" fill="#61616b"></path><path d="M2.013,7.969A1.019,1.019,0,0,0,2.263,8a1,1,0,0,0,.967-.75A6.977,6.977,0,0,1,14.85,3.971l-2.3,2.3L19.693,7,18.73.091,16.265,2.556A8.978,8.978,0,0,0,1.294,6.75,1,1,0,0,0,2.013,7.969Z" fill="#61616b" data-color="color-2"></path></svg>