<svg xmlns="http://www.w3.org/2000/svg" height="24" width="24" viewBox="0 0 24 24"><rect data-color="color-2" x="8" y="8" width="8" height="8" rx="1" ry="1" fill="#61616b"></rect><path d="M1,3c-.553,0-1,.448-1,1V20c0,.552,.447,1,1,1s1-.448,1-1V4c0-.552-.447-1-1-1Z" fill="#61616b"></path><path d="M5,5c-.553,0-1,.448-1,1v12c0,.552,.447,1,1,1s1-.448,1-1V6c0-.552-.447-1-1-1Z" fill="#61616b"></path><path d="M19,5c-.553,0-1,.448-1,1v12c0,.552,.447,1,1,1s1-.448,1-1V6c0-.552-.447-1-1-1Z" fill="#61616b"></path><path d="M23,3c-.553,0-1,.448-1,1V20c0,.552,.447,1,1,1s1-.448,1-1V4c0-.552-.447-1-1-1Z" fill="#61616b"></path></svg>