<svg xmlns="http://www.w3.org/2000/svg" height="24" width="24" viewBox="0 0 24 24"><rect x="1" y="1" width="4" height="4" rx=".5" ry=".5" fill="#61616b"></rect><rect x="7" y="1" width="4" height="4" rx=".5" ry=".5" fill="#61616b"></rect><rect x="13" y="1" width="4" height="4" rx=".5" ry=".5" fill="#61616b"></rect><rect data-color="color-2" x="19" y="1" width="4" height="4" rx=".5" ry=".5" fill="#61616b"></rect><rect x="1" y="7" width="4" height="4" rx=".5" ry=".5" fill="#61616b"></rect><rect x="7" y="7" width="4" height="4" rx=".5" ry=".5" fill="#61616b"></rect><rect data-color="color-2" x="13" y="7" width="4" height="4" rx=".5" ry=".5" fill="#61616b"></rect><rect x="19" y="7" width="4" height="4" rx=".5" ry=".5" fill="#61616b"></rect><rect x="1" y="13" width="4" height="4" rx=".5" ry=".5" fill="#61616b"></rect><rect data-color="color-2" x="7" y="13" width="4" height="4" rx=".5" ry=".5" fill="#61616b"></rect><rect x="13" y="13" width="4" height="4" rx=".5" ry=".5" fill="#61616b"></rect><rect x="19" y="13" width="4" height="4" rx=".5" ry=".5" fill="#61616b"></rect><rect data-color="color-2" x="1" y="19" width="4" height="4" rx=".5" ry=".5" fill="#61616b"></rect><rect x="7" y="19" width="4" height="4" rx=".5" ry=".5" fill="#61616b"></rect><rect x="13" y="19" width="4" height="4" rx=".5" ry=".5" fill="#61616b"></rect><rect x="19" y="19" width="4" height="4" rx=".5" ry=".5" fill="#61616b"></rect></svg>