<svg xmlns="http://www.w3.org/2000/svg" height="24" width="24" viewBox="0 0 24 24"><path d="M4,5H1c-.552,0-1-.448-1-1s.448-1,1-1h3c.552,0,1,.448,1,1s-.448,1-1,1Z" fill="#61616b"></path><path data-color="color-2" d="M13,10H4c-.552,0-1-.448-1-1s.448-1,1-1H13c.552,0,1,.448,1,1s-.448,1-1,1Z" fill="#61616b"></path><path d="M20,15H9c-.552,0-1-.448-1-1s.448-1,1-1h11c.552,0,1,.448,1,1s-.448,1-1,1Z" fill="#61616b"></path><path data-color="color-2" d="M23,20h-3c-.552,0-1-.448-1-1s.448-1,1-1h3c.552,0,1,.448,1,1s-.448,1-1,1Z" fill="#61616b"></path></svg>