<svg xmlns="http://www.w3.org/2000/svg" height="24" width="24" viewBox="0 0 24 24"><path d="M23.633,10.226L12.633,1.226c-.368-.301-.898-.301-1.266,0L.367,10.226c-.422,.356-.476,.987-.119,1.409,.348,.413,.962,.474,1.385,.139l1.367-1.118v11.344c0,.552,.448,1,1,1h6v-4.5c0-.276,.224-.5,.5-.5h3c.276,0,.5,.224,.5,.5v4.5h6c.552,0,1-.448,1-1V10.656l1.367,1.118c.422,.356,1.053,.303,1.409-.119s.303-1.053-.119-1.409c-.008-.007-.016-.013-.024-.019Zm-10.133,3.774h-3c-.276,0-.5-.224-.5-.5v-3c0-.276,.224-.5,.5-.5h3c.276,0,.5,.224,.5,.5v3c0,.276-.224,.5-.5,.5Z" fill="#61616b"></path></svg>