<svg xmlns="http://www.w3.org/2000/svg" height="24" width="24" viewBox="0 0 24 24"><path data-color="color-2" d="M21,2H3c-.553,0-1-.447-1-1s.447-1,1-1H21c.553,0,1,.447,1,1s-.447,1-1,1Z" fill="#61616b"></path><path data-color="color-2" d="M21,24H3c-.553,0-1-.447-1-1s.447-1,1-1H21c.553,0,1,.447,1,1s-.447,1-1,1Z" fill="#61616b"></path><path d="M19,6v-2H5v2c0,2.499,2.131,4.813,3.441,6-1.311,1.187-3.441,3.501-3.441,6v2h14v-2c0-2.499-2.131-4.813-3.441-6,1.311-1.187,3.441-3.501,3.441-6Z" fill="#61616b"></path></svg>