<svg xmlns="http://www.w3.org/2000/svg" height="24" width="24" viewBox="0 0 24 24"><path d="M21.008,6.804c-1.927-1.112-4.212-1.03-6.008,.01v2.186h.382c.722-.641,1.653-.997,2.618-1,2.209,0,4,1.791,4,4s-1.791,4-4,4c-.965-.003-1.896-.359-2.618-1h-.382v2.191s.005,.004,.008,.005c2.87,1.657,6.539,.674,8.196-2.196,1.657-2.87,.674-6.539-2.196-8.196Z" fill="#61616b"></path><path d="M9,15h-.382c-.722,.641-1.653,.997-2.618,1-2.209,0-4-1.791-4-4s1.791-4,4-4c.965,.003,1.896,.359,2.618,1h.382v-2.186c-1.797-1.04-4.081-1.122-6.008-.01C.122,8.461-.861,12.13,.796,15s5.326,3.853,8.196,2.196c.003-.002,.005-.004,.008-.005v-2.191Z" fill="#61616b"></path><path data-color="color-2" d="M9,11h-3c-.552,0-1,.448-1,1s.448,1,1,1h3v-2Z" fill="#61616b"></path><path data-color="color-2" d="M18,11h-3v2h3c.552,0,1-.448,1-1s-.448-1-1-1Z" fill="#61616b"></path><path data-color="color-2" d="M12,23c-.552,0-1-.447-1-1V2c0-.553,.448-1,1-1s1,.447,1,1V22c0,.553-.448,1-1,1Z" fill="#61616b"></path></svg>