<svg xmlns="http://www.w3.org/2000/svg" height="24" width="24" viewBox="0 0 24 24"><path d="M22.707,19.293l-4.875-4.875c2.452-4.338,.924-9.842-3.414-12.294C10.08-.328,4.576,1.201,2.124,5.538c-2.452,4.338-.924,9.842,3.414,12.294,2.755,1.557,6.125,1.557,8.88,0l4.875,4.875c.39,.39,1.024,.39,1.414,0l2-2c.39-.39,.39-1.024,0-1.414ZM3,10c0-3.866,3.134-7,7-7s7,3.134,7,7-3.134,7-7,7c-3.864-.004-6.996-3.136-7-7Z" fill="#61616b"></path><path data-color="color-2" d="M13,11H7c-.553,0-1-.448-1-1s.447-1,1-1h6c.553,0,1,.448,1,1s-.447,1-1,1Z" fill="#61616b"></path></svg>