<svg xmlns="http://www.w3.org/2000/svg" height="24" width="24" viewBox="0 0 24 24"><path data-color="color-2" d="M11,15c-.256,0-.512-.098-.707-.293l-4-4c-.391-.391-.391-1.023,0-1.414s1.023-.391,1.414,0l3.293,3.293L21.293,2.293c.391-.391,1.023-.391,1.414,0s.391,1.023,0,1.414L11.707,14.707c-.195,.195-.451,.293-.707,.293Z" fill="#61616b"></path><path d="M11,23C4.935,23,0,18.065,0,12S4.935,1,11,1c1.682,0,3.297,.37,4.8,1.1,.497,.241,.704,.839,.463,1.336-.241,.497-.839,.704-1.336,.462-1.229-.597-2.55-.899-3.927-.899C6.037,3,2,7.038,2,12s4.037,9,9,9,9-4.038,9-9c0-.464-.035-.93-.105-1.385-.084-.546,.29-1.057,.836-1.141,.546-.082,1.057,.29,1.141,.836,.086,.555,.129,1.124,.129,1.689,0,6.065-4.935,11-11,11Z" fill="#61616b"></path></svg>