<svg xmlns="http://www.w3.org/2000/svg" height="24" width="24" viewBox="0 0 24 24"><path data-color="color-2" d="M22,3.586l-1.585-1.584c-.377-.379-.879-.587-1.413-.588h-.002c-.534,0-1.037,.208-1.414,.586L8.293,11.293c-.096,.096-.171,.21-.222,.335l-2,5c-.148,.372-.062,.796,.222,1.079,.191,.191,.447,.293,.707,.293,.125,0,.251-.023,.371-.071l5-2c.126-.05,.24-.126,.336-.222L22,6.415c.378-.377,.586-.88,.586-1.414s-.208-1.036-.586-1.415Z" fill="#61616b"></path><path d="M19,14c-.553,0-1,.448-1,1v5c0,.551-.448,1-1,1H4c-.552,0-1-.449-1-1V7c0-.551,.448-1,1-1h5c.553,0,1-.448,1-1s-.447-1-1-1H4c-1.654,0-3,1.346-3,3v13c0,1.654,1.346,3,3,3h13c1.654,0,3-1.346,3-3v-5c0-.552-.447-1-1-1Z" fill="#61616b"></path></svg>