<svg xmlns="http://www.w3.org/2000/svg" height="24" width="24" viewBox="0 0 24 24"><path d="M21.561,19.439,15.892,13.77a7.018,7.018,0,0,1-2.122,2.122l5.669,5.669a1.5,1.5,0,0,0,2.122-2.122Z" fill="#61616b"></path><path d="M5.759,14.241a6,6,0,1,1,8.482-8.482l1.413-1.413A8,8,0,1,0,4.346,15.654Z" fill="#61616b"></path><path d="M15.79,8.452A5.977,5.977,0,0,1,8.452,15.79L6.877,17.365A8,8,0,0,0,17.365,6.877Z" fill="#61616b"></path><path d="M2,19a1,1,0,0,1-.707-1.707l16-16a1,1,0,0,1,1.414,1.414l-16,16A1,1,0,0,1,2,19Z" fill="#61616b" data-color="color-2"></path></svg>