<svg xmlns="http://www.w3.org/2000/svg" height="24" width="24" viewBox="0 0 24 24"><path d="M23,3h-5V1c0-.552-.448-1-1-1s-1,.448-1,1V3H8V1c0-.552-.448-1-1-1s-1,.448-1,1V3H1c-.552,0-1,.448-1,1V22c0,.552,.448,1,1,1H9c.552,0,1-.448,1-1h0c0-.552-.448-1-1-1H2V7H22v3c0,.552,.448,1,1,1h0c.552,0,1-.448,1-1V4c0-.552-.448-1-1-1Z" fill="#61616b"></path><path data-color="color-2" d="M18,12c-3.314,0-6,2.686-6,6s2.686,6,6,6,6-2.686,6-6-2.686-6-6-6Zm3,7h-3c-.552,0-1-.447-1-1v-3c0-.553,.448-1,1-1s1,.447,1,1v2h2c.552,0,1,.447,1,1s-.448,1-1,1Z" fill="#61616b"></path></svg>