<svg xmlns="http://www.w3.org/2000/svg" height="24" width="24" viewBox="0 0 24 24"><path d="M3,1V12h2V1c0-.552-.448-1-1-1s-1,.448-1,1Z" fill="#61616b"></path><path d="M5,23v-5h2c.552,0,1-.448,1-1v-2c0-.552-.448-1-1-1H1c-.552,0-1,.448-1,1v2c0,.552,.448,1,1,1H3v5c0,.552,.448,1,1,1s1-.448,1-1Z" fill="#61616b"></path><path d="M19,1V12h2V1c0-.552-.448-1-1-1s-1,.448-1,1Z" fill="#61616b"></path><path d="M21,23v-5h2c.552,0,1-.448,1-1v-2c0-.552-.448-1-1-1h-6c-.552,0-1,.448-1,1v2c0,.552,.448,1,1,1h2v5c0,.552,.448,1,1,1s1-.448,1-1Z" fill="#61616b"></path><path data-color="color-2" d="M11,1v3h2V1c0-.552-.448-1-1-1s-1,.448-1,1Z" fill="#61616b"></path><path data-color="color-2" d="M13,23V10h2c.552,0,1-.448,1-1v-2c0-.552-.448-1-1-1h-6c-.552,0-1,.448-1,1v2c0,.552,.448,1,1,1h2v13c0,.552,.448,1,1,1s1-.448,1-1Z" fill="#61616b"></path></svg>