<svg xmlns="http://www.w3.org/2000/svg" height="24" width="24" viewBox="0 0 24 24"><path data-color="color-2" d="M8,6.841v-.841c0-2.243,1.757-4,4-4,1.296,0,2.47,.581,3.22,1.595,.328,.444,.953,.538,1.399,.209,.444-.329,.537-.955,.208-1.398-1.132-1.528-2.891-2.405-4.828-2.405-3.364,0-6,2.636-6,6v2.019c.617-.465,1.284-.865,2-1.178Z" fill="#61616b"></path><path d="M12,8c-4.411,0-8,3.589-8,8s3.589,8,8,8,8-3.589,8-8-3.589-8-8-8Zm1,9.288v1.712c0,.553-.448,1-1,1s-1-.447-1-1v-1.712c-.881-.387-1.5-1.265-1.5-2.288,0-1.379,1.122-2.5,2.5-2.5s2.5,1.121,2.5,2.5c0,1.023-.619,1.901-1.5,2.288Z" fill="#61616b"></path></svg>