<svg xmlns="http://www.w3.org/2000/svg" height="24" width="24" viewBox="0 0 24 24"><path data-color="color-2" d="M8,6.841v-.841c0-2.243,1.757-4,4-4s4,1.757,4,4v.841c.716,.314,1.383,.714,2,1.178v-2.019c0-3.364-2.636-6-6-6S6,2.636,6,6v2.019c.617-.465,1.284-.865,2-1.178Z" fill="#61616b"></path><path d="M12,8c-4.411,0-8,3.589-8,8s3.589,8,8,8,8-3.589,8-8-3.589-8-8-8Zm1,9.288v1.712c0,.553-.447,1-1,1s-1-.447-1-1v-1.712c-.882-.387-1.5-1.265-1.5-2.288,0-1.379,1.121-2.5,2.5-2.5s2.5,1.121,2.5,2.5c0,1.023-.618,1.902-1.5,2.288Z" fill="#61616b"></path></svg>