<svg xmlns="http://www.w3.org/2000/svg" height="24" width="24" viewBox="0 0 24 24"><path d="M7.04,16.96l2.844-2.844h0c-.994-1.033-1.87-2.173-2.612-3.4l2.319-2.356c.285-.291,.367-.725,.208-1.1L7.382,1.614c-.197-.458-.699-.704-1.182-.578L1.756,2.209c-.457,.117-.772,.537-.756,1.009,.282,5.161,2.428,10.043,6.039,13.741h0Z" fill="#61616b"></path><path d="M22.389,16.615l-5.641-2.415c-.378-.163-.816-.08-1.109,.209l-2.355,2.321s-.446-.261-1.072-.7l-2.86,2.86c3.331,2.45,7.303,3.878,11.432,4.11,.472,.015,.891-.299,1.01-.756l1.172-4.44c.13-.485-.116-.991-.577-1.189Z" fill="#61616b"></path><path data-color="color-2" d="M2,23c-.256,0-.512-.098-.707-.293-.391-.391-.391-1.023,0-1.414L21.293,1.293c.391-.391,1.023-.391,1.414,0s.391,1.023,0,1.414L2.707,22.707c-.195,.195-.451,.293-.707,.293Z" fill="#61616b"></path></svg>