<svg xmlns="http://www.w3.org/2000/svg" height="24" width="24" viewBox="0 0 24 24"><path d="M23,3H12v2h11c.552,0,1-.448,1-1s-.448-1-1-1Z" fill="#61616b"></path><path d="M1,5H6v2c0,.552,.448,1,1,1h2c.552,0,1-.448,1-1V1c0-.552-.448-1-1-1h-2c-.552,0-1,.448-1,1V3H1c-.552,0-1,.448-1,1s.448,1,1,1Z" fill="#61616b"></path><path d="M23,19H12v2h11c.552,0,1-.448,1-1s-.448-1-1-1Z" fill="#61616b"></path><path d="M1,21H6v2c0,.552,.448,1,1,1h2c.552,0,1-.448,1-1v-6c0-.552-.448-1-1-1h-2c-.552,0-1,.448-1,1v2H1c-.552,0-1,.448-1,1s.448,1,1,1Z" fill="#61616b"></path><path data-color="color-2" d="M23,11h-3v2h3c.552,0,1-.448,1-1s-.448-1-1-1Z" fill="#61616b"></path><path data-color="color-2" d="M1,13H14v2c0,.552,.448,1,1,1h2c.552,0,1-.448,1-1v-6c0-.552-.448-1-1-1h-2c-.552,0-1,.448-1,1v2H1c-.552,0-1,.448-1,1s.448,1,1,1Z" fill="#61616b"></path></svg>