<svg xmlns="http://www.w3.org/2000/svg" height="24" width="24" viewBox="0 0 24 24"><path d="M20.872,13.453c.171-.961,.171-1.945,0-2.906l2.1-2.029c.329-.319,.4-.821,.171-1.218l-1.5-2.6c-.232-.396-.701-.585-1.143-.461l-2.8,.8c-.758-.618-1.612-1.108-2.527-1.451l-.7-2.83c-.111-.446-.513-.759-.973-.758h-3c-.459,0-.859,.313-.97,.758l-.707,2.83c-.914,.344-1.766,.834-2.523,1.451l-2.8-.8c-.441-.124-.911,.066-1.143,.461L.857,7.3c-.229,.397-.159,.9,.171,1.219l2.1,2.029c-.081,.48-.124,.965-.128,1.452,.004,.487,.046,.973,.128,1.453l-2.1,2.029c-.329,.319-.4,.821-.171,1.218l1.5,2.6c.179,.31,.509,.5,.867,.5,.093,0,.185-.013,.275-.038l2.8-.8c.758,.617,1.612,1.107,2.527,1.451l.707,2.83c.111,.444,.509,.756,.967,.757h3c.459,0,.859-.313,.97-.758l.707-2.83c.914-.344,1.766-.834,2.523-1.451l2.8,.8c.09,.025,.182,.038,.275,.038,.358,0,.688-.19,.867-.5l1.5-2.6c.229-.397,.159-.9-.171-1.219l-2.099-2.027Zm-7.872,.363v1.184c0,.552-.448,1-1,1h0c-.552,0-1-.448-1-1v-1.184c-1.73-.612-2.548-2.648-1.602-4.325,.602-1.067,1.865-1.67,3.074-1.468,1.899,.318,2.969,2.235,2.357,3.965-.302,.854-.974,1.526-1.828,1.828Z" fill="#61616b"></path></svg>