<svg xmlns="http://www.w3.org/2000/svg" height="24" width="24" viewBox="0 0 24 24"><path d="M9,1H2c-.552,0-1,.448-1,1v7c0,.552,.448,1,1,1h7c.552,0,1-.448,1-1V2c0-.552-.448-1-1-1Z" fill="#61616b"></path><path d="M22,14h-7c-.552,0-1,.448-1,1v7c0,.552,.448,1,1,1h7c.552,0,1-.448,1-1v-7c0-.552-.448-1-1-1Z" fill="#61616b"></path><path d="M9,14H2c-.552,0-1,.448-1,1v7c0,.552,.448,1,1,1h7c.552,0,1-.448,1-1v-7c0-.552-.448-1-1-1Z" fill="#61616b"></path><path data-color="color-2" d="M16,9c-.256,0-.512-.098-.707-.293l-2-2c-.391-.391-.391-1.023,0-1.414s1.023-.391,1.414,0l1.293,1.293L21.293,1.293c.391-.391,1.023-.391,1.414,0s.391,1.023,0,1.414l-6,6c-.195,.195-.451,.293-.707,.293Z" fill="#61616b"></path></svg>