<svg xmlns="http://www.w3.org/2000/svg" height="24" width="24" viewBox="0 0 24 24"><path d="M21,1H3C1.346,1,0,2.346,0,4v5H9v-2.5c0-.187,.104-.357,.27-.443,.164-.086,.363-.073,.518,.034l5,3.5c.133,.094,.213,.247,.213,.41s-.08,.316-.213,.41l-5,3.5c-.086,.06-.187,.09-.287,.09-.079,0-.158-.019-.23-.057-.166-.086-.27-.257-.27-.443v-2.5H0v5c0,1.654,1.346,3,3,3h2v4c0,.375,.209,.718,.542,.889,.145,.074,.302,.111,.458,.111,.205,0,.408-.063,.581-.186l6.739-4.814h7.68c1.654,0,3-1.346,3-3V4c0-1.654-1.346-3-3-3Z" fill="#61616b"></path></svg>