<svg xmlns="http://www.w3.org/2000/svg" height="24" width="24" viewBox="0 0 24 24"><path d="M17.979,10.003c1.128-.001,2.243,.236,3.272,.697l1.543-1.5c.329-.321,.336-.848,.015-1.177-.128-.131-.295-.216-.476-.242l-6.953-1.016L12.269,.464c-.202-.412-.7-.582-1.112-.38-.165,.081-.299,.215-.38,.38l-3.11,6.3L.713,7.775c-.455,.066-.77,.488-.703,.943,.026,.181,.112,.348,.242,.476l5.032,4.9-1.184,6.931c-.073,.454,.236,.882,.69,.955,.174,.028,.353,0,.51-.08l4.823-2.536c-.08-.45-.121-.907-.123-1.364-.005-4.412,3.568-7.992,7.979-7.997Z" fill="#61616b"></path><path data-color="color-2" d="M18,12c-3.314,0-6,2.686-6,6s2.686,6,6,6,6-2.686,6-6-2.686-6-6-6Zm4,6.5c0,.276-.224,.5-.5,.5h-7c-.276,0-.5-.224-.5-.5v-1c0-.276,.224-.5,.5-.5h7c.276,0,.5,.224,.5,.5v1Z" fill="#61616b"></path></svg>