<svg xmlns="http://www.w3.org/2000/svg" height="24" width="24" viewBox="0 0 24 24"><path d="M10,18c-.006-4.412,3.565-7.993,7.977-7.999,1.796-.003,3.541,.6,4.952,1.711,2.041-3.283,1.034-7.6-2.249-9.641-2.755-1.713-6.327-1.308-8.629,.979l-.051,.05-.05-.051c-2.734-2.734-7.166-2.734-9.9,0-2.734,2.734-2.734,7.166,0,9.9l9,9c-.688-1.202-1.05-2.564-1.05-3.949Z" fill="#61616b"></path><path data-color="color-2" d="M18,12c-3.314,0-6,2.686-6,6s2.686,6,6,6,6-2.686,6-6-2.686-6-6-6Zm3.5,7h-7c-.276,0-.5-.224-.5-.5v-1c0-.276,.224-.5,.5-.5h7c.276,0,.5,.224,.5,.5v1c0,.276-.224,.5-.5,.5Z" fill="#61616b"></path></svg>