<svg xmlns="http://www.w3.org/2000/svg" height="24" width="24" viewBox="0 0 24 24"><path d="M20,1H4c-1.657,0-3,1.343-3,3V20c0,1.657,1.343,3,3,3H20c1.657,0,3-1.343,3-3V4c0-1.657-1.343-3-3-3Zm-2.343,13.828c.391,.391,.391,1.024,0,1.414l-1.414,1.414c-.391,.391-1.024,.391-1.414,0l-2.828-2.828-2.828,2.828c-.391,.391-1.024,.391-1.414,0l-1.414-1.414c-.391-.391-.391-1.024,0-1.414l2.828-2.828-2.828-2.828c-.391-.391-.391-1.024,0-1.414l1.414-1.414c.391-.391,1.024-.391,1.414,0l2.828,2.828,2.828-2.828c.391-.391,1.024-.391,1.414,0l1.414,1.414c.391,.391,.391,1.024,0,1.414l-2.828,2.828,2.828,2.828Z" fill="#61616b"></path></svg>