<svg xmlns="http://www.w3.org/2000/svg" height="24" width="24" viewBox="0 0 24 24"><path d="M16.594,.997c-1.732,.002-3.39,.705-4.594,1.95C9.542,.406,5.491,.339,2.95,2.797c-1.245,1.204-1.949,2.862-1.95,4.594,0,4.2,5.167,9.628,8.229,12.475-.15-.611-.227-1.237-.229-1.866-.008-4.41,3.56-7.992,7.97-8,1.708-.003,3.372,.541,4.747,1.553,.762-1.261,1.203-2.691,1.283-4.162-.003-3.535-2.871-6.397-6.406-6.394Z" fill="#61616b"></path><path data-color="color-2" d="M17,12c-3.314,0-6,2.686-6,6s2.686,6,6,6,6-2.686,6-6-2.686-6-6-6Zm4,6.5c0,.276-.224,.5-.5,.5h-7c-.276,0-.5-.224-.5-.5v-1c0-.276,.224-.5,.5-.5h7c.276,0,.5,.224,.5,.5v1Z" fill="#61616b"></path></svg>