<svg xmlns="http://www.w3.org/2000/svg" height="24" width="24" viewBox="0 0 24 24"><path data-color="color-2" d="M11,15c-.256,0-.512-.098-.707-.293l-4-4c-.391-.391-.391-1.023,0-1.414s1.023-.391,1.414,0l3.293,3.293L21.293,2.293c.391-.391,1.023-.391,1.414,0s.391,1.023,0,1.414L11.707,14.707c-.195,.195-.451,.293-.707,.293Z" fill="#61616b"></path><path d="M18,23H4c-1.654,0-3-1.346-3-3V6c0-1.654,1.346-3,3-3H15c.552,0,1,.448,1,1s-.448,1-1,1H4c-.551,0-1,.449-1,1v14c0,.551,.449,1,1,1h14c.551,0,1-.449,1-1V12c0-.552,.448-1,1-1s1,.448,1,1v8c0,1.654-1.346,3-3,3Z" fill="#61616b"></path></svg>