<svg xmlns="http://www.w3.org/2000/svg" height="24" width="24" viewBox="0 0 24 24"><path data-color="color-2" d="M22.334,1.664c-.428-.428-.997-.664-1.603-.664h0c-.605,0-1.175,.236-1.603,.665L10,10.792c-.045,.045-.082,.099-.106,.158l-1.854,4.354c-.08,.188-.038,.405,.106,.549,.096,.096,.224,.146,.354,.146,.066,0,.133-.013,.196-.04l4.354-1.854c.059-.025,.112-.061,.158-.106L22.336,4.871c.428-.429,.664-.998,.664-1.604,0-.605-.237-1.175-.666-1.603Z" fill="#61616b"></path><path d="M21,10c-.552,0-1,.448-1,1v9c0,.551-.449,1-1,1H4c-.551,0-1-.449-1-1V5c0-.551,.449-1,1-1H13c.552,0,1-.448,1-1s-.448-1-1-1H4c-1.654,0-3,1.346-3,3v15c0,1.654,1.346,3,3,3h15c1.654,0,3-1.346,3-3V11c0-.552-.448-1-1-1Z" fill="#61616b"></path></svg>