<svg xmlns="http://www.w3.org/2000/svg" height="24" width="24" viewBox="0 0 24 24"><rect data-color="color-2" x="5" y="7" width="14" height="10" rx="1" ry="1" fill="#61616b"></rect><path d="M1,9c.553,0,1-.448,1-1v-3c0-.551,.448-1,1-1h3c.553,0,1-.448,1-1s-.447-1-1-1H3C1.346,2,0,3.346,0,5v3c0,.552,.447,1,1,1Z" fill="#61616b"></path><path d="M21,2h-3c-.553,0-1,.448-1,1s.447,1,1,1h3c.552,0,1,.449,1,1v3c0,.552,.447,1,1,1s1-.448,1-1v-3c0-1.654-1.346-3-3-3Z" fill="#61616b"></path><path d="M23,15c-.553,0-1,.448-1,1v3c0,.551-.448,1-1,1h-3c-.553,0-1,.448-1,1s.447,1,1,1h3c1.654,0,3-1.346,3-3v-3c0-.552-.447-1-1-1Z" fill="#61616b"></path><path d="M6,20H3c-.552,0-1-.449-1-1v-3c0-.552-.447-1-1-1s-1,.448-1,1v3c0,1.654,1.346,3,3,3h3c.553,0,1-.448,1-1s-.447-1-1-1Z" fill="#61616b"></path></svg>