<svg xmlns="http://www.w3.org/2000/svg" height="24" width="24" viewBox="0 0 24 24"><path d="M10,1C5.029,1,1,5.029,1,10s4.029,9,9,9c4.968-.006,8.994-4.032,9-9C19,5.029,14.971,1,10,1Zm0,16c-3.866,0-7-3.134-7-7S6.134,3,10,3c3.864,.004,6.996,3.136,7,7,0,3.866-3.134,7-7,7Z" fill="#61616b"></path><path data-color="color-2" d="M22.707,21.293l-4.256-4.256c-.427,.513-.901,.987-1.414,1.414l4.256,4.256c.397,.384,1.03,.373,1.414-.025,.374-.388,.374-1.002,0-1.389Z" fill="#61616b"></path><path data-color="color-2" d="M13,9h-2v-2c0-.552-.448-1-1-1s-1,.448-1,1v2h-2c-.552,0-1,.448-1,1s.448,1,1,1h2v2c0,.552,.448,1,1,1s1-.448,1-1v-2h2c.552,0,1-.448,1-1s-.448-1-1-1Z" fill="#61616b"></path></svg>