<svg xmlns="http://www.w3.org/2000/svg" height="24" width="24" viewBox="0 0 24 24"><path d="M23.5,11h-1.551c-.109-1.098-.404-2.139-.84-3.104l1.351-.78c.239-.138,.321-.444,.183-.683l-.5-.866c-.138-.239-.444-.321-.683-.183l-1.355,.782c-.631-.874-1.397-1.64-2.271-2.271l.782-1.355c.138-.239,.056-.545-.183-.683l-.866-.5c-.239-.138-.545-.056-.683,.183l-.78,1.351c-.965-.437-2.007-.731-3.104-.84V.5c0-.276-.224-.5-.5-.5h-1c-.276,0-.5,.224-.5,.5v1.551c-1.098,.109-2.139,.404-3.104,.84l-.78-1.351c-.138-.239-.444-.321-.683-.183l-.866,.5c-.239,.138-.321,.444-.183,.683l.782,1.355c-.874,.631-1.64,1.397-2.271,2.271l-1.355-.782c-.239-.138-.545-.056-.683,.183l-.5,.866c-.138,.239-.056,.545,.183,.683l1.351,.78c-.437,.965-.731,2.007-.84,3.104H.5c-.276,0-.5,.224-.5,.5v1c0,.276,.224,.5,.5,.5h1.551c.109,1.098,.404,2.139,.84,3.104l-1.351,.78c-.239,.138-.321,.444-.183,.683l.5,.866c.138,.239,.444,.321,.683,.183l1.355-.782c.631,.874,1.397,1.64,2.271,2.271l-.782,1.355c-.138,.239-.056,.545,.183,.683l.866,.5c.239,.138,.545,.056,.683-.183l.78-1.351c.965,.436,2.007,.731,3.104,.84v1.551c0,.276,.224,.5,.5,.5h1c.276,0,.5-.224,.5-.5v-1.551c1.098-.109,2.14-.404,3.104-.84l.78,1.351c.138,.239,.444,.321,.683,.183l.866-.5c.239-.138,.321-.444,.183-.683l-.782-1.355c.874-.631,1.64-1.397,2.271-2.271l1.355,.782c.239,.138,.545,.056,.683-.183l.5-.866c.138-.239,.056-.545-.183-.683l-1.351-.78c.437-.965,.731-2.007,.84-3.104h1.551c.276,0,.5-.224,.5-.5v-1c0-.276-.224-.5-.5-.5ZM12,4c4.072,0,7.436,3.06,7.931,7h-6.776c-.357,0-.687-.191-.866-.5l-3.391-5.874c.954-.403,2.003-.626,3.102-.626ZM4,12c0-2.596,1.249-4.901,3.171-6.363l3.385,5.863c.179,.309,.179,.691,0,1l-3.385,5.863c-1.922-1.462-3.171-3.767-3.171-6.363Zm8,8c-1.099,0-2.148-.223-3.102-.626l3.391-5.874c.179-.309,.509-.5,.866-.5h6.776c-.495,3.94-3.859,7-7.931,7Z" fill="#61616b"></path></svg>