<svg xmlns="http://www.w3.org/2000/svg" height="24" width="24" viewBox="0 0 24 24"><path d="M23,20V4c0-1.657-1.343-3-3-3H4c-1.657,0-3,1.343-3,3V20c0,1.657,1.343,3,3,3H20c1.657,0,3-1.343,3-3ZM7,10V4.5c0-.276,.224-.5,.5-.5h1c.276,0,.5,.224,.5,.5v5.5h-2Zm6-1c.002-1.268,.804-2.396,2-2.816v-1.684c0-.276,.224-.5,.5-.5h1c.276,0,.5,.224,.5,.5v1.684c1.818,.647,2.622,2.871,1.422,4.586-.515,.737-1.377,1.206-2.275,1.234-1.809,.056-3.15-1.359-3.147-3.004Zm-6,10.5v-1.684c-1.73-.612-2.548-2.648-1.602-4.325,.602-1.067,1.865-1.67,3.074-1.468,1.899,.318,2.969,2.235,2.357,3.965-.302,.854-.974,1.526-1.828,1.828v1.684c0,.276-.224,.5-.5,.5h-1c-.276,0-.5-.224-.5-.5Zm8,0v-5.5h2v5.5c0,.276-.224,.5-.5,.5h-1c-.276,0-.5-.224-.5-.5Z" fill="#61616b"></path></svg>