<svg xmlns="http://www.w3.org/2000/svg" height="24" width="24" viewBox="0 0 24 24"><path d="M20,1H4c-1.657,0-3,1.343-3,3V20c0,1.657,1.343,3,3,3H20c1.657,0,3-1.343,3-3V4c0-1.657-1.343-3-3-3ZM10,17H4.5c-.276,0-.5-.224-.5-.5v-1c0-.276,.224-.5,.5-.5h5.5v2Zm-1-6c-1.268-.002-2.396-.804-2.816-2h-1.684c-.276,0-.5-.224-.5-.5v-1c0-.276,.224-.5,.5-.5h1.684c.647-1.818,2.871-2.622,4.586-1.422,.737,.515,1.206,1.377,1.234,2.275,.056,1.809-1.359,3.15-3.004,3.147Zm10.5,6h-1.684c-.612,1.73-2.648,2.548-4.325,1.602-1.067-.602-1.67-1.865-1.468-3.074,.318-1.899,2.235-2.969,3.965-2.357,.854,.302,1.526,.974,1.828,1.828h1.684c.276,0,.5,.224,.5,.5v1c0,.276-.224,.5-.5,.5Zm0-8h-5.5v-2h5.5c.276,0,.5,.224,.5,.5v1c0,.276-.224,.5-.5,.5Z" fill="#61616b"></path></svg>