<svg xmlns="http://www.w3.org/2000/svg" height="24" width="24" viewBox="0 0 24 24"><path d="M22.121,10.707h0S12.706,1.293,12.706,1.293c-.187-.187-.441-.293-.706-.293H2c-.552,0-1,.448-1,1V12c0,.265,.105,.519,.293,.707l9.413,9.415c1.172,1.172,3.071,1.172,4.243,0,0,0,0,0,0,0l7.172-7.172c1.172-1.172,1.172-3.071,0-4.243ZM6,8c0-1.105,.895-2,2-2s2,.895,2,2-.895,2-2,2-2-.895-2-2Zm7.707,9.707c-.195,.195-.451,.293-.707,.293s-.512-.098-.707-.293l-3-3c-.391-.391-.391-1.023,0-1.414s1.023-.391,1.414,0l3,3c.391,.391,.391,1.023,0,1.414Zm4-4c-.195,.195-.451,.293-.707,.293s-.512-.098-.707-.293l-3-3c-.391-.391-.391-1.023,0-1.414s1.023-.391,1.414,0l3,3c.391,.391,.391,1.023,0,1.414Z" fill="#61616b"></path></svg>