<svg xmlns="http://www.w3.org/2000/svg" height="24" width="24" viewBox="0 0 24 24"><path data-color="color-2" fill="#61616b" d="M20,8H4C3.447,8,3,8.447,3,9s0.447,1,1,1h16c0.553,0,1-0.447,1-1S20.553,8,20,8z"></path> <path fill="#61616b" d="M23,2H1C0.447,2,0,2.447,0,3s0.447,1,1,1h22c0.553,0,1-0.447,1-1S23.553,2,23,2z"></path> <path fill="#61616b" d="M17,14H7c-0.553,0-1,0.447-1,1s0.447,1,1,1h10c0.553,0,1-0.447,1-1S17.553,14,17,14z"></path> <path data-color="color-2" fill="#61616b" d="M14,20h-4c-0.553,0-1,0.447-1,1s0.447,1,1,1h4c0.553,0,1-0.447,1-1S14.553,20,14,20z"></path></svg>