<svg xmlns="http://www.w3.org/2000/svg" height="24" width="24" viewBox="0 0 24 24"><path d="M12,0C5.383,0,0,5.383,0,12s5.383,12,12,12,12-5.383,12-12S18.617,0,12,0ZM5,12c0,.552-.447,1-1,1s-1-.448-1-1c0-1.387,.325-2.696,.887-3.871l1.526,1.526c-.263,.734-.413,1.522-.413,2.345Zm8.414,1.414c-.377,.378-.88,.586-1.414,.586s-1.037-.208-1.414-.586c-.603-.602-4.553-6.468-5.001-7.135-.133-.198-.107-.463,.062-.632,.169-.168,.434-.194,.632-.062,.667,.448,6.533,4.398,7.135,5.001,.378,.377,.586,.88,.586,1.414s-.208,1.037-.586,1.414Zm6.586-.414c-.553,0-1-.448-1-1,0-3.86-3.141-7-7-7-.823,0-1.61,.15-2.345,.413l-1.525-1.526c1.174-.563,2.483-.887,3.87-.887,4.963,0,9,4.038,9,9,0,.552-.447,1-1,1Z" fill="#61616b"></path></svg>