<svg xmlns="http://www.w3.org/2000/svg" height="24" width="24" viewBox="0 0 24 24"><path d="M1,4V20c0,1.657,1.343,3,3,3H20c1.657,0,3-1.343,3-3V4c0-1.657-1.343-3-3-3H4c-1.657,0-3,1.343-3,3Zm6,15.5v-1.5h-1.5c-.276,0-.5-.224-.5-.5v-2c0-.276,.224-.5,.5-.5h5c.276,0,.5,.224,.5,.5v2c0,.276-.224,.5-.5,.5h-1.5v1.5c0,.276-.224,.5-.5,.5h-1c-.276,0-.5-.224-.5-.5Zm10-8.5v8.5c0,.276-.224,.5-.5,.5h-1c-.276,0-.5-.224-.5-.5V11h2Zm0-6.5v1.5h1.5c.276,0,.5,.224,.5,.5v2c0,.276-.224,.5-.5,.5h-5c-.276,0-.5-.224-.5-.5v-2c0-.276,.224-.5,.5-.5h1.5v-1.5c0-.276,.224-.5,.5-.5h1c.276,0,.5,.224,.5,.5Zm-8,0V13h-2V4.5c0-.276,.224-.5,.5-.5h1c.276,0,.5,.224,.5,.5Z" fill="#61616b"></path></svg>