<svg xmlns="http://www.w3.org/2000/svg" height="24" width="24" viewBox="0 0 24 24"><rect y="2" width="14" height="4" rx="1" ry="1" fill="#61616b"></rect><rect y="10" width="14" height="4" rx="1" ry="1" fill="#61616b"></rect><rect y="18" width="14" height="4" rx="1" ry="1" fill="#61616b"></rect><path data-color="color-2" d="M18.707,6.293c-.287-.287-.716-.374-1.09-.217-.374,.154-.617,.52-.617,.924v10c0,.404,.244,.77,.617,.924,.124,.052,.254,.076,.383,.076,.26,0,.516-.102,.707-.293l5-5c.391-.391,.391-1.023,0-1.414l-5-5Z" fill="#61616b"></path></svg>