<svg xmlns="http://www.w3.org/2000/svg" height="24" width="24" viewBox="0 0 24 24"><path d="M20,10H4c-1.105,0-2,.895-2,2v10c0,1.105,.895,2,2,2H20c1.105,0,2-.895,2-2V12c0-1.105-.895-2-2-2Zm-8,9c-1.105,0-2-.895-2-2s.895-2,2-2,2,.895,2,2-.895,2-2,2Z" fill="#61616b"></path><path data-color="color-2" d="M16.798,2.363C15.677,.881,13.968,.02,12.11,0h-.161c-3.252,0-5.915,2.63-5.949,5.9v2.1h2v-2.089c.022-2.165,1.79-3.911,4.047-3.911h.042c1.234,.013,2.369,.585,3.113,1.57,.334,.439,.959,.528,1.401,.194,.44-.333,.527-.96,.194-1.401Z" fill="#61616b"></path></svg>