<svg xmlns="http://www.w3.org/2000/svg" height="24" width="24" viewBox="0 0 24 24"><path d="M12,0C5.373,0,0,5.373,0,12s5.373,12,12,12h1v-2h-1c-5.523,0-10-4.477-10-10S6.477,2,12,2s10,4.477,10,10v1h2v-1C24,5.373,18.627,0,12,0Z" fill="#61616b"></path><path data-color="color-2" d="M23,20h-7c-.552,0-1,.448-1,1s.448,1,1,1h7c.552,0,1-.448,1-1s-.448-1-1-1Z" fill="#61616b"></path><path data-color="color-2" d="M23,16h-7c-.552,0-1,.448-1,1s.448,1,1,1h7c.552,0,1-.448,1-1s-.448-1-1-1Z" fill="#61616b"></path><path d="M17,12c0-.359-.192-.69-.504-.868l-7-4c-.31-.177-.69-.176-.998,.003-.309,.179-.498,.508-.498,.865v8c0,.356,.189,.686,.498,.865,.155,.09,.328,.135,.502,.135,.171,0,.343-.044,.496-.132l7-4c.312-.178,.504-.509,.504-.868Z" fill="#61616b"></path></svg>