<svg xmlns="http://www.w3.org/2000/svg" height="24" width="24" viewBox="0 0 24 24"><path d="M21,18h-6c-.553,0-1-.447-1-1s.447-1,1-1h6c.552,0,1-.448,1-1v-6c0-.552-.448-1-1-1h-6c-.553,0-1-.447-1-1s.447-1,1-1h6c1.654,0,3,1.346,3,3v6c0,1.654-1.346,3-3,3Z" fill="#61616b"></path><path d="M9,18H3c-1.654,0-3-1.346-3-3v-6c0-1.654,1.346-3,3-3h6c.553,0,1,.447,1,1s-.447,1-1,1H3c-.552,0-1,.448-1,1v6c0,.552,.448,1,1,1h6c.553,0,1,.447,1,1s-.447,1-1,1Z" fill="#61616b"></path><path data-color="color-2" d="M16,13H8c-.553,0-1-.447-1-1s.447-1,1-1h8c.553,0,1,.447,1,1s-.447,1-1,1Z" fill="#61616b"></path></svg>