<svg xmlns="http://www.w3.org/2000/svg" height="24" width="24" viewBox="0 0 24 24"><path d="M17,14c-.256,0-.512-.098-.707-.293-.391-.391-.391-1.023,0-1.414l4.414-4.414c.39-.391,.39-1.024,0-1.415l-3.171-3.171c-.39-.387-1.023-.389-1.415,0l-4.414,4.414c-.391,.391-1.023,.391-1.414,0s-.391-1.023,0-1.414L14.707,1.879c1.169-1.169,3.071-1.171,4.242-.002l3.172,3.173c1.17,1.17,1.17,3.073,0,4.242l-4.415,4.415c-.195,.195-.451,.293-.707,.293Z" fill="#61616b"></path><path d="M7.171,22.998c-.768,0-1.535-.291-2.12-.875l-3.172-3.173c-1.17-1.17-1.17-3.073,0-4.242l4.415-4.415c.391-.391,1.023-.391,1.414,0s.391,1.023,0,1.414l-4.414,4.414c-.39,.391-.39,1.024,0,1.415l3.171,3.171c.391,.389,1.024,.39,1.415,0l4.414-4.414c.391-.391,1.023-.391,1.414,0s.391,1.023,0,1.414l-4.414,4.414c-.585,.585-1.354,.877-2.122,.877Z" fill="#61616b"></path><path data-color="color-2" d="M9,16c-.256,0-.512-.098-.707-.293-.391-.391-.391-1.023,0-1.414l6-6c.391-.391,1.023-.391,1.414,0s.391,1.023,0,1.414l-6,6c-.195,.195-.451,.293-.707,.293Z" fill="#61616b"></path></svg>