<svg xmlns="http://www.w3.org/2000/svg" height="24" width="24" viewBox="0 0 24 24"><path d="M21,1H3C1.343,1,0,2.343,0,4V20c0,1.657,1.343,3,3,3H21c1.657,0,3-1.343,3-3V4c0-1.657-1.343-3-3-3ZM7,3c.552,0,1,.448,1,1s-.448,1-1,1-1-.448-1-1,.448-1,1-1Zm-4,0c.552,0,1,.448,1,1s-.448,1-1,1-1-.448-1-1,.448-1,1-1ZM22,20c0,.552-.448,1-1,1H3c-.552,0-1-.448-1-1V7H22v13Z" fill="#61616b"></path><path data-color="color-2" d="M9,15h2v2c0,.552,.448,1,1,1s1-.448,1-1v-2h2c.552,0,1-.448,1-1s-.448-1-1-1h-2v-2c0-.552-.448-1-1-1s-1,.448-1,1v2h-2c-.552,0-1,.448-1,1s.448,1,1,1Z" fill="#61616b"></path></svg>