<svg xmlns="http://www.w3.org/2000/svg" height="24" width="24" viewBox="0 0 24 24"><path d="M21,1H3C1.343,1,0,2.343,0,4V20c0,1.657,1.343,3,3,3H21c1.657,0,3-1.343,3-3V4c0-1.657-1.343-3-3-3ZM7,3c.552,0,1,.448,1,1s-.448,1-1,1-1-.448-1-1,.448-1,1-1Zm-4,0c.552,0,1,.448,1,1s-.448,1-1,1-1-.448-1-1,.448-1,1-1ZM21,21H3c-.552,0-1-.448-1-1V7H22v13c0,.552-.448,1-1,1Z" fill="#61616b"></path><path data-color="color-2" d="M15,15h-6c-.552,0-1-.448-1-1s.448-1,1-1h6c.552,0,1,.448,1,1s-.448,1-1,1Z" fill="#61616b"></path></svg>