<svg xmlns="http://www.w3.org/2000/svg" height="24" width="24" viewBox="0 0 24 24"><path d="M23.627,4.427c-.097-.258-.386-.389-.644-.292-.066,.025-.126,.063-.176,.113l-2.865,2.852-3.043-3.032,2.863-2.85c.118-.117,.169-.284,.137-.447-.032-.165-.145-.302-.3-.366-.817-.356-1.717-.48-2.6-.36-3.341,.291-5.886,3.12-5.822,6.473-.007,.532,.072,1.062,.235,1.569L1.366,16.939c-1.678,1.498-1.825,4.072-.329,5.752l.086,.094c1.503,1.569,3.993,1.624,5.564,.124,.115-.109,.222-.225,.322-.347L15.923,12.541c.961,.238,1.959,.284,2.938,.135,2.339-.48,4.219-2.216,4.883-4.51,.372-1.226,.33-2.539-.117-3.739Z" fill="#61616b"></path></svg>