<svg xmlns="http://www.w3.org/2000/svg" height="24" width="24" viewBox="0 0 24 24"><path d="M8,11c-2.757,0-5-2.243-5-5S5.243,1,8,1s5,2.243,5,5-2.243,5-5,5Z" fill="#61616b"></path><path d="M23,6h-7c-.552,0-1-.448-1-1s.448-1,1-1h7c.552,0,1,.448,1,1s-.448,1-1,1Z" fill="#61616b" data-color="color-2"></path><path d="M23,11h-7c-.552,0-1-.448-1-1s.448-1,1-1h7c.552,0,1,.448,1,1s-.448,1-1,1Z" fill="#61616b" data-color="color-2"></path><path d="M23,16h-5c-.552,0-1-.448-1-1s.448-1,1-1h5c.552,0,1,.448,1,1s-.448,1-1,1Z" fill="#61616b" data-color="color-2"></path><path d="M15,23H1c-.552,0-1-.448-1-1v-1c0-4.411,3.589-8,8-8s8,3.589,8,8v1c0,.552-.448,1-1,1Z" fill="#61616b"></path></svg>