<svg xmlns="http://www.w3.org/2000/svg" height="24" width="24" viewBox="0 0 24 24"><path d="M23.447,19.658l-1.09-2.18c-.435-.869-1.267-1.477-2.228-1.624l-4.566-.703c-1.075,.538-2.282,.848-3.564,.848s-2.489-.31-3.564-.848l-4.566,.703c-.961,.147-1.793,.755-2.228,1.624l-1.09,2.18c-.469,.937-.419,2.028,.131,2.919,.551,.891,1.505,1.423,2.553,1.423H20.764c1.048,0,2.002-.532,2.553-1.423,.55-.891,.6-1.982,.131-2.919Z" fill="#61616b"></path><path d="M12,0c-3.309,0-6,2.691-6,6v2c0,3.309,2.691,6,6,6s6-2.691,6-6v-2c0-3.309-2.691-6-6-6Z" fill="#61616b" data-color="color-2"></path></svg>