<svg xmlns="http://www.w3.org/2000/svg" height="24" width="24" viewBox="0 0 24 24"><path d="M14,10c0-1.044-.236-2.032-.648-2.923-.693,.154-1.291,.55-1.71,1.094,.225,.568,.358,1.182,.358,1.829,0,2.757-2.243,5-5,5s-5-2.243-5-5,2.243-5,5-5c.899,0,1.731,.257,2.46,.674,.517-.63,1.141-1.023,1.731-1.268-1.17-.879-2.618-1.406-4.191-1.406C3.14,3,0,6.14,0,10c0,3.519,2.613,6.432,6,6.92v2.08h-1.5c-.276,0-.5,.224-.5,.5v1c0,.276,.224,.5,.5,.5h1.5v1.5c0,.276,.224,.5,.5,.5h1c.276,0,.5-.224,.5-.5v-1.5h1.5c.276,0,.5-.224,.5-.5v-1c0-.276-.224-.5-.5-.5h-1.5v-2.08c3.387-.488,6-3.401,6-6.92Z" fill="#61616b"></path><path d="M23.56,4.146l-1.146-1.146,.939-.939c.195-.195,.195-.512,0-.707l-.707-.707c-.195-.195-.512-.195-.707,0l-.939,.939-1.146-1.146c-.195-.195-.512-.195-.707,0l-.707,.707c-.195,.195-.195,.512,0,.707l1.146,1.146-1.402,1.402c-1.169-.876-2.615-1.402-4.184-1.402-3.86,0-7,3.14-7,7,0,1.786,.682,3.408,1.787,4.645,.646-.247,1.224-.627,1.709-1.102-.918-.906-1.496-2.154-1.496-3.543,0-2.757,2.243-5,5-5s5,2.243,5,5c0,2.589-1.985,4.699-4.509,4.95-.479,.725-1.057,1.377-1.72,1.935,.4,.071,.809,.115,1.228,.115,3.86,0,7-3.14,7-7,0-1.57-.526-3.016-1.402-4.184l1.402-1.402,1.146,1.146c.195,.195,.512,.195,.707,0l.707-.707c.195-.195,.195-.512,0-.707Z" fill="#61616b" data-color="color-2"></path></svg>