<svg xmlns="http://www.w3.org/2000/svg" height="24" width="24" viewBox="0 0 24 24"><path d="M20.5,17c-1.933,0-3.5-1.567-3.5-3.5s1.567-3.5,3.5-3.5,3.5,1.567,3.5,3.5-1.567,3.5-3.5,3.5h0Z" fill="#61616b"></path><path d="M23,21H1c-.552,0-1-.448-1-1s.448-1,1-1H23c.552,0,1,.448,1,1s-.448,1-1,1Z" fill="#61616b" data-color="color-2"></path><path d="M15,5c-.552,0-1,.448-1,1v6.05c-.165-.033-.332-.05-.5-.05H6.592c.526-.794,1.24-1.9,2.248-3.457,.3-.464,.167-1.083-.297-1.383-.009-.006-.018-.012-.028-.017L3.514,4.142c-.474-.284-1.088-.131-1.372,.343h0c-.284,.474-.131,1.088,.343,1.372l4.114,2.468-2.689,4.159c-.837,1.43-.357,3.268,1.073,4.105,.46,.269,.983,.411,1.516,.411h7c1.381,0,2.5-1.119,2.5-2.5V6c0-.552-.448-1-1-1h0Z" fill="#61616b"></path></svg>