<svg xmlns="http://www.w3.org/2000/svg" height="24" width="24" viewBox="0 0 24 24"><path d="M21.354,1.713C15.325-.561,8.675-.561,2.646,1.713c-.389,.147-.646,.519-.646,.935V14c0,5.523,4.477,10,10,10s10-4.477,10-10V2.648c0-.416-.257-.788-.646-.935Zm-1.354,12.287c-.002,.473-.046,.944-.132,1.409-2.362-1.488-5.078-2.32-7.868-2.409-2.79,.089-5.506,.921-7.868,2.409-.086-.465-.13-.936-.132-1.409v-3.68c5.183-1.792,10.817-1.792,16,0v3.68Zm-8,8c-3.111-.005-5.937-1.812-7.247-4.633,2.152-1.441,4.659-2.26,7.247-2.367,2.588,.107,5.095,.926,7.247,2.367-1.31,2.821-4.136,4.628-7.247,4.633Z" fill="#61616b"></path><path d="M14.001,19.156c-.049,0-.098-.003-.147-.011-.615-.091-1.242-.14-1.861-.145-.604,.005-1.23,.054-1.846,.145-.546,.082-1.055-.296-1.136-.843-.081-.546,.296-1.055,.843-1.136,.707-.104,1.427-.161,2.139-.167,.728,.006,1.447,.062,2.154,.167,.547,.081,.924,.589,.843,1.136-.073,.497-.501,.854-.988,.854Z" fill="#61616b" data-color="color-2"></path></svg>