<svg xmlns="http://www.w3.org/2000/svg" height="24" width="24" viewBox="0 0 24 24"><path d="M22.999,8c-.138,0-.278-.029-.413-.09L12,3.099,1.414,7.91c-.508,.229-1.097,.005-1.324-.497-.229-.502-.007-1.095,.496-1.324L11.586,1.09c.264-.12,.564-.12,.828,0l11,5c.503,.229,.725,.821,.496,1.324-.167,.369-.53,.586-.911,.586Z" fill="#61616b" data-color="color-2"></path><path d="M5.5,16c-3.032,0-5.5,2.467-5.5,5.5v.5c0,.552,.447,1,1,1H10c.553,0,1-.448,1-1v-.5c0-3.033-2.468-5.5-5.5-5.5Z" fill="#61616b"></path><circle cx="5.5" cy="11.5" r="3.5" fill="#61616b"></circle><path d="M18.5,16c-3.032,0-5.5,2.467-5.5,5.5v.5c0,.552,.447,1,1,1h9c.553,0,1-.448,1-1v-.5c0-3.033-2.468-5.5-5.5-5.5Z" fill="#61616b"></path><circle cx="18.5" cy="11.5" r="3.5" fill="#61616b"></circle></svg>