<svg xmlns="http://www.w3.org/2000/svg" height="24" width="24" viewBox="0 0 24 24"><circle cx="6.5" cy="3.5" r="3.5" fill="#61616b" data-color="color-2"></circle><circle cx="17.5" cy="3.5" r="3.5" fill="#61616b" data-color="color-2"></circle><path d="M17.5,9a6.491,6.491,0,0,0-5.465,3,3,3,0,1,1-.07,0A6.49,6.49,0,0,0,0,15.5V22a1,1,0,0,0,1,1H8V20.5L4.4,17.8a1,1,0,0,1,1.2-1.6L9.333,19h5.334L18.4,16.2a1,1,0,1,1,1.2,1.6L16,20.5V23h7a1,1,0,0,0,1-1V15.5A6.508,6.508,0,0,0,17.5,9Z" fill="#61616b"></path></svg>