<svg xmlns="http://www.w3.org/2000/svg" height="24" width="24" viewBox="0 0 24 24"><path d="M7,16h3c.551,0,1-.448,1-1v-3H6v3c0,.552,.449,1,1,1Z" fill="#61616b" data-color="color-2"></path><path d="M14,4h-1v-1c0-1.654-1.346-3-3-3h-3c-1.654,0-3,1.346-3,3v1h-1c-.552,0-1,.447-1,1s.448,1,1,1h1v.5c0,2.481,2.019,4.5,4.5,4.5s4.5-2.019,4.5-4.5v-.5h1c.552,0,1-.447,1-1s-.448-1-1-1Zm-5.5,5c-1.378,0-2.5-1.121-2.5-2.5v-.5h5v.5c0,1.379-1.122,2.5-2.5,2.5Z" fill="#61616b"></path><path d="M23,4h0c-.552,0-1,.448-1,1v4c0,.552-.448,1-1,1V5c0-.552-.448-1-1-1h0c-.552,0-1,.448-1,1v5c-.552,0-1-.448-1-1V5c0-.552-.448-1-1-1h0c-.552,0-1,.448-1,1v4c0,1.657,1.343,3,3,3h2c1.657,0,3-1.343,3-3V5c0-.552-.448-1-1-1Z" fill="#61616b" data-color="color-2"></path><path d="M21,14v9c0,.553-.448,1-1,1s-1-.447-1-1V14h2Z" fill="#61616b" data-color="color-2"></path><path d="M13,12.101v2.899c0,1.654-1.346,3-3,3h-3c-1.654,0-3-1.346-3-3v-2.899c-2.279,.465-4,2.484-4,4.899v6c0,.553,.448,1,1,1H3v-3c0-.553,.448-1,1-1s1,.447,1,1v3h7v-3c0-.553,.448-1,1-1s1,.447,1,1v3h2c.552,0,1-.447,1-1v-6c0-2.414-1.721-4.434-4-4.899Z" fill="#61616b"></path></svg>