<svg xmlns="http://www.w3.org/2000/svg" height="24" width="24" viewBox="0 0 24 24"><path d="M15.5,19h-2.5v-4h-2v4h-2.5c-.276,0-.5,.224-.5,.5v1c0,.276,.224,.5,.5,.5h2.5v2.5c0,.276,.224,.5,.5,.5h1c.276,0,.5-.224,.5-.5v-2.5h2.5c.276,0,.5-.224,.5-.5v-1c0-.276-.224-.5-.5-.5Z" fill="#61616b" data-color="color-2"></path><path d="M12,17c-4.687,0-8.5-3.813-8.5-8.5S7.313,0,12,0s8.5,3.813,8.5,8.5-3.813,8.5-8.5,8.5Zm0-15c-3.584,0-6.5,2.916-6.5,6.5s2.916,6.5,6.5,6.5,6.5-2.916,6.5-6.5-2.916-6.5-6.5-6.5Z" fill="#61616b"></path></svg>