<svg xmlns="http://www.w3.org/2000/svg" height="24" width="24" viewBox="0 0 24 24"><rect x="11" y="1" width="2" height="7" rx=".5" ry=".5" fill="#61616b" data-color="color-2"></rect><circle cx="12" cy="10" r="1" fill="#61616b" data-color="color-2"></circle><path d="M5.5,16c-3.033,0-5.5,2.467-5.5,5.5v.5c0,.552,.448,1,1,1H10c.552,0,1-.448,1-1v-.5c0-3.033-2.467-5.5-5.5-5.5Z" fill="#61616b"></path><circle cx="5.5" cy="11.5" r="3.5" fill="#61616b"></circle><path d="M18.5,16c-3.033,0-5.5,2.467-5.5,5.5v.5c0,.552,.448,1,1,1h9c.552,0,1-.448,1-1v-.5c0-3.033-2.467-5.5-5.5-5.5Z" fill="#61616b"></path><circle cx="18.5" cy="11.5" r="3.5" fill="#61616b"></circle></svg>