<svg xmlns="http://www.w3.org/2000/svg" height="24" width="24" viewBox="0 0 24 24"><circle cx="11" cy="3" r="3" fill="#61616b"></circle><path d="M20,23c-.414,0-.75-.336-.75-.75v-6.25c-.001-.69-.56-1.249-1.25-1.25-.414,0-.75-.336-.75-.75s.336-.75,.75-.75c1.518,.001,2.749,1.232,2.75,2.75v6.25c0,.414-.336,.75-.75,.75Z" fill="#61616b" data-color="color-2"></path><path d="M14.707,17.293l-2.365-2.365c-.215,.658-.651,1.221-1.235,1.593l1.786,1.786-.863,3.45c-.134,.536,.192,1.079,.728,1.213h0c.536,.134,1.079-.192,1.213-.728l1-4.001c.085-.341-.015-.701-.263-.949Z" fill="#61616b"></path><path d="M16.713,13.701c.387-.394,.381-1.027-.013-1.414l-4.821-4.729c-.585-.568-1.46-.717-2.2-.374l-4.1,1.91c-.241,.112-.427,.316-.517,.566l-1.44,3.998c-.187,.52,.083,1.093,.603,1.279h0c.519,.187,1.092-.083,1.279-.603l1.297-3.606,1.45-.676-.711,3.553c-.065,.331-.044,.673,.061,.993l1.3,4.246-1.732,2.599c-.306,.46-.182,1.08,.277,1.387h0c.46,.307,1.081,.182,1.387-.277l1.998-2.997c.169-.253,.214-.568,.124-.858l-.867-2.794c.701-.213,1.229-.794,1.374-1.513l.743-3.718,3.096,3.039c.394,.387,1.027,.381,1.414-.013h0Z" fill="#61616b"></path></svg>