<svg xmlns="http://www.w3.org/2000/svg" height="24" width="24" viewBox="0 0 24 24"><path d="M16,21v-2.09c2.833-.478,5-2.942,5-5.91V6c0-3.314-2.686-6-6-6h-2V13h2.5c.827,0,1.5,.673,1.5,1.5s-.673,1.5-1.5,1.5h-2.5v8h9v-1c0-1.105-.895-2-2-2h-4Zm.5-11c-.827,0-1.5-.673-1.5-1.5s.673-1.5,1.5-1.5,1.5,.673,1.5,1.5-.673,1.5-1.5,1.5Z" fill="#61616b" data-color="color-2"></path><path d="M4,7c2.746,0,5.279-1.221,7-3.361V0C6.928,0,3.564,3.06,3.069,7h.931Z" fill="#61616b"></path><path d="M4,9h-1v2c0,3.35,2.072,6.221,5,7.411v1.808l-7.243,1.812c-.49,.122-.812,.591-.75,1.092,.062,.501,.488,.878,.993,.878H11V6.478c-1.948,1.623-4.395,2.522-7,2.522Z" fill="#61616b"></path><path d="M23,12c-.552,0-1-.447-1-1V7c0-.553,.448-1,1-1s1,.447,1,1v4c0,.553-.448,1-1,1Z" fill="#61616b" data-color="color-2"></path></svg>