<svg xmlns="http://www.w3.org/2000/svg" height="24" width="24" viewBox="0 0 24 24"><path d="M22.895,13.553c-.17-.339-.516-.553-.895-.553h-2V5c0-.552-.447-1-1-1s-1,.448-1,1V13h-2c-.379,0-.725,.214-.895,.553-.169,.339-.133,.744,.095,1.047l3,4c.188,.252,.485,.4,.8,.4s.611-.148,.8-.4l3-4c.228-.303,.264-.708,.095-1.047Z" fill="#61616b" data-color="color-2"></path><circle cx="6.5" cy="3" r="3" fill="#61616b"></circle><path d="M9,7H4c-1.654,0-3,1.346-3,3v5c0,.552,.447,1,1,1h1v7c0,.552,.447,1,1,1h5c.553,0,1-.448,1-1v-7h1c.553,0,1-.448,1-1v-5c0-1.654-1.346-3-3-3Z" fill="#61616b"></path></svg>