<svg xmlns="http://www.w3.org/2000/svg" height="24" width="24" viewBox="0 0 24 24"><path d="M12,5c1.381,0,2.5,1.119,2.5,2.5s-1.119,2.5-2.5,2.5-2.5-1.119-2.5-2.5,1.119-2.5,2.5-2.5Zm3.868,12h-7.736c-.653,0-1.137-.619-.974-1.251,.555-2.156,2.513-3.749,4.842-3.749s4.287,1.593,4.842,3.749c.163,.633-.321,1.251-.974,1.251Z" fill="#61616b" data-color="color-2"></path><path d="M18,24H6c-1.654,0-3-1.346-3-3V3c0-1.654,1.346-3,3-3h12c1.654,0,3,1.346,3,3V21c0,1.654-1.346,3-3,3ZM6,2c-.551,0-1,.449-1,1V20c0,.551,.449,1,1,1h12c.551,0,1-.449,1-1V3c0-.551-.449-1-1-1H6Z" fill="#61616b"></path></svg>