<svg xmlns="http://www.w3.org/2000/svg" height="24" width="24" viewBox="0 0 24 24"><circle cx="6.5" cy="9.5" r="3.5" fill="#61616b" data-color="color-2"></circle><circle cx="16" cy="4.5" r="4.5" fill="#61616b"></circle><path d="M15.452,11.018c-2.178,.146-4.077,1.2-5.416,2.762,2.924,1.345,4.964,4.295,4.964,7.72v.5c0,.352-.072,.686-.184,1h8.184c.552,0,1-.448,1-1v-3c0-4.592-3.89-8.294-8.548-7.982Z" fill="#61616b"></path><path d="M5.644,15.055C2.368,15.476,0,18.424,0,21.727v.273c0,.552,.448,1,1,1H12c.552,0,1-.448,1-1v-.5c0-3.866-3.392-6.954-7.356-6.445Z" fill="#61616b" data-color="color-2"></path></svg>