<svg xmlns="http://www.w3.org/2000/svg" height="24" width="24" viewBox="0 0 24 24"><path d="M12,17c-1.93,0-3.5-1.57-3.5-3.5s1.57-3.5,3.5-3.5,3.5,1.57,3.5,3.5-1.57,3.5-3.5,3.5Z" fill="#61616b"></path><path d="M12,7c-1.93,0-3.5-1.57-3.5-3.5s1.57-3.5,3.5-3.5,3.5,1.57,3.5,3.5-1.57,3.5-3.5,3.5Z" fill="#61616b" data-color="color-2"></path><path d="M3.5,12c-1.93,0-3.5-1.57-3.5-3.5s1.57-3.5,3.5-3.5,3.5,1.57,3.5,3.5-1.57,3.5-3.5,3.5Z" fill="#61616b" data-color="color-2"></path><path d="M20.5,12c-1.93,0-3.5-1.57-3.5-3.5s1.57-3.5,3.5-3.5,3.5,1.57,3.5,3.5-1.57,3.5-3.5,3.5Z" fill="#61616b" data-color="color-2"></path><path d="M17.658,24H6.342c-.324,0-.629-.158-.816-.422-.188-.265-.234-.604-.127-.911,.986-2.792,3.64-4.667,6.602-4.667s5.615,1.875,6.602,4.667c.107,.306,.061,.646-.127,.911-.188,.265-.492,.422-.816,.422Z" fill="#61616b"></path></svg>