<svg xmlns="http://www.w3.org/2000/svg" height="24" width="24" viewBox="0 0 24 24"><circle cx="11" cy="3" r="3" fill="#61616b"></circle><path d="M9,21v2a1,1,0,0,0,1,1h1a1,1,0,0,0,.949-.684L12.721,21Z" fill="#61616b"></path><path d="M16.521,17.112a4.931,4.931,0,0,0-1.692-6.206l-.663-2.432A2,2,0,0,0,12.236,7H9.721a2,2,0,0,0-1.9,1.366l-.67,2a1,1,0,0,0,.577,1.245l4.105,1.643a.5.5,0,0,1,.278.65l-.371.928a.5.5,0,0,1-.65.278l-4.1-1.642-.973,5.349A1,1,0,0,0,7,20h9a1,1,0,0,0,.965-1.263Z" fill="#61616b" data-color="color-2"></path></svg>