<svg xmlns="http://www.w3.org/2000/svg" height="24" width="24" viewBox="0 0 24 24"><path d="M23,7c-.139,0-.279-.029-.413-.09L12,2.099,1.414,6.91c-.501,.227-1.096,.006-1.324-.497-.229-.502-.006-1.095,.497-1.324L11.586,.09c.263-.12,.564-.12,.827,0l11,5c.503,.229,.725,.821,.497,1.324-.167,.369-.531,.586-.911,.586Z" fill="#61616b" data-color="color-2"></path><path d="M12,13c-2.206,0-4-1.794-4-4s1.794-4,4-4,4,1.794,4,4-1.794,4-4,4Z" fill="#61616b"></path><path d="M19,24H5c-.552,0-1-.448-1-1,0-4.411,3.589-8,8-8s8,3.589,8,8c0,.552-.448,1-1,1Z" fill="#61616b"></path></svg>