<svg xmlns="http://www.w3.org/2000/svg" height="24" width="24" viewBox="0 0 24 24"><path d="M12,8h0A4,4,0,0,1,8,4H8a4,4,0,0,1,4-4h0a4,4,0,0,1,4,4h0A4,4,0,0,1,12,8Z" fill="#61616b"></path><path d="M22.914,19.594l-3.473-7.813A3,3,0,0,0,16.7,10H7.3a3,3,0,0,0-2.741,1.781L1.086,19.594A1,1,0,0,0,2.243,20.97L6,20.03V24H18V20.03l3.757.94a1,1,0,0,0,1.157-1.376ZM3.747,18.532,6,13.462v4.507Zm10.01.438L16,19.53V21l-4,1L8,21V19.53l2.243-.56-.486-1.94L8,17.469V14l4,1,4-1v3.469l-1.757-.439Zm4.243-1V13.462l2.253,5.07Z" fill="#61616b"></path></svg>