<svg xmlns="http://www.w3.org/2000/svg" height="24" width="24" viewBox="0 0 24 24"><circle cx="19.5" cy="3.5" r="2.5" fill="#61616b"></circle><circle cx="4.5" cy="3.5" r="2.5" fill="#61616b"></circle><path d="M5,7h-1C1.791,7,0,8.791,0,11v3c0,.552,.448,1,1,1h1v5c0,.552,.448,1,1,1h.5c0-.806,.392-1.566,1.047-2.035l2.453-1.752v-2.214h1c.552,0,1-.448,1-1v-3c0-2.209-1.791-4-4-4Z" fill="#61616b"></path><path d="M19.453,18.965l-2.453-1.752v-2.214s-1,0-1,0c-.552,0-1-.448-1-1v-3c0-2.209,1.791-4,4-4h1c2.209,0,4,1.791,4,4v3c0,.552-.448,1-1,1h-1s0,5,0,5c0,.552-.448,1-1,1h-.5c0-.806-.392-1.566-1.047-2.035Z" fill="#61616b"></path><path d="M18.291,20.593l-3.5-2.5c-.153-.109-.353-.124-.52-.038-.167,.085-.271,.257-.271,.444v1.5h-4v-1.5c0-.187-.104-.359-.271-.444-.168-.087-.368-.071-.52,.038l-3.5,2.5c-.131,.094-.209,.245-.209,.407s.078,.313,.209,.407l3.5,2.5c.086,.062,.188,.093,.291,.093,.078,0,.157-.019,.229-.056,.167-.085,.271-.257,.271-.444v-1.5h4v1.5c0,.188,.104,.359,.271,.444,.072,.038,.151,.056,.229,.056,.103,0,.204-.031,.291-.093l3.5-2.5c.131-.094,.209-.245,.209-.407s-.078-.313-.209-.407Z" fill="#61616b" data-color="color-2"></path></svg>