<svg xmlns="http://www.w3.org/2000/svg" height="24" width="24" viewBox="0 0 24 24"><path d="M19.832,13.445l-3.406-5.109c-.556-.835-1.493-1.336-2.496-1.336h-3.859c-1.003,0-1.94,.501-2.496,1.336l-3.406,5.109c-.306,.459-.182,1.081,.277,1.387s1.08,.182,1.387-.277l2.625-3.937-1.437,7.186c-.059,.294,.017,.599,.207,.83,.19,.232,.474,.366,.773,.366h1v4c0,.552,.448,1,1,1s1-.448,1-1v-4h2v4c0,.552,.448,1,1,1s1-.448,1-1v-4h1c.3,0,.583-.134,.773-.366,.19-.231,.266-.536,.207-.83l-1.437-7.186,2.625,3.937c.193,.289,.51,.445,.833,.445,.19,0,.383-.054,.554-.168,.459-.306,.583-.927,.277-1.387Z" fill="#61616b"></path><circle cx="12" cy="3" r="3" fill="#61616b" data-color="color-2"></circle></svg>