<svg xmlns="http://www.w3.org/2000/svg" height="24" width="24" viewBox="0 0 24 24"><circle cx="12" cy="3" r="3" fill="#61616b" data-color="color-2"></circle><path d="M19.919,14.606l-2.48-5.788c-.473-1.103-1.557-1.818-2.757-1.818h-5.362c-1.2,0-2.285,.715-2.757,1.818l-2.48,5.788c-.218,.508,.018,1.096,.525,1.313,.507,.217,1.096-.018,1.313-.525l2.081-4.856v12.462c0,.552,.448,1,1,1s1-.448,1-1v-6h4v6c0,.552,.448,1,1,1s1-.448,1-1V10.538l2.081,4.856c.162,.379,.531,.606,.919,.606,.131,0,.265-.026,.394-.082,.507-.217,.743-.805,.525-1.313Z" fill="#61616b"></path></svg>