<svg xmlns="http://www.w3.org/2000/svg" height="24" width="24" viewBox="0 0 24 24"><path d="M23.645,10.245l-.024-.019L12.621,1.226c-.368-.301-.898-.301-1.266,0L.355,10.226c-.422,.356-.476,.987-.119,1.409,.348,.413,.962,.474,1.385,.139l1.367-1.118v11.344c0,.552,.448,1,1,1H19.988c.552,0,1-.448,1-1V10.656l1.367,1.118c.422,.356,1.053,.303,1.41-.12,.356-.422,.303-1.053-.12-1.409Zm-11.645-2.245c1.381,0,2.5,1.119,2.5,2.5s-1.119,2.5-2.5,2.5-2.5-1.119-2.5-2.5,1.119-2.5,2.5-2.5Zm-3.868,12c-.653,0-1.137-.619-.974-1.251,.556-2.156,2.513-3.749,4.842-3.749s4.287,1.593,4.842,3.749c.163,.633-.321,1.251-.974,1.251h-7.736Z" fill="#61616b"></path></svg>