<svg xmlns="http://www.w3.org/2000/svg" height="24" width="24" viewBox="0 0 24 24"><path d="M12,6h0c-1.657,0-3-1.343-3-3h0c0-1.657,1.343-3,3-3h0c1.657,0,3,1.343,3,3h0c0,1.657-1.343,3-3,3Z" fill="#61616b"></path><path d="M6,19c-1.105,0-2-.895-2-2v-6c0-1.13,.391-2.162,1.026-3H2c-1.105,0-2,.895-2,2v5c0,.552,.448,1,1,1h1v5c0,.552,.448,1,1,1h2c.552,0,1-.448,1-1v-2h0Z" fill="#61616b" data-color="color-2"></path><path d="M14,24h-4c-.552,0-1-.448-1-1v-6h-2c-.552,0-1-.448-1-1v-5c0-1.657,1.343-3,3-3h6c1.657,0,3,1.343,3,3v5c0,.552-.448,1-1,1h-2v6c0,.552-.448,1-1,1Z" fill="#61616b"></path><path d="M4,7h0c-1.105,0-2-.895-2-2h0c0-1.105,.895-2,2-2h0c1.105,0,2,.895,2,2h0c0,1.105-.895,2-2,2Z" fill="#61616b" data-color="color-2"></path><path d="M18,19c1.105,0,2-.895,2-2v-6c0-1.13-.391-2.162-1.026-3h3.026c1.105,0,2,.895,2,2v5c0,.552-.448,1-1,1h-1v5c0,.552-.448,1-1,1h-2c-.552,0-1-.448-1-1v-2h0Z" fill="#61616b" data-color="color-2"></path><path d="M20,7h0c1.105,0,2-.895,2-2h0c0-1.105-.895-2-2-2h0c-1.105,0-2,.895-2,2h0c0,1.105,.895,2,2,2Z" fill="#61616b" data-color="color-2"></path></svg>