<svg xmlns="http://www.w3.org/2000/svg" height="24" width="24" viewBox="0 0 24 24"><circle data-color="color-2" cx="6" cy="3" r="3" fill="#61616b"></circle><circle data-color="color-2" cx="18" cy="3" r="3" fill="#61616b"></circle><path d="M21.8,9.412A3.009,3.009,0,0,0,18.86,7H17.14A3.009,3.009,0,0,0,14.2,9.412L12.52,17.8A1,1,0,0,0,13.5,19h1.6l.41,4.1a1,1,0,0,0,.995.9h3a1,1,0,0,0,1-.9l.41-4.1H22.5a1,1,0,0,0,.98-1.2Z" fill="#61616b"></path><path d="M8,7H4a3,3,0,0,0-3,3v6a1,1,0,0,0,.553.895L3,17.618V23a1,1,0,0,0,1,1H8a1,1,0,0,0,1-1V17.618l1.447-.723A1,1,0,0,0,11,16V10A3,3,0,0,0,8,7Z" fill="#61616b"></path></svg>