<svg xmlns="http://www.w3.org/2000/svg" height="24" width="24" viewBox="0 0 24 24"><path d="M16.5,19H7.5c-.552,0-1-.448-1-1v-.5c0-3.033,2.467-5.5,5.5-5.5s5.5,2.467,5.5,5.5v.5c0,.552-.448,1-1,1Z" fill="#61616b" data-color="color-2"></path><path d="M12,11c-1.93,0-3.5-1.57-3.5-3.5s1.57-3.5,3.5-3.5,3.5,1.57,3.5,3.5-1.57,3.5-3.5,3.5Z" fill="#61616b" data-color="color-2"></path><path d="M2,9c-.552,0-1-.448-1-1V4c0-1.654,1.346-3,3-3h4c.552,0,1,.448,1,1s-.448,1-1,1H4c-.551,0-1,.449-1,1v4c0,.552-.448,1-1,1Z" fill="#61616b"></path><path d="M22,9c-.552,0-1-.448-1-1V4c0-.551-.449-1-1-1h-4c-.552,0-1-.448-1-1s.448-1,1-1h4c1.654,0,3,1.346,3,3v4c0,.552-.448,1-1,1Z" fill="#61616b"></path><path d="M20,23h-4c-.552,0-1-.448-1-1s.448-1,1-1h4c.551,0,1-.449,1-1v-4c0-.552,.448-1,1-1s1,.448,1,1v4c0,1.654-1.346,3-3,3Z" fill="#61616b"></path><path d="M8,23H4c-1.654,0-3-1.346-3-3v-4c0-.552,.448-1,1-1s1,.448,1,1v4c0,.551,.449,1,1,1h4c.552,0,1,.448,1,1s-.448,1-1,1Z" fill="#61616b"></path></svg>