<svg xmlns="http://www.w3.org/2000/svg" height="24" width="24" viewBox="0 0 24 24"><circle cx="10" cy="5.5" r="5.5" fill="#61616b"></circle><path d="M12,23v-5c0-1.304,.836-2.416,2-2.829v-.171c0-.378,.05-.743,.13-1.097-1.261-.575-2.656-.903-4.13-.903C4.486,13,0,17.486,0,23c0,.553,.448,1,1,1H12.184c-.112-.314-.184-.648-.184-1Z" fill="#61616b"></path><path d="M23,17h-1v-2c0-1.654-1.346-3-3-3s-3,1.346-3,3v2h-1c-.552,0-1,.448-1,1v5c0,.552,.448,1,1,1h8c.552,0,1-.448,1-1v-5c0-.552-.448-1-1-1Zm-5-2c0-.551,.449-1,1-1s1,.449,1,1v2h-2v-2Z" fill="#61616b" data-color="color-2"></path></svg>