<svg xmlns="http://www.w3.org/2000/svg" height="24" width="24" viewBox="0 0 24 24"><path d="M12,12c2.757,0,5-2.243,5-5v-2c0-2.757-2.243-5-5-5S7,2.243,7,5v2c0,2.757,2.243,5,5,5Z" fill="#61616b"></path><path d="M21.183,19h-4.683c-1.379,0-2.5-1.122-2.5-2.5v-1c0-.991,.584-1.842,1.423-2.246-2.709-.358-5.477-.315-8.161,.181-1.831,.34-3.35,1.729-3.866,3.54l-1.357,4.75c-.075,.265-.038,.549,.102,.785,.141,.237,.372,.405,.641,.465,3.021,.68,6.123,1.024,9.22,1.024s6.198-.345,9.22-1.024c.269-.061,.5-.229,.641-.465,.14-.236,.177-.521,.102-.785l-.779-2.725Z" fill="#61616b"></path><rect x="16" y="15" width="8" height="2" rx=".5" ry=".5" fill="#61616b" data-color="color-2"></rect></svg>