<svg xmlns="http://www.w3.org/2000/svg" height="24" width="24" viewBox="0 0 24 24"><rect x="10" y="17" width="4" height="2" rx=".5" ry=".5" fill="#61616b" data-color="color-2"></rect><path d="M22,6h-.834C19.588,2.384,15.992,0,12,0S4.423,2.384,2.838,6h-.838c-1.103,0-2,.897-2,2v4c0,1.441,1.022,2.647,2.379,2.934,.002,.008,0,.015,.002,.022,1.213,4.356,4.741,9.044,9.619,9.044,4.906,0,8.427-4.69,9.621-9.048,.002-.006,0-.012,0-.018,1.357-.288,2.378-1.493,2.378-2.934v-4c0-1.103-.897-2-2-2ZM12,2c2.886,0,5.504,1.565,6.915,4h-3.915c-1.103,0-2,.897-2,2h-2c0-1.103-.897-2-2-2h-3.91c1.417-2.435,4.032-4,6.91-4Zm0,20c-3.476,0-6.332-3.431-7.513-7h2.513c2.206,0,4-1.794,4-4v-1h2v1c0,2.206,1.794,4,4,4h2.515c-1.164,3.568-4.017,7-7.515,7Z" fill="#61616b"></path></svg>