<svg xmlns="http://www.w3.org/2000/svg" height="24" width="24" viewBox="0 0 24 24"><path d="M23.371,14.749l-3.742-1.5A1,1,0,0,1,19,12.323v-.878A3.982,3.982,0,0,0,21,8V6.172A4.087,4.087,0,0,0,17,2a4.087,4.087,0,0,0-4,4.172V8a3.982,3.982,0,0,0,2,3.445v.878a1,1,0,0,1-.629.928l-2.178.872,1.921.768A2.988,2.988,0,0,1,16,17.677V20a2.966,2.966,0,0,1-.184,1H23a1,1,0,0,0,1-1V15.677A1,1,0,0,0,23.371,14.749Z" fill="#61616b" data-color="color-2"></path> <path d="M13.371,16.749l-3.742-1.5A1,1,0,0,1,9,14.323v-.878A3.982,3.982,0,0,0,11,10V8.172A4.087,4.087,0,0,0,7,4,4.087,4.087,0,0,0,3,8.172V10a3.982,3.982,0,0,0,2,3.445v.878a1,1,0,0,1-.629.928l-3.742,1.5A1,1,0,0,0,0,17.677V20a1,1,0,0,0,1,1H13a1,1,0,0,0,1-1V17.677A1,1,0,0,0,13.371,16.749Z" fill="#61616b"></path></svg>