<svg xmlns="http://www.w3.org/2000/svg" height="24" width="24" viewBox="0 0 24 24"><path d="M23,0H12c-.552,0-1,.448-1,1V9.149c0,.945,1.19,1.363,1.781,.625l2.219-2.774h8c.552,0,1-.448,1-1V1c0-.552-.448-1-1-1Z" fill="#61616b" data-color="color-2"></path><path d="M5.5,17c-3.032,0-5.5,2.467-5.5,5.5v.5c0,.552,.447,1,1,1H10c.553,0,1-.448,1-1v-.5c0-3.033-2.468-5.5-5.5-5.5Z" fill="#61616b"></path><circle cx="5.5" cy="12.5" r="3.5" fill="#61616b"></circle><path d="M18.5,17c-3.032,0-5.5,2.467-5.5,5.5v.5c0,.552,.447,1,1,1h9c.553,0,1-.448,1-1v-.5c0-3.033-2.468-5.5-5.5-5.5Z" fill="#61616b"></path><circle cx="18.5" cy="12.5" r="3.5" fill="#61616b"></circle></svg>