<svg xmlns="http://www.w3.org/2000/svg" height="24" width="24" viewBox="0 0 24 24"><path d="M23.371,14.749l-3.742-1.5A1,1,0,0,1,19,12.323v-.878A3.982,3.982,0,0,0,21,8V6.172a4.116,4.116,0,0,0-3.607-4.153A4,4,0,0,0,13,6V8a3.982,3.982,0,0,0,2,3.445v.878a4.737,4.737,0,0,1-1.6,2.065c-.068.044-.134.093-.2.138l.911.365A2.988,2.988,0,0,1,16,17.677V20a2.966,2.966,0,0,1-.184,1H23a1,1,0,0,0,1-1V15.677A1,1,0,0,0,23.371,14.749Z" fill="#61616b" data-color="color-2"></path> <path d="M13.371,16.749l-3.742-1.5A1,1,0,0,1,9,14.323v-.451a7.18,7.18,0,0,0,3.248-1.115.988.988,0,0,0,.181-1.416A5.991,5.991,0,0,1,11,8.038a3.879,3.879,0,0,0-1.9-3.5A4.046,4.046,0,0,0,3,8a5.943,5.943,0,0,1-1.429,3.342.987.987,0,0,0,.181,1.415A7.18,7.18,0,0,0,5,13.872v.451a1,1,0,0,1-.629.928l-3.742,1.5A1,1,0,0,0,0,17.677V20a1,1,0,0,0,1,1H13a1,1,0,0,0,1-1V17.677A1,1,0,0,0,13.371,16.749Z" fill="#61616b"></path></svg>