<svg xmlns="http://www.w3.org/2000/svg" height="24" width="24" viewBox="0 0 24 24"><circle cx="10" cy="5.5" r="5.5" fill="#61616b"></circle><path d="M12.53,23.076l.398-2.322-1.688-1.646c-.675-.655-.925-1.662-.633-2.562,.289-.896,1.081-1.566,2.017-1.703l2.333-.338,.068-.137c-1.479-.865-3.193-1.369-5.026-1.369C4.486,13,0,17.486,0,23c0,.553,.448,1,1,1H12.568c-.063-.302-.091-.612-.037-.924Z" fill="#61616b"></path><path d="M23.976,17.164c-.059-.182-.216-.313-.403-.341l-3.372-.489-1.509-3.057c-.168-.34-.729-.34-.896,0l-1.509,3.057-3.372,.489c-.188,.027-.345,.159-.403,.341-.059,.181-.01,.38,.127,.513l2.439,2.379-.576,3.359c-.032,.188,.045,.377,.199,.488,.154,.113,.358,.128,.526,.038l3.017-1.586,3.017,1.586c.073,.039,.152,.058,.232,.058,.104,0,.207-.032,.294-.096,.154-.111,.231-.301,.199-.488l-.576-3.359,2.439-2.379c.137-.133,.186-.332,.127-.513Z" fill="#61616b" data-color="color-2"></path></svg>