<svg xmlns="http://www.w3.org/2000/svg" height="24" width="24" viewBox="0 0 24 24"><path d="M21,1H3C1.346,1,0,2.346,0,4v13c0,1.654,1.346,3,3,3h5.198l3.033,3.64c.19,.228,.472,.36,.769,.36s.578-.132,.769-.36l3.033-3.64h5.198c1.654,0,3-1.346,3-3V4c0-1.654-1.346-3-3-3Zm-9,3c1.381,0,2.5,1.119,2.5,2.5s-1.119,2.5-2.5,2.5-2.5-1.119-2.5-2.5,1.119-2.5,2.5-2.5Zm3.868,12h-7.736c-.653,0-1.137-.619-.974-1.251,.555-2.156,2.513-3.749,4.842-3.749s4.287,1.593,4.842,3.749c.163,.633-.321,1.251-.974,1.251Z" fill="#61616b"></path></svg>