<svg xmlns="http://www.w3.org/2000/svg" height="24" width="24" viewBox="0 0 24 24"><path d="M12,12c2.757,0,5-2.243,5-5v-2c0-2.757-2.243-5-5-5S7,2.243,7,5v2c0,2.757,2.243,5,5,5Z" fill="#61616b"></path><path d="M21.914,21.559c-.403,.277-.889,.441-1.414,.441h-1c-1.378,0-2.5-1.121-2.5-2.5v-.5h-.5c-1.378,0-2.5-1.121-2.5-2.5v-1c0-.991,.584-1.842,1.422-2.246-2.709-.359-5.475-.316-8.16,.181-1.831,.34-3.349,1.729-3.867,3.54l-1.357,4.75c-.076,.265-.039,.548,.102,.785,.14,.236,.372,.404,.64,.465,3.019,.68,6.121,1.024,9.22,1.024s6.201-.345,9.22-1.024c.268-.061,.5-.229,.64-.465,.141-.237,.177-.521,.102-.785l-.048-.167Z" fill="#61616b"></path><path d="M23.5,15h-2.5v-2.5c0-.276-.224-.5-.5-.5h-1c-.276,0-.5,.224-.5,.5v2.5h-2.5c-.276,0-.5,.224-.5,.5v1c0,.276,.224,.5,.5,.5h2.5v2.5c0,.276,.224,.5,.5,.5h1c.276,0,.5-.224,.5-.5v-2.5h2.5c.276,0,.5-.224,.5-.5v-1c0-.276-.224-.5-.5-.5Z" fill="#61616b" data-color="color-2"></path></svg>