<svg xmlns="http://www.w3.org/2000/svg" height="24" width="24" viewBox="0 0 24 24"><circle cx="10" cy="5.5" r="5.5" fill="#61616b"></circle><path d="M10.13,22.708l1.5-4.499c.122-.366,.331-.704,.604-.977l2.836-2.836c-1.489-.881-3.219-1.396-5.07-1.396C4.486,13,0,17.486,0,23c0,.553,.448,1,1,1H10.058c-.086-.421-.071-.864,.072-1.292Z" fill="#61616b"></path><path d="M23.234,12.768c-1.022-1.021-2.686-1.021-3.707,0l-5.879,5.879c-.055,.055-.096,.122-.121,.195l-1.5,4.5c-.06,.18-.013,.378,.121,.512,.095,.096,.223,.146,.354,.146,.053,0,.106-.009,.158-.025l4.5-1.5c.074-.024,.141-.066,.195-.121l5.879-5.879c1.021-1.021,1.021-2.685,0-3.707Z" fill="#61616b" data-color="color-2"></path></svg>