<svg xmlns="http://www.w3.org/2000/svg" height="24" width="24" viewBox="0 0 24 24"><circle cx="10" cy="5.5" r="5.5" fill="#61616b"></circle><path d="M10,13C4.486,13,0,17.486,0,23c0,.553,.448,1,1,1H19c.552,0,1-.447,1-1,0-5.514-4.486-10-10-10Z" fill="#61616b"></path><path d="M23.5,10h-2.5v-2.5c0-.276-.224-.5-.5-.5h-1c-.276,0-.5,.224-.5,.5v2.5h-2.5c-.276,0-.5,.224-.5,.5v1c0,.276,.224,.5,.5,.5h2.5v2.5c0,.276,.224,.5,.5,.5h1c.276,0,.5-.224,.5-.5v-2.5h2.5c.276,0,.5-.224,.5-.5v-1c0-.276-.224-.5-.5-.5Z" fill="#61616b" data-color="color-2"></path></svg>