<svg xmlns="http://www.w3.org/2000/svg" height="24" width="24" viewBox="0 0 24 24"><path d="M5.5,17c-3.033,0-5.5,2.467-5.5,5.5v.5c0,.552,.448,1,1,1H10c.552,0,1-.448,1-1v-.5c0-3.033-2.467-5.5-5.5-5.5Z" fill="#61616b"></path><path d="M18.5,17c-3.033,0-5.5,2.467-5.5,5.5v.5c0,.552,.448,1,1,1h9c.552,0,1-.448,1-1v-.5c0-3.033-2.467-5.5-5.5-5.5Z" fill="#61616b"></path><path d="M8,14c-1.654,0-3-1.346-3-3v-1.949c-1.692,.245-3,1.691-3,3.449,0,1.93,1.57,3.5,3.5,3.5,1.391,0,2.585-.822,3.149-2h-.649Z" fill="#61616b"></path><path d="M16,14c1.654,0,3-1.346,3-3v-1.949c1.692,.245,3,1.691,3,3.449,0,1.93-1.57,3.5-3.5,3.5-1.391,0-2.585-.822-3.149-2h.649Z" fill="#61616b"></path><path d="M16,5h-1V3c0-1.654-1.346-3-3-3s-3,1.346-3,3v2h-1c-.552,0-1,.447-1,1v5c0,.553,.448,1,1,1h8c.552,0,1-.447,1-1V6c0-.553-.448-1-1-1Zm-5-2c0-.552,.449-1,1-1s1,.448,1,1v2h-2V3Z" fill="#61616b" data-color="color-2"></path></svg>