<svg xmlns="http://www.w3.org/2000/svg" height="24" width="24" viewBox="0 0 24 24"><circle cx="10" cy="5.5" r="5.5" fill="#61616b"></circle><path d="M11.579,20.474c-1.969-2.023-2.066-5.22-.341-7.389-.406-.05-.818-.085-1.237-.085C4.486,13,0,17.486,0,23c0,.553,.448,1,1,1H15.012l-3.433-3.526Z" fill="#61616b"></path><path d="M22.988,14.05c-.739-.759-1.76-1.141-2.804-1.032-.842,.082-1.612,.469-2.184,1.084-.573-.615-1.342-1.002-2.184-1.084-1.044-.108-2.065,.273-2.804,1.032-1.349,1.386-1.349,3.641,0,5.028l4.656,4.782c.087,.09,.207,.14,.332,.14s.245-.05,.332-.14l4.657-4.782c1.349-1.386,1.349-3.642,0-5.028Z" fill="#61616b" data-color="color-2"></path></svg>