<svg xmlns="http://www.w3.org/2000/svg" height="24" width="24" viewBox="0 0 24 24"><circle cx="11" cy="5.5" r="5.5" fill="#61616b"></circle><path d="M18.188,23.211l-.464-.278c-.237,.045-.479,.067-.724,.067-2.206,0-4-1.794-4-4s1.782-3.985,3.977-3.998c-1.67-1.251-3.735-2.002-5.977-2.002-5.514,0-10,4.486-10,10,0,.553,.448,1,1,1H18.55c-.145-.249-.274-.509-.363-.789Z" fill="#61616b"></path><path d="M22,20c-.35,0-.674,.098-.961,.257l-2.042-1.225c0-.011,.003-.021,.003-.032s-.003-.021-.003-.032l2.042-1.225c.287,.159,.611,.257,.961,.257,1.103,0,2-.897,2-2s-.897-2-2-2-2,.897-2,2c0,.011,.003,.021,.003,.032l-2.042,1.225c-.287-.159-.611-.257-.961-.257-1.103,0-2,.897-2,2s.897,2,2,2c.35,0,.674-.098,.961-.257l2.042,1.225c0,.011-.003,.021-.003,.032,0,1.103,.897,2,2,2s2-.897,2-2-.897-2-2-2Z" fill="#61616b" data-color="color-2"></path></svg>