<svg xmlns="http://www.w3.org/2000/svg" height="24" width="24" viewBox="0 0 24 24"><path d="M9,2c-2.757,0-5,2.243-5,5v2c0,2.757,2.243,5,5,5s5-2.243,5-5v-2c0-2.757-2.243-5-5-5Z" fill="#61616b"></path><path d="M23.598,14.507l-.612-3.671c-.053-.315-.253-.587-.539-.73l-1.482-.741c-.967,1.423-2.529,2.409-4.326,2.601l.703,.351c.899,.45,1.51,1.313,1.635,2.311l.421,3.373h1.241c.883,0,1.718-.387,2.289-1.061,.571-.674,.815-1.561,.67-2.432Z" fill="#61616b" data-color="color-2"></path><path d="M16,0c-1.166,0-2.208,.51-2.939,1.309,1.776,1.271,2.939,3.346,2.939,5.691v2c0,.338-.032,.667-.079,.992,.027,0,.052,.008,.079,.008,2.206,0,4-1.794,4-4v-2c0-2.206-1.794-4-4-4Z" fill="#61616b" data-color="color-2"></path><path d="M17.711,20.628l-.719-5.752c-.042-.332-.246-.621-.545-.771l-1.847-.924c-1.278,1.707-3.309,2.818-5.6,2.818s-4.323-1.111-5.6-2.818l-1.847,.924c-.299,.149-.503,.439-.545,.771l-.719,5.752c-.107,.854,.158,1.712,.728,2.357,.569,.645,1.389,1.015,2.249,1.015H14.734c.86,0,1.68-.37,2.249-1.015,.569-.645,.834-1.504,.728-2.357Z" fill="#61616b"></path></svg>