<svg xmlns="http://www.w3.org/2000/svg" height="24" width="24" viewBox="0 0 24 24"><path d="M23,6h-6c-.552,0-1-.448-1-1s.448-1,1-1h6c.552,0,1,.448,1,1s-.448,1-1,1Z" fill="#61616b" data-color="color-2"></path><path d="M23,11h-6c-.552,0-1-.448-1-1s.448-1,1-1h6c.552,0,1,.448,1,1s-.448,1-1,1Z" fill="#61616b" data-color="color-2"></path><path d="M23,16h-3c-.552,0-1-.448-1-1s.448-1,1-1h3c.552,0,1,.448,1,1s-.448,1-1,1Z" fill="#61616b" data-color="color-2"></path><path d="M17.664,19.576l-.674-4.717c-.046-.325-.249-.606-.542-.753l-2.442-1.221c-1.272,1.303-3.044,2.116-5.005,2.116s-3.733-.813-5.005-2.116l-2.442,1.221c-.293,.147-.496,.428-.542,.753l-.674,4.717c-.124,.861,.133,1.732,.703,2.39,.57,.658,1.396,1.035,2.267,1.035H14.694c.871,0,1.697-.377,2.267-1.035,.57-.658,.827-1.528,.703-2.39Z" fill="#61616b"></path><path d="M9,1c-2.757,0-5,2.243-5,5v2c0,2.757,2.243,5,5,5s5-2.243,5-5v-2c0-2.757-2.243-5-5-5Z" fill="#61616b"></path></svg>