<svg xmlns="http://www.w3.org/2000/svg" height="24" width="24" viewBox="0 0 24 24"><circle cx="10" cy="5.5" r="5.5" fill="#61616b"></circle><path d="M22.77,14.976l-1.016,.738c-.94-1.07-2.303-1.714-3.754-1.714-1.779,0-3.438,.958-4.33,2.499-.277,.479-.113,1.09,.364,1.366,.158,.092,.33,.135,.5,.135,.346,0,.682-.179,.866-.499,.536-.926,1.532-1.501,2.6-1.501,.808,0,1.574,.331,2.131,.893l-1.158,.841c-.174,.127-.117,.4,.093,.446l3.452,.759c.146,.032,.288-.071,.302-.22l.346-3.517c.021-.215-.221-.353-.396-.227Z" fill="#61616b" data-color="color-2"></path><path d="M21.966,20.135c-.48-.28-1.092-.114-1.366,.364-.536,.926-1.532,1.501-2.6,1.501-.808,0-1.574-.331-2.131-.893l1.158-.841c.174-.127,.117-.4-.093-.446l-3.452-.759c-.146-.032-.288,.071-.302,.22l-.346,3.517c-.021,.215,.221,.353,.396,.227l1.016-.738c.94,1.07,2.303,1.714,3.754,1.714,1.779,0,3.438-.958,4.33-2.499,.277-.479,.113-1.09-.364-1.366Z" fill="#61616b" data-color="color-2"></path><path d="M11,19c0-2.15,.972-4.072,2.498-5.356-1.091-.409-2.266-.644-3.498-.644C4.486,13,0,17.486,0,23c0,.553,.448,1,1,1H13.106c-1.298-1.271-2.106-3.04-2.106-5Z" fill="#61616b"></path></svg>