<svg xmlns="http://www.w3.org/2000/svg" height="24" width="24" viewBox="0 0 24 24"><circle cx="10" cy="5.5" r="5.5" fill="#61616b"></circle><path d="M12,16.816c0-1.296,.332-2.432,.886-3.388-.915-.276-1.883-.429-2.886-.429C4.486,13,0,17.486,0,23c0,.553,.448,1,1,1H15.785c-1.556-1.695-3.785-4.576-3.785-7.184Z" fill="#61616b"></path><path d="M19,12c-2.458,0-5,1.802-5,4.816,0,2.717,3.868,6.486,4.31,6.907,.193,.185,.441,.276,.69,.276s.497-.092,.69-.276c.441-.421,4.31-4.19,4.31-6.907,0-3.015-2.542-4.816-5-4.816Zm0,7c-1.105,0-2-.895-2-2s.895-2,2-2,2,.895,2,2-.895,2-2,2Z" fill="#61616b" data-color="color-2"></path></svg>