<svg xmlns="http://www.w3.org/2000/svg" height="24" width="24" viewBox="0 0 24 24"><circle cx="10" cy="5.5" r="5.5" fill="#61616b"></circle><path d="M12,18c0-1.662,.68-3.167,1.775-4.255-1.166-.477-2.439-.745-3.775-.745C4.486,13,0,17.486,0,23c0,.553,.448,1,1,1H18c-3.309,0-6-2.691-6-6Z" fill="#61616b"></path><path d="M23.707,22.293l-2.274-2.274c.351-.595,.567-1.28,.567-2.019,0-2.206-1.794-4-4-4s-4,1.794-4,4,1.794,4,4,4c.74,0,1.424-.215,2.019-.567l2.274,2.274c.195,.195,.451,.293,.707,.293s.512-.098,.707-.293c.391-.391,.391-1.023,0-1.414Zm-7.707-4.293c0-1.103,.897-2,2-2s2,.897,2,2-.897,2-2,2-2-.897-2-2Z" fill="#61616b" data-color="color-2"></path></svg>