<svg xmlns="http://www.w3.org/2000/svg" height="24" width="24" viewBox="0 0 24 24"><path d="M12,6h0c-1.657,0-3-1.343-3-3h0c0-1.657,1.343-3,3-3h0c1.657,0,3,1.343,3,3h0c0,1.657-1.343,3-3,3Z" fill="#61616b"></path><path d="M14,21h-4c-.552,0-1-.448-1-1v-5h-1c-.552,0-1-.448-1-1v-4c0-1.657,1.343-3,3-3h4c1.657,0,3,1.343,3,3v4c0,.552-.448,1-1,1h-1v5c0,.552-.448,1-1,1Z" fill="#61616b"></path><path d="M17,17.271v2.019c2.738,.327,4.284,.862,4.837,1.217-.902,.592-4.264,1.493-9.837,1.493s-8.935-.901-9.837-1.493c.553-.355,2.099-.89,4.837-1.217v-2.019c-3.343,.362-7,1.218-7,3.234,0,3.327,9.996,3.495,12,3.495s12-.168,12-3.495c0-2.016-3.657-2.872-7-3.234Z" fill="#61616b" data-color="color-2"></path></svg>