<svg xmlns="http://www.w3.org/2000/svg" height="24" width="24" viewBox="0 0 24 24"><path d="M12,0C5.373,0,0,5.373,0,12s5.373,12,12,12,12-5.373,12-12S18.627,0,12,0Zm-4,10c0-2.209,1.791-4,4-4s4,1.791,4,4v1c0,2.209-1.791,4-4,4s-4-1.791-4-4v-1Zm4,12c-2.823,0-5.371-1.181-7.192-3.068,.246-.599,.754-1.057,1.398-1.2l3.293-.732,.123-.493c.729,.316,1.532,.493,2.377,.493s1.647-.177,2.377-.493l.123,.493,3.293,.732c.644,.143,1.152,.601,1.398,1.2-1.82,1.888-4.368,3.068-7.192,3.068Z" fill="#61616b"></path></svg>