<svg xmlns="http://www.w3.org/2000/svg" height="24" width="24" viewBox="0 0 24 24"><path d="M20,1H4c-1.654,0-3,1.346-3,3V20c0,1.654,1.346,3,3,3H20c1.654,0,3-1.346,3-3V4c0-1.654-1.346-3-3-3ZM8,9c0-2.209,1.791-4,4-4s4,1.791,4,4v1c0,2.209-1.791,4-4,4s-4-1.791-4-4v-1Zm10.719,12H5.281c-.651,0-1.128-.611-.97-1.243l.39-1.558c.184-.735,.767-1.303,1.506-1.467l3.293-.732,.123-.493c.729,.316,1.532,.493,2.377,.493s1.647-.177,2.377-.493l.123,.493,3.293,.732c.74,.164,1.323,.732,1.506,1.467l.39,1.558c.158,.631-.32,1.243-.97,1.243Z" fill="#61616b"></path></svg>