<svg xmlns="http://www.w3.org/2000/svg" height="24" width="24" viewBox="0 0 24 24"><path d="M13,8.5v-2.5h2.5c.276,0,.5-.224,.5-.5v-1c0-.276-.224-.5-.5-.5h-2.5V1.5c0-.276-.224-.5-.5-.5h-1c-.276,0-.5,.224-.5,.5v2.5h-2.5c-.276,0-.5,.224-.5,.5v1c0,.276,.224,.5,.5,.5h2.5v2.5c0,.276,.224,.5,.5,.5h1c.276,0,.5-.224,.5-.5Z" fill="#61616b" data-color="color-2"></path><path d="M5.5,17c-3.032,0-5.5,2.467-5.5,5.5v.5c0,.552,.447,1,1,1H10c.553,0,1-.448,1-1v-.5c0-3.033-2.468-5.5-5.5-5.5Z" fill="#61616b"></path><circle cx="5.5" cy="12.5" r="3.5" fill="#61616b"></circle><path d="M18.5,17c-3.032,0-5.5,2.467-5.5,5.5v.5c0,.552,.447,1,1,1h9c.553,0,1-.448,1-1v-.5c0-3.033-2.468-5.5-5.5-5.5Z" fill="#61616b"></path><circle cx="18.5" cy="12.5" r="3.5" fill="#61616b"></circle></svg>