<svg xmlns="http://www.w3.org/2000/svg" height="24" width="24" viewBox="0 0 24 24"><path d="M23.664,20.576l-.674-4.717c-.047-.325-.25-.606-.543-.753l-4.212-2.106c-1.467,1.827-3.716,3-6.235,3s-4.768-1.174-6.235-3L1.553,15.105c-.293,.147-.496,.428-.543,.753l-.674,4.718c-.123,.861,.134,1.732,.704,2.39s1.396,1.034,2.266,1.034H20.694c.87,0,1.695-.377,2.266-1.034s.827-1.528,.704-2.39Z" fill="#61616b"></path><path d="M12,0c-3.309,0-6,2.691-6,6v2c0,3.309,2.691,6,6,6s6-2.691,6-6v-2c0-3.309-2.691-6-6-6Z" fill="#61616b" data-color="color-2"></path></svg>