<svg xmlns="http://www.w3.org/2000/svg" height="24" width="24" viewBox="0 0 24 24"><circle cx="10" cy="5.5" r="5.5" fill="#61616b"></circle><path d="M12.343,23.656c-2.864-2.864-3.091-7.374-.694-10.508-.538-.09-1.086-.148-1.649-.148C4.486,13,0,17.486,0,23c0,.553,.448,1,1,1H12.722c-.128-.113-.257-.222-.379-.344Z" fill="#61616b"></path><path d="M22.242,13.757c-2.343-2.343-6.142-2.343-8.485,0s-2.343,6.142,0,8.485,6.142,2.343,8.485,0,2.343-6.142,0-8.485Zm-2.475,7.425l-1.768-1.768-1.768,1.768c-.195,.195-.512,.195-.707,0l-.707-.707c-.195-.195-.195-.512,0-.707l1.768-1.768-1.768-1.768c-.195-.195-.195-.512,0-.707l.707-.707c.195-.195,.512-.195,.707,0l1.768,1.768,1.768-1.768c.195-.195,.512-.195,.707,0l.707,.707c.195,.195,.195,.512,0,.707l-1.768,1.768,1.768,1.768c.195,.195,.195,.512,0,.707l-.707,.707c-.195,.195-.512,.195-.707,0Z" fill="#61616b" data-color="color-2"></path></svg>