<svg xmlns="http://www.w3.org/2000/svg" height="24" width="24" viewBox="0 0 24 24"><circle cx="16" cy="4" r="4" fill="#61616b" data-color="color-2"></circle><circle cx="8" cy="10" r="4" fill="#61616b"></circle><path d="M16,10c-.693,0-1.367,.096-2.013,.266-.08,1.808-.959,3.408-2.297,4.456,1.699,.684,3.178,1.825,4.278,3.278h6.954c.29,0,.565-.126,.756-.345,.189-.219,.275-.51,.234-.797-.562-3.91-3.963-6.858-7.911-6.858Z" fill="#61616b" data-color="color-2"></path><path d="M8,16c-3.948,0-7.349,2.948-7.911,6.858-.041,.287,.045,.578,.234,.797,.19,.219,.466,.345,.756,.345H14.921c.29,0,.565-.126,.756-.345,.189-.219,.275-.51,.234-.797-.562-3.91-3.963-6.858-7.911-6.858Z" fill="#61616b"></path></svg>