<svg xmlns="http://www.w3.org/2000/svg" height="24" width="24" viewBox="0 0 24 24"><circle cx="10" cy="5.5" r="5.5" fill="#61616b"></circle><path d="M10,18c0-1.825,.621-3.504,1.654-4.851-.539-.09-1.089-.149-1.654-.149C4.486,13,0,17.486,0,23c0,.553,.448,1,1,1H12.726c-1.667-1.467-2.726-3.61-2.726-6Z" fill="#61616b"></path><path d="M18,12c-3.314,0-6,2.686-6,6s2.686,6,6,6,6-2.686,6-6-2.686-6-6-6Zm3,7h-3c-.552,0-1-.447-1-1v-3c0-.553,.448-1,1-1s1,.447,1,1v2h2c.552,0,1,.447,1,1s-.448,1-1,1Z" fill="#61616b" data-color="color-2"></path></svg>