<svg xmlns="http://www.w3.org/2000/svg" height="24" width="24" viewBox="0 0 24 24"><path d="M5.5,17c-3.032,0-5.5,2.467-5.5,5.5v.5c0,.552,.447,1,1,1H10c.553,0,1-.448,1-1v-.5c0-3.033-2.468-5.5-5.5-5.5Z" fill="#61616b"></path><circle cx="5.5" cy="12.5" r="3.5" fill="#61616b"></circle><path d="M18.5,17c-3.032,0-5.5,2.467-5.5,5.5v.5c0,.552,.447,1,1,1h9c.553,0,1-.448,1-1v-.5c0-3.033-2.468-5.5-5.5-5.5Z" fill="#61616b"></path><circle cx="18.5" cy="12.5" r="3.5" fill="#61616b"></circle><path d="M12,0c-2.458,0-5,1.802-5,4.816,0,2.717,3.868,6.486,4.31,6.907,.193,.185,.441,.276,.69,.276s.497-.092,.69-.276c.441-.421,4.31-4.19,4.31-6.907,0-3.015-2.542-4.816-5-4.816Zm0,7c-1.105,0-2-.895-2-2s.895-2,2-2,2,.895,2,2-.895,2-2,2Z" fill="#61616b" data-color="color-2"></path></svg>