<svg xmlns="http://www.w3.org/2000/svg" height="24" width="24" viewBox="0 0 24 24"><path d="M17,11.646c-.235,0-.471-.082-.661-.25-.414-.365-.454-.997-.089-1.412,.483-.549,.75-1.254,.75-1.985s-.266-1.436-.749-1.983c-.365-.414-.326-1.046,.089-1.412,.412-.364,1.045-.326,1.411,.088,.806,.913,1.249,2.087,1.249,3.307s-.443,2.393-1.25,3.307c-.197,.224-.474,.339-.75,.339Z" fill="#61616b" data-color="color-2"></path><path d="M20.001,15.708c-.274,0-.548-.112-.745-.333-.368-.412-.333-1.043,.078-1.412,1.694-1.517,2.666-3.69,2.666-5.963s-.972-4.445-2.666-5.962c-.411-.369-.446-1-.078-1.412,.369-.412,1.003-.445,1.412-.078,2.117,1.896,3.332,4.612,3.332,7.452s-1.215,5.558-3.332,7.453c-.19,.171-.429,.255-.667,.255Z" fill="#61616b" data-color="color-2"></path><circle cx="9" cy="8" r="4" fill="#61616b"></circle><path d="M9,13c-4.411,0-8,3.589-8,8,0,.552,.447,1,1,1h14c.553,0,1-.448,1-1,0-4.411-3.589-8-8-8Z" fill="#61616b"></path></svg>