<svg xmlns="http://www.w3.org/2000/svg" height="24" width="24" viewBox="0 0 24 24"><circle cx="5.5" cy="2.5" r="2.5" fill="#61616b"></circle><path d="M10.986,13.836l-1-6c-.047-.284-.214-.533-.458-.685-1.528-.951-3.034-1.151-4.028-1.151-1.803,0-3.186,.626-4.029,1.151-.243,.152-.41,.401-.457,.684L.014,13.835c-.072,.433,.146,.863,.539,1.059l1.521,.761,.934,7.469c.062,.5,.488,.876,.992,.876h3c.504,0,.93-.375,.992-.876l.934-7.469,1.521-.761c.393-.196,.611-.626,.539-1.059Z" fill="#61616b"></path><circle cx="18.5" cy="2.5" r="2.5" fill="#61616b" data-color="color-2"></circle><path d="M21.98,7.804c-.04-.202-.142-.386-.291-.528-.403-.385-1.521-1.276-3.188-1.276h-.021c-1.657,.007-2.769,.894-3.17,1.275-.148,.142-.251,.327-.291,.528l-2,10c-.059,.294,.018,.599,.207,.83,.19,.232,.474,.366,.773,.366h2.181l.839,4.196c.094,.467,.504,.804,.98,.804h1c.477,0,.887-.336,.98-.804l.839-4.196h2.181c.3,0,.583-.134,.773-.366,.189-.231,.266-.536,.207-.83l-2-10Z" fill="#61616b" data-color="color-2"></path></svg>