<svg xmlns="http://www.w3.org/2000/svg" height="24" width="24" viewBox="0 0 24 24"><path d="M14,11c0-1.043-.236-2.031-.647-2.921-.693,.154-1.29,.548-1.711,1.092,.225,.568,.358,1.182,.358,1.829,0,2.757-2.243,5-5,5s-5-2.243-5-5,2.243-5,5-5c1.121,0,2.146,.384,2.981,1.01l1.948-.974c-1.266-1.257-3.008-2.036-4.929-2.036C3.14,4,0,7.14,0,11c0,3.519,2.613,6.432,6,6.92v2.08h-1.5c-.276,0-.5,.224-.5,.5v1c0,.276,.224,.5,.5,.5h1.5v1.5c0,.276,.224,.5,.5,.5h1c.276,0,.5-.224,.5-.5v-1.5h1.5c.276,0,.5-.224,.5-.5v-1c0-.276-.224-.5-.5-.5h-1.5v-2.08c3.387-.488,6-3.401,6-6.92Z" fill="#61616b"></path><path d="M23.5,1h-5c-.276,0-.5,.224-.5,.5v1c0,.276,.224,.5,.5,.5h2.086l-2.402,2.402c-1.169-.876-2.615-1.402-4.184-1.402-3.86,0-7,3.14-7,7,0,1.782,.678,3.403,1.779,4.64,.65-.25,1.233-.627,1.719-1.106-.918-.904-1.497-2.147-1.497-3.534,0-2.757,2.243-5,5-5s5,2.243,5,5c0,2.589-1.986,4.701-4.511,4.951-.481,.725-1.062,1.376-1.727,1.933,.403,.072,.815,.116,1.238,.116,3.86,0,7-3.14,7-7,0-1.57-.526-3.015-1.402-4.184l2.402-2.402v2.086c0,.276,.224,.5,.5,.5h1c.276,0,.5-.224,.5-.5V1.5c0-.276-.224-.5-.5-.5Z" fill="#61616b" data-color="color-2"></path></svg>