<svg xmlns="http://www.w3.org/2000/svg" height="24" width="24" viewBox="0 0 24 24"><path d="M12,5h0c-1.381,0-2.5-1.119-2.5-2.5h0c0-1.381,1.119-2.5,2.5-2.5h0c1.381,0,2.5,1.119,2.5,2.5h0c0,1.381-1.119,2.5-2.5,2.5Z" fill="#61616b" data-color="color-2"></path><path d="M7,19h2.181l.839,4.196c.094,.467,.504,.804,.98,.804h2c.477,0,.887-.336,.98-.804l.839-4.196h2.181c.3,0,.583-.134,.773-.366,.189-.231,.266-.536,.207-.83l-2-10c-.048-.241-.184-.456-.381-.604-1.392-1.044-2.853-1.2-3.6-1.2-1.74,0-3.003,.752-3.6,1.2-.197,.147-.333,.362-.381,.604l-2,10c-.059,.294,.018,.599,.207,.83,.19,.232,.474,.366,.773,.366Z" fill="#61616b"></path></svg>