<svg xmlns="http://www.w3.org/2000/svg" height="24" width="24" viewBox="0 0 24 24"><path d="M20.728,18.432l-5.728-1.432v-1.235c1.905-.297,4.142-.953,5.625-2.371,.201-.193,.188-.523-.021-.707-1.181-1.036-2.575-3.202-2.603-6.585C17.975,2.936,15.512,.19,12.35,.01c-3.473-.197-6.35,2.56-6.35,5.99s-1.41,5.639-2.602,6.686c-.21,.184-.225,.515-.023,.708,1.483,1.418,3.721,2.074,5.625,2.371v1.235l-5.728,1.432c-1.335,.334-2.272,1.534-2.272,2.91v1.658c0,.552,.448,1,1,1H22c.552,0,1-.448,1-1v-1.658c0-1.376-.937-2.576-2.272-2.91Z" fill="#61616b"></path></svg>