<svg xmlns="http://www.w3.org/2000/svg" height="24" width="24" viewBox="0 0 24 24"><circle cx="7.544" cy="3" r="3" fill="#61616b"></circle><path d="M13.949,16.684l-2.544-7.632c-.409-1.227-1.553-2.051-2.846-2.051h-2.117c-1.293,0-2.437,.824-2.846,2.051l-2.544,7.632c-.102,.305-.05,.64,.138,.901,.188,.261,.49,.415,.811,.415h2v5c0,.552,.448,1,1,1h5c.552,0,1-.448,1-1v-5h2c.321,0,.623-.154,.811-.415,.188-.261,.239-.596,.138-.901Z" fill="#61616b"></path><path d="M22.8,9.4l-3-4c-.377-.504-1.223-.504-1.6,0l-3,4c-.228,.303-.264,.708-.095,1.047s.516,.553,.895,.553h2v8c0,.552,.448,1,1,1s1-.448,1-1V11h2c.379,0,.725-.214,.895-.553s.133-.744-.095-1.047Z" fill="#61616b" data-color="color-2"></path></svg>