<svg xmlns="http://www.w3.org/2000/svg" height="24" width="24" viewBox="0 0 24 24"><path data-color="color-2" d="M8,10h8a1,1,0,0,0,0-2H13V5.816a3,3,0,1,0-2,0V8H8a1,1,0,0,0,0,2Zm4-8a1,1,0,1,1-1,1A1,1,0,0,1,12,2Z" fill="#61616b"></path><path d="M21.5,17h-5a.5.5,0,0,0-.354.854l1.834,1.833A9.013,9.013,0,0,1,13,21.933V12H11v9.933a9.013,9.013,0,0,1-4.98-2.246l1.834-1.833A.5.5,0,0,0,7.5,17h-5a.5.5,0,0,0-.5.5v5a.5.5,0,0,0,.309.462A.512.512,0,0,0,2.5,23a.5.5,0,0,0,.354-.146L4.606,21.1A11.006,11.006,0,0,0,11,23.933V24h2v-.067A11.006,11.006,0,0,0,19.394,21.1l1.752,1.753A.5.5,0,0,0,21.5,23a.512.512,0,0,0,.191-.038A.5.5,0,0,0,22,22.5v-5A.5.5,0,0,0,21.5,17Z" fill="#61616b"></path></svg>