<svg xmlns="http://www.w3.org/2000/svg" height="24" width="24" viewBox="0 0 24 24"><path data-color="color-2" d="M5,13a5,5,0,1,0,5,5A5,5,0,0,0,5,13Zm0,8a3,3,0,1,1,3-3A3,3,0,0,1,5,21Z" fill="#61616b"></path> <path data-color="color-2" d="M19,13a5,5,0,1,0,5,5A5,5,0,0,0,19,13Zm0,8a3,3,0,1,1,3-3A3,3,0,0,1,19,21Z" fill="#61616b"></path> <circle cx="16.5" cy="2.5" r="2.5" fill="#61616b"></circle> <path d="M13.884,8.53l2.429,2.252a1,1,0,0,0,.623.218H20V9H17.414l-3-3a2,2,0,0,0-2.828,0L8.108,9.478a2,2,0,0,0,0,2.828C8.229,12.426,11,14.5,11,14.5V20h2V13.859a1,1,0,0,0-.228-.636l-1.863-1.71Z" fill="#61616b"></path></svg>