<svg xmlns="http://www.w3.org/2000/svg" height="24" width="24" viewBox="0 0 24 24"><path d="M12,0C5.383,0,0,5.383,0,12s5.383,12,12,12,12-5.383,12-12S18.617,0,12,0Zm3.862,14c.184,.705,.182,1.446-.034,2.161-.311,1.023-1,1.863-1.942,2.367-.575,.308-1.227,.472-1.882,.472-1.481,0-2.835-.811-3.531-2.115-.086-.162-.272-.516-1.05-2.885H2.202c-.132-.646-.202-1.315-.202-2C2,6.486,6.486,2,12,2s10,4.486,10,10c0,.685-.07,1.354-.202,2h-5.936Z" fill="#61616b"></path><path data-color="color-2" d="M8.388,7.201c-.151-.186-.412-.239-.623-.125-.211,.113-.312,.359-.243,.587,.236,.769,2.312,7.528,2.715,8.28,.359,.673,1.052,1.057,1.767,1.057,.318,0,.641-.076,.939-.236,.974-.52,1.342-1.734,.822-2.707-.402-.751-4.869-6.234-5.377-6.856Z" fill="#61616b"></path></svg>