<svg xmlns="http://www.w3.org/2000/svg" height="24" width="24" viewBox="0 0 24 24"><path d="M5,10a5,5,0,1,1,5-5A5.006,5.006,0,0,1,5,10ZM5,2A3,3,0,1,0,8,5,3,3,0,0,0,5,2Z" fill="#61616b" data-color="color-2"></path><path d="M5,24a5,5,0,1,1,5-5A5.006,5.006,0,0,1,5,24Zm0-8a3,3,0,1,0,3,3A3,3,0,0,0,5,16Z" fill="#61616b" data-color="color-2"></path><path d="M19,10a5,5,0,1,1,5-5A5.006,5.006,0,0,1,19,10Zm0-8a3,3,0,1,0,3,3A3,3,0,0,0,19,2Z" fill="#61616b" data-color="color-2"></path><path d="M19,24a5,5,0,1,1,5-5A5.006,5.006,0,0,1,19,24Zm0-8a3,3,0,1,0,3,3A3,3,0,0,0,19,16Z" fill="#61616b" data-color="color-2"></path><path d="M15,13.586V10.414l4.707-4.707a1,1,0,1,0-1.414-1.414L13.586,9H10.414L5.707,4.293A1,1,0,0,0,4.293,5.707L9,10.414v3.172L4.293,18.293a1,1,0,1,0,1.414,1.414L10.414,15h3.172l4.707,4.707a1,1,0,0,0,1.414-1.414Z" fill="#61616b"></path></svg>