<svg xmlns="http://www.w3.org/2000/svg" height="24" width="24" viewBox="0 0 24 24"><path d="M22.388,13.032,15.534,11.8,9.083,1.975a.5.5,0,0,0-.333-.218L6.968,1.448a.5.5,0,0,0-.555.665l3.163,8.619h0l-5.13-.923L2.818,7.414A.5.5,0,0,0,2.493,7.2L.961,6.925a.5.5,0,0,0-.576.606l.752,3.225a2,2,0,0,0,1.036,1.325l4.038,2.068.278.094,15.187,2.725A2.013,2.013,0,0,0,24,14.506a1.945,1.945,0,0,0-1.579-1.468Z" fill="#61616b"></path><path data-color="color-2" d="M23,24H1a1,1,0,0,1,0-2H23a1,1,0,0,1,0,2Z" fill="#61616b"></path></svg>