<svg xmlns="http://www.w3.org/2000/svg" height="24" width="24" viewBox="0 0 24 24"><path d="M15.674.749a2.538,2.538,0,0,0-3.588.009c-.029.03-.058.06-.086.091A2.535,2.535,0,1,0,8.214,4.221c.036.041.073.08.112.118L12,8.008l3.674-3.675a2.533,2.533,0,0,0,0-3.582Z" fill="#61616b" data-color="color-2"></path><path d="M21,15H18.118L15.9,10.553a1,1,0,0,0-1.79.894L15.882,15H9a2,2,0,0,1-2-2H7a1,1,0,0,0-2,0v1H3a3,3,0,0,0-3,3v4a1,1,0,0,0,1,1H3.184a2.982,2.982,0,0,0,5.632,0h7.553A2.982,2.982,0,0,0,22,22h1a1,1,0,0,0,1-1V18A3,3,0,0,0,21,15ZM6,22a1,1,0,1,1,1-1A1,1,0,0,1,6,22Zm13.184,0a1,1,0,1,1,1-1A1,1,0,0,1,19.184,22Z" fill="#61616b"></path></svg>