<svg xmlns="http://www.w3.org/2000/svg" height="24" width="24" viewBox="0 0 24 24"><rect x="7" fill="#61616b" width="3" height="2"></rect> <circle data-color="color-2" fill="#61616b" cx="12" cy="10" r="4"></circle> <path fill="#61616b" d="M5.5,18C3.57,18,2,16.43,2,14.5S3.57,11,5.5,11H6V9H5.5C2.468,9,0,11.467,0,14.5S2.468,20,5.5,20h7.086l-2,2 L12,23.414L17.414,18H5.5z"></path> <path fill="#61616b" d="M18.5,0H12v2h6.5C20.43,2,22,3.57,22,5.5S20.43,9,18.5,9H18v2h0.5c3.032,0,5.5-2.467,5.5-5.5 S21.532,0,18.5,0z"></path></svg>