<svg xmlns="http://www.w3.org/2000/svg" height="24" width="24" viewBox="0 0 24 24"><path d="M3,24a3,3,0,1,1,3-3A3,3,0,0,1,3,24Zm0-4a1,1,0,1,0,1,1A1,1,0,0,0,3,20Z" fill="#61616b" data-color="color-2"></path><path d="M21,24a3,3,0,1,1,3-3A3,3,0,0,1,21,24Zm0-4a1,1,0,1,0,1,1A1,1,0,0,0,21,20Z" fill="#61616b" data-color="color-2"></path><path d="M18.988.848A1,1,0,0,0,18,0H15a1,1,0,0,0,0,2h2.142L18.95,13.75,15.914,18H8.192A6,6,0,0,0,3,15a1,1,0,0,0,0,2,4,4,0,0,1,4,4,1,1,0,0,0,1,1h7a1,1,0,0,0,.814-.419l5-7a1,1,0,0,0,.174-.733Z" fill="#61616b"></path></svg>