<svg xmlns="http://www.w3.org/2000/svg" height="24" width="24" viewBox="0 0 24 24"><path data-color="color-2" d="M3,22a1,1,0,0,0,1,1H7a1,1,0,0,0,1-1V21H3Z" fill="#61616b"></path><path data-color="color-2" d="M16,22a1,1,0,0,0,1,1h3a1,1,0,0,0,1-1V21H16Z" fill="#61616b"></path><path d="M20,1H4A3,3,0,0,0,1,4V19a1,1,0,0,0,1,1H22a1,1,0,0,0,1-1V4A3,3,0,0,0,20,1ZM7,17.5a.5.5,0,0,1-.5.5h-3a.5.5,0,0,1-.5-.5v-1a.5.5,0,0,1,.5-.5h3a.5.5,0,0,1,.5.5Zm14,0a.5.5,0,0,1-.5.5h-3a.5.5,0,0,1-.5-.5v-1a.5.5,0,0,1,.5-.5h3a.5.5,0,0,1,.5.5Zm0-4a.5.5,0,0,1-.5.5H3.5a.5.5,0,0,1-.5-.5v-8A.5.5,0,0,1,3.5,5h4A.5.5,0,0,0,8,4.5v-1A.5.5,0,0,1,8.5,3h7a.5.5,0,0,1,.5.5v1a.5.5,0,0,0,.5.5h4a.5.5,0,0,1,.5.5Z" fill="#61616b"></path></svg>