<svg xmlns="http://www.w3.org/2000/svg" height="24" width="24" viewBox="0 0 24 24"><path d="M23.707,6.737,17.263.293A1,1,0,0,0,16.556,0H7.444a1,1,0,0,0-.707.293L.293,6.737A1,1,0,0,0,0,7.444v9.112a1,1,0,0,0,.293.707l6.444,6.444A1,1,0,0,0,7.444,24h9.112a1,1,0,0,0,.707-.293l6.444-6.444A1,1,0,0,0,24,16.556V7.444A1,1,0,0,0,23.707,6.737ZM22,16.142,16.142,22H7.858L2,16.142V7.858L7.858,2h8.284L22,7.858Z" fill="#61616b"></path><path d="M15.313,4H8.687L4,8.687v6.626L8.687,20h6.626L20,15.313V8.687ZM15,13H9a1,1,0,0,1,0-2h6a1,1,0,0,1,0,2Z" fill="#61616b" data-color="color-2"></path></svg>