<svg xmlns="http://www.w3.org/2000/svg" height="24" width="24" viewBox="0 0 24 24"><path d="M16.986,5.836A1,1,0,0,0,16,5H13V4a1,1,0,0,1,1-1,1,1,0,0,0,0-2,3,3,0,0,0-3,3V5H9a1,1,0,0,0-.986.836l-.4,2.374A27.078,27.078,0,0,1,11,8h6.347Z" fill="#61616b" data-color="color-2"></path><path d="M19,10H11a21.3,21.3,0,0,0-6.625.962L3.949,9.684A1,1,0,0,0,3,9H2a1,1,0,0,0-1,1v2.858A3.047,3.047,0,0,0,0,15a2.844,2.844,0,0,0,1,2.029V20a1,1,0,0,0,1,1H3a1,1,0,0,0,.949-.684L4.42,18.9A20.551,20.551,0,0,0,11,20h8a5,5,0,0,0,0-10ZM8,16.5A1.5,1.5,0,1,1,9.5,15,1.5,1.5,0,0,1,8,16.5Zm5,0A1.5,1.5,0,1,1,14.5,15,1.5,1.5,0,0,1,13,16.5Zm5,0A1.5,1.5,0,1,1,19.5,15,1.5,1.5,0,0,1,18,16.5Z" fill="#61616b"></path></svg>