<svg xmlns="http://www.w3.org/2000/svg" height="48" width="48" style="" viewBox="0 0 48 48"><path d="M12 37C9.243 37 7 39.243 7 42C7 44.757 9.243 47 12 47C14.757 47 17 44.757 17 42C17 39.243 14.757 37 12 37Z" fill="url(#nc-ui-7-0_linear_219_179)"></path><path d="M42 37C39.243 37 37 39.243 37 42C37 44.757 39.243 47 42 47C44.757 47 47 44.757 47 42C47 39.243 44.757 37 42 37Z" fill="url(#nc-ui-7-1_linear_219_179)"></path><path d="M46 32H8C6.897 32 6 31.103 6 30C6 28.897 6.897 28 8 28H38C38.469 28 38.874 27.674 38.977 27.217L42.977 9.217C43.042 8.921 42.97 8.611 42.781 8.375C42.591 8.138 42.304 8 42.001 8H9V2C9 1.448 8.553 1 8 1H2C1.447 1 1 1.448 1 2C1 2.552 1.447 3 2 3H7V26.126C5.276 26.571 4 28.139 4 30C4 32.206 5.794 34 8 34H46C46.553 34 47 33.552 47 33C47 32.448 46.553 32 46 32Z" fill="url(#nc-ui-7-2_linear_219_179)"></path><path d="M30.908 14.582C30.745 14.228 30.391 14 30 14H26V4C26 2.895 25.105 2 24 2C22.895 2 22 2.895 22 4V14H18C17.61 14 17.255 14.228 17.092 14.582C16.929 14.937 16.986 15.355 17.241 15.651L23.241 22.651C23.431 22.873 23.708 23 24 23C24.292 23 24.57 22.873 24.759 22.651L30.759 15.651C31.013 15.354 31.071 14.937 30.908 14.582Z" fill="url(#nc-ui-7-3_linear_219_179)"></path><defs><linearGradient id="nc-ui-7-0_linear_219_179" x1="12" y1="37" x2="12" y2="47" gradientUnits="userSpaceOnUse"><stop stop-color="#A2A3B4"></stop><stop offset="1" stop-color="#83849B"></stop></linearGradient><linearGradient id="nc-ui-7-1_linear_219_179" x1="42" y1="37" x2="42" y2="47" gradientUnits="userSpaceOnUse"><stop stop-color="#A2A3B4"></stop><stop offset="1" stop-color="#83849B"></stop></linearGradient><linearGradient id="nc-ui-7-2_linear_219_179" x1="24" y1="1" x2="24" y2="34" gradientUnits="userSpaceOnUse"><stop stop-color="#E0E0E6"></stop><stop offset="1" stop-color="#C2C3CD"></stop></linearGradient><linearGradient id="nc-ui-7-3_linear_219_179" x1="23.9999" y1="2" x2="23.9999" y2="23" gradientUnits="userSpaceOnUse"><stop stop-color="#5B5E71"></stop><stop offset="1" stop-color="#393A46"></stop></linearGradient></defs></svg>