<svg xmlns="http://www.w3.org/2000/svg" height="48" width="48" style="" viewBox="0 0 48 48"><path d="M15 46C12.243 46 10 43.757 10 41C10 38.243 12.243 36 15 36C17.757 36 20 38.243 20 41C20 43.757 17.757 46 15 46Z" fill="url(#nc-ui-6-0_linear_215_90)"></path><path d="M40 46C37.243 46 35 43.757 35 41C35 38.243 37.243 36 40 36C42.757 36 45 38.243 45 41C45 43.757 42.757 46 40 46Z" fill="url(#nc-ui-6-1_linear_215_90)"></path><path d="M45.771 9.362C45.581 9.133 45.298 9 45 9H10.867L9.99 2.858C9.92 2.365 9.498 2 9 2H2C1.447 2 1 2.448 1 3C1 3.552 1.447 4 2 4H8.133L11.519 27.708C11.87 30.155 13.998 32 16.469 32H37.691C40.088 32 42.154 30.291 42.602 27.935L45.983 10.187C46.039 9.895 45.961 9.592 45.771 9.362Z" fill="url(#nc-ui-6-2_linear_215_90)"></path><path d="M33.908 16.582C33.745 16.228 33.391 16 33 16H29V6C29 4.895 28.105 4 27 4C25.895 4 25 4.895 25 6V16H21C20.61 16 20.255 16.228 20.092 16.582C19.929 16.937 19.986 17.355 20.241 17.651L26.241 24.651C26.431 24.873 26.708 25 27 25C27.292 25 27.57 24.873 27.759 24.651L33.759 17.651C34.013 17.354 34.071 16.937 33.908 16.582Z" fill="url(#nc-ui-6-3_linear_215_90)"></path><defs><linearGradient id="nc-ui-6-0_linear_215_90" x1="15" y1="36" x2="15" y2="46" gradientUnits="userSpaceOnUse"><stop stop-color="#FDDACE"></stop><stop offset="1" stop-color="#FBAE93"></stop></linearGradient><linearGradient id="nc-ui-6-1_linear_215_90" x1="40" y1="36" x2="40" y2="46" gradientUnits="userSpaceOnUse"><stop stop-color="#FDDACE"></stop><stop offset="1" stop-color="#FBAE93"></stop></linearGradient><linearGradient id="nc-ui-6-2_linear_215_90" x1="23.5004" y1="2" x2="23.5004" y2="32" gradientUnits="userSpaceOnUse"><stop stop-color="#F98E5E"></stop><stop offset="1" stop-color="#EA6524"></stop></linearGradient><linearGradient id="nc-ui-6-3_linear_215_90" x1="26.9998" y1="4" x2="26.9998" y2="25" gradientUnits="userSpaceOnUse"><stop stop-color="#FDDACE"></stop><stop offset="1" stop-color="#FBAE93"></stop></linearGradient></defs></svg>