<svg xmlns="http://www.w3.org/2000/svg" height="48" width="48" style="" viewBox="0 0 48 48"><path d="M34 8H6C3.23858 8 1 10.2386 1 13V41C1 43.7614 3.23858 46 6 46H34C36.7614 46 39 43.7614 39 41V13C39 10.2386 36.7614 8 34 8Z" fill="url(#nc-ui-7-0_linear_219_196)"></path><path d="M29 10C29 14.971 33.029 19 38 19C42.971 19 47 14.971 47 10C47 5.029 42.971 1 38 1C33.029 1 29 5.029 29 10Z" fill="url(#nc-ui-7-1_linear_219_196)"></path><path d="M39 5V9H43C43.552 9 44 9.448 44 10C44 10.552 43.552 11 43 11H39V15C39 15.552 38.552 16 38 16C37.448 16 37 15.552 37 15V11H33C32.448 11 32 10.552 32 10C32 9.448 32.448 9 33 9H37V5C37 4.448 37.448 4 38 4C38.552 4 39 4.448 39 5Z" fill="url(#nc-ui-7-2_linear_219_196)"></path><defs><linearGradient id="nc-ui-7-0_linear_219_196" x1="20" y1="8" x2="20" y2="46" gradientUnits="userSpaceOnUse"><stop stop-color="#D8F3E0"></stop><stop offset="1" stop-color="#9EE0B1"></stop></linearGradient><linearGradient id="nc-ui-7-1_linear_219_196" x1="38" y1="1" x2="38" y2="19" gradientUnits="userSpaceOnUse"><stop stop-color="#6AD084"></stop><stop offset="1" stop-color="#3CB34B"></stop></linearGradient><linearGradient id="nc-ui-7-2_linear_219_196" x1="38" y1="4" x2="38" y2="16" gradientUnits="userSpaceOnUse"><stop stop-color="white"></stop><stop offset="1" stop-color="#D8F3E0"></stop></linearGradient></defs></svg>