<svg xmlns="http://www.w3.org/2000/svg" height="48" width="48" viewBox="0 0 48 48"><path d="M35,15a1,1,0,0,1-1-1V8A5,5,0,0,0,24,8v6a1,1,0,0,1-2,0V8A7,7,0,0,1,36,8v6A1,1,0,0,1,35,15Z" fill="#a67c52"></path> <path d="M39.258,45H18.742a5.015,5.015,0,0,1-4.989-4.668L12,14.066A1,1,0,0,1,13,13H45a1,1,0,0,1,1,1.066L44.247,40.332A5.015,5.015,0,0,1,39.258,45Z" fill="#efd358"></path> <path d="M20,24H9a1,1,0,0,1,0-2H20a1,1,0,0,1,0,2Z" fill="#444"></path> <path d="M20,36H9a1,1,0,0,1,0-2H20a1,1,0,0,1,0,2Z" fill="#444"></path> <path d="M16,30H2a1,1,0,0,1,0-2H16a1,1,0,0,1,0,2Z" fill="#444"></path></svg>