<svg xmlns="http://www.w3.org/2000/svg" height="48" width="48" style="" viewBox="0 0 48 48"><path d="M7.99904 19.9999C7.82704 19.9999 7.65204 19.9559 7.49304 19.8619C7.01604 19.5819 6.85804 18.9679 7.13804 18.4929L17.138 1.4929C17.418 1.0169 18.03 0.856899 18.507 1.1379C18.984 1.4179 19.142 2.0319 18.862 2.5069L8.86204 19.5069C8.67504 19.8239 8.34104 19.9999 7.99904 19.9999Z" fill="url(#nc-ui-7-0_linear_219_19)"></path><path d="M40.001 20C39.658 20 39.324 19.824 39.138 19.507L29.138 2.50696C28.859 2.03096 29.017 1.41796 29.493 1.13796C29.969 0.857964 30.582 1.01796 30.862 1.49296L40.862 18.493C41.141 18.969 40.983 19.582 40.507 19.862C40.348 19.956 40.173 20 40.001 20Z" fill="url(#nc-ui-7-1_linear_219_19)"></path><path d="M46 14H2C1.44772 14 1 14.4477 1 15V20C1 20.5523 1.44772 21 2 21H46C46.5523 21 47 20.5523 47 20V15C47 14.4477 46.5523 14 46 14Z" fill="url(#nc-ui-7-2_linear_219_19)"></path><path d="M5 21V41C5 43.761 7.239 46 10 46H38C40.761 46 43 43.761 43 41V21H5Z" fill="url(#nc-ui-7-3_linear_219_19)"></path><path d="M16 39C16 39.552 15.552 40 15 40C14.448 40 14 39.552 14 39V28C14 27.448 14.448 27 15 27C15.552 27 16 27.448 16 28V39Z" fill="url(#nc-ui-7-4_linear_219_19)"></path><path d="M25 39C25 39.552 24.552 40 24 40C23.448 40 23 39.552 23 39V28C23 27.448 23.448 27 24 27C24.552 27 25 27.448 25 28V39Z" fill="url(#nc-ui-7-5_linear_219_19)"></path><path d="M34 39C34 39.552 33.552 40 33 40C32.448 40 32 39.552 32 39V28C32 27.448 32.448 27 33 27C33.552 27 34 27.448 34 28V39Z" fill="url(#nc-ui-7-6_linear_219_19)"></path><path opacity="0.15" d="M43 21H5V23H43V21Z" fill="black"></path><defs><linearGradient id="nc-ui-7-0_linear_219_19" x1="13" y1="0.999268" x2="13" y2="19.9999" gradientUnits="userSpaceOnUse"><stop stop-color="#FF666D"></stop><stop offset="1" stop-color="#E0211F"></stop></linearGradient><linearGradient id="nc-ui-7-1_linear_219_19" x1="35" y1="1" x2="35" y2="20" gradientUnits="userSpaceOnUse"><stop stop-color="#FF666D"></stop><stop offset="1" stop-color="#E0211F"></stop></linearGradient><linearGradient id="nc-ui-7-2_linear_219_19" x1="24" y1="14" x2="24" y2="21" gradientUnits="userSpaceOnUse"><stop stop-color="#FF9EA8"></stop><stop offset="1" stop-color="#FF666D"></stop></linearGradient><linearGradient id="nc-ui-7-3_linear_219_19" x1="24" y1="21" x2="24" y2="46" gradientUnits="userSpaceOnUse"><stop stop-color="#FF666D"></stop><stop offset="1" stop-color="#E0211F"></stop></linearGradient><linearGradient id="nc-ui-7-4_linear_219_19" x1="15" y1="27" x2="15" y2="40" gradientUnits="userSpaceOnUse"><stop stop-color="#E0211F"></stop><stop offset="1" stop-color="#8C150D"></stop></linearGradient><linearGradient id="nc-ui-7-5_linear_219_19" x1="24" y1="27" x2="24" y2="40" gradientUnits="userSpaceOnUse"><stop stop-color="#E0211F"></stop><stop offset="1" stop-color="#8C150D"></stop></linearGradient><linearGradient id="nc-ui-7-6_linear_219_19" x1="33" y1="27" x2="33" y2="40" gradientUnits="userSpaceOnUse"><stop stop-color="#E0211F"></stop><stop offset="1" stop-color="#8C150D"></stop></linearGradient></defs></svg>