<svg xmlns="http://www.w3.org/2000/svg" height="48" width="48" style="" viewBox="0 0 48 48"><path d="M45 28H3C2.448 28 2 28.448 2 29V41C2 41.552 2.448 42 3 42H41V45C41 45.552 41.448 46 42 46C42.552 46 43 45.552 43 45V42H45C45.552 42 46 41.552 46 41V29C46 28.448 45.552 28 45 28Z" fill="url(#nc-farmer-market-0_linear_210_2)"></path> <path d="M35 28H25V21C25 20.448 25.448 20 26 20H34C34.552 20 35 20.448 35 21V28Z" fill="url(#nc-farmer-market-1_linear_210_2)"></path> <path d="M23 28H13V21C13 20.448 13.448 20 14 20H22C22.552 20 23 20.448 23 21V28Z" fill="url(#nc-farmer-market-2_linear_210_2)"></path> <path d="M5 28V11.896C5 11.343 5.447 10.896 6 10.896C6.553 10.896 7 11.343 7 11.896V28H5Z" fill="url(#nc-farmer-market-3_linear_210_2)"></path> <path d="M41 28V11.896C41 11.343 41.447 10.896 42 10.896C42.553 10.896 43 11.343 43 11.896V28H41Z" fill="url(#nc-farmer-market-4_linear_210_2)"></path> <path d="M47.111 10.142L42.874 2.515C42.698 2.198 42.363 2 42 2H36.86L38.954 8.702C39.119 9.228 38.825 9.79 38.298 9.954C38.199 9.985 38.099 10 38 10C37.574 10 37.18 9.727 37.046 9.298L34.765 2H29.064L29.498 8.938C29.532 9.49 29.113 9.964 28.562 9.999C28.541 9.999 28.52 10.001 28.499 10.001C27.976 10.001 27.535 9.594 27.502 9.063L27.061 2.001H20.94L20.499 9.063C20.466 9.593 20.025 10.001 19.502 10.001C19.481 10.001 19.46 10.001 19.439 9.999C18.888 9.965 18.469 9.49 18.503 8.938L18.937 2H13.236L10.955 9.298C10.821 9.727 10.427 10 10.001 10C9.90199 10 9.80199 9.985 9.70299 9.954C9.17599 9.79 8.88199 9.228 9.04699 8.702L11.141 2H5.99999C5.63699 2 5.30199 2.197 5.12599 2.515L0.88899 10.142C0.71199 10.459 0.72199 10.847 0.91299 11.155C2.01899 12.937 3.92099 14.001 5.99999 14.001C7.76399 14.001 9.38199 13.244 10.5 11.955C11.618 13.244 13.236 14.001 15 14.001C16.764 14.001 18.382 13.244 19.5 11.955C20.618 13.244 22.236 14.001 24 14.001C25.764 14.001 27.382 13.244 28.5 11.955C29.618 13.244 31.236 14.001 33 14.001C34.764 14.001 36.382 13.244 37.5 11.955C38.618 13.244 40.236 14.001 42 14.001C44.079 14.001 45.98 12.938 47.087 11.155C47.278 10.847 47.288 10.46 47.111 10.142Z" fill="url(#nc-farmer-market-5_linear_210_2)"></path> <path d="M28.499 10C28.52 10 28.541 10 28.562 9.99802C29.113 9.96402 29.532 9.48902 29.498 8.93702L29.064 1.99902H27.06L27.501 9.06102C27.534 9.59102 27.975 9.99902 28.498 9.99902L28.499 10Z" fill="url(#nc-farmer-market-6_linear_210_2)"></path> <path d="M38 10C38.099 10 38.199 9.985 38.298 9.954C38.825 9.79 39.119 9.228 38.954 8.702L36.86 2H34.766L37.047 9.298C37.181 9.727 37.574 10 38 10Z" fill="url(#nc-farmer-market-7_linear_210_2)"></path> <path d="M19.438 9.998C19.459 9.998 19.48 10 19.501 10C20.024 10 20.465 9.593 20.498 9.062L20.939 2H18.935L18.501 8.938C18.467 9.49 18.886 9.964 19.437 9.999L19.438 9.998Z" fill="url(#nc-farmer-market-8_linear_210_2)"></path> <path d="M9.70199 9.954C9.80099 9.985 9.90099 10 9.99999 10C10.426 10 10.82 9.727 10.954 9.298L13.235 2H11.141L9.04699 8.702C8.88199 9.228 9.17599 9.79 9.70299 9.954H9.70199Z" fill="url(#nc-farmer-market-9_linear_210_2)"></path> <path d="M13 46C10.243 46 8 43.757 8 41C8 38.243 10.243 36 13 36C15.757 36 18 38.243 18 41C18 43.757 15.757 46 13 46Z" fill="url(#nc-farmer-market-10_linear_210_2)"></path> <path d="M13 43C14.1046 43 15 42.1046 15 41C15 39.8954 14.1046 39 13 39C11.8954 39 11 39.8954 11 41C11 42.1046 11.8954 43 13 43Z" fill="url(#nc-farmer-market-11_linear_210_2)"></path> <defs> <linearGradient id="nc-farmer-market-0_linear_210_2" x1="24" y1="28" x2="24" y2="46" gradientUnits="userSpaceOnUse"> <stop stop-color="#B88163"></stop> <stop offset="1" stop-color="#976545"></stop> </linearGradient> <linearGradient id="nc-farmer-market-1_linear_210_2" x1="30" y1="20" x2="30" y2="28" gradientUnits="userSpaceOnUse"> <stop stop-color="#976545"></stop> <stop offset="1" stop-color="#674832"></stop> </linearGradient> <linearGradient id="nc-farmer-market-2_linear_210_2" x1="18" y1="20" x2="18" y2="28" gradientUnits="userSpaceOnUse"> <stop stop-color="#976545"></stop> <stop offset="1" stop-color="#674832"></stop> </linearGradient> <linearGradient id="nc-farmer-market-3_linear_210_2" x1="6" y1="10.896" x2="6" y2="28" gradientUnits="userSpaceOnUse"> <stop stop-color="#FFD6DA"></stop> <stop offset="1" stop-color="#FF9EA8"></stop> </linearGradient> <linearGradient id="nc-farmer-market-4_linear_210_2" x1="42" y1="10.896" x2="42" y2="28" gradientUnits="userSpaceOnUse"> <stop stop-color="#FFD6DA"></stop> <stop offset="1" stop-color="#FF9EA8"></stop> </linearGradient> <linearGradient id="nc-farmer-market-5_linear_210_2" x1="24" y1="2" x2="24" y2="14.001" gradientUnits="userSpaceOnUse"> <stop stop-color="#FF9EA8"></stop> <stop offset="1" stop-color="#FF666D"></stop> </linearGradient> <linearGradient id="nc-farmer-market-6_linear_210_2" x1="28.28" y1="1.99902" x2="28.28" y2="10" gradientUnits="userSpaceOnUse"> <stop stop-color="#FFD6DA"></stop> <stop offset="1" stop-color="#FF9EA8"></stop> </linearGradient> <linearGradient id="nc-farmer-market-7_linear_210_2" x1="36.8829" y1="2" x2="36.8829" y2="10" gradientUnits="userSpaceOnUse"> <stop stop-color="#FFD6DA"></stop> <stop offset="1" stop-color="#FF9EA8"></stop> </linearGradient> <linearGradient id="nc-farmer-market-8_linear_210_2" x1="19.719" y1="2" x2="19.719" y2="10" gradientUnits="userSpaceOnUse"> <stop stop-color="#FFD6DA"></stop> <stop offset="1" stop-color="#FF9EA8"></stop> </linearGradient> <linearGradient id="nc-farmer-market-9_linear_210_2" x1="11.118" y1="2" x2="11.118" y2="10" gradientUnits="userSpaceOnUse"> <stop stop-color="#FFD6DA"></stop> <stop offset="1" stop-color="#FF9EA8"></stop> </linearGradient> <linearGradient id="nc-farmer-market-10_linear_210_2" x1="13" y1="36" x2="13" y2="46" gradientUnits="userSpaceOnUse"> <stop stop-color="#674832"></stop> <stop offset="1" stop-color="#4B3525"></stop> </linearGradient> <linearGradient id="nc-farmer-market-11_linear_210_2" x1="13" y1="39" x2="13" y2="43" gradientUnits="userSpaceOnUse"> <stop stop-color="#B88163"></stop> <stop offset="1" stop-color="#976545"></stop> </linearGradient> </defs></svg>