<svg xmlns="http://www.w3.org/2000/svg" height="48" width="48" style="" viewBox="0 0 48 48"><path d="M44.536 24.1241L22.708 2.29605C22.521 2.10805 22.266 2.00305 22.001 2.00305H3.00101C2.44901 2.00305 2.00101 2.45105 2.00101 3.00305V22.0031C2.00101 22.2681 2.10601 22.5231 2.29401 22.7101L24.122 44.5381C26.076 46.4871 29.239 46.4871 31.193 44.5381L44.536 31.1951C46.489 29.2421 46.489 26.0771 44.536 24.1241ZM14.001 18.0031C11.792 18.0031 10.001 16.2121 10.001 14.0031C10.001 11.7941 11.792 10.0031 14.001 10.0031C16.21 10.0031 18.001 11.7941 18.001 14.0031C18.001 16.2121 16.21 18.0031 14.001 18.0031Z" fill="url(#nc-ui-3-0_linear_119_236)"></path> <path d="M14 46C13.448 46 13 45.552 13 45V17C13 16.448 13.448 16 14 16C14.552 16 15 16.448 15 17V45C15 45.552 14.552 46 14 46Z" fill="url(#nc-ui-3-1_linear_119_236)"></path> <defs> <linearGradient id="nc-ui-3-0_linear_119_236" x1="24.0009" y1="2.00305" x2="24.0009" y2="45.9998" gradientUnits="userSpaceOnUse"> <stop stop-color="#FFD36E"></stop> <stop offset="1" stop-color="#F6B828"></stop> </linearGradient> <linearGradient id="nc-ui-3-1_linear_119_236" x1="14" y1="16" x2="14" y2="46" gradientUnits="userSpaceOnUse"> <stop stop-color="#F6B828"></stop> <stop offset="1" stop-color="#C88509"></stop> </linearGradient> </defs></svg>