<svg xmlns="http://www.w3.org/2000/svg" height="48" width="48" style="" viewBox="0 0 48 48"><path d="M45 24C45 12.42 35.579 3 24 3C12.421 3 3 12.42 3 24C3 35.58 12.421 45 24 45C35.579 45 45 35.58 45 24ZM24 33C19.037 33 15 28.962 15 24C15 19.038 19.037 15 24 15C28.963 15 33 19.038 33 24C33 28.962 28.963 33 24 33Z" fill="url(#nc-ui-3-0_linear_119_188)"></path> <path d="M2 14C2.553 14 3 13.552 3 13C3 7.486 7.486 3 13 3C13.553 3 14 2.552 14 2C14 1.448 13.553 1 13 1C6.383 1 1 6.383 1 13C1 13.552 1.447 14 2 14Z" fill="url(#nc-ui-3-1_linear_119_188)"></path> <path d="M35 3C40.514 3 45 7.486 45 13C45 13.552 45.447 14 46 14C46.553 14 47 13.552 47 13C47 6.383 41.617 1 35 1C34.447 1 34 1.448 34 2C34 2.552 34.447 3 35 3Z" fill="url(#nc-ui-3-2_linear_119_188)"></path> <path d="M46 34C45.447 34 45 34.448 45 35C45 40.514 40.514 45 35 45C34.447 45 34 45.448 34 46C34 46.552 34.447 47 35 47C41.617 47 47 41.617 47 35C47 34.448 46.553 34 46 34Z" fill="url(#nc-ui-3-3_linear_119_188)"></path> <path d="M13 45C7.486 45 3 40.514 3 35C3 34.448 2.553 34 2 34C1.447 34 1 34.448 1 35C1 41.617 6.383 47 13 47C13.553 47 14 46.552 14 46C14 45.448 13.553 45 13 45Z" fill="url(#nc-ui-3-4_linear_119_188)"></path> <path d="M28 2H20C19.4477 2 19 2.44772 19 3V16C19 16.5523 19.4477 17 20 17H28C28.5523 17 29 16.5523 29 16V3C29 2.44772 28.5523 2 28 2Z" fill="url(#nc-ui-3-5_linear_119_188)"></path> <path d="M46 28V20C46 19.4477 45.5523 19 45 19H32C31.4477 19 31 19.4477 31 20V28C31 28.5523 31.4477 29 32 29H45C45.5523 29 46 28.5523 46 28Z" fill="url(#nc-ui-3-6_linear_119_188)"></path> <path d="M20 46H28C28.5523 46 29 45.5523 29 45V32C29 31.4477 28.5523 31 28 31H20C19.4477 31 19 31.4477 19 32V45C19 45.5523 19.4477 46 20 46Z" fill="url(#nc-ui-3-7_linear_119_188)"></path> <path d="M2 20L2 28C2 28.5523 2.44772 29 3 29H16C16.5523 29 17 28.5523 17 28V20C17 19.4477 16.5523 19 16 19H3C2.44772 19 2 19.4477 2 20Z" fill="url(#nc-ui-3-8_linear_119_188)"></path> <defs> <linearGradient id="nc-ui-3-0_linear_119_188" x1="24" y1="3" x2="24" y2="45" gradientUnits="userSpaceOnUse"> <stop stop-color="#FFD6DA"></stop> <stop offset="1" stop-color="#FF9EA8"></stop> </linearGradient> <linearGradient id="nc-ui-3-1_linear_119_188" x1="7.5" y1="1" x2="7.5" y2="14" gradientUnits="userSpaceOnUse"> <stop stop-color="#FF666D"></stop> <stop offset="1" stop-color="#E0211F"></stop> </linearGradient> <linearGradient id="nc-ui-3-2_linear_119_188" x1="40.5" y1="1" x2="40.5" y2="14" gradientUnits="userSpaceOnUse"> <stop stop-color="#FF666D"></stop> <stop offset="1" stop-color="#E0211F"></stop> </linearGradient> <linearGradient id="nc-ui-3-3_linear_119_188" x1="40.5" y1="34" x2="40.5" y2="47" gradientUnits="userSpaceOnUse"> <stop stop-color="#FF666D"></stop> <stop offset="1" stop-color="#E0211F"></stop> </linearGradient> <linearGradient id="nc-ui-3-4_linear_119_188" x1="7.5" y1="34" x2="7.5" y2="47" gradientUnits="userSpaceOnUse"> <stop stop-color="#FF666D"></stop> <stop offset="1" stop-color="#E0211F"></stop> </linearGradient> <linearGradient id="nc-ui-3-5_linear_119_188" x1="24" y1="2" x2="24" y2="46.5" gradientUnits="userSpaceOnUse"> <stop stop-color="#FF666D"></stop> <stop offset="1" stop-color="#E0211F"></stop> </linearGradient> <linearGradient id="nc-ui-3-6_linear_119_188" x1="25" y1="2.5" x2="24" y2="45.5" gradientUnits="userSpaceOnUse"> <stop stop-color="#FF666D"></stop> <stop offset="1" stop-color="#E0211F"></stop> </linearGradient> <linearGradient id="nc-ui-3-7_linear_119_188" x1="24" y1="2.5" x2="24" y2="46" gradientUnits="userSpaceOnUse"> <stop stop-color="#FF666D"></stop> <stop offset="1" stop-color="#E0211F"></stop> </linearGradient> <linearGradient id="nc-ui-3-8_linear_119_188" x1="23" y1="2" x2="22.5" y2="46" gradientUnits="userSpaceOnUse"> <stop stop-color="#FF666D"></stop> <stop offset="1" stop-color="#E0211F"></stop> </linearGradient> </defs></svg>