<svg xmlns="http://www.w3.org/2000/svg" height="48" width="48" style="" viewBox="0 0 48 48"> <path d="M38 8C38.409 8 38.777 8.249 38.929 8.629L46.714 28.092C46.903 28.564 47 29.069 47 29.578V31.001H1V29.578C1 29.069 1.097 28.565 1.286 28.092L9.071 8.629C9.223 8.249 9.591 8 10 8H38Z" fill="url(#nc-pallet-0_linear_307_62)"></path> <path d="M29.7539 28L28.1529 8H26.1479L27.7479 28H29.7539Z" fill="url(#nc-pallet-1_linear_307_62)"></path> <path d="M39.281 28L34.481 8H32.423L37.224 28H39.281Z" fill="url(#nc-pallet-2_linear_307_62)"></path> <path d="M10.776 28L15.576 8H13.518L8.71802 28H10.776Z" fill="url(#nc-pallet-3_linear_307_62)"></path> <path d="M20.251 28L21.852 8H19.846L18.245 28H20.251Z" fill="url(#nc-pallet-4_linear_307_62)"></path> <path d="M1 31V39C1 39.553 1.447 40 2 40H8C8.553 40 9 39.553 9 39V36H20V39C20 39.552 20.448 40 21 40H27C27.552 40 28 39.552 28 39V36H39V39C39 39.553 39.447 40 40 40H46C46.553 40 47 39.553 47 39V31H1Z" fill="url(#nc-pallet-5_linear_307_62)"></path> <defs> <linearGradient id="nc-pallet-0_linear_307_62" x1="24" y1="8" x2="24" y2="31.001" gradientUnits="userSpaceOnUse"> <stop stop-color="#CEA897"></stop> <stop offset="1" stop-color="#B88163"></stop> </linearGradient> <linearGradient id="nc-pallet-1_linear_307_62" x1="27.9509" y1="8" x2="27.9509" y2="28" gradientUnits="userSpaceOnUse"> <stop stop-color="#B88163"></stop> <stop offset="1" stop-color="#976545"></stop> </linearGradient> <linearGradient id="nc-pallet-2_linear_307_62" x1="35.852" y1="8" x2="35.852" y2="28" gradientUnits="userSpaceOnUse"> <stop stop-color="#B88163"></stop> <stop offset="1" stop-color="#976545"></stop> </linearGradient> <linearGradient id="nc-pallet-3_linear_307_62" x1="12.147" y1="8" x2="12.147" y2="28" gradientUnits="userSpaceOnUse"> <stop stop-color="#B88163"></stop> <stop offset="1" stop-color="#976545"></stop> </linearGradient> <linearGradient id="nc-pallet-4_linear_307_62" x1="20.0485" y1="8" x2="20.0485" y2="28" gradientUnits="userSpaceOnUse"> <stop stop-color="#B88163"></stop> <stop offset="1" stop-color="#976545"></stop> </linearGradient> <linearGradient id="nc-pallet-5_linear_307_62" x1="24" y1="31" x2="24" y2="40" gradientUnits="userSpaceOnUse"> <stop stop-color="#976545"></stop> <stop offset="1" stop-color="#674832"></stop> </linearGradient> </defs> </svg>