<svg xmlns="http://www.w3.org/2000/svg" height="48" width="48" style="" viewBox="0 0 48 48"> <path d="M38 12C38.409 12 38.777 12.249 38.929 12.629L46.714 32.092C46.903 32.564 47 33.069 47 33.578V35.001H1V33.578C1 33.069 1.097 32.565 1.286 32.092L9.071 12.629C9.223 12.249 9.591 12 10 12H38Z" fill="url(#nc-pallet-stacked-boxes-0_linear_307_45)"></path> <path d="M30.035 32L28.435 12H26.429L28.029 32H30.035Z" fill="url(#nc-pallet-stacked-boxes-1_linear_307_45)"></path> <path d="M39.563 32L34.763 12H32.705L37.506 32H39.563Z" fill="url(#nc-pallet-stacked-boxes-2_linear_307_45)"></path> <path d="M11.057 32L15.858 12H13.8L9 32H11.057Z" fill="url(#nc-pallet-stacked-boxes-3_linear_307_45)"></path> <path d="M20.533 32L22.133 12H20.127L18.527 32H20.533Z" fill="url(#nc-pallet-stacked-boxes-4_linear_307_45)"></path> <path d="M1 35V43C1 43.553 1.447 44 2 44H8C8.553 44 9 43.553 9 43V40H20V43C20 43.552 20.448 44 21 44H27C27.552 44 28 43.552 28 43V40H39V43C39 43.553 39.447 44 40 44H46C46.553 44 47 43.553 47 43V35H1Z" fill="url(#nc-pallet-stacked-boxes-5_linear_307_45)"></path> <path fill-rule="evenodd" clip-rule="evenodd" d="M13 4C11.895 4 11 4.895 11 6V16V26C11 27.105 11.895 28 13 28H24H35C36.105 28 37 27.105 37 26V16V6C37 4.895 36.105 4 35 4H24H13Z" fill="url(#nc-pallet-stacked-boxes-6_linear_307_45)"></path> <path fill-rule="evenodd" clip-rule="evenodd" d="M23 4H25V15H37V17H25V28H23V17H11V15H23V4Z" fill="url(#nc-pallet-stacked-boxes-7_linear_307_45)"></path> <path d="M17 6H14C13.4477 6 13 6.44772 13 7V9C13 9.55228 13.4477 10 14 10H17C17.5523 10 18 9.55228 18 9V7C18 6.44772 17.5523 6 17 6Z" fill="url(#nc-pallet-stacked-boxes-8_linear_307_45)"></path> <path d="M17 19H14C13.4477 19 13 19.4477 13 20V22C13 22.5523 13.4477 23 14 23H17C17.5523 23 18 22.5523 18 22V20C18 19.4477 17.5523 19 17 19Z" fill="url(#nc-pallet-stacked-boxes-9_linear_307_45)"></path> <path d="M31 6H28C27.4477 6 27 6.44772 27 7V9C27 9.55228 27.4477 10 28 10H31C31.5523 10 32 9.55228 32 9V7C32 6.44772 31.5523 6 31 6Z" fill="url(#nc-pallet-stacked-boxes-10_linear_307_45)"></path> <path d="M31 19H28C27.4477 19 27 19.4477 27 20V22C27 22.5523 27.4477 23 28 23H31C31.5523 23 32 22.5523 32 22V20C32 19.4477 31.5523 19 31 19Z" fill="url(#nc-pallet-stacked-boxes-11_linear_307_45)"></path> <defs> <linearGradient id="nc-pallet-stacked-boxes-0_linear_307_45" x1="24" y1="12" x2="24" y2="35.001" gradientUnits="userSpaceOnUse"> <stop stop-color="#CEA897"></stop> <stop offset="1" stop-color="#B88163"></stop> </linearGradient> <linearGradient id="nc-pallet-stacked-boxes-1_linear_307_45" x1="28.232" y1="12" x2="28.232" y2="32" gradientUnits="userSpaceOnUse"> <stop stop-color="#B88163"></stop> <stop offset="1" stop-color="#976545"></stop> </linearGradient> <linearGradient id="nc-pallet-stacked-boxes-2_linear_307_45" x1="36.134" y1="12" x2="36.134" y2="32" gradientUnits="userSpaceOnUse"> <stop stop-color="#B88163"></stop> <stop offset="1" stop-color="#976545"></stop> </linearGradient> <linearGradient id="nc-pallet-stacked-boxes-3_linear_307_45" x1="12.429" y1="12" x2="12.429" y2="32" gradientUnits="userSpaceOnUse"> <stop stop-color="#B88163"></stop> <stop offset="1" stop-color="#976545"></stop> </linearGradient> <linearGradient id="nc-pallet-stacked-boxes-4_linear_307_45" x1="20.33" y1="12" x2="20.33" y2="32" gradientUnits="userSpaceOnUse"> <stop stop-color="#B88163"></stop> <stop offset="1" stop-color="#976545"></stop> </linearGradient> <linearGradient id="nc-pallet-stacked-boxes-5_linear_307_45" x1="24" y1="35" x2="24" y2="44" gradientUnits="userSpaceOnUse"> <stop stop-color="#976545"></stop> <stop offset="1" stop-color="#674832"></stop> </linearGradient> <linearGradient id="nc-pallet-stacked-boxes-6_linear_307_45" x1="24" y1="4" x2="24" y2="28" gradientUnits="userSpaceOnUse"> <stop stop-color="#976545"></stop> <stop offset="1" stop-color="#674832"></stop> </linearGradient> <linearGradient id="nc-pallet-stacked-boxes-7_linear_307_45" x1="24" y1="4" x2="24" y2="28" gradientUnits="userSpaceOnUse"> <stop stop-color="#B88163"></stop> <stop offset="1" stop-color="#976545"></stop> </linearGradient> <linearGradient id="nc-pallet-stacked-boxes-8_linear_307_45" x1="15.5" y1="6" x2="15.5" y2="23" gradientUnits="userSpaceOnUse"> <stop stop-color="#B88163"></stop> <stop offset="1" stop-color="#976545"></stop> </linearGradient> <linearGradient id="nc-pallet-stacked-boxes-9_linear_307_45" x1="15.5" y1="6" x2="15.5" y2="23" gradientUnits="userSpaceOnUse"> <stop stop-color="#B88163"></stop> <stop offset="1" stop-color="#976545"></stop> </linearGradient> <linearGradient id="nc-pallet-stacked-boxes-10_linear_307_45" x1="29.5" y1="6" x2="29.5" y2="23" gradientUnits="userSpaceOnUse"> <stop stop-color="#B88163"></stop> <stop offset="1" stop-color="#976545"></stop> </linearGradient> <linearGradient id="nc-pallet-stacked-boxes-11_linear_307_45" x1="29.5" y1="6" x2="29.5" y2="23" gradientUnits="userSpaceOnUse"> <stop stop-color="#B88163"></stop> <stop offset="1" stop-color="#976545"></stop> </linearGradient> </defs> </svg>