<svg xmlns="http://www.w3.org/2000/svg" height="48" width="48" style="" viewBox="0 0 48 48"><path d="M5 18V41C5 43.761 7.239 46 10 46H38C40.761 46 43 43.761 43 41V18H5Z" fill="url(#nc-ui-5-0_linear_207_216)"></path><path d="M28 18H20V46H28V18Z" fill="url(#nc-ui-5-1_linear_207_216)"></path><path d="M46 11.006H39.352C39.352 11.006 39.355 11.002 39.357 11H34.767C34.76 11 34.754 11.002 34.747 11.001C34.731 11.001 34.716 11.001 34.701 11H8.629C8.629 11 8.632 11.004 8.634 11.006H2C1.448 11.006 1 11.453 1 12.005V17.001C1 17.553 1.448 18 2 18H46C46.552 18 47 17.553 47 17.001V12.005C47 11.453 46.552 11.006 46 11.006Z" fill="url(#nc-ui-5-2_linear_207_216)"></path><path d="M9.00002 7.00498V6.99998C9.10802 4.70598 11.039 2.92398 13.334 2.99998C18.753 2.99998 21.57 8.46198 22.587 11H25.411C26.423 8.46498 29.236 2.99998 34.7 2.99998C36.975 2.93298 38.885 4.69698 39 6.96998C38.939 9.25098 37.045 11.05 34.766 11H39.356C40.369 9.89698 40.953 8.46698 40.999 6.96998C40.889 3.57698 38.059 0.908983 34.665 0.999983C28.699 0.999983 25.455 6.01698 23.999 9.19998C22.546 6.01698 19.311 0.999983 13.364 0.999983C9.96102 0.887983 7.11102 3.55598 6.99902 6.95898C6.99902 6.96298 6.99902 6.96698 6.99902 6.96998V7.03598C7.05002 8.50998 7.62802 9.91598 8.62802 11H13.299C11.009 11.084 9.08302 9.29598 8.99902 7.00498H9.00002Z" fill="url(#nc-ui-5-3_linear_207_216)"></path><path d="M29 11H19V18H29V11Z" fill="url(#nc-ui-5-4_linear_207_216)"></path><path opacity="0.15" d="M43 18H5V20H43V18Z" fill="black"></path><defs><linearGradient id="nc-ui-5-0_linear_207_216" x1="24" y1="18" x2="24" y2="46" gradientUnits="userSpaceOnUse"><stop stop-color="#FF666D"></stop><stop offset="1" stop-color="#E0211F"></stop></linearGradient><linearGradient id="nc-ui-5-1_linear_207_216" x1="24" y1="18" x2="24" y2="46" gradientUnits="userSpaceOnUse"><stop stop-color="#FFD6DA"></stop><stop offset="1" stop-color="#FF9EA8"></stop></linearGradient><linearGradient id="nc-ui-5-2_linear_207_216" x1="24" y1="11" x2="24" y2="18" gradientUnits="userSpaceOnUse"><stop stop-color="#FF9EA8"></stop><stop offset="1" stop-color="#FF666D"></stop></linearGradient><linearGradient id="nc-ui-5-3_linear_207_216" x1="23.999" y1="0.996582" x2="23.999" y2="11.0028" gradientUnits="userSpaceOnUse"><stop stop-color="#FFD6DA"></stop><stop offset="1" stop-color="#FF9EA8"></stop></linearGradient><linearGradient id="nc-ui-5-4_linear_207_216" x1="24" y1="11" x2="24" y2="18" gradientUnits="userSpaceOnUse"><stop stop-color="#FFD6DA"></stop><stop offset="1" stop-color="#FF9EA8"></stop></linearGradient></defs></svg>