<svg xmlns="http://www.w3.org/2000/svg" height="48" width="48" style="" viewBox="0 0 48 48"> <path d="M44.999 19.999C45.322 19.999 45.64 19.843 45.832 19.554C46.139 19.094 46.015 18.474 45.555 18.167L24.554 4.16796C24.093 3.86096 23.473 3.98496 23.167 4.44496C22.86 4.90496 22.984 5.52496 23.444 5.83196L44.444 19.831C44.615 19.944 44.808 19.999 44.999 19.999Z" fill="url(#nc-shipping-container-0_linear_313_2)"></path> <path d="M24 8C21.795 8 20 6.205 20 4C20 1.795 21.795 0 24 0C26.205 0 28 1.795 28 4C28 6.205 26.205 8 24 8ZM24 2C22.897 2 22 2.897 22 4C22 5.103 22.897 6 24 6C25.103 6 26 5.103 26 4C26 2.897 25.103 2 24 2Z" fill="url(#nc-shipping-container-1_linear_313_2)"></path> <path d="M3.00102 19.999C2.67802 19.999 2.36002 19.843 2.16802 19.554C1.86102 19.094 1.98502 18.474 2.44502 18.167L23.445 4.16796C23.906 3.86096 24.526 3.98496 24.832 4.44496C25.139 4.90496 25.015 5.52496 24.555 5.83196L3.55502 19.831C3.38402 19.944 3.19202 19.999 3.00102 19.999Z" fill="url(#nc-shipping-container-2_linear_313_2)"></path> <path d="M45 18C44.447 18 44 18.447 44 19V21H4V19C4 18.447 3.553 18 3 18C2.447 18 2 18.447 2 19V45C2 46.105 2.895 47 4 47H44C45.105 47 46 46.105 46 45V19C46 18.447 45.553 18 45 18Z" fill="url(#nc-shipping-container-3_linear_313_2)"></path> <path d="M19 44H15V43C15 42.448 15.448 42 16 42H17V24H21V25C21 25.552 20.552 26 20 26H19V44Z" fill="url(#nc-shipping-container-4_linear_313_2)"></path> <path d="M13 44H9V43C9 42.448 9.448 42 10 42H11V24H15V25C15 25.552 14.552 26 14 26H13V44Z" fill="url(#nc-shipping-container-5_linear_313_2)"></path> <path d="M7 44H6C5.448 44 5 43.552 5 43V25C5 24.448 5.448 24 6 24H9V25C9 25.552 8.552 26 8 26H7V44Z" fill="url(#nc-shipping-container-6_linear_313_2)"></path> <path d="M25 44H21V43C21 42.448 21.448 42 22 42H23V24H27V25C27 25.552 26.552 26 26 26H25V44Z" fill="url(#nc-shipping-container-7_linear_313_2)"></path> <path d="M31 44H27V43C27 42.448 27.448 42 28 42H29V24H33V25C33 25.552 32.552 26 32 26H31V44Z" fill="url(#nc-shipping-container-8_linear_313_2)"></path> <path d="M37 44H33V43C33 42.448 33.448 42 34 42H35V24H39V25C39 25.552 38.552 26 38 26H37V44Z" fill="url(#nc-shipping-container-9_linear_313_2)"></path> <path d="M42 44H39V42H41V24H42C42.552 24 43 24.448 43 25V43C43 43.552 42.552 44 42 44Z" fill="url(#nc-shipping-container-10_linear_313_2)"></path> <defs> <linearGradient id="nc-shipping-container-0_linear_313_2" x1="34.4995" y1="3.99939" x2="34.4995" y2="19.999" gradientUnits="userSpaceOnUse"> <stop stop-color="#5B5E71"></stop> <stop offset="1" stop-color="#393A46"></stop> </linearGradient> <linearGradient id="nc-shipping-container-1_linear_313_2" x1="24" y1="0" x2="24" y2="8" gradientUnits="userSpaceOnUse"> <stop stop-color="#C2C3CD"></stop> <stop offset="1" stop-color="#A2A3B4"></stop> </linearGradient> <linearGradient id="nc-shipping-container-2_linear_313_2" x1="13.5" y1="3.99939" x2="13.5" y2="19.999" gradientUnits="userSpaceOnUse"> <stop stop-color="#5B5E71"></stop> <stop offset="1" stop-color="#393A46"></stop> </linearGradient> <linearGradient id="nc-shipping-container-3_linear_313_2" x1="24" y1="18" x2="24" y2="47" gradientUnits="userSpaceOnUse"> <stop stop-color="#FFD36E"></stop> <stop offset="1" stop-color="#F6B828"></stop> </linearGradient> <linearGradient id="nc-shipping-container-4_linear_313_2" x1="18" y1="24" x2="18" y2="44" gradientUnits="userSpaceOnUse"> <stop stop-color="#F6B828"></stop> <stop offset="1" stop-color="#C88509"></stop> </linearGradient> <linearGradient id="nc-shipping-container-5_linear_313_2" x1="12" y1="24" x2="12" y2="44" gradientUnits="userSpaceOnUse"> <stop stop-color="#F6B828"></stop> <stop offset="1" stop-color="#C88509"></stop> </linearGradient> <linearGradient id="nc-shipping-container-6_linear_313_2" x1="7" y1="24" x2="7" y2="44" gradientUnits="userSpaceOnUse"> <stop stop-color="#F6B828"></stop> <stop offset="1" stop-color="#C88509"></stop> </linearGradient> <linearGradient id="nc-shipping-container-7_linear_313_2" x1="24" y1="24" x2="24" y2="44" gradientUnits="userSpaceOnUse"> <stop stop-color="#F6B828"></stop> <stop offset="1" stop-color="#C88509"></stop> </linearGradient> <linearGradient id="nc-shipping-container-8_linear_313_2" x1="30" y1="24" x2="30" y2="44" gradientUnits="userSpaceOnUse"> <stop stop-color="#F6B828"></stop> <stop offset="1" stop-color="#C88509"></stop> </linearGradient> <linearGradient id="nc-shipping-container-9_linear_313_2" x1="36" y1="24" x2="36" y2="44" gradientUnits="userSpaceOnUse"> <stop stop-color="#F6B828"></stop> <stop offset="1" stop-color="#C88509"></stop> </linearGradient> <linearGradient id="nc-shipping-container-10_linear_313_2" x1="41" y1="24" x2="41" y2="44" gradientUnits="userSpaceOnUse"> <stop stop-color="#F6B828"></stop> <stop offset="1" stop-color="#C88509"></stop> </linearGradient> </defs> </svg>