<svg xmlns="http://www.w3.org/2000/svg" height="48" width="48" style="" viewBox="0 0 48 48"><path d="M41.686 17.271L24.686 1.27103C24.301 0.908029 23.699 0.908029 23.314 1.27103L6.314 17.271C6.114 17.461 6 17.724 6 18V42C6.003 44.76 8.24 46.997 11 47H37C39.76 46.997 41.997 44.76 42 42V18C42 17.724 41.886 17.461 41.686 17.271ZM24 13C26.209 13 28 14.791 28 17C28 19.209 26.209 21 24 21C21.791 21 20 19.209 20 17C20 14.791 21.791 13 24 13Z" fill="url(#nc-ui-3-0_linear_119_226)"></path><path d="M32 39H16C15.448 39 15 38.552 15 38C15 37.448 15.448 37 16 37H32C32.552 37 33 37.448 33 38C33 38.552 32.552 39 32 39Z" fill="url(#nc-ui-3-1_linear_119_226)"></path><path d="M32 31H16C15.448 31 15 30.552 15 30C15 29.448 15.448 29 16 29H32C32.552 29 33 29.448 33 30C33 30.552 32.552 31 32 31Z" fill="url(#nc-ui-3-2_linear_119_226)"></path><defs><linearGradient id="nc-ui-3-0_linear_119_226" x1="24" y1="0.998779" x2="24" y2="47" gradientUnits="userSpaceOnUse"><stop stop-color="#B88163"></stop><stop offset="1" stop-color="#976545"></stop></linearGradient><linearGradient id="nc-ui-3-1_linear_119_226" x1="15.5" y1="38" x2="32.5" y2="38" gradientUnits="userSpaceOnUse"><stop stop-color="#674832"></stop><stop offset="1" stop-color="#4B3525"></stop></linearGradient><linearGradient id="nc-ui-3-2_linear_119_226" x1="15.5" y1="30" x2="32.5" y2="30" gradientUnits="userSpaceOnUse"><stop stop-color="#674832"></stop><stop offset="1" stop-color="#4B3525"></stop></linearGradient></defs></svg>