<svg xmlns="http://www.w3.org/2000/svg" height="48" width="48" style="" viewBox="0 0 48 48"><path d="M37.69 32H16.469C13.997 32 11.869 30.155 11.519 27.708L8.133 4H2C1.447 4 1 3.552 1 3C1 2.448 1.447 2 2 2H9C9.498 2 9.92 2.366 9.99 2.858L10.867 9H45C45.298 9 45.58 9.133 45.771 9.362C45.96 9.592 46.039 9.894 45.983 10.187L42.602 27.935C42.154 30.29 40.088 32 37.691 32H37.69Z" fill="url(#nc-ui-6-0_linear_215_106)"></path><path d="M15 46C12.243 46 10 43.757 10 41C10 38.243 12.243 36 15 36C17.757 36 20 38.243 20 41C20 43.757 17.757 46 15 46Z" fill="url(#nc-ui-6-1_linear_215_106)"></path><path d="M40 46C37.243 46 35 43.757 35 41C35 38.243 37.243 36 40 36C42.757 36 45 38.243 45 41C45 43.757 42.757 46 40 46Z" fill="url(#nc-ui-6-2_linear_215_106)"></path><defs><linearGradient id="nc-ui-6-0_linear_215_106" x1="23.5003" y1="2" x2="23.5003" y2="32" gradientUnits="userSpaceOnUse"><stop stop-color="#F98E5E"></stop><stop offset="1" stop-color="#EA6524"></stop></linearGradient><linearGradient id="nc-ui-6-1_linear_215_106" x1="15" y1="36" x2="15" y2="46" gradientUnits="userSpaceOnUse"><stop stop-color="#FDDACE"></stop><stop offset="1" stop-color="#FBAE93"></stop></linearGradient><linearGradient id="nc-ui-6-2_linear_215_106" x1="40" y1="36" x2="40" y2="46" gradientUnits="userSpaceOnUse"><stop stop-color="#FDDACE"></stop><stop offset="1" stop-color="#FBAE93"></stop></linearGradient></defs></svg>