<svg xmlns="http://www.w3.org/2000/svg" height="48" width="48" style="" viewBox="0 0 48 48"><path d="M46 34C46.553 34 47 33.552 47 33C47 32.448 46.553 32 46 32H8C6.897 32 6 31.103 6 30C6 28.897 6.897 28 8 28H38C38.469 28 38.874 27.674 38.977 27.217L42.977 9.217C43.042 8.921 42.97 8.611 42.781 8.375C42.591 8.138 42.304 8 42.001 8H9V2C9 1.448 8.553 1 8 1H2C1.447 1 1 1.448 1 2C1 2.552 1.447 3 2 3H7V26.126C5.276 26.571 4 28.139 4 30C4 32.206 5.794 34 8 34H46Z" fill="url(#nc-ui-6-0_linear_215_131)"></path><path d="M12 37C9.243 37 7 39.243 7 42C7 44.757 9.243 47 12 47C14.757 47 17 44.757 17 42C17 39.243 14.757 37 12 37Z" fill="url(#nc-ui-6-1_linear_215_131)"></path><path d="M42 37C39.243 37 37 39.243 37 42C37 44.757 39.243 47 42 47C44.757 47 47 44.757 47 42C47 39.243 44.757 37 42 37Z" fill="url(#nc-ui-6-2_linear_215_131)"></path><defs><linearGradient id="nc-ui-6-0_linear_215_131" x1="24" y1="1" x2="24" y2="34" gradientUnits="userSpaceOnUse"><stop stop-color="#E0E0E6"></stop><stop offset="1" stop-color="#C2C3CD"></stop></linearGradient><linearGradient id="nc-ui-6-1_linear_215_131" x1="12" y1="37" x2="12" y2="47" gradientUnits="userSpaceOnUse"><stop stop-color="#A2A3B4"></stop><stop offset="1" stop-color="#83849B"></stop></linearGradient><linearGradient id="nc-ui-6-2_linear_215_131" x1="42" y1="37" x2="42" y2="47" gradientUnits="userSpaceOnUse"><stop stop-color="#A2A3B4"></stop><stop offset="1" stop-color="#83849B"></stop></linearGradient></defs></svg>