<svg xmlns="http://www.w3.org/2000/svg" height="48" width="48" style="" viewBox="0 0 48 48"><path d="M40 45H8C7.447 45 7 44.552 7 44V16C7 15.448 7.447 15 8 15H40C40.553 15 41 15.448 41 16V44C41 44.552 40.553 45 40 45Z" fill="url(#nc-ui-3-0_linear_119_242)"></path> <path d="M29 45H19V32C19 31.448 19.448 31 20 31H28C28.552 31 29 31.448 29 32V45Z" fill="url(#nc-ui-3-1_linear_119_242)"></path> <path opacity="0.05" d="M40 15H8C7.447 15 7 15.448 7 16V24.924C7.374 24.97 7.753 25.001 8.141 25.001H8.287C10.193 24.993 12.004 24.441 13.533 23.421C15.085 24.453 16.882 24.997 18.753 24.997C20.651 24.997 22.465 24.445 24.004 23.417C25.56 24.455 27.358 25.001 29.224 25.001C29.736 25.001 30.254 24.959 30.767 24.875C32.11 24.655 33.367 24.161 34.474 23.423C35.998 24.438 37.807 24.999 39.639 24.999L39.925 25.002C40.289 25.002 40.647 24.973 41.001 24.93V15.999C41.001 15.447 40.554 14.999 40.001 14.999L40 15Z" fill="black"></path> <path d="M1 16.024C1.094 19.96 4.332 23.074 8.279 23C10.277 22.993 12.147 22.228 13.528 20.853C13.803 21.124 14.099 21.374 14.414 21.601C17.405 23.751 21.466 23.358 24 20.85C24.276 21.122 24.574 21.373 24.891 21.601C26.172 22.521 27.676 23.003 29.223 23.003C29.627 23.003 30.035 22.97 30.443 22.903C31.988 22.65 33.383 21.935 34.473 20.855C35.84 22.217 37.701 23.001 39.638 23.001C39.656 23.001 39.673 23.001 39.692 23.001C43.608 23.131 46.906 19.961 47.001 16.025C47.001 16.017 46.998 16.009 46.998 16.001H1.003C1.003 16.009 1 16.016 1 16.024Z" fill="url(#nc-ui-3-2_linear_119_242)"></path> <path d="M46.9971 16C46.9971 15.803 46.9421 15.609 46.8321 15.445L38.8321 3.445C38.6461 3.167 38.3341 3 38.0001 3H10.0001C9.66605 3 9.35405 3.167 9.16805 3.445L1.16805 15.445C1.05805 15.609 1.00305 15.803 1.00305 16H46.9971Z" fill="url(#nc-ui-3-3_linear_119_242)"></path> <defs> <linearGradient id="nc-ui-3-0_linear_119_242" x1="24" y1="15" x2="24" y2="45" gradientUnits="userSpaceOnUse"> <stop stop-color="#FFD6DA"></stop> <stop offset="1" stop-color="#FF9EA8"></stop> </linearGradient> <linearGradient id="nc-ui-3-1_linear_119_242" x1="24" y1="31" x2="24" y2="45" gradientUnits="userSpaceOnUse"> <stop stop-color="#FF666D"></stop> <stop offset="1" stop-color="#E0211F"></stop> </linearGradient> <linearGradient id="nc-ui-3-2_linear_119_242" x1="24.0005" y1="16.001" x2="24.0005" y2="23.0048" gradientUnits="userSpaceOnUse"> <stop stop-color="#FF666D"></stop> <stop offset="1" stop-color="#E0211F"></stop> </linearGradient> <linearGradient id="nc-ui-3-3_linear_119_242" x1="24.0001" y1="3" x2="24.0001" y2="16" gradientUnits="userSpaceOnUse"> <stop stop-color="#FF9EA8"></stop> <stop offset="1" stop-color="#FF666D"></stop> </linearGradient> </defs></svg>