<svg xmlns="http://www.w3.org/2000/svg" height="48" width="48" style="" viewBox="0 0 48 48"><path d="M18 9C18 5.686 20.686 3 24 3C27.314 3 30 5.686 30 9V16H32V9C32 4.582 28.418 1 24 1C19.582 1 16 4.582 16 9V16H18V9Z" fill="url(#nc-ui-7-0_linear_219_2)"></path> <path d="M43.236 40.207L39.991 15.868C39.925 15.371 39.501 15 39 15H9.00003C8.49903 15 8.07502 15.371 8.00902 15.868L4.76403 40.207C4.32603 43.492 6.63403 46.509 9.91803 46.947C10.181 46.982 10.446 47 10.711 47H37.289C40.603 47 43.289 44.313 43.289 41C43.289 40.735 43.271 40.47 43.236 40.207Z" fill="url(#nc-ui-7-1_linear_219_2)"></path> <defs> <linearGradient id="nc-ui-7-0_linear_219_2" x1="24" y1="1" x2="24" y2="16" gradientUnits="userSpaceOnUse"> <stop stop-color="#F77CC6"></stop> <stop offset="1" stop-color="#E642A3"></stop> </linearGradient> <linearGradient id="nc-ui-7-1_linear_219_2" x1="23.9999" y1="15" x2="23.9999" y2="47" gradientUnits="userSpaceOnUse"> <stop stop-color="#FBB0DD"></stop> <stop offset="1" stop-color="#F77CC6"></stop> </linearGradient> </defs></svg>