<svg xmlns="http://www.w3.org/2000/svg" height="48" width="48" style="" viewBox="0 0 48 48"><path d="M44.536 24.1241L22.708 2.29605C22.521 2.10805 22.266 2.00305 22.001 2.00305H3.00098C2.44898 2.00305 2.00098 2.45105 2.00098 3.00305V22.0031C2.00098 22.2681 2.10598 22.5231 2.29398 22.7101L24.122 44.5381C26.076 46.4871 29.239 46.4871 31.193 44.5381L44.536 31.1951C46.489 29.2421 46.489 26.0771 44.536 24.1241ZM14.001 18.0031C11.792 18.0031 10.001 16.2121 10.001 14.0031C10.001 11.7941 11.792 10.0031 14.001 10.0031C16.21 10.0031 18.001 11.7941 18.001 14.0031C18.001 16.2121 16.21 18.0031 14.001 18.0031Z" fill="url(#nc-ui-3-0_linear_119_213)"></path> <path d="M27.707 33.707C27.317 34.097 26.683 34.097 26.293 33.707L18.293 25.707C17.909 25.31 17.92 24.677 18.318 24.293C18.706 23.919 19.32 23.919 19.707 24.293L27.707 32.293C28.097 32.683 28.097 33.317 27.707 33.707Z" fill="url(#nc-ui-3-1_linear_119_213)"></path> <path d="M33.707 27.707C33.317 28.097 32.683 28.097 32.293 27.707L24.293 19.707C23.909 19.31 23.92 18.677 24.318 18.293C24.706 17.919 25.32 17.919 25.707 18.293L33.707 26.293C34.097 26.683 34.097 27.317 33.707 27.707Z" fill="url(#nc-ui-3-2_linear_119_213)"></path> <defs> <linearGradient id="nc-ui-3-0_linear_119_213" x1="24.0009" y1="2.00305" x2="24.0009" y2="45.9998" gradientUnits="userSpaceOnUse"> <stop stop-color="#FFD36E"></stop> <stop offset="1" stop-color="#F6B828"></stop> </linearGradient> <linearGradient id="nc-ui-3-1_linear_119_213" x1="23.0058" y1="24.0125" x2="23.0058" y2="43" gradientUnits="userSpaceOnUse"> <stop stop-color="#F6B828"></stop> <stop offset="1" stop-color="#C88509"></stop> </linearGradient> <linearGradient id="nc-ui-3-2_linear_119_213" x1="29.0058" y1="18.0125" x2="29.0058" y2="39.5" gradientUnits="userSpaceOnUse"> <stop stop-color="#F6B828"></stop> <stop offset="1" stop-color="#C88509"></stop> </linearGradient> </defs></svg>