<svg xmlns="http://www.w3.org/2000/svg" height="48" width="48" viewBox="0 0 48 48"><rect x="7" y="32" width="16" height="15" rx="1" fill="#c6a279"></rect><rect x="25" y="32" width="16" height="15" rx="1" fill="#c6a279"></rect><rect x="16" y="15" width="16" height="15" rx="1" fill="#c6a279"></rect><path d="M46,14a1,1,0,0,1-.413-.09L24,4.1,2.414,13.91a1,1,0,0,1-.828-1.821l22-10a1,1,0,0,1,.828,0l22,10A1,1,0,0,1,46,14Z" fill="#b3b3b3"></path><rect x="31" y="32" width="4" height="6" fill="#ddbe99"></rect><rect x="22" y="15" width="4" height="6" fill="#ddbe99"></rect><rect x="13" y="32" width="4" height="6" fill="#ddbe99"></rect></svg>