<svg xmlns="http://www.w3.org/2000/svg" height="48" width="48" style="" viewBox="0 0 48 48"><path d="M13.934 19.59L5.17099 10.828C-0.348012 18.711 -0.348012 29.289 5.17099 37.172L13.934 28.409C12.709 25.604 12.709 22.395 13.934 19.59Z" fill="url(#nc-ui-3-0_linear_119_204)"></path> <path d="M34.066 28.41L42.829 37.173C48.348 29.29 48.348 18.712 42.829 10.829L34.066 19.592C35.291 22.397 35.291 25.605 34.066 28.41Z" fill="url(#nc-ui-3-1_linear_119_204)"></path> <path d="M28.41 13.934L37.173 5.17099C29.289 -0.348012 18.712 -0.348012 10.829 5.17099L19.592 13.934C22.397 12.709 25.605 12.709 28.41 13.934Z" fill="url(#nc-ui-3-2_linear_119_204)"></path> <path d="M19.59 34.066L10.827 42.829C18.711 48.348 29.288 48.348 37.171 42.829L28.408 34.066C25.603 35.291 22.395 35.291 19.59 34.066Z" fill="url(#nc-ui-3-3_linear_119_204)"></path> <path d="M31.778 16.222C32.777 17.221 33.533 18.368 34.066 19.591L42.829 10.828C42.071 9.74502 41.23 8.70302 40.263 7.73702C39.296 6.77102 38.255 5.93002 37.172 5.17102L28.409 13.934C29.631 14.468 30.779 15.224 31.778 16.222Z" fill="url(#nc-ui-3-4_linear_119_204)"></path> <path d="M42.829 37.1721L34.066 28.4091C33.532 29.6311 32.776 30.7791 31.778 31.7781C30.78 32.7771 29.632 33.5331 28.409 34.0661L37.172 42.8291C38.255 42.0711 39.297 41.2301 40.263 40.2641C41.229 39.2981 42.07 38.2561 42.828 37.1731L42.829 37.1721Z" fill="url(#nc-ui-3-5_linear_119_204)"></path> <path d="M16.222 31.7781C15.223 30.7791 14.467 29.6321 13.934 28.4091L5.17102 37.1721C5.92902 38.2551 6.77002 39.2971 7.73702 40.2631C8.70302 41.2291 9.74502 42.0701 10.828 42.8291L19.591 34.0661C18.369 33.5321 17.221 32.7761 16.222 31.7781Z" fill="url(#nc-ui-3-6_linear_119_204)"></path> <path d="M16.222 16.222C17.221 15.223 18.368 14.467 19.591 13.934L10.828 5.17102C9.745 5.92902 8.703 6.77002 7.737 7.73602C6.771 8.70202 5.93 9.74402 5.172 10.827L13.935 19.59C14.469 18.368 15.225 17.22 16.223 16.221L16.222 16.222Z" fill="url(#nc-ui-3-7_linear_119_204)"></path> <defs> <linearGradient id="nc-ui-3-0_linear_119_204" x1="7.48286" y1="10.828" x2="7.48286" y2="37.172" gradientUnits="userSpaceOnUse"> <stop stop-color="#FF666D"></stop> <stop offset="1" stop-color="#E0211F"></stop> </linearGradient> <linearGradient id="nc-ui-3-1_linear_119_204" x1="40.5171" y1="10.829" x2="40.5171" y2="37.173" gradientUnits="userSpaceOnUse"> <stop stop-color="#FF666D"></stop> <stop offset="1" stop-color="#E0211F"></stop> </linearGradient> <linearGradient id="nc-ui-3-2_linear_119_204" x1="24.001" y1="1.03174" x2="24.001" y2="13.934" gradientUnits="userSpaceOnUse"> <stop stop-color="#FF666D"></stop> <stop offset="1" stop-color="#E0211F"></stop> </linearGradient> <linearGradient id="nc-ui-3-3_linear_119_204" x1="23.999" y1="34.066" x2="23.999" y2="46.9683" gradientUnits="userSpaceOnUse"> <stop stop-color="#FF666D"></stop> <stop offset="1" stop-color="#E0211F"></stop> </linearGradient> <linearGradient id="nc-ui-3-4_linear_119_204" x1="35.619" y1="5.17102" x2="35.619" y2="19.591" gradientUnits="userSpaceOnUse"> <stop stop-color="#FFD6DA"></stop> <stop offset="1" stop-color="#FF9EA8"></stop> </linearGradient> <linearGradient id="nc-ui-3-5_linear_119_204" x1="35.619" y1="28.4091" x2="35.619" y2="42.8291" gradientUnits="userSpaceOnUse"> <stop stop-color="#FFD6DA"></stop> <stop offset="1" stop-color="#FF9EA8"></stop> </linearGradient> <linearGradient id="nc-ui-3-6_linear_119_204" x1="12.381" y1="28.4091" x2="12.381" y2="42.8291" gradientUnits="userSpaceOnUse"> <stop stop-color="#FFD6DA"></stop> <stop offset="1" stop-color="#FF9EA8"></stop> </linearGradient> <linearGradient id="nc-ui-3-7_linear_119_204" x1="12.3815" y1="5.17102" x2="12.3815" y2="19.59" gradientUnits="userSpaceOnUse"> <stop stop-color="#FFD6DA"></stop> <stop offset="1" stop-color="#FF9EA8"></stop> </linearGradient> </defs></svg>