<svg xmlns="http://www.w3.org/2000/svg" height="48" width="48" style="" viewBox="0 0 48 48"><path d="M44.535 24.121L22.707 2.293C22.52 2.105 22.265 2 22 2H3C2.448 2 2 2.448 2 3V22C2 22.265 2.105 22.52 2.293 22.707L24.121 44.535C26.075 46.484 29.238 46.484 31.192 44.535L44.535 31.192C46.488 29.239 46.488 26.074 44.535 24.121ZM14 18C11.791 18 10 16.209 10 14C10 11.791 11.791 10 14 10C16.209 10 18 11.791 18 14C18 16.209 16.209 18 14 18Z" fill="url(#nc-ui-2-0_linear_103_264)"></path> <defs> <linearGradient id="nc-ui-2-0_linear_103_264" x1="23.9999" y1="2" x2="23.9999" y2="45.9967" gradientUnits="userSpaceOnUse"> <stop stop-color="#FFD36E"></stop> <stop offset="1" stop-color="#F6B828"></stop> </linearGradient> </defs></svg>