<svg xmlns="http://www.w3.org/2000/svg" height="48" width="48" style="" viewBox="0 0 48 48"><path d="M43.535 21.124L23.707 1.29599C23.52 1.10799 23.265 1.00299 23 1.00299H6C5.448 1.00299 5 1.45099 5 2.00299V19.003C5 19.268 5.105 19.523 5.293 19.71L25.121 39.538C27.075 41.487 30.238 41.487 32.192 39.538L43.535 28.195C45.484 26.241 45.484 23.078 43.535 21.124Z" fill="url(#nc-ui-2-0_linear_103_239)"></path> <path d="M40.535 27.121L20.707 7.293C20.52 7.105 20.265 7 20 7H3C2.448 7 2 7.448 2 8V25C2 25.265 2.105 25.52 2.293 25.707L22.121 45.535C24.075 47.484 27.238 47.484 29.192 45.535L40.535 34.192C42.484 32.238 42.484 29.075 40.535 27.121ZM13 22C10.791 22 9 20.209 9 18C9 15.791 10.791 14 13 14C15.209 14 17 15.791 17 18C17 20.209 15.209 22 13 22Z" fill="url(#nc-ui-2-1_linear_103_239)"></path> <path opacity="0.2" d="M3 8H20C20.265 8 20.52 8.105 20.707 8.293L40.535 28.121C41.382 28.97 41.838 30.049 41.949 31.157C42.093 29.716 41.637 28.226 40.535 27.121L20.707 7.293C20.519 7.105 20.265 7 20 7H3C2.448 7 2 7.448 2 8V9C2 8.448 2.448 8 3 8Z" fill="white"></path> <defs> <linearGradient id="nc-ui-2-0_linear_103_239" x1="24.9984" y1="1.00299" x2="24.9984" y2="40.9997" gradientUnits="userSpaceOnUse"> <stop stop-color="#F6B828"></stop> <stop offset="1" stop-color="#C88509"></stop> </linearGradient> <linearGradient id="nc-ui-2-1_linear_103_239" x1="21.9984" y1="7" x2="21.9984" y2="46.9967" gradientUnits="userSpaceOnUse"> <stop stop-color="#FFD36E"></stop> <stop offset="1" stop-color="#F6B828"></stop> </linearGradient> </defs></svg>