<svg xmlns="http://www.w3.org/2000/svg" height="48" width="48" style="" viewBox="0 0 48 48"><path d="M41 9H3C1.89543 9 1 9.89543 1 11V41C1 42.1046 1.89543 43 3 43H41C42.1046 43 43 42.1046 43 41V11C43 9.89543 42.1046 9 41 9Z" fill="url(#nc-ui-1-0_linear_43_194)"></path><path d="M44 1H28C26.343 1 25 2.343 25 4V16C25 17.657 26.343 19 28 19H30V22C30 22.552 30.448 23 31 23C31.198 23 31.391 22.942 31.555 22.832L37.3 19H44C45.657 19 47 17.657 47 16V4C47 2.343 45.657 1 44 1Z" fill="url(#nc-ui-1-1_linear_43_194)"></path><path d="M35 14H30C29.448 14 29 13.552 29 13C29 12.448 29.448 12 30 12H35C35.552 12 36 12.448 36 13C36 13.552 35.552 14 35 14Z" fill="url(#nc-ui-1-2_linear_43_194)"></path><path d="M42 8H30C29.448 8 29 7.552 29 7C29 6.448 29.448 6 30 6H42C42.552 6 43 6.448 43 7C43 7.552 42.552 8 42 8Z" fill="url(#nc-ui-1-3_linear_43_194)"></path><path d="M15 25C17.7614 25 20 22.7614 20 20C20 17.2386 17.7614 15 15 15C12.2386 15 10 17.2386 10 20C10 22.7614 12.2386 25 15 25Z" fill="url(#nc-ui-1-4_linear_43_194)"></path><path d="M15 27C9.85701 27 5.62101 30.883 5.06201 35.877C4.99501 36.474 5.46201 37 6.06201 37H23.938C24.538 37 25.005 36.473 24.938 35.877C24.38 30.883 20.143 27 15 27Z" fill="url(#nc-ui-1-5_linear_43_194)"></path><defs><linearGradient id="nc-ui-1-0_linear_43_194" x1="22" y1="9" x2="22" y2="43" gradientUnits="userSpaceOnUse"><stop stop-color="#5B5E71"></stop><stop offset="1" stop-color="#393A46"></stop></linearGradient><linearGradient id="nc-ui-1-1_linear_43_194" x1="36" y1="1" x2="36" y2="23" gradientUnits="userSpaceOnUse"><stop stop-color="#C2C3CD"></stop><stop offset="1" stop-color="#A2A3B4"></stop></linearGradient><linearGradient id="nc-ui-1-2_linear_43_194" x1="29.5" y1="13" x2="36" y2="13" gradientUnits="userSpaceOnUse"><stop stop-color="#5B5E71"></stop><stop offset="1" stop-color="#393A46"></stop></linearGradient><linearGradient id="nc-ui-1-3_linear_43_194" x1="30" y1="7" x2="43" y2="7" gradientUnits="userSpaceOnUse"><stop stop-color="#5B5E71"></stop><stop offset="1" stop-color="#393A46"></stop></linearGradient><linearGradient id="nc-ui-1-4_linear_43_194" x1="15" y1="15" x2="15" y2="37" gradientUnits="userSpaceOnUse"><stop stop-color="#C2C3CD"></stop><stop offset="1" stop-color="#A2A3B4"></stop></linearGradient><linearGradient id="nc-ui-1-5_linear_43_194" x1="15" y1="15" x2="15" y2="37" gradientUnits="userSpaceOnUse"><stop stop-color="#C2C3CD"></stop><stop offset="1" stop-color="#A2A3B4"></stop></linearGradient></defs></svg>