<svg xmlns="http://www.w3.org/2000/svg" height="24" width="24" viewBox="0 0 24 24"><circle data-color="color-2" cx="6.5" cy="11.5" r="1.5" fill="#61616b"></circle> <circle data-color="color-2" cx="17.5" cy="11.5" r="1.5" fill="#61616b"></circle> <path d="M24,11.5a6.486,6.486,0,0,0-.179-1.49,11.985,11.985,0,0,0-23.642,0A6.486,6.486,0,0,0,0,11.5c0,.084.01.166.013.25S0,11.916,0,12a12,12,0,0,0,24,0c0-.084-.011-.166-.013-.25S24,11.584,24,11.5Zm-2.129-1.027c.025.163.058.323.075.489l0,.035c.022.22.027.446.034.67a4.485,4.485,0,1,1-.112-1.194ZM2.017,11.667c.007-.224.012-.45.034-.67l0-.035c.017-.166.05-.326.075-.489a4.512,4.512,0,1,1-.112,1.194Z" fill="#61616b"></path></svg>