<svg xmlns="http://www.w3.org/2000/svg" height="24" width="24" viewBox="0 0 24 24"><path data-color="color-2" d="M21.5,19c-.152,0-.307-.008-.463-.023a4.432,4.432,0,0,1-3.011-1.685A4.493,4.493,0,0,1,14.5,19c-.152,0-.307-.008-.463-.023a4.414,4.414,0,0,1-2.879-1.525,4,4,0,0,1-2.073,1.392A5,5,0,0,0,14,23h6a4,4,0,0,0,4-4v-.758A4.465,4.465,0,0,1,21.5,19Z" fill="#61616b"></path> <path d="M19,1H5A5,5,0,0,0,0,6v8.887a2.079,2.079,0,0,0,1.661,2.085A2,2,0,0,0,4,15V11a1,1,0,0,1,1-1H5a1,1,0,0,1,1,1v3.887a2.079,2.079,0,0,0,1.661,2.085A2,2,0,0,0,10,15V11a1,1,0,0,1,1-1h0a1,1,0,0,1,1,1v3.353a2.6,2.6,0,0,0,2.24,2.634A2.5,2.5,0,0,0,17,14.5V11a1,1,0,0,1,1-1h0a1,1,0,0,1,1,1v3.353a2.6,2.6,0,0,0,2.24,2.634A2.5,2.5,0,0,0,24,14.5V6A5,5,0,0,0,19,1Z" fill="#61616b"></path></svg>