<svg xmlns="http://www.w3.org/2000/svg" height="24" width="24" viewBox="0 0 24 24"><path data-color="color-2" d="M1,11a1,1,0,0,1-1-1V6A1,1,0,0,1,2,6v4A1,1,0,0,1,1,11Z" fill="#61616b"></path> <path data-color="color-2" d="M23,11a1,1,0,0,1-1-1V6a1,1,0,0,1,2,0v4A1,1,0,0,1,23,11Z" fill="#61616b"></path> <path d="M12,0A8.009,8.009,0,0,0,4,8V24H20V8A8.009,8.009,0,0,0,12,0ZM9,8A1,1,0,1,1,8,9,1,1,0,0,1,9,8Zm7,6H14v2a2,2,0,0,1-4,0V14H8V12h8Zm-1-4a1,1,0,1,1,1-1A1,1,0,0,1,15,10Z" fill="#61616b"></path></svg>