<svg xmlns="http://www.w3.org/2000/svg" height="24" width="24" viewBox="0 0 24 24"><path d="M23,11H20c-.024,0-.044.012-.067.014a7.947,7.947,0,0,0-1.627-3.925c.018-.016.041-.022.058-.039l1.343-1.343a1,1,0,1,0-1.414-1.414L16.95,5.636c-.017.017-.023.04-.039.058a7.947,7.947,0,0,0-3.925-1.627c0-.023.014-.043.014-.067V1a1,1,0,0,0-2,0V4c0,.024.012.044.014.067A7.947,7.947,0,0,0,7.089,5.694c-.016-.018-.022-.041-.039-.058L5.707,4.293A1,1,0,0,0,4.293,5.707L5.636,7.05c.017.017.04.023.058.039a7.947,7.947,0,0,0-1.627,3.925C4.044,11.012,4.024,11,4,11H1a1,1,0,0,0,0,2H4c.024,0,.044-.012.067-.014a7.947,7.947,0,0,0,1.627,3.925c-.018.016-.041.022-.058.039L4.293,18.293a1,1,0,1,0,1.414,1.414L7.05,18.364c.017-.017.023-.04.039-.058a7.947,7.947,0,0,0,3.925,1.627c0,.023-.014.043-.014.067v3a1,1,0,0,0,2,0V20c0-.024-.012-.044-.014-.067a7.947,7.947,0,0,0,3.925-1.627c.016.018.022.041.039.058l1.343,1.343a1,1,0,0,0,1.414-1.414L18.364,16.95c-.017-.017-.04-.023-.058-.039a7.947,7.947,0,0,0,1.627-3.925c.023,0,.043.014.067.014h3a1,1,0,0,0,0-2ZM8,9h3v2H8Zm4,8a4,4,0,0,1-4-4h2a2,2,0,0,0,4,0h2A4,4,0,0,1,12,17Zm4-6H13V9h3Z" fill="#61616b"></path></svg>