<svg xmlns="http://www.w3.org/2000/svg" height="24" width="24" viewBox="0 0 24 24"><path d="M24,11.5a4.417,4.417,0,0,0-.051-.5,11.99,11.99,0,0,0-23.9,0A4.417,4.417,0,0,0,0,11.5c0,.057.015.11.017.167,0,.112-.017.221-.017.333a12,12,0,0,0,24,0c0-.112-.014-.221-.017-.333C23.985,11.61,24,11.557,24,11.5ZM2.051,11A2.5,2.5,0,0,1,4.5,9H6.092A1.483,1.483,0,0,0,6,9.5a1.5,1.5,0,0,0,3,0A1.483,1.483,0,0,0,8.908,9h6.184A1.483,1.483,0,0,0,15,9.5a1.5,1.5,0,0,0,3,0,1.483,1.483,0,0,0-.092-.5H19.5a2.5,2.5,0,0,1,2.449,2c.022.22.027.444.034.668A2.5,2.5,0,0,1,19.5,14H4.5a2.5,2.5,0,0,1-2.483-2.333C2.024,11.443,2.029,11.219,2.051,11Z" fill="#61616b"></path></svg>