<svg xmlns="http://www.w3.org/2000/svg" height="24" width="24" viewBox="0 0 24 24"><path d="M9.684,4.948a1,1,0,0,0,1.265-.632l1-3a1,1,0,0,0-1.9-.632l-1,3A1,1,0,0,0,9.684,4.948Z" fill="#61616b" data-color="color-2"></path><path d="M22.684,12.052l-3,1a1,1,0,1,0,.632,1.9l3-1a1,1,0,1,0-.632-1.9Z" fill="#61616b" data-color="color-2"></path><circle cx="16" cy="4" r="2.5" fill="#61616b" data-color="color-2"></circle><path d="M15,10a1,1,0,0,0,1,1,7.008,7.008,0,0,0,7-7,1,1,0,0,0-2,0,5.006,5.006,0,0,1-5,5A1,1,0,0,0,15,10Z" fill="#61616b" data-color="color-2"></path><path d="M7.707,5.293a1,1,0,0,0-1.65.374l-6,17a1,1,0,0,0,1.276,1.276l17-6a1,1,0,0,0,.374-1.65ZM2.639,21.361l1.205-3.415.892,2.675Zm5.378-1.9L5.73,12.6l1.1-3.115,3.1,9.3Zm4.9-1.728-2.2-6.614,3.5,3.5L15,17Z" fill="#61616b"></path></svg>