<svg xmlns="http://www.w3.org/2000/svg" height="24" width="24" viewBox="0 0 24 24"><path d="M4.433,12.153A3.463,3.463,0,0,1,4,10.5,3.5,3.5,0,0,1,7.5,7a3.463,3.463,0,0,1,1.653.433L15.918.668A11.974,11.974,0,0,0,.668,15.918Z" fill="#61616b"></path> <path d="M17.873,1.541,10.567,8.847A3.463,3.463,0,0,1,11,10.5,3.5,3.5,0,0,1,7.5,14a3.463,3.463,0,0,1-1.653-.433L1.541,17.873A12,12,0,1,0,17.873,1.541ZM16.5,9A1.5,1.5,0,1,1,15,10.5,1.5,1.5,0,0,1,16.5,9Zm1.332,7.555A7.442,7.442,0,0,1,12,20H11V18H12a5.455,5.455,0,0,0,4.173-2.555l.555-.832,1.664,1.11Z" fill="#61616b"></path></svg>