<svg xmlns="http://www.w3.org/2000/svg" height="24" width="24" viewBox="0 0 24 24"><line fill="none" stroke="#61616b" stroke-width="2" x1="12" y1="4" x2="12" y2="1"></line> <path fill="none" stroke="#61616b" stroke-width="2" d="M2,16C2,7.083,7.029,4,12,4 s10,3.083,10,12c0,4.971-5.029,7-10,7S2,20.971,2,16z"></path> <path data-color="color-2" fill="none" stroke="#61616b" stroke-width="2" d="M12,8 c-3.804,0-5.811,2.463-5.983,7.312c0.061,0.595,0.332,1.114,1.179,1.623C8.322,17.612,10.073,18,12,18s3.678-0.388,4.804-1.065 c0.847-0.509,1.117-1.028,1.179-1.623C17.811,10.463,15.804,8,12,8z"></path></svg>