<svg xmlns="http://www.w3.org/2000/svg" height="24" width="24" viewBox="0 0 24 24"><path data-color="color-2" d="M2,9V6A2,2,0,0,1,6,6V9" fill="none" stroke="#61616b" stroke-width="2"></path><line data-color="color-2" x1="4" y1="4" x2="4" y2="1" fill="none" stroke="#61616b" stroke-width="2"></line><line data-color="color-2" x1="12" y1="7" x2="12" y2="4" fill="none" stroke="#61616b" stroke-width="2"></line><path data-color="color-2" d="M18,9V6a2,2,0,0,1,4,0V9" fill="none" stroke="#61616b" stroke-width="2"></path><line data-color="color-2" x1="20" y1="4" x2="20" y2="1" fill="none" stroke="#61616b" stroke-width="2"></line><path data-color="color-2" d="M7,13V12a5,5,0,0,1,10,0v1" fill="none" stroke="#61616b" stroke-width="2"></path><line x1="2" y1="22" x2="22" y2="22" fill="none" stroke="#61616b" stroke-width="2"></line><polyline points="18 22 18 9 22 9 22 22" fill="none" stroke="#61616b" stroke-width="2"></polyline><line x1="10" y1="19" x2="10" y2="22" fill="none" stroke="#61616b" stroke-width="2"></line><line x1="14" y1="19" x2="14" y2="22" fill="none" stroke="#61616b" stroke-width="2"></line><polyline points="6 22 6 9 2 9 2 22" fill="none" stroke="#61616b" stroke-width="2"></polyline><line x1="6" y1="13" x2="18" y2="13" fill="none" stroke="#61616b" stroke-width="2"></line></svg>