<svg xmlns="http://www.w3.org/2000/svg" height="24" width="24" viewBox="0 0 24 24"><line x1="12" y1="23" x2="12" y2="21" fill="none" stroke="#61616b" stroke-width="2"></line><line data-color="color-2" x1="17" y1="23" x2="17" y2="18" fill="none" stroke="#61616b" stroke-width="2"></line><line data-color="color-2" x1="7" y1="23" x2="7" y2="18" fill="none" stroke="#61616b" stroke-width="2"></line><path data-cap="butt" data-color="color-2" d="M15,5c0-2.2-3-4-3-4S9,2.8,9,5" fill="none" stroke="#61616b" stroke-width="2"></path><polyline points="21 18 21 23 3 23 3 18" fill="none" stroke="#61616b" stroke-width="2"></polyline><path data-cap="butt" d="M5,10c-.7,3-4,4-4,4v1H23V14s-3.3-1-4-4" fill="none" stroke="#61616b" stroke-width="2"></path><path d="M17,5H7C6.3,8,3,9,3,9v1H21V9S17.7,8,17,5Z" fill="none" stroke="#61616b" stroke-width="2"></path></svg>