<svg xmlns="http://www.w3.org/2000/svg" height="24" width="24" viewBox="0 0 24 24"><path data-cap="butt" d="M14,23V20a2.006,2.006,0,0,0-2-2h0a2.006,2.006,0,0,0-2,2v3" fill="none" stroke="#61616b" stroke-width="2"></path><polyline points="1 14 1 23 23 23 23 14" fill="none" stroke="#61616b" stroke-width="2"></polyline><line data-cap="butt" x1="7" y1="8" x2="5" y2="23" fill="none" stroke="#61616b" stroke-width="2"></line><line data-cap="butt" x1="19" y1="23" x2="17" y2="8" fill="none" stroke="#61616b" stroke-width="2"></line><path data-color="color-2" d="M20,1V6a2,2,0,0,1-2,2H6A2,2,0,0,1,4,6V1" fill="none" stroke="#61616b" stroke-width="2"></path><line data-color="color-2" x1="8" y1="1" x2="8" y2="3" fill="none" stroke="#61616b" stroke-width="2"></line><line data-color="color-2" x1="12" y1="3" x2="12" y2="1" fill="none" stroke="#61616b" stroke-width="2"></line><line data-color="color-2" x1="16" y1="1" x2="16" y2="3" fill="none" stroke="#61616b" stroke-width="2"></line><line data-color="color-2" x1="4" y1="3" x2="20" y2="3" fill="none" stroke="#61616b" stroke-width="2"></line><line x1="3" y1="16" x2="1" y2="16" fill="none" stroke="#61616b" stroke-width="2"></line><line x1="23" y1="16" x2="21" y2="16" fill="none" stroke="#61616b" stroke-width="2"></line></svg>