<svg xmlns="http://www.w3.org/2000/svg" height="24" width="24" viewBox="0 0 24 24"><line data-color="color-2" fill="none" stroke="#61616b" stroke-width="2" x1="6" y1="19" x2="6" y2="17"></line> <line data-color="color-2" fill="none" stroke="#61616b" stroke-width="2" x1="10" y1="19" x2="10" y2="17"></line> <line data-color="color-2" fill="none" stroke="#61616b" stroke-width="2" x1="14" y1="19" x2="14" y2="17"></line> <line data-color="color-2" fill="none" stroke="#61616b" stroke-width="2" x1="18" y1="19" x2="18" y2="17"></line> <line data-color="color-2" fill="none" stroke="#61616b" stroke-width="2" x1="6" y1="13" x2="6" y2="11"></line> <line data-color="color-2" fill="none" stroke="#61616b" stroke-width="2" x1="6" y1="7" x2="6" y2="5"></line> <line data-color="color-2" fill="none" stroke="#61616b" stroke-width="2" x1="10" y1="13" x2="10" y2="11"></line> <line data-color="color-2" fill="none" stroke="#61616b" stroke-width="2" x1="10" y1="7" x2="10" y2="5"></line> <line data-color="color-2" fill="none" stroke="#61616b" stroke-width="2" x1="14" y1="13" x2="14" y2="11"></line> <line data-color="color-2" fill="none" stroke="#61616b" stroke-width="2" x1="18" y1="13" x2="18" y2="11"></line> <line fill="none" stroke="#61616b" stroke-width="2" x1="22" y1="13" x2="2" y2="13"></line> <line fill="none" stroke="#61616b" stroke-width="2" x1="16" y1="7" x2="2" y2="7"></line> <path fill="none" stroke="#61616b" stroke-width="2" d="M22,19V7h-6l-4-6H4 C2.9,1,2,1.9,2,3v16"></path> <polygon fill="none" stroke="#61616b" stroke-width="2" points="2,19 1,19 1,23 23,23 23,19 22,19 "></polygon></svg>