<svg xmlns="http://www.w3.org/2000/svg" height="24" width="24" viewBox="0 0 24 24"><circle cx="8" cy="19" r="1" fill="#61616b" data-color="color-2" data-stroke="none" stroke="none"></circle><circle cx="16" cy="19" r="1" fill="#61616b" data-color="color-2" data-stroke="none" stroke="none"></circle><line x1="12" y1="19" x2="12" y2="23" fill="none" stroke="#61616b" stroke-width="2" data-color="color-2"></line><path d="M8.8,13.907l-5.825,3.51A2,2,0,0,0,2,19.132V23H22V19.132a2,2,0,0,0-.971-1.715L15.2,13.907" fill="none" stroke="#61616b" stroke-width="2" data-cap="butt"></path><path d="M6,7V2a14.515,14.515,0,0,1,6-1,14.515,14.515,0,0,1,6,1V7c0,5-2.686,8-6,8S6,12,6,7Z" fill="none" stroke="#61616b" stroke-width="2"></path><path d="M6,7a14.515,14.515,0,0,1,6-1,14.515,14.515,0,0,1,6,1" fill="none" stroke="#61616b" stroke-width="2" data-cap="butt"></path></svg>