<svg xmlns="http://www.w3.org/2000/svg" height="24" width="24" viewBox="0 0 24 24"><line x1="6.281" y1="19.122" x2="7" y2="22" fill="none" stroke="#61616b" stroke-width="2"></line><line x1="2" y1="17" x2="4.878" y2="17.719" fill="none" stroke="#61616b" stroke-width="2"></line><path d="M8.341,4.841A2.25,2.25,0,1,0,5.159,1.659L5,1.818l-.159-.159A2.25,2.25,0,0,0,1.659,4.841L1.818,5,5,8.182,8.182,5Z" fill="none" stroke="#61616b" stroke-width="2" data-color="color-2"></path><path d="M8.982,8.443l1.857,1.182L8.11,12.354a3.989,3.989,0,0,0-.643.842L3.457,20.2a.25.25,0,0,0,.341.341l7.006-4.01a3.989,3.989,0,0,0,.842-.643l2.729-2.729L20,22l2-2L18.786,8.75l3.482-3.482a2.5,2.5,0,0,0-3.536-3.536L15.25,5.214,11.9,4.258" fill="none" stroke="#61616b" stroke-width="2"></path></svg>