<svg xmlns="http://www.w3.org/2000/svg" height="24" width="24" viewBox="0 0 24 24"><path d="M15.674.749a2.538,2.538,0,0,0-3.588.009c-.029.03-.058.06-.086.091A2.535,2.535,0,1,0,8.214,4.221c.036.041.073.08.112.118L12,8.008l3.674-3.675a2.533,2.533,0,0,0,0-3.582Z" fill="#61616b" data-color="color-2" data-stroke="none" stroke="none"></path><line x1="16" y1="21" x2="8" y2="21" fill="none" stroke="#61616b" stroke-width="2" data-cap="butt"></line><path d="M4,21H1V16a2,2,0,0,1,2-2H7l1,1H21a2,2,0,0,1,2,2v4H20" fill="none" stroke="#61616b" stroke-width="2" data-cap="butt"></path><circle cx="6" cy="21" r="2" fill="none" stroke="#61616b" stroke-width="2" data-cap="butt"></circle><circle cx="18" cy="21" r="2" fill="none" stroke="#61616b" stroke-width="2" data-cap="butt"></circle><polyline points="15 11 17 15 14.417 15" fill="none" stroke="#61616b" stroke-width="2"></polyline><line x1="7" y1="11" x2="7" y2="14" fill="none" stroke="#61616b" stroke-width="2"></line></svg>