<svg xmlns="http://www.w3.org/2000/svg" height="24" width="24" viewBox="0 0 24 24"><polyline points="7 23 2 23 2 13 4 13" fill="none" stroke="#61616b" stroke-width="2"></polyline><polyline points="17 23 22 23 22 13 20 13" fill="none" stroke="#61616b" stroke-width="2"></polyline><line x1="12" y1="3" x2="12" y2="1" fill="none" stroke="#61616b" stroke-width="2"></line><path data-cap="butt" d="M8,8.968V7a4,4,0,0,1,8,0V8.968" fill="none" stroke="#61616b" stroke-width="2"></path><path d="M12,7h0a4.951,4.951,0,0,0-5,5V23H17V12A4.951,4.951,0,0,0,12,7Z" fill="none" stroke="#61616b" stroke-width="2"></path><line data-color="color-2" x1="11" y1="11" x2="13" y2="11" fill="none" stroke="#61616b" stroke-width="2"></line><line data-color="color-2" x1="11" y1="15" x2="13" y2="15" fill="none" stroke="#61616b" stroke-width="2"></line><line data-color="color-2" x1="11" y1="19" x2="13" y2="19" fill="none" stroke="#61616b" stroke-width="2"></line></svg>