<svg xmlns="http://www.w3.org/2000/svg" height="24" width="24" viewBox="0 0 24 24"><polyline points="18 18 18 23 6 23 6 18" fill="none" stroke="#61616b" stroke-width="2" data-cap="butt"></polyline><line x1="18" y1="10" x2="18" y2="15" fill="none" stroke="#61616b" stroke-width="2" data-cap="butt"></line><line x1="6" y1="15" x2="6" y2="10" fill="none" stroke="#61616b" stroke-width="2" data-cap="butt"></line><line x1="10" y1="21" x2="10" y2="23" fill="none" stroke="#61616b" stroke-width="2"></line><line x1="14" y1="21" x2="14" y2="23" fill="none" stroke="#61616b" stroke-width="2"></line><line x1="10" y1="12.999" x2="10" y2="14.999" fill="none" stroke="#61616b" stroke-width="2"></line><line x1="14" y1="12.999" x2="14" y2="14.999" fill="none" stroke="#61616b" stroke-width="2"></line><path d="M5.262,15a5.916,5.916,0,0,1-2.722.973A3.983,3.983,0,0,0,6,18H18a3.983,3.983,0,0,0,3.46-2.027A5.916,5.916,0,0,1,18.738,15Z" fill="none" stroke="#61616b" stroke-width="2" data-cap="butt" data-color="color-2"></path><path d="M18.738,7,12,2,5.262,7a5.916,5.916,0,0,1-2.722.973A3.983,3.983,0,0,0,6,10H18a3.983,3.983,0,0,0,3.46-2.027A5.916,5.916,0,0,1,18.738,7Z" fill="none" stroke="#61616b" stroke-width="2" data-cap="butt" data-color="color-2"></path></svg>