<svg xmlns="http://www.w3.org/2000/svg" height="24" width="24" viewBox="0 0 24 24"><line x1="12" y1="3" x2="12" y2="1" fill="none" stroke="#61616b" stroke-width="2"></line><path data-cap="butt" d="M16,15A27.387,27.387,0,0,1,14,5a2,2,0,0,0-4,0A27.387,27.387,0,0,1,8,15" fill="none" stroke="#61616b" stroke-width="2"></path><path d="M6.565,18A27.4,27.4,0,0,1,3,23H9.293C9.774,20.637,10.8,19,12,19s2.226,1.637,2.707,4H21a27.4,27.4,0,0,1-3.565-5" fill="none" stroke="#61616b" stroke-width="2"></path><line data-color="color-2" x1="6" y1="15" x2="18" y2="15" fill="none" stroke="#61616b" stroke-width="2"></line><line data-color="color-2" x1="8" y1="9" x2="16" y2="9" fill="none" stroke="#61616b" stroke-width="2"></line><line data-color="color-2" x1="12" y1="15" x2="12" y2="13" fill="none" stroke="#61616b" stroke-width="2"></line></svg>