<svg xmlns="http://www.w3.org/2000/svg" height="24" width="24" viewBox="0 0 24 24"><line x1="6" y1="23" x2="6" y2="15" fill="none" stroke="#61616b" stroke-width="2"></line><line x1="4" y1="23" x2="8" y2="23" fill="none" stroke="#61616b" stroke-width="2"></line><path d="M9.414,11.586A2,2,0,0,0,10,10.172V3A2,2,0,0,0,8,1H4A2,2,0,0,0,2,3v7.172a2,2,0,0,0,.586,1.414L6,15Z" fill="none" stroke="#61616b" stroke-width="2"></path><line data-color="color-2" x1="18" y1="1" x2="18" y2="9" fill="none" stroke="#61616b" stroke-width="2"></line><line data-color="color-2" x1="16" y1="1" x2="20" y2="1" fill="none" stroke="#61616b" stroke-width="2"></line><path data-color="color-2" d="M21.414,12.414A2,2,0,0,1,22,13.828V21a2,2,0,0,1-2,2H16a2,2,0,0,1-2-2V13.828a2,2,0,0,1,.586-1.414L18,9Z" fill="none" stroke="#61616b" stroke-width="2"></path></svg>