<svg xmlns="http://www.w3.org/2000/svg" height="24" width="24" viewBox="0 0 24 24"><path d="M9.7,12C9.424,6.528,9,3,8.517,3H8.511C7.948,3,7.459,7.848,7.2,15" fill="none" stroke="#61616b" stroke-width="2"></path><circle cx="8.5" cy="1.5" r="1.5" fill="#61616b" data-color="color-2" data-stroke="none" stroke="none"></circle><path d="M7,23H1c.1-10.173.727-18,1.483-18h.006C3.142,5,3.7,10.846,3.9,19" fill="none" stroke="#61616b" stroke-width="2"></path><circle cx="2.5" cy="3.5" r="1.5" fill="#61616b" data-color="color-2" data-stroke="none" stroke="none"></circle><path d="M14.3,12c.274-5.472.7-9,1.181-9h.006c.563,0,1.052,4.848,1.308,12" fill="none" stroke="#61616b" stroke-width="2"></path><circle cx="15.5" cy="1.5" r="1.5" fill="#61616b" data-color="color-2" data-stroke="none" stroke="none"></circle><path d="M17,23h6c-.1-10.173-.727-18-1.483-18h-.006C20.858,5,20.3,10.846,20.1,19" fill="none" stroke="#61616b" stroke-width="2"></path><circle cx="21.5" cy="3.5" r="1.5" fill="#61616b" data-color="color-2" data-stroke="none" stroke="none"></circle><polygon points="8 19 12 15 16 19 17 23 7 23 8 19" fill="none" stroke="#61616b" stroke-width="2" data-cap="butt" data-color="color-2"></polygon><line x1="12" y1="21" x2="12" y2="23" fill="none" stroke="#61616b" stroke-width="2" data-color="color-2"></line></svg>