<svg xmlns="http://www.w3.org/2000/svg" height="24" width="24" viewBox="0 0 24 24"><polygon points="9 14 11 7 13 7 15 14 9 14" fill="none" stroke="#61616b" stroke-width="2" data-cap="butt"></polygon><polyline points="6 16 6 23 2 23 2 16" fill="none" stroke="#61616b" stroke-width="2" data-cap="butt"></polyline><polyline points="22 16 22 23 18 23 18 16" fill="none" stroke="#61616b" stroke-width="2" data-cap="butt"></polyline><path d="M14,23V20a2,2,0,0,0-4,0v3" fill="none" stroke="#61616b" stroke-width="2" data-cap="butt"></path><line x1="7" y1="14" x2="9" y2="14" fill="none" stroke="#61616b" stroke-width="2" data-cap="butt"></line><line x1="15" y1="14" x2="17" y2="14" fill="none" stroke="#61616b" stroke-width="2" data-cap="butt"></line><line x1="6" y1="23" x2="18" y2="23" fill="none" stroke="#61616b" stroke-width="2" data-cap="butt"></line><path d="M7,14c0,1.154-1.343,2-3,2s-3-.717-3-2c0-1.681,1.678-1.971,3-4C5.447,12.029,7,12.287,7,14Z" fill="none" stroke="#61616b" stroke-width="2" data-cap="butt" data-color="color-2"></path><path d="M23,14c0,1.154-1.343,2-3,2s-3-.717-3-2c0-1.681,1.678-1.971,3-4C21.447,12.029,23,12.287,23,14Z" fill="none" stroke="#61616b" stroke-width="2" data-cap="butt" data-color="color-2"></path><circle cx="12" cy="5" r="2" fill="none" stroke="#61616b" stroke-width="2" data-cap="butt" data-color="color-2"></circle><line x1="11.985" y1="1" x2="11.985" y2="3" fill="none" stroke="#61616b" stroke-width="2" data-color="color-2"></line><line x1="20" y1="8" x2="20" y2="10" fill="none" stroke="#61616b" stroke-width="2" data-color="color-2"></line><line x1="4" y1="8" x2="4" y2="10" fill="none" stroke="#61616b" stroke-width="2" data-color="color-2"></line></svg>