<svg xmlns="http://www.w3.org/2000/svg" height="24" width="24" viewBox="0 0 24 24"><line x1="12" y1="22" x2="12" y2="19" fill="none" stroke="#61616b" stroke-width="2" data-color="color-2"></line><path d="M8,3,9.057,8.567a3,3,0,0,0,5.886,0L16,3" fill="none" stroke="#61616b" stroke-width="2" data-cap="butt" data-color="color-2"></path><path d="M3,19H5a2,2,0,0,1,2,2v2a0,0,0,0,1,0,0H1a0,0,0,0,1,0,0V21A2,2,0,0,1,3,19Z" fill="none" stroke="#61616b" stroke-width="2" data-cap="butt"></path><path d="M19,19h2a2,2,0,0,1,2,2v2a0,0,0,0,1,0,0H17a0,0,0,0,1,0,0V21A2,2,0,0,1,19,19Z" fill="none" stroke="#61616b" stroke-width="2" data-cap="butt"></path><line x1="7" y1="22" x2="17" y2="22" fill="none" stroke="#61616b" stroke-width="2" data-cap="butt"></line><path d="M3,19l.678-3.392A2,2,0,0,1,5.64,14H9" fill="none" stroke="#61616b" stroke-width="2" data-cap="butt"></path><path d="M21,19l-.678-3.392A2,2,0,0,0,18.36,14H15" fill="none" stroke="#61616b" stroke-width="2" data-cap="butt"></path><polyline points="9 16 9 14 4 10 8 3 16 3 20 10 15 14 15 16" fill="none" stroke="#61616b" stroke-width="2"></polyline><line x1="12" y1="1" x2="12" y2="3" fill="none" stroke="#61616b" stroke-width="2"></line></svg>