<svg xmlns="http://www.w3.org/2000/svg" height="24" width="24" viewBox="0 0 24 24"><path d="M5.667,3.333a1.667,1.667,0,0,1-3.334,0A5.82,5.82,0,0,1,4,0,5.82,5.82,0,0,1,5.667,3.333Z" fill="#61616b" data-color="color-2" data-stroke="none" stroke="none"></path><circle cx="12" cy="11" r="2" fill="none" stroke="#61616b" stroke-width="2" data-cap="butt"></circle><path d="M18,19.667V18a2,2,0,0,0-2-2H9a2,2,0,0,1-1.6-.8L5,12,4,7" fill="none" stroke="#61616b" stroke-width="2" data-cap="butt"></path><line x1="2" y1="7" x2="6" y2="7" fill="none" stroke="#61616b" stroke-width="2"></line><polyline points="5 17 7 21 7 23" fill="none" stroke="#61616b" stroke-width="2"></polyline><line x1="12" y1="9" x2="12" y2="7" fill="none" stroke="#61616b" stroke-width="2"></line><line x1="13.414" y1="9.586" x2="14.828" y2="8.172" fill="none" stroke="#61616b" stroke-width="2"></line><line x1="14" y1="11" x2="16" y2="11" fill="none" stroke="#61616b" stroke-width="2"></line><line x1="10.586" y1="9.586" x2="9.172" y2="8.172" fill="none" stroke="#61616b" stroke-width="2"></line><line x1="10" y1="11" x2="8" y2="11" fill="none" stroke="#61616b" stroke-width="2"></line><polyline points="20 23 21 21 18 19 16 23" fill="none" stroke="#61616b" stroke-width="2" data-cap="butt" data-color="color-2"></polyline><line x1="16" y1="16" x2="10" y2="23" fill="none" stroke="#61616b" stroke-width="2" data-cap="butt"></line></svg>