<svg xmlns="http://www.w3.org/2000/svg" height="24" width="24" viewBox="0 0 24 24"><line data-cap="butt" data-color="color-2" x1="10" y1="16" x2="14" y2="16" fill="none" stroke="#61616b" stroke-width="2"></line><path d="M8,2l-2.12.707A2,2,0,0,0,4.655,3.861L1.572,11.57A7.994,7.994,0,0,0,1,14.541V17a4,4,0,0,0,4,4H6a4,4,0,0,0,4-4V15a2,2,0,0,0-2-2H2" fill="none" stroke="#61616b" stroke-width="2"></path><path d="M16,2l2.12.707a2,2,0,0,1,1.225,1.154l3.083,7.709A7.994,7.994,0,0,1,23,14.541V17a4,4,0,0,1-4,4H18a4,4,0,0,1-4-4V15a2,2,0,0,1,2-2h6" fill="none" stroke="#61616b" stroke-width="2"></path></svg>