<svg xmlns="http://www.w3.org/2000/svg" height="24" width="24" viewBox="0 0 24 24"><path data-cap="butt" d="M21,10,19.456,5.368A2,2,0,0,0,17.558,4H6.442a2,2,0,0,0-1.9,1.368L3,10" fill="none" stroke="#61616b" stroke-width="2"></path><polyline data-color="color-2" points="6 19 6 22 1 22 1 19" fill="none" stroke="#61616b" stroke-width="2"></polyline><polyline data-color="color-2" points="23 19 23 22 18 22 18 19" fill="none" stroke="#61616b" stroke-width="2"></polyline><path d="M23,19H1V12.828a2,2,0,0,1,.586-1.414L3,10H21l1.414,1.414A2,2,0,0,1,23,12.828Z" fill="none" stroke="#61616b" stroke-width="2"></path><line data-color="color-2" x1="5" y1="14" x2="7" y2="14" fill="none" stroke="#61616b" stroke-width="2"></line><line data-color="color-2" x1="17" y1="14" x2="19" y2="14" fill="none" stroke="#61616b" stroke-width="2"></line><line data-color="color-2" x1="10" y1="1" x2="14" y2="1" fill="none" stroke="#61616b" stroke-width="2"></line></svg>