<svg xmlns="http://www.w3.org/2000/svg" height="24" width="24" viewBox="0 0 24 24"><circle data-stroke="none" cx="2.5" cy="6.5" r="1.5" fill="#61616b" stroke="none"></circle> <path data-color="color-2" d="M1,23a6.982,6.982,0,0,0,5.5-2.679,6.985,6.985,0,0,0,11,0A6.982,6.982,0,0,0,23,23" fill="none" stroke="#61616b" stroke-width="2"></path> <path d="M22,13.537l-7.482,2.752L8.83,1.335s7.481-2.753,11.392,7.529Z" fill="none" stroke="#61616b" stroke-width="2"></path> <path d="M8,9,6,10H4.18a1,1,0,0,0-.986,1.164l.628,3.768a1,1,0,0,0,1.229.8l2.265-.566a1,1,0,0,1,1.075.415L10,18" fill="none" stroke="#61616b" stroke-width="2"></path></svg>