<svg xmlns="http://www.w3.org/2000/svg" height="24" width="24" viewBox="0 0 24 24"><line data-cap="butt" data-color="color-2" fill="none" stroke="#61616b" stroke-width="2" x1="5.572" y1="7" x2="9" y2="1"></line> <line data-cap="butt" data-color="color-2" fill="none" stroke="#61616b" stroke-width="2" x1="18.427" y1="6.997" x2="15" y2="1"></line> <polyline fill="none" stroke="#61616b" stroke-width="2" points="9,22 3,22 3,11 "></polyline> <polygon fill="none" stroke="#61616b" stroke-width="2" points="23,11 1,11 1,7 1,7 23,7 "></polygon> <path data-cap="butt" data-color="color-2" fill="none" stroke="#61616b" stroke-width="2" d="M14.126,17 c0.444-1.725,2.01-3,3.874-3c1.48,0,2.772,0.804,3.464,1.999"></path> <polygon data-color="color-2" data-stroke="none" fill="#61616b" points="23.22,13.649 22.792,18 18.522,17.061 " stroke-linejoin="miter" stroke="none"></polygon> <path data-cap="butt" data-color="color-2" fill="none" stroke="#61616b" stroke-width="2" d="M21.874,20 c-0.444,1.725-2.01,3-3.874,3c-1.48,0-2.772-0.804-3.464-1.999"></path> <polygon data-color="color-2" data-stroke="none" fill="#61616b" points="12.78,23.351 13.208,19 17.478,19.939 " stroke-linejoin="miter" stroke="none"></polygon></svg>