<svg xmlns="http://www.w3.org/2000/svg" height="24" width="24" viewBox="0 0 24 24"><polyline fill="none" stroke="#61616b" stroke-width="2" points="1,1 4,1 4,16 23,16 "></polyline> <circle data-color="color-2" fill="none" stroke="#61616b" stroke-width="2" cx="6" cy="21" r="2"></circle> <circle data-color="color-2" fill="none" stroke="#61616b" stroke-width="2" cx="21" cy="21" r="2"></circle> <line fill="none" stroke="#61616b" stroke-width="2" x1="4" y1="4" x2="9" y2="4"></line> <path data-cap="butt" data-color="color-2" fill="none" stroke="#61616b" stroke-width="2" d="M14.126,4 C14.57,2.275,16.136,1,18,1c1.48,0,2.772,0.804,3.464,1.999"></path> <polygon data-color="color-2" data-stroke="none" fill="#61616b" points="23.22,0.649 22.792,5 18.522,4.061 " stroke-linejoin="miter" stroke="none"></polygon> <path data-cap="butt" data-color="color-2" fill="none" stroke="#61616b" stroke-width="2" d="M21.874,7 c-0.444,1.725-2.01,3-3.874,3c-1.48,0-2.772-0.804-3.464-1.999"></path> <polygon data-color="color-2" data-stroke="none" fill="#61616b" points="12.78,10.351 13.208,6 17.478,6.939 " stroke-linejoin="miter" stroke="none"></polygon></svg>