<svg xmlns="http://www.w3.org/2000/svg" height="24" width="24" viewBox="0 0 24 24"><path data-cap="butt" fill="none" stroke="#61616b" stroke-width="2" d="M13.374,11.997 C12.052,11.931,11,10.839,11,9.5c0,1.381-1.119,2.5-2.5,2.5S6,10.881,6,9.5C6,10.881,4.881,12,3.5,12S1,10.958,1,9l4-8h12l4,8"></path> <polyline data-cap="butt" fill="none" stroke="#61616b" stroke-width="2" points="4,12 4,21 12,21 "></polyline> <path data-color="color-2" fill="none" stroke="#61616b" stroke-width="2" d="M23,14 c0,3.1-5,8.1-5,8.1s-5-5-5-8.1c0-3.2,2.6-5,5-5S23,10.8,23,14z"></path> <circle data-color="color-2" data-stroke="none" fill="#61616b" cx="18" cy="14" r="1" stroke="none"></circle></svg>