<svg xmlns="http://www.w3.org/2000/svg" height="24" width="24" viewBox="0 0 24 24"><polyline points="9 5 1 5 1 21 21 21 21 13" fill="none" stroke="#61616b" stroke-width="2"></polyline><path d="M13,2v6c0,.552,.448,1,1,1h1v2l4-2h3c.552,0,1-.448,1-1V2c0-.552-.448-1-1-1H14c-.552,0-1,.448-1,1Z" fill="none" stroke="#61616b" stroke-width="2" data-color="color-2"></path><circle cx="8" cy="11" r="2" fill="#61616b" data-stroke="none" stroke="none"></circle><path d="M8,14h0c1.76,0,3.254,1.136,3.789,2.715,.214,.633-.294,1.285-.962,1.285H5.173c-.668,0-1.177-.652-.962-1.285,.535-1.579,2.029-2.715,3.789-2.715Z" fill="#61616b" data-stroke="none" stroke="none"></path></svg>