<svg xmlns="http://www.w3.org/2000/svg" height="24" width="24" viewBox="0 0 24 24"><path d="M6,23a1,1,0,0,1-.877-1.479l3.273-6a1,1,0,1,1,1.756.958l-3.273,6A1,1,0,0,1,6,23Z" fill="#61616b" data-color="color-2"></path><path d="M14.227,12.994A2.99,2.99,0,1,0,12,14a2.925,2.925,0,0,0,.471-.048l4.651,8.527a1,1,0,0,0,1.756-.958Z" fill="#61616b" data-color="color-2"></path><path d="M23.733,8.222l-1.459-6.4a1,1,0,0,0-1.2-.753L4.251,4.9A1,1,0,0,0,3.5,6.1l.082.361L1.02,7.04a1,1,0,0,0-.753,1.2l.889,3.9a1,1,0,0,0,.974.777,1.012,1.012,0,0,0,.224-.025l2.56-.584.044.192a1,1,0,0,0,.974.778.953.953,0,0,0,.223-.025l1.25-.285a4.992,4.992,0,1,1,9.573-2.181l6-1.367A1,1,0,0,0,23.733,8.222Z" fill="#61616b"></path></svg>