<svg xmlns="http://www.w3.org/2000/svg" height="24" width="24" viewBox="0 0 24 24"><path d="M21.324,15.5l1.748-3a1,1,0,0,0,0-1.008l-1.748-3,1.748-3A1,1,0,0,0,21.345,4.5l-1.753,3H16.658L15.2,5l1.748-3A1,1,0,0,0,15.22,1L13.467,4H10.533L8.78,1A1,1,0,0,0,7.917.5H3.833A1,1,0,0,0,2.97,1L.928,4.5a1,1,0,0,0,0,1.008l1.748,3-1.748,3a1,1,0,0,0,0,1.008l1.748,3-1.748,3a1,1,0,0,0,0,1.008L2.97,23a1,1,0,0,0,.863.5H7.917A1,1,0,0,0,8.78,23l1.753-3h2.934l1.753,3A1,1,0,0,0,16.947,22L15.2,19l1.459-2.5h2.934l1.753,3A1,1,0,0,0,23.072,18.5ZM10.533,18,9.074,15.5,10.533,13h2.934l1.459,2.5L13.467,18ZM4.408,14.5,2.949,12,4.408,9.5H7.342L8.8,12,7.342,14.5ZM13.467,6l1.459,2.5L13.467,11H10.533L9.074,8.5,10.533,6Z" fill="#61616b"></path></svg>