<svg xmlns="http://www.w3.org/2000/svg" height="24" width="24" viewBox="0 0 24 24"><path data-color="color-2" fill="#61616b" d="M19,1h-3v6h3c0.553,0,1-0.448,1-1V2C20,1.448,19.553,1,19,1z"></path> <path data-color="color-2" fill="#61616b" d="M23,9h-3v6h3c0.553,0,1-0.448,1-1v-4C24,9.448,23.553,9,23,9z"></path> <path data-color="color-2" fill="#61616b" d="M19,17h-3v6h3c0.553,0,1-0.448,1-1v-4C20,17.448,19.553,17,19,17z"></path> <path fill="#61616b" d="M1,1C0.447,1,0,1.448,0,2v4c0,0.552,0.447,1,1,1h13V1H1z"></path> <path fill="#61616b" d="M5,9c-0.553,0-1,0.448-1,1v4c0,0.552,0.447,1,1,1h13V9H5z"></path> <path fill="#61616b" d="M1,17c-0.553,0-1,0.448-1,1v4c0,0.552,0.447,1,1,1h13v-6H1z"></path></svg>