<svg xmlns="http://www.w3.org/2000/svg" height="24" width="24" viewBox="0 0 24 24"><polygon points="21.414 6 16 6 16 0.586 21.414 6" fill="#61616b"></polygon><path d="M12.09,19H5.5a.5.5,0,0,1-.5-.5v-1a.5.5,0,0,1,.5-.5h6.59a5.979,5.979,0,0,1,1.45-3H5.5a.5.5,0,0,1-.5-.5v-1a.5.5,0,0,1,.5-.5H18a5.969,5.969,0,0,1,4,1.54V8H15a1,1,0,0,1-1-1V0H3A1,1,0,0,0,2,1V23a1,1,0,0,0,1,1H17A5.64,5.64,0,0,1,12.09,19ZM5.5,7h5a.5.5,0,0,1,.5.5v1a.5.5,0,0,1-.5.5h-5A.5.5,0,0,1,5,8.5v-1A.5.5,0,0,1,5.5,7Z" fill="#61616b"></path><path d="M23.707,22.293l-2.274-2.274A3.947,3.947,0,0,0,22,18a4,4,0,1,0-4,4,3.947,3.947,0,0,0,2.019-.567l2.274,2.274a1,1,0,0,0,1.414-1.414ZM16,18a2,2,0,1,1,2,2A2,2,0,0,1,16,18Z" fill="#61616b" data-color="color-2"></path></svg>