<svg xmlns="http://www.w3.org/2000/svg" height="24" width="24" viewBox="0 0 24 24"><polygon points="8 11 10 15 14 15 16 11 12 8 8 11" fill="#61616b"></polygon> <path d="M12,0A12,12,0,1,0,24,12,12.013,12.013,0,0,0,12,0Zm8.068,17.883-3.836-.058L15.1,21.5a9.91,9.91,0,0,1-6.2,0L7.768,17.825l-3.836.058A9.932,9.932,0,0,1,2,12v-.007L5.152,9.775,3.911,6.144A10.04,10.04,0,0,1,8.92,2.49L12,4.8l3.08-2.31a10.04,10.04,0,0,1,5.009,3.654L18.848,9.775,22,11.993V12A9.932,9.932,0,0,1,20.068,17.883Z" fill="#61616b"></path></svg>