<svg xmlns="http://www.w3.org/2000/svg" height="24" width="24" viewBox="0 0 24 24"><path d="M23,5H12a1,1,0,0,0,0,2H23a1,1,0,0,0,0-2Z" fill="#61616b"></path> <rect x="1" y="2" width="8" height="8" rx="1" ry="1" fill="#61616b"></rect> <path d="M23,17H12a1,1,0,0,0,0,2H23a1,1,0,0,0,0-2Z" fill="#61616b" data-color="color-2"></path> <path d="M6.414,18l2.293-2.293a1,1,0,0,0-1.414-1.414L5,16.586,2.707,14.293a1,1,0,0,0-1.414,1.414L3.586,18,1.293,20.293a1,1,0,1,0,1.414,1.414L5,19.414l2.293,2.293a1,1,0,0,0,1.414-1.414Z" fill="#61616b" data-color="color-2"></path></svg>