<svg xmlns="http://www.w3.org/2000/svg" height="24" width="24" viewBox="0 0 24 24"><circle cx="14" cy="3" r="2" fill="none" stroke="#61616b" stroke-width="2"></circle> <path d="M4,10,5.7,7.445A1,1,0,0,1,6.535,7H10l5,2,1.724,3.447a1,1,0,0,0,.894.553H20" fill="none" stroke="#61616b" stroke-width="2"></path> <circle cx="21" cy="17" r="2" fill="#61616b" data-color="color-2" data-stroke="none" stroke="none"></circle> <path d="M10,7,7.688,12.4A2,2,0,0,0,8.5,14.9l3.017,1.811a1,1,0,0,1,.486.857V22" fill="none" stroke="#61616b" stroke-width="2" data-cap="butt"></path> <line x1="7" y1="18" x2="5" y2="22" fill="none" stroke="#61616b" stroke-width="2"></line> <line x1="15" y1="9" x2="12.813" y2="13.594" fill="none" stroke="#61616b" stroke-width="2" data-cap="butt"></line></svg>