<svg xmlns="http://www.w3.org/2000/svg" height="24" width="24" viewBox="0 0 24 24"><path d="M5,1C5,4,2,6,2,12A104.157,104.157,0,0,0,3,23" fill="none" stroke="#61616b" stroke-width="2" data-cap="butt"></path> <path d="M19,1c0,3,3,5,3,11a104.157,104.157,0,0,1-1,11" fill="none" stroke="#61616b" stroke-width="2" data-cap="butt"></path> <path d="M6,15H8a4,4,0,0,0,4-4" fill="none" stroke="#61616b" stroke-width="2"></path> <path d="M18,15H16a4,4,0,0,1-4-4" fill="none" stroke="#61616b" stroke-width="2"></path> <path d="M10,22V17a2,2,0,0,0-2-2" fill="none" stroke="#61616b" stroke-width="2"></path> <path d="M14,22V17a2,2,0,0,1,2-2" fill="none" stroke="#61616b" stroke-width="2"></path> <line x1="4.153" y1="4" x2="19.847" y2="4" fill="none" stroke="#61616b" stroke-width="2" data-cap="butt"></line></svg>