<svg xmlns="http://www.w3.org/2000/svg" height="24" width="24" viewBox="0 0 24 24"><path d="M4,11c2.146,4.4,2,12,2,12" fill="none" stroke="#61616b" stroke-width="2"></path> <path d="M9,1A4.9,4.9,0,0,1,5.9,3.105c-1.375.312-3.163.543-4.339,2.833-1.187,2.312,0,12.562,0,12.562" fill="none" stroke="#61616b" stroke-width="2" data-cap="butt"></path> <path d="M20,11c-2.146,4.4-2,12-2,12" fill="none" stroke="#61616b" stroke-width="2"></path> <path d="M15,1a4.9,4.9,0,0,0,3.1,2.105c1.375.312,3.163.543,4.338,2.833,1.188,2.312,0,12.562,0,12.562" fill="none" stroke="#61616b" stroke-width="2" data-cap="butt"></path> <line x1="12" y1="14" x2="12" y2="20" fill="none" stroke="#61616b" stroke-width="2" data-color="color-2"></line> <path d="M8,12c2-2,2-6,2-6" fill="none" stroke="#61616b" stroke-width="2" data-color="color-2"></path> <path d="M16,12c-2-2-2-6-2-6" fill="none" stroke="#61616b" stroke-width="2" data-color="color-2"></path></svg>