<svg xmlns="http://www.w3.org/2000/svg" height="24" width="24" viewBox="0 0 24 24"><circle cx="13" cy="4" r="2" fill="none" stroke="#61616b" stroke-width="2"></circle> <path d="M4,5,5.724,8.447A1,1,0,0,0,6.618,9H16l3.6,2.7a1,1,0,0,1,.4.8V16" fill="none" stroke="#61616b" stroke-width="2"></path> <path data-cap="butt" d="M16,9v5.438a2,2,0,0,1-2.485,1.941L8.549,15.137A1,1,0,0,0,7.6,15.4L4,19" fill="none" stroke="#61616b" stroke-width="2"></path> <line data-color="color-2" x1="8" y1="23" x2="8" y2="20" fill="none" stroke="#61616b" stroke-width="2"></line> <line data-color="color-2" x1="8" y1="1" x2="8" y2="4" fill="none" stroke="#61616b" stroke-width="2"></line> <line x1="10" y1="9" x2="10" y2="12" fill="none" stroke="#61616b" stroke-width="2"></line></svg>