<svg xmlns="http://www.w3.org/2000/svg" height="24" width="24" viewBox="0 0 24 24"><line data-cap="butt" x1="5.136" y1="13.207" x2="10.793" y2="18.864" fill="none" stroke="#61616b" stroke-width="2"></line> <path d="M21,8.657,22.107,7.55a2,2,0,0,0,0-2.828L19.278,1.893a2,2,0,0,0-2.828,0L5.136,13.207c-1.414,1.414-.044,2.873-1.414,4.243L1.6,19.571a1,1,0,0,0,0,1.414L3.015,22.4a1,1,0,0,0,1.414,0L6.55,20.278c1.37-1.37,2.873-.044,4.243-1.414L12.655,17" fill="none" stroke="#61616b" stroke-width="2"></path> <circle data-color="color-2" cx="17" cy="13" r="3" fill="none" stroke="#61616b" stroke-width="2"></circle></svg>