<svg xmlns="http://www.w3.org/2000/svg" height="24" width="24" viewBox="0 0 24 24"><circle cx="20" cy="9" r="2" fill="none" stroke="#61616b" stroke-width="2" data-cap="butt"></circle> <path d="M15.667,6.778l-2.132.71a1,1,0,0,0-.391,1.656l7.535,7.535a1,1,0,0,0,1.687-.511L23,13" fill="none" stroke="#61616b" stroke-width="2" data-cap="butt"></path> <path d="M8,12l-.553-1.106a1,1,0,0,0-1.341-.447L2,12.5" fill="none" stroke="#61616b" stroke-width="2" data-cap="butt"></path> <line x1="15.667" y1="11.667" x2="11" y2="14" fill="none" stroke="#61616b" stroke-width="2" data-cap="butt"></line> <path d="M18.333,14.333l-6.761,3.381A1,1,0,0,1,10.5,17.6L6.543,14.434A1,1,0,0,0,5.4,14.358L1,17" fill="none" stroke="#61616b" stroke-width="2" data-cap="butt"></path></svg>