<svg xmlns="http://www.w3.org/2000/svg" height="24" width="24" viewBox="0 0 24 24"><path d="M5,10a1.97,1.97,0,0,1,.236-.923A4.987,4.987,0,0,0,1,14v1a5,5,0,0,0,5,5H18a5,5,0,0,0,5-5V14a4.987,4.987,0,0,0-4.236-4.923A1.97,1.97,0,0,1,19,10" fill="none" stroke="#61616b" stroke-width="2" data-cap="butt"></path> <path d="M17,8l-.621-2.485A2,2,0,0,0,14.438,4H6" fill="none" stroke="#61616b" stroke-width="2" data-cap="butt" data-color="color-2"></path> <rect x="5" y="8" width="14" height="4" rx="2" ry="2" fill="none" stroke="#61616b" stroke-width="2" data-cap="butt" data-color="color-2"></rect></svg>