<svg xmlns="http://www.w3.org/2000/svg" height="24" width="24" viewBox="0 0 24 24"><line data-cap="butt" data-color="color-2" fill="none" stroke="#61616b" stroke-width="2" x1="16.1715736" y1="16.1715736" x2="2" y2="2"></line> <line data-cap="butt" data-color="color-2" fill="none" stroke="#61616b" stroke-width="2" x1="19.0208359" y1="18.9791679" x2="22" y2="22"></line> <path data-color="color-2" fill="none" stroke="#61616b" stroke-width="2" d=" M16.1715736,21.8284283l5.6568546-5.6568546l-0.0000019-0.0000019c-1.5620956-1.5620956-4.0947533-1.5620956-5.6568489,0 l-0.0000076,0.0000057c-1.5620947,1.5620956-1.5620937,4.0947533,0.0000019,5.6568489L16.1715736,21.8284283z"></path> <line data-cap="butt" fill="none" stroke="#61616b" stroke-width="2" x1="7.8284254" y1="16.1715736" x2="22" y2="2"></line> <line data-cap="butt" fill="none" stroke="#61616b" stroke-width="2" x1="4.9791651" y1="18.9791679" x2="2" y2="22"></line> <path fill="none" stroke="#61616b" stroke-width="2" d="M7.8284254,21.8284283 l-5.6568542-5.6568546l0.0000029-0.0000019c1.5620956-1.5620956,4.0947528-1.5620956,5.6568484,0l0.0000057,0.0000057 c1.5620956,1.5620956,1.5620956,4.0947533,0,5.6568489L7.8284254,21.8284283z"></path></svg>