<svg xmlns="http://www.w3.org/2000/svg" height="24" width="24" viewBox="0 0 24 24"><circle cx="11" cy="4" r="2" fill="none" stroke="#61616b" stroke-width="2"></circle> <path d="M2,5l.772,2.316A1,1,0,0,0,3.721,8H7l5,1,1.553,3.106a1,1,0,0,0,1.341.447L16,12" fill="none" stroke="#61616b" stroke-width="2"></path> <line x1="18.649" y1="10.203" x2="22.531" y2="6" fill="none" stroke="#61616b" stroke-width="2" data-color="color-2"></line> <path d="M7,8,5.254,14.111a2,2,0,0,0,.259,1.659L6.77,17.655a1,1,0,0,1,.149.751L6,23" fill="none" stroke="#61616b" stroke-width="2" data-cap="butt"></path> <path d="M12,9l-2,6,1.832,2.748A1,1,0,0,1,12,18.3V23" fill="none" stroke="#61616b" stroke-width="2" data-cap="butt"></path></svg>