<svg xmlns="http://www.w3.org/2000/svg" height="24" width="24" viewBox="0 0 24 24"><rect x="1" y="12" width="11" height="11" fill="none" stroke="#61616b" stroke-width="2" data-cap="butt"></rect><rect x="12" y="12" width="11" height="11" fill="none" stroke="#61616b" stroke-width="2" data-cap="butt"></rect><rect x="6" y="1" width="12" height="11" fill="none" stroke="#61616b" stroke-width="2" data-cap="butt"></rect><path d="M13.169,9H11.8V6.354q0-.481.021-.881a3.022,3.022,0,0,1-.315.321l-.567.468-.7-.861L11.952,4h1.217Z" fill="#61616b" data-color="color-2" data-stroke="none" stroke="none"></path><path d="M8.284,20H4.658v-.889l1.22-1.234q.524-.546.684-.746a1.677,1.677,0,0,0,.223-.344.727.727,0,0,0,.064-.3.388.388,0,0,0-.127-.307.515.515,0,0,0-.355-.113.969.969,0,0,0-.477.135,3.393,3.393,0,0,0-.545.4L4.6,15.731a4,4,0,0,1,.649-.494,2.323,2.323,0,0,1,.573-.227,2.847,2.847,0,0,1,.7-.079,2.1,2.1,0,0,1,.866.171,1.362,1.362,0,0,1,.592.487,1.26,1.26,0,0,1,.209.709,1.819,1.819,0,0,1-.3,1.034,3.408,3.408,0,0,1-.409.508q-.254.267-1.085,1.012v.034h1.89Z" fill="#61616b" data-color="color-2" data-stroke="none" stroke="none"></path><path d="M19.117,16.086a1.2,1.2,0,0,1-.284.8,1.618,1.618,0,0,1-.82.483v.021q1.251.158,1.251,1.182a1.28,1.28,0,0,1-.552,1.1,2.569,2.569,0,0,1-1.533.4,4.459,4.459,0,0,1-.747-.058,3.828,3.828,0,0,1-.744-.212V18.677a2.941,2.941,0,0,0,.668.248,2.721,2.721,0,0,0,.628.08,1.289,1.289,0,0,0,.648-.124.428.428,0,0,0,.2-.392.439.439,0,0,0-.106-.316.684.684,0,0,0-.342-.167,2.7,2.7,0,0,0-.615-.057h-.308V16.934h.315q1.029,0,1.029-.526a.322.322,0,0,0-.153-.294.756.756,0,0,0-.408-.1,1.871,1.871,0,0,0-.991.321l-.561-.9a2.738,2.738,0,0,1,.812-.39,3.561,3.561,0,0,1,.952-.116,2.1,2.1,0,0,1,1.217.308A.978.978,0,0,1,19.117,16.086Z" fill="#61616b" data-color="color-2" data-stroke="none" stroke="none"></path></svg>