<svg xmlns="http://www.w3.org/2000/svg" height="24" width="24" viewBox="0 0 24 24"><path data-color="color-2" fill="none" stroke="#61616b" stroke-width="2" d="M20,8h-7 V6.1768069c0-0.7263346,0.3937836-1.3955755,1.0287142-1.7483149l4.999999-2.7777777C20.3617764,0.9101242,22,1.8740604,22,3.399029 V6C22,7.1045694,21.1045704,8,20,8z"></path> <line data-color="color-2" fill="none" stroke="#61616b" stroke-width="2" x1="13" y1="8" x2="13" y2="14"></line> <path data-color="color-2" fill="none" stroke="#61616b" stroke-width="2" d="M3,10h6 V7.6593962C9,7.2593679,8.7616034,6.89783,8.393919,6.7402511l-5-2.1428571C2.734051,4.3145933,2,4.7986236,2,5.5165391V9 C2,9.5522852,2.4477153,10,3,10z"></path> <line data-color="color-2" fill="none" stroke="#61616b" stroke-width="2" x1="9" y1="10" x2="9" y2="14"></line> <rect x="4" y="14" fill="none" stroke="#61616b" stroke-width="2" width="14" height="4"></rect> <line fill="none" stroke="#61616b" stroke-width="2" x1="16" y1="18" x2="16" y2="23"></line> <line fill="none" stroke="#61616b" stroke-width="2" x1="6" y1="23" x2="6" y2="18"></line></svg>