<svg xmlns="http://www.w3.org/2000/svg" height="24" width="24" viewBox="0 0 24 24"><line x1="14" y1="12" x2="14" y2="8" fill="none" stroke="#61616b" stroke-width="2" data-cap="butt"></line> <path d="M4,14V11.5a1,1,0,0,1,.4-.8L8,8h6l3.434,2.575a1,1,0,0,0,1.155.033L21,9" fill="none" stroke="#61616b" stroke-width="2"></path> <circle cx="11" cy="3" r="2" fill="none" stroke="#61616b" stroke-width="2"></circle> <path d="M16,20l-1.749-4.371A1,1,0,0,0,13.323,15H10a2,2,0,0,1-2-2V8" fill="none" stroke="#61616b" stroke-width="2" data-cap="butt"></path> <polyline points="9 18 9 19 8 22" fill="none" stroke="#61616b" stroke-width="2"></polyline> <polygon points="18.5 23 13.5 23 14 22 18 22 18.5 23" fill="none" stroke="#61616b" stroke-width="2" data-color="color-2"></polygon></svg>