<svg xmlns="http://www.w3.org/2000/svg" height="24" width="24" viewBox="0 0 24 24"><circle cx="11" cy="3" r="2" fill="none" stroke="#61616b" stroke-width="2"></circle> <path d="M7,7,4.265,13.381a2,2,0,0,0-.1,1.273l.747,2.987a1,1,0,0,1-.075.69L3,22" fill="none" stroke="#61616b" stroke-width="2" data-cap="butt"></path> <path d="M11,9,9,14l1.894,3.789a.993.993,0,0,1,.106.447V22" fill="none" stroke="#61616b" stroke-width="2" data-cap="butt"></path> <path d="M21,15l-3,3L2,10l.772-2.316A1,1,0,0,1,3.721,7H7l4,2,4,4" fill="none" stroke="#61616b" stroke-width="2"></path> <line x1="20" y1="22" x2="23" y2="22" fill="none" stroke="#61616b" stroke-width="2" data-color="color-2"></line></svg>