<svg xmlns="http://www.w3.org/2000/svg" height="24" width="24" viewBox="0 0 24 24"><path d="M5,12a6.887,6.887,0,0,0,2,5,15.419,15.419,0,0,0,5,1,15.577,15.577,0,0,0,5-1,6.887,6.887,0,0,0,2-5,6.887,6.887,0,0,0-2-5,15.5,15.5,0,0,0-5-1A15.5,15.5,0,0,0,7,7,6.887,6.887,0,0,0,5,12Z" fill="none" stroke="#61616b" stroke-width="2" data-color="color-2"></path> <line x1="7" y1="7" x2="7" y2="2.2" fill="none" stroke="#61616b" stroke-width="2" data-cap="butt" data-color="color-2"></line> <line x1="17" y1="7" x2="17" y2="2.2" fill="none" stroke="#61616b" stroke-width="2" data-cap="butt" data-color="color-2"></line> <line x1="7" y1="17" x2="7" y2="21.8" fill="none" stroke="#61616b" stroke-width="2" data-cap="butt" data-color="color-2"></line> <line x1="17" y1="17" x2="17" y2="21.8" fill="none" stroke="#61616b" stroke-width="2" data-cap="butt" data-color="color-2"></line> <circle cx="12" cy="12" r="11" fill="none" stroke="#61616b" stroke-width="2"></circle></svg>