<svg xmlns="http://www.w3.org/2000/svg" height="24" width="24" viewBox="0 0 24 24"><path d="M15.012,23,15,21l5.621-.8A1.607,1.607,0,0,0,22,18.606V17H2v1.606A1.607,1.607,0,0,0,3.379,20.2L9,21v2" fill="none" stroke="#61616b" stroke-width="2"></path> <path d="M11.556,2.35A6.051,6.051,0,0,1,10.4,5C9.711,5.9,8,6.791,8,9a4,4,0,0,0,2.035,3.482,2.17,2.17,0,0,1,.886-1.6A2.8,2.8,0,0,0,12,9.54a4,4,0,0,1,1.965,2.942A4,4,0,0,0,16,9C16,7.881,15.8,4.835,11.556,2.35Z" fill="none" stroke="#61616b" stroke-width="2" data-color="color-2"></path></svg>