<svg xmlns="http://www.w3.org/2000/svg" height="24" width="24" viewBox="0 0 24 24"><circle cx="17" cy="3" r="2" fill="none" stroke="#61616b" stroke-width="2"></circle> <circle cx="18" cy="22" r="1" fill="none" stroke="#61616b" stroke-width="2" data-color="color-2"></circle> <path d="M6,10,8.707,7.293A1,1,0,0,1,9.414,7h4.172a1,1,0,0,1,.707.293l3.2,3.2a1,1,0,0,0,1.155.188L22,9" fill="none" stroke="#61616b" stroke-width="2"></path> <path d="M13,18a5,5,0,1,1-5-5" fill="none" stroke="#61616b" stroke-width="2" data-cap="butt" data-color="color-2"></path> <path d="M18,18V16a1,1,0,0,0-1-1H12.592a1.6,1.6,0,0,1-1.433-2.318l2.8-5.608" fill="none" stroke="#61616b" stroke-width="2" data-cap="butt"></path></svg>