<svg xmlns="http://www.w3.org/2000/svg" height="24" width="24" viewBox="0 0 24 24"><line x1="12" y1="18" x2="12" y2="23" fill="none" stroke="#61616b" stroke-width="2" data-cap="butt"></line> <line x1="9" y1="23" x2="15" y2="23" fill="none" stroke="#61616b" stroke-width="2"></line> <line x1="7" y1="18" x2="17" y2="18" fill="none" stroke="#61616b" stroke-width="2"></line> <path d="M3,14V4A3,3,0,0,1,6,1H18a3,3,0,0,1,3,3V14" fill="none" stroke="#61616b" stroke-width="2" data-color="color-2"></path> <path d="M15,15V7a1,1,0,0,0-1-1H10A1,1,0,0,0,9,7v8" fill="none" stroke="#61616b" stroke-width="2"></path> <line x1="3" y1="9" x2="1" y2="9" fill="none" stroke="#61616b" stroke-width="2" data-color="color-2"></line> <line x1="23" y1="9" x2="21" y2="9" fill="none" stroke="#61616b" stroke-width="2" data-color="color-2"></line></svg>