<svg xmlns="http://www.w3.org/2000/svg" height="24" width="24" viewBox="0 0 24 24"><circle cx="19" cy="4" r="2" fill="none" stroke="#61616b" stroke-width="2"></circle> <line x1="7" y1="16" x2="2" y2="21" fill="none" stroke="#61616b" stroke-width="2"></line> <path d="M14,12l3-3L14,6,8.725,4.242a1,1,0,0,0-1.149.394L6,7" fill="none" stroke="#61616b" stroke-width="2"></path> <line x1="22" y1="14" x2="20.828" y2="12.828" fill="none" stroke="#61616b" stroke-width="2"></line> <path d="M22,10a4,4,0,0,0-4,4A4,4,0,0,0,22,10Z" fill="#61616b" data-color="color-2" data-stroke="none" stroke="none"></path> <path d="M22,10a4,4,0,0,0-4,4A4,4,0,0,0,22,10Z" fill="none" stroke="#61616b" stroke-width="2" data-color="color-2"></path> <path d="M14,6,9.414,10.586a2,2,0,0,0,0,2.828l3.034,3.034a1,1,0,0,1,.15,1.222L10,22" fill="none" stroke="#61616b" stroke-width="2" data-cap="butt"></path></svg>