<svg xmlns="http://www.w3.org/2000/svg" height="24" width="24" viewBox="0 0 24 24"><path d="M15.5,5.792l2.476,7.618,3.613,2.672a3,3,0,0,1,.941,4.137L22,21.065a2,2,0,0,1-2.758.627L2.933,11.031a2.006,2.006,0,0,1-.627-2.758L6.124,2.206c.406-.645,1.508-.682,1.72.05A5.477,5.477,0,0,0,10.771,5.6,7.157,7.157,0,0,0,15.5,5.792Z" fill="none" stroke="#61616b" stroke-width="2"></path> <line data-color="color-2" x1="1" y1="22" x2="11" y2="22" fill="none" stroke="#61616b" stroke-width="2"></line> <line data-color="color-2" x1="1" y1="17" x2="4" y2="17" fill="none" stroke="#61616b" stroke-width="2"></line></svg>