<svg xmlns="http://www.w3.org/2000/svg" height="24" width="24" viewBox="0 0 24 24"><circle cx="19" cy="3" r="2" fill="none" stroke="#61616b" stroke-width="2"></circle> <path d="M3,18l2.776-.925a1,1,0,0,0,.391-.242L8,15" fill="none" stroke="#61616b" stroke-width="2"></path> <path d="M14.484,11.516l1.473-1.473A2.368,2.368,0,0,0,15.6,6.4h0A2.363,2.363,0,0,0,14.283,6H6" fill="none" stroke="#61616b" stroke-width="2"></path> <path d="M14.891,6.109l-4,4.11a2,2,0,0,0,.383,3.088l2.253,1.4a1,1,0,0,1,.472.849V20" fill="none" stroke="#61616b" stroke-width="2" data-cap="butt"></path> <circle cx="11" cy="23" r="1" fill="#61616b" data-color="color-2" data-stroke="none" stroke="none"></circle> <circle cx="17" cy="23" r="1" fill="#61616b" data-color="color-2" data-stroke="none" stroke="none"></circle> <line x1="9" y1="20" x2="19" y2="20" fill="none" stroke="#61616b" stroke-width="2" data-color="color-2"></line></svg>