<svg xmlns="http://www.w3.org/2000/svg" height="24" width="24" viewBox="0 0 24 24"><circle cx="20" cy="3" r="2" fill="none" stroke="#61616b" stroke-width="2"></circle> <line x1="4" y1="21" x2="9" y2="16" fill="none" stroke="#61616b" stroke-width="2"></line> <path d="M15.828,12l1.586-1.586a2,2,0,0,0,0-2.828l-1-1A2,2,0,0,0,15,6H6" fill="none" stroke="#61616b" stroke-width="2"></path> <path d="M15.937,6.235l-4.351,4.351a2,2,0,0,0,0,2.828l3.121,3.122a1,1,0,0,1,.293.707V23" fill="none" stroke="#61616b" stroke-width="2" data-cap="butt"></path> <polyline points="13.007 23 15 23 17.013 23" fill="none" stroke="#61616b" stroke-width="2" data-color="color-2"></polyline> <polyline points="2.581 19.591 3.99 21 5.413 22.423" fill="none" stroke="#61616b" stroke-width="2" data-color="color-2"></polyline></svg>