<svg xmlns="http://www.w3.org/2000/svg" height="24" width="24" viewBox="0 0 24 24"><circle cx="21" cy="3" r="2" fill="none" stroke="#61616b" stroke-width="2"></circle> <path d="M9,18l4.632-2.316a1,1,0,0,0,.193-1.663l-2.7-2.253a2,2,0,0,1,.22-3.232l3.327-2.079a2.831,2.831,0,0,1,3.856.83h0A2.829,2.829,0,0,1,19,8.857v2.525a1,1,0,0,0,.553.894L23,14" fill="none" stroke="#61616b" stroke-width="2" data-cap="butt"></path> <line x1="15" y1="10" x2="3" y2="4" fill="none" stroke="#61616b" stroke-width="2" data-color="color-2"></line> <line x1="19" y1="23" x2="1" y2="14" fill="none" stroke="#61616b" stroke-width="2" data-cap="butt"></line></svg>