<svg xmlns="http://www.w3.org/2000/svg" height="24" width="24" viewBox="0 0 24 24"><path d="M6.113,8A15.6,15.6,0,0,1,12,7a15.6,15.6,0,0,1,5.887,1" fill="none" stroke="#61616b" stroke-width="2" data-cap="butt" data-color="color-2"></path> <polyline points="14 20.921 14 17 10 17 10 20.921" fill="none" stroke="#61616b" stroke-width="2" data-cap="butt" data-color="color-2"></polyline> <ellipse cx="12" cy="8" rx="11" ry="5" fill="none" stroke="#61616b" stroke-width="2"></ellipse> <path d="M23,8l-1.5,9.5c0,1.933-4.253,3.5-9.5,3.5s-9.5-1.567-9.5-3.5L1,8" fill="none" stroke="#61616b" stroke-width="2" data-cap="butt"></path> <path d="M7,16.481A9.9,9.9,0,0,1,1.965,14.11" fill="none" stroke="#61616b" stroke-width="2" data-cap="butt"></path> <path d="M17,16.481a9.9,9.9,0,0,0,5.035-2.371" fill="none" stroke="#61616b" stroke-width="2" data-cap="butt"></path></svg>