<svg xmlns="http://www.w3.org/2000/svg" height="24" width="24" viewBox="0 0 24 24"><polyline data-color="color-2" points="2 12 7 12 10 8 14 16 17 12 22 12" fill="none" stroke="#61616b" stroke-width="2"></polyline> <path d="M20,16v2a2,2,0,0,1-2,2H6a2,2,0,0,1-2-2V16" fill="none" stroke="#61616b" stroke-width="2"></path> <path d="M4,8V6A2,2,0,0,1,6,4H18a2,2,0,0,1,2,2V8" fill="none" stroke="#61616b" stroke-width="2"></path> <line x1="6" y1="1" x2="18" y2="1" fill="none" stroke="#61616b" stroke-width="2"></line> <line x1="6" y1="23" x2="18" y2="23" fill="none" stroke="#61616b" stroke-width="2"></line></svg>