<svg xmlns="http://www.w3.org/2000/svg" height="24" width="24" viewBox="0 0 24 24"><path d="M20.942,10.933A8.984,8.984,0,0,0,18.2,9.456,8.835,8.835,0,0,0,11.993,10" fill="none" stroke="#61616b" stroke-width="2" data-cap="butt"></path> <path d="M7.368,2.282a8.956,8.956,0,0,0,.465,3.079A8.832,8.832,0,0,0,11.993,10" fill="none" stroke="#61616b" stroke-width="2" data-cap="butt"></path> <path d="M20.477,13A9,9,0,1,0,3.523,13" fill="none" stroke="#61616b" stroke-width="2" data-cap="butt"></path> <path d="M10.451,13a10.349,10.349,0,0,0,1.542-3" fill="none" stroke="#61616b" stroke-width="2" data-cap="butt"></path> <path d="M1,23a6.985,6.985,0,0,0,5.5-2.679,6.985,6.985,0,0,0,11,0A6.985,6.985,0,0,0,23,23" fill="none" stroke="#61616b" stroke-width="2" data-color="color-2"></path> <path d="M1,18a6.985,6.985,0,0,0,5.5-2.679,6.985,6.985,0,0,0,11,0A6.985,6.985,0,0,0,23,18" fill="none" stroke="#61616b" stroke-width="2" data-color="color-2"></path></svg>