<svg xmlns="http://www.w3.org/2000/svg" height="24" width="24" viewBox="0 0 24 24"><path data-color="color-2" d="M12,8a1,1,0,0,1-1-1V2a1,1,0,0,1,2,0V7A1,1,0,0,1,12,8Z" fill="#61616b"></path><path data-color="color-2" d="M7,10A1,1,0,0,1,6,9V6A1,1,0,0,1,8,6V9A1,1,0,0,1,7,10Z" fill="#61616b"></path><path data-color="color-2" d="M17,10a1,1,0,0,1-1-1V6a1,1,0,0,1,2,0V9A1,1,0,0,1,17,10Z" fill="#61616b"></path><path d="M21,12H3a3,3,0,0,0-3,3v5a3,3,0,0,0,3,3H21a3,3,0,0,0,3-3V15A3,3,0,0,0,21,12Zm-2,7H5a1,1,0,0,1,0-2H19a1,1,0,0,1,0,2Z" fill="#61616b"></path></svg>