<svg xmlns="http://www.w3.org/2000/svg" height="24" width="24" viewBox="0 0 24 24"><path d="M20.351,3.063l-8-3a.993.993,0,0,0-.7,0l-8,3A1,1,0,0,0,3,4V23a1,1,0,0,0,1,1h6V19.5a.5.5,0,0,1,.5-.5h3a.5.5,0,0,1,.5.5V24h6a1,1,0,0,0,1-1V4A1,1,0,0,0,20.351,3.063ZM7.5,16h-1a.5.5,0,0,1-.5-.5v-2a.5.5,0,0,1,.5-.5h1a.5.5,0,0,1,.5.5v2A.5.5,0,0,1,7.5,16Zm0-6h-1A.5.5,0,0,1,6,9.5v-2A.5.5,0,0,1,6.5,7h1a.5.5,0,0,1,.5.5v2A.5.5,0,0,1,7.5,10Zm5,6h-1a.5.5,0,0,1-.5-.5v-2a.5.5,0,0,1,.5-.5h1a.5.5,0,0,1,.5.5v2A.5.5,0,0,1,12.5,16Zm0-6h-1a.5.5,0,0,1-.5-.5v-2a.5.5,0,0,1,.5-.5h1a.5.5,0,0,1,.5.5v2A.5.5,0,0,1,12.5,10Zm5,6h-1a.5.5,0,0,1-.5-.5v-2a.5.5,0,0,1,.5-.5h1a.5.5,0,0,1,.5.5v2A.5.5,0,0,1,17.5,16Zm0-6h-1a.5.5,0,0,1-.5-.5v-2a.5.5,0,0,1,.5-.5h1a.5.5,0,0,1,.5.5v2A.5.5,0,0,1,17.5,10Z" fill="#61616b"></path></svg>