<svg xmlns="http://www.w3.org/2000/svg" height="24" width="24" viewBox="0 0 24 24"><path d="M7,14H3a1,1,0,0,0-1,1v8a1,1,0,0,0,1,1H7Z" fill="#61616b"></path><path d="M9,20v4H21a1,1,0,0,0,1-1V20Z" fill="#61616b"></path><path d="M23,0H1A1,1,0,0,0,0,1V11a1,1,0,0,0,1,1H7V10H2V2H22v8H17v2h6a1,1,0,0,0,1-1V1A1,1,0,0,0,23,0Z" fill="#61616b" data-color="color-2"></path><path d="M21,14H15V9a3.005,3.005,0,0,0-3.6-2.942A3.07,3.07,0,0,0,9.007,9.035,1,1,0,0,0,11,9h0a1,1,0,0,1,2,0v5H9v4H22V15A1,1,0,0,0,21,14Z" fill="#61616b"></path><path d="M9,9.118c0-.028.006-.055.007-.083C9.007,9.023,9,9.012,9,9Z" fill="#61616b"></path></svg>