<svg xmlns="http://www.w3.org/2000/svg" height="24" width="24" viewBox="0 0 24 24"><path data-color="color-2" d="M22,0H2A.945.945,0,0,0,1,1v9H23V1A.945.945,0,0,0,22,0ZM14.5,6h-5A.5.5,0,0,1,9,5.5v-1A.5.5,0,0,1,9.5,4h5a.5.5,0,0,1,.5.5v1A.5.5,0,0,1,14.5,6Z" fill="#61616b"></path><path d="M1,21a.945.945,0,0,0,1,1H3v1a.945.945,0,0,0,1,1,.945.945,0,0,0,1-1V22H19v1a1,1,0,0,0,2,0V22h1a.945.945,0,0,0,1-1V12H1Zm8.5-5h5a.5.5,0,0,1,.5.5v1a.5.5,0,0,1-.5.5h-5a.5.5,0,0,1-.5-.5v-1A.5.5,0,0,1,9.5,16Z" fill="#61616b"></path></svg>