<svg xmlns="http://www.w3.org/2000/svg" height="24" width="24" viewBox="0 0 24 24"><path d="M3,24H1a1,1,0,0,1-1-1V9A1,1,0,0,1,1,8H3Z" fill="#61616b" data-color="color-2"></path><path d="M23,24H21V8h2a1,1,0,0,1,1,1V23A1,1,0,0,1,23,24Z" fill="#61616b" data-color="color-2"></path><path d="M18,3H15.874A4,4,0,0,0,8.126,3H6A1,1,0,0,0,5,4V24h5V20.107a2.075,2.075,0,0,1,1.664-2.08A2,2,0,0,1,14,20v4h5V4A1,1,0,0,0,18,3ZM11,13.5a.5.5,0,0,1-.5.5h-2a.5.5,0,0,1-.5-.5v-1a.5.5,0,0,1,.5-.5h2a.5.5,0,0,1,.5.5Zm0-4a.5.5,0,0,1-.5.5h-2A.5.5,0,0,1,8,9.5v-1A.5.5,0,0,1,8.5,8h2a.5.5,0,0,1,.5.5ZM12,5a1,1,0,1,1,1-1A1,1,0,0,1,12,5Zm4,8.5a.5.5,0,0,1-.5.5h-2a.5.5,0,0,1-.5-.5v-1a.5.5,0,0,1,.5-.5h2a.5.5,0,0,1,.5.5Zm0-4a.5.5,0,0,1-.5.5h-2a.5.5,0,0,1-.5-.5v-1a.5.5,0,0,1,.5-.5h2a.5.5,0,0,1,.5.5Z" fill="#61616b"></path></svg>