<svg xmlns="http://www.w3.org/2000/svg" height="24" width="24" viewBox="0 0 24 24"><path d="M19,0H5A1,1,0,0,0,5,2H6.358A6.011,6.011,0,0,0,12,6a6.011,6.011,0,0,0,5.642-4H19a1,1,0,0,0,0-2Z" fill="#61616b"></path><path d="M24,16a3,3,0,1,0-4.031,2.806,3.481,3.481,0,0,1-6.938,0A2.983,2.983,0,0,0,13,13.184V7.932a7.387,7.387,0,0,1-2,0v5.252a2.983,2.983,0,0,0-.031,5.622,3.481,3.481,0,0,1-6.938,0,3,3,0,1,0-2.015.015A5.494,5.494,0,0,0,12,21.659a5.494,5.494,0,0,0,9.984-2.838A3,3,0,0,0,24,16Z" fill="#61616b" data-color="color-2"></path></svg>