<svg xmlns="http://www.w3.org/2000/svg" height="24" width="24" viewBox="0 0 24 24"><path d="M23,17H21V15h1V13.677l-7.372-2.948a1,1,0,0,1,.744-1.858l8,3.2A1,1,0,0,1,24,13v3A1,1,0,0,1,23,17Z" fill="#61616b"></path><path d="M3,17H1a1,1,0,0,1-1-1V13a1,1,0,0,1,.628-.929L10,8.323V7.445A3.945,3.945,0,0,1,8,4a4,4,0,0,1,8,0,1,1,0,0,1-2,0,2,2,0,0,0-4,0,1.917,1.917,0,0,0,1.316,1.851A1,1,0,0,1,12,6.8V9a1,1,0,0,1-.628.929L2,13.677V15H3Z" fill="#61616b"></path><path data-color="color-2" d="M18,24H6a1,1,0,0,1-1-1V15a1,1,0,0,1,1-1H18a1,1,0,0,1,1,1v8A1,1,0,0,1,18,24Z" fill="#61616b"></path></svg>