<svg xmlns="http://www.w3.org/2000/svg" height="24" width="24" viewBox="0 0 24 24"><path data-color="color-2" d="M23,2H1A.945.945,0,0,0,0,3V4H24V3A.945.945,0,0,0,23,2Z" fill="#61616b"></path><path d="M0,6V21a.945.945,0,0,0,1,1,.945.945,0,0,0,1-1V12h9V6Zm7.5,4h-4A.5.5,0,0,1,3,9.5v-1A.5.5,0,0,1,3.5,8h4a.5.5,0,0,1,.5.5v1A.5.5,0,0,1,7.5,10Z" fill="#61616b"></path><path d="M13,6v6h9v9a1,1,0,0,0,2,0V6Zm7.5,4h-4a.5.5,0,0,1-.5-.5v-1a.5.5,0,0,1,.5-.5h4a.5.5,0,0,1,.5.5v1A.5.5,0,0,1,20.5,10Z" fill="#61616b"></path></svg>