<svg xmlns="http://www.w3.org/2000/svg" height="24" width="24" viewBox="0 0 24 24"><rect y="1" width="7" height="22" rx="1" fill="#61616b" data-color="color-2"></rect><path d="M23,2H9V22H23a1,1,0,0,0,1-1V3A1,1,0,0,0,23,2ZM15,18.5a.5.5,0,0,1-.5.5h-2a.5.5,0,0,1-.5-.5v-1a.5.5,0,0,1,.5-.5h2a.5.5,0,0,1,.5.5Zm0-4a.5.5,0,0,1-.5.5h-2a.5.5,0,0,1-.5-.5v-1a.5.5,0,0,1,.5-.5h2a.5.5,0,0,1,.5.5Zm6,4a.5.5,0,0,1-.5.5h-2a.5.5,0,0,1-.5-.5v-1a.5.5,0,0,1,.5-.5h2a.5.5,0,0,1,.5.5Zm0-4a.5.5,0,0,1-.5.5h-2a.5.5,0,0,1-.5-.5v-1a.5.5,0,0,1,.5-.5h2a.5.5,0,0,1,.5.5Zm0-4a.5.5,0,0,1-.5.5h-8a.5.5,0,0,1-.5-.5v-5a.5.5,0,0,1,.5-.5h8a.5.5,0,0,1,.5.5Z" fill="#61616b"></path></svg>