<svg xmlns="http://www.w3.org/2000/svg" height="24" width="24" viewBox="0 0 24 24"><path data-color="color-2" d="M23,2H12V20h8v2a1,1,0,0,0,2,0V20h1a.945.945,0,0,0,1-1V3A.945.945,0,0,0,23,2Zm-7.5,8h5a.5.5,0,0,1,.5.5v1a.5.5,0,0,1-.5.5h-5a.5.5,0,0,1-.5-.5v-1A.5.5,0,0,1,15.5,10Z" fill="#61616b"></path><path d="M0,3V19a.945.945,0,0,0,1,1H2v2a.945.945,0,0,0,1,1,.945.945,0,0,0,1-1V20h6V2H1A.945.945,0,0,0,0,3Zm3.5,7h3a.5.5,0,0,1,.5.5v1a.5.5,0,0,1-.5.5h-3a.5.5,0,0,1-.5-.5v-1A.5.5,0,0,1,3.5,10Z" fill="#61616b"></path></svg>