<svg xmlns="http://www.w3.org/2000/svg" height="24" width="24" viewBox="0 0 24 24"><path d="M23,4H20V3a1,1,0,0,0-.293-.707l-2-2A1,1,0,0,0,17,0H16V10h1a1,1,0,0,0,.707-.293l2-2A1,1,0,0,0,20,7V6h3a1,1,0,0,0,0-2Z" fill="#61616b" data-color="color-2"></path><path d="M0,22v1a1,1,0,0,0,1,1H16a1,1,0,0,0,1-1V22Z" fill="#61616b" data-color="color-2"></path><path d="M1.658,17.553A2.979,2.979,0,0,0,.016,20H16.888a3,3,0,0,0-2.516-2.211l-4.067-.509a1,1,0,0,1-.852-1.209L10.8,10H14V0H3A3,3,0,0,0,0,3V7a3,3,0,0,0,3,3h.754L2.23,16.854A1.024,1.024,0,0,1,1.658,17.553ZM3.5,6A.5.5,0,0,1,3,5.5v-1A.5.5,0,0,1,3.5,4h4a.5.5,0,0,1,.5.5v1a.5.5,0,0,1-.5.5Z" fill="#61616b"></path></svg>