<svg xmlns="http://www.w3.org/2000/svg" height="24" width="24" viewBox="0 0 24 24"><path d="M22,10a10,10,0,1,0-11,9.949V20a2,2,0,0,1-2,2H6a1,1,0,0,0,0,2H18a1,1,0,0,0,0-2H15a2,2,0,0,1-2-2v-.051A10.013,10.013,0,0,0,22,10ZM4,10a8,8,0,1,1,8,8A8.009,8.009,0,0,1,4,10Z" fill="#61616b"></path><path d="M16.714,9.835a6.609,6.609,0,0,0-2.23-.522c-.343-.044-.707-.092-1.032-.152.111-.31.251-.649.384-.969A6.611,6.611,0,0,0,14.5,6a2.5,2.5,0,0,0-5,0,6.611,6.611,0,0,0,.664,2.192c.133.32.273.659.384.969-.325.06-.689.108-1.032.152a6.609,6.609,0,0,0-2.23.522,2.5,2.5,0,0,0,2.5,4.33,6.623,6.623,0,0,0,1.567-1.67c.21-.275.433-.566.647-.818.214.252.437.543.647.818a6.647,6.647,0,0,0,1.567,1.671,2.5,2.5,0,0,0,2.5-4.331ZM12,10Z" fill="#61616b" data-color="color-2"></path></svg>