<svg xmlns="http://www.w3.org/2000/svg" height="24" width="24" viewBox="0 0 24 24"><rect data-color="color-2" x="14" width="2" height="4" rx="1" fill="#61616b"></rect><path data-color="color-2" d="M19.242,5.757a1,1,0,0,1-.707-1.708L19.95,2.636a1,1,0,1,1,1.413,1.415L19.948,5.464A1,1,0,0,1,19.242,5.757Z" fill="#61616b"></path><path data-color="color-2" d="M23,10H21a1,1,0,0,1,0-2h2a1,1,0,0,1,0,2Z" fill="#61616b"></path><path d="M7.636,16.366a8.943,8.943,0,0,1-1.8-2.612L.914,18.672a3.121,3.121,0,0,0,4.414,4.414l4.915-4.915A8.979,8.979,0,0,1,7.636,16.366Z" fill="#61616b"></path><path d="M20.363,12.122,11.878,3.637a1,1,0,0,0-1.414,0L9.05,5.051a7.008,7.008,0,0,0,0,9.9h0a7.008,7.008,0,0,0,9.9,0l1.414-1.414A1,1,0,0,0,20.363,12.122Z" fill="#61616b"></path></svg>