<svg xmlns="http://www.w3.org/2000/svg" height="24" width="24" viewBox="0 0 24 24"><polygon points="18 4.586 22.586 0 17.414 0 15.414 2 18 4.586" fill="#61616b" data-color="color-2"></polygon><polygon points="19 11.586 24 6.586 24 1.414 16.414 9 19 11.586" fill="#61616b"></polygon><polygon points="14.586 0 9.414 0 5.414 4 8 6.586 14.586 0" fill="#61616b"></polygon><rect x="7.136" y="13.671" width="10.728" height="3.657" transform="translate(-7.299 13.379) rotate(-45)" fill="#61616b" data-color="color-2"></rect><polygon points="9.414 24 14.586 24 18.586 20 16 17.414 9.414 24" fill="#61616b"></polygon><polygon points="6 19.414 1.414 24 6.586 24 8.586 22 6 19.414" fill="#61616b"></polygon><rect x="6.136" y="6.671" width="10.728" height="3.657" transform="translate(-2.642 10.621) rotate(-45)" fill="#61616b"></rect><polygon points="24 14.586 24 9.414 17.414 16 20 18.586 24 14.586" fill="#61616b"></polygon><path d="M17.414,24H23a1,1,0,0,0,1-1V17.414Z" fill="#61616b" data-color="color-2"></path><path d="M6.586,0H1A1,1,0,0,0,0,1V6.586Z" fill="#61616b" data-color="color-2"></path><path d="M5,12.414S.067,17.307,0,17.348v5.238L7.586,15Z" fill="#61616b" data-color="color-2"></path><polygon points="0 9.414 0 14.586 6.586 8 4 5.414 0 9.414" fill="#61616b"></polygon></svg>