<svg xmlns="http://www.w3.org/2000/svg" height="24" width="24" viewBox="0 0 24 24"><path data-color="color-2" d="M15,17a1,1,0,0,0-1,1v1a1,1,0,0,0,2,0V18A1,1,0,0,0,15,17Z" fill="#61616b"></path><path data-color="color-2" d="M9.393,15.193l-.8.8a1,1,0,1,0,1.414,1.414l.8-.8a1,1,0,1,0-1.414-1.414Z" fill="#61616b"></path><path data-color="color-2" d="M20.607,15.193a1,1,0,1,0-1.414,1.414l.8.8a1,1,0,0,0,1.414-1.414Z" fill="#61616b"></path><path d="M7,22H4V3A1,1,0,0,1,5,2h8a1,1,0,0,1,1,1,1,1,0,0,0,2,0,3,3,0,0,0-3-3H5A3,3,0,0,0,2,3V23a1,1,0,0,0,1,1H7a1,1,0,0,0,0-2Z" fill="#61616b"></path><path data-color="color-2" d="M15,5a7.008,7.008,0,0,0-7,7,1,1,0,0,0,1,1H21a1,1,0,0,0,1-1A7.008,7.008,0,0,0,15,5Z" fill="#61616b"></path></svg>