<svg xmlns="http://www.w3.org/2000/svg" height="24" width="24" viewBox="0 0 24 24"><path d="M23,22h-4c-.552,0-1-.447-1-1V3c0-.553,.448-1,1-1s1,.447,1,1V20h3c.552,0,1,.447,1,1s-.448,1-1,1Z" fill="#61616b" data-color="color-2"></path><circle cx="14" cy="20" r="2" fill="#61616b" data-color="color-2"></circle><circle cx="2" cy="20" r="2" fill="#61616b" data-color="color-2"></circle><path d="M15.972,11.862c-.005-.035,.007-.069-.002-.104L13.97,3.758c-.111-.445-.511-.758-.97-.758H7c-.552,0-1,.447-1,1v7H3c-1.654,0-3,1.346-3,3v2.555c.59-.344,1.268-.555,2-.555,2.209,0,4,1.791,4,4h4c0-2.206,1.794-4,4-4,.732,0,1.409,.212,2,.556v-4.556c0-.049-.021-.091-.028-.138Zm-5.972-.862c-1.105,0-2-.895-2-2V5h4.219l1.5,6h-3.719Z" fill="#61616b"></path></svg>