<svg xmlns="http://www.w3.org/2000/svg" height="24" width="24" viewBox="0 0 24 24"><path data-color="color-2" d="M22,10V1a.945.945,0,0,0-.887-1A1.065,1.065,0,0,0,21,0H3A.945.945,0,0,0,2,.887,1.065,1.065,0,0,0,2,1v9ZM6.5,3h1a.5.5,0,0,1,.5.5v3a.5.5,0,0,1-.5.5h-1A.5.5,0,0,1,6,6.5v-3A.5.5,0,0,1,6.5,3Z" fill="#61616b"></path><path d="M2,12V23a.945.945,0,0,0,.887,1A1.065,1.065,0,0,0,3,24H21a.945.945,0,0,0,1-.887A1.065,1.065,0,0,0,22,23V12Zm5.5,8h-1a.5.5,0,0,1-.5-.5v-4a.5.5,0,0,1,.5-.5h1a.5.5,0,0,1,.5.5v4A.5.5,0,0,1,7.5,20Z" fill="#61616b"></path></svg>