<svg xmlns="http://www.w3.org/2000/svg" height="24" width="24" viewBox="0 0 24 24"><path data-color="color-2" d="M9.916,6.777a.5.5,0,0,0,.046-.469l-2.5-6A.5.5,0,0,0,7,0H3a.5.5,0,0,0-.462.308l-2.5,6A.5.5,0,0,0,.5,7h9A.5.5,0,0,0,9.916,6.777Z" fill="#61616b"></path><path d="M13,14.869c0,.043,0,.087,0,.131v1h6V15a2.935,2.935,0,0,1,2.869-3H22V10a1,1,0,0,0-1-1H11a1,1,0,0,0-1,1v2A2.935,2.935,0,0,1,13,14.869Z" fill="#61616b"></path><path d="M23,14H22a1,1,0,0,0-1,1v3H11V15a1,1,0,0,0-1-1H9a1,1,0,0,0-1,1v6a1,1,0,0,0,1,1h1v1a1,1,0,0,0,2,0V22h8v1a1,1,0,0,0,2,0V22h1a1,1,0,0,0,1-1V15A1,1,0,0,0,23,14Z" fill="#61616b"></path><path data-color="color-2" d="M4,23a1,1,0,0,0,2,0V9H4Z" fill="#61616b"></path></svg>