<svg xmlns="http://www.w3.org/2000/svg" height="24" width="24" viewBox="0 0 24 24"><path d="M10.5,15h3a.5.5,0,0,1,.5.5V21h8V9a3,3,0,0,0-3-3H5A3,3,0,0,0,2,9V21h8V15.5A.5.5,0,0,1,10.5,15ZM16,10h2v2H16Zm-5,0h2v2H11ZM8,12H6V10H8Z" fill="#61616b"></path><path data-color="color-2" d="M23,24H1a1,1,0,0,1,0-2H23a1,1,0,0,1,0,2Z" fill="#61616b"></path><path data-color="color-2" d="M15.777,2.084l-3-2A.5.5,0,0,0,12,.5v4a.5.5,0,0,0,.264.441A.506.506,0,0,0,12.5,5a.5.5,0,0,0,.277-.084l3-2a.5.5,0,0,0,0-.832Z" fill="#61616b"></path></svg>