<svg xmlns="http://www.w3.org/2000/svg" height="24" width="24" viewBox="0 0 24 24"><path d="M19.664,2.027A2.075,2.075,0,0,0,18,4.107V5a1,1,0,0,1-1,1h0a1,1,0,0,1-1-1V4.107a2.075,2.075,0,0,0-1.664-2.08A2,2,0,0,0,12,4V5a1,1,0,0,1-1,1h0a1,1,0,0,1-1-1V4.107a2.075,2.075,0,0,0-1.664-2.08A2,2,0,0,0,6,4V5A1,1,0,0,1,5,6H5A1,1,0,0,1,4,5V4.107a2.075,2.075,0,0,0-1.664-2.08A2,2,0,0,0,0,4V19.893a2.075,2.075,0,0,0,1.664,2.08A2,2,0,0,0,4,20V19a1,1,0,0,1,1-1H5a1,1,0,0,1,1,1v.893a2.075,2.075,0,0,0,1.664,2.08A2,2,0,0,0,10,20V19a1,1,0,0,1,1-1h0a1,1,0,0,1,1,1v.893a2.075,2.075,0,0,0,1.664,2.08A2,2,0,0,0,16,20V19a1,1,0,0,1,1-1h0a1,1,0,0,1,1,1v.893a2.075,2.075,0,0,0,1.664,2.08A2,2,0,0,0,22,20V4A2,2,0,0,0,19.664,2.027ZM4,15V9A1,1,0,0,1,5,8H5A1,1,0,0,1,6,9v6a1,1,0,0,1-1,1H5A1,1,0,0,1,4,15Zm6,0V9a1,1,0,0,1,1-1h0a1,1,0,0,1,1,1v6a1,1,0,0,1-1,1h0A1,1,0,0,1,10,15Zm6,0V9a1,1,0,0,1,1-1h0a1,1,0,0,1,1,1v6a1,1,0,0,1-1,1h0A1,1,0,0,1,16,15Z" fill="#61616b"></path><path d="M23.5,8H20V6h3.5a.5.5,0,0,1,.5.5v1A.5.5,0,0,1,23.5,8Z" fill="#61616b"></path></svg>