<svg xmlns="http://www.w3.org/2000/svg" height="24" width="24" viewBox="0 0 24 24"><path d="M16.768.359A1,1,0,0,0,16,0H8.669A3,3,0,0,0,5.718,2.463l-3.7,20.358a1,1,0,0,0,1.968.358L4.744,19h6.967l-.7,3.821a1,1,0,0,0,.8,1.162A.929.929,0,0,0,12,24a1,1,0,0,0,.983-.821l4-22A1,1,0,0,0,16.768.359ZM6.562,9h6.967l-.545,3H6.016ZM8.669,2H14.8l-.909,5H6.925l.76-4.179A1,1,0,0,1,8.669,2ZM5.107,17l.546-3H12.62l-.545,3Z" fill="#61616b"></path><path d="M22.965,22.737,18.244,5.428l-.829,4.561L19.327,17H16.14l-.364,2h4.1l1.162,4.263a1,1,0,0,0,1.93-.526Z" fill="#61616b" data-color="color-2"></path></svg>