<svg xmlns="http://www.w3.org/2000/svg" height="24" width="24" viewBox="0 0 24 24"><path d="M0,12v9a1,1,0,0,0,1,1H2v1a1,1,0,0,0,2,0V22H20v1a1,1,0,0,0,2,0V22h1a1,1,0,0,0,1-1V12Zm6,6.5a.5.5,0,0,1-.5.5h-1a.5.5,0,0,1-.5-.5v-3a.5.5,0,0,1,.5-.5h1a.5.5,0,0,1,.5.5Zm4,0a.5.5,0,0,1-.5.5h-1a.5.5,0,0,1-.5-.5v-3a.5.5,0,0,1,.5-.5h1a.5.5,0,0,1,.5.5Zm4,0a.5.5,0,0,1-.5.5h-1a.5.5,0,0,1-.5-.5v-3a.5.5,0,0,1,.5-.5h1a.5.5,0,0,1,.5.5Zm6,0a.5.5,0,0,1-.5.5h-3a.5.5,0,0,1-.5-.5v-1a.5.5,0,0,1,.5-.5h3a.5.5,0,0,1,.5.5Z" fill="#61616b"></path><path data-color="color-2" d="M24,10V1a1,1,0,0,0-1-1H1A1,1,0,0,0,0,1v9ZM18,3.5a.5.5,0,0,1,.5-.5h1a.5.5,0,0,1,.5.5v3a.5.5,0,0,1-.5.5h-1a.5.5,0,0,1-.5-.5Zm-4,0a.5.5,0,0,1,.5-.5h1a.5.5,0,0,1,.5.5v3a.5.5,0,0,1-.5.5h-1a.5.5,0,0,1-.5-.5Zm-4,0a.5.5,0,0,1,.5-.5h1a.5.5,0,0,1,.5.5v3a.5.5,0,0,1-.5.5h-1a.5.5,0,0,1-.5-.5Zm-6,2A.5.5,0,0,1,4.5,5h3a.5.5,0,0,1,.5.5v1a.5.5,0,0,1-.5.5h-3A.5.5,0,0,1,4,6.5Z" fill="#61616b"></path></svg>