<svg xmlns="http://www.w3.org/2000/svg" height="24" width="24" viewBox="0 0 24 24"><path data-color="color-2" d="M9,11h6a1,1,0,0,1,0,2H9a1,1,0,0,1,0-2Z" fill="#61616b"></path><path d="M21,0H3A3,3,0,0,0,0,3V21a3,3,0,0,0,3,3H21a3,3,0,0,0,3-3V3A3,3,0,0,0,21,0ZM9.25,3.75A1.25,1.25,0,1,1,8,5,1.25,1.25,0,0,1,9.25,3.75Zm-4,0A1.25,1.25,0,1,1,4,5,1.25,1.25,0,0,1,5.25,3.75ZM20,19a1,1,0,0,1-1,1H5a1,1,0,0,1-1-1V9A1,1,0,0,1,5,8H19a1,1,0,0,1,1,1ZM19,6H16a1,1,0,0,1,0-2h3a1,1,0,0,1,0,2Z" fill="#61616b"></path></svg>