<svg xmlns="http://www.w3.org/2000/svg" height="24" width="24" viewBox="0 0 24 24"><path data-color="color-2" d="M16.919,10.606a1,1,0,0,0-1.456-.45l-11,7A1,1,0,0,0,5,19H19a1,1,0,0,0,.919-1.394Z" fill="#61616b"></path><circle data-color="color-2" cx="6.5" cy="10.5" r="1.5" fill="#61616b"></circle><path d="M21,5H17.414L12.707.293a1,1,0,0,0-1.414,0L6.586,5H3A3,3,0,0,0,0,8V20a3,3,0,0,0,3,3H21a3,3,0,0,0,3-3V8A3,3,0,0,0,21,5ZM12,2.414,14.586,5H9.414ZM22,20a1,1,0,0,1-1,1H3a1,1,0,0,1-1-1V8A1,1,0,0,1,3,7H21a1,1,0,0,1,1,1Z" fill="#61616b"></path></svg>