<svg xmlns="http://www.w3.org/2000/svg" height="24" width="24" viewBox="0 0 24 24"><path d="M20,16H4a4,4,0,0,0,0,8H20a4,4,0,0,0,0-8ZM4,21.5A1.5,1.5,0,1,1,5.5,20,1.5,1.5,0,0,1,4,21.5Zm5,0A1.5,1.5,0,1,1,10.5,20,1.5,1.5,0,0,1,9,21.5Z" fill="#61616b"></path><path d="M12.464,9.535a1,1,0,0,1-.707-.293,6,6,0,0,1,0-8.484,1,1,0,0,1,1.414,1.414,4,4,0,0,0,0,5.656,1,1,0,0,1-.707,1.707Z" fill="#61616b" data-color="color-2"></path><path d="M19.536,9.535a1,1,0,0,1-.707-1.707,4,4,0,0,0,0-5.656A1,1,0,0,1,20.243.758a6,6,0,0,1,0,8.484A1,1,0,0,1,19.536,9.535Z" fill="#61616b" data-color="color-2"></path><path d="M15,6.722V14h2V6.722a2,2,0,1,0-2,0Z" fill="#61616b"></path></svg>