<svg xmlns="http://www.w3.org/2000/svg" height="24" width="24" viewBox="0 0 24 24"><path data-color="color-2" d="M12,21a1,1,0,0,0-1,1v1a1,1,0,0,0,2,0V22A1,1,0,0,0,12,21Z" fill="#61616b"></path><path data-color="color-2" d="M7,18a1,1,0,0,0-1,1v1a1,1,0,0,0,2,0V19A1,1,0,0,0,7,18Z" fill="#61616b"></path><path data-color="color-2" d="M17,18a1,1,0,0,0-1,1v1a1,1,0,0,0,2,0V19A1,1,0,0,0,17,18Z" fill="#61616b"></path><rect data-color="color-2" x="2" y="13" width="20" height="3" rx="1.5" fill="#61616b"></rect><path d="M20.939,11A9.011,9.011,0,0,0,13,3.059V1a1,1,0,0,0-2,0V3.059A9.011,9.011,0,0,0,3.061,11Z" fill="#61616b"></path></svg>