<svg xmlns="http://www.w3.org/2000/svg" height="24" width="24" viewBox="0 0 24 24"><path data-color="color-2" d="M2.5,9a4.506,4.506,0,0,1,4.472,4H11V2H5A3,3,0,0,0,2,5V9.051A4.342,4.342,0,0,1,2.5,9Z" fill="#61616b"></path><path data-color="color-2" d="M17.028,13A4.506,4.506,0,0,1,21.5,9a4.342,4.342,0,0,1,.5.051V5a3,3,0,0,0-3-3H13V13Z" fill="#61616b"></path><path d="M21.5,11A2.5,2.5,0,0,0,19,13.5V15H5V13.5a2.5,2.5,0,0,0-5,0V19a1,1,0,0,0,1,1H2v1a1,1,0,0,0,2,0V20H20v1a1,1,0,0,0,2,0V20h1a1,1,0,0,0,1-1V13.5A2.5,2.5,0,0,0,21.5,11Z" fill="#61616b"></path></svg>