<svg xmlns="http://www.w3.org/2000/svg" height="24" width="24" viewBox="0 0 24 24"><path d="M10.828,17.414,9.121,19.121a3,3,0,1,1-4.242-4.242l1.707-1.707-.879-.879a1,1,0,0,0-1.414,0l-2,2C0,16.586,0,17.944,0,23a1,1,0,0,0,1,1c5.056,0,6.414,0,8.707-2.293l2-2a1,1,0,0,0,0-1.414Z" fill="#61616b" data-color="color-2"></path><path d="M23.707,4.293l-4-4a1,1,0,0,0-1.414,0l-2,2A1,1,0,0,0,16,3V6.586L6.293,16.293a1,1,0,1,0,1.414,1.414L17.414,8H21a1,1,0,0,0,.707-.293l2-2A1,1,0,0,0,23.707,4.293ZM20.586,6H18V3.414l1-1L21.586,5Z" fill="#61616b"></path></svg>