<svg xmlns="http://www.w3.org/2000/svg" height="24" width="24" viewBox="0 0 24 24"><circle data-color="color-2" cx="4" cy="4" r="1" fill="#61616b"></circle><circle data-color="color-2" cx="1" cy="1" r="1" fill="#61616b"></circle><circle data-color="color-2" cx="1" cy="7" r="1" fill="#61616b"></circle><path d="M17,1H8A1,1,0,0,0,7,2V6A1,1,0,0,0,8,7H21a1,1,0,0,0,1-1A5.006,5.006,0,0,0,17,1Z" fill="#61616b"></path><path d="M12.905,9,8.156,16.463A1,1,0,0,0,8,17v4a3,3,0,0,0,3,3h5a3,3,0,0,0,3-3V9Z" fill="#61616b"></path></svg>