<svg xmlns="http://www.w3.org/2000/svg" height="24" width="24" viewBox="0 0 24 24"><path d="M5,9H3A1,1,0,0,1,3,7H5A1,1,0,0,1,5,9Z" fill="#61616b" data-color="color-2"></path><path d="M3,5H1A1,1,0,0,1,1,3H3A1,1,0,0,1,3,5Z" fill="#61616b" data-color="color-2"></path><path d="M5,17H3a1,1,0,0,1,0-2H5a1,1,0,0,1,0,2Z" fill="#61616b" data-color="color-2"></path><path d="M3,13H1a1,1,0,0,1,0-2H3a1,1,0,0,1,0,2Z" fill="#61616b" data-color="color-2"></path><path d="M11,1.131,9.555.168A1,1,0,0,0,8,1V21a1,1,0,0,0,.445.832L11,23.535Z" fill="#61616b"></path><path d="M13,2.05V24h0a4,4,0,0,0,4-4V11a4,4,0,0,1,4,4v5.5a1.5,1.5,0,0,0,3,0V14A12,12,0,0,0,13,2.05Z" fill="#61616b"></path></svg>