<svg xmlns="http://www.w3.org/2000/svg" height="24" width="24" viewBox="0 0 24 24"><path d="M23.414,6,19.707,2.293A1,1,0,0,0,19,2H5a1,1,0,0,0-.707.293L.586,6Z" fill="#61616b"></path><path data-color="color-2" d="M6,14v3a1,1,0,0,0,2,0V14Z" fill="#61616b"></path><path data-color="color-2" d="M16,14v3a1,1,0,0,0,2,0V14Z" fill="#61616b"></path><path data-color="color-2" d="M20,14v7a1,1,0,0,0,2,0V14Z" fill="#61616b"></path><rect y="8" width="24" height="4" rx="1" fill="#61616b"></rect><path data-color="color-2" d="M2,14v7a1,1,0,0,0,2,0V14Z" fill="#61616b"></path></svg>