<svg xmlns="http://www.w3.org/2000/svg" height="24" width="24" viewBox="0 0 24 24"><path data-color="color-2" d="M2,7h9v3h2V7h9a1,1,0,0,0,.788-1.616,13.5,13.5,0,0,0-21.576,0A1,1,0,0,0,2,7Z" fill="#61616b"></path><path d="M7,18H2V13a1,1,0,0,0-2,0V23a1,1,0,0,0,2,0V20H6v3a1,1,0,0,0,2,0V19A1,1,0,0,0,7,18Z" fill="#61616b"></path><path d="M23,12a1,1,0,0,0-1,1v5H17a1,1,0,0,0-1,1v4a1,1,0,0,0,2,0V20h4v3a1,1,0,0,0,2,0V13A1,1,0,0,0,23,12Z" fill="#61616b"></path><path d="M17,16a1,1,0,0,0,0-2H7a1,1,0,0,0,0,2h4v7a1,1,0,0,0,2,0V16Z" fill="#61616b"></path></svg>