<svg xmlns="http://www.w3.org/2000/svg" height="24" width="24" viewBox="0 0 24 24"><path data-color="color-2" d="M2,16v7a1,1,0,0,0,1,1h8V16Zm6,4.5a.5.5,0,0,1-.5.5h-2a.5.5,0,0,1-.5-.5v-1a.5.5,0,0,1,.5-.5h2a.5.5,0,0,1,.5.5Z" fill="#61616b"></path><path d="M21,0H13V24h8a1,1,0,0,0,1-1V1A1,1,0,0,0,21,0ZM18,14.5a.5.5,0,0,1-.5.5h-1a.5.5,0,0,1-.5-.5v-3a.5.5,0,0,1,.5-.5h1a.5.5,0,0,1,.5.5Z" fill="#61616b"></path><path d="M3,0h8a0,0,0,0,1,0,0V14a0,0,0,0,1,0,0H2a0,0,0,0,1,0,0V1A1,1,0,0,1,3,0Z" fill="#61616b"></path></svg>