<svg xmlns="http://www.w3.org/2000/svg" height="24" width="24" viewBox="0 0 24 24"><path d="M3,0A1,1,0,0,0,2,1V8h9V0ZM8.5,6H7.5A.5.5,0,0,1,7,5.5V2.5A.5.5,0,0,1,7.5,2H8.5a.5.5,0,0,1,.5.5V5.5A.5.5,0,0,1,8.5,6Z" fill="#61616b"></path><path d="M2,10v6h9V10Zm6,3.5a.5.5,0,0,1-.5.5h-2a.5.5,0,0,1-.5-.5v-1a.5.5,0,0,1,.5-.5h2a.5.5,0,0,1,.5.5Z" fill="#61616b"></path><path d="M2,18v5a1,1,0,0,0,1,1h8V18Zm6,3.5a.5.5,0,0,1-.5.5h-2a.5.5,0,0,1-.5-.5v-1a.5.5,0,0,1,.5-.5h2a.5.5,0,0,1,.5.5Z" fill="#61616b"></path><path d="M21,0H13V24h8a1,1,0,0,0,1-1V1A1,1,0,0,0,21,0ZM17,14.5a.5.5,0,0,1-.5.5h-1a.5.5,0,0,1-.5-.5v-3a.5.5,0,0,1,.5-.5h1a.5.5,0,0,1,.5.5Z" fill="#61616b" data-color="color-2"></path></svg>