<svg xmlns="http://www.w3.org/2000/svg" height="24" width="24" viewBox="0 0 24 24"><path d="M3,0A1,1,0,0,0,2,1V16h9V0ZM9,11.5a.5.5,0,0,1-.5.5h-1a.5.5,0,0,1-.5-.5v-3A.5.5,0,0,1,7.5,8h1a.5.5,0,0,1,.5.5Z" fill="#61616b"></path><path d="M21,0H13V16h9V1A1,1,0,0,0,21,0ZM17,11.5a.5.5,0,0,1-.5.5h-1a.5.5,0,0,1-.5-.5v-3a.5.5,0,0,1,.5-.5h1a.5.5,0,0,1,.5.5Z" fill="#61616b"></path><path d="M2,18v5a1,1,0,0,0,1,1H21a1,1,0,0,0,1-1V18Zm12,3.5a.5.5,0,0,1-.5.5h-3a.5.5,0,0,1-.5-.5v-1a.5.5,0,0,1,.5-.5h3a.5.5,0,0,1,.5.5Z" fill="#61616b" data-color="color-2"></path></svg>