<svg xmlns="http://www.w3.org/2000/svg" height="24" width="24" viewBox="0 0 24 24"><path d="M21,0H3A1,1,0,0,0,2,1V23a1,1,0,0,0,1,1h8V16H4V2H20V16H13v8h8a1,1,0,0,0,1-1V1A1,1,0,0,0,21,0ZM5,19.5a.5.5,0,0,1,.5-.5h2a.5.5,0,0,1,.5.5v1a.5.5,0,0,1-.5.5h-2a.5.5,0,0,1-.5-.5Zm14,1a.5.5,0,0,1-.5.5h-2a.5.5,0,0,1-.5-.5v-1a.5.5,0,0,1,.5-.5h2a.5.5,0,0,1,.5.5Z" fill="#61616b"></path><path d="M16.447,7.105,13,5.382V4H11V5.382L7.553,7.105A1,1,0,0,0,8,9h8a1,1,0,0,0,.447-1.895Z" fill="#61616b" data-color="color-2"></path></svg>