<svg xmlns="http://www.w3.org/2000/svg" height="24" width="24" viewBox="0 0 24 24"><path data-color="color-2" d="M15.5,14A4.475,4.475,0,0,1,12,12.3a4.38,4.38,0,0,1-4.973,1.436c0,.09-.027.176-.027.267a5,5,0,0,0,10,0c0-.091-.022-.177-.027-.267A4.471,4.471,0,0,1,15.5,14Z" fill="#61616b"></path><path d="M21,0H3A1,1,0,0,0,2,1V23a1,1,0,0,0,1,1H21a1,1,0,0,0,1-1V1A1,1,0,0,0,21,0ZM5,4A1,1,0,0,1,6,3h4a1,1,0,0,1,0,2H6A1,1,0,0,1,5,4Zm7,17a7,7,0,1,1,7-7A7.008,7.008,0,0,1,12,21ZM17.5,5.5A1.5,1.5,0,1,1,19,4,1.5,1.5,0,0,1,17.5,5.5Z" fill="#61616b"></path></svg>