<svg xmlns="http://www.w3.org/2000/svg" height="24" width="24" viewBox="0 0 24 24"><path d="M23.9.553A1,1,0,0,0,22.553.105L19.664,1.55a1,1,0,0,0-.533.7l-.564,2.819L1.827,8.016a1,1,0,0,0-.534,1.691L11.972,20.386a2,2,0,0,0,1.413.586,2.046,2.046,0,0,0,.582-.086,2,2,0,0,0,1.38-1.522l.871-4.355.479-.239a4.967,4.967,0,0,0,2.667-3.492L21,3.12,23.447,1.9A1,1,0,0,0,23.9.553ZM13.386,18.972l-1.7-1.7,2.264-1.132Z" fill="#61616b"></path><path d="M4,24a4,4,0,1,1,4-4A4,4,0,0,1,4,24Zm0-6a2,2,0,1,0,2,2A2,2,0,0,0,4,18Z" fill="#61616b" data-color="color-2"></path></svg>