<svg xmlns="http://www.w3.org/2000/svg" height="24" width="24" viewBox="0 0 24 24"> <path fill-rule="evenodd" clip-rule="evenodd" d="M14 4H23V5.80432L18.3471 10H19C21.7614 10 24 12.2386 24 15C24 17.7614 21.7614 20 19 20H14V18H19C20.6569 18 22 16.6569 22 15C22 13.3431 20.6569 12 19 12H15V10.3252L19.7965 6H14V4Z" fill="#61616b" data-color="color-2"></path> <path fill-rule="evenodd" clip-rule="evenodd" d="M1 11H12V13H1V11Z" fill="#61616b"></path> <path fill-rule="evenodd" clip-rule="evenodd" d="M3 4V20H1V4H3Z" fill="#61616b"></path> <path fill-rule="evenodd" clip-rule="evenodd" d="M12 4V20H10V4H12Z" fill="#61616b"></path> </svg>