<svg xmlns="http://www.w3.org/2000/svg" height="24" width="24" viewBox="0 0 24 24"><path fill-rule="evenodd" clip-rule="evenodd" d="M6 2.5L6 21.5L4 21.5L4 2.5L6 2.5Z" fill="#61616b" data-color="color-2"></path> <path fill-rule="evenodd" clip-rule="evenodd" d="M1.08578 5L5 1.08579L8.91421 5L7.5 6.41421L5 3.91421L2.5 6.41422L1.08578 5Z" fill="#61616b" data-color="color-2"></path> <path fill-rule="evenodd" clip-rule="evenodd" d="M1.08578 19L5 22.9142L8.91421 19L7.5 17.5858L5 20.0858L2.5 17.5858L1.08578 19Z" fill="#61616b" data-color="color-2"></path> <path fill-rule="evenodd" clip-rule="evenodd" d="M22 16H12V14L22 14V16Z" fill="#61616b"></path> <path fill-rule="evenodd" clip-rule="evenodd" d="M22 2H12V4H22V2Z" fill="#61616b"></path> <path fill-rule="evenodd" clip-rule="evenodd" d="M17 20H12V22H17V20Z" fill="#61616b"></path> <path fill-rule="evenodd" clip-rule="evenodd" d="M22 8H12V10H22V8Z" fill="#61616b"></path></svg>