<svg xmlns="http://www.w3.org/2000/svg" height="24" width="24" viewBox="0 0 24 24"><rect x="18.5" y="2" width="3.5" height="3.5" fill="#61616b" stroke-width="0" data-color="color-2"></rect><rect x="13" y="7.5" width="3.5" height="3.5" fill="#61616b" stroke-width="0" data-color="color-2"></rect><rect x="7.5" y="13" width="3.5" height="3.5" fill="#61616b" stroke-width="0" data-color="color-2"></rect><rect x="2" y="18.5" width="3.5" height="3.5" fill="#61616b" stroke-width="0" data-color="color-2"></rect><rect x="2" y="2" width="3.5" height="3.5" stroke-width="0" fill="#61616b"></rect><rect x="7.5" y="2" width="3.5" height="3.5" stroke-width="0" fill="#61616b"></rect><rect x="13" y="2" width="3.5" height="3.5" stroke-width="0" fill="#61616b"></rect><rect x="2" y="7.5" width="3.5" height="3.5" stroke-width="0" fill="#61616b"></rect><rect x="18.5" y="7.5" width="3.5" height="3.5" stroke-width="0" fill="#61616b"></rect><rect x="7.5" y="7.5" width="3.5" height="3.5" stroke-width="0" fill="#61616b"></rect><rect x="2" y="13" width="3.5" height="3.5" stroke-width="0" fill="#61616b"></rect><rect x="18.5" y="13" width="3.5" height="3.5" stroke-width="0" fill="#61616b"></rect><rect x="13" y="13" width="3.5" height="3.5" stroke-width="0" fill="#61616b"></rect><rect x="18.5" y="18.5" width="3.5" height="3.5" stroke-width="0" fill="#61616b"></rect><rect x="7.5" y="18.5" width="3.5" height="3.5" stroke-width="0" fill="#61616b"></rect><rect x="13" y="18.5" width="3.5" height="3.5" stroke-width="0" fill="#61616b"></rect></svg>