<svg xmlns="http://www.w3.org/2000/svg" height="24" width="24" viewBox="0 0 24 24"><path d="M19.071,17.485l-1.414-1.414.707-.707a9,9,0,0,0,0-12.728l-.707-.707L19.071.515l.707.707a11,11,0,0,1,0,15.556Z" fill="#61616b" data-color="color-2"></path><path d="M16.242,14.656l-1.413-1.415.707-.706a5,5,0,0,0,0-7.07l-.707-.706,1.413-1.415.708.707a7,7,0,0,1,0,9.9Z" fill="#61616b" data-color="color-2"></path><path d="M4.929,17.485l-.707-.707a11,11,0,0,1,0-15.556L4.929.515,6.343,1.929l-.707.707a9,9,0,0,0,0,12.728l.707.707Z" fill="#61616b" data-color="color-2"></path><path d="M7.758,14.656l-.708-.707a7,7,0,0,1,0-9.9l.708-.707L9.171,4.759l-.707.706a5,5,0,0,0,0,7.07l.707.706Z" fill="#61616b" data-color="color-2"></path><path d="M13,22V11.289a2.5,2.5,0,1,0-2,0V22H7v2H17V22Z" fill="#61616b"></path></svg>