<svg xmlns="http://www.w3.org/2000/svg" height="24" width="24" viewBox="0 0 24 24"><path fill="#61616b" d="M17,8H7C6.447,8,6,8.448,6,9v5c0,0.552,0.447,1,1,1h10c0.553,0,1-0.448,1-1V9C18,8.448,17.553,8,17,8z"></path> <rect data-color="color-2" y="11" fill="#61616b" width="4" height="2"></rect> <rect data-color="color-2" x="3.929" y="2.929" transform="matrix(0.7072 -0.707 0.707 0.7072 -2.0416 4.9275)" fill="#61616b" width="2" height="4"></rect> <rect data-color="color-2" x="11" fill="#61616b" width="2" height="4"></rect> <rect data-color="color-2" x="17.071" y="3.929" transform="matrix(0.707 -0.7072 0.7072 0.707 2.1015 14.9305)" fill="#61616b" width="4" height="2"></rect> <rect data-color="color-2" x="20" y="11" fill="#61616b" width="4" height="2"></rect> <path fill="#61616b" d="M9.008,23.124C9.07,23.625,9.496,24,10,24h4c0.504,0,0.93-0.375,0.992-0.876L15.758,17H8.242L9.008,23.124z"></path></svg>