<svg xmlns="http://www.w3.org/2000/svg" height="24" width="24" viewBox="0 0 24 24"><rect data-color="color-2" y="7" fill="#61616b" width="2" height="10"></rect> <path fill="#61616b" d="M17,5H5C4.447,5,4,5.447,4,6v12c0,0.553,0.447,1,1,1h12V5z"></path> <path data-color="color-2" fill="#61616b" d="M23.561,3.172c-0.275-0.186-0.626-0.224-0.932-0.101L19,4.523v14.954l3.629,1.452 C22.748,20.977,22.874,21,23,21c0.197,0,0.393-0.059,0.561-0.172C23.835,20.642,24,20.332,24,20V4 C24,3.668,23.835,3.358,23.561,3.172z"></path></svg>