<svg xmlns="http://www.w3.org/2000/svg" height="24" width="24" viewBox="0 0 24 24"><path d="M5.508,22.027,1.973,18.492c-.008-.007-.012-.016-.02-.024L.261,20.326a1,1,0,0,0,.032,1.381l2,2a1,1,0,0,0,1.38.032l1.858-1.692C5.524,22.039,5.515,22.035,5.508,22.027Z" fill="#61616b" data-color="color-2"></path><path d="M23.677,7.67,16.333.326a1.1,1.1,0,0,0-1.872.912c.09.7.27,3.082-1.175,4.527l-9.9,9.9a1,1,0,0,0,0,1.414l3.535,3.535a1,1,0,0,0,1.414,0l9.9-9.9c1.442-1.443,3.828-1.266,4.521-1.176a1.1,1.1,0,0,0,.92-1.868ZM9.5,15.75a1.25,1.25,0,1,1,1.25-1.25A1.25,1.25,0,0,1,9.5,15.75Zm3-3a1.25,1.25,0,1,1,1.25-1.25A1.25,1.25,0,0,1,12.5,12.75Z" fill="#61616b"></path></svg>