<svg xmlns="http://www.w3.org/2000/svg" height="24" width="24" viewBox="0 0 24 24"><path d="M12,19a7,7,0,0,1,6.713-6.985l1.08-1.405A1,1,0,0,0,19,9H11.117l.876-7.89A1,1,0,0,0,10.206.389l-10,13A1,1,0,0,0,1,15H8.883l-.876,7.89a1,1,0,0,0,1.786.72l2.378-3.091A6.981,6.981,0,0,1,12,19Z" fill="#61616b"></path><path data-color="color-2" d="M19,14a5,5,0,1,0,5,5A5.006,5.006,0,0,0,19,14Zm3,5a2.951,2.951,0,0,1-.3,1.285L17.715,16.3A2.951,2.951,0,0,1,19,16,3,3,0,0,1,22,19Zm-6,0a2.951,2.951,0,0,1,.3-1.285L20.285,21.7A2.951,2.951,0,0,1,19,22,3,3,0,0,1,16,19Z" fill="#61616b"></path></svg>