<svg xmlns="http://www.w3.org/2000/svg" height="24" width="24" viewBox="0 0 24 24"><path d="M17.882,7.528A1,1,0,0,0,17,7H12.326l1.636-5.725A1,1,0,0,0,13,0H6a1,1,0,0,0-.965.737l-3,11A1,1,0,0,0,3,13H7.8L6.017,22.821a1,1,0,0,0,.608,1.106A.985.985,0,0,0,7,24a1,1,0,0,0,.832-.445l10-15A1,1,0,0,0,17.882,7.528Z" fill="#61616b"></path><path data-color="color-2" d="M19,14a5,5,0,1,0,5,5A5.006,5.006,0,0,0,19,14Zm3,5a2.951,2.951,0,0,1-.3,1.285L17.715,16.3A2.951,2.951,0,0,1,19,16,3,3,0,0,1,22,19Zm-6,0a2.951,2.951,0,0,1,.3-1.285L20.285,21.7A2.951,2.951,0,0,1,19,22,3,3,0,0,1,16,19Z" fill="#61616b"></path></svg>