<svg xmlns="http://www.w3.org/2000/svg" height="24" width="24" viewBox="0 0 24 24"><path d="M22,23H20.225a1,1,0,0,1-.744-.332,2.039,2.039,0,0,0-2.962,0,1,1,0,0,1-.744.332h-1.55a1,1,0,0,1-.744-.332,2.039,2.039,0,0,0-2.962,0A1,1,0,0,1,9.775,23H8.225a1,1,0,0,1-.744-.332,2.039,2.039,0,0,0-2.962,0A1,1,0,0,1,3.775,23H2a1,1,0,0,1-1-1V20.225a1,1,0,0,1,.332-.745,1.974,1.974,0,0,0,0-2.96A1,1,0,0,1,1,15.775v-1.55a1,1,0,0,1,.332-.745,1.974,1.974,0,0,0,0-2.96A1,1,0,0,1,1,9.775V8.225a1,1,0,0,1,.332-.745,1.974,1.974,0,0,0,0-2.96A1,1,0,0,1,1,3.775V2A1,1,0,0,1,2,1H3.775a1,1,0,0,1,.744.332,2.039,2.039,0,0,0,2.962,0A1,1,0,0,1,8.225,1h1.55a1,1,0,0,1,.744.332,2.039,2.039,0,0,0,2.962,0A1,1,0,0,1,14.225,1h1.55a1,1,0,0,1,.744.332,2.039,2.039,0,0,0,2.962,0A1,1,0,0,1,20.225,1H22a1,1,0,0,1,1,1V3.775a1,1,0,0,1-.332.745,1.974,1.974,0,0,0,0,2.96A1,1,0,0,1,23,8.225v1.55a1,1,0,0,1-.332.745,1.974,1.974,0,0,0,0,2.96,1,1,0,0,1,.332.745v1.55a1,1,0,0,1-.332.745,1.974,1.974,0,0,0,0,2.96,1,1,0,0,1,.332.745V22A1,1,0,0,1,22,23ZM5,19H19V5H5Z" fill="#61616b"></path></svg>