<svg xmlns="http://www.w3.org/2000/svg" height="24" width="24" viewBox="0 0 24 24"><rect data-color="color-2" x="9" y="17" fill="#61616b" width="6" height="6"></rect> <rect data-color="color-2" x="1" y="9" fill="#61616b" width="6" height="6"></rect> <rect data-color="color-2" x="17" y="9" fill="#61616b" width="6" height="6"></rect> <rect x="9" y="9" fill="#61616b" width="6" height="6"></rect> <path fill="#61616b" d="M7,1H2C1.448,1,1,1.448,1,2v5h6V1z"></path> <path fill="#61616b" d="M17,17v6h5c0.552,0,1-0.448,1-1v-5H17z"></path> <path fill="#61616b" d="M23,7V2c0-0.552-0.448-1-1-1h-5v6H23z"></path> <path fill="#61616b" d="M7,17H1v5c0,0.552,0.448,1,1,1h5V17z"></path> <rect data-color="color-2" x="9" y="1" fill="#61616b" width="6" height="6"></rect></svg>