<svg xmlns="http://www.w3.org/2000/svg" height="24" width="24" viewBox="0 0 24 24"><path d="M6.881,18.533l1.441-1.441A8.017,8.017,0,0,1,4,10,.945.945,0,0,0,3,9a.945.945,0,0,0-1,1A9.918,9.918,0,0,0,6.881,18.533Z" fill="#61616b"></path><path d="M21,9a.945.945,0,0,0-1,1,8.024,8.024,0,0,1-8,8,7.927,7.927,0,0,1-1.6-.162L8.821,19.421A9.89,9.89,0,0,0,11,19.9V22H7a1,1,0,0,0,0,2H17a1,1,0,0,0,0-2H13V19.9A9.983,9.983,0,0,0,22,10,.945.945,0,0,0,21,9Z" fill="#61616b"></path><path d="M12.255,15.987a6.01,6.01,0,0,0,5.732-5.732Z" fill="#61616b"></path><path d="M9.829,15.585,18,7.414V6A6,6,0,0,0,6,6v4A6.017,6.017,0,0,0,9.829,15.585Z" fill="#61616b"></path><path d="M3,22a1,1,0,0,1-.707-1.707l18-18a1,1,0,1,1,1.414,1.414l-18,18A1,1,0,0,1,3,22Z" fill="#61616b" data-color="color-2"></path></svg>