<svg xmlns="http://www.w3.org/2000/svg" height="24" width="24" viewBox="0 0 24 24"><polygon data-color="color-2" points="4 19 2 19 2 17 4 17 4 15 2 15 2 13 4 13 4 11 2 11 2 9 4 9 4 7 2 7 2 5 4 5 4 3 2 3 2 0 0 0 0 24 2 24 2 21 4 21 4 19" fill="#61616b"></polygon><polygon data-color="color-2" points="22 0 22 3 20 3 20 5 22 5 22 7 20 7 20 9 22 9 22 11 20 11 20 13 22 13 22 15 20 15 20 17 22 17 22 19 20 19 20 21 22 21 22 24 24 24 24 21 24 19 24 5 24 3 24 0 22 0" fill="#61616b"></polygon><rect x="5" y="13" width="14" height="11" rx="1" fill="#61616b"></rect><rect x="5" width="14" height="11" rx="1" fill="#61616b"></rect></svg>