<svg xmlns="http://www.w3.org/2000/svg" height="24" width="24" viewBox="0 0 24 24"><rect y="3" width="10" height="2" fill="#61616b" data-color="color-2"></rect><rect y="7" width="10" height="2" fill="#61616b" data-color="color-2"></rect><rect y="11" width="10" height="2" fill="#61616b" data-color="color-2"></rect><path d="M17,4a3,3,0,0,1-3-3,1,1,0,0,0-2,0V16.555A3.955,3.955,0,0,0,10,16a4,4,0,1,0,4,4V6.314A5.993,5.993,0,0,0,19,9a6.975,6.975,0,0,1,5,2.1c0-.034,0-.066,0-.1A7,7,0,0,0,17,4Z" fill="#61616b"></path></svg>