<svg xmlns="http://www.w3.org/2000/svg" height="24" width="24" viewBox="0 0 24 24"><path d="M21,4H17L15,1H9L7,4H3A3,3,0,0,0,0,7V19a3,3,0,0,0,3,3H21a3,3,0,0,0,3-3V7A3,3,0,0,0,21,4ZM12,19a6,6,0,1,1,6-6A6,6,0,0,1,12,19Z" fill="#61616b"></path><path data-color="color-2" d="M14.02,9.566A3.957,3.957,0,0,0,12,9a4,4,0,0,0-4,4,3.957,3.957,0,0,0,.566,2.02Z" fill="#61616b"></path><path data-color="color-2" d="M9.98,16.434A3.957,3.957,0,0,0,12,17a4,4,0,0,0,4-4,3.957,3.957,0,0,0-.566-2.02Z" fill="#61616b"></path></svg>