<svg xmlns="http://www.w3.org/2000/svg" height="24" width="24" viewBox="0 0 24 24"><path d="M3.05,16.363l-.707-.707a8,8,0,0,1,0-11.312l.707-.707L4.464,5.051l-.707.707a6,6,0,0,0,0,8.484l.707.707Z" fill="#61616b" data-color="color-2"></path><path d="M20.95,16.363l-1.414-1.414.707-.707a6,6,0,0,0,0-8.484l-.707-.707L20.95,3.637l.707.707a8,8,0,0,1,0,11.312Z" fill="#61616b" data-color="color-2"></path><path d="M14,14V12h3V8H14V6h3V3a3,3,0,0,0-3-3H10A3,3,0,0,0,7,3V6h3V8H7v4h3v2H7v3a3,3,0,0,0,3,3h4a3,3,0,0,0,3-3V14Z" fill="#61616b"></path><rect x="11" y="21" width="2" height="3" fill="#61616b"></rect></svg>