<svg xmlns="http://www.w3.org/2000/svg" height="24" width="24" viewBox="0 0 24 24"><circle cx="12" cy="10.5" r="2.5" fill="#61616b" data-color="color-2"></circle><path d="M12,0A11.99,11.99,0,0,0,6.857,22.826l-.27-2.43a10,10,0,1,1,10.826,0l-.27,2.43A11.99,11.99,0,0,0,12,0Z" fill="#61616b"></path><path d="M6.136,16.331a3,3,0,0,1,.41-1.866A5.927,5.927,0,0,1,6,12a6,6,0,0,1,12,0,5.927,5.927,0,0,1-.546,2.465,3,3,0,0,1,.41,1.866l-.137,1.24a8,8,0,1,0-11.454,0Z" fill="#61616b"></path><path d="M9.117,15h5.766a1,1,0,0,1,.994,1.11L15,24H9l-.877-7.89A1,1,0,0,1,9.117,15Z" fill="#61616b" data-color="color-2"></path></svg>