<svg xmlns="http://www.w3.org/2000/svg" height="24" width="24" viewBox="0 0 24 24"><circle cx="9" cy="13" r="2" fill="#61616b" data-color="color-2"></circle><path d="M9,5A1,1,0,0,1,8,4V2a1,1,0,0,1,2,0V4A1,1,0,0,1,9,5Z" fill="#61616b" data-color="color-2"></path><path d="M15.364,7.636a1,1,0,0,1-.707-1.707l1.414-1.414a1,1,0,0,1,1.414,1.414L16.071,7.343A1,1,0,0,1,15.364,7.636Z" fill="#61616b" data-color="color-2"></path><path d="M2.636,7.636a1,1,0,0,1-.707-.293L.515,5.929A1,1,0,1,1,1.929,4.515L3.343,5.929a1,1,0,0,1-.707,1.707Z" fill="#61616b" data-color="color-2"></path><path d="M23,9H13.46A5.973,5.973,0,0,0,4.54,9H1a1,1,0,0,0-1,1V20a1,1,0,0,0,1,1H4v2H6V21H18v2h2V21h3a1,1,0,0,0,1-1V10A1,1,0,0,0,23,9ZM9,17a4,4,0,1,1,4-4A4,4,0,0,1,9,17Zm11,1H16V16h4Zm0-4H16V12h4Z" fill="#61616b"></path></svg>