<svg xmlns="http://www.w3.org/2000/svg" height="24" width="24" viewBox="0 0 24 24"><path d="M5.61,11.025H5.343v1.142H5.6q.708,0,.708-.626Q6.3,11.025,5.61,11.025Z" fill="#61616b"></path><path d="M11.152,11.428q-.108-.434-.142-.622c-.021.116-.061.308-.122.574s-.194.792-.4,1.576H11.55l-.216-.82Q11.259,11.863,11.152,11.428Z" fill="#61616b"></path><path d="M23,4H1A1,1,0,0,0,0,5V20a1,1,0,0,0,1,1H23a1,1,0,0,0,1-1V5A1,1,0,0,0,23,4ZM6.745,15l-1.06-1.818H5.343V15H3.993V10H5.63q2.037,0,2.037,1.476a1.476,1.476,0,0,1-.847,1.344L8.276,15Zm5.331,0-.246-.937H10.207L9.954,15H8.47L10.1,9.982h1.8L13.553,15Zm7.134,0h-1.6l-.479-2.177c-.023-.092-.058-.273-.107-.544s-.085-.5-.108-.68q-.027.222-.089.552c-.041.22-.081.422-.122.607s-.2.932-.5,2.242h-1.6l-1.237-5h1.3l.544,2.5q.185.831.253,1.323.043-.348.158-.947t.214-.991L16.291,10h1.251l.427,1.89q.11.454.222,1.049t.151.889q.045-.38.242-1.316L19.138,10h1.3Z" fill="#61616b"></path></svg>