<svg xmlns="http://www.w3.org/2000/svg" height="24" width="24" viewBox="0 0 24 24"><path d="M21.988,13.119a3.961,3.961,0,0,1-.611,2c.412.327.623.636.623.877,0,.569-1.088,1.494-3.478,2.18a1,1,0,0,0,.275,1.961,1.011,1.011,0,0,0,.276-.039C22.25,19.191,24,17.734,24,16A3.528,3.528,0,0,0,21.988,13.119Z" fill="#61616b" data-color="color-2"></path><path d="M18,3H15.618L14.9,1.553A1,1,0,0,0,14,1H10a1,1,0,0,0-.895.553L8.382,3H6A2,2,0,0,0,4,5v8a2,2,0,0,0,2,2H18a2,2,0,0,0,2-2V5A2,2,0,0,0,18,3Zm-6,9a3,3,0,1,1,3-3A3,3,0,0,1,12,12Z" fill="#61616b"></path><path d="M14.707,19.293l-3-3a1,1,0,0,0-1.414,1.414l1.285,1.285C5.806,18.909,2,17.166,2,16c0-.241.211-.55.623-.877a3.961,3.961,0,0,1-.611-2A3.528,3.528,0,0,0,0,16c0,3.208,5.765,4.916,11.593,4.993l-1.3,1.3a1,1,0,1,0,1.414,1.414l3-3A1,1,0,0,0,14.707,19.293Z" fill="#61616b" data-color="color-2"></path></svg>