<svg xmlns="http://www.w3.org/2000/svg" height="24" width="24" viewBox="0 0 24 24"><path d="M23,10H1c-.552,0-1-.448-1-1s.448-1,1-1H23c.552,0,1,.448,1,1s-.448,1-1,1Z" fill="#61616b"></path><path d="M23,4H1c-.552,0-1-.448-1-1s.448-1,1-1H23c.552,0,1,.448,1,1s-.448,1-1,1Z" fill="#61616b"></path><path d="M9,16H1c-.552,0-1-.448-1-1s.448-1,1-1H9c.552,0,1,.448,1,1s-.448,1-1,1Z" fill="#61616b"></path><path d="M9,22H1c-.552,0-1-.448-1-1s.448-1,1-1H9c.552,0,1,.448,1,1s-.448,1-1,1Z" fill="#61616b"></path><path data-color="color-2" d="M18,12c-3.314,0-6,2.686-6,6s2.686,6,6,6,6-2.686,6-6-2.686-6-6-6Zm3.5,7h-2.5v2.5c0,.276-.224,.5-.5,.5h-1c-.276,0-.5-.224-.5-.5v-2.5h-2.5c-.276,0-.5-.224-.5-.5v-1c0-.276,.224-.5,.5-.5h2.5v-2.5c0-.276,.224-.5,.5-.5h1c.276,0,.5,.224,.5,.5v2.5h2.5c.276,0,.5,.224,.5,.5v1c0,.276-.224,.5-.5,.5Z" fill="#61616b"></path></svg>