<svg xmlns="http://www.w3.org/2000/svg" height="24" width="24" viewBox="0 0 24 24"><path d="M5.991,7.405l.047-.05a7.534,7.534,0,0,1,1.541-1.19L2.707,1.293A1,1,0,0,0,1.293,2.707Z" fill="#61616b" data-color="color-2"></path><path d="M22.707,21.293l-4.875-4.876a7.511,7.511,0,0,1-1.187,1.544c-.015.015-.035.032-.051.047l4.7,4.7a1,1,0,0,0,1.414-1.414Z" fill="#61616b" data-color="color-2"></path><path d="M23.707,2.293l-2-2a1,1,0,0,0-1.414,0l-2,2a1,1,0,0,0,0,1.414L18.586,4,14.364,8.222a4.9,4.9,0,0,0-6.79.3,8.958,8.958,0,0,0-.729.846A2.025,2.025,0,0,1,6.5,11.754l-.719.719a2.033,2.033,0,0,1-2.875,0,2.186,2.186,0,0,1-.209-.256,3.805,3.805,0,0,0-.869.615c-2.731,2.732-2.22,6.4.36,8.983s6.251,3.091,8.983.36a3.805,3.805,0,0,0,.615-.869,2.186,2.186,0,0,1-.256-.209,2.033,2.033,0,0,1,0-2.875l.719-.719a2.025,2.025,0,0,1,2.387-.348,8.817,8.817,0,0,0,.846-.73,4.9,4.9,0,0,0,.3-6.789L20,5.414l.293.293a1,1,0,0,0,1.414,0l2-2A1,1,0,0,0,23.707,2.293ZM8.293,18.707l-3-3,1.414-1.414,3,3Z" fill="#61616b"></path></svg>