<svg xmlns="http://www.w3.org/2000/svg" height="24" width="24" viewBox="0 0 24 24"><path data-color="color-2" fill="#61616b" d="M18,0c-3.309,0-6,2.691-6,6s2.691,6,6,6s6-2.691,6-6S21.309,0,18,0z M21,7h-2v2h-2V7h-2V5h2 V3h2v2h2V7z"></path> <path fill="#61616b" d="M24,15H5V6h5V4H5V1c0-0.552-0.447-1-1-1L0,0v2h3v14c0,0.552,0.447,1,1,1h20V15z"></path> <circle data-color="color-2" fill="#61616b" cx="5.5" cy="21.5" r="2.5"></circle> <circle data-color="color-2" fill="#61616b" cx="20.5" cy="21.5" r="2.5"></circle></svg>