<svg xmlns="http://www.w3.org/2000/svg" height="24" width="24" viewBox="0 0 24 24"><path d="M10.5,22h3c.552,0,1-.448,1-1v-2h-5v2c0,.552,.448,1,1,1Z" fill="#61616b"></path><path d="M19,19v2c0,.552,.448,1,1,1h3c.552,0,1-.448,1-1v-2h-5Z" fill="#61616b"></path><path d="M1,22h3c.552,0,1-.448,1-1v-2H0v2c0,.552,.448,1,1,1Z" fill="#61616b"></path><path d="M5,7h6v5H5.5c-.276,0-.5-.224-.5-.5V7h0Z" fill="#61616b" data-color="color-2"></path><path d="M13,7h6v4.5c0,.276-.224,.5-.5,.5h-5.5V7h0Z" fill="#61616b" data-color="color-2"></path><path d="M5.5,0h5.5V5H5V.5c0-.276,.224-.5,.5-.5Z" fill="#61616b" data-color="color-2"></path><path d="M21,8v4c0,1.105-.895,2-2,2H5c-1.105,0-2-.895-2-2v-4L0,17H24l-3-9Z" fill="#61616b"></path><path d="M13,0h5.5c.276,0,.5,.224,.5,.5V5h-6V0h0Z" fill="#61616b" data-color="color-2"></path></svg>