<svg xmlns="http://www.w3.org/2000/svg" height="24" width="24" viewBox="0 0 24 24"><path d="M10.5,22h3c.552,0,1-.448,1-1v-2h-5v2c0,.552,.448,1,1,1Z" fill="#61616b" data-color="color-2"></path><path d="M19,19v2c0,.552,.448,1,1,1h3c.552,0,1-.448,1-1v-2h-5Z" fill="#61616b" data-color="color-2"></path><path d="M1,22h3c.552,0,1-.448,1-1v-2H0v2c0,.552,.448,1,1,1Z" fill="#61616b" data-color="color-2"></path><path d="M20.228,5.684c-.136-.408-.518-.684-.949-.684H4.721c-.43,0-.813,.275-.949,.684L0,17H24l-3.772-11.316Zm.997,9.316h-3.176l-1.333-8h1.843l2.667,8ZM12.792,7h1.897l1.333,8h-3.23V7Zm-2,8h-2.918l1.334-8h1.584V15ZM5.441,7h1.739l-1.334,8H2.775L5.441,7Z" fill="#61616b"></path></svg>