<svg xmlns="http://www.w3.org/2000/svg" height="24" width="24" viewBox="0 0 24 24"><path d="M22,8c-.552,0-1,.447-1,1v1H3v-1c0-.553-.448-1-1-1s-1,.447-1,1v13c0,.552,.448,1,1,1H22c.552,0,1-.448,1-1V9c0-.553-.448-1-1-1ZM5,20.5c0,.276-.224,.5-.5,.5h-1c-.276,0-.5-.224-.5-.5V12.5c0-.276,.224-.5,.5-.5h1c.276,0,.5,.224,.5,.5v8Zm4,0c0,.276-.224,.5-.5,.5h-1c-.276,0-.5-.224-.5-.5V12.5c0-.276,.224-.5,.5-.5h1c.276,0,.5,.224,.5,.5v8Zm4,0c0,.276-.224,.5-.5,.5h-1c-.276,0-.5-.224-.5-.5V12.5c0-.276,.224-.5,.5-.5h1c.276,0,.5,.224,.5,.5v8Zm4,0c0,.276-.224,.5-.5,.5h-1c-.276,0-.5-.224-.5-.5V12.5c0-.276,.224-.5,.5-.5h1c.276,0,.5,.224,.5,.5v8Zm4,0c0,.276-.224,.5-.5,.5h-1c-.276,0-.5-.224-.5-.5V12.5c0-.276,.224-.5,.5-.5h1c.276,0,.5,.224,.5,.5v8Z" fill="#61616b"></path><path d="M19,9c-.256,0-.512-.098-.707-.293L12,2.414l-6.293,6.293c-.391,.391-1.023,.391-1.414,0s-.391-1.023,0-1.414L11.293,.293c.391-.391,1.023-.391,1.414,0l7,7c.391,.391,.391,1.023,0,1.414-.195,.195-.451,.293-.707,.293Z" fill="#61616b" data-color="color-2"></path></svg>