<svg xmlns="http://www.w3.org/2000/svg" height="24" width="24" viewBox="0 0 24 24"><circle data-color="color-2" cx="6" cy="22" r="2" fill="#61616b"></circle><circle data-color="color-2" cx="20" cy="22" r="2" fill="#61616b"></circle><path d="M6,16c-.552,0-1-.448-1-1v-1h14c.459,0,.859-.312,.97-.757l2-8c.134-.536-.191-1.079-.727-1.213-.079-.02-.161-.03-.243-.03H5V1c0-.552-.448-1-1-1H1C.448,0,0,.448,0,1H0c0,.552,.448,1,1,1H3V15c0,1.657,1.343,3,3,3H22c.552,0,1-.448,1-1h0c0-.552-.448-1-1-1H6Z" fill="#61616b"></path></svg>