<svg xmlns="http://www.w3.org/2000/svg" height="24" width="24" viewBox="0 0 24 24"><path d="M22.586,6.91,12,2.1,1.414,6.91.586,5.09l11-5a1,1,0,0,1,.828,0l11,5Z" fill="#61616b" data-color="color-2"></path><path d="M16,6H13V9H11V6H8A1,1,0,0,0,7,7v6a1,1,0,0,0,1,1h8a1,1,0,0,0,1-1V7A1,1,0,0,0,16,6Z" fill="#61616b"></path><path d="M10,16H7v3H5V16H2a1,1,0,0,0-1,1v6a1,1,0,0,0,1,1h8a1,1,0,0,0,1-1V17A1,1,0,0,0,10,16Z" fill="#61616b"></path><path d="M22,16H19v3H17V16H14a1,1,0,0,0-1,1v6a1,1,0,0,0,1,1h8a1,1,0,0,0,1-1V17A1,1,0,0,0,22,16Z" fill="#61616b"></path></svg>