<svg xmlns="http://www.w3.org/2000/svg" height="24" width="24" viewBox="0 0 24 24"><path d="M15,10h-1c-1.105,0-2-.895-2-2V2c0-1.105,.895-2,2-2h8c1.105,0,2,.895,2,2v6c0,1.105-.895,2-2,2h-3l-4,3v-3Z" fill="#61616b" data-color="color-2"></path><path d="M21,22H1c-.552,0-1-.448-1-1V5c0-.552,.448-1,1-1H10v2H2v14H20V12h2v9c0,.552-.448,1-1,1Z" fill="#61616b"></path><circle cx="8" cy="11" r="2" fill="#61616b"></circle><path d="M8,14h0c1.76,0,3.254,1.136,3.789,2.715,.214,.633-.294,1.285-.962,1.285H5.173c-.668,0-1.177-.652-.962-1.285,.535-1.579,2.029-2.715,3.789-2.715Z" fill="#61616b"></path></svg>