<svg xmlns="http://www.w3.org/2000/svg" height="48" width="48" style="" viewBox="0 0 48 48"><g class="nc-icon-wrapper"><path d="M40 4H8C5.79086 4 4 5.79086 4 8V33C4 35.2091 5.79086 37 8 37H40C42.2091 37 44 35.2091 44 33V8C44 5.79086 42.2091 4 40 4Z" fill="url(#nc-ui-7-0_linear_219_66)"></path> <path d="M40 3H8C5.24 3.003 3.003 5.24 3 8V40C3.003 42.76 5.24 44.997 8 45H40C42.76 44.997 44.997 42.76 45 40V8C44.997 5.24 42.76 3.003 40 3ZM8 5H40C41.657 5 43 6.343 43 8V27H32C31.448 27 31 27.448 31 28V33H17V28C17 27.448 16.552 27 16 27H5V8C5 6.343 6.343 5 8 5Z" fill="url(#nc-ui-7-1_linear_219_66)"></path> <defs> <linearGradient id="nc-ui-7-0_linear_219_66" x1="24" y1="4" x2="24" y2="37" gradientUnits="userSpaceOnUse"> <stop stop-color="#674832"></stop> <stop offset="1" stop-color="#976545"></stop> </linearGradient> <linearGradient id="nc-ui-7-1_linear_219_66" x1="24" y1="3" x2="24" y2="45" gradientUnits="userSpaceOnUse"> <stop stop-color="#B88163"></stop> <stop offset="1" stop-color="#976545"></stop> </linearGradient> </defs></g></svg>