<svg xmlns="http://www.w3.org/2000/svg" height="48" width="48" style="" viewBox="0 0 48 48"><g class="nc-icon-wrapper"><path d="M45 31H32C31.448 31 31 30.552 31 30C31 29.448 31.448 29 32 29H45C45.552 29 46 29.448 46 30C46 30.552 45.552 31 45 31Z" fill="#674832"></path> <path d="M45 41H31C30.448 41 30 40.552 30 40C30 39.448 30.448 39 31 39H45C45.552 39 46 39.448 46 40C46 40.552 45.552 41 45 41Z" fill="#674832"></path> <path d="M45 36H31C30.448 36 30 35.552 30 35C30 34.448 30.448 34 31 34H45C45.552 34 46 34.448 46 35C46 35.552 45.552 36 45 36Z" fill="#674832"></path> <path d="M45 46H34C33.448 46 33 45.552 33 45C33 44.448 33.448 44 34 44H45C45.552 44 46 44.448 46 45C46 45.552 45.552 46 45 46Z" fill="#674832"></path> <path d="M27.517 46H3C2.448 46 2 45.552 2 45C2 29.813 10.243 20 23 20C25.76 20.003 27.997 22.24 28 25C27.944 25.725 27.786 26.438 27.532 27.119C24.978 32.707 25.295 39.187 28.382 44.499C28.658 44.977 28.494 45.589 28.016 45.865C27.864 45.953 27.692 46 27.517 46Z" fill="url(#nc-ui-1-0_linear_43_310)"></path> <path d="M42.445 1.33601C41.802 0.814005 40.858 0.913005 40.336 1.555L25.01 20.429C24.377 20.147 23.693 20.001 23 20C21.326 19.996 19.656 20.18 18.023 20.548C18.015 20.699 18 20.848 18 21C18.006 25.782 21.75 29.724 26.525 29.976C26.786 28.999 27.123 28.044 27.532 27.119C27.786 26.438 27.944 25.725 28 25C27.996 24.087 27.74 23.193 27.259 22.417L42.664 3.445C43.186 2.802 43.087 1.85801 42.445 1.33601Z" fill="url(#nc-ui-1-1_linear_43_310)"></path> <path d="M16.089 41.083C16.135 40.532 15.726 40.049 15.175 40.003C14.624 39.957 14.141 40.366 14.095 40.917C13.963 42.609 13.975 44.31 14.13 46H16.139C15.978 44.366 15.962 42.72 16.089 41.083Z" fill="#CEA897"></path> <path d="M8.41999 40.009C7.87299 39.936 7.36999 40.32 7.29599 40.867C7.06999 42.568 6.97599 44.284 7.01499 46H9.01499C8.97499 44.373 9.06299 42.746 9.27699 41.133C9.34999 40.586 8.96699 40.083 8.41999 40.009Z" fill="#CEA897"></path> <path d="M21.229 40C20.678 40.043 20.267 40.524 20.31 41.075C20.446 42.745 20.758 44.396 21.24 46H23.34C22.795 44.354 22.446 42.65 22.3 40.922C22.255 40.374 21.778 39.963 21.229 40Z" fill="#CEA897"></path> <defs> <linearGradient id="nc-ui-1-0_linear_43_310" x1="15.258" y1="20" x2="15.258" y2="46" gradientUnits="userSpaceOnUse"> <stop stop-color="#B88163"></stop> <stop offset="1" stop-color="#976545"></stop> </linearGradient> <linearGradient id="nc-ui-1-1_linear_43_310" x1="30.4996" y1="1.00089" x2="30.4996" y2="29.976" gradientUnits="userSpaceOnUse"> <stop stop-color="#976545"></stop> <stop offset="1" stop-color="#674832"></stop> </linearGradient> </defs></g></svg>