<svg xmlns="http://www.w3.org/2000/svg" height="48" width="48" viewBox="0 0 48 48"><g class="nc-icon-wrapper"><path fill="#E6E6E6" d="M43,3v32L31,47L7,47c-1.105,0-2-0.895-2-2V3c0-1.105,0.895-2,2-2h34C42.105,1,43,1.895,43,3z"></path> <path fill="#B3B3B3" d="M31,47V37c0-1.105,0.895-2,2-2h10L31,47z"></path> <path fill="#B3B3B3" d="M34,13H14c-0.552,0-1-0.448-1-1s0.448-1,1-1h20c0.552,0,1,0.448,1,1S34.552,13,34,13z"></path> <path fill="#B3B3B3" d="M34,23H14c-0.552,0-1-0.448-1-1s0.448-1,1-1h20c0.552,0,1,0.448,1,1S34.552,23,34,23z"></path> <path fill="#B3B3B3" d="M22,33h-8c-0.552,0-1-0.448-1-1s0.448-1,1-1h8c0.552,0,1,0.448,1,1S22.552,33,22,33z"></path></g></svg>