<svg xmlns="http://www.w3.org/2000/svg" height="48" width="48" style="" viewBox="0 0 48 48"><g class="nc-icon-wrapper"><path d="M41 43H7C4.24 42.997 2.003 40.76 2 38V30C2 29.448 2.448 29 3 29C3.552 29 4 29.448 4 30V38C4 39.657 5.343 41 7 41H41C42.657 41 44 39.657 44 38V30C44 29.448 44.448 29 45 29C45.552 29 46 29.448 46 30V38C45.997 40.76 43.76 42.997 41 43Z" fill="url(#nc-ui-2-0_linear_103_92)"></path><path d="M24 5C17.925 5 13 9.925 13 16C13 22.075 17.925 27 24 27C30.075 27 35 22.075 35 16C35 9.925 30.075 5 24 5Z" fill="url(#nc-ui-2-1_linear_103_92)"></path><path d="M31 17H25V23C25 23.552 24.552 24 24 24C23.448 24 23 23.552 23 23V17H17C16.448 17 16 16.552 16 16C16 15.448 16.448 15 17 15H23V9C23 8.448 23.448 8 24 8C24.552 8 25 8.448 25 9V15H31C31.552 15 32 15.448 32 16C32 16.552 31.552 17 31 17Z" fill="url(#nc-ui-2-2_linear_103_92)"></path><defs><linearGradient id="nc-ui-2-0_linear_103_92" x1="24" y1="29" x2="24" y2="43" gradientUnits="userSpaceOnUse"><stop stop-color="#C5DCE7"></stop><stop offset="1" stop-color="#80B0CB"></stop></linearGradient><linearGradient id="nc-ui-2-1_linear_103_92" x1="24" y1="5" x2="24" y2="27" gradientUnits="userSpaceOnUse"><stop stop-color="#4480A7"></stop><stop offset="1" stop-color="#32597C"></stop></linearGradient><linearGradient id="nc-ui-2-2_linear_103_92" x1="24" y1="8" x2="24" y2="24" gradientUnits="userSpaceOnUse"><stop stop-color="white"></stop><stop offset="1" stop-color="#C5DCE7"></stop></linearGradient></defs></g></svg>