<svg xmlns="http://www.w3.org/2000/svg" height="48" width="48" style="" viewBox="0 0 48 48"><g class="nc-icon-wrapper"><path d="M30 1H8C6.343 1 5 2.343 5 4V44C5 45.657 6.343 47 8 47H40C41.657 47 43 45.657 43 44V14L30 1Z" fill="url(#nc-file-edit-0_linear_235_136)"></path> <path d="M16.052 26.684C16.101 26.537 16.184 26.403 16.293 26.293L26.293 16.293C26.683 15.903 27.317 15.903 27.707 16.293L31.707 20.293C32.097 20.683 32.097 21.317 31.707 21.707L21.707 31.707C21.597 31.817 21.463 31.9 21.316 31.949L14 34L16.052 26.684Z" fill="url(#nc-file-edit-1_linear_235_136)"></path> <path d="M34 39H14C13.448 39 13 38.552 13 38C13 37.448 13.448 37 14 37H34C34.552 37 35 37.448 35 38C35 38.552 34.552 39 34 39Z" fill="url(#nc-file-edit-2_linear_235_136)"></path> <path d="M30 1V13C30 13.552 30.448 14 31 14H43L30 1Z" fill="url(#nc-file-edit-3_linear_235_136)"></path> <defs> <linearGradient id="nc-file-edit-0_linear_235_136" x1="24" y1="1" x2="24" y2="47" gradientUnits="userSpaceOnUse"> <stop stop-color="#F98E5E"></stop> <stop offset="1" stop-color="#EA6524"></stop> </linearGradient> <linearGradient id="nc-file-edit-1_linear_235_136" x1="22.9998" y1="16.0005" x2="22.9998" y2="34" gradientUnits="userSpaceOnUse"> <stop stop-color="white"></stop> <stop offset="1" stop-color="#FDDACE"></stop> </linearGradient> <linearGradient id="nc-file-edit-2_linear_235_136" x1="24" y1="37" x2="24" y2="39" gradientUnits="userSpaceOnUse"> <stop stop-color="white"></stop> <stop offset="1" stop-color="#FDDACE"></stop> </linearGradient> <linearGradient id="nc-file-edit-3_linear_235_136" x1="36.5" y1="1" x2="36.5" y2="14" gradientUnits="userSpaceOnUse"> <stop stop-color="#FDDACE"></stop> <stop offset="1" stop-color="#FBAE93"></stop> </linearGradient> </defs> </g></svg>