<svg xmlns="http://www.w3.org/2000/svg" height="48" width="48" style="" viewBox="0 0 48 48"><g class="nc-icon-wrapper"><path d="M30 1V14H43L30 1Z" fill="url(#nc-ui-3-0_linear_119_61)"></path> <path d="M43 14H30V1H8C6.343 1 5 2.343 5 4V44C5 45.657 6.343 47 8 47H40C41.657 47 43 45.657 43 44V14Z" fill="url(#nc-ui-3-1_linear_119_61)"></path> <path fill-rule="evenodd" clip-rule="evenodd" d="M13 16C13 15.4477 13.4477 15 14 15H22C22.5523 15 23 15.4477 23 16C23 16.5523 22.5523 17 22 17H14C13.4477 17 13 16.5523 13 16Z" fill="url(#nc-ui-3-2_linear_119_61)"></path> <path fill-rule="evenodd" clip-rule="evenodd" d="M13 26C13 25.4477 13.4477 25 14 25H34C34.5523 25 35 25.4477 35 26C35 26.5523 34.5523 27 34 27H14C13.4477 27 13 26.5523 13 26Z" fill="url(#nc-ui-3-3_linear_119_61)"></path> <path fill-rule="evenodd" clip-rule="evenodd" d="M13 36C13 35.4477 13.4477 35 14 35H34C34.5523 35 35 35.4477 35 36C35 36.5523 34.5523 37 34 37H14C13.4477 37 13 36.5523 13 36Z" fill="url(#nc-ui-3-4_linear_119_61)"></path> <defs> <linearGradient id="nc-ui-3-0_linear_119_61" x1="36.5" y1="1" x2="36.5" y2="14" gradientUnits="userSpaceOnUse"> <stop stop-color="#E0E0E6"></stop> <stop offset="1" stop-color="#C2C3CD"></stop> </linearGradient> <linearGradient id="nc-ui-3-1_linear_119_61" x1="24" y1="1" x2="24" y2="47" gradientUnits="userSpaceOnUse"> <stop stop-color="#E0E0E6"></stop> <stop offset="1" stop-color="#C2C3CD"></stop> </linearGradient> <linearGradient id="nc-ui-3-2_linear_119_61" x1="18" y1="15" x2="18" y2="37" gradientUnits="userSpaceOnUse"> <stop stop-color="#C2C3CD"></stop> <stop offset="1" stop-color="#A2A3B4"></stop> </linearGradient> <linearGradient id="nc-ui-3-3_linear_119_61" x1="24" y1="15" x2="24" y2="37" gradientUnits="userSpaceOnUse"> <stop stop-color="#C2C3CD"></stop> <stop offset="1" stop-color="#A2A3B4"></stop> </linearGradient> <linearGradient id="nc-ui-3-4_linear_119_61" x1="24" y1="15" x2="24" y2="37" gradientUnits="userSpaceOnUse"> <stop stop-color="#C2C3CD"></stop> <stop offset="1" stop-color="#A2A3B4"></stop> </linearGradient> </defs></g></svg>