<svg xmlns="http://www.w3.org/2000/svg" height="48" width="48" style="" viewBox="0 0 48 48"><g class="nc-icon-wrapper"><path d="M40 1H8C6.34315 1 5 2.34315 5 4V44C5 45.6569 6.34315 47 8 47H40C41.6569 47 43 45.6569 43 44V4C43 2.34315 41.6569 1 40 1Z" fill="url(#nc-ui-3-0_linear_119_71)"></path> <path d="M22 11H13C12.4477 11 12 11.4477 12 12V21C12 21.5523 12.4477 22 13 22H22C22.5523 22 23 21.5523 23 21V12C23 11.4477 22.5523 11 22 11Z" fill="url(#nc-ui-3-1_linear_119_71)"></path> <path d="M35 37H13C12.448 37 12 36.552 12 36C12 35.448 12.448 35 13 35H35C35.552 35 36 35.448 36 36C36 36.552 35.552 37 35 37Z" fill="url(#nc-ui-3-2_linear_119_71)"></path> <path d="M35 29H13C12.448 29 12 28.552 12 28C12 27.448 12.448 27 13 27H35C35.552 27 36 27.448 36 28C36 28.552 35.552 29 35 29Z" fill="url(#nc-ui-3-3_linear_119_71)"></path> <path d="M35 21H28C27.448 21 27 20.552 27 20C27 19.448 27.448 19 28 19H35C35.552 19 36 19.448 36 20C36 20.552 35.552 21 35 21Z" fill="url(#nc-ui-3-4_linear_119_71)"></path> <path d="M35 13H28C27.448 13 27 12.552 27 12C27 11.448 27.448 11 28 11H35C35.552 11 36 11.448 36 12C36 12.552 35.552 13 35 13Z" fill="url(#nc-ui-3-5_linear_119_71)"></path> <defs> <linearGradient id="nc-ui-3-0_linear_119_71" x1="24" y1="1" x2="24" y2="47" gradientUnits="userSpaceOnUse"> <stop stop-color="#E0E0E6"></stop> <stop offset="1" stop-color="#C2C3CD"></stop> </linearGradient> <linearGradient id="nc-ui-3-1_linear_119_71" x1="17.5" y1="11" x2="17.5" y2="37" gradientUnits="userSpaceOnUse"> <stop stop-color="#C2C3CD"></stop> <stop offset="1" stop-color="#A2A3B4"></stop> </linearGradient> <linearGradient id="nc-ui-3-2_linear_119_71" x1="24" y1="11" x2="24" y2="37" gradientUnits="userSpaceOnUse"> <stop stop-color="#C2C3CD"></stop> <stop offset="1" stop-color="#A2A3B4"></stop> </linearGradient> <linearGradient id="nc-ui-3-3_linear_119_71" x1="24" y1="11" x2="24" y2="37" gradientUnits="userSpaceOnUse"> <stop stop-color="#C2C3CD"></stop> <stop offset="1" stop-color="#A2A3B4"></stop> </linearGradient> <linearGradient id="nc-ui-3-4_linear_119_71" x1="31.5" y1="11" x2="31.5" y2="37" gradientUnits="userSpaceOnUse"> <stop stop-color="#C2C3CD"></stop> <stop offset="1" stop-color="#A2A3B4"></stop> </linearGradient> <linearGradient id="nc-ui-3-5_linear_119_71" x1="31.5" y1="11" x2="31.5" y2="36.5" gradientUnits="userSpaceOnUse"> <stop stop-color="#C2C3CD"></stop> <stop offset="1" stop-color="#A2A3B4"></stop> </linearGradient> </defs></g></svg>