<svg xmlns="http://www.w3.org/2000/svg" height="48" width="48" viewBox="0 0 48 48"><g class="nc-icon-wrapper"><path fill="#E6E6E6" d="M41,47H7c-1.105,0-2-0.895-2-2V3c0-1.105,0.895-2,2-2l24,0l12,12v32C43,46.105,42.105,47,41,47z"></path> <path fill="#B3B3B3" d="M31,1v10c0,1.105,0.895,2,2,2h10L31,1z"></path> <circle fill="#72C472" cx="24" cy="24" r="10"></circle> <path fill="#FFFFFF" d="M28,23h-3v-3c0-0.552-0.448-1-1-1s-1,0.448-1,1v3h-3c-0.552,0-1,0.448-1,1s0.448,1,1,1h3v3 c0,0.552,0.448,1,1,1s1-0.448,1-1v-3h3c0.552,0,1-0.448,1-1S28.552,23,28,23z"></path></g></svg>