<svg xmlns="http://www.w3.org/2000/svg" height="48" width="48" viewBox="0 0 48 48"><g class="nc-icon-wrapper"><path d="M11,13H47V42a2,2,0,0,1-2,2H13a2,2,0,0,1-2-2V13Z" fill="#185c37"></path><path d="M13,4H29V14H11V6A2,2,0,0,1,13,4Z" fill="#21a366"></path><path d="M29,4H45a2,2,0,0,1,2,2v8H29V4Z" fill="#33c481"></path><rect x="11" y="14" width="18" height="10" fill="#107c41"></rect><rect x="29" y="14" width="18" height="10" fill="#21a366"></rect><rect x="29" y="24" width="18" height="10" fill="#107c41"></rect><path d="M23,15H11V37H23a2,2,0,0,0,2-2V17A2,2,0,0,0,23,15Z" opacity="0.4" style="isolation:isolate"></path><rect x="1" y="13" width="22" height="22" rx="2" fill="#148349"></rect><polygon points="6.396 17.375 9.563 17.375 12.125 22.479 14.896 17.375 17.813 17.375 13.792 23.979 17.938 30.625 14.833 30.625 12 25.313 9.188 30.625 6.063 30.625 10.292 23.979 6.396 17.375" fill="#fff"></polygon></g></svg>