<svg xmlns="http://www.w3.org/2000/svg" height="48" width="48" viewBox="0 0 48 48"><g class="nc-icon-wrapper"><rect x="11" y="4" width="36" height="40" rx="2" fill="#ca64ea"></rect><rect x="36" y="14" width="11" height="10" fill="#ae4bd5"></rect><rect x="36" y="24" width="11" height="10" fill="#9332bf"></rect><path d="M36,34H47a0,0,0,0,1,0,0v8a2,2,0,0,1-2,2H36a0,0,0,0,1,0,0V34A0,0,0,0,1,36,34Z" fill="#7719aa"></path><path d="M23,15H11V37H23a2,2,0,0,0,2-2V17A2,2,0,0,0,23,15Z" opacity="0.6"></path><rect x="1" y="13" width="22" height="22" rx="2" fill="#7f20b0"></rect><polygon points="6.174 17 9.119 17 15.393 27.201 15.393 17 17.826 17 17.826 31 15.18 31 8.649 20.585 8.649 31 6.174 31 6.174 17" fill="#fff"></polygon></g></svg>