<svg xmlns="http://www.w3.org/2000/svg" height="48" width="48" style="" viewBox="0 0 48 48"><g class="nc-icon-wrapper"><path d="M42 46H6L10 41V3C10 2.448 10.448 2 11 2H45C45.552 2 46 2.448 46 3V42C46 44.209 44.209 46 42 46Z" fill="url(#nc-ui-4-0_linear_143_178)"></path> <path d="M38 10H18C17.4477 10 17 10.4477 17 11V19C17 19.5523 17.4477 20 18 20H38C38.5523 20 39 19.5523 39 19V11C39 10.4477 38.5523 10 38 10Z" fill="url(#nc-ui-4-1_linear_143_178)"></path> <path d="M38 26H18C17.448 26 17 26.448 17 27C17 27.552 17.448 28 18 28H38C38.552 28 39 27.552 39 27C39 26.448 38.552 26 38 26Z" fill="url(#nc-ui-4-2_linear_143_178)"></path> <path d="M38 34H18C17.448 34 17 34.448 17 35C17 35.552 17.448 36 18 36H38C38.552 36 39 35.552 39 35C39 34.448 38.552 34 38 34Z" fill="url(#nc-ui-4-3_linear_143_178)"></path> <path d="M3 24H10V42C10 44.208 8.208 46 6 46C3.792 46 2 44.208 2 42V25C2 24.448 2.448 24 3 24Z" fill="url(#nc-ui-4-4_linear_143_178)"></path> <defs> <linearGradient id="nc-ui-4-0_linear_143_178" x1="26" y1="2" x2="26" y2="46" gradientUnits="userSpaceOnUse"> <stop stop-color="#E0E0E6"></stop> <stop offset="1" stop-color="#C2C3CD"></stop> </linearGradient> <linearGradient id="nc-ui-4-1_linear_143_178" x1="28" y1="10" x2="28" y2="36" gradientUnits="userSpaceOnUse"> <stop stop-color="#C2C3CD"></stop> <stop offset="1" stop-color="#A2A3B4"></stop> </linearGradient> <linearGradient id="nc-ui-4-2_linear_143_178" x1="28" y1="10.5" x2="28" y2="36" gradientUnits="userSpaceOnUse"> <stop stop-color="#C2C3CD"></stop> <stop offset="1" stop-color="#A2A3B4"></stop> </linearGradient> <linearGradient id="nc-ui-4-3_linear_143_178" x1="28" y1="10" x2="28" y2="36" gradientUnits="userSpaceOnUse"> <stop stop-color="#C2C3CD"></stop> <stop offset="1" stop-color="#A2A3B4"></stop> </linearGradient> <linearGradient id="nc-ui-4-4_linear_143_178" x1="6" y1="24" x2="6" y2="46" gradientUnits="userSpaceOnUse"> <stop stop-color="#C2C3CD"></stop> <stop offset="1" stop-color="#A2A3B4"></stop> </linearGradient> </defs></g></svg>