<svg xmlns="http://www.w3.org/2000/svg" height="48" width="48" viewBox="0 0 48 48"><g class="nc-icon-wrapper"><path d="M44,8H4a3,3,0,0,0-3,3V37a3,3,0,0,0,3,3H44a3,3,0,0,0,3-3V11A3,3,0,0,0,44,8Z" fill="#ea9860"></path><path d="M15.335,21.959q0-2.954-4.074-2.953H7.986V29h2.7V25.363h.683L13.489,29h3.063L13.64,24.646A2.952,2.952,0,0,0,15.335,21.959Zm-4.143,1.374h-.505V21.05h.533q1.387,0,1.387,1.032Q12.607,23.333,11.192,23.333Z" fill="#444"></path><path d="M38.276,19.006,37.169,24.03q-.4,1.874-.485,2.632-.075-.588-.3-1.777t-.445-2.1l-.854-3.78h-2.5l-.882,3.78q-.2.786-.428,1.983t-.317,1.893q-.136-.984-.506-2.645l-1.087-5.011h-2.6L29.232,29h3.193q.875-3.931.994-4.484t.243-1.214c.082-.44.142-.807.178-1.1.046.365.117.818.216,1.361s.169.9.215,1.087L35.228,29H38.42l2.461-9.994Z" fill="#444"></path><path d="M23.8,18.965H20.2L16.94,29h2.967l.506-1.873H23.66L24.152,29h2.953Zm-2.83,5.947q.622-2.352.8-3.151t.244-1.149q.068.377.284,1.244t.365,1.415l.431,1.641Z" fill="#444"></path></g></svg>