<svg xmlns="http://www.w3.org/2000/svg" height="48" width="48" style="" viewBox="0 0 48 48"><g class="nc-icon-wrapper"><path d="M39 6H5C3.34315 6 2 7.34315 2 9V43C2 44.6569 3.34315 46 5 46H39C40.6569 46 42 44.6569 42 43V9C42 7.34315 40.6569 6 39 6Z" fill="url(#nc-ui-1-0_linear_43_205)"></path><path d="M30 9C30 13.971 34.029 18 39 18C43.971 18 48 13.971 48 9C48 4.029 43.971 0 39 0C34.029 0 30 4.029 30 9Z" fill="url(#nc-ui-1-1_linear_43_205)"></path><path d="M40 4V8H44C44.552 8 45 8.448 45 9C45 9.552 44.552 10 44 10H40V14C40 14.552 39.552 15 39 15C38.448 15 38 14.552 38 14V10H34C33.448 10 33 9.552 33 9C33 8.448 33.448 8 34 8H38V4C38 3.448 38.448 3 39 3C39.552 3 40 3.448 40 4Z" fill="url(#nc-ui-1-2_linear_43_205)"></path><path d="M39 36H5C4.44772 36 4 36.4477 4 37V43C4 43.5523 4.44772 44 5 44H39C39.5523 44 40 43.5523 40 43V37C40 36.4477 39.5523 36 39 36Z" fill="url(#nc-ui-1-3_linear_43_205)"></path><defs><linearGradient id="nc-ui-1-0_linear_43_205" x1="22" y1="6" x2="22" y2="46" gradientUnits="userSpaceOnUse"><stop stop-color="#DEF2FD"></stop><stop offset="1" stop-color="#9ED9FA"></stop></linearGradient><linearGradient id="nc-ui-1-1_linear_43_205" x1="39" y1="0" x2="39" y2="18" gradientUnits="userSpaceOnUse"><stop stop-color="#60BEF6"></stop><stop offset="1" stop-color="#29A0EA"></stop></linearGradient><linearGradient id="nc-ui-1-2_linear_43_205" x1="39" y1="3" x2="39" y2="15" gradientUnits="userSpaceOnUse"><stop stop-color="white"></stop><stop offset="1" stop-color="#DEF2FD"></stop></linearGradient><linearGradient id="nc-ui-1-3_linear_43_205" x1="22" y1="36" x2="22" y2="44" gradientUnits="userSpaceOnUse"><stop stop-color="#60BEF6"></stop><stop offset="1" stop-color="#29A0EA"></stop></linearGradient></defs></g></svg>