<svg xmlns="http://www.w3.org/2000/svg" height="48" width="48" viewBox="0 0 48 48"><path d="M40,17A8.964,8.964,0,0,1,31.15,6.4,19.019,19.019,0,1,0,41.6,16.85,9.034,9.034,0,0,1,40,17Z" fill="#c64692"></path><path d="M16.08,19.063h-.048L13.175,20.5l-.5-2.232L16.464,16.4h2.472V32H16.08Z" fill="#fff"></path><path d="M22.884,27.992a4.307,4.307,0,0,1,2.928-4.056v-.073a3.8,3.8,0,0,1-2.376-3.456c0-2.544,2.255-4.272,5.208-4.272,3.36,0,4.9,2.016,4.9,3.936a3.9,3.9,0,0,1-2.4,3.528v.072a4.193,4.193,0,0,1,2.975,3.936c0,2.785-2.351,4.657-5.688,4.657C24.779,32.264,22.884,30.176,22.884,27.992Zm8.232-.144c0-1.584-1.176-2.449-2.9-2.929a2.853,2.853,0,0,0-2.3,2.737,2.457,2.457,0,0,0,2.617,2.52A2.36,2.36,0,0,0,31.116,27.848Zm-4.872-7.561c0,1.272,1.056,2.04,2.544,2.448a2.531,2.531,0,0,0,1.944-2.352A2.09,2.09,0,0,0,28.5,18.175,2.068,2.068,0,0,0,26.244,20.287Z" fill="#fff"></path><path d="M40,1a7,7,0,1,0,7,7A7,7,0,0,0,40,1Z" fill="#444"></path><path d="M44,9H41v3H39V9H36V7h3V4h2V7h3Z" fill="#fff"></path><path d="M43.518,16.286a21.044,21.044,0,1,1-11.8-11.8,9.027,9.027,0,0,1,1.01-1.765A22.995,22.995,0,1,0,45.283,15.276,9.027,9.027,0,0,1,43.518,16.286Z" fill="#c64692"></path></svg>