<svg xmlns="http://www.w3.org/2000/svg" height="48" width="48" viewBox="0 0 48 48"><path fill="#444444" d="M7,43c-0.15234,0-0.30566-0.03516-0.44727-0.10547C6.21387,42.72461,6,42.37891,6,42V6 c0-0.37891,0.21387-0.72461,0.55273-0.89453C6.8916,4.93652,7.29639,4.97168,7.6001,5.2002l24,18 C31.85205,23.38867,32,23.68555,32,24s-0.14795,0.61133-0.3999,0.7998l-24,18C7.42334,42.93262,7.2124,43,7,43z"></path> <path fill="#444444" d="M40,43L40,43c-1.10458,0-2-0.89543-2-2V7c0-1.10457,0.89543-2,2-2H40c1.10457,0,2,0.89543,2,2V41 C42,42.10457,41.10457,43,40,43z"></path></svg>