<svg xmlns="http://www.w3.org/2000/svg" height="48" width="48" viewBox="0 0 48 48"><path fill="#C6C6C6" d="M46,45H2c-0.55228,0-1-0.44772-1-1V4c0-0.55228,0.44772-1,1-1h44c0.55228,0,1,0.44772,1,1v40 C47,44.55228,46.55228,45,46,45z M3,43h42V5H3V43z"></path> <path fill="#72C472" d="M20,31h-4c-0.55229,0-1-0.44772-1-1V18c0-0.55228,0.44771-1,1-1h4c0.55228,0,1,0.44771,1,1v0 c0,0.55228-0.44771,1-1,1h-3v10h3c0.55228,0,1,0.44771,1,1v0C21,30.55229,20.55229,31,20,31z"></path> <path fill="#72C472" d="M32,31h-4c-0.55228,0-1-0.44771-1-1v0c0-0.55228,0.44771-1,1-1h3V19h-3c-0.55228,0-1-0.44771-1-1v0 c0-0.55228,0.44771-1,1-1h4c0.55228,0,1,0.44772,1,1v12C33,30.55228,32.55228,31,32,31z"></path></svg>