<svg xmlns="http://www.w3.org/2000/svg" height="48" width="48" viewBox="0 0 48 48"><path fill="#72C472" d="M20,31h-4c-0.55229,0-1-0.44772-1-1V18c0-0.55228,0.44771-1,1-1h4c0.55228,0,1,0.44771,1,1v0 c0,0.55228-0.44771,1-1,1h-3v10h3c0.55228,0,1,0.44771,1,1v0C21,30.55229,20.55229,31,20,31z"></path> <path fill="#72C472" d="M33,30c0,0.55228-0.44772,1-1,1h-4c-0.55228,0-1-0.44771-1-1v0c0-0.55228,0.44771-1,1-1h3V19h-3 c-0.55228,0-1-0.44771-1-1v0c0-0.55228,0.44771-1,1-1h4c0.55228,0,1,0.44772,1,1V30z"></path> <path fill="#C6C6C6" d="M24,47C11.31738,47,1,36.68213,1,24S11.31738,1,24,1s23,10.31787,23,23S36.68262,47,24,47z M24,3 C12.4209,3,3,12.42041,3,24s9.4209,21,21,21s21-9.42041,21-21S35.5791,3,24,3z"></path></svg>