<svg xmlns="http://www.w3.org/2000/svg" height="48" width="48" viewBox="0 0 48 48"><path d="M13.3,39.705l-5-5a.987.987,0,0,0-.8-.289,1,1,0,0,0-.731.425L2.18,41.429a1,1,0,0,0,.113,1.278l3,3a1,1,0,0,0,1.278.113l6.588-4.588a1,1,0,0,0,.136-1.527Z" fill="#e2ac4b"></path><path d="M46.129,17.658,30.342,1.871a1.143,1.143,0,0,0-1.939,1A14.969,14.969,0,0,1,24.47,15.94L6.293,34.117a1,1,0,0,0,0,1.414l6.176,6.176a1,1,0,0,0,1.414,0L32.06,23.53A14.964,14.964,0,0,1,45.131,19.6a1.144,1.144,0,0,0,1-1.94Z" fill="#ffd764"></path><circle cx="17" cy="31" r="1.25" fill="#e2ac4b"></circle><circle cx="21" cy="27" r="1.25" fill="#e2ac4b"></circle><circle cx="25" cy="23" r="1.25" fill="#e2ac4b"></circle></svg>