<svg xmlns="http://www.w3.org/2000/svg" height="48" width="48" viewBox="0 0 48 48"><path fill="#CE544E" d="M13,9H7V6c0-0.55228,0.44772-1,1-1h4c0.55229,0,1,0.44772,1,1V9z"></path> <path fill="#E86C60" d="M43,45H5c-2.20914,0-4-1.79086-4-4V13c0-2.20914,1.79086-4,4-4h38c2.20914,0,4,1.79086,4,4v28 C47,43.20914,45.20914,45,43,45z"></path> <circle fill="#999999" cx="30" cy="28" r="8"></circle> <path fill="#FFFFFF" d="M30,37c-4.96289,0-9-4.0376-9-9s4.03711-9,9-9s9,4.0376,9,9S34.96289,37,30,37z M30,21 c-3.85938,0-7,3.14014-7,7s3.14062,7,7,7s7-3.14014,7-7S33.85938,21,30,21z"></path> <path fill="#CE544E" d="M14,41H6c-0.55228,0-1-0.44772-1-1V14c0-0.55229,0.44772-1,1-1h8c0.55229,0,1,0.44771,1,1v26 C15,40.55228,14.55229,41,14,41z"></path> <circle fill="#666666" cx="30" cy="28" r="3"></circle> <path fill="#FFFFFF" d="M43,15h-6c-0.55228,0-1-0.44771-1-1v-1c0-0.55229,0.44772-1,1-1h6c0.55228,0,1,0.44771,1,1v1 C44,14.55229,43.55228,15,43,15z"></path></svg>