<svg xmlns="http://www.w3.org/2000/svg" height="48" width="48" viewBox="0 0 48 48"><rect x="2" y="21" width="44" height="19" fill="#e6e6e6"></rect><path d="M45,7H3A2,2,0,0,0,1,9V39a2,2,0,0,0,2,2H45a2,2,0,0,0,2-2V9A2,2,0,0,0,45,7Zm0,32H3V23H7V33H9V23h4V33h2V23h5V33h2V23h4V33h2V23h5V33h2V23h4V33h2V23h4Z" fill="#444"></path><path d="M40,16H28a1,1,0,0,1,0-2H40a1,1,0,0,1,0,2Z" fill="#696969"></path><path d="M8,17a2,2,0,1,1,2-2A2,2,0,0,1,8,17Zm0-2v0Z" fill="#696969"></path><path d="M16,17a2,2,0,1,1,2-2A2,2,0,0,1,16,17Zm0-2v0Z" fill="#696969"></path></svg>