<svg xmlns="http://www.w3.org/2000/svg" height="48" width="48" viewBox="0 0 48 48"><path d="M16,3C8.82,3,3,11.059,3,21V44a1,1,0,0,0,1,1H8a1,1,0,0,0,1-1V21a18.65,18.65,0,0,1,.146-2.311,1,1,0,0,1,1.829-.422A6,6,0,0,0,22,15V9A6,6,0,0,0,16,3Z" fill="#e6e6e6"></path><rect x="14" y="8" width="4" height="8" rx="2" fill="#444"></rect><path d="M32,3c7.18,0,13,8.059,13,18V44a1,1,0,0,1-1,1H40a1,1,0,0,1-1-1V21a18.65,18.65,0,0,0-.146-2.311,1,1,0,0,0-1.829-.422A6,6,0,0,1,26,15V9A6,6,0,0,1,32,3Z" fill="#e6e6e6"></path><rect x="30" y="8" width="4" height="8" rx="2" transform="translate(64 24) rotate(-180)" fill="#444"></rect><path d="M3,43H9a0,0,0,0,1,0,0v1a1,1,0,0,1-1,1H4a1,1,0,0,1-1-1V43A0,0,0,0,1,3,43Z" fill="#b3b3b3"></path><path d="M39,43h6a0,0,0,0,1,0,0v1a1,1,0,0,1-1,1H40a1,1,0,0,1-1-1V43A0,0,0,0,1,39,43Z" fill="#b3b3b3"></path></svg>