<svg xmlns="http://www.w3.org/2000/svg" height="48" width="48" viewBox="0 0 48 48"><path d="M4,13a1,1,0,0,1-1-1V4A1,1,0,0,1,4,3h8a1,1,0,0,1,0,2H5v7A1,1,0,0,1,4,13Z" fill="#72c472"></path><path d="M44,13a1,1,0,0,1-1-1V5H36a1,1,0,0,1,0-2h8a1,1,0,0,1,1,1v8A1,1,0,0,1,44,13Z" fill="#72c472"></path><path d="M12,45H4a1,1,0,0,1-1-1V36a1,1,0,0,1,2,0v7h7a1,1,0,0,1,0,2Z" fill="#72c472"></path><path d="M44,45H36a1,1,0,0,1,0-2h7V36a1,1,0,0,1,2,0v8A1,1,0,0,1,44,45Z" fill="#72c472"></path><path d="M31.725,34.908a4,4,0,0,1-2.735-3.781l-.006-.974A13.576,13.576,0,0,0,34,20V18.342a10.227,10.227,0,0,0-9.335-10.32A10,10,0,0,0,14,18v2a13.559,13.559,0,0,0,5,10.153v.964a4,4,0,0,1-2.735,3.795l-5.581,1.86a1,1,0,0,0-.684.949V38a1,1,0,0,0,1,1H37a1,1,0,0,0,1-1v-.279a1,1,0,0,0-.684-.949Z" fill="#335262"></path><path d="M24,32c-5.539,0-10-6.564-10-12V18a10,10,0,0,1,20,0v2C34,25.436,29.539,32,24,32Z" fill="#5a7a84"></path></svg>