<svg xmlns="http://www.w3.org/2000/svg" height="48" width="48" viewBox="0 0 48 48"><polygon points="44 27 4 27 1 23 5 19 43 19 47 23 44 27" fill="#458bc4"></polygon> <path d="M41,47H7a2,2,0,0,1-2-2V3A2,2,0,0,1,7,1H31L43,13V45A2,2,0,0,1,41,47Z" fill="#e6e6e6"></path> <path d="M31,1V11a2,2,0,0,0,2,2H43Z" fill="#b3b3b3"></path> <path d="M1,23H47a0,0,0,0,1,0,0V39a2,2,0,0,1-2,2H3a2,2,0,0,1-2-2V23A0,0,0,0,1,1,23Z" fill="#43a6dd"></path> <path d="M18.812,28.147h2.374L18.613,36h-2.5l-2.562-7.853h2.385l1.069,3.98a12.1,12.1,0,0,1,.365,1.848c.024-.25.075-.564.15-.94s.142-.672.2-.887Z" fill="#fff"></path> <path d="M26.443,28.147h2.375L26.246,36h-2.5l-2.562-7.853H23.57l1.069,3.98A12.226,12.226,0,0,1,25,33.975c.025-.25.076-.564.15-.94s.143-.672.2-.887Z" fill="#fff"></path> <path d="M33.131,36H31.01V29.883H29.092V28.147h5.951v1.736H33.131Z" fill="#fff"></path></svg>