<svg xmlns="http://www.w3.org/2000/svg" height="48" width="48" viewBox="0 0 48 48"><path d="M44.335,8.718A1,1,0,0,0,45,7.775V4a1,1,0,0,0-1-1H40.225a1,1,0,0,0-.943.665,3.474,3.474,0,0,1-6.564,0A1,1,0,0,0,31.775,3h-3.55a1,1,0,0,0-.943.665,3.474,3.474,0,0,1-6.564,0A1,1,0,0,0,19.775,3h-3.55a1,1,0,0,0-.943.665,3.474,3.474,0,0,1-6.564,0A1,1,0,0,0,7.775,3H4A1,1,0,0,0,3,4V7.775a1,1,0,0,0,.665.943,3.474,3.474,0,0,1,0,6.564A1,1,0,0,0,3,16.225v3.55a1,1,0,0,0,.665.943,3.474,3.474,0,0,1,0,6.564A1,1,0,0,0,3,28.225v3.55a1,1,0,0,0,.665.943,3.474,3.474,0,0,1,0,6.564A1,1,0,0,0,3,40.225V44a1,1,0,0,0,1,1H7.775a1,1,0,0,0,.943-.665,3.474,3.474,0,0,1,6.564,0,1,1,0,0,0,.943.665h3.55a1,1,0,0,0,.943-.665,3.474,3.474,0,0,1,6.564,0,1,1,0,0,0,.943.665h3.55a1,1,0,0,0,.943-.665,3.474,3.474,0,0,1,6.564,0,1,1,0,0,0,.943.665H44a1,1,0,0,0,1-1V40.225a1,1,0,0,0-.665-.943,3.474,3.474,0,0,1,0-6.564A1,1,0,0,0,45,31.775v-3.55a1,1,0,0,0-.665-.943,3.474,3.474,0,0,1,0-6.564A1,1,0,0,0,45,19.775v-3.55a1,1,0,0,0-.665-.943,3.474,3.474,0,0,1,0-6.564Z" fill="#b3b3b3"></path><rect x="12" y="12" width="24" height="24" rx="1" fill="#444"></rect></svg>