<svg xmlns="http://www.w3.org/2000/svg" height="48" width="48" style="" viewBox="0 0 48 48"><path d="M42 5H6C3.239 5 1 7.239 1 10V38C1 40.761 3.239 43 6 43H42C44.761 43 47 40.761 47 38V10C47 7.239 44.761 5 42 5Z" fill="url(#nc-ui-2-0_linear_103_83)"></path> <path d="M16 37H8C7.448 37 7 36.552 7 36V28C7 27.448 7.448 27 8 27C8.552 27 9 27.448 9 28V35H16C16.552 35 17 35.448 17 36C17 36.552 16.552 37 16 37Z" fill="url(#nc-ui-2-1_linear_103_83)"></path> <path d="M41 20C41 20.552 40.552 21 40 21C39.448 21 39 20.552 39 20V13H32C31.448 13 31 12.552 31 12C31 11.448 31.448 11 32 11H40C40.552 11 41 11.448 41 12V20Z" fill="url(#nc-ui-2-2_linear_103_83)"></path> <defs> <linearGradient id="nc-ui-2-0_linear_103_83" x1="24" y1="5" x2="24" y2="43" gradientUnits="userSpaceOnUse"> <stop stop-color="#344EEA"></stop> <stop offset="1" stop-color="#2138BB"></stop> </linearGradient> <linearGradient id="nc-ui-2-1_linear_103_83" x1="12" y1="27" x2="12" y2="37" gradientUnits="userSpaceOnUse"> <stop stop-color="#D0D8FB"></stop> <stop offset="1" stop-color="#8192F3"></stop> </linearGradient> <linearGradient id="nc-ui-2-2_linear_103_83" x1="36" y1="11" x2="36" y2="21" gradientUnits="userSpaceOnUse"> <stop stop-color="#D0D8FB"></stop> <stop offset="1" stop-color="#8192F3"></stop> </linearGradient> </defs> </svg>