<svg xmlns="http://www.w3.org/2000/svg" height="48" width="48" style="" viewBox="0 0 48 48"><path d="M40 3H8C5.23858 3 3 5.23858 3 8V40C3 42.7614 5.23858 45 8 45H40C42.7614 45 45 42.7614 45 40V8C45 5.23858 42.7614 3 40 3Z" fill="url(#nc-img-0_linear_235_37)"></path> <path d="M18 18C20.2091 18 22 16.2091 22 14C22 11.7909 20.2091 10 18 10C15.7909 10 14 11.7909 14 14C14 16.2091 15.7909 18 18 18Z" fill="url(#nc-img-1_linear_235_37)"></path> <path d="M39.863 36.505C39.684 36.812 39.355 37 39 37H9C8.448 37 8 36.552 8 36C8 35.802 8.058 35.609 8.168 35.445L14.168 26.445C14.474 25.986 15.095 25.861 15.555 26.168C15.61 26.205 15.66 26.247 15.707 26.293L20.86 31.445L29.178 19.431C29.372 19.145 29.701 18.982 30.046 19.001C30.391 19.017 30.703 19.209 30.872 19.51L39.872 35.51C40.046 35.82 40.043 36.198 39.863 36.505Z" fill="url(#nc-img-2_linear_235_37)"></path> <defs> <linearGradient id="nc-img-0_linear_235_37" x1="24" y1="3" x2="24" y2="45" gradientUnits="userSpaceOnUse"> <stop stop-color="#60BEF6"></stop> <stop offset="1" stop-color="#29A0EA"></stop> </linearGradient> <linearGradient id="nc-img-1_linear_235_37" x1="18" y1="10" x2="18" y2="18" gradientUnits="userSpaceOnUse"> <stop stop-color="white"></stop> <stop offset="1" stop-color="#DEF2FD"></stop> </linearGradient> <linearGradient id="nc-img-2_linear_235_37" x1="24.0001" y1="18.9995" x2="24.0001" y2="37" gradientUnits="userSpaceOnUse"> <stop stop-color="#DEF2FD"></stop> <stop offset="1" stop-color="#9ED9FA"></stop> </linearGradient> </defs> </svg>