<svg xmlns="http://www.w3.org/2000/svg" height="48" width="48" viewBox="0 0 48 48"><rect x="31" y="41" width="16" height="2" rx="1" fill="#82adb2"></rect><path d="M24,43H2a1,1,0,0,1,0-2H24a1,1,0,0,1,0,2Z" fill="#335262"></path><path d="M38,33H12A11,11,0,0,1,9.014,11.418,15.984,15.984,0,0,1,39.882,15.2,9,9,0,0,1,38,33Z" fill="#47b0ea"></path><path d="M21,24a1,1,0,0,1-1-1V13a1,1,0,0,1,1.53-.848l8,5a1,1,0,0,1,0,1.7l-8,5A1,1,0,0,1,21,24Z" fill="#fff"></path><circle cx="28" cy="42" r="5" fill="#335262"></circle></svg>