<svg xmlns="http://www.w3.org/2000/svg" height="48" width="48" style="" viewBox="0 0 48 48"> <path d="M24 33C30.065 33 35 28.065 35 22V12C35 5.935 30.065 1 24 1C17.935 1 13 5.935 13 12V22C13 28.065 17.935 33 24 33Z" fill="url(#nc-microphone-0_linear_235_2)"></path> <path d="M41 22C41 21.447 40.552 21 40 21C39.448 21 39 21.447 39 22C39 30.271 32.271 37 24 37C15.729 37 9 30.271 9 22C9 21.447 8.552 21 8 21C7.448 21 7 21.447 7 22C7 30.693 13.57 37.845 22 38.841V45H14C13.448 45 13 45.447 13 46C13 46.553 13.448 47 14 47H34C34.552 47 35 46.553 35 46C35 45.447 34.552 45 34 45H26V38.841C34.43 37.845 41 30.693 41 22Z" fill="url(#nc-microphone-1_linear_235_2)"></path> <defs> <linearGradient id="nc-microphone-0_linear_235_2" x1="24" y1="1" x2="24" y2="33" gradientUnits="userSpaceOnUse"> <stop stop-color="#C2C3CD"></stop> <stop offset="1" stop-color="#A2A3B4"></stop> </linearGradient> <linearGradient id="nc-microphone-1_linear_235_2" x1="24" y1="21" x2="24" y2="47" gradientUnits="userSpaceOnUse"> <stop stop-color="#5B5E71"></stop> <stop offset="1" stop-color="#393A46"></stop> </linearGradient> </defs> </svg>