<svg xmlns="http://www.w3.org/2000/svg" height="48" width="48" viewBox="0 0 48 48"><path d="M24,34A11.013,11.013,0,0,1,13,23V12a11,11,0,0,1,22,0V23A11.013,11.013,0,0,1,24,34Z" fill="#c6c6c6"></path><path d="M34,45H25V38a1,1,0,0,0-2,0v7H14a1,1,0,0,0,0,2H34a1,1,0,0,0,0-2Z" fill="#999"></path><path d="M24,39A16.019,16.019,0,0,1,8,23a1,1,0,0,1,2,0,14,14,0,0,0,28,0,1,1,0,0,1,2,0A16.019,16.019,0,0,1,24,39Z" fill="#999"></path><path d="M18,14H13V12h5a1,1,0,0,1,1,1h0A1,1,0,0,1,18,14Z" fill="#999"></path><path d="M30,14h5V12H30a1,1,0,0,0-1,1h0A1,1,0,0,0,30,14Z" fill="#999"></path><path d="M18,23H13V21h5a1,1,0,0,1,1,1h0A1,1,0,0,1,18,23Z" fill="#999"></path><path d="M30,21h5v2H30a1,1,0,0,1-1-1h0A1,1,0,0,1,30,21Z" fill="#999"></path><path d="M6,43a1,1,0,0,1-.707-1.707l36-36a1,1,0,1,1,1.414,1.414l-36,36A1,1,0,0,1,6,43Z" fill="#7f67ff"></path><path d="M6,43a1,1,0,0,1-.707-1.707l36-36a1,1,0,1,1,1.414,1.414l-36,36A1,1,0,0,1,6,43Z" fill="#ed7064"></path></svg>