<svg xmlns="http://www.w3.org/2000/svg" height="48" width="48" viewBox="0 0 48 48"><rect x="10" y="2" fill="#C19F85" width="28" height="44"></rect> <path fill="#87613E" d="M47,2c0-0.55273-0.44775-1-1-1s-1,0.44727-1,1v4c0,0.55228-0.44772,1-1,1h-4c-0.55228,0-1-0.44772-1-1V2 c0-0.55228-0.44772-1-1-1H10C9.44771,1,9,1.44772,9,2v4c0,0.55228-0.44771,1-1,1H4C3.44772,7,3,6.55228,3,6V2 c0-0.55273-0.44775-1-1-1S1,1.44727,1,2v44c0,0.55273,0.44775,1,1,1s1-0.44727,1-1v-4c0-0.55228,0.44772-1,1-1h4 c0.55229,0,1,0.44772,1,1v4c0,0.55228,0.44771,1,1,1h28c0.55228,0,1-0.44772,1-1v-5h6v5c0,0.55273,0.44775,1,1,1s1-0.44727,1-1V2z M40,25h4c0.55228,0,1,0.44772,1,1v4c0,0.55228-0.44772,1-1,1h-4c-0.55228,0-1-0.44772-1-1v-4C39,25.44772,39.44772,25,40,25z M40,17h4c0.55228,0,1,0.44772,1,1v4c0,0.55228-0.44772,1-1,1h-4c-0.55228,0-1-0.44772-1-1v-4C39,17.44772,39.44772,17,40,17z M45,10v4c0,0.55229-0.44772,1-1,1h-4c-0.55228,0-1-0.44771-1-1v-4c0-0.55229,0.44772-1,1-1h4C44.55228,9,45,9.44771,45,10z M11,3 h26v20H11V3z M8,31H4c-0.55228,0-1-0.44772-1-1v-4c0-0.55228,0.44772-1,1-1h4c0.55229,0,1,0.44772,1,1v4C9,30.55228,8.55229,31,8,31 z M3,22v-4c0-0.55228,0.44772-1,1-1h4c0.55229,0,1,0.44772,1,1v4c0,0.55228-0.44771,1-1,1H4C3.44772,23,3,22.55228,3,22z M9,10v4 c0,0.55229-0.44771,1-1,1H4c-0.55228,0-1-0.44771-1-1v-4c0-0.55229,0.44772-1,1-1h4C8.55229,9,9,9.44771,9,10z M3,38v-4 c0-0.55228,0.44772-1,1-1h4c0.55229,0,1,0.44772,1,1v4c0,0.55228-0.44771,1-1,1H4C3.44772,39,3,38.55228,3,38z M37,45H11V25h26V45z M39,38v-4c0-0.55228,0.44772-1,1-1h4c0.55228,0,1,0.44772,1,1v4c0,0.55228-0.44772,1-1,1h-4C39.44772,39,39,38.55228,39,38z"></path></svg>