<svg xmlns="http://www.w3.org/2000/svg" height="48" width="48" viewBox="0 0 48 48"><circle fill="#EA9860" cx="18" cy="40" r="7"></circle> <rect x="21" y="4" fill="#EA9860" width="4" height="35"></rect> <rect x="21" y="5" fill="#EA9860" width="4" height="35"></rect> <path fill="#EA9860" d="M41,32c-1.10449,0-2-0.89551-2-2c0-3.85986-3.14014-7-7-7c-6.06543,0-11-4.93457-11-11V4 c0-1.10449,0.89551-2,2-2s2,0.89551,2,2c0,3.85986,3.14014,7,7,7c6.06543,0,11,4.93457,11,11v8C43,31.10449,42.10449,32,41,32z M25.01709,12.49316C25.271,16.12402,28.30615,19,32,19c2.64893,0,5.08203,0.94141,6.98291,2.50684 C38.729,17.87598,35.69385,15,32,15C29.35107,15,26.91797,14.05859,25.01709,12.49316z"></path></svg>