<svg xmlns="http://www.w3.org/2000/svg" height="48" width="48" style="" viewBox="0 0 48 48"><path d="M38.9 21C37.859 13.007 31.06 7.021 23 7C14.738 6.968 7.82703 13.27 7.10003 21.5C2.39903 23.094 -0.11997 28.197 1.47403 32.898C2.71203 36.551 6.14303 39.006 10 39H38C42.95 39.02 46.98 35.024 47 30.074C47 30.049 47 30.025 47 30C46.98 25.377 43.495 21.505 38.9 21Z" fill="url(#nc-ui-1-0_linear_43_119)"></path> <path opacity="0.15" d="M35.257 12.743L9.05396 38.946C9.36596 38.978 9.68096 39.001 9.99996 39H13.242L36.993 15.249C36.494 14.355 35.91 13.519 35.257 12.743Z" fill="black"></path> <path d="M4 45C3.448 45 3 44.552 3 44C3 43.735 3.105 43.481 3.293 43.293L43.293 3.29299C43.677 2.89599 44.31 2.88499 44.707 3.26799C45.104 3.65099 45.115 4.28499 44.732 4.68199C44.724 4.68999 44.716 4.69799 44.707 4.70699L4.707 44.707C4.52 44.895 4.265 45 4 45Z" fill="url(#nc-ui-1-1_linear_43_119)"></path> <defs> <linearGradient id="nc-ui-1-0_linear_43_119" x1="23.9978" y1="6.99988" x2="23.9978" y2="39.0001" gradientUnits="userSpaceOnUse"> <stop stop-color="#E0E0E6"></stop> <stop offset="1" stop-color="#C2C3CD"></stop> </linearGradient> <linearGradient id="nc-ui-1-1_linear_43_119" x1="24.0061" y1="2.98784" x2="24.0061" y2="45" gradientUnits="userSpaceOnUse"> <stop stop-color="#FF666D"></stop> <stop offset="1" stop-color="#E0211F"></stop> </linearGradient> </defs></svg>