<svg xmlns="http://www.w3.org/2000/svg" height="48" width="48" viewBox="0 0 48 48"><path d="M35,1H13A5.006,5.006,0,0,0,8,6V42a5.006,5.006,0,0,0,5,5H35a5.006,5.006,0,0,0,5-5V6A5.006,5.006,0,0,0,35,1Z" fill="#444"></path><path d="M38,7V39a1,1,0,0,1-1,1H11a1,1,0,0,1-1-1V7a1,1,0,0,1,1-1H37A1,1,0,0,1,38,7Z" fill="#867fe8"></path><path d="M27,15a3,3,0,0,1-3-3,1,1,0,0,0-2,0V27.555A3.955,3.955,0,0,0,20,27a4,4,0,1,0,4,4V17.314A5.993,5.993,0,0,0,29,20a6.975,6.975,0,0,1,4.995,2.1c0-.034.005-.066.005-.1A7,7,0,0,0,27,15Z" fill="#fff"></path></svg>