<svg xmlns="http://www.w3.org/2000/svg" height="48" width="48" viewBox="0 0 48 48"><path fill="#E86C60" d="M43,10H33l-2.44678-4.88239c-0.33911-0.6767-1.03113-1.10394-1.78802-1.10394h-9.5304 c-0.7569,0-1.44891,0.42725-1.78802,1.10394L15,10H5c-2.20917,0-4,1.79083-4,4v28c0,2.20917,1.79083,4,4,4h38 c2.20917,0,4-1.79083,4-4V14C47,11.79083,45.20917,10,43,10z"></path> <path fill="#FFFFFF" d="M24,16c-6.61719,0-12,5.3833-12,12s5.38281,12,12,12s12-5.3833,12-12S30.61719,16,24,16z M14,28 c0-5.51416,4.48633-10,10-10c2.40082,0,4.60596,0.85168,6.33167,2.26727c-0.01184,0.01074-0.02728,0.01428-0.0387,0.0257l-14,14 c-0.01141,0.01141-0.01495,0.02679-0.0257,0.03864C14.85175,32.60596,14,30.40094,14,28z M24,38 c-2.40082,0-4.60596-0.85168-6.33167-2.26727c0.01184-0.01074,0.02728-0.01428,0.0387-0.0257l14-14 c0.01141-0.01141,0.01495-0.02679,0.0257-0.03864C33.14825,23.39404,34,25.59906,34,28C34,33.51416,29.51367,38,24,38z"></path></svg>