<svg xmlns="http://www.w3.org/2000/svg" height="48" width="48" viewBox="0 0 48 48"><path fill="#ED69AB" d="M43,47H5c-2.20914,0-4-1.79086-4-4V5c0-2.20914,1.79086-4,4-4h38c2.20914,0,4,1.79086,4,4v38 C47,45.20914,45.20914,47,43,47z"></path> <path fill="#FFFFFF" d="M18,33c-0.16211,0-0.32422-0.03906-0.47168-0.11816C17.20312,32.70801,17,32.36914,17,32V16 c0-0.36914,0.20312-0.70801,0.52832-0.88184c0.32422-0.17383,0.71973-0.1543,1.02637,0.0498l12,8 C30.83301,23.35352,31,23.66602,31,24s-0.16699,0.64648-0.44531,0.83203l-12,8C18.3877,32.94336,18.19434,33,18,33z"></path></svg>