<svg xmlns="http://www.w3.org/2000/svg" height="48" width="48" style="" viewBox="0 0 48 48"><path d="M45 20H3C2.448 20 2 19.552 2 19V5C2 4.448 2.448 4 3 4H45C45.552 4 46 4.448 46 5V19C46 19.552 45.552 20 45 20Z" fill="url(#nc-ui-4-0_linear_143_133)"></path> <path d="M45 31H3C2.448 31 2 30.552 2 30C2 29.448 2.448 29 3 29H45C45.552 29 46 29.448 46 30C46 30.552 45.552 31 45 31Z" fill="url(#nc-ui-4-1_linear_143_133)"></path> <path d="M45 43H3C2.448 43 2 42.552 2 42C2 41.448 2.448 41 3 41H45C45.552 41 46 41.448 46 42C46 42.552 45.552 43 45 43Z" fill="url(#nc-ui-4-2_linear_143_133)"></path> <defs> <linearGradient id="nc-ui-4-0_linear_143_133" x1="24" y1="4" x2="24" y2="20" gradientUnits="userSpaceOnUse"> <stop stop-color="#DEF2FD"></stop> <stop offset="1" stop-color="#9ED9FA"></stop> </linearGradient> <linearGradient id="nc-ui-4-1_linear_143_133" x1="2" y1="30" x2="45.5" y2="30" gradientUnits="userSpaceOnUse"> <stop stop-color="#60BEF6"></stop> <stop offset="1" stop-color="#29A0EA"></stop> </linearGradient> <linearGradient id="nc-ui-4-2_linear_143_133" x1="2" y1="42" x2="45.5" y2="42" gradientUnits="userSpaceOnUse"> <stop stop-color="#60BEF6"></stop> <stop offset="1" stop-color="#29A0EA"></stop> </linearGradient> </defs></svg>