<svg xmlns="http://www.w3.org/2000/svg" height="48" width="48" viewBox="0 0 48 48"><rect x="15" y="1" width="18" height="38" rx="5" fill="#b3b3b3"></rect><path d="M6.1,30.9a.993.993,0,0,1-.707-.293,15,15,0,0,1,0-21.212,1,1,0,1,1,1.414,1.414,13,13,0,0,0,0,18.384A1,1,0,0,1,6.1,30.9Z" fill="#a4dae0"></path><path d="M10.343,26.657a.993.993,0,0,1-.707-.293,9,9,0,0,1,0-12.728A1,1,0,0,1,11.05,15.05a7,7,0,0,0,0,9.9,1,1,0,0,1-.707,1.707Z" fill="#a4dae0"></path><path d="M41.9,30.9a1,1,0,0,1-.707-1.707,13,13,0,0,0,0-18.384,1,1,0,1,1,1.414-1.414,15,15,0,0,1,0,21.212A.993.993,0,0,1,41.9,30.9Z" fill="#a4dae0"></path><path d="M37.657,26.657a1,1,0,0,1-.707-1.707,7,7,0,0,0,0-9.9,1,1,0,1,1,1.414-1.414,9,9,0,0,1,0,12.728A.993.993,0,0,1,37.657,26.657Z" fill="#a4dae0"></path><rect x="22" y="39" width="4" height="8" fill="#b3b3b3"></rect><path d="M15,11h4a1,1,0,0,1,1,1v0a1,1,0,0,1-1,1H15a0,0,0,0,1,0,0V11A0,0,0,0,1,15,11Z" fill="#e6e6e6"></path><path d="M15,19h4a1,1,0,0,1,1,1v0a1,1,0,0,1-1,1H15a0,0,0,0,1,0,0V19A0,0,0,0,1,15,19Z" fill="#e6e6e6"></path><path d="M15,27h4a1,1,0,0,1,1,1v0a1,1,0,0,1-1,1H15a0,0,0,0,1,0,0V27A0,0,0,0,1,15,27Z" fill="#e6e6e6"></path><path d="M28,11h4a1,1,0,0,1,1,1v0a1,1,0,0,1-1,1H28a0,0,0,0,1,0,0V11A0,0,0,0,1,28,11Z" transform="translate(61 24) rotate(-180)" fill="#e6e6e6"></path><path d="M28,19h4a1,1,0,0,1,1,1v0a1,1,0,0,1-1,1H28a0,0,0,0,1,0,0V19A0,0,0,0,1,28,19Z" transform="translate(61 40) rotate(-180)" fill="#e6e6e6"></path><path d="M28,27h4a1,1,0,0,1,1,1v0a1,1,0,0,1-1,1H28a0,0,0,0,1,0,0V27A0,0,0,0,1,28,27Z" transform="translate(61 56) rotate(-180)" fill="#e6e6e6"></path><rect x="22" y="39" width="4" height="2" fill="#9e9e9e"></rect></svg>