<svg xmlns="http://www.w3.org/2000/svg" height="48" width="48" viewBox="0 0 48 48"><path fill="#E6E6E6" d="M42,47H6c-1.10457,0-2-0.89543-2-2V3c0-1.10457,0.89543-2,2-2h36c1.10457,0,2,0.89543,2,2v42 C44,46.10457,43.10457,47,42,47z"></path> <rect x="7" y="4" fill="#444444" width="34" height="34"></rect> <circle fill="#E86C60" cx="24" cy="21" r="8"></circle> <path fill="#FFFFFF" d="M27,22h-6c-0.55228,0-1-0.44771-1-1v0c0-0.55228,0.44772-1,1-1h6c0.55228,0,1,0.44771,1,1v0 C28,21.55229,27.55229,22,27,22z"></path></svg>