<svg xmlns="http://www.w3.org/2000/svg" height="48" width="48" viewBox="0 0 48 48"><path fill="#E6E6E6" d="M42,47H6c-1.10457,0-2-0.89543-2-2V3c0-1.10457,0.89543-2,2-2h36c1.10457,0,2,0.89543,2,2v42 C44,46.10457,43.10457,47,42,47z"></path> <rect x="7" y="4" fill="#444444" width="34" height="34"></rect> <circle fill="#72C472" cx="24" cy="21" r="8"></circle> <path fill="#FFFFFF" d="M27,20h-2v-2c0-0.55231-0.44769-1-1-1s-1,0.44769-1,1v2h-2c-0.55231,0-1,0.44769-1,1 c0,0.55225,0.44769,1,1,1h2v2c0,0.55225,0.44769,1,1,1s1-0.44775,1-1v-2h2c0.55231,0,1-0.44775,1-1C28,20.44769,27.55231,20,27,20z"></path></svg>