<svg xmlns="http://www.w3.org/2000/svg" height="48" width="48" viewBox="0 0 48 48"><path d="M44,41a3,3,0,0,0,3-3V22a3,3,0,0,0-3-3H26.479A10.987,10.987,0,0,0,9.521,19H4a3,3,0,0,0-3,3V38a3,3,0,0,0,3,3Z" fill="#b3b3b3"></path><path d="M34,24h6a1,1,0,0,1,0,2H34a1,1,0,0,1,0-2Zm0,5h6a1,1,0,0,1,0,2H34a1,1,0,0,1,0-2Zm0,5h6a1,1,0,0,1,0,2H34a1,1,0,0,1,0-2Z" fill="#666"></path><circle cx="18" cy="26" r="9" fill="#666"></circle><path d="M18,19a7,7,0,1,0,7,7A7,7,0,0,0,18,19Z" fill="#444"></path><path d="M18,23a3,3,0,0,0-3,3,1,1,0,0,1-2,0,5.006,5.006,0,0,1,5-5,1,1,0,0,1,0,2Z" fill="#c6c6c6"></path><path d="M18,11a1,1,0,0,1-1-1V5a1,1,0,0,1,2,0v5A1,1,0,0,1,18,11Z" fill="#a4dae0"></path><path d="M11.877,12.218a1,1,0,0,1-.924-.617L9.04,6.981a1,1,0,0,1,1.848-.765L12.8,10.835a1,1,0,0,1-.541,1.307A1.014,1.014,0,0,1,11.877,12.218Z" fill="#a4dae0"></path><path d="M6.687,15.687a1,1,0,0,1-.708-.293L2.443,11.857a1,1,0,1,1,1.414-1.414l3.537,3.536a1,1,0,0,1-.707,1.708Z" fill="#a4dae0"></path><path d="M24.123,12.218a1.014,1.014,0,0,1-.383-.076,1,1,0,0,1-.541-1.307l1.913-4.619a1,1,0,0,1,1.848.765L25.047,11.6A1,1,0,0,1,24.123,12.218Z" fill="#a4dae0"></path><path d="M29.313,15.687a1,1,0,0,1-.707-1.708l3.537-3.536a1,1,0,1,1,1.414,1.414l-3.536,3.537A1,1,0,0,1,29.313,15.687Z" fill="#a4dae0"></path><path d="M36,44h4a1,1,0,0,0,1-1V41H35v2A1,1,0,0,0,36,44Z" fill="#666"></path><path d="M8,44h4a1,1,0,0,0,1-1V41H7v2A1,1,0,0,0,8,44Z" fill="#666"></path></svg>