<svg xmlns="http://www.w3.org/2000/svg" height="48" width="48" viewBox="0 0 48 48"><path d="M44,5H4A3,3,0,0,0,1,8V40a3,3,0,0,0,3,3H44a3,3,0,0,0,3-3V8A3,3,0,0,0,44,5Z" fill="#c8c8c8"></path><circle cx="19" cy="24" r="14" fill="#444"></circle><path d="M19,30a6,6,0,1,1,6-6A6.007,6.007,0,0,1,19,30Z" fill="#f74b3b"></path><circle cx="19" cy="24" r="2" fill="#444"></circle><circle cx="39" cy="14" r="4" fill="#949494"></circle><circle cx="41" cy="37" r="2" fill="#949494"></circle><path d="M38,14V30.586l-2.707,2.707a1,1,0,1,0,1.414,1.414l3-3A1,1,0,0,0,40,31V14a1,1,0,0,0-1-1h0A1,1,0,0,0,38,14Z" fill="#444"></path></svg>