<svg xmlns="http://www.w3.org/2000/svg" height="48" width="48" viewBox="0 0 48 48"><path d="M24,24C9.061,24,1,28.637,1,33c0,3.954,6.64,8.12,19,8.869V39.861C9.81,39.172,3,35.94,3,33c0-3.311,8.624-7,21-7s21,3.689,21,7c0,2.474-4.6,4.962-11.449,6.191a1,1,0,0,0,.176,1.985.971.971,0,0,0,.177-.016C42.1,39.688,47,36.637,47,33,47,28.637,38.939,24,24,24Z" fill="#ada8fa"></path><path d="M36,6H31.566L28.857,1.485A1,1,0,0,0,28,1H20a1,1,0,0,0-.857.485L16.434,6H12a4,4,0,0,0-4,4V26a4,4,0,0,0,4,4H36a4,4,0,0,0,4-4V10A4,4,0,0,0,36,6Z" fill="#363636"></path><circle cx="24" cy="17.5" r="6.5" fill="#7b7b7b"></circle><path d="M21,47a1,1,0,0,1-1-1V36a1,1,0,0,1,1.581-.813l7,5a1,1,0,0,1,0,1.626l-7,5A.988.988,0,0,1,21,47Z" fill="#645aed"></path></svg>