<svg xmlns="http://www.w3.org/2000/svg" height="48" width="48" style="" viewBox="0 0 48 48"><path d="M46 19H2C1.448 19 1 18.552 1 18C1 17.448 1.448 17 2 17H46C46.552 17 47 17.448 47 18C47 18.552 46.552 19 46 19Z" fill="url(#nc-ui-1-0_linear_43_145)"></path> <path d="M46 7H2C1.448 7 1 6.552 1 6C1 5.448 1.448 5 2 5H46C46.552 5 47 5.448 47 6C47 6.552 46.552 7 46 7Z" fill="url(#nc-ui-1-1_linear_43_145)"></path> <path d="M22 31H2C1.448 31 1 30.552 1 30C1 29.448 1.448 29 2 29H22C22.552 29 23 29.448 23 30C23 30.552 22.552 31 22 31Z" fill="url(#nc-ui-1-2_linear_43_145)"></path> <path d="M22 43H2C1.448 43 1 42.552 1 42C1 41.448 1.448 41 2 41H22C22.552 41 23 41.448 23 42C23 42.552 22.552 43 22 43Z" fill="url(#nc-ui-1-3_linear_43_145)"></path> <path d="M28 36C28 40.971 32.029 45 37 45C41.971 45 46 40.971 46 36C46 31.029 41.971 27 37 27C32.029 27 28 31.029 28 36Z" fill="url(#nc-ui-1-4_linear_43_145)"></path> <path d="M38 31V35H42C42.552 35 43 35.448 43 36C43 36.552 42.552 37 42 37H38V41C38 41.552 37.552 42 37 42C36.448 42 36 41.552 36 41V37H32C31.448 37 31 36.552 31 36C31 35.448 31.448 35 32 35H36V31C36 30.448 36.448 30 37 30C37.552 30 38 30.448 38 31Z" fill="url(#nc-ui-1-5_linear_43_145)"></path> <defs> <linearGradient id="nc-ui-1-0_linear_43_145" x1="1" y1="18" x2="47" y2="18" gradientUnits="userSpaceOnUse"> <stop stop-color="#D8F3E0"></stop> <stop offset="1" stop-color="#9EE0B1"></stop> </linearGradient> <linearGradient id="nc-ui-1-1_linear_43_145" x1="1" y1="6" x2="47" y2="6.00001" gradientUnits="userSpaceOnUse"> <stop stop-color="#D8F3E0"></stop> <stop offset="1" stop-color="#9EE0B1"></stop> </linearGradient> <linearGradient id="nc-ui-1-2_linear_43_145" x1="1" y1="30" x2="23" y2="30" gradientUnits="userSpaceOnUse"> <stop stop-color="#D8F3E0"></stop> <stop offset="1" stop-color="#9EE0B1"></stop> </linearGradient> <linearGradient id="nc-ui-1-3_linear_43_145" x1="1" y1="42" x2="23" y2="42" gradientUnits="userSpaceOnUse"> <stop stop-color="#D8F3E0"></stop> <stop offset="1" stop-color="#9EE0B1"></stop> </linearGradient> <linearGradient id="nc-ui-1-4_linear_43_145" x1="37" y1="27" x2="37" y2="45" gradientUnits="userSpaceOnUse"> <stop stop-color="#6AD084"></stop> <stop offset="1" stop-color="#3CB34B"></stop> </linearGradient> <linearGradient id="nc-ui-1-5_linear_43_145" x1="37" y1="30" x2="37" y2="42" gradientUnits="userSpaceOnUse"> <stop stop-color="white"></stop> <stop offset="1" stop-color="#D8F3E0"></stop> </linearGradient> </defs></svg>