<svg xmlns="http://www.w3.org/2000/svg" height="48" width="48" viewBox="0 0 48 48"><path d="M34.092,15.08h3a1,1,0,0,1,1,1v0a1,1,0,0,1-1,1h-3a0,0,0,0,1,0,0v-2A0,0,0,0,1,34.092,15.08Z" transform="translate(21.941 -20.811) rotate(45)" fill="#e2ac4b"></path><path d="M31.263,17.908h3a1,1,0,0,1,1,1v0a1,1,0,0,1-1,1h-3a0,0,0,0,1,0,0v-2A0,0,0,0,1,31.263,17.908Z" transform="translate(23.113 -17.983) rotate(45)" fill="#e2ac4b"></path><path d="M28.435,20.737h3a1,1,0,0,1,1,1v0a1,1,0,0,1-1,1h-3a0,0,0,0,1,0,0v-2A0,0,0,0,1,28.435,20.737Z" transform="translate(24.284 -15.154) rotate(45)" fill="#e2ac4b"></path><path d="M25.606,23.565h3a1,1,0,0,1,1,1v0a1,1,0,0,1-1,1h-3a0,0,0,0,1,0,0v-2a0,0,0,0,1,0,0Z" transform="translate(25.456 -12.326) rotate(45)" fill="#e2ac4b"></path><path d="M22.778,26.393h3a1,1,0,0,1,1,1v0a1,1,0,0,1-1,1h-3a0,0,0,0,1,0,0v-2A0,0,0,0,1,22.778,26.393Z" transform="translate(26.627 -9.497) rotate(45)" fill="#e2ac4b"></path><rect x="30.99" y="27.475" width="2" height="15.525" rx="1" fill="#e2ac4b"></rect><path d="M30.99,28.771a16.846,16.846,0,0,0-7.626,4.279l-5.3,5.3a1.5,1.5,0,0,1-2.122-2.122L39.627,12.544a4.987,4.987,0,0,0,.487-6.476L36.092.523,33.97,1.23l3.471,6.429a1.494,1.494,0,0,1-.289,1.7L11.27,31.063c-.218.18-.43.369-.634.573A9,9,0,0,0,23.364,44.364a9.266,9.266,0,0,1,7.626-2.558Z" fill="#ffd764"></path></svg>