<svg xmlns="http://www.w3.org/2000/svg" height="48" width="48" viewBox="0 0 48 48"><rect x="1" y="8" width="40" height="26" rx="2.928" fill="#444"></rect><rect x="6" y="10" width="30" height="22" rx="0.968" fill="#47b0ea"></rect><circle cx="21" cy="17" r="4" fill="#fff"></circle><path d="M28,29H14a6,6,0,0,1,6-6h2a6,6,0,0,1,6,6Z" fill="#fff"></path><path d="M47,16,38.941,5.255A4,4,0,0,0,36.456,3.72l-9.1-1.655L26.637,2H22.17A3.114,3.114,0,0,0,19,4.839,3,3,0,0,0,22,8h4l8,2,4,7V29a5,5,0,0,1-5,5H18.138a3.094,3.094,0,0,0-3.118,2.649,3,3,0,0,0,2.462,3.3l9.024,1.946a3.969,3.969,0,0,1,.946.332l6.7,3.352A4.012,4.012,0,0,0,35.944,46H47Z" fill="#eebc99"></path></svg>