<svg xmlns="http://www.w3.org/2000/svg" height="48" width="48" viewBox="0 0 48 48"><path d="M45,3H3A2,2,0,0,0,1,5V35a2,2,0,0,0,2,2h8v9a1,1,0,0,0,1,1,.988.988,0,0,0,.581-.187L26.32,37H45a2,2,0,0,0,2-2V5A2,2,0,0,0,45,3Z" fill="#ea9860"></path> <path d="M21,29H8a1,1,0,0,1,0-2H21a1,1,0,0,1,0,2Z" fill="#fff"></path> <path d="M40,29H27a1,1,0,0,1,0-2H40a1,1,0,0,1,0,2Z" fill="#fff"></path> <path d="M30,23H8a1,1,0,0,1,0-2H30a1,1,0,0,1,0,2Z" fill="#fff"></path> <path d="M40,23H36a1,1,0,0,1,0-2h4a1,1,0,0,1,0,2Z" fill="#fff"></path></svg>