<svg xmlns="http://www.w3.org/2000/svg" height="48" width="48" viewBox="0 0 48 48"><path d="M6,40.586H3.586a1,1,0,0,0-.707,1.707l2.828,2.828a1,1,0,0,0,1.707-.707V42l9.607-9.607-1.414-1.414Z" fill="#ffd764"></path><path d="M16.314,33.1,14.9,31.686l-3.077,3.078a9.969,9.969,0,0,0-.546,3.374Z" fill="#e2ac4b"></path><path d="M44.639,16.171,31.829,3.361a1,1,0,0,0-1.687.906,16.972,16.972,0,0,1-4.636,15.4l-3.96,4.526-.99-.99a1,1,0,0,0-1.414,1.414L20.226,25.7l-1.32,1.509-1.178-1.179a1,1,0,0,0-1.414,1.415l1.272,1.272-1.319,1.509L14.9,28.858a1,1,0,1,0-1.414,1.414l1.456,1.456A9,9,0,0,0,28.335,43.707l5.656-5.657a8.989,8.989,0,0,0-5.9-15.342l.245-.214a16.975,16.975,0,0,1,15.4-4.636,1,1,0,0,0,.906-.273,1.024,1.024,0,0,0,.174-.235A1,1,0,0,0,44.639,16.171ZM32.577,26.737a7,7,0,0,1,0,9.9L26.92,42.293a7,7,0,0,1-10.55-9.136l6.308,6.307a1,1,0,0,0,1.414-1.414l-6.317-6.317,1.509-1.32,6.222,6.223a1,1,0,0,0,1.414-1.414l-6.128-6.128,1.508-1.32,6.035,6.034a1,1,0,0,0,1.414-1.415l-5.94-5.939,1.6-1.4A6.993,6.993,0,0,1,32.577,26.737Z" fill="#ffd764"></path><line x1="15.607" y1="32.393" x2="17.021" y2="30.979" fill="#e2ac4b"></line><path d="M28.751,24.787c.032.005.064.017.1.023l.856-.856Z" fill="#ffd764"></path><path d="M28.06,22.734l-2.638,2.308a7.065,7.065,0,0,1,3.25-.236l.9-.785.1-.09c.255-.255.519-.5.789-.73A9.05,9.05,0,0,0,28.06,22.734Z" fill="#e2ac4b"></path></svg>