<svg xmlns="http://www.w3.org/2000/svg" height="48" width="48" viewBox="0 0 48 48"><path d="M42,13H6V11A3,3,0,0,1,9,8H39a3,3,0,0,1,3,3Z" fill="#9696e2"></path><path d="M38,8H10V6a3,3,0,0,1,3-3H35a3,3,0,0,1,3,3Z" fill="#8680d8" opacity="0.4" style="isolation:isolate"></path><path d="M43,13H5a3,3,0,0,0-3,3V42a3,3,0,0,0,3,3H43a3,3,0,0,0,3-3V16A3,3,0,0,0,43,13Z" fill="#867fe8"></path><path d="M30.555,29.832l-9,6A1,1,0,0,1,20,35V23a1,1,0,0,1,1.555-.832l9,6a1,1,0,0,1,0,1.664Z" fill="#fff"></path></svg>