<svg xmlns="http://www.w3.org/2000/svg" height="48" width="48" viewBox="0 0 48 48"><path d="M39,10H3a3,3,0,0,0-3,3V41a3,3,0,0,0,3,3H39a3,3,0,0,0,3-3V13A3,3,0,0,0,39,10Z" fill="#cdcafc"></path><path d="M42,7H6a3,3,0,0,0-3,3V38a3,3,0,0,0,3,3H42a3,3,0,0,0,3-3V10A3,3,0,0,0,42,7Z" fill="#ada8fa"></path><path d="M45,4H9A3,3,0,0,0,6,7V35a3,3,0,0,0,3,3H45a3,3,0,0,0,3-3V7A3,3,0,0,0,45,4Z" fill="#857cf8"></path><path d="M33.832,21.555a.987.987,0,0,1-.277.277l-9,6A1,1,0,0,1,23,27V15a1,1,0,0,1,1.555-.832l9,6A1,1,0,0,1,33.832,21.555Z" fill="#fff"></path></svg>