<svg xmlns="http://www.w3.org/2000/svg" height="48" width="48" style="" viewBox="0 0 48 48"><path d="M46 43H32C31.448 43 31 43.448 31 44C31 44.552 31.448 45 32 45H46C46.552 45 47 44.552 47 44C47 43.448 46.552 43 46 43Z" fill="url(#nc-ui-1-0_linear_43_296)"></path><path d="M46 37H32C31.448 37 31 37.448 31 38C31 38.552 31.448 39 32 39H46C46.552 39 47 38.552 47 38C47 37.448 46.552 37 46 37Z" fill="url(#nc-ui-1-1_linear_43_296)"></path><path d="M46 31H32C31.448 31 31 31.448 31 32C31 32.552 31.448 33 32 33H46C46.552 33 47 32.552 47 32C47 31.448 46.552 31 46 31Z" fill="url(#nc-ui-1-2_linear_43_296)"></path><path d="M18.5 15.132C18.022 14.856 17.41 15.02 17.134 15.498C17.046 15.651 17 15.824 17 16V32C16.999 32.552 17.446 33.001 17.998 33.002C18.174 33.002 18.347 32.956 18.5 32.868L32.5 24.868C32.979 24.594 33.146 23.983 32.871 23.503C32.782 23.348 32.654 23.22 32.5 23.132L18.5 15.132Z" fill="url(#nc-ui-1-3_linear_43_296)"></path><path d="M27.819 44.654C16.422 46.754 5.48102 39.217 3.38102 27.82C1.28202 16.424 8.81802 5.48198 20.215 3.38298C31.612 1.28298 42.553 8.81998 44.653 20.217C45.057 22.411 45.109 24.655 44.806 26.866C44.731 27.413 45.115 27.917 45.662 27.992C46.209 28.067 46.713 27.683 46.788 27.136C48.509 14.541 39.694 2.93398 27.099 1.21298C26.072 1.07298 25.037 1.00198 24 1.00098C11.297 1.01298 1.01002 11.32 1.02302 24.023C1.03602 36.726 11.343 47.013 24.046 47C25.433 46.999 26.817 46.872 28.181 46.621C28.724 46.521 29.083 46 28.983 45.457C28.883 44.914 28.362 44.555 27.819 44.654Z" fill="url(#nc-ui-1-4_linear_43_296)"></path><defs><linearGradient id="nc-ui-1-0_linear_43_296" x1="31" y1="44" x2="47" y2="44" gradientUnits="userSpaceOnUse"><stop stop-color="#F98E5E"></stop><stop offset="1" stop-color="#EA6524"></stop></linearGradient><linearGradient id="nc-ui-1-1_linear_43_296" x1="31" y1="38" x2="47" y2="38" gradientUnits="userSpaceOnUse"><stop stop-color="#F98E5E"></stop><stop offset="1" stop-color="#EA6524"></stop></linearGradient><linearGradient id="nc-ui-1-2_linear_43_296" x1="31" y1="32" x2="47" y2="32" gradientUnits="userSpaceOnUse"><stop stop-color="#F98E5E"></stop><stop offset="1" stop-color="#EA6524"></stop></linearGradient><linearGradient id="nc-ui-1-3_linear_43_296" x1="25.0018" y1="14.998" x2="25.0018" y2="33.002" gradientUnits="userSpaceOnUse"><stop stop-color="#F98E5E"></stop><stop offset="1" stop-color="#EA6524"></stop></linearGradient><linearGradient id="nc-ui-1-4_linear_43_296" x1="24.0128" y1="1.00098" x2="24.0128" y2="47" gradientUnits="userSpaceOnUse"><stop stop-color="#FDDACE"></stop><stop offset="1" stop-color="#FBAE93"></stop></linearGradient></defs></svg>