<svg xmlns="http://www.w3.org/2000/svg" height="48" width="48" style="" viewBox="0 0 48 48"><path d="M46.488 12.127C46.172 11.95 45.785 11.958 45.476 12.148L31 21V27L45.476 35.852C45.946 36.141 46.562 35.995 46.852 35.524C46.949 35.366 47 35.185 47 35V13C47 12.638 46.804 12.304 46.488 12.127Z" fill="url(#nc-video-0_linear_235_91)"></path> <path d="M29 7H6C3.23858 7 1 9.23858 1 12V36C1 38.7614 3.23858 41 6 41H29C31.7614 41 34 38.7614 34 36V12C34 9.23858 31.7614 7 29 7Z" fill="url(#nc-video-1_linear_235_91)"></path> <defs> <linearGradient id="nc-video-0_linear_235_91" x1="39" y1="11.9996" x2="39" y2="36.0003" gradientUnits="userSpaceOnUse"> <stop stop-color="#3CB34B"></stop> <stop offset="1" stop-color="#288031"></stop> </linearGradient> <linearGradient id="nc-video-1_linear_235_91" x1="17.5" y1="7" x2="17.5" y2="41" gradientUnits="userSpaceOnUse"> <stop stop-color="#6AD084"></stop> <stop offset="1" stop-color="#3CB34B"></stop> </linearGradient> </defs> </svg>