<svg xmlns="http://www.w3.org/2000/svg" height="48" width="48" viewBox="0 0 48 48"><polygon points="38.397 7.397 19.408 25.408 22.584 28.584 40.595 9.595 38.397 7.397" fill="#444"></polygon><path d="M43,13a1,1,0,0,1-.707-.293l-3-3a1,1,0,0,1,1.414-1.414l3,3A1,1,0,0,1,43,13Z" fill="#444"></path><path d="M46,10a1,1,0,0,1-.707-.293l-3-3a1,1,0,0,1,1.414-1.414l3,3A1,1,0,0,1,46,10Z" fill="#444"></path><path d="M45.707,42.285l-40-40A1,1,0,0,0,4.293,3.7L5.586,4.992,3.465,7.113a1,1,0,0,0,0,1.414l36,36a1,1,0,0,0,1.414,0L43,42.406,44.293,43.7a1,1,0,0,0,1.414-1.414Zm-5.535.121L5.586,7.82,7,6.406,41.586,40.992Z" fill="#ead8c5"></path><path d="M45,44a1,1,0,0,1-.707-.293l-40-40A1,1,0,0,1,5.707,2.293l40,40A1,1,0,0,1,45,44Z" fill="#87613e"></path><path d="M18.707,33.285l-4-4A1,1,0,0,0,13.293,30.7l3.262,3.263.738.737a1,1,0,0,0,1.414-1.414Z" fill="none"></path><path d="M8.221,38.072l0,0L6.247,40.334a1,1,0,0,0,1.411,1.411l7.388-6.464h0l1.509-1.319-2.529-2.524Z" fill="none"></path><path d="M39,9a1,1,0,0,1-.707-.293l-3-3a1,1,0,0,1,1.414-1.414l3,3A1,1,0,0,1,39,9Z" fill="#444"></path><path d="M42,6a1,1,0,0,1-.707-.293l-3-3a1,1,0,0,1,1.414-1.414l3,3A1,1,0,0,1,42,6Z" fill="#444"></path><rect x="37.568" y="3.836" width="8.364" height="4.828" rx="1" transform="translate(7.809 31.352) rotate(-45)" fill="#a67c52"></rect><path d="M13.557,47.008a12.374,12.374,0,0,1-8.692-3.873c-4.886-4.886-5.181-11.683-.7-16.162a12.244,12.244,0,0,1,1.689-1.4,1,1,0,0,1,1.251.086,3.947,3.947,0,0,0,5.487-.095l.7-.7A3.977,3.977,0,0,0,14.2,20.7a1,1,0,0,1,.138-.939,10.208,10.208,0,0,1,.991-1.15c3.705-3.706,9.35-3.437,13.422.633s4.337,9.718.632,13.423a10.2,10.2,0,0,1-1.149.99.992.992,0,0,1-.939.138,3.981,3.981,0,0,0-4.162.908l-.7.7a3.944,3.944,0,0,0-.1,5.487,1,1,0,0,1,.086,1.251,12.244,12.244,0,0,1-1.4,1.689A10.463,10.463,0,0,1,13.557,47.008Z" fill="#a67c52"></path><path d="M14.031,31.438l2.527,2.526L7.652,41.745a1,1,0,0,1-1.411-1.411Z" fill="#444"></path><path d="M14.707,29.285A1,1,0,0,0,13.293,30.7l.736.742,2.529,2.524h0l.735.735a1,1,0,0,0,1.414-1.414Z" fill="#fff"></path></svg>