<svg xmlns="http://www.w3.org/2000/svg" height="48" width="48" viewBox="0 0 48 48"><path fill="#008AD7" d="M20.55,27.3c-1.2,2.7-3.9,4.5-7.05,4.5c-4.2,0-7.8-3.45-7.8-7.8c0-4.2,3.45-7.8,7.8-7.8 c3.15,0,5.85,1.95,7.05,4.65h6c-1.35-6-6.75-10.35-13.05-10.35C6.15,10.5,0,16.5,0,24s6,13.5,13.5,13.5c6.3,0,11.55-4.35,13.05-10.2 H20.55z"></path> <path id="color_28_" fill="#008AD7" d="M48,11.7c-1.65-0.75-3.45-1.2-5.4-1.2c-1.95,0-3.75,0.6-5.4,1.65V11.4h-5.55v11.4 c0,1.8,0,13.65,0,13.65h5.55c0,0,0-6.15,0-12c0-2.25,0-3.75,0.3-4.8V19.5c0.3-1.05,0.9-1.8,2.1-2.55c0.75-0.45,1.65-0.9,3-0.9 c1.35,0,2.1,0.3,3,0.9L48,11.7z"></path></svg>