<svg xmlns="http://www.w3.org/2000/svg" height="48" width="48" viewBox="0 0 48 48"><path fill="#FF0037" d="M46.234,24.499c1.69-1.714,2.234-4.456,1.339-6.673c-0.713-1.766-1.981-2.946-3.749-3.599 c-0.271-0.1-0.325-0.248-0.332-0.502c-0.021-0.713-0.027-1.431-0.112-2.138c-0.231-1.925-0.969-3.66-2.135-5.197 c-1.872-2.468-4.347-3.953-7.42-4.423c-1.726-0.264-3.427-0.151-5.089,0.376c-0.383,0.122-0.666,0.08-1.002-0.117 c-2.029-1.188-4.228-1.771-6.288-1.785c-2.305,0.006-4.221,0.445-6.013,1.357c-2.829,1.441-4.874,3.628-6.1,6.562 C9.205,8.664,9.018,8.802,8.706,8.853c-1.892,0.312-3.468,1.199-4.766,2.608c-2.457,2.667-2.947,6.825-1.147,9.98 c0.175,0.306,0.144,0.486-0.099,0.735c-1.598,1.639-2.518,3.596-2.671,5.893c-0.143,2.157,0.365,4.141,1.606,5.921 c1.426,2.045,3.381,3.282,5.819,3.769c0.236,0.047,0.335,0.17,0.351,0.414c0.028,0.416,0.065,0.834,0.144,1.243 c0.457,2.341,1.568,4.312,3.409,5.842c2.491,2.069,5.658,2.69,8.519,2.072c1.367-0.295,2.633-0.837,3.736-1.713 c0.192-0.152,0.33-0.184,0.528-0.022c1.085,0.887,2.313,1.45,3.711,1.636c2.712,0.36,4.95-0.523,6.734-2.572 c0.649-0.746,1.092-1.616,1.377-2.566c0.057-0.191,0.109-0.394,0.384-0.398c1.966-0.029,3.129-0.316,4.128-0.729 c3.772-1.561,6.068-4.351,6.784-8.382c0.438-2.467,0.018-4.816-1.168-7.025C45.721,24.881,45.69,25.05,46.234,24.499z"></path> <path fill="#FFFFFF" d="M36.804,35.218c-0.64,0.197-1.566,0.33-1.995,0.322c-1.347-0.013-2.677-0.193-3.904-0.752 c-1.631-0.744-2.616-2.048-3.013-3.804c-0.306-1.353,0.1-2.57,0.664-3.759c1.051-2.218,2.12-4.427,3.166-6.647 c0.393-0.833,1.188-2.374,0.374-2.809c-0.951-0.508-1.616,0.59-2.123,1.577c-1.247,2.428-2.474,4.866-3.711,7.299 c-0.572,1.126-1.125,2.262-1.731,3.37c-0.559,1.021-1.401,1.667-2.624,1.596c-1.861-0.107-2.383-1.333-1.666-3.131 c0.91-2.279,1.824-4.556,2.722-6.839c0.238-0.605,0.503-1.213,0.383-1.898c-0.105-0.594-0.431-0.978-0.946-1.08 c-0.43-0.085-1.095,0.235-1.309,0.701c-0.353,0.768-0.671,1.552-0.985,2.337c-1.355,3.397-2.691,6.801-4.063,10.191 c-0.378,0.935-0.947,1.795-1.945,2.138c-2.782,0.959-6.105-0.826-5.814-4.178c0.091-1.046,2.433-8.401,2.584-8.872 c0.692-2.167,1.357-4.348,2.378-6.39c0.699-1.4,1.91-2.179,3.37-2.624c1.213-0.369,2.325-0.089,3.408,0.478 c0.57,0.298,1.164,0.549,1.739,0.837c0.425,0.213,0.853,0.209,1.224-0.052c0.524-0.37,1.031-0.772,1.497-1.211 c1.039-0.977,2.631-1.14,3.62-0.589c0.551,0.307,1.005,0.794,1.492,1.211c0.478,0.409,0.685,0.459,1.209,0.117 c0.989-0.646,2.088-0.603,3.184-0.538c2.87,0.169,3.775,2.843,3.335,4.78c-0.442,1.946-1.331,3.717-2.1,5.537 c-0.64,1.514-1.289,3.024-1.884,4.556c-0.349,0.899-0.58,1.843-0.59,2.819c-0.011,1.043,0.469,1.619,1.501,1.813 c1.191,0.224,1.86,0.24,2.615,0.547c0.683,0.278,0.959,0.836,0.947,1.537C37.802,34.493,37.46,35.016,36.804,35.218z"></path></svg>