<svg xmlns="http://www.w3.org/2000/svg" height="48" width="48" viewBox="0 0 48 48"><path fill="#121212" d="M40.358,22.848c-0.637-0.637-1.667-0.637-2.304,0L22.848,38.054c-2.16,2.16-5.675,2.16-7.834,0.001 c-0.637-0.637-1.667-0.637-2.304,0c-0.637,0.637-0.637,1.667,0,2.304c3.43,3.43,9.011,3.429,12.442-0.001l15.206-15.206 C40.995,24.515,40.995,23.485,40.358,22.848z M45.427,17.779c-3.43-3.43-9.011-3.429-12.442,0.001L17.78,32.986 c-0.637,0.637-0.637,1.667,0,2.304c0.637,0.637,1.667,0.637,2.304,0L35.29,20.084c2.16-2.16,5.675-2.16,7.834-0.001 c2.16,2.16,2.16,5.675,0,7.835L30.891,40.15c-0.637,0.637-0.637,1.667,0,2.304c0.637,0.637,1.667,0.637,2.304,0l12.232-12.232 C48.858,26.791,48.858,21.209,45.427,17.779z M35.29,7.641c-3.43-3.43-9.011-3.429-12.442,0.001L7.642,22.848 c-0.637,0.637-0.637,1.667,0,2.304c0.637,0.637,1.667,0.637,2.304,0L25.152,9.946c2.16-2.16,5.675-2.16,7.834-0.001 c0.637,0.637,1.667,0.637,2.304,0S35.926,8.278,35.29,7.641z M30.22,12.71c-0.637-0.637-1.667-0.637-2.304,0L12.71,27.916 c-2.16,2.16-5.675,2.16-7.834,0.001c-2.16-2.16-2.16-5.675,0-7.835L17.109,7.85c0.637-0.637,0.637-1.667,0-2.304 c-0.637-0.637-1.667-0.637-2.304,0L2.573,17.779c-3.43,3.43-3.43,9.013,0,12.443s9.011,3.429,12.442-0.001L30.22,15.014 C30.857,14.378,30.857,13.347,30.22,12.71z"></path> </svg>