<svg xmlns="http://www.w3.org/2000/svg" height="48" width="48" viewBox="0 0 48 48"><path fill="#00D400" d="M17.409,4.602C7.547,4.602,0,11.294,0,18.589s6.516,11.522,6.516,11.522l-1.059,4.014 c-0.14,0.529,0.427,0.966,0.903,0.696l4.76-2.697c2.105,0.67,6.572,0.884,7.007,0.904c-0.312-1.082-0.466-2.148-0.466-3.143 c0-5.63,4.902-13.56,15.799-13.56c0.248,0,0.496,0.006,0.744,0.016C32.754,9.401,25.548,4.602,17.409,4.602z M10.918,16.225 c-1.195,0-2.164-0.969-2.164-2.164s0.969-2.164,2.164-2.164s2.164,0.969,2.164,2.164S12.113,16.225,10.918,16.225z M23.497,16.225 c-1.195,0-2.164-0.969-2.164-2.164s0.969-2.164,2.164-2.164c1.195,0,2.164,0.969,2.164,2.164S24.692,16.225,23.497,16.225z"></path> <path id="color_25_" fill="#00D400" d="M48,29.004c0-6.39-7.497-11.069-14.541-11.069c-9.962,0-14.189,7.195-14.189,11.95 c0,4.765,4.226,11.95,14.189,11.95c2.204,0,4.143-0.316,5.829-0.876l3.747,2.378c0.296,0.188,0.67-0.077,0.591-0.419l-0.85-3.69 C46.316,36.762,48,32.875,48,29.004z M28.905,27.789c-1.056,0-1.912-0.856-1.912-1.912s0.856-1.912,1.912-1.912 s1.912,0.856,1.912,1.912S29.961,27.789,28.905,27.789z M38.465,27.789c-1.056,0-1.912-0.856-1.912-1.912s0.856-1.912,1.912-1.912 c1.056,0,1.912,0.856,1.912,1.912S39.52,27.789,38.465,27.789z"></path> </svg>