<svg xmlns="http://www.w3.org/2000/svg" height="48" width="48" viewBox="0 0 48 48"><path fill-rule="evenodd" clip-rule="evenodd" fill="#3F76A7" d="M40.604,0H7.396C3.312,0,0,3.312,0,7.396v33.207 C0,44.688,3.312,48,7.396,48h33.207C44.688,48,48,44.688,48,40.604V7.396C48,3.312,44.688,0,40.604,0z"></path> <path fill-rule="evenodd" clip-rule="evenodd" fill="#FFFFFF" d="M39.405,33.794h-4.038c-1.318,0-1.483-0.961-3.901-3.269 c-2.039-2.011-2.912-2.17-3.406-2.17c-0.44,0-0.742,0.329-0.742,1.099v3.076c0,0.906-0.522,1.263-2.664,1.263 c-3.516,0-7.416-2.17-10.383-6.18c-4.422-5.961-5.549-10.41-5.549-11.372c0-0.522,0.385-0.879,0.906-0.879h3.598 c0.934,0,1.291,0.275,1.621,1.263c1.648,4.834,4.587,9.092,5.823,9.092c0.467,0,0.522-0.385,0.522-1.373v-4.917 c0-2.383-1.346-2.582-1.346-3.461c0-0.349,0.275-0.604,0.714-0.604h5.768c0.769,0,0.879,0.275,0.879,1.208v6.675 c0,0.762,0.156,1.044,0.494,1.044c0.42,0,0.806-0.254,1.566-1.099c2.367-2.612,4.312-6.757,4.312-6.757 c0.247-0.522,0.549-0.879,1.373-0.879c1.208,0,3.598,0,3.598,0c0.714,0,1.016,0.385,0.879,1.071c-0.412,1.923-4.56,7.773-4.56,7.773 c-0.385,0.604-0.549,0.934,0,1.511c0.385,0.494,1.593,1.566,2.335,2.554c1.813,1.923,2.994,3.543,2.994,4.45 C40.202,33.601,39.817,33.794,39.405,33.794z"></path> </svg>