<svg xmlns="http://www.w3.org/2000/svg" height="48" width="48" viewBox="0 0 48 48"><path fill="#030303" d="M48,9.313c0,0.173-0.055,0.329-0.16,0.473c-0.11,0.139-0.224,0.211-0.355,0.211 c-1.051,0.101-1.917,0.439-2.584,1.017c-0.671,0.574-1.359,1.676-2.073,3.297L31.937,38.856c-0.072,0.228-0.27,0.342-0.599,0.342 c-0.258,0-0.456-0.114-0.599-0.342l-6.109-12.775l-7.025,12.775c-0.144,0.228-0.342,0.342-0.599,0.342 c-0.312,0-0.519-0.114-0.621-0.342L5.682,14.311c-0.667-1.524-1.372-2.588-2.115-3.192c-0.739-0.604-1.773-0.979-3.094-1.123 c-0.114,0-0.224-0.059-0.321-0.182C0.051,9.697,0,9.558,0,9.402c0-0.401,0.114-0.599,0.342-0.599c0.954,0,1.95,0.042,2.993,0.127 C4.302,9.017,5.214,9.06,6.066,9.06c0.87,0,1.896-0.042,3.078-0.131c1.237-0.084,2.335-0.127,3.289-0.127 c0.228,0,0.342,0.198,0.342,0.599c0,0.397-0.072,0.595-0.211,0.595c-0.954,0.072-1.706,0.317-2.254,0.726 c-0.549,0.414-0.823,0.954-0.823,1.625c0,0.342,0.114,0.768,0.342,1.279L18.672,33.6l5.02-9.482l-4.678-9.807 c-0.84-1.748-1.532-2.879-2.073-3.386c-0.54-0.502-1.359-0.815-2.457-0.929c-0.101,0-0.194-0.059-0.287-0.182 c-0.093-0.118-0.139-0.258-0.139-0.414c0-0.401,0.097-0.599,0.3-0.599c0.954,0,1.828,0.042,2.626,0.127 c0.768,0.089,1.587,0.131,2.457,0.131c0.853,0,1.756-0.042,2.71-0.131c0.984-0.084,1.95-0.127,2.904-0.127 c0.228,0,0.342,0.198,0.342,0.599c0,0.397-0.068,0.595-0.211,0.595c-1.908,0.131-2.862,0.671-2.862,1.625 c0,0.426,0.22,1.089,0.663,1.984l3.094,6.282l3.078-5.746c0.426-0.811,0.642-1.494,0.642-2.052c0-1.309-0.954-2.005-2.862-2.094 c-0.173,0-0.258-0.198-0.258-0.595c0-0.144,0.042-0.279,0.127-0.405c0.089-0.131,0.173-0.194,0.258-0.194 c0.684,0,1.524,0.042,2.52,0.127c0.954,0.089,1.739,0.131,2.351,0.131c0.439,0,1.089-0.038,1.942-0.11 c1.081-0.097,1.988-0.148,2.715-0.148c0.169,0,0.253,0.169,0.253,0.511c0,0.456-0.156,0.684-0.469,0.684 c-1.11,0.114-2.005,0.422-2.681,0.92s-1.52,1.63-2.529,3.394l-4.103,7.586l5.556,11.318l8.203-19.073 c0.283-0.697,0.426-1.338,0.426-1.921c0-1.397-0.954-2.136-2.862-2.225c-0.173,0-0.258-0.198-0.258-0.595 c0-0.401,0.127-0.599,0.384-0.599c0.697,0,1.524,0.042,2.478,0.127c0.882,0.089,1.625,0.131,2.221,0.131 c0.629,0,1.355-0.042,2.178-0.131c0.857-0.084,1.625-0.127,2.309-0.127C47.899,8.802,48,8.971,48,9.313z"></path> </svg>