<svg xmlns="http://www.w3.org/2000/svg" height="48" width="48" viewBox="0 0 48 48"><path fill="#FAAB07" d="M15.27,43.825c-3.296,0.105-5.856,1.329-6.1,2.524c-0.272,1.332,6.661,2.665,18.126,0.526 S15.27,43.825,15.27,43.825z"></path> <path fill="#FAAB07" d="M32.73,43.825c3.296,0.105,5.856,1.329,6.1,2.524c0.272,1.332-6.661,2.665-18.126,0.526 S32.73,43.825,32.73,43.825z"></path> <path d="M43.406,32.08c-0.644-2.877-3.356-9.189-4.33-11.408v-5.596C39.076,6.75,32.326,0,24,0h0h0 C15.674,0,8.924,6.75,8.924,15.076v5.596c-0.974,2.22-3.686,8.531-4.33,11.408c-0.789,3.524-0.824,6.696-0.368,6.907 c0.341,0.157,2.332-1.61,4.679-4.596c0.109,3.438,1.603,12.941,14.814,12.941c0.095,0,0.187-0.003,0.28-0.004 c0.094,0.001,0.185,0.004,0.28,0.004c13.211,0,14.706-9.503,14.814-12.941c2.347,2.986,4.338,4.754,4.679,4.596 C44.23,38.776,44.194,35.603,43.406,32.08z"></path> <path fill="#FFFFFF" d="M24,25.611H12.31v8.611c0,6.456,5.234,11.69,11.69,11.69s11.69-5.234,11.69-11.69v-8.611H24z"></path> <path fill="#EB1923" d="M38.838,20.133c0,0-4.811,2.271-14.838,2.271S9.162,20.133,9.162,20.133l-2.319,5.479 C11.949,28.118,24,28.153,24,28.153s12.051-0.035,17.157-2.542L38.838,20.133z"></path> <rect x="14.744" y="26.505" fill="#EB1923" width="6.276" height="7.959"></rect> <ellipse fill="#FFFFFF" cx="20.14" cy="9.799" rx="2.539" ry="3.839"></ellipse> <ellipse fill="#FFFFFF" cx="27.86" cy="9.799" rx="2.539" ry="3.839"></ellipse> <path fill="#FAAB07" d="M24,14.725c-4.312,0-8.905,1.157-9.045,1.823c-0.14,0.666,2.805,3.085,9.045,3.085s9.186-2.419,9.045-3.085 C32.905,15.882,28.312,14.725,24,14.725z"></path> <ellipse cx="20.424" cy="10.097" rx="1.052" ry="1.683"></ellipse> <path d="M26.874,10.751l-0.7-0.467c0.395-0.593,0.987-0.944,1.711-1.016c0.806-0.081,1.557,0.206,1.881,0.531l-0.595,0.595 c-0.125-0.125-0.622-0.345-1.203-0.288C27.497,10.153,27.129,10.37,26.874,10.751z"></path> </svg>