<svg xmlns="http://www.w3.org/2000/svg" height="48" width="48" viewBox="0 0 48 48"><ellipse fill="#FFFFFF" cx="20.5" cy="31.5" rx="16.5" ry="10.5"></ellipse> <path fill="#FF001A" d="M20.164,40.597c-7.946,0.783-14.805-2.807-15.322-8.025c-0.516-5.216,5.51-10.082,13.455-10.867 c7.947-0.787,14.807,2.806,15.322,8.021C34.134,34.945,28.111,39.811,20.164,40.597 M36.058,23.278 c-0.676-0.202-1.14-0.34-0.786-1.228c0.766-1.929,0.846-3.593,0.015-4.779c-1.558-2.226-5.821-2.106-10.709-0.06 c0-0.002-1.534,0.672-1.142-0.546c0.752-2.417,0.639-4.44-0.531-5.609c-2.651-2.653-9.701,0.1-15.748,6.145 C2.629,21.729,0,26.528,0,30.678c0,7.938,10.179,12.764,20.138,12.764c13.054,0,21.738-7.585,21.738-13.606 C41.876,26.197,38.811,24.132,36.058,23.278"></path> <path fill="#F29702" d="M44.726,8.752c-3.152-3.495-7.802-4.827-12.095-3.914H32.63 c-0.992,0.212-1.626,1.189-1.413,2.181c0.211,0.992,1.188,1.626,2.181,1.414c3.053-0.648,6.357,0.301,8.6,2.783 c2.239,2.482,2.847,5.869,1.888,8.837l0,0.001c-0.313,0.968,0.216,2.002,1.184,2.314c0.965,0.312,2.001-0.216,2.314-1.18 c0-0.001,0-0.005,0-0.007C48.73,17.003,47.881,12.243,44.726,8.752"></path> <path fill="#F29702" d="M39.885,13.121c-1.534-1.701-3.799-2.348-5.891-1.904c-0.855,0.182-1.4,1.023-1.216,1.879 c0.183,0.851,1.024,1.399,1.876,1.214v0.002c1.022-0.217,2.131,0.098,2.881,0.929c0.751,0.833,0.953,1.967,0.63,2.962h0.001 c-0.268,0.83,0.186,1.723,1.018,1.993c0.832,0.266,1.724-0.188,1.992-1.019C41.833,17.14,41.423,14.823,39.885,13.121"></path> <path d="M20.603,31.148c-0.278,0.476-0.893,0.704-1.373,0.506c-0.474-0.194-0.622-0.726-0.353-1.193 c0.277-0.464,0.868-0.691,1.34-0.504C20.696,30.132,20.868,30.67,20.603,31.148 M18.07,34.398c-0.768,1.226-2.414,1.763-3.654,1.198 c-1.222-0.556-1.582-1.981-0.813-3.176c0.759-1.19,2.349-1.721,3.581-1.205C18.428,31.744,18.826,33.159,18.07,34.398 M20.958,25.72 c-3.781-0.984-8.056,0.9-9.698,4.233c-1.673,3.398-0.055,7.17,3.765,8.403c3.958,1.276,8.622-0.68,10.244-4.347 C26.869,30.423,24.871,26.731,20.958,25.72"></path> </svg>