<svg width="24" height="24" viewBox="0 0 24 24" fill="none" xmlns="http://www.w3.org/2000/svg">
<path d="M2 9.5C2 9.22386 2.22386 9 2.5 9H21.5C21.7761 9 22 9.22386 22 9.5V10.5C22 10.7761 21.7761 11 21.5 11H2.5C2.22386 11 2 10.7761 2 10.5V9.5Z" fill="#61616b"/>
<path d="M7 11H11V20.5C11 20.7761 10.7761 21 10.5 21H7.5C7.22386 21 7 20.7761 7 20.5V11Z" fill="#61616b"/>
<path d="M13 11H17V15.5C17 15.7761 16.7761 16 16.5 16H13.5C13.2239 16 13 15.7761 13 15.5V11Z" fill="#61616b"/>
<path d="M10.5 3C10.7761 3 11 3.22386 11 3.5V9H10V4H8V9H7V3.5C7 3.22386 7.22386 3 7.5 3H10.5Z" fill="#61616b"/>
<path d="M16.5 3C16.7761 3 17 3.22386 17 3.5V9H16V4H14V9H13V3.5C13 3.22386 13.2239 3 13.5 3H16.5Z" fill="#61616b"/>
</svg>
