<svg width="24" height="24" viewBox="0 0 24 24" fill="none" xmlns="http://www.w3.org/2000/svg">
<path d="M4 2.25C4 2.11193 4.11193 2 4.25 2H19.75C19.8881 2 20 2.11193 20 2.25V3.25C20 3.38807 19.8881 3.5 19.75 3.5H4.25C4.11193 3.5 4 3.38807 4 3.25V2.25Z" fill="#61616b"/>
<path d="M4 20.75C4 20.6119 4.11193 20.5 4.25 20.5H19.75C19.8881 20.5 20 20.6119 20 20.75V21.75C20 21.8881 19.8881 22 19.75 22H4.25C4.11193 22 4 21.8881 4 21.75V20.75Z" fill="#61616b"/>
<path d="M10 3H11.5V21H10V3Z" fill="#61616b"/>
<path d="M12.5 3H14V21H12.5V3Z" fill="#61616b"/>
</svg>
