<svg xmlns="http://www.w3.org/2000/svg" height="24" width="24" viewBox="0 0 24 24"><path fill="none" stroke="#61616b" stroke-width="2" d="M20,15.9c1.7-0.4,3-2,3-3.9 c0-2.2-1.8-4-4-4l0,0c-0.3-3.9-3.5-7-7.5-7S4.2,4.2,4,8.1c-1.7,0.4-3,2-3,3.9c0,1.9,1.3,3.4,3,3.9"></path> <line data-color="color-2" fill="none" stroke="#61616b" stroke-width="2" x1="12" y1="17" x2="12" y2="16"></line> <line data-color="color-2" fill="none" stroke="#61616b" stroke-width="2" x1="8" y1="14" x2="8" y2="13"></line> <line data-color="color-2" fill="none" stroke="#61616b" stroke-width="2" x1="16" y1="14" x2="16" y2="13"></line> <line data-color="color-2" fill="none" stroke="#61616b" stroke-width="2" x1="12" y1="22" x2="12" y2="23"></line> <line data-color="color-2" fill="none" stroke="#61616b" stroke-width="2" x1="8" y1="19" x2="8" y2="20"></line> <line data-color="color-2" fill="none" stroke="#61616b" stroke-width="2" x1="16" y1="19" x2="16" y2="20"></line></svg>