<svg xmlns="http://www.w3.org/2000/svg" height="24" width="24" viewBox="0 0 24 24"><path fill="none" stroke="#61616b" stroke-width="2" d="M20,15.873 c1.72-0.447,3-2.018,3-3.873c0-2.2-1.8-4-4-4l0,0c-0.3-3.9-3.5-7-7.5-7S4.2,4.2,4,8.1c-1.7,0.4-3,2-3,3.9 c0,1.854,1.278,3.424,2.997,3.872"></path> <line data-color="color-2" fill="none" stroke="#61616b" stroke-width="2" x1="12" y1="19" x2="12" y2="16"></line> <line data-color="color-2" fill="none" stroke="#61616b" stroke-width="2" x1="8" y1="16" x2="8" y2="13"></line> <line data-color="color-2" fill="none" stroke="#61616b" stroke-width="2" x1="16" y1="16" x2="16" y2="13"></line> <line data-color="color-2" fill="none" stroke="#61616b" stroke-width="2" x1="12" y1="22" x2="12" y2="23"></line> <line data-color="color-2" fill="none" stroke="#61616b" stroke-width="2" x1="8" y1="19" x2="8" y2="20"></line> <line data-color="color-2" fill="none" stroke="#61616b" stroke-width="2" x1="16" y1="19" x2="16" y2="20"></line></svg>