<svg xmlns="http://www.w3.org/2000/svg" height="24" width="24" viewBox="0 0 24 24"><path data-cap="butt" data-color="color-2" fill="none" stroke="#61616b" stroke-width="2" d="M9.1,9.1C9.5,6.8,11.6,5,14,5 c2.8,0,5,2.2,5,5c0,1.1-0.4,2.2-1,3"></path> <line data-color="color-2" fill="none" stroke="#61616b" stroke-width="2" x1="23" y1="10" x2="22" y2="10"></line> <line data-color="color-2" fill="none" stroke="#61616b" stroke-width="2" x1="20.4" y1="3.6" x2="19.7" y2="4.3"></line> <line data-color="color-2" fill="none" stroke="#61616b" stroke-width="2" x1="14" y1="1" x2="14" y2="2"></line> <line data-color="color-2" fill="none" stroke="#61616b" stroke-width="2" x1="7.6" y1="3.6" x2="8.3" y2="4.3"></line> <path fill="none" stroke="#61616b" stroke-width="2" d="M18,13 c-1.2,0-2.4,0.5-3.2,1.2C14,11.2,11.2,9,8,9c-3.9,0-7,3.1-7,7c0,3.9,3.1,7,7,7h10c2.8,0,5-2.2,5-5S20.8,13,18,13z"></path></svg>