<svg xmlns="http://www.w3.org/2000/svg" height="24" width="24" viewBox="0 0 24 24"><path data-cap="butt" fill="none" stroke="#61616b" stroke-width="2" d="M1,7l2.8-1.7c1.3-0.8,3-0.8,4.3,0.1 l1.7,1.1c1.3,0.9,3.1,0.9,4.4,0l1.7-1.1c1.3-0.9,3-0.9,4.3-0.1L23,7"></path> <path data-cap="butt" fill="none" stroke="#61616b" stroke-width="2" d="M1,19.1l2.8-1.7 c1.3-0.8,3-0.8,4.3,0.1l1.7,1.1c1.3,0.9,3.1,0.9,4.4,0l1.7-1.1c1.3-0.9,3-0.9,4.3-0.1l2.8,1.7"></path> <path data-cap="butt" data-color="color-2" fill="none" stroke="#61616b" stroke-width="2" d="M1,13l2.8-1.7 c1.3-0.8,3-0.8,4.3,0.1l1.7,1.1c1.3,0.9,3.1,0.9,4.4,0l1.7-1.1c1.3-0.9,3-0.9,4.3-0.1L23,13"></path></svg>