<svg xmlns="http://www.w3.org/2000/svg" height="24" width="24" viewBox="0 0 24 24"><path data-cap="butt" data-color="color-2" fill="none" stroke="#61616b" stroke-width="2" d="M22,10.3c0.6-1,1-2.1,1-3.3 c-3.3,0-6-2.7-6-6c-3,0-5.4,2.2-5.9,5"></path> <path data-color="color-2" fill="none" stroke="#61616b" stroke-width="2" d="M9,20 c0-1.9,3-5,3-5s3,3.1,3,5c0,1.9-1.5,3-3,3S9,21.9,9,20z"></path> <path fill="none" stroke="#61616b" stroke-width="2" d="M6,17H5c-2.2,0-4-1.8-4-4 c0-2.2,1.8-4,4-4c0.5,0,1,0.1,1.5,0.3C7.3,7.4,9.3,6,11.5,6c2.4,0,4.5,1.6,5.2,3.7C17.4,9.3,18.1,9,19,9c2.2,0,4,1.8,4,4 c0,2.2-1.8,4-4,4h-1"></path></svg>