<svg xmlns="http://www.w3.org/2000/svg" height="24" width="24" viewBox="0 0 24 24"><path data-cap="butt" data-color="color-2" fill="none" stroke="#61616b" stroke-width="2" d="M22,10.3c0.6-1,1-2.1,1-3.3 c-3.3,0-6-2.7-6-6c-3,0-5.4,2.2-5.9,5"></path> <line data-color="color-2" fill="none" stroke="#61616b" stroke-width="2" x1="12" y1="17" x2="12" y2="16"></line> <line data-color="color-2" fill="none" stroke="#61616b" stroke-width="2" x1="8" y1="14" x2="8" y2="13"></line> <line data-color="color-2" fill="none" stroke="#61616b" stroke-width="2" x1="16" y1="14" x2="16" y2="13"></line> <line data-color="color-2" fill="none" stroke="#61616b" stroke-width="2" x1="12" y1="22" x2="12" y2="23"></line> <line data-color="color-2" fill="none" stroke="#61616b" stroke-width="2" x1="8" y1="19" x2="8" y2="20"></line> <line data-color="color-2" fill="none" stroke="#61616b" stroke-width="2" x1="16" y1="19" x2="16" y2="20"></line> <path fill="none" stroke="#61616b" stroke-width="2" d="M5,17c-2.2,0-4-1.8-4-4 c0-2.2,1.8-4,4-4c0.5,0,1,0.1,1.5,0.3C7.3,7.4,9.3,6,11.5,6c2.4,0,4.5,1.6,5.2,3.7C17.4,9.3,18.1,9,19,9c2.2,0,4,1.8,4,4 c0,2.2-1.8,4-4,4"></path></svg>