<svg xmlns="http://www.w3.org/2000/svg" height="24" width="24" viewBox="0 0 24 24"><line data-color="color-2" fill="none" stroke="#61616b" stroke-width="2" x1="12" y1="15" x2="12" y2="23"></line> <line data-color="color-2" fill="none" stroke="#61616b" stroke-width="2" x1="8.5" y1="17" x2="15.5" y2="21"></line> <line data-color="color-2" fill="none" stroke="#61616b" stroke-width="2" x1="8.5" y1="21" x2="15.5" y2="17"></line> <path data-cap="butt" data-color="color-2" fill="none" stroke="#61616b" stroke-width="2" d="M11.1,6C11.6,3.2,14,1,17,1 c3.3,0,6,2.7,6,6c0,1.2-0.4,2.4-1,3.3"></path> <path fill="none" stroke="#61616b" stroke-width="2" d="M5,17c-2.2,0-4-1.8-4-4 c0-2.2,1.8-4,4-4c0.5,0,1,0.1,1.5,0.3C7.3,7.4,9.3,6,11.5,6c2.4,0,4.5,1.6,5.2,3.7C17.4,9.3,18.1,9,19,9c2.2,0,4,1.8,4,4 c0,2.2-1.8,4-4,4"></path></svg>