<svg xmlns="http://www.w3.org/2000/svg" height="24" width="24" viewBox="0 0 24 24"><path fill="none" stroke="#61616b" stroke-width="2" d="M18,20c0,1.657-1.343,3-3,3 h0c-1.657,0-3-1.343-3-3v-8"></path> <line fill="none" stroke="#61616b" stroke-width="2" x1="12" y1="3" x2="12" y2="1"></line> <path data-cap="butt" data-color="color-2" fill="none" stroke="#61616b" stroke-width="2" d="M12,3c-2.961,1.474-5,4.468-5,8 c0,0.34,0,1,0,1"></path> <path data-cap="butt" data-color="color-2" fill="none" stroke="#61616b" stroke-width="2" d="M12,3c2.961,1.474,5,4.468,5,8 c0,0.34,0,1,0,1"></path> <line data-cap="butt" data-color="color-2" fill="none" stroke="#61616b" stroke-width="2" x1="12" y1="12" x2="12" y2="3"></line> <path data-color="color-2" fill="none" stroke="#61616b" stroke-width="2" d="M22,12 c-0.502-5.053-4.815-9-10-9S2.502,6.947,2,12H22z"></path></svg>