<svg xmlns="http://www.w3.org/2000/svg" height="24" width="24" viewBox="0 0 24 24"><path data-cap="butt" data-color="color-2" fill="none" stroke="#61616b" stroke-width="2" d="M3.22301,11.00004 c0.45441-2.00262,1.57663-3.7516,3.12015-5.00044"></path> <path data-cap="butt" data-color="color-2" fill="none" stroke="#61616b" stroke-width="2" d="M16.12642,21.00041 C14.89037,21.63922,13.48732,22,12,22c-1.43802,0-2.79726-0.33726-4.00296-0.93699"></path> <path data-cap="butt" data-color="color-2" fill="none" stroke="#61616b" stroke-width="2" d="M17.65684,5.9996 c1.5434,1.24874,2.66556,2.99754,3.12004,4.99996"></path> <path data-cap="butt" fill="none" stroke="#61616b" stroke-width="2" d="M10.84311,15.7688l-6.10275,2.9143 c-0.99675,0.47598-2.19064,0.05382-2.66662-0.94293l0,0c-0.47599-0.99675-0.05382-2.19064,0.94292-2.66662l6.10275-2.9143"></path> <path data-cap="butt" fill="none" stroke="#61616b" stroke-width="2" d="M13.15689,15.7688l6.10275,2.9143 c0.99675,0.47598,2.19064,0.05382,2.66662-0.94293l0,0c0.47599-0.99675,0.05383-2.19064-0.94292-2.66662l-6.10275-2.9143"></path> <path data-cap="butt" fill="none" stroke="#61616b" stroke-width="2" d="M10,10.76445V4 c0-1.10457,0.89543-2,2-2h0c1.10457,0,2,0.89543,2,2v6.76446"></path> <circle fill="none" stroke="#61616b" stroke-width="2" cx="12" cy="13" r="3"></circle></svg>