<svg xmlns="http://www.w3.org/2000/svg" height="24" width="24" viewBox="0 0 24 24"><path d="M2,10C2,5.029,6.47,1,12,1c5.379,0,10,4.029,10,9S15.712,23,12,23C8.212,23,2,14.971,2,10Z" fill="none" stroke="#61616b" stroke-width="2"></path> <path data-color="color-2" data-stroke="none" d="M5,9a6.529,6.529,0,0,1,4.393,1.607C10.705,11.92,10,15,10,15a6.59,6.59,0,0,1-3.436-1.564C5.022,11.894,5,9,5,9Z" fill="#61616b" stroke="none"></path> <path data-color="color-2" data-stroke="none" d="M19,9a6.523,6.523,0,0,0-4.392,1.608C13.3,11.92,14,15,14,15a6.59,6.59,0,0,0,3.436-1.564C18.978,11.894,19,9,19,9Z" fill="#61616b" stroke="none"></path></svg>