<svg xmlns="http://www.w3.org/2000/svg" height="24" width="24" viewBox="0 0 24 24"><polyline data-cap="butt" data-color="color-2" points="7.353 4.143 3 2 3.995 7.005" fill="none" stroke="#61616b" stroke-width="2"></polyline> <polyline data-cap="butt" data-color="color-2" points="16.647 4.143 21 2 20.005 7.005" fill="none" stroke="#61616b" stroke-width="2"></polyline> <path data-color="color-2" data-stroke="none" d="M4.035,6.972a10.037,10.037,0,0,1,3.3-2.815l.016-.014L3,2,4,7.005Z" fill="#61616b" stroke="none"></path> <path data-color="color-2" data-stroke="none" d="M19.965,6.972a10.037,10.037,0,0,0-3.3-2.815l-.016-.014L21,2l-1,5.005Z" fill="#61616b" stroke="none"></path> <path data-color="color-2" data-stroke="none" d="M8,16a4,4,0,0,0,8,0Z" fill="#61616b" stroke="none"></path> <line data-color="color-2" x1="7" y1="10.999" x2="9" y2="11.999" fill="none" stroke="#61616b" stroke-width="2"></line> <line data-color="color-2" x1="15" y1="12" x2="17" y2="10.999" fill="none" stroke="#61616b" stroke-width="2"></line> <circle cx="12" cy="13" r="10" fill="none" stroke="#61616b" stroke-width="2"></circle></svg>