<svg xmlns="http://www.w3.org/2000/svg" height="24" width="24" viewBox="0 0 24 24"><path data-cap="butt" data-color="color-2" d="M23,13v6a3,3,0,0,1-3,3H14a4,4,0,0,1-4-4V17" fill="none" stroke="#61616b" stroke-width="2"></path> <path d="M12,14.5A2.5,2.5,0,0,1,9.5,17h0A2.5,2.5,0,0,1,7,14.5" fill="none" stroke="#61616b" stroke-width="2"></path> <path d="M17,10v4a3,3,0,0,0,3,3h0a3,3,0,0,0,3-3V6a4,4,0,0,0-4-4H5A4,4,0,0,0,1,6v8a3,3,0,0,0,3,3H4a3,3,0,0,0,3-3V10" fill="none" stroke="#61616b" stroke-width="2"></path> <path d="M17,14.5A2.5,2.5,0,0,1,14.5,17h0A2.5,2.5,0,0,1,12,14.5V10" fill="none" stroke="#61616b" stroke-width="2"></path></svg>