<svg xmlns="http://www.w3.org/2000/svg" height="24" width="24" viewBox="0 0 24 24"><path d="M15,5h2a6,6,0,0,1,6,6v6a6,6,0,0,1-6,6H7a6,6,0,0,1-6-6V11A6,6,0,0,1,7,5H9l6-3Z" fill="none" stroke="#61616b" stroke-width="2"></path> <path data-color="color-2" d="M18,12a2,2,0,0,0-4,0" fill="none" stroke="#61616b" stroke-width="2"></path> <path data-color="color-2" d="M10,12a2,2,0,0,0-4,0" fill="none" stroke="#61616b" stroke-width="2"></path> <path data-color="color-2" d="M16,17a2,2,0,0,1-4,0,2,2,0,0,1-4,0" fill="none" stroke="#61616b" stroke-width="2"></path></svg>