<svg xmlns="http://www.w3.org/2000/svg" height="24" width="24" viewBox="0 0 24 24"><rect x="1" y="15" width="22" height="6" rx="3" ry="3" fill="none" stroke="#61616b" stroke-width="2"></rect> <path data-cap="butt" data-color="color-2" d="M7.5,9A2.5,2.5,0,0,1,5,6.5H5A2.5,2.5,0,0,1,7.5,4H14c2,0,5-2,5-2V6.5A2.5,2.5,0,0,1,16.5,9" fill="none" stroke="#61616b" stroke-width="2"></path> <path data-cap="butt" d="M6,15a3,3,0,0,1-3-3H3A3,3,0,0,1,6,9H18a3,3,0,0,1,3,3h0a3,3,0,0,1-3,3" fill="none" stroke="#61616b" stroke-width="2"></path></svg>