<svg xmlns="http://www.w3.org/2000/svg" height="24" width="24" viewBox="0 0 24 24"><path data-cap="butt" d="M9,20.542a10,10,0,1,1,6,0" fill="none" stroke="#61616b" stroke-width="2"></path> <path data-color="color-2" d="M18,10a2,2,0,0,0-4,0" fill="none" stroke="#61616b" stroke-width="2"></path> <path data-color="color-2" d="M10,10a2,2,0,0,0-4,0" fill="none" stroke="#61616b" stroke-width="2"></path> <path data-color="color-2" d="M12,23h0a3,3,0,0,1-3-3V15h6v5A3,3,0,0,1,12,23Z" fill="none" stroke="#61616b" stroke-width="2"></path> <path data-color="color-2" data-stroke="none" d="M6,14a3.992,3.992,0,0,0,3,3.859V15h6v2.859A3.992,3.992,0,0,0,18,14Z" fill="#61616b" stroke="none"></path></svg>