<svg xmlns="http://www.w3.org/2000/svg" height="24" width="24" viewBox="0 0 24 24"><path fill="none" stroke="#61616b" stroke-width="2" d="M19,7c-0.4,0-0.7,0.1-1,0.1 c0,0,0-0.1,0-0.1c0-3.3-2.7-6-6-6C9.7,1,7.8,2.2,6.8,4.1C6.5,4,6.3,4,6,4C3.2,4,1,6.2,1,9c0,2.5,1.8,4.5,4.2,4.9 c0.6,2.9,3.2,5.1,6.3,5.1c2.8,0,5.2-1.8,6.1-4.3C18,14.9,18.5,15,19,15c2.2,0,4-1.8,4-4C23,8.8,21.2,7,19,7z"></path> <circle fill="none" stroke="#61616b" stroke-width="2" cx="3" cy="21" r="2"></circle> <polyline data-color="color-2" fill="none" stroke="#61616b" stroke-width="2" points=" 10,7 13,7 10,12 14,12 "></polyline></svg>