<svg xmlns="http://www.w3.org/2000/svg" height="24" width="24" viewBox="0 0 24 24"><circle cx="12" cy="12" r="11" fill="none" stroke="#61616b" stroke-width="2"></circle> <circle data-color="color-2" data-stroke="none" cx="7.5" cy="10.5" r="1.5" fill="#61616b" stroke="none"></circle> <circle data-color="color-2" data-stroke="none" cx="16.5" cy="10.5" r="1.5" fill="#61616b" stroke="none"></circle> <path data-color="color-2" data-stroke="none" d="M4,17H9.5A1.5,1.5,0,0,0,11,15.5h0A1.5,1.5,0,0,0,9.5,14H7A3.193,3.193,0,0,0,4,17Z" fill="#61616b" stroke="none"></path> <path data-color="color-2" data-stroke="none" d="M20,17H14.5A1.5,1.5,0,0,1,13,15.5h0A1.5,1.5,0,0,1,14.5,14H17A3.193,3.193,0,0,1,20,17Z" fill="#61616b" stroke="none"></path></svg>