<svg xmlns="http://www.w3.org/2000/svg" height="48" width="48" viewBox="0 0 48 48"><path d="M45,38a1,1,0,0,0-.132-.5l-8-14A1,1,0,0,0,36,23H12a1,1,0,0,0-.868.5l-8,14A1,1,0,0,0,3,38H45Z" fill="#e6e6e6"></path><path d="M3,38v5a3,3,0,0,0,3,3H42a3,3,0,0,0,3-3V38Z" fill="#b3b3b3"></path><path d="M21,8V28a3,3,0,0,0,6,0V8Z" fill="#b3b3b3"></path><path d="M21,15.411a7.935,7.935,0,0,0,6,0V8H21Z" fill="#898989"></path><circle cx="24" cy="8" r="6" fill="#ed7064"></circle><ellipse cx="11.5" cy="33.5" rx="2.5" ry="1.5" fill="#72c472"></ellipse></svg>