<svg xmlns="http://www.w3.org/2000/svg" height="48" width="48" viewBox="0 0 48 48"><path d="M24,47a1,1,0,0,1-1-1V40a1,1,0,0,1,2,0v6A1,1,0,0,1,24,47Z" fill="#c8c8c8"></path><path d="M28.857,39.485,26.4,35.392H21.6l-2.456,4.093A1,1,0,0,0,20,41h8a1,1,0,0,0,.857-1.515Z" fill="#ea5da3"></path><path d="M24,1A17.019,17.019,0,0,0,7,18c0,8.969,7.27,19,17,19S41,26.969,41,18A17.019,17.019,0,0,0,24,1Z" fill="#f888c0"></path><path d="M13,19a1,1,0,0,1-1-1A12.013,12.013,0,0,1,24,6a1,1,0,0,1,0,2A10.011,10.011,0,0,0,14,18,1,1,0,0,1,13,19Z" fill="#fddded"></path></svg>