<svg xmlns="http://www.w3.org/2000/svg" height="48" width="48" viewBox="0 0 48 48"><rect x="3" y="3" width="34" height="34" rx="5" fill="#b3b3b3"></rect><path d="M11,14a3,3,0,1,1,3-3A3,3,0,0,1,11,14Zm9,9a3,3,0,1,1,3-3A3,3,0,0,1,20,23Zm9,9a3,3,0,1,1,3-3A3,3,0,0,1,29,32Z" fill="#444"></path><rect x="11" y="11" width="34" height="34" rx="5" fill="#e6e6e6"></rect><path d="M19,40a3,3,0,1,1,3-3A3,3,0,0,1,19,40Zm0-18a3,3,0,1,1,3-3A3,3,0,0,1,19,22Zm9,9a3,3,0,1,1,3-3A3,3,0,0,1,28,31Zm9,9a3,3,0,1,1,3-3A3,3,0,0,1,37,40Zm0-18a3,3,0,1,1,3-3A3,3,0,0,1,37,22Z" fill="#444"></path></svg>