<svg xmlns="http://www.w3.org/2000/svg" height="48" width="48" viewBox="0 0 48 48"><path d="M12.833,43H5.168a1,1,0,0,1-.874-.515A22.447,22.447,0,0,1,2,32a21.855,21.855,0,0,1,1.753-8.6A14.156,14.156,0,0,0,5,18a10.752,10.752,0,0,0-.536-3.358A8.959,8.959,0,0,1,4,12a5,5,0,0,1,10,0,8.959,8.959,0,0,1-.464,2.642A10.752,10.752,0,0,0,13,18a14.156,14.156,0,0,0,1.247,5.4A21.855,21.855,0,0,1,16,32a22.462,22.462,0,0,1-2.293,10.485A1,1,0,0,1,12.833,43Z" fill="#b3b3b3"></path> <path d="M42.833,43H35.168a1,1,0,0,1-.874-.515A22.447,22.447,0,0,1,32,32a21.855,21.855,0,0,1,1.753-8.6A14.156,14.156,0,0,0,35,18a10.752,10.752,0,0,0-.536-3.358A8.959,8.959,0,0,1,34,12a5,5,0,0,1,10,0,8.959,8.959,0,0,1-.464,2.642A10.752,10.752,0,0,0,43,18a14.156,14.156,0,0,0,1.247,5.4A21.855,21.855,0,0,1,46,32a22.462,22.462,0,0,1-2.293,10.485A1,1,0,0,1,42.833,43Z" fill="#b3b3b3"></path> <path d="M34.955,17c.028.306.045.635.045,1s-.037.674-.068,1h8.136c-.031-.326-.068-.645-.068-1s.017-.694.045-1Z" fill="#ed7064"></path> <path d="M29.149,47h-10.3a1,1,0,0,1-.873-.513C16.085,43.1,15,38.185,15,33a29.132,29.132,0,0,1,2.276-10.683A20.673,20.673,0,0,0,19,15a16.665,16.665,0,0,0-.563-4.871A10.927,10.927,0,0,1,18,7,6,6,0,0,1,30,7a10.925,10.925,0,0,1-.437,3.128A16.674,16.674,0,0,0,29,15a20.673,20.673,0,0,0,1.724,7.317A29.132,29.132,0,0,1,33,33c0,5.185-1.085,10.1-2.978,13.487A1,1,0,0,1,29.149,47Z" fill="#e6e6e6"></path> <path d="M4.955,17c.028.306.045.635.045,1s-.037.674-.068,1h8.136c-.031-.326-.068-.645-.068-1s.017-.694.045-1Z" fill="#ed7064"></path> <path d="M18.943,14c.01.309.016.639.016,1,0,.34-.015.673-.04,1H29c-.026-.327-.041-.66-.041-1,0-.361.007-.691.016-1Z" fill="#ed7064"></path></svg>