<svg xmlns="http://www.w3.org/2000/svg" height="48" width="48" viewBox="0 0 48 48"><path d="M8,8V30H40V8Z" fill="#444"></path><path d="M27.515,19.857l-5,3A1,1,0,0,1,21,22V16a1,1,0,0,1,1.515-.857l5,3a1,1,0,0,1,0,1.714Z" fill="#e6e6e6"></path><path d="M39,36H9V33a1,1,0,0,1,1-1H38a1,1,0,0,1,1,1Z" fill="#335262"></path><path d="M43,40H5V37a1,1,0,0,1,1-1H42a1,1,0,0,1,1,1Z" fill="#5a7a84"></path><path d="M47,44H1V41a1,1,0,0,1,1-1H46a1,1,0,0,1,1,1Z" fill="#335262"></path><polygon points="8 30 1 36 1 2 8 8 8 30" fill="#696969"></polygon><polygon points="40 30 47 36 47 2 40 8 40 30" fill="#696969"></polygon></svg>