<svg xmlns="http://www.w3.org/2000/svg" height="48" width="48" viewBox="0 0 48 48"><path d="M40,3H8A5.006,5.006,0,0,0,3,8V40a5.006,5.006,0,0,0,5,5H40a5.006,5.006,0,0,0,5-5V8A5.006,5.006,0,0,0,40,3Z" fill="#e3e3e3"></path><path d="M13.5,38A3.5,3.5,0,1,1,17,34.5,3.5,3.5,0,0,1,13.5,38Zm0-21A3.5,3.5,0,1,1,17,13.5,3.5,3.5,0,0,1,13.5,17ZM24,27.5A3.5,3.5,0,1,1,27.5,24,3.5,3.5,0,0,1,24,27.5ZM34.5,38A3.5,3.5,0,1,1,38,34.5,3.5,3.5,0,0,1,34.5,38Zm0-21A3.5,3.5,0,1,1,38,13.5,3.5,3.5,0,0,1,34.5,17Z" fill="#363636"></path></svg>