<svg xmlns="http://www.w3.org/2000/svg" height="48" width="48" viewBox="0 0 48 48"><path d="M38,3H10A1,1,0,0,0,9,4V24a1,1,0,0,0,1,1H38a1,1,0,0,0,1-1V4A1,1,0,0,0,38,3Z" fill="#a67c52"></path><rect x="11" y="5" width="26" height="18" fill="#c19f85"></rect><rect x="13" y="7" width="22" height="14" fill="#444"></rect><path d="M5,34.04a15.4,15.4,0,0,0,18,.114V31.585a13.4,13.4,0,0,1-18-.113Z" fill="#e6e6e6"></path><path d="M6,43H5V30a1,1,0,0,0-2,0V43H2a1,1,0,0,0,0,2H6a1,1,0,0,0,0-2Z" fill="#b3b3b3"></path><path d="M26,43H25V30a1,1,0,0,0-2,0V43H22a1,1,0,0,0,0,2h4a1,1,0,0,0,0-2Z" fill="#b3b3b3"></path><path d="M25,34.04a15.4,15.4,0,0,0,18,.114V31.585a13.4,13.4,0,0,1-18-.113Z" fill="#e6e6e6"></path><path d="M46,43H45V30a1,1,0,0,0-2,0V43H42a1,1,0,0,0,0,2h4a1,1,0,0,0,0-2Z" fill="#b3b3b3"></path></svg>