<svg xmlns="http://www.w3.org/2000/svg" height="48" width="48" viewBox="0 0 48 48"><path d="M46,1H28a1,1,0,0,0-1,1V46a1,1,0,0,0,1,1H46a1,1,0,0,0,1-1V2A1,1,0,0,0,46,1Z" fill="#e6e6e6"></path><circle cx="37" cy="9" r="2" fill="#b3b3b3"></circle><path d="M24.192,43.8l3.136,2.431A3.455,3.455,0,0,0,29.5,47,3.5,3.5,0,0,0,33,43.5a5.377,5.377,0,0,0-.052-.577L29.837,29.217A5.49,5.49,0,0,0,20.259,27H13.741a5.489,5.489,0,0,0-9.58,2.229L1.077,42.77l-.025.152A5.515,5.515,0,0,0,1,43.5,3.5,3.5,0,0,0,4.5,47a3.441,3.441,0,0,0,2.161-.762L13.42,41h7.161Z" fill="#494949"></path><circle cx="11" cy="40" r="4" fill="#2b2b2b"></circle><circle cx="23" cy="40" r="4" fill="#2b2b2b"></circle><path d="M17,11a1,1,0,0,0-1,1V27h2V12A1,1,0,0,0,17,11Z" fill="#2b2b2b"></path><path d="M13.927,42.709l.02-.024Z" fill="#6970ff"></path><circle cx="11" cy="40" r="2" fill="#494949"></circle><circle cx="23" cy="40" r="2" fill="#494949"></circle><circle cx="9.5" cy="30.5" r="2.5" fill="#2b2b2b"></circle><circle cx="24.5" cy="28" r="1" fill="#ffd764"></circle><circle cx="24.5" cy="33" r="1" fill="#72c472"></circle><circle cx="22" cy="30.5" r="1" fill="#47b0ea"></circle><circle cx="27" cy="30.5" r="1" fill="#ed7064"></circle><path d="M38,47V24a1,1,0,0,0-2,0V47Z" fill="#494949"></path></svg>