<svg xmlns="http://www.w3.org/2000/svg" height="48" width="48" viewBox="0 0 48 48"><path d="M43,9H5a5,5,0,0,0-5,5V34a5,5,0,0,0,5,5H43a5,5,0,0,0,5-5V14A5,5,0,0,0,43,9Z" fill="#444"></path><rect x="15" y="15" width="18" height="18" rx="1.125" fill="#a4dae0"></rect><path d="M9,22V20a1,1,0,0,0-1-1H7a1,1,0,0,0-1,1v2H4a1,1,0,0,0-1,1v1a1,1,0,0,0,1,1H6v2a1,1,0,0,0,1,1H8a1,1,0,0,0,1-1V25h2a1,1,0,0,0,1-1V23a1,1,0,0,0-1-1H9" fill="#b3b3b3"></path><circle cx="37" cy="24" r="1.5" fill="#b3b3b3"></circle><circle cx="44" cy="24" r="1.5" fill="#b3b3b3"></circle><circle cx="40.5" cy="20.5" r="1.5" fill="#b3b3b3"></circle><circle cx="40.5" cy="27.5" r="1.5" fill="#b3b3b3"></circle></svg>