<svg xmlns="http://www.w3.org/2000/svg" height="48" width="48" viewBox="0 0 48 48"><path d="M27,3H41a3,3,0,0,1,3,3V42a3,3,0,0,1-3,3H27a0,0,0,0,1,0,0V3A0,0,0,0,1,27,3Z" fill="#c8c8c8"></path><path d="M35,1H7A3,3,0,0,0,4,4V44a3,3,0,0,0,3,3H35a3,3,0,0,0,3-3V4A3,3,0,0,0,35,1ZM8.639,8.679l-.026-.026a2.141,2.141,0,0,1,.331-3.272A2.2,2.2,0,0,1,12,5.964a2.2,2.2,0,0,1,3.361-.333l.026.025a2.138,2.138,0,0,1-.026,3.023L12,12Zm4.8,16.731A4.916,4.916,0,1,1,21,19.2a4.916,4.916,0,1,1,7.562,6.206L21,33ZM33.387,42.343l-.026.026A2.2,2.2,0,0,1,30,42.036a2.2,2.2,0,0,1-3.361.333,2.137,2.137,0,0,1-.026-3.022l.026-.026L30,36l3.361,3.321A2.137,2.137,0,0,1,33.387,42.343Z" fill="#e3e3e3"></path><path d="M8.639,8.679l-.026-.026a2.141,2.141,0,0,1,.331-3.272A2.2,2.2,0,0,1,12,5.964a2.2,2.2,0,0,1,3.361-.333l.026.025a2.138,2.138,0,0,1-.026,3.023L12,12Zm4.8,16.731A4.916,4.916,0,1,1,21,19.2a4.916,4.916,0,1,1,7.562,6.206L21,33ZM33.387,42.343l-.026.026A2.2,2.2,0,0,1,30,42.036a2.2,2.2,0,0,1-3.361.333,2.137,2.137,0,0,1-.026-3.022l.026-.026L30,36l3.361,3.321A2.137,2.137,0,0,1,33.387,42.343Z" fill="#ff7163"></path></svg>