<svg xmlns="http://www.w3.org/2000/svg" height="48" width="48" viewBox="0 0 48 48"><path d="M8,45H0V40a1,1,0,0,1,1-1H7a1,1,0,0,1,1,1Z" fill="#82adb2"></path><path d="M18,45H10V40a1,1,0,0,1,1-1h6a1,1,0,0,1,1,1Z" fill="#5a7a84"></path><path d="M28,45H20V40a1,1,0,0,1,1-1h6a1,1,0,0,1,1,1Z" fill="#82adb2"></path><path d="M38,45H30V40a1,1,0,0,1,1-1h6a1,1,0,0,1,1,1Z" fill="#5a7a84"></path><path d="M13,37H5V32a1,1,0,0,1,1-1h6a1,1,0,0,1,1,1Z" fill="#5a7a84"></path><path d="M23,37H15V32a1,1,0,0,1,1-1h6a1,1,0,0,1,1,1Z" fill="#82adb2"></path><path d="M33,37H25V32a1,1,0,0,1,1-1h6a1,1,0,0,1,1,1Z" fill="#5a7a84"></path><path d="M43,37H35V32a1,1,0,0,1,1-1h6a1,1,0,0,1,1,1Z" fill="#82adb2"></path><path d="M48,45H40V40a1,1,0,0,1,1-1h6a1,1,0,0,1,1,1Z" fill="#82adb2"></path><path d="M40,3H8A1,1,0,0,0,7,4V26a1,1,0,0,0,1,1H40a1,1,0,0,0,1-1V4A1,1,0,0,0,40,3Z" fill="#444"></path><rect x="9" y="5" width="30" height="18" fill="#ed7064"></rect></svg>