<svg xmlns="http://www.w3.org/2000/svg" height="48" width="48" viewBox="0 0 48 48"><path d="M3,4V27h9A39.815,39.815,0,0,0,20,3H4A1,1,0,0,0,3,4Z" fill="#ed7064"></path><path d="M45,4V27H36A39.815,39.815,0,0,1,28,3H44A1,1,0,0,1,45,4Z" fill="#ed7064"></path><path d="M12,27H3v2h9a1,1,0,0,0,0-2Z" fill="#ffd764"></path><path d="M36,27h9v2H36a1,1,0,0,1,0-2Z" fill="#ffd764"></path><path d="M12.005,29H3V44a1,1,0,0,0,1,1H15a1,1,0,0,0,.966-1.26Z" fill="#a03d34"></path><path d="M35.995,29H45V44a1,1,0,0,1-1,1H33a1,1,0,0,1-.966-1.26Z" fill="#a03d34"></path><path d="M4,3H44a1,1,0,0,1,1,1V5a0,0,0,0,1,0,0H3A0,0,0,0,1,3,5V4A1,1,0,0,1,4,3Z" fill="#444"></path></svg>