<svg xmlns="http://www.w3.org/2000/svg" height="24" width="24" viewBox="0 0 24 24"><g fill="#61616b" class="nc-icon-wrapper"><path d="M2,23a1,1,0,0,1-.707-1.707l7-7a1,1,0,0,1,1.414,1.414l-7,7A1,1,0,0,1,2,23Z" fill="#61616b" data-color="color-2"></path> <path d="M2.877,16.881l1.6-1.6-.028-.091c-.008-.024-.77-2.454.758-3.982L11.145,5.27c1.527-1.526,3.957-.765,4-.751l.072.022,1.6-1.6-1.064-.326c-.147-.05-3.614-1.169-6.025,1.242L3.793,9.793c-2.409,2.409-1.291,5.877-1.249,6Z" fill="#61616b"></path> <path d="M7.119,21.123l1.6-1.6.091.028c.024.008,2.454.77,3.982-.758l5.936-5.937c1.526-1.527.765-3.957.751-4l-.022-.072,1.6-1.6.326,1.064c.05.147,1.169,3.614-1.242,6.025l-5.937,5.936c-2.409,2.409-5.877,1.291-6,1.249Z" fill="#61616b"></path> <path d="M15,10a1,1,0,0,1-.707-1.707l7-7a1,1,0,0,1,1.414,1.414l-7,7A1,1,0,0,1,15,10Z" fill="#61616b" data-color="color-2"></path></svg>