<svg xmlns="http://www.w3.org/2000/svg" height="24" width="24" viewBox="0 0 24 24"><g fill="#61616b" class="nc-icon-wrapper"><path d="M1,22c-.552,0-1-.448-1-1,0-.265,.105-.519,.293-.707l7-7c.397-.384,1.03-.373,1.414,.025,.374,.388,.374,1.002,0,1.389L1.707,21.707c-.187,.188-.442,.293-.707,.293Z" fill="#61616b"></path><path d="M1.877,15.881l1.6-1.6-.028-.091c-.008-.024-.77-2.454,.758-3.982l5.938-5.938c1.527-1.526,3.957-.765,4-.751l.072,.022,1.6-1.6-1.064-.326c-.147-.05-3.614-1.169-6.025,1.242L2.793,8.793c-2.409,2.407-1.293,5.877-1.249,6l.333,1.088Z" fill="#61616b"></path><path d="M14,9c-.552,0-1-.448-1-1,0-.265,.105-.519,.293-.707L20.293,.293c.397-.384,1.03-.373,1.414,.025,.374,.388,.374,1.002,0,1.389l-7,7c-.187,.188-.442,.293-.707,.293Z" fill="#61616b"></path><path d="M18.3,11.015c.691,.029,1.375,.162,2.027,.393,.446-1.349,.466-2.802,.055-4.162l-.322-1.064-1.6,1.6,.022,.072c.296,1.044,.232,2.158-.182,3.161Z" fill="#61616b"></path><path d="M11.017,18.339c-1.011,.437-2.141,.511-3.2,.211l-.091-.028-1.6,1.6,1.088,.333c1.379,.411,2.852,.378,4.212-.093-.236-.65-.374-1.332-.409-2.023Z" fill="#61616b"></path><path data-color="color-2" d="M18,12c-3.314,0-6,2.686-6,6s2.686,6,6,6,6-2.686,6-6-2.686-6-6-6Zm3.5,7h-7c-.276,0-.5-.224-.5-.5v-1c0-.276,.224-.5,.5-.5h7c.276,0,.5,.224,.5,.5v1c0,.276-.224,.5-.5,.5Z" fill="#61616b"></path></svg>