<svg xmlns="http://www.w3.org/2000/svg" height="24" width="24" viewBox="0 0 24 24"><path d="M5.5,4a4.5,4.5,0,0,0,0,9c.021,0,.04-.006.06-.006a23.784,23.784,0,0,1-2.418,6.492,1,1,0,0,0,1.565,1.221C4.923,20.491,10,15.341,10,9a.951.951,0,0,0-.034-.167C9.975,8.721,10,8.614,10,8.5A4.505,4.505,0,0,0,5.5,4Z" fill="#61616b"></path><path d="M23,8.5A4.5,4.5,0,1,0,18.5,13c.021,0,.04-.006.06-.006a23.784,23.784,0,0,1-2.418,6.492,1,1,0,0,0,1.565,1.221C17.923,20.491,23,15.341,23,9a.951.951,0,0,0-.034-.167C22.975,8.721,23,8.614,23,8.5Z" fill="#61616b" data-color="color-2"></path></svg>