<svg xmlns="http://www.w3.org/2000/svg" height="24" width="24" viewBox="0 0 24 24"><g fill="#61616b" class="nc-icon-wrapper"><path d="M14,2H1c-.553,0-1,.448-1,1s.447,1,1,1H14c.553,0,1-.448,1-1s-.447-1-1-1Z" fill="#61616b"></path><path d="M14,8H1c-.553,0-1,.448-1,1s.447,1,1,1H14c.553,0,1-.448,1-1s-.447-1-1-1Z" fill="#61616b"></path><path d="M14,14H1c-.553,0-1,.448-1,1s.447,1,1,1H14c.553,0,1-.448,1-1s-.447-1-1-1Z" fill="#61616b"></path><path d="M14,20H1c-.553,0-1,.448-1,1s.447,1,1,1H14c.553,0,1-.448,1-1s-.447-1-1-1Z" fill="#61616b"></path><path d="M23.434,7.099c-.349-.166-.758-.119-1.059,.121l-5,4c-.237,.189-.375,.477-.375,.781s.138,.591,.375,.781l5,4c.181,.145,.402,.219,.625,.219,.147,0,.296-.033,.434-.099,.346-.167,.566-.517,.566-.901V8c0-.384-.221-.735-.566-.901Z" fill="#61616b" data-color="color-2"></path></svg>