<svg xmlns="http://www.w3.org/2000/svg" height="24" width="24" viewBox="0 0 24 24"><g fill="#61616b" class="nc-icon-wrapper"><path d="M23,9H15c-.552,0-1,.447-1,1s.448,1,1,1h8c.552,0,1-.447,1-1s-.448-1-1-1Z" fill="#61616b"></path><path d="M15,6h8c.552,0,1-.447,1-1s-.448-1-1-1H15c-.552,0-1,.447-1,1s.448,1,1,1Z" fill="#61616b"></path><path d="M23,14H15c-.552,0-1,.447-1,1s.448,1,1,1h8c.552,0,1-.447,1-1s-.448-1-1-1Z" fill="#61616b"></path><path d="M23,19H1c-.552,0-1,.447-1,1s.448,1,1,1H23c.552,0,1-.447,1-1s-.448-1-1-1Z" fill="#61616b"></path><path d="M1.658,15.939c.52,.188,1.093-.078,1.282-.598l.852-2.342h5.417l.852,2.342c.148,.406,.531,.658,.94,.658,.114,0,.229-.02,.342-.061,.519-.188,.787-.762,.598-1.281L7.94,3.658c-.144-.396-.52-.658-.94-.658h-1c-.42,0-.796,.263-.94,.658L1.06,14.658c-.188,.52,.079,1.093,.598,1.281ZM6.5,5.551l1.981,5.449h-3.963l1.981-5.449Z" fill="#61616b" data-color="color-2"></path></svg>