<svg xmlns="http://www.w3.org/2000/svg" height="24" width="24" viewBox="0 0 24 24"><path d="M21,0H3c-.552,0-1,.448-1,1V23c0,.552,.448,1,1,1H21c.552,0,1-.448,1-1V1c0-.552-.448-1-1-1ZM6.025,15.342l1-3c.024-.074,.066-.141,.121-.195l7-7c.195-.195,.512-.195,.707,0l2,2c.195,.195,.195,.512,0,.707l-7,7c-.055,.055-.122,.096-.195,.121l-3,1c-.052,.018-.105,.026-.158,.026-.131,0-.258-.051-.354-.146-.134-.134-.181-.332-.121-.512Zm11.975,4.158c0,.276-.224,.5-.5,.5H6.5c-.276,0-.5-.224-.5-.5v-1c0-.276,.224-.5,.5-.5h11c.276,0,.5,.224,.5,.5v1Z" fill="#61616b"></path></svg>