<svg xmlns="http://www.w3.org/2000/svg" height="24" width="24" viewBox="0 0 24 24"><path d="M16,24c-.256,0-.512-.098-.707-.293l-3-3c-.391-.391-.391-1.023,0-1.414s1.023-.391,1.414,0l2.293,2.293,5.293-5.293c.391-.391,1.023-.391,1.414,0s.391,1.023,0,1.414l-6,6c-.195,.195-.451,.293-.707,.293Z" fill="#61616b" data-color="color-2"></path><path d="M16.282,16.684L10.947,.684c-.136-.408-.519-.684-.949-.684h-1c-.431,0-.812,.275-.949,.684L2.051,18.684c-.175,.524,.108,1.091,.633,1.265,.104,.035,.211,.052,.316,.052,.419,0,.809-.265,.949-.684l1.772-5.316h7.558l1.106,3.316c.174,.523,.74,.809,1.265,.632,.524-.174,.807-.74,.632-1.265ZM6.387,12L9.499,2.662l3.113,9.338H6.387Z" fill="#61616b"></path></svg>