<svg xmlns="http://www.w3.org/2000/svg" height="24" width="24" viewBox="0 0 24 24"><path d="M10,4c-.552,0-1,.448-1,1v6H2V5c0-.552-.447-1-1-1s-1,.448-1,1v14c0,.552,.447,1,.999,1s1-.448,1-1v-6h7v6c0,.552,.447,1,1,1s1-.448,1-1v-6.998s0-.002,0-.002,0-.002,0-.002V5c0-.552-.447-1-1-1Z" fill="#61616b"></path><path d="M23,15h-2V5c0-.552-.448-1-1-1h-.203c-.347,0-.668,.18-.851,.474l-6.797,11c-.191,.309-.199,.696-.023,1.013,.177,.317,.511,.513,.874,.513h6v2c0,.552,.448,1,1,1s1-.448,1-1v-2h2c.552,0,1-.448,1-1s-.448-1-1-1Zm-4,0h-4.207l4.207-6.808v6.808Z" fill="#61616b" data-color="color-2"></path></svg>