<svg xmlns="http://www.w3.org/2000/svg" height="24" width="24" viewBox="0 0 24 24"><path d="M10,4c-.552,0-1,.448-1,1v6H2V5c0-.552-.447-1-1-1s-1,.448-1,1v14c0,.552,.447,1,.999,1s1-.448,1-1v-6h7v6c0,.552,.447,1,1,1s1-.448,1-1v-6.998s0-.002,0-.002,0-.002,0-.002V5c0-.552-.447-1-1-1Z" fill="#61616b"></path><path d="M19.241,9.266c-1.209-.194-2.449,.022-3.538,.586l.356-3.852h6.296c.552,0,1-.448,1-1s-.448-1-1-1h-7.208c-.517,0-.948,.394-.996,.908l-.647,7c-.026,.28,.115,.558,.305,.766,.389,.427,1.185,.41,1.555-.034,.895-1.073,2.256-1.61,3.557-1.4,1.402,.227,2.955,1.395,3.071,3.112,.059,.863-.28,1.761-.928,2.462-.688,.743-1.619,1.176-2.556,1.186-1.498-.005-2.854-1-3.426-2.527-.194-.517-.769-.778-1.288-.585-.517,.194-.779,.771-.585,1.288,.86,2.294,2.971,3.825,5.266,3.825h.055c1.485-.016,2.944-.682,4.003-1.828,1.021-1.104,1.55-2.545,1.455-3.955-.166-2.45-2.162-4.532-4.747-4.951Z" fill="#61616b" data-color="color-2"></path></svg>