<svg xmlns="http://www.w3.org/2000/svg" height="24" width="24" viewBox="0 0 24 24"><path d="M12,4c-.552,0-1,.448-1,1v6H4V5c0-.552-.447-1-1-1s-1,.448-1,1v14c0,.552,.446,1,.999,1s1-.448,1-1v-6h7v6c0,.552,.447,1,1,1s1-.448,1-1v-6.998s0-.002,0-.002,0-.002,0-.002V5c0-.552-.447-1-1-1Z" fill="#61616b"></path><path d="M21.482,4.124c-.319-.176-.709-.164-1.018,.031l-4.364,2.766c-.467,.296-.605,.914-.31,1.38,.296,.467,.913,.605,1.38,.31l2.829-1.793v12.183c0,.552,.447,1,1,1s1-.448,1-1V5c0-.365-.198-.7-.518-.876Z" fill="#61616b" data-color="color-2"></path></svg>