<svg xmlns="http://www.w3.org/2000/svg" height="24" width="24" viewBox="0 0 24 24"><path d="M10,4c-.552,0-1,.448-1,1v6H2V5c0-.552-.447-1-1-1s-1,.448-1,1v14c0,.552,.447,1,.999,1s1-.448,1-1v-6h7v6c0,.552,.447,1,1,1s1-.448,1-1v-6.998s0-.002,0-.002,0-.002,0-.002V5c0-.552-.447-1-1-1Z" fill="#61616b"></path><path d="M19.208,9.509c-1.768,0-3.189,.556-4.186,1.592,.182-2.25,1.458-5.029,3.702-5.099,2.105-.071,2.961,1.525,3.005,1.609,.249,.488,.846,.686,1.338,.44,.494-.247,.695-.848,.448-1.341-.058-.115-1.444-2.822-4.853-2.708-3.498,.109-5.663,4.052-5.663,7.644,0,1.363,.148,2.583,.433,3.643,.012,.065,.029,.128,.053,.188,.819,2.833,2.64,4.466,5.204,4.521,.031,0,.062,0,.094,0,2.417,0,5.064-1.992,5.209-5.02,.073-1.515-.46-2.987-1.461-4.038-.881-.925-2.062-1.434-3.325-1.434Zm-.476,8.49c-1.889-.04-2.833-1.438-3.298-2.992,.27-2.353,1.505-3.498,3.773-3.498,.91,0,1.523,.442,1.876,.814,.617,.647,.958,1.604,.911,2.562-.098,2.048-1.987,3.148-3.263,3.114Z" fill="#61616b" data-color="color-2"></path></svg>