<svg xmlns="http://www.w3.org/2000/svg" height="24" width="24" viewBox="0 0 24 24"><path d="M11.001,4c-.552,0-1,.448-1,1v6H3.001V5c0-.552-.447-1-1-1s-1,.448-1,1v14c0,.552,.447,1,.999,1s1-.448,1-1v-6h7v6c0,.552,.447,1,1,1s1-.448,1-1v-6.998s0-.002,0-.002,0-.002,0-.002V5c0-.552-.447-1-1-1Z" fill="#61616b"></path><path d="M23.999,8.152c-.055-2.29-2.253-4.152-4.9-4.152-2.123,0-3.918,1.065-4.805,2.849-.246,.495-.044,1.095,.451,1.34,.495,.248,1.095,.044,1.34-.451,.549-1.105,1.647-1.739,3.014-1.739,1.704,0,2.875,1.138,2.901,2.201,.01,.435-.227,.924-.669,1.376-.87,.891-2.286,1.423-3.789,1.423-.552,0-1,.448-1,1s.448,1,1,1c1.503,0,2.919,.532,3.789,1.423,.442,.453,.679,.941,.669,1.376-.026,1.063-1.198,2.201-2.901,2.201-1.366,0-2.465-.634-3.014-1.739-.245-.494-.845-.698-1.34-.451-.495,.246-.696,.846-.451,1.34,.886,1.784,2.682,2.849,4.805,2.849,2.647,0,4.845-1.863,4.9-4.153,.024-.978-.416-1.98-1.237-2.822-.384-.393-.837-.738-1.34-1.025,.502-.288,.956-.632,1.34-1.025,.821-.841,1.261-1.844,1.237-2.822Z" fill="#61616b" data-color="color-2"></path></svg>