<svg xmlns="http://www.w3.org/2000/svg" height="24" width="24" viewBox="0 0 24 24"><path d="M10,4c-.553,0-1,.448-1,1v6H2V5c0-.552-.447-1-1-1s-1,.448-1,1v14c0,.552,.447,1,1,1s1-.448,1-1v-6h7v6c0,.552,.447,1,1,1s1-.448,1-1V5c0-.552-.447-1-1-1Z" fill="#61616b"></path><path d="M23,18h-5.775c.841-.945,1.827-2.049,2.346-2.616,2.369-2.586,3.921-4.458,3.911-6.815-.003-.752-.177-1.473-.504-2.084-.76-1.42-2.336-2.345-4.218-2.473-2.467-.18-4.743,1.528-5.314,3.94-.128,.538,.204,1.076,.742,1.204,.533,.125,1.076-.206,1.203-.742,.351-1.474,1.757-2.504,3.234-2.407,1.188,.081,2.156,.612,2.589,1.421,.121,.226,.266,.608,.268,1.147,.006,1.5-1.04,2.896-3.386,5.458-1.021,1.116-3.845,4.304-3.845,4.304-.261,.295-.324,.715-.163,1.074,.162,.359,.519,.589,.912,.589h8c.553,0,1-.448,1-1s-.447-1-1-1Z" fill="#61616b" data-color="color-2"></path></svg>