<svg xmlns="http://www.w3.org/2000/svg" height="24" width="24" viewBox="0 0 24 24"><path d="M23,20H10c-.552,0-1,.448-1,1s.448,1,1,1h13c.552,0,1-.448,1-1s-.448-1-1-1Z" fill="#61616b"></path><path d="M23,14H10c-.552,0-1,.448-1,1s.448,1,1,1h13c.552,0,1-.448,1-1s-.448-1-1-1Z" fill="#61616b"></path><path d="M23,8H10c-.552,0-1,.448-1,1s.448,1,1,1h13c.552,0,1-.448,1-1s-.448-1-1-1Z" fill="#61616b"></path><path d="M23,2H10c-.552,0-1,.448-1,1s.448,1,1,1h13c.552,0,1-.448,1-1s-.448-1-1-1Z" fill="#61616b"></path><path d="M1.625,7.219c-.3-.241-.713-.287-1.058-.121-.347,.167-.567,.517-.567,.901v8c0,.384,.22,.735,.567,.901,.138,.066,.286,.099,.433,.099,.223,0,.444-.075,.625-.219l5-4c.237-.189,.375-.477,.375-.781s-.138-.591-.375-.781L1.625,7.219Z" fill="#61616b" data-color="color-2"></path></svg>