<svg xmlns="http://www.w3.org/2000/svg" height="24" width="24" viewBox="0 0 24 24"><path d="M2,3H22c.553,0,1-.448,1-1s-.447-1-1-1H2c-.553,0-1,.448-1,1s.447,1,1,1Z" fill="#61616b"></path><path d="M22,21H2c-.553,0-1,.448-1,1s.447,1,1,1H22c.553,0,1-.448,1-1s-.447-1-1-1Z" fill="#61616b"></path><path d="M12.25,5h-.5c-.43,0-.811,.274-.948,.681l-4.036,12c-.176,.523,.106,1.091,.63,1.267,.525,.179,1.091-.106,1.267-.629l1.116-3.319h4.443l1.116,3.319c.141,.417,.53,.682,.948,.682,.105,0,.213-.017,.318-.053,.523-.176,.806-.743,.63-1.267L13.198,5.681c-.138-.407-.519-.681-.948-.681Zm-1.799,8l1.549-4.606,1.549,4.606h-3.098Z" fill="#61616b" data-color="color-2"></path></svg>