<svg xmlns="http://www.w3.org/2000/svg" height="24" width="24" viewBox="0 0 24 24"><path d="M21,7c-.552,0-1,.448-1,1v.111c-.837-.694-1.874-1.111-3-1.111-2.757,0-5,2.467-5,5.5s2.243,5.5,5,5.5c1.126,0,2.163-.417,3-1.111v1.808c0,1.537-1.391,2.195-2.582,2.292-1.63,.12-2.589-1.006-2.637-1.065-.341-.429-.967-.501-1.399-.163-.434,.341-.51,.97-.169,1.404,.062,.079,1.47,1.834,3.938,1.834,.139,0,.282-.005,.428-.018,2.603-.21,4.42-1.972,4.42-4.285V8c0-.552-.448-1-1-1Zm-4,9c-1.654,0-3-1.57-3-3.5s1.346-3.5,3-3.5,3,1.57,3,3.5-1.346,3.5-3,3.5Z" fill="#61616b" data-color="color-2"></path><path d="M10,14.338v-3.588c0-2.048-1.493-3.549-3.714-3.734-1.748-.147-3.417,.715-4.363,2.245-.291,.47-.146,1.086,.324,1.376s1.086,.146,1.376-.324c.541-.874,1.511-1.389,2.497-1.304,1.195,.1,1.88,.734,1.88,1.741v.54c-1.099-.012-2.78,.029-3.8,.337-1.97,.593-2.75,2.376-2.502,3.832,.27,1.591,1.657,2.729,3.313,2.729,.022,0,.045,0,.068,0,1.087-.02,2.103-.386,2.956-1.017,.083,.468,.474,.83,.966,.83,.552,0,1-.448,1-1v-2.66s0-.002,0-.002Zm-4.959,1.849c-.599,.017-1.251-.35-1.372-1.062-.097-.572,.208-1.312,1.107-1.582,.735-.222,2.176-.261,3.224-.25v.819c-.695,1.493-1.969,2.058-2.959,2.076Z" fill="#61616b"></path></svg>