<svg xmlns="http://www.w3.org/2000/svg" height="24" width="24" viewBox="0 0 24 24"><path d="M23,4H11c-.552,0-1,.448-1,1s.448,1,1,1h12c.552,0,1-.448,1-1s-.448-1-1-1Z" fill="#61616b"></path><path d="M23,11H11c-.552,0-1,.448-1,1s.448,1,1,1h12c.552,0,1-.448,1-1s-.448-1-1-1Z" fill="#61616b"></path><path d="M23,18H11c-.552,0-1,.448-1,1s.448,1,1,1h12c.552,0,1-.448,1-1s-.448-1-1-1Z" fill="#61616b"></path><path d="M6.207,20h-2.059c.259-.277,.487-.517,.679-.717l.189-.198c1.127-1.176,1.941-2.026,1.937-3.338-.001-.451-.108-.886-.307-1.259-.456-.853-1.384-1.407-2.482-1.481-1.482-.102-2.792,.877-3.136,2.322-.127,.537,.205,1.076,.742,1.204,.537,.125,1.076-.205,1.204-.742,.115-.482,.568-.822,1.054-.789,.395,.027,.729,.195,.854,.428,.026,.049,.071,.157,.071,.324,.002,.483-.447,.973-1.381,1.948l-.191,.2c-.496,.519-1.23,1.298-2.125,2.292-.165,.184-.256,.421-.256,.668v.138c0,.552,.448,1,1,1H6.207c.552,0,1-.448,1-1s-.448-1-1-1Z" fill="#61616b" data-color="color-2"></path><path d="M2.353,5.228l.647-.41v5.183c0,.552,.448,1,1,1s1-.448,1-1V3c0-.365-.198-.7-.518-.876-.319-.177-.71-.163-1.017,.031L1.283,3.538c-.467,.296-.605,.914-.31,1.38,.295,.467,.914,.604,1.38,.31Z" fill="#61616b" data-color="color-2"></path></svg>