<svg xmlns="http://www.w3.org/2000/svg" height="24" width="24" viewBox="0 0 24 24"><path d="M11.841,23c-3.545,0-6.246-1.858-7.453-5.157-.19-.519,.077-1.093,.595-1.283,.517-.191,1.093,.077,1.283,.595,1.292,3.528,4.309,3.923,5.988,3.834,2.606-.128,5.418-1.73,5.418-4.097,0-.254-.02-.496-.06-.718-.097-.544,.266-1.063,.809-1.16,.55-.097,1.063,.266,1.16,.809,.061,.338,.091,.698,.091,1.069,0,3.59-3.722,5.918-7.321,6.095-.172,.008-.342,.012-.511,.012Z" fill="#61616b"></path><path d="M13.896,13h-.441c-.089,0-.178-.012-.263-.035-.396-.108-.797-.21-1.199-.312-3.145-.801-7.06-1.799-7.06-6.011,0-3.153,3.031-5.578,7.051-5.641,3.11-.028,5.842,1.701,7.117,4.567,.225,.504-.002,1.095-.507,1.32-.504,.227-1.095-.003-1.32-.507-.943-2.121-2.924-3.397-5.258-3.379-2.498,.039-5.082,1.412-5.082,3.641,0,2.529,2.11,3.195,5.554,4.073,.368,.094,.737,.188,1.101,.286h.308c.552,0,1,.448,1,1s-.448,1-1,1Z" fill="#61616b"></path><path d="M23,13H1c-.552,0-1-.448-1-1s.448-1,1-1H23c.552,0,1,.448,1,1s-.448,1-1,1Z" fill="#61616b" data-color="color-2"></path></svg>