<svg xmlns="http://www.w3.org/2000/svg" height="24" width="24" viewBox="0 0 24 24"><path d="M9.202,12L14.832,3.555c.306-.459,.182-1.081-.277-1.387-.46-.308-1.081-.183-1.387,.277l-5.168,7.752L2.832,2.445c-.307-.46-.928-.585-1.387-.277-.459,.306-.583,.927-.277,1.387L6.798,12,1.168,20.445c-.306,.459-.182,1.081,.277,1.387,.17,.114,.363,.168,.554,.168,.323,0,.64-.156,.833-.445l5.168-7.752,5.168,7.752c.193,.289,.51,.445,.833,.445,.19,0,.383-.054,.554-.168,.459-.306,.583-.927,.277-1.387l-5.63-8.445Z" fill="#61616b"></path><path d="M22.594,23h-4.207c-.552,0-1-.448-1-1v-.138c0-.247,.091-.485,.256-.668,.894-.994,1.628-1.773,2.124-2.292l.191-.199c.935-.975,1.384-1.464,1.382-1.948,0-.174-.049-.282-.07-.321-.126-.236-.461-.404-.855-.431-.466-.024-.939,.306-1.054,.789-.127,.538-.672,.868-1.204,.743-.538-.127-.87-.667-.743-1.204,.343-1.445,1.645-2.429,3.136-2.323,1.099,.074,2.026,.628,2.482,1.481,.138,.256,.305,.685,.308,1.258,.005,1.314-.81,2.164-1.938,3.341l-.189,.197c-.191,.2-.418,.44-.678,.717h2.059c.552,0,1,.448,1,1s-.448,1-1,1Zm-4.207-1.138h0Z" fill="#61616b" data-color="color-2"></path></svg>