<svg xmlns="http://www.w3.org/2000/svg" height="24" width="24" viewBox="0 0 24 24"><path d="M20,1H4c-1.654,0-3,1.346-3,3V20c0,1.654,1.346,3,3,3H20c1.654,0,3-1.346,3-3V4c0-1.654-1.346-3-3-3Zm-3.396,17.948c-.105,.036-.213,.053-.318,.053-.418,0-.808-.264-.948-.682l-1.116-3.319h-4.443l-1.116,3.319c-.176,.523-.742,.807-1.267,.629-.523-.176-.806-.743-.63-1.267L10.802,5.681c.138-.407,.519-.681,.948-.681h.5c.43,0,.811,.274,.948,.681l4.036,12c.176,.523-.106,1.091-.63,1.267Z" fill="#61616b"></path><polygon points="10.451 13 13.549 13 12 8.394 10.451 13" fill="#61616b"></polygon></svg>