<svg xmlns="http://www.w3.org/2000/svg" height="24" width="24" viewBox="0 0 24 24"><path d="M23.5,5c.196,0,.374-.115,.455-.293s.051-.388-.079-.536L20.376,.171c-.189-.218-.562-.218-.752,0l-3.5,4c-.13,.147-.16,.357-.079,.536s.259,.293,.455,.293h2.5v14h-2.5c-.196,0-.374,.115-.455,.293s-.051,.388,.079,.536l3.5,4c.095,.109,.231,.171,.376,.171s.281-.062,.376-.171l3.5-4c.13-.147,.16-.357,.079-.536s-.259-.293-.455-.293h-2.5V5h2.5Z" fill="#61616b" data-color="color-2"></path><path d="M13,5H1c-.553,0-1,.448-1,1s.447,1,1,1H6v12c0,.552,.447,1,1,1s1-.448,1-1V7h5c.553,0,1-.448,1-1s-.447-1-1-1Z" fill="#61616b"></path></svg>