<svg xmlns="http://www.w3.org/2000/svg" height="24" width="24" viewBox="0 0 24 24"><path d="M23.829,19.624l-4-3.5c-.147-.128-.356-.159-.536-.079-.179,.081-.293,.259-.293,.455v2.5H5v-2.5c0-.196-.114-.374-.293-.455-.18-.081-.389-.051-.536,.079L.171,19.624c-.108,.095-.171,.232-.171,.376s.062,.281,.171,.376l4,3.5c.093,.081,.21,.124,.329,.124,.07,0,.141-.015,.207-.045,.179-.081,.293-.259,.293-.455v-2.5h14v2.5c0,.196,.114,.374,.293,.455,.066,.03,.137,.045,.207,.045,.119,0,.236-.042,.329-.124l4-3.5c.108-.095,.171-.232,.171-.376s-.062-.281-.171-.376Z" fill="#61616b" data-color="color-2"></path><path d="M12.164,14.942c.518,.184,1.092-.086,1.277-.605l1.192-3.336h4.305l1.191,3.336c.146,.409,.53,.664,.941,.664,.111,0,.226-.019,.336-.059,.521-.186,.792-.758,.605-1.278L17.728,1.664c-.142-.398-.519-.664-.941-.664s-.8,.266-.941,.664l-4.286,12c-.187,.52,.085,1.092,.605,1.278Zm4.622-9.969l1.438,4.027h-2.877l1.438-4.027Z" fill="#61616b"></path><path d="M6.272,14.336c.142,.398,.519,.664,.941,.664s.8-.266,.941-.664L12.441,2.336c.187-.52-.085-1.092-.605-1.278-.519-.188-1.093,.086-1.277,.605l-3.345,9.363L3.87,1.664c-.186-.52-.76-.792-1.277-.605-.521,.186-.792,.758-.605,1.278L6.272,14.336Z" fill="#61616b"></path></svg>