<svg xmlns="http://www.w3.org/2000/svg" height="24" width="24" viewBox="0 0 24 24"><path d="M23,17H1c-.552,0-1,.448-1,1v5c0,.552,.448,1,1,1H23c.552,0,1-.448,1-1v-5c0-.552-.448-1-1-1Z" fill="#61616b" data-color="color-2"></path><path d="M7.396,13.948c.527,.178,1.091-.106,1.267-.629l1.116-3.319h4.443l1.116,3.319c.141,.417,.53,.682,.948,.682,.105,0,.213-.017,.319-.053,.523-.176,.805-.743,.629-1.267L13.198,.681c-.137-.407-.518-.681-.948-.681h-.5c-.43,0-.811,.274-.948,.681L6.767,12.681c-.176,.523,.105,1.091,.629,1.267ZM12,3.394l1.549,4.606h-3.098l1.549-4.606Z" fill="#61616b"></path></svg>