<svg xmlns="http://www.w3.org/2000/svg" height="24" width="24" viewBox="0 0 24 24"><path d="M19.829,15.124c-.147-.128-.356-.159-.536-.079-.179,.081-.293,.259-.293,.455v2.5H5v-2.5c0-.196-.114-.374-.293-.455s-.389-.051-.536,.079L.171,18.624c-.108,.095-.171,.232-.171,.376s.062,.281,.171,.376l4,3.5c.093,.081,.21,.124,.329,.124,.07,0,.141-.015,.207-.045,.179-.081,.293-.259,.293-.455v-2.5h14v2.5c0,.196,.114,.374,.293,.455,.066,.03,.137,.045,.207,.045,.119,0,.236-.042,.329-.124l4-3.5c.108-.095,.171-.232,.171-.376s-.062-.281-.171-.376l-4-3.5Z" fill="#61616b" data-color="color-2"></path><path d="M6,3h5V15c0,.552,.447,1,1,1s1-.448,1-1V3h5c.553,0,1-.448,1-1s-.447-1-1-1H6c-.553,0-1,.448-1,1s.447,1,1,1Z" fill="#61616b"></path></svg>