<svg xmlns="http://www.w3.org/2000/svg" height="24" width="24" viewBox="0 0 24 24"><path d="M7.197,4.679c-.138-.406-.519-.679-.947-.679h-.5c-.429,0-.81,.273-.947,.679L.053,18.679c-.177,.523,.103,1.091,.626,1.268,.524,.179,1.091-.103,1.269-.625l1.466-4.321h5.173l1.466,4.321c.142,.417,.53,.679,.947,.679,.106,0,.215-.018,.321-.054,.523-.177,.803-.745,.626-1.268L7.197,4.679Zm-3.105,8.321l1.908-5.625,1.908,5.625h-3.816Z" fill="#61616b"></path><path d="M22,7c-.553,0-1,.448-1,1v.111c-.837-.694-1.874-1.111-3-1.111-2.757,0-5,2.467-5,5.5s2.243,5.5,5,5.5c1.126,0,2.163-.417,3-1.111v1.808c0,1.537-1.391,2.195-2.582,2.292-1.614,.123-2.589-1.006-2.637-1.065-.341-.428-.966-.501-1.398-.163-.435,.341-.511,.97-.169,1.404,.062,.079,1.47,1.834,3.938,1.834,.14,0,.282-.005,.428-.018,2.604-.21,4.421-1.972,4.421-4.285V8c0-.552-.447-1-1-1Zm-4,9c-1.654,0-3-1.57-3-3.5s1.346-3.5,3-3.5,3,1.57,3,3.5-1.346,3.5-3,3.5Z" fill="#61616b" data-color="color-2"></path></svg>