<svg xmlns="http://www.w3.org/2000/svg" height="24" width="24" viewBox="0 0 24 24"><path d="M7.197,4.679c-.138-.406-.519-.679-.947-.679h-.5c-.428,0-.809,.273-.947,.679L.053,18.679c-.178,.523,.103,1.091,.625,1.268,.522,.176,1.09-.103,1.268-.625l1.466-4.321h5.174l1.466,4.321c.141,.417,.53,.679,.947,.679,.106,0,.215-.018,.321-.054,.523-.177,.803-.745,.625-1.268L7.197,4.679Zm-3.105,8.321l1.908-5.625,1.908,5.625h-3.817Z" fill="#61616b"></path><path d="M23,12h-4c-.552,0-1,.448-1,1s.448,1,1,1h2.956c-.131,1.295-.55,2.325-1.231,3.011-.652,.656-1.527,.989-2.603,.989-2.848,0-4.122-2.939-4.122-5.852,0-3.06,1.274-6.148,4.122-6.148,1.804,0,2.871,1.463,3.448,2.69,.006,.012,.049,.101,.055,.113,.25,.483,.825,.638,1.312,.396,.488-.241,.674-.868,.442-1.36-1.165-2.475-3.032-3.838-5.258-3.838-4.229,0-6.122,4.092-6.122,8.148,0,4.623,2.518,7.852,6.122,7.852,1.604,0,2.995-.546,4.021-1.58,1.23-1.239,1.873-3.116,1.856-5.427-.004-.55-.451-.993-1-.993Z" fill="#61616b" data-color="color-2"></path></svg>