<svg xmlns="http://www.w3.org/2000/svg" height="24" width="24" viewBox="0 0 24 24"><path d="M18.459,12.105l-6-3a1,1,0,0,0-.895,0l-6,3A1,1,0,0,0,5.012,13v7a1,1,0,0,0,.553.895l6,3a1,1,0,0,0,.894,0l6-3A1,1,0,0,0,19.012,20V13A1,1,0,0,0,18.459,12.105Zm-6.447-.987L15.776,13l-3.764,1.882L8.248,13Zm-5,3.5,4,2v4.764l-4-2Zm6,6.764V16.618l4-2v4.764Z" fill="#61616b" data-color="color-2"></path><path d="M24,0H0V2H7V3a1,1,0,0,0,.757.97L11,4.78V6a1,1,0,0,0,2,0V4.78l3.243-.81A1,1,0,0,0,17,3V2h7Z" fill="#61616b"></path></svg>