<svg xmlns="http://www.w3.org/2000/svg" height="24" width="24" viewBox="0 0 24 24"><path d="M18,17a1.993,1.993,0,0,1,1.722,1H20a4,4,0,0,0,4-4,3.947,3.947,0,0,0-.4-1.733A6.966,6.966,0,0,1,19,14a1,1,0,0,1,0-2A5,5,0,0,0,19,2c-.061,0-.118.016-.178.018A2.995,2.995,0,1,0,16,6h.278a2,2,0,1,1,0,2H16a4.982,4.982,0,0,1-4-2.031A4.982,4.982,0,0,1,8,8H7.722a2,2,0,1,1,0-2H8A3,3,0,1,0,5.178,2.018C5.118,2.016,5.061,2,5,2A5,5,0,0,0,5,12a1,1,0,0,1,0,2A6.966,6.966,0,0,1,.4,12.267,3.947,3.947,0,0,0,0,14a4,4,0,0,0,4,4h.278a2,2,0,1,1,0,2H4a5.964,5.964,0,0,1-2.98-.8A4.992,4.992,0,0,0,11,19V14.723a2,2,0,1,1,2,0V19a4.992,4.992,0,0,0,9.98.2A5.964,5.964,0,0,1,20,20h-.278A2,2,0,1,1,18,17Z" fill="#61616b"></path></svg>