<svg xmlns="http://www.w3.org/2000/svg" height="24" width="24" viewBox="0 0 24 24"><path d="M13,6H8A4.948,4.948,0,0,0,5,7.026V1A1,1,0,0,0,3,1V21a3,3,0,0,0,3,3h9a3,3,0,0,0,3-3V11A5.006,5.006,0,0,0,13,6ZM8,8h5a3,3,0,0,1,3,3v5a1,1,0,0,1-1,1H6a1,1,0,0,1-1-1V11A3,3,0,0,1,8,8Z" fill="#61616b"></path><path d="M15,4a1,1,0,0,0,1-1V1a1,1,0,0,0-2,0V3A1,1,0,0,0,15,4Z" fill="#61616b" data-color="color-2"></path><path d="M21.364,2.636a1,1,0,0,0-1.415,0L18.535,4.051A1,1,0,0,0,19.95,5.465L21.364,4.05A1,1,0,0,0,21.364,2.636Z" fill="#61616b" data-color="color-2"></path><path d="M23,8H21a1,1,0,0,0,0,2h2a1,1,0,0,0,0-2Z" fill="#61616b" data-color="color-2"></path></svg>