<svg xmlns="http://www.w3.org/2000/svg" height="24" width="24" viewBox="0 0 24 24"><path data-color="color-2" fill="#61616b" d="M19,22H7v-5H5v6c0,0.552,0.447,1,1,1h14c0.553,0,1-0.448,1-1v-7h-2V22z"></path> <rect x="17" fill="#61616b" width="6" height="2"></rect> <path fill="#61616b" d="M12,9V4c0-0.552-0.447-1-1-1h-1V0H8v3H4V0H2v3H1C0.447,3,0,3.448,0,4v5c0,3.309,2.691,6,6,6S12,12.309,12,9z "></path> <path fill="#61616b" d="M23,3h-6c-0.553,0-1,0.448-1,1v9c0,0.552,0.447,1,1,1h6c0.553,0,1-0.448,1-1V4C24,3.448,23.553,3,23,3z"></path></svg>