<svg xmlns="http://www.w3.org/2000/svg" height="24" width="24" viewBox="0 0 24 24"><path d="M8,4c0-1.103-.897-2-2-2s-2,.897-2,2c0,.737,.405,1.375,1,1.722v3.278h2v-3.278c.595-.347,1-.985,1-1.722Z" fill="#61616b"></path><path d="M19.817,12.002c-.012-.032-.018-.066-.03-.098-.438-1.113-1.518-1.904-2.786-1.904h-.333l-2.667,2c-.438,.328-.955,.501-1.498,.501-1.379,0-2.502-1.122-2.502-2.501H3c-1.654,0-3,1.346-3,3v8c0,1.654,1.346,3,3,3h14c1.654,0,3-1.346,3-3V13c0-.197-.021-.389-.058-.575-.029-.147-.076-.285-.125-.423Zm-14.317,5.998c-.827,0-1.5-.673-1.5-1.5s.673-1.5,1.5-1.5,1.5,.673,1.5,1.5-.673,1.5-1.5,1.5Zm9,0c-.827,0-1.5-.673-1.5-1.5s.673-1.5,1.5-1.5,1.5,.673,1.5,1.5-.673,1.5-1.5,1.5Z" fill="#61616b"></path><path d="M12,10V2c0-1.105,.895-2,2-2h8c1.105,0,2,.895,2,2V6c0,1.105-.895,2-2,2h-6l-3.2,2.4c-.33,.247-.8,.012-.8-.4Z" fill="#61616b" data-color="color-2"></path></svg>