<svg xmlns="http://www.w3.org/2000/svg" height="24" width="24" viewBox="0 0 24 24"><path d="M3.833,16.544a1,1,0,0,1-.805-1.592A4.959,4.959,0,0,0,4,12a4.959,4.959,0,0,0-.972-2.952A1,1,0,1,1,4.64,7.864,6.948,6.948,0,0,1,6,12a6.948,6.948,0,0,1-1.36,4.136A1,1,0,0,1,3.833,16.544Z" fill="#61616b" data-color="color-2"></path><path d="M8.3,18.858a1,1,0,0,1-.845-1.534A9.958,9.958,0,0,0,9,12,9.958,9.958,0,0,0,7.453,6.676,1,1,0,0,1,9.145,5.607,11.969,11.969,0,0,1,11,12a11.969,11.969,0,0,1-1.855,6.393A1,1,0,0,1,8.3,18.858Z" fill="#61616b"></path><path d="M12.742,21.163a.987.987,0,0,1-.51-.141,1,1,0,0,1-.348-1.371A14.974,14.974,0,0,0,14,12a14.974,14.974,0,0,0-2.116-7.651A1,1,0,0,1,13.6,3.325,16.984,16.984,0,0,1,16,12a16.984,16.984,0,0,1-2.4,8.675A1,1,0,0,1,12.742,21.163Z" fill="#61616b" data-color="color-2"></path><path d="M17.187,23.468a1,1,0,0,1-.866-1.5A19.976,19.976,0,0,0,19,12,20.036,20.036,0,0,0,16.321,2a1,1,0,0,1,1.733-1A22.054,22.054,0,0,1,21,12a21.994,21.994,0,0,1-2.946,10.968A1,1,0,0,1,17.187,23.468Z" fill="#61616b"></path></svg>