<svg xmlns="http://www.w3.org/2000/svg" height="24" width="24" viewBox="0 0 24 24"><path d="M24,8a2.989,2.989,0,0,0-5.215-2.006l-6.8-2.834c0-.054.016-.1.016-.16A3,3,0,0,0,6,3a2.968,2.968,0,0,0,.606,1.789L3.731,9.1A2.937,2.937,0,0,0,3,9a3,3,0,1,0,2.963,3.366L17.57,9.787,10.4,16.362A2.957,2.957,0,0,0,9,16a3,3,0,1,0,2.76,1.826l7.819-7.167-1.138,7.4a3.021,3.021,0,1,0,1.975.315l1.143-7.429A3,3,0,0,0,24,8ZM11.215,5.006l6.486,2.7-12.166,2.7c-.044-.07-.092-.135-.141-.2L8.269,5.9A2.937,2.937,0,0,0,9,6,2.984,2.984,0,0,0,11.215,5.006Z" fill="#61616b"></path></svg>