<svg xmlns="http://www.w3.org/2000/svg" height="24" width="24" viewBox="0 0 24 24"><path d="M20.707,4.293a1,1,0,0,0-1.414,0l-1,1A1,1,0,0,0,18,6v5.586l-2.091,2.091A2.473,2.473,0,0,0,15,13.5,2.5,2.5,0,1,0,17.5,16a2.473,2.473,0,0,0-.177-.909l2.384-2.384A1,1,0,0,0,20,12V6.414l.707-.707A1,1,0,0,0,20.707,4.293Z" fill="#61616b" data-color="color-2"></path><path d="M10,20a1,1,0,0,1-.707-.293l-1-1A1,1,0,0,1,8,18V14a1,1,0,0,1,2,0v3.586l.707.707A1,1,0,0,1,10,20Z" fill="#61616b"></path><path d="M15,11a1,1,0,0,1-1-1V6.414l-.707-.707a1,1,0,0,1,1.414-1.414l1,1A1,1,0,0,1,16,6v4A1,1,0,0,1,15,11Z" fill="#61616b"></path><path d="M9,5.5A2.5,2.5,0,0,0,6.5,8a2.473,2.473,0,0,0,.177.909L4.293,11.293A1,1,0,0,0,4,12v5.586l-.707.707a1,1,0,1,0,1.414,1.414l1-1A1,1,0,0,0,6,18V12.414l2.091-2.091A2.473,2.473,0,0,0,9,10.5a2.5,2.5,0,0,0,0-5Z" fill="#61616b" data-color="color-2"></path><path d="M17,24H8a1,1,0,0,1,0-2h8.586L22,16.586V8a1,1,0,0,1,2,0v9a1,1,0,0,1-.293.707l-6,6A1,1,0,0,1,17,24Z" fill="#61616b"></path><path d="M1,17a1,1,0,0,1-1-1V7a1,1,0,0,1,.293-.707l6-6A1,1,0,0,1,7,0h9a1,1,0,0,1,0,2H7.414L2,7.414V16A1,1,0,0,1,1,17Z" fill="#61616b"></path></svg>