<svg xmlns="http://www.w3.org/2000/svg" height="24" width="24" viewBox="0 0 24 24"><path d="M23.788,3.385A1,1,0,0,0,23,3H11.191a6,6,0,1,0,0,6H16l1.646,1.646a.5.5,0,0,0,.708,0L20,9h2a1,1,0,0,0,.97-.758l1-4A1,1,0,0,0,23.788,3.385ZM4,8A2,2,0,1,1,6,6,2,2,0,0,1,4,8Z" fill="#61616b"></path><path d="M5,15v2.586L3.409,19.177a2.415,2.415,0,0,0-1.876.025,2.5,2.5,0,0,0,1.458,4.751A2.518,2.518,0,0,0,4.8,22.467a2.415,2.415,0,0,0,.025-1.876l1.884-1.884A1,1,0,0,0,7,18V15a1,1,0,0,0-1-1H6A1,1,0,0,0,5,15Z" fill="#61616b" data-color="color-2"></path><path d="M22.467,19.2a2.415,2.415,0,0,0-1.876-.025L19,17.586V14a1,1,0,0,0-1-1h0a1,1,0,0,0-1,1v4a1,1,0,0,0,.293.707l1.884,1.884a2.415,2.415,0,0,0,.025,1.876A2.5,2.5,0,1,0,22.467,19.2Z" fill="#61616b" data-color="color-2"></path><path d="M13,19.212V13a1,1,0,0,0-1-1h0a1,1,0,0,0-1,1v6.212a2.507,2.507,0,0,0-1.394,3.026,2.466,2.466,0,0,0,1.7,1.669A2.5,2.5,0,0,0,13,19.212Z" fill="#61616b" data-color="color-2"></path></svg>