<svg xmlns="http://www.w3.org/2000/svg" height="24" width="24" viewBox="0 0 24 24"><rect data-color="color-2" x="6" y="6" width="12" height="2" fill="#61616b"></rect><rect data-color="color-2" x="6" y="11" width="12" height="2" fill="#61616b"></rect><rect data-color="color-2" x="6" y="16" width="8" height="2" fill="#61616b"></rect><path d="M20,0H4A3,3,0,0,0,1,3V21a3,3,0,0,0,3,3H20a3,3,0,0,0,3-3V3A3,3,0,0,0,20,0Zm1,20a1,1,0,0,1-1,1H4a1,1,0,0,1-1-1V4A1,1,0,0,1,4,3H20a1,1,0,0,1,1,1Z" fill="#61616b"></path></svg>