<svg xmlns="http://www.w3.org/2000/svg" height="24" width="24" viewBox="0 0 24 24"><path d="M17,1a4,4,0,0,0-4,4V7a4,4,0,0,0,4,4,3.658,3.658,0,0,0,2.875-1.534A10.189,10.189,0,0,1,20,11V22a1,1,0,0,0,1,1h2a1,1,0,0,0,1-1V11C24,5.477,20.866,1,17,1Zm1,6a1,1,0,0,1-2,0V5a1,1,0,0,1,2,0Z" fill="#61616b" data-color="color-2"></path><path d="M7,1a4,4,0,0,1,4,4V7a4,4,0,0,1-4,4A3.658,3.658,0,0,1,4.125,9.466,10.189,10.189,0,0,0,4,11V22a1,1,0,0,1-1,1H1a1,1,0,0,1-1-1V11C0,5.477,3.134,1,7,1ZM6,7A1,1,0,0,0,8,7V5A1,1,0,0,0,6,5Z" fill="#61616b"></path></svg>