<svg xmlns="http://www.w3.org/2000/svg" height="24" width="24" viewBox="0 0 24 24"><path d="M3,7H1V2A1,1,0,0,1,2,1H7V3H3Z" fill="#61616b" data-color="color-2"></path><path d="M23,7H21V3H17V1h5a1,1,0,0,1,1,1Z" fill="#61616b" data-color="color-2"></path><path d="M7,23H2a1,1,0,0,1-1-1V17H3v4H7Z" fill="#61616b" data-color="color-2"></path><path d="M22,23H17V21h4V17h2v5A1,1,0,0,1,22,23Z" fill="#61616b" data-color="color-2"></path><path d="M22.832,11.445C22.657,11.183,18.461,5,12,5S1.343,11.183,1.168,11.445a1,1,0,0,0,0,1.11C1.343,12.817,5.539,19,12,19s10.657-6.183,10.832-6.445A1,1,0,0,0,22.832,11.445ZM12,15.5A3.5,3.5,0,1,1,15.5,12,3.5,3.5,0,0,1,12,15.5Z" fill="#61616b"></path></svg>