<svg xmlns="http://www.w3.org/2000/svg" height="24" width="24" viewBox="0 0 24 24"><path fill="#61616b" d="M4,4h16v7h2V4c0-1.103-0.897-2-2-2H4C2.897,2,2,2.897,2,4v11h2V4z"></path> <path fill="#61616b" d="M0,18c0,2.206,1.794,4,4,4h7v-5H0V18z"></path> <path data-color="color-2" fill="#61616b" d="M22.792,18l0.428-4.351l-1.466,1.065C20.814,13.644,19.45,13,18,13 c-2.282,0-4.273,1.542-4.843,3.751l1.938,0.498C15.436,15.925,16.63,15,18,15c0.808,0,1.574,0.331,2.131,0.893l-1.609,1.168 L22.792,18z"></path> <path data-color="color-2" fill="#61616b" d="M18,22c-0.808,0-1.574-0.331-2.131-0.893l1.609-1.168L13.208,19l-0.428,4.351l1.466-1.065 C15.186,23.356,16.55,24,18,24c2.282,0,4.273-1.542,4.843-3.751l-1.938-0.498C20.564,21.075,19.37,22,18,22z"></path></svg>