<svg xmlns="http://www.w3.org/2000/svg" height="24" width="24" viewBox="0 0 24 24"><path d="M9.171,5.172l-.706.708L9.879,7.293l.707-.707a2.047,2.047,0,0,1,2.828,0l.707.707L15.535,5.88l-.706-.708A4.1,4.1,0,0,0,9.171,5.172Z" fill="#61616b" data-color="color-2"></path><path d="M17.657,2.343a8,8,0,0,0-11.314,0l-.707.708L7.051,4.465l.707-.707a6,6,0,0,1,8.485,0l.707.707L18.364,3.05Z" fill="#61616b" data-color="color-2"></path><polygon points="10 10 10 16 15 13 10 10" fill="#61616b"></polygon><path d="M21,4h-.758L18.361,5.88l0,0L18.245,6H20a1,1,0,0,1,1,1V19a1,1,0,0,1-1,1H4a1,1,0,0,1-1-1V7A1,1,0,0,1,4,6H5.755l-.118-.118h0L3.756,4H3A3,3,0,0,0,0,7V19a3,3,0,0,0,3,3H21a3,3,0,0,0,3-3V7A3,3,0,0,0,21,4Z" fill="#61616b"></path></svg>