<svg xmlns="http://www.w3.org/2000/svg" height="24" width="24" viewBox="0 0 24 24"><path d="M12,6a2.969,2.969,0,0,0,1.286-.3l3.547,3.547a5.037,5.037,0,0,1,1.414-1.414L14.7,4.286A2.969,2.969,0,0,0,15,3a3,3,0,1,0-3,3Z" fill="#61616b"></path><path d="M5.7,10.714,9.247,7.167A5.037,5.037,0,0,1,7.833,5.753L4.286,9.3A2.969,2.969,0,0,0,3,9a3,3,0,1,0,3,3A2.969,2.969,0,0,0,5.7,10.714Z" fill="#61616b" data-color="color-2"></path><path d="M12,18a2.969,2.969,0,0,0-1.286.3L7.167,14.753a5.037,5.037,0,0,1-1.414,1.414L9.3,19.714A2.969,2.969,0,0,0,9,21a3,3,0,1,0,3-3Z" fill="#61616b"></path><path d="M21,9a3,3,0,0,0-3,3,2.969,2.969,0,0,0,.3,1.286l-3.547,3.547a5.037,5.037,0,0,1,1.414,1.414L19.714,14.7A2.969,2.969,0,0,0,21,15a3,3,0,0,0,0-6Z" fill="#61616b" data-color="color-2"></path></svg>