<svg xmlns="http://www.w3.org/2000/svg" height="24" width="24" viewBox="0 0 24 24"><path d="M24,7V5H21.858a3.915,3.915,0,0,0-.425-1.019L22.95,2.465,21.536,1.051,20.019,2.567A3.915,3.915,0,0,0,19,2.142V0H17V2.142a3.915,3.915,0,0,0-1.019.425L14.464,1.051,13.05,2.465l1.517,1.516A3.915,3.915,0,0,0,14.142,5H12V7h2.142a3.915,3.915,0,0,0,.425,1.019L13.05,9.535l1.414,1.414,1.517-1.516A3.915,3.915,0,0,0,17,9.858V12h2V9.858a3.915,3.915,0,0,0,1.019-.425l1.517,1.516L22.95,9.535,21.433,8.019A3.915,3.915,0,0,0,21.858,7ZM17,6a1,1,0,1,1,1,1A1,1,0,0,1,17,6Z" fill="#61616b" data-color="color-2"></path><path d="M23.99,11.29A7.993,7.993,0,0,1,11.753,1.01C5.267,1.122,0,5.57,0,11c0,5.5,5.4,10,12,10a15.263,15.263,0,0,0,3-.3l5.6,2.2c.1,0,.2.1.4.1a1.421,1.421,0,0,0,.6-.2,1.086,1.086,0,0,0,.4-.9l-.5-4.7A9.217,9.217,0,0,0,23.99,11.29Z" fill="#61616b"></path></svg>