<svg xmlns="http://www.w3.org/2000/svg" height="24" width="24" viewBox="0 0 24 24"><path d="M4,23a3,3,0,1,1,3-3A3,3,0,0,1,4,23Z" fill="#61616b"></path><path d="M12,9a3,3,0,1,0,3,3A3,3,0,0,0,12,9Z" fill="#61616b"></path><path d="M4,1A3,3,0,1,0,7,4,3,3,0,0,0,4,1Z" fill="#61616b"></path><path d="M20,1a3,3,0,1,0,3,3A3,3,0,0,0,20,1Z" fill="#61616b"></path><path d="M20,17a3,3,0,1,0,3,3A3,3,0,0,0,20,17Z" fill="#61616b"></path><rect x="1" y="9" width="6" height="6" fill="#61616b" data-color="color-2"></rect><rect x="17" y="9" width="6" height="6" fill="#61616b" data-color="color-2"></rect><rect x="9" y="1" width="6" height="6" fill="#61616b" data-color="color-2"></rect><rect x="9" y="17" width="6" height="6" fill="#61616b" data-color="color-2"></rect></svg>