<svg xmlns="http://www.w3.org/2000/svg" height="24" width="24" viewBox="0 0 24 24"><rect data-color="color-2" x="13" y="5" width="6" height="2" fill="#61616b"></rect><rect data-color="color-2" x="13" y="9" width="6" height="2" fill="#61616b"></rect><rect data-color="color-2" x="5" y="13" width="14" height="2" fill="#61616b"></rect><rect data-color="color-2" x="5" y="17" width="14" height="2" fill="#61616b"></rect><rect data-color="color-2" x="5" y="5" width="6" height="6" fill="#61616b"></rect><path d="M20,0H4A3,3,0,0,0,1,3V21a3,3,0,0,0,3,3H20a3,3,0,0,0,3-3V3A3,3,0,0,0,20,0Zm1,20a1,1,0,0,1-1,1H4a1,1,0,0,1-1-1V4A1,1,0,0,1,4,3H20a1,1,0,0,1,1,1Z" fill="#61616b"></path></svg>