<svg xmlns="http://www.w3.org/2000/svg" height="24" width="24" viewBox="0 0 24 24"><path d="M23,13a1,1,0,0,1-1-1A10.011,10.011,0,0,0,12,2a1,1,0,0,1,0-2A12.013,12.013,0,0,1,24,12,1,1,0,0,1,23,13Z" fill="#61616b" data-color="color-2"></path><path d="M19,13a1,1,0,0,1-1-1,6.006,6.006,0,0,0-6-6,1,1,0,0,1,0-2,8.009,8.009,0,0,1,8,8A1,1,0,0,1,19,13Z" fill="#61616b" data-color="color-2"></path><path d="M20.485,19.071,13.414,12l1.293-1.293a1,1,0,0,0-1.414-1.414L12,10.586l-4.9-4.9A7.986,7.986,0,0,0,4,12v1H2V12A9.981,9.981,0,0,1,5.676,4.262l-.747-.747a1.031,1.031,0,0,0-1.415,0,12,12,0,1,0,16.971,16.97,1,1,0,0,0,0-1.414Z" fill="#61616b"></path></svg>