<svg xmlns="http://www.w3.org/2000/svg" height="24" width="24" viewBox="0 0 24 24"><path d="M8.14,9.263q.75-.106,1.559-.172l1.193-.084-.139-1.995L9.537,7.1q-.865.069-1.677.184l-.99.14L7.149,9.4Z" fill="#61616b"></path><path d="M15.86,9.263l.991.139.279-1.98-.99-.14c-.54-.076-1.1-.138-1.671-.183l-1.222-.087-.139,2,1.2.085C14.841,9.134,15.36,9.192,15.86,9.263Z" fill="#61616b"></path><path d="M12,0A12,12,0,1,0,24,12,12.013,12.013,0,0,0,12,0Zm0,2a10.011,10.011,0,0,1,9.472,6.819l-.014-.008q-.405-.21-.874-.4l-.927-.375-.75,1.854.926.375c.253.1.49.211.708.323C21.441,11.053,22,11.594,22,12c0,1.194-3.988,3-10,3S2,13.194,2,12c0-.406.559-.947,1.458-1.412.219-.112.456-.221.709-.323l.926-.375-.75-1.854-.927.375q-.468.189-.875.4l-.013.007A10.011,10.011,0,0,1,12,2Z" fill="#61616b"></path></svg>