<svg xmlns="http://www.w3.org/2000/svg" height="24" width="24" viewBox="0 0 24 24"><path d="M17.372,8.071l-5-2a1.007,1.007,0,0,0-.744,0l-5,2A1,1,0,0,0,6,9v6a1,1,0,0,0,.628.929l5,2a1.01,1.01,0,0,0,.744,0l5-2A1,1,0,0,0,18,15V9A1,1,0,0,0,17.372,8.071ZM12,8.077,14.308,9,12,9.923,9.692,9Zm-4,2.4,3,1.2v3.846l-3-1.2Zm5,5.046V11.677l3-1.2v3.846Z" fill="#61616b"></path><path d="M17,0H12A12.013,12.013,0,0,0,0,12a1,1,0,0,0,2,0A10.011,10.011,0,0,1,12,2V4Z" fill="#61616b" data-color="color-2"></path><path d="M23,11a1,1,0,0,0-1,1A10.011,10.011,0,0,1,12,22V20L7,24h5A12.013,12.013,0,0,0,24,12,1,1,0,0,0,23,11Z" fill="#61616b" data-color="color-2"></path></svg>