<svg xmlns="http://www.w3.org/2000/svg" height="24" width="24" viewBox="0 0 24 24"><path d="M19,20a1,1,0,0,1-1,1H6a1,1,0,0,1-1-1V17H3v4a3,3,0,0,0,3,3H18a3,3,0,0,0,3-3V17H19Z" fill="#61616b"></path><path d="M18,0H6A3,3,0,0,0,3,3v8H5V4A1,1,0,0,1,6,3H18a1,1,0,0,1,1,1v7h2V3A3,3,0,0,0,18,0Z" fill="#61616b"></path><path d="M12,18a3,3,0,0,1-3-3V8.5a.5.5,0,0,0-1,0V12a3,3,0,0,1-3,3H0V13H5a1,1,0,0,0,1-1V8.5a2.5,2.5,0,0,1,5,0V15a1,1,0,0,0,2,0V10.5a2.5,2.5,0,0,1,5,0V12a1,1,0,0,0,1,1h5v2H19a3,3,0,0,1-3-3V10.5a.5.5,0,0,0-1,0V15A3,3,0,0,1,12,18Z" fill="#61616b" data-color="color-2"></path></svg>