<svg xmlns="http://www.w3.org/2000/svg" height="24" width="24" viewBox="0 0 24 24"><path d="M12,1C7.543,1,0,1.843,0,5V19c0,2.233,3.731,3.223,6.862,3.66A.915.915,0,0,0,7,22.67a1,1,0,0,0,1-1V17.233a37.534,37.534,0,0,1,8,0V21.67a1,1,0,0,0,1,1,.915.915,0,0,0,.138-.01C20.269,22.223,24,21.233,24,19V5C24,1.843,16.457,1,12,1ZM8,15.225V7.67a1,1,0,0,0-.862-.99c-3.828-.535-5-1.451-5.127-1.664C2.363,4.3,6.025,3,12,3c6,0,9.672,1.31,9.99,1.985-.16.266-1.347,1.166-5.128,1.695A1,1,0,0,0,16,7.67v7.555A39.607,39.607,0,0,0,8,15.225Z" fill="#61616b"></path></svg>