<svg xmlns="http://www.w3.org/2000/svg" height="24" width="24" viewBox="0 0 24 24"><path d="M23.362,10.3A11.672,11.672,0,0,0,19,6.045a6.962,6.962,0,0,1-.351,2.142,8.946,8.946,0,0,1,2.939,3.03,2.8,2.8,0,0,1,.3,2.207c-.759,2.276-5.554,3.522-11.481,1.748q-.72-.216-1.407-.48V20a3,3,0,0,0,6,0V17.97c.252.011.507.03.752.03,4.034,0,7.191-1.419,8.034-3.943A4.78,4.78,0,0,0,23.362,10.3Z" fill="#61616b"></path><path d="M12,1A4.985,4.985,0,0,0,9,9.977v2.556a17.636,17.636,0,0,0,1.979.725,17.439,17.439,0,0,0,4.021.71V9.977A4.985,4.985,0,0,0,12,1Zm0,7a2,2,0,1,1,2-2A2,2,0,0,1,12,8Z" fill="#61616b"></path><path d="M7,15,5.472,10.5,4.308,12.009A7.62,7.62,0,0,1,2.414,9.781a2.8,2.8,0,0,1-.3-2.207A4,4,0,0,1,5.031,5.39a6.943,6.943,0,0,1,.537-2.152c-2.706.5-4.709,1.774-5.353,3.7A4.771,4.771,0,0,0,.639,10.7,9.747,9.747,0,0,0,3.1,13.579L1.6,15.517Z" fill="#61616b"></path></svg>