<svg xmlns="http://www.w3.org/2000/svg" height="24" width="24" viewBox="0 0 24 24"><path d="M19.778,20.778a1,1,0,0,1-.707-1.707,10,10,0,0,0,0-14.142,1,1,0,0,1,1.415-1.414,12,12,0,0,1,0,16.97A1,1,0,0,1,19.778,20.778Z" fill="#61616b"></path><path d="M4.222,20.778a1,1,0,0,1-.708-.293,12,12,0,0,1,0-16.97A1,1,0,0,1,4.929,4.929a10,10,0,0,0,0,14.142,1,1,0,0,1-.707,1.707Z" fill="#61616b"></path><path d="M7.05,17.949a1,1,0,0,1-.707-.293,8,8,0,0,1,0-11.312A1,1,0,0,1,7.757,7.758a6,6,0,0,0,0,8.484,1,1,0,0,1-.707,1.707Z" fill="#61616b"></path><path d="M16.95,17.949a1,1,0,0,1-.707-1.707,6,6,0,0,0,0-8.485,1,1,0,0,1,1.415-1.414,8,8,0,0,1,0,11.313A1,1,0,0,1,16.95,17.949Z" fill="#61616b"></path><polygon points="13.5 6 8 13 11.5 13 10.5 18 16 11 12.5 11 13.5 6" fill="#61616b" data-color="color-2"></polygon></svg>