<svg xmlns="http://www.w3.org/2000/svg" height="24" width="24" viewBox="0 0 24 24"><path d="M5.5 6C6.605 6 7.5 5.105 7.5 4C7.5 2.895 6.605 2 5.5 2C4.395 2 3.5 2.895 3.5 4C3.5 5.105 4.395 6 5.5 6Z" stroke="#61616b" stroke-width="2" fill="none" data-cap="butt" stroke-linecap="butt"></path> <path d="M8.49976 13L7.50036 22H3.49996L3.09992 15.5L1.49976 14.6875L2.06362 11.4805C2.31583 10.0461 3.56187 9 5.0183 9H14" stroke="#61616b" stroke-width="2" fill="none"></path> <path d="M18 5V18" stroke="#61616b" stroke-width="2" data-color="color-2" fill="none"></path> <path d="M22 11V18" stroke="#61616b" stroke-width="2" fill="none"></path> <path d="M14 16V18" stroke="#61616b" stroke-width="2" fill="none"></path> <path d="M16.5 5L18 3L19.5 5" stroke="#61616b" stroke-width="2" data-color="color-2" fill="none"></path> <path d="M14 22H22" stroke="#61616b" stroke-width="2" data-color="color-2" fill="none"></path></svg>