<svg xmlns="http://www.w3.org/2000/svg" height="48" width="48" viewBox="0 0 48 48"><path d="M24,1A21,21,0,0,0,3,22C3,33.6,15.4,47,24,47S45,33.6,45,22A21,21,0,0,0,24,1Z" fill="#84c459"></path> <path d="M24,41a5.956,5.956,0,0,1-4.8-2.4,1,1,0,0,1,1.6-1.2,4,4,0,0,0,6.4,0,1,1,0,1,1,1.6,1.2A5.956,5.956,0,0,1,24,41Z" fill="#444"></path> <path d="M8,16a1,1,0,0,0-1,1v2A13.015,13.015,0,0,0,20,32a1,1,0,0,0,1-1V29A13.015,13.015,0,0,0,8,16Z" fill="#444"></path> <path d="M40,16A13.015,13.015,0,0,0,27,29v2a1,1,0,0,0,1,1A13.015,13.015,0,0,0,41,19V17A1,1,0,0,0,40,16Z" fill="#444"></path></svg>