<svg xmlns="http://www.w3.org/2000/svg" height="48" width="48" viewBox="0 0 48 48"><path d="M37.2,6a1.008,1.008,0,0,1-.172-.015A79.547,79.547,0,0,0,24,5a79.547,79.547,0,0,0-13.027.985,1,1,0,0,1-.342-1.971A80.474,80.474,0,0,1,24,3,80.474,80.474,0,0,1,37.369,4.014,1,1,0,0,1,37.2,6Z" fill="#43a6dd"></path> <path d="M24,46A22,22,0,1,1,46,24,22.025,22.025,0,0,1,24,46Z" fill="#ffd764"></path> <path d="M30.708,34a1,1,0,0,1,.745,1.667,10,10,0,0,1-14.906,0,1,1,0,0,1,1.49-1.334,8,8,0,0,0,11.926,0A1,1,0,0,1,30.708,34Z" fill="#444"></path> <path d="M31,26a1,1,0,0,0,1-1,2,2,0,0,1,4,0,1,1,0,0,0,2,0,4,4,0,0,0-8,0A1,1,0,0,0,31,26Z" fill="#444"></path> <path d="M11,26a1,1,0,0,0,1-1,2,2,0,0,1,4,0,1,1,0,0,0,2,0,4,4,0,0,0-8,0A1,1,0,0,0,11,26Z" fill="#444"></path> <path d="M24,14A75.442,75.442,0,0,1,8.941,12.66C4.271,11.659,2,10.3,2,8.5c0-.739,0-2.989,8.631-4.486a1,1,0,1,1,.342,1.971C5.315,6.966,4.033,8.219,4,8.5,4.141,9.687,11.329,12,24,12S43.859,9.687,44,8.5c-.033-.28-1.315-1.533-6.973-2.514a1,1,0,1,1,.342-1.971C46,5.511,46,7.761,46,8.5c0,1.8-2.271,3.159-6.941,4.16A75.442,75.442,0,0,1,24,14Z" fill="#43a6dd"></path></svg>