<svg xmlns="http://www.w3.org/2000/svg" height="48" width="48" viewBox="0 0 48 48"><path d="M24,46A22,22,0,1,1,46,24,22.025,22.025,0,0,1,24,46Z" fill="#e86c60"></path> <circle cx="33" cy="25" r="3" fill="#444"></circle> <circle cx="15" cy="25" r="3" fill="#444"></circle> <path d="M17.292,37a1,1,0,0,1-.745-1.667,10,10,0,0,1,14.906,0,1,1,0,1,1-1.49,1.334,8,8,0,0,0-11.926,0A1,1,0,0,1,17.292,37Z" fill="#444"></path> <path d="M30,21a1,1,0,0,1-.516-1.857l5-3a1,1,0,0,1,1.03,1.714l-5,3A.994.994,0,0,1,30,21Z" fill="#444"></path> <path d="M18,21a.994.994,0,0,1-.514-.143l-5-3a1,1,0,0,1,1.03-1.714l5,3A1,1,0,0,1,18,21Z" fill="#444"></path></svg>