<svg xmlns="http://www.w3.org/2000/svg" height="48" width="48" viewBox="0 0 48 48"><path d="M24,46A22,22,0,1,1,46,24,22.025,22.025,0,0,1,24,46Z" fill="#fa645a"></path> <path d="M30,24a1,1,0,0,1-.516-1.858l5-3a1,1,0,0,1,1.03,1.715l-5,3A.994.994,0,0,1,30,24Z" fill="#444"></path> <path d="M18,24a.994.994,0,0,1-.514-.143l-5-3a1,1,0,0,1,1.03-1.715l5,3A1,1,0,0,1,18,24Z" fill="#444"></path> <path d="M34.977,31A4.974,4.974,0,0,0,31,29H17a4.974,4.974,0,0,0-3.977,2Z" fill="#fff"></path> <path d="M13.023,37A4.974,4.974,0,0,0,17,39H31a4.974,4.974,0,0,0,3.977-2Z" fill="#fff"></path> <path d="M34.965,37A4.938,4.938,0,0,0,36,34.01v-.03A4.954,4.954,0,0,0,34.977,31H13.023A4.954,4.954,0,0,0,12,33.98v.03A4.938,4.938,0,0,0,13.035,37Z" fill="#444"></path></svg>