<svg xmlns="http://www.w3.org/2000/svg" height="48" width="48" viewBox="0 0 48 48"><path d="M24,46A22,22,0,1,1,46,24,22.025,22.025,0,0,1,24,46Z" fill="#ffd764"></path> <path d="M17.292,37a1,1,0,0,1-.745-1.667,10,10,0,0,1,14.906,0,1,1,0,1,1-1.49,1.334,8,8,0,0,0-11.926,0A1,1,0,0,1,17.292,37Z" fill="#444"></path> <path d="M37,22a1,1,0,0,0-1,1,2,2,0,0,1-4,0,1,1,0,0,0-2,0,4,4,0,0,0,8,0A1,1,0,0,0,37,22Z" fill="#444"></path> <path d="M11,22a1,1,0,0,1,1,1,2,2,0,0,0,4,0,1,1,0,0,1,2,0,4,4,0,0,1-8,0A1,1,0,0,1,11,22Z" fill="#444"></path> <path d="M4.149,14.523l40.562,2.062A22.1,22.1,0,0,0,36.869,6.173L13,4.96A22.136,22.136,0,0,0,4.149,14.523Z" fill="#e6e6e6"></path> <path d="M10.375,14.839l14.636.744L39.717,8.646a22.22,22.22,0,0,0-2.848-2.473L29.537,5.8Z" fill="#b3b3b3"></path> <path d="M25.551,2.061,6.1,11.237A21.876,21.876,0,0,0,2,24c0,.075,0,.149.006.224L38.152,7.174A21.9,21.9,0,0,0,25.551,2.061Z" fill="#e6e6e6"></path></svg>