<svg xmlns="http://www.w3.org/2000/svg" height="48" width="48" viewBox="0 0 48 48"><path d="M24,46A22,22,0,1,1,46,24,22.025,22.025,0,0,1,24,46Z" fill="#ffd764"></path> <path d="M35.6,32a11.932,11.932,0,0,0,.4-3,1,1,0,0,0-1-1H13a1,1,0,0,0-1,1,11.932,11.932,0,0,0,.395,3Z" fill="#fff"></path> <path d="M12.4,32A11.982,11.982,0,0,0,35.6,32Z" fill="#ae453e"></path> <path d="M18.014,39.385a11.9,11.9,0,0,0,11.972,0,6.985,6.985,0,0,0-11.972,0Z" fill="#e86c60"></path> <path d="M12,25a1,1,0,0,1-.448-1.895L15.764,21,11.553,18.9a1,1,0,0,1,.894-1.79l6,3a1,1,0,0,1,0,1.79l-6,3A1,1,0,0,1,12,25Z" fill="#444"></path> <path d="M36,25a1,1,0,0,1-.446-.105l-6-3a1,1,0,0,1,0-1.79l6-3a1,1,0,1,1,.894,1.79L32.236,21l4.211,2.105A1,1,0,0,1,36,25Z" fill="#444"></path></svg>