<svg xmlns="http://www.w3.org/2000/svg" height="48" width="48" viewBox="0 0 48 48"><path d="M24,46A22,22,0,1,1,46,24,22.025,22.025,0,0,1,24,46Z" fill="#ffd764"></path> <path d="M30,20a1,1,0,0,1-.516-1.858l5-3a1,1,0,0,1,1.03,1.715l-5,3A.994.994,0,0,1,30,20Z" fill="#444"></path> <path d="M18,20a.994.994,0,0,1-.514-.143l-5-3a1,1,0,0,1,1.03-1.715l5,3A1,1,0,0,1,18,20Z" fill="#444"></path> <path d="M9.3,29a14.98,14.98,0,0,0,4.534,8H34.164A14.98,14.98,0,0,0,38.7,29Z" fill="#444"></path> <path d="M38.7,29a15.059,15.059,0,0,0,.3-3,1,1,0,0,0-1-1H10a1,1,0,0,0-1,1,15.059,15.059,0,0,0,.3,3Z" fill="#fff"></path> <path d="M13.836,37a14.913,14.913,0,0,0,20.328,0Z" fill="#fff"></path></svg>