<svg xmlns="http://www.w3.org/2000/svg" height="48" width="48" viewBox="0 0 48 48"><path d="M13,16V30a11,11,0,0,0,22,0V16Z" fill="#fa645a"></path> <path d="M24,29a.937.937,0,0,1-1-.857V17h2V28.143A.937.937,0,0,1,24,29Z" fill="#c85048"></path> <path d="M44.5,22.064a7,7,0,0,1,0-12.126,1,1,0,0,0-1-1.731A9.031,9.031,0,0,0,39.067,15H8.933A9.031,9.031,0,0,0,4.5,8.207a1,1,0,0,0-1,1.731A7.027,7.027,0,0,1,7,16a7.028,7.028,0,0,1-3.5,6.064A1,1,0,0,0,4,23.93a.989.989,0,0,0,.5-.135A9.034,9.034,0,0,0,8.933,17H39.067A9.034,9.034,0,0,0,43.5,23.8a.989.989,0,0,0,.5.135,1,1,0,0,0,.5-1.866Z" fill="#444"></path></svg>