<svg xmlns="http://www.w3.org/2000/svg" height="48" width="48" viewBox="0 0 48 48"><path d="M24,46.105a22,22,0,1,1,22-22A22.025,22.025,0,0,1,24,46.105Z" fill="#ffd764"></path> <path d="M12,26.105a1,1,0,0,1-.448-1.894l4.211-2.106L11.553,20a1,1,0,1,1,.894-1.789l6,3a1,1,0,0,1,0,1.789l-6,3A.989.989,0,0,1,12,26.105Z" fill="#444"></path> <path d="M36,26.105A.989.989,0,0,1,35.553,26l-6-3a1,1,0,0,1,0-1.789l6-3A1,1,0,1,1,36.447,20l-4.211,2.105,4.211,2.106A1,1,0,0,1,36,26.105Z" fill="#444"></path> <path d="M24,37a1,1,0,0,1-.555-.168l-5.517-3.678L14.447,34.9a1,1,0,0,1-.894-1.79l4-2a1,1,0,0,1,1,.063L24,34.8l5.445-3.63a1,1,0,0,1,1-.063l4,2a1,1,0,1,1-.894,1.79l-3.481-1.741-5.517,3.678A1,1,0,0,1,24,37Z" fill="#444"></path></svg>