<svg xmlns="http://www.w3.org/2000/svg" height="48" width="48" viewBox="0 0 48 48"><path d="M36,11a1,1,0,0,1-1-1V8A5,5,0,0,0,25,8a1,1,0,0,1-2,0A7,7,0,0,1,37,8v2A1,1,0,0,1,36,11Z" fill="#a67c52"></path> <path d="M28,16H20a1,1,0,0,1-1-1V10a3,3,0,0,1,3-3h4a3,3,0,0,1,3,3v5A1,1,0,0,1,28,16Z" fill="#c6c6c6"></path> <path d="M24,47A17,17,0,1,1,41,30,17.019,17.019,0,0,1,24,47Z" fill="#444"></path> <path d="M14,27a1,1,0,0,1-.97-1.24,8.231,8.231,0,0,1,5.728-5.728,1,1,0,1,1,.484,1.94,6.216,6.216,0,0,0-4.273,4.276A1,1,0,0,1,14,27Z" fill="#c6c6c6"></path></svg>