<svg xmlns="http://www.w3.org/2000/svg" height="48" width="48" viewBox="0 0 48 48"><path d="M24,46A22,22,0,1,1,46,24,22.025,22.025,0,0,1,24,46Z" fill="#ffd764"></path> <path d="M37,21a1,1,0,0,0-1,1,2,2,0,0,1-4,0,1,1,0,0,0-2,0,4,4,0,0,0,8,0A1,1,0,0,0,37,21Z" fill="#444"></path> <path d="M11,21a1,1,0,0,1,1,1,2,2,0,0,0,4,0,1,1,0,0,1,2,0,4,4,0,0,1-8,0A1,1,0,0,1,11,21Z" fill="#444"></path> <path d="M24,41a5,5,0,1,1,5-5A5.006,5.006,0,0,1,24,41Z" fill="#ae453e"></path> <ellipse cx="24" cy="39" rx="3.974" ry="2" fill="#fa645a"></ellipse></svg>