<svg xmlns="http://www.w3.org/2000/svg" height="48" width="48" viewBox="0 0 48 48"><path d="M24,22a1,1,0,0,1-1-1V15a1,1,0,0,1,2,0v6A1,1,0,0,1,24,22Z" fill="#444"></path> <path d="M12,22a1,1,0,0,1-1-1V16a1,1,0,0,1,2,0v5A1,1,0,0,1,12,22Z" fill="#444"></path> <path d="M36,22a1,1,0,0,1-1-1V16a1,1,0,0,1,2,0v5A1,1,0,0,1,36,22Z" fill="#444"></path> <path d="M43,34H5V23a3,3,0,0,1,3-3H40a3,3,0,0,1,3,3Z" fill="#ed69ab"></path> <path d="M46,46H2a1,1,0,0,1-1-1V35a3,3,0,0,1,3-3H44a3,3,0,0,1,3,3V45A1,1,0,0,1,46,46Z" fill="#a56edc"></path> <path d="M24,16a5.006,5.006,0,0,1-5-5c0-2.4,3.479-7.559,4.177-8.568a1.038,1.038,0,0,1,1.646,0C25.521,3.441,29,8.6,29,11A5.006,5.006,0,0,1,24,16Z" fill="#ffd764"></path> <path d="M12,17a3,3,0,0,1-3-3c0-1.278,1.522-3.62,2.177-4.568a1.038,1.038,0,0,1,1.646,0C13.478,10.38,15,12.722,15,14A3,3,0,0,1,12,17Z" fill="#ffd764"></path> <path d="M36,17a3,3,0,0,1-3-3c0-1.278,1.522-3.62,2.177-4.568a1.038,1.038,0,0,1,1.646,0C37.478,10.38,39,12.722,39,14A3,3,0,0,1,36,17Z" fill="#ffd764"></path></svg>