<svg xmlns="http://www.w3.org/2000/svg" height="48" width="48" viewBox="0 0 48 48"><circle cx="5" cy="22" r="5" fill="#7d5731"></circle><circle cx="43" cy="22" r="5" fill="#7d5731"></circle><circle cx="24" cy="24" r="20" fill="#a2703f"></circle><path d="M17,18a4.964,4.964,0,0,0-4.658,3.209,1,1,0,0,0,1.867.719,2.971,2.971,0,0,1,4.8-1.141,1,1,0,1,0,1.344-1.48A4.979,4.979,0,0,0,17,18Z" fill="#363636"></path><path d="M35.658,21.21a4.97,4.97,0,0,0-8.007-1.9A1,1,0,0,0,29,20.787a2.971,2.971,0,0,1,4.8,1.142,1,1,0,0,0,1.867-.719Z" fill="#363636"></path><path d="M27.678,6.058a1,1,0,0,0-1.277.607A2,2,0,0,1,24.527,8a3,3,0,0,1,0-6,1,1,0,0,0,0-2,5,5,0,0,0,0,10,4,4,0,0,0,3.759-2.665A1,1,0,0,0,27.678,6.058Z" fill="#363636"></path><path id="color" d="M24,36a6,6,0,0,0,5.89-4.848A.993.993,0,0,0,28.9,30H19.1a.993.993,0,0,0-.992,1.152A6,6,0,0,0,24,36Z" fill="#cb2010"></path><path d="M24,32a3,3,0,0,0-3,3c0,.071.016.137.021.207a5.992,5.992,0,0,0,5.958,0c.005-.07.021-.136.021-.207A3,3,0,0,0,24,32Z" fill="#f74b3b"></path></svg>