<svg xmlns="http://www.w3.org/2000/svg" height="48" width="48" viewBox="0 0 48 48"><path d="M18,3a2.972,2.972,0,0,0-1.283.3,5.985,5.985,0,0,0-9.628,3.71C7.059,7.008,7.03,7,7,7a5.006,5.006,0,0,0-5,5,4.946,4.946,0,0,0,1.11,3.1,4,4,0,1,0,7.78,0,4.965,4.965,0,0,0,.749-1.264A5.93,5.93,0,0,0,13,14a6,6,0,0,0,5.935-5.164A2.992,2.992,0,0,0,18,3Z" fill="#e86c60"></path> <path d="M46,12a5.006,5.006,0,0,0-5-5c-.03,0-.059.008-.089.009A5.985,5.985,0,0,0,31.283,3.3,2.972,2.972,0,0,0,30,3a2.992,2.992,0,0,0-.935,5.836A6,6,0,0,0,35,14a5.93,5.93,0,0,0,1.361-.162A4.965,4.965,0,0,0,37.11,15.1a4,4,0,1,0,7.78,0A4.946,4.946,0,0,0,46,12Z" fill="#e86c60"></path> <path d="M24,46A21,21,0,1,1,45,25,21.024,21.024,0,0,1,24,46Z" fill="#e6e6e6"></path> <circle cx="15" cy="22" r="6" fill="#43a6dd"></circle> <circle cx="15" cy="22" r="4" fill="#fff"></circle> <circle cx="15" cy="22" r="2" fill="#444"></circle> <circle cx="33" cy="22" r="6" fill="#43a6dd"></circle> <circle cx="33" cy="22" r="4" fill="#fff"></circle> <circle cx="33" cy="22" r="2" fill="#444"></circle> <circle cx="24" cy="30" r="4" fill="#e86c60"></circle> <path d="M24,44a16.559,16.559,0,0,1-13.751-7.323,3,3,0,0,1,4.977-3.352,10.571,10.571,0,0,0,17.548,0,3,3,0,0,1,4.978,3.35A16.556,16.556,0,0,1,24,44Z" fill="#e86c60"></path> <path d="M24,42a14.562,14.562,0,0,1-12.092-6.44,1,1,0,1,1,1.659-1.118,12.571,12.571,0,0,0,20.867,0,1,1,0,1,1,1.659,1.118A14.562,14.562,0,0,1,24,42Z" fill="#fff"></path></svg>