<svg xmlns="http://www.w3.org/2000/svg" height="48" width="48" viewBox="0 0 48 48"><path d="M24,46A22,22,0,1,1,46,24,22.025,22.025,0,0,1,24,46Z" fill="#ffd764"></path> <path d="M35.6,32a11.932,11.932,0,0,0,.4-3,1,1,0,0,0-1-1H13a1,1,0,0,0-1,1,11.932,11.932,0,0,0,.395,3Z" fill="#fff"></path> <path d="M12.4,32A11.982,11.982,0,0,0,35.6,32Z" fill="#ae453e"></path> <path d="M18.014,39.385a11.9,11.9,0,0,0,11.972,0,6.985,6.985,0,0,0-11.972,0Z" fill="#e86c60"></path> <path d="M19,24a1,1,0,0,1-.857-.483L16,19.963l-2.144,3.554a1,1,0,1,1-1.712-1.034l3-4.972a1.039,1.039,0,0,1,1.712,0l3,4.972A1,1,0,0,1,19,24Z" fill="#444"></path> <path d="M35,24a1,1,0,0,1-.857-.483L32,19.963l-2.144,3.554a1,1,0,1,1-1.712-1.034l3-4.972a1.039,1.039,0,0,1,1.712,0l3,4.972A1,1,0,0,1,35,24Z" fill="#444"></path> <path d="M38,16a5.006,5.006,0,0,1-5-5c0-2.362,3.447-8.334,4.139-9.507a1.038,1.038,0,0,1,1.722,0C39.553,2.666,43,8.638,43,11A5.006,5.006,0,0,1,38,16Z" fill="#43a6dd"></path></svg>