<svg xmlns="http://www.w3.org/2000/svg" height="48" width="48" viewBox="0 0 48 48"><path d="M2,14c.812,7,4,9.219,10,9.219V17Z" fill="#87613e"></path> <path d="M46,14c-.813,7-4,9.219-10,9.219V17Z" fill="#87613e"></path> <path d="M24,47A19,19,0,1,1,43,28,19.021,19.021,0,0,1,24,47Z" fill="#ffd764"></path> <path d="M36.16,8.6C35.417,3.417,31,1,29,1s-4,2-5,2-3-2-5-2-6.417,2.417-7.16,7.6L11,17H37Z" fill="#87613e"></path> <path d="M24,21c12.15,0,22-3.134,22-7H2C2,17.866,11.85,21,24,21Z" fill="#a67c52"></path> <polygon points="11.5 12 11.3 14 36.7 14 36.5 12 11.5 12" fill="#ddbe99"></polygon> <path d="M16.5,31A2.5,2.5,0,1,1,19,28.5,2.5,2.5,0,0,1,16.5,31Z" fill="#444"></path> <path d="M31.5,31A2.5,2.5,0,1,1,34,28.5,2.5,2.5,0,0,1,31.5,31Z" fill="#444"></path> <path d="M24,41a7.94,7.94,0,0,1-6.856-3.877,1,1,0,1,1,1.712-1.031,6,6,0,0,0,10.288,0,1,1,0,1,1,1.712,1.031A7.94,7.94,0,0,1,24,41Z" fill="#444"></path></svg>