<svg xmlns="http://www.w3.org/2000/svg" height="48" width="48" viewBox="0 0 48 48"><circle cx="24" cy="24" r="22" fill="#ffd764"></circle> <path d="M36.5,29.693a11.95,11.95,0,0,0-.5-2.984,1,1,0,0,0-1.248-.665l-21.043,6.42a1,1,0,0,0-.664,1.248A11.959,11.959,0,0,0,14.3,36.466Z" fill="#fff"></path> <path d="M14.3,36.466a11.982,11.982,0,0,0,22.2-6.773Z" fill="#ae453e"></path> <path d="M25,37c-2.761,0-5,.239-5,3v2a5,5,0,0,0,10,0V40C30,37.239,27.761,37,25,37Z" fill="#fa645a"></path> <circle cx="13" cy="22" r="5" fill="#fff"></circle> <circle cx="28.5" cy="16.5" r="6.5" fill="#fff"></circle> <circle cx="28.5" cy="14.5" r="2.5" fill="#444"></circle> <circle cx="13" cy="23" r="2" fill="#444"></circle></svg>