<svg xmlns="http://www.w3.org/2000/svg" height="48" width="48" viewBox="0 0 48 48"><path d="M34.087,3.2A3,3,0,0,0,30.2,4.913L24.726,19H20a3.244,3.244,0,0,0-3,2H15a3,3,0,0,0-3,3V35a7,7,0,0,0,4,6.315V46a1,1,0,0,0,1,1H31a1,1,0,0,0,1-1V40.736A6.991,6.991,0,0,0,35,35V24l-4.84-2.42L35.8,7.087A3,3,0,0,0,34.087,3.2Z" fill="#ffd764"></path> <path d="M22,28a1,1,0,0,1-1-1V20a1,1,0,0,1,2,0v7A1,1,0,0,1,22,28Z" fill="#e2ac4b"></path> <path d="M17,28.625a1,1,0,0,1-1-1V22a1,1,0,0,1,2,0v5.625A1,1,0,0,1,17,28.625Z" fill="#e2ac4b"></path> <path d="M19,28H35V26H19a4,4,0,0,0,0,8h6v4a1,1,0,0,0,2,0V33a1,1,0,0,0-1-1H19a2,2,0,0,1,0-4Z" fill="#e2ac4b"></path> <path d="M31.163,19l2.744-7.055c-1.318-3.488-2.673-6.525-3.254-7.792a2.983,2.983,0,0,0-.449.76L24.726,19,29,21Z" fill="#e2ac4b"></path> <path d="M28.724,4.743a3,3,0,0,0-5.448,2.514C25.489,12.052,29,20.837,29,24v2h6V24C35,18.5,29.366,6.135,28.724,4.743Z" fill="#ffd764"></path></svg>