<svg xmlns="http://www.w3.org/2000/svg" height="48" width="48" viewBox="0 0 48 48"><path d="M24,46A22,22,0,1,1,46,24,22.025,22.025,0,0,1,24,46Z" fill="#ffd764"></path> <path d="M37,23H31a1,1,0,0,1,0-2h6a1,1,0,0,1,0,2Z" fill="#444"></path> <path d="M17,23H11a1,1,0,0,1,0-2h6a1,1,0,0,1,0,2Z" fill="#444"></path> <path d="M24,39a5,5,0,1,1,5-5A5.006,5.006,0,0,1,24,39Z" fill="#ae453e"></path> <path d="M11,23V43.375A2.831,2.831,0,0,0,14,46a2.831,2.831,0,0,0,3-2.625V23Z" fill="#43a6dd"></path> <path d="M31,23V43.375A2.831,2.831,0,0,0,34,46a2.831,2.831,0,0,0,3-2.625V23Z" fill="#43a6dd"></path> <path d="M24,39a5,5,0,1,1,5-5A5.006,5.006,0,0,1,24,39Z" fill="#ae453e"></path> <ellipse cx="24" cy="37" rx="3.974" ry="2" fill="#fa645a"></ellipse></svg>