<svg xmlns="http://www.w3.org/2000/svg" height="48" width="48" viewBox="0 0 48 48"><circle cx="24" cy="24" r="22" fill="#ffd764"></circle> <path d="M16,26a6,6,0,1,1,6-6A6.007,6.007,0,0,1,16,26Z" fill="#fff"></path> <path d="M32,26a6,6,0,1,1,6-6A6.007,6.007,0,0,1,32,26Z" fill="#fff"></path> <path d="M16,24a3,3,0,1,1,3-3A3,3,0,0,1,16,24Z" fill="#444"></path> <path d="M32,24a3,3,0,1,1,3-3A3,3,0,0,1,32,24Z" fill="#444"></path> <path d="M34,29a5,5,0,0,0-5,5V45.423a21.951,21.951,0,0,0,10-5.336V34A5,5,0,0,0,34,29Z" fill="#ddb35f"></path> <path d="M14,29a5,5,0,0,0-5,5v6.087a21.942,21.942,0,0,0,10,5.335V34A5,5,0,0,0,14,29Z" fill="#ddb35f"></path></svg>