<svg xmlns="http://www.w3.org/2000/svg" height="48" width="48" viewBox="0 0 48 48"><path d="M7.99,15.011a1,1,0,0,1-.98-.8L5.02,4.2A1,1,0,0,1,6.406,3.086l9,4a1,1,0,0,1,.245,1.673L8.642,14.77A1,1,0,0,1,7.99,15.011Z" fill="#444"></path> <path d="M40.01,15.011a1,1,0,0,1-.652-.241L32.349,8.759a1,1,0,0,1,.245-1.673l9-4A1,1,0,0,1,42.98,4.2L40.99,14.206a1,1,0,0,1-.98.8Z" fill="#444"></path> <path d="M24,47A21,21,0,1,1,45,26,21.024,21.024,0,0,1,24,47Z" fill="#fa645a"></path> <path d="M24,39a9.011,9.011,0,0,1-9-9,1,1,0,0,1,1-1H32a1,1,0,0,1,1,1A9.011,9.011,0,0,1,24,39Z" fill="#fa645a"></path> <path d="M24,39a9.011,9.011,0,0,1-9-9,1,1,0,0,1,1-1H32a1,1,0,0,1,1,1A9.011,9.011,0,0,1,24,39Z" fill="#ae453e"></path> <path d="M33,30a1,1,0,0,0-1-1H16a1,1,0,0,0-1,1v1H33Z" fill="#fff"></path> <path d="M12.879,17A3,3,0,1,0,18,19.121Z" fill="#444"></path> <path d="M35.121,17A3,3,0,1,1,30,19.121Z" fill="#444"></path></svg>