<svg xmlns="http://www.w3.org/2000/svg" height="48" width="48" viewBox="0 0 48 48"><path d="M24,46A22,22,0,1,1,46,24,22.025,22.025,0,0,1,24,46Z" fill="#ffd764"></path> <path d="M12,25a1,1,0,0,1-.707-1.707l6-6a1,1,0,0,1,1.414,1.414l-6,6A1,1,0,0,1,12,25Z" fill="#444"></path> <path d="M18,25a1,1,0,0,1-.707-.293l-6-6a1,1,0,0,1,1.414-1.414l6,6A1,1,0,0,1,18,25Z" fill="#444"></path> <path d="M36,25a1,1,0,0,0,.707-1.707l-6-6a1,1,0,0,0-1.414,1.414l6,6A1,1,0,0,0,36,25Z" fill="#444"></path> <path d="M30,25a1,1,0,0,0,.707-.293l6-6a1,1,0,0,0-1.414-1.414l-6,6A1,1,0,0,0,30,25Z" fill="#444"></path> <path d="M24,39a5,5,0,1,1,5-5A5.006,5.006,0,0,1,24,39Z" fill="#ae453e"></path> <ellipse cx="24" cy="37" rx="3.974" ry="2" fill="#fa645a"></ellipse></svg>