<svg xmlns="http://www.w3.org/2000/svg" height="48" width="48" viewBox="0 0 48 48"><path d="M24,46A22,22,0,1,1,46,24,22.025,22.025,0,0,1,24,46Z" fill="#ffd764"></path> <path d="M29,34.5V37H27v1H24v3.5a1.5,1.5,0,0,0,3,0V41a1,1,0,0,1,2,0v3.5a1.5,1.5,0,0,0,3,0v-10Z" fill="#43a6dd"></path> <path d="M35.909,33.584A1,1,0,0,0,35,33H13a1,1,0,0,0-.757,1.654C12.4,34.832,16.092,39,24,39s11.6-4.168,11.757-4.346A1,1,0,0,0,35.909,33.584Z" fill="#ae453e"></path> <path d="M11,25a1,1,0,0,0,1-1,2,2,0,0,1,4,0,1,1,0,0,0,2,0,4,4,0,0,0-8,0A1,1,0,0,0,11,25Z" fill="#444"></path> <path d="M37,25a1,1,0,0,1-1-1,2,2,0,0,0-4,0,1,1,0,0,1-2,0,4,4,0,0,1,8,0A1,1,0,0,1,37,25Z" fill="#444"></path></svg>