<svg xmlns="http://www.w3.org/2000/svg" height="48" width="48" viewBox="0 0 48 48"><path d="M24,46A22,22,0,1,1,46,24,22.025,22.025,0,0,1,24,46Z" fill="#ffd764"></path> <path d="M15,27a3,3,0,1,1,3-3A3,3,0,0,1,15,27Z" fill="#444"></path> <path d="M33,27a3,3,0,1,1,3-3A3,3,0,0,1,33,27Z" fill="#444"></path> <path d="M32,37H16a1,1,0,0,1,0-2H32a1,1,0,0,1,0,2Z" fill="#444"></path> <path d="M19,20H11a1,1,0,0,1,0-2h8a1,1,0,0,1,0,2Z" fill="#444"></path> <path d="M28,14.511a1,1,0,0,1-.556-1.832c1.076-.717,6.576-4.182,9.2-1.927a1,1,0,0,1-1.3,1.519c-1.105-.945-4.7.679-6.8,2.073A1,1,0,0,1,28,14.511Z" fill="#444"></path> <circle cx="33" cy="24" r="8" fill="#bfdee0" opacity="0.5"></circle> <path d="M33,33a9,9,0,1,1,9-9A9.01,9.01,0,0,1,33,33Zm0-16a7,7,0,1,0,7,7A7.008,7.008,0,0,0,33,17Z" fill="#444"></path> <path d="M41,46a1,1,0,0,1-.949-.685c-1.627-4.9-.791-8,.016-11.006.772-2.869,1.5-5.579-.012-9.984a1,1,0,1,1,1.89-.65c1.714,4.984.869,8.12.053,11.154-.765,2.84-1.486,5.523-.049,9.856a1,1,0,0,1-.635,1.264A.983.983,0,0,1,41,46Z" fill="#444"></path></svg>