<svg xmlns="http://www.w3.org/2000/svg" height="48" width="48" style="" viewBox="0 0 48 48"><defs> <linearGradient id="nc-fearful-face-gradient" x1="24" y1="46" x2="24" y2="2" gradientUnits="userSpaceOnUse"> <stop offset="0.464" stop-color="#ffd764"></stop> <stop offset="0.755" stop-color="#458bc4"></stop> </linearGradient> </defs> <circle cx="24" cy="24" r="22" fill="url(#nc-fearful-face-gradient)"></circle> <path d="M32.964,38.735C32.948,38.678,31.3,33,24,33s-8.948,5.678-8.964,5.735A1,1,0,0,0,16,40H32a1,1,0,0,0,.964-1.265Z" fill="#ae453e"></path> <path d="M29.714,40A6.636,6.636,0,0,0,24,37a6.636,6.636,0,0,0-5.714,3Z" fill="#e86c60"></path> <circle cx="33" cy="25" r="3" fill="#444"></circle> <circle cx="15" cy="25" r="3" fill="#444"></circle> <path d="M10.069,18a1,1,0,0,1-.864-1.5A9.031,9.031,0,0,1,17,12a1,1,0,0,1,0,2,7.026,7.026,0,0,0-6.064,3.5A1,1,0,0,1,10.069,18Z" fill="#444"></path> <path d="M38,18a1,1,0,0,1-.866-.5A7.028,7.028,0,0,0,31.07,14a1,1,0,0,1,0-2,9.03,9.03,0,0,1,7.8,4.5A1,1,0,0,1,38,18Z" fill="#444"></path></svg>