<svg xmlns="http://www.w3.org/2000/svg" height="48" width="48" viewBox="0 0 48 48"><path d="M0,40.931V18.069A1.07,1.07,0,0,1,1.069,17H6.931A1.07,1.07,0,0,1,8,18.069V40.931A1.07,1.07,0,0,1,6.931,42H1.069A1.07,1.07,0,0,1,0,40.931Z" fill="#5a7a84"></path><path d="M31,40.852a2.121,2.121,0,0,0-1.477-2.064A2.643,2.643,0,0,0,32,36.065v-.092a2.72,2.72,0,0,0-1.669-2.555A2.724,2.724,0,0,0,33,30.691v-.085A2.444,2.444,0,0,0,31,28H44.3A3.633,3.633,0,0,0,48,24.688,3.5,3.5,0,0,0,44.5,21H25.458a2,2,0,0,1-1.208-3.594l3.026-2.293a3.634,3.634,0,0,0,.943-4.87,3.5,3.5,0,0,0-5.013-.829L8,19V39.778S21.75,43,29,43A2.128,2.128,0,0,0,31,40.852Z" fill="#eebc99"></path><path d="M37,14a1,1,0,0,1-.707-1.707l7-7a1,1,0,1,1,1.414,1.414l-7,7A1,1,0,0,1,37,14Z" fill="#867fe8"></path><path d="M32,13a.948.948,0,0,1-.2-.02A1,1,0,0,1,31.02,11.8l1-5a1,1,0,0,1,1.96.392l-1,5A1,1,0,0,1,32,13Z" fill="#867fe8"></path><path d="M38,19a1,1,0,0,1-.2-1.98l5-1a1,1,0,0,1,.392,1.96l-5,1A.955.955,0,0,1,38,19Z" fill="#867fe8"></path></svg>