<svg xmlns="http://www.w3.org/2000/svg" height="48" width="48" viewBox="0 0 48 48"><path d="M6,20a5,5,0,0,0-5,5v5a5,5,0,0,0,10,0V23C11,20.239,8.761,20,6,20Z" fill="#ffd764"></path> <path d="M18,20c-2.761,0-5,.239-5,3v7a5,5,0,0,0,10,0V23C23,20.239,20.761,20,18,20Z" fill="#ffd764"></path> <path d="M30,20c-2.761,0-5,.239-5,3v7a5,5,0,0,0,10,0V23C35,20.239,32.761,20,30,20Z" fill="#ffd764"></path> <path d="M46.9,21c-.463-2.282-2.48,0-4.9,0s-4.436-1.282-4.9,1H37v8a5,5,0,0,0,10,0V21Z" fill="#ffd764"></path> <path d="M38,3H10a9,9,0,0,0-9,9V24H11V21a1,1,0,0,1,1-1h0a1,1,0,0,1,1,1v3H23V21a1,1,0,0,1,1-1h0a1,1,0,0,1,1,1v3H35V21a1,1,0,0,1,1-1h0a1,1,0,0,1,1,1v3H47V12A9,9,0,0,0,38,3Z" fill="#ffd764"></path> <path d="M42,37H20a1,1,0,0,0-1,1,9.01,9.01,0,0,0,9,9H42a5,5,0,0,0,0-10Z" fill="#ffd764"></path></svg>