<svg xmlns="http://www.w3.org/2000/svg" height="48" width="48" viewBox="0 0 48 48"><path d="M24,46A22,22,0,1,1,46,24,22.025,22.025,0,0,1,24,46Z" fill="#ffd764"></path> <path d="M37,22a1,1,0,0,0-1,1,2,2,0,0,1-4,0,1,1,0,0,0-2,0,4,4,0,0,0,8,0A1,1,0,0,0,37,22Z" fill="#444"></path> <path d="M11,22a1,1,0,0,1,1,1,2,2,0,0,0,4,0,1,1,0,0,1,2,0,4,4,0,0,1-8,0A1,1,0,0,1,11,22Z" fill="#444"></path> <path d="M30,20a1,1,0,0,1-.888-1.458,8.908,8.908,0,0,1,2.466-2.959,8.783,8.783,0,0,1,3.172-1.551,1,1,0,0,1,.5,1.936,6.789,6.789,0,0,0-2.453,1.2,6.889,6.889,0,0,0-1.909,2.291A1,1,0,0,1,30,20Z" fill="#444"></path> <path d="M18,20a1,1,0,0,1-.89-.542A6.889,6.889,0,0,0,15.2,17.167a6.789,6.789,0,0,0-2.453-1.2,1,1,0,1,1,.5-1.936,8.783,8.783,0,0,1,3.172,1.551,8.908,8.908,0,0,1,2.466,2.959A1,1,0,0,1,18,20Z" fill="#444"></path> <path d="M17.292,38a1,1,0,0,1-.745-1.667,10,10,0,0,1,14.906,0,1,1,0,1,1-1.49,1.334,8,8,0,0,0-11.926,0A1,1,0,0,1,17.292,38Z" fill="#444"></path> <path d="M17.347,36.6l2.608-7.26a1,1,0,0,0-1.669-1.024l-5.412,5.74A4.876,4.876,0,0,0,6.51,41.4a4.289,4.289,0,0,0,7.838,3.387A4.318,4.318,0,0,0,15.639,45a4.375,4.375,0,0,0,1.708-8.4Z" fill="#b3b3b3"></path> <path d="M30.653,36.6l-2.608-7.26a1,1,0,0,1,1.669-1.024l5.412,5.74A4.876,4.876,0,0,1,41.49,41.4a4.289,4.289,0,0,1-7.838,3.387A4.318,4.318,0,0,1,32.361,45a4.375,4.375,0,0,1-1.708-8.4Z" fill="#b3b3b3"></path></svg>