<svg xmlns="http://www.w3.org/2000/svg" height="48" width="48" viewBox="0 0 48 48"><path d="M38,47H10a1,1,0,0,1-1-1V16a15,15,0,0,1,30,0V46A1,1,0,0,1,38,47Z" fill="#e0e0e0"></path> <circle cx="17" cy="16" r="3" fill="#444"></circle> <circle cx="31" cy="16" r="3" fill="#444"></circle> <path d="M4,4A3,3,0,0,0,1,7v4a3,3,0,0,0,6,0V7A3,3,0,0,0,4,4Z" fill="#e0e0e0"></path> <path d="M44,4a3,3,0,0,0-3,3v4a3,3,0,0,0,6,0V7A3,3,0,0,0,44,4Z" fill="#e0e0e0"></path> <path d="M32,23H16a1,1,0,0,0-1,1,9,9,0,0,0,18,0A1,1,0,0,0,32,23Z" fill="#444"></path> <path d="M24,25c-2.761,0-5,.239-5,3v4a5,5,0,0,0,10,0V28C29,25.239,26.761,25,24,25Z" fill="#fa645a"></path></svg>