<svg xmlns="http://www.w3.org/2000/svg" height="48" width="48" viewBox="0 0 48 48"><path d="M24,46A22,22,0,1,1,46,24,22.025,22.025,0,0,1,24,46Z" fill="#ffd764"></path> <path d="M30,23a1,1,0,0,0,1-1,2,2,0,0,1,4,0,1,1,0,0,0,2,0,4,4,0,0,0-8,0A1,1,0,0,0,30,23Z" fill="#444"></path> <path d="M18,23a1,1,0,0,1-1-1,2,2,0,0,0-4,0,1,1,0,0,1-2,0,4,4,0,0,1,8,0A1,1,0,0,1,18,23Z" fill="#444"></path> <rect x="10" y="28" width="28" height="8" rx="4" ry="4" fill="#fff"></rect> <path d="M37,33H11a1,1,0,0,1,0-2H37a1,1,0,0,1,0,2Z" fill="#e6e6e6"></path> <path d="M17,36a1,1,0,0,1-1-1V29a1,1,0,0,1,2,0v6A1,1,0,0,1,17,36Z" fill="#e6e6e6"></path> <path d="M24,36a1,1,0,0,1-1-1V29a1,1,0,0,1,2,0v6A1,1,0,0,1,24,36Z" fill="#e6e6e6"></path> <path d="M31,36a1,1,0,0,1-1-1V29a1,1,0,0,1,2,0v6A1,1,0,0,1,31,36Z" fill="#e6e6e6"></path></svg>