<svg xmlns="http://www.w3.org/2000/svg" height="48" width="48" viewBox="0 0 48 48"><path d="M24,46A22,22,0,1,1,46,24,22.025,22.025,0,0,1,24,46Z" fill="#ffd764"></path> <circle cx="38" cy="28" r="3" fill="#e86c60" opacity="0.5"></circle> <circle cx="10" cy="28" r="3" fill="#e86c60" opacity="0.5"></circle> <path d="M19,24a1,1,0,0,1-1-1,2,2,0,0,0-4,0,1,1,0,0,1-2,0,4,4,0,0,1,8,0A1,1,0,0,1,19,24Z" fill="#444"></path> <path d="M35,24a1,1,0,0,1-1-1,2,2,0,0,0-4,0,1,1,0,0,1-2,0,4,4,0,0,1,8,0A1,1,0,0,1,35,24Z" fill="#444"></path> <path d="M24.059,39a9.025,9.025,0,0,1-7.81-4.537,1,1,0,0,1,1.736-.994,6.989,6.989,0,0,0,12.147,0,1,1,0,0,1,1.736.994A9.024,9.024,0,0,1,24.059,39Z" fill="#444"></path></svg>