<svg xmlns="http://www.w3.org/2000/svg" height="48" width="48" viewBox="0 0 48 48"><path d="M24,41A17,17,0,1,1,41,24,17.019,17.019,0,0,1,24,41Z" fill="#ffd764"></path> <path d="M24,9a1,1,0,0,1-1-1V2a1,1,0,0,1,2,0V8A1,1,0,0,1,24,9Z" fill="#ffd764"></path> <path d="M13.393,13.393a1,1,0,0,1-1.414,0L7.737,9.151A1,1,0,1,1,9.151,7.737l4.242,4.242A1,1,0,0,1,13.393,13.393Z" fill="#ffd764"></path> <path d="M9,24a1,1,0,0,1-1,1H2a1,1,0,0,1,0-2H8A1,1,0,0,1,9,24Z" fill="#ffd764"></path> <path d="M46,25H40a1,1,0,0,1,0-2h6a1,1,0,0,1,0,2Z" fill="#ffd764"></path> <path d="M24,47a1,1,0,0,1-1-1V40a1,1,0,0,1,2,0v6A1,1,0,0,1,24,47Z" fill="#ffd764"></path> <path d="M13.393,36.021,9.151,40.263a1,1,0,1,1-1.414-1.414l4.242-4.242a1,1,0,0,1,1.414,1.414Z" fill="#ffd764"></path> <path d="M36.021,34.607l4.242,4.242a1,1,0,0,1-1.414,1.414l-4.242-4.242a1,1,0,0,1,1.414-1.414Z" fill="#ffd764"></path> <path d="M34.607,11.979l4.242-4.242a1,1,0,1,1,1.414,1.414l-4.242,4.242a1,1,0,0,1-1.414-1.414Z" fill="#ffd764"></path> <path d="M24,33a7.008,7.008,0,0,1-7-7,1,1,0,0,1,2,0,5,5,0,0,0,10,0,1,1,0,0,1,2,0A7.008,7.008,0,0,1,24,33Z" fill="#444"></path> <path d="M19,19H16a1,1,0,0,1,0-2h3a1,1,0,0,1,0,2Z" fill="#444"></path> <path d="M32,19H29a1,1,0,0,1,0-2h3a1,1,0,0,1,0,2Z" fill="#444"></path></svg>