<svg xmlns="http://www.w3.org/2000/svg" height="48" width="48" viewBox="0 0 48 48"><path d="M33,2a3,3,0,0,0-3,3V17.976a3,3,0,0,0-6,0,3,3,0,0,0-6,0V7a3,3,0,0,0-6,0V35a7,7,0,0,0,4,6.315V45a1,1,0,0,0,1,1H31a1,1,0,0,0,1-1V41.315A7,7,0,0,0,36,35V5A3,3,0,0,0,33,2Z" fill="#ffd764"></path> <path d="M28,38a1,1,0,0,1-1-1V33H20a4,4,0,0,1,0-8H36v2H20a2,2,0,0,0,0,4h8a1,1,0,0,1,1,1v5A1,1,0,0,1,28,38Z" fill="#e2ac4b"></path> <path d="M30,27a1,1,0,0,1-1-1V19a1,1,0,0,1,2,0v7A1,1,0,0,1,30,27Z" fill="#e2ac4b"></path> <path d="M24,27a1,1,0,0,1-1-1V19a1,1,0,0,1,2,0v7A1,1,0,0,1,24,27Z" fill="#e2ac4b"></path> <path d="M18,27a1,1,0,0,1-1-1V19a1,1,0,0,1,2,0v7A1,1,0,0,1,18,27Z" fill="#e2ac4b"></path></svg>