<svg xmlns="http://www.w3.org/2000/svg" height="48" width="48" viewBox="0 0 48 48"><path d="M24,46A22,22,0,1,1,46,24,22.025,22.025,0,0,1,24,46Z" fill="#ffd764"></path> <circle cx="38" cy="22" r="3" fill="#e86c60" opacity="0.5"></circle> <circle cx="10" cy="22" r="3" fill="#e86c60" opacity="0.5"></circle> <path d="M19,18a1,1,0,0,1-1-1,2,2,0,0,0-4,0,1,1,0,0,1-2,0,4,4,0,0,1,8,0A1,1,0,0,1,19,18Z" fill="#444"></path> <path d="M35,18a1,1,0,0,1-1-1,2,2,0,0,0-4,0,1,1,0,0,1-2,0,4,4,0,0,1,8,0A1,1,0,0,1,35,18Z" fill="#444"></path> <path d="M24.059,30a9.025,9.025,0,0,1-7.81-4.537,1,1,0,0,1,1.736-.994,6.989,6.989,0,0,0,12.147,0,1,1,0,0,1,1.736.994A9.024,9.024,0,0,1,24.059,30Z" fill="#444"></path> <path d="M16,41h5.5a1.5,1.5,0,0,0,0-3H16a1,1,0,0,1,0-2h4.5a1.5,1.5,0,0,0,0-3H11.516l2.1-2.1a2,2,0,0,0-2.828-2.828S4.165,34.712,3.7,35.182a6.24,6.24,0,0,0-1.643,3.462A6.508,6.508,0,0,0,8.5,46h12a1.5,1.5,0,0,0,0-3H16a1,1,0,0,1,0-2Z" fill="#e2ac4b"></path> <path d="M32,41H26.5a1.5,1.5,0,0,1,0-3H32a1,1,0,0,0,0-2H27.5a1.5,1.5,0,0,1,0-3h8.984l-2.1-2.1a2,2,0,1,1,2.828-2.828s6.624,6.642,7.091,7.112a6.24,6.24,0,0,1,1.643,3.462A6.508,6.508,0,0,1,39.5,46h-12a1.5,1.5,0,0,1,0-3H32a1,1,0,0,0,0-2Z" fill="#e2ac4b"></path></svg>