<svg xmlns="http://www.w3.org/2000/svg" height="48" width="48" viewBox="0 0 48 48"><path d="M24,46A22,22,0,1,1,46,24,22.025,22.025,0,0,1,24,46Z" fill="#ffd764"></path> <path d="M17,23a1,1,0,0,1-1-1,2,2,0,0,0-4,0,1,1,0,0,1-2,0,4,4,0,0,1,8,0A1,1,0,0,1,17,23Z" fill="#444"></path> <path d="M37,23a1,1,0,0,1-1-1,2,2,0,0,0-4,0,1,1,0,0,1-2,0,4,4,0,0,1,8,0A1,1,0,0,1,37,23Z" fill="#444"></path> <path d="M39.944,36.927l-3.459-4.439a15.672,15.672,0,0,1-5.548,4.345,15.313,15.313,0,0,1-2.665.947l3.784,5.293a5,5,0,1,0,7.888-6.146Z" fill="#e86c60"></path> <path d="M24.017,39a16.64,16.64,0,0,1-13.371-6.652,1,1,0,1,1,1.595-1.207,14.763,14.763,0,0,0,23.366.24,1,1,0,0,1,1.57,1.239A16.676,16.676,0,0,1,24.017,39Z" fill="#444"></path></svg>