<svg xmlns="http://www.w3.org/2000/svg" height="48" width="48" viewBox="0 0 48 48"><path d="M26,45A21,21,0,1,1,47,24,21.024,21.024,0,0,1,26,45Z" fill="#ffd764"></path> <path d="M26.058,39a9.025,9.025,0,0,1-7.809-4.536,1,1,0,0,1,1.736-.994,6.989,6.989,0,0,0,12.146,0,1,1,0,0,1,1.737.994A9.028,9.028,0,0,1,26.058,39Z" fill="#444"></path> <circle cx="35" cy="24" r="3" fill="#444"></circle> <circle cx="17" cy="24" r="3" fill="#444"></circle> <path d="M42.072,19H.928a1,1,0,0,1,0-2H42.072a1,1,0,0,1,0,2Z" fill="#a56edc"></path> <path d="M5.627,19H46.373A20.971,20.971,0,0,0,5.627,19Z" fill="#a56edc"></path></svg>