<svg xmlns="http://www.w3.org/2000/svg" height="48" width="48" viewBox="0 0 48 48"><path d="M24,46A22,22,0,1,1,46,24,22.025,22.025,0,0,1,24,46Z" fill="#ffd764"></path> <path d="M30,23a1,1,0,0,0,1-1,2,2,0,0,1,4,0,1,1,0,0,0,2,0,4,4,0,0,0-8,0A1,1,0,0,0,30,23Z" fill="#444"></path> <path d="M18,23a1,1,0,0,1-1-1,2,2,0,0,0-4,0,1,1,0,0,1-2,0,4,4,0,0,1,8,0A1,1,0,0,1,18,23Z" fill="#444"></path> <path d="M35.6,32a11.932,11.932,0,0,0,.4-3,1,1,0,0,0-1-1H13a1,1,0,0,0-1,1,11.932,11.932,0,0,0,.395,3Z" fill="#fff"></path> <path d="M12.4,32A11.982,11.982,0,0,0,35.6,32Z" fill="#ae453e"></path> <path d="M18.014,39.385a11.9,11.9,0,0,0,11.972,0,6.985,6.985,0,0,0-11.972,0Z" fill="#fa645a"></path></svg>