<svg xmlns="http://www.w3.org/2000/svg" height="48" width="48" viewBox="0 0 48 48"><path d="M26,47A21,21,0,1,1,47,26,21.024,21.024,0,0,1,26,47Z" fill="#ffd764"></path> <path d="M18,38a3,3,0,1,1,0-6,1,1,0,0,1,0,2,1,1,0,1,0,0,2,1,1,0,0,1,0,2Z" fill="#444"></path> <path d="M18,20a3,3,0,1,1,0-6,1,1,0,0,1,0,2,1,1,0,1,0,0,2,1,1,0,0,1,0,2Z" fill="#444"></path> <path d="M30,35a1,1,0,0,1-1-1V18a1,1,0,0,1,1-1h1V35Z" fill="#fff"></path> <path d="M7,41H4a3,3,0,0,0,0,6H7a3,3,0,0,0,0-6Z" fill="#ffd764"></path> <path d="M31,17.059V34.941a9,9,0,0,0,0-17.882Z" fill="#ae453e"></path> <path d="M37.547,30.886a8.942,8.942,0,0,0,0-9.772,5.96,5.96,0,0,0,0,9.772Z" fill="#fa645a"></path></svg>