<svg xmlns="http://www.w3.org/2000/svg" height="48" width="48" viewBox="0 0 48 48"><path d="M41.7,19.418a2.905,2.905,0,0,0-3.789.875c-.139.178-3.165,4.141-4.918,6.831V24L33,5a3,3,0,0,0-6,0V20a3,3,0,0,0-6,0,3,3,0,0,0-6,0V6A3,3,0,0,0,9,6V33.357a7.649,7.649,0,0,0,4,6.718V45a1,1,0,0,0,1,1H28.993a1,1,0,0,0,1-1V40.75c4.792-2.125,7.875-10.208,12.582-17.542A2.739,2.739,0,0,0,41.7,19.418Z" fill="#ffd764"></path> <path d="M27,20a1,1,0,0,0-1,1v7a2,2,0,0,1-4,0V21a1,1,0,0,0-2,0v7a2,2,0,0,1-4,0V21a1,1,0,0,0-2,0v7a3.983,3.983,0,0,0,7,2.618A3.983,3.983,0,0,0,28,28V21A1,1,0,0,0,27,20Z" fill="#e2ac4b"></path></svg>