<svg xmlns="http://www.w3.org/2000/svg" height="48" width="48" viewBox="0 0 48 48"><path d="M23,46A22,22,0,1,1,45,24,22.025,22.025,0,0,1,23,46Z" fill="#ffd764"></path> <path d="M11,16a.982.982,0,0,1-.5-.134,1,1,0,0,1-.366-1.366,9.034,9.034,0,0,1,7.8-4.5,1,1,0,0,1,0,2,7.027,7.027,0,0,0-6.064,3.5A1,1,0,0,1,11,16Z" fill="#444"></path> <path d="M39,16a1,1,0,0,1-.867-.5A7.027,7.027,0,0,0,32.07,12a1,1,0,0,1,0-2,9.034,9.034,0,0,1,7.8,4.5,1,1,0,0,1-.366,1.366A.982.982,0,0,1,39,16Z" fill="#444"></path> <circle cx="34" cy="20" r="3" fill="#444"></circle> <circle cx="16" cy="20" r="3" fill="#444"></circle> <circle cx="25" cy="34" r="4" fill="#444"></circle> <path d="M45,28H26a2,2,0,0,1,0-4H45a2,2,0,0,1,0,4Z" fill="#e2ac4b"></path></svg>