<svg xmlns="http://www.w3.org/2000/svg" height="48" width="48" viewBox="0 0 48 48"><path d="M24,46A22,22,0,1,1,46,24,22.025,22.025,0,0,1,24,46Z" fill="#ffd764"></path> <path d="M31,26a1,1,0,0,1-.516-1.857l5-3a1,1,0,0,1,1.029,1.715l-5,3A1,1,0,0,1,31,26Z" fill="#444"></path> <path d="M17,26a.991.991,0,0,1-.513-.143l-5-3a1,1,0,1,1,1.029-1.714l5,3A1,1,0,0,1,17,26Z" fill="#444"></path> <path d="M33,32a1,1,0,0,0-1-1H16a1,1,0,0,0-1,1v1H33Z" fill="#fff"></path> <path d="M15.059,33a9,9,0,0,0,17.882,0Z" fill="#ae453e"></path> <path d="M19.114,39.547a8.942,8.942,0,0,0,9.772,0,5.96,5.96,0,0,0-9.772,0Z" fill="#fa645a"></path></svg>