<svg xmlns="http://www.w3.org/2000/svg" height="48" width="48" viewBox="0 0 48 48"><path d="M24,46A22,22,0,1,1,46,24,22.025,22.025,0,0,1,24,46Z" fill="#ffd764"></path> <path d="M33,26a1,1,0,0,1-.516-1.857l5-3a1,1,0,1,1,1.029,1.714l-5,3A.991.991,0,0,1,33,26Z" fill="#444"></path> <path d="M15,26a.991.991,0,0,1-.513-.143l-5-3a1,1,0,1,1,1.029-1.714l5,3A1,1,0,0,1,15,26Z" fill="#444"></path> <path d="M24,39a9.028,9.028,0,0,1-7.81-4.536,1,1,0,0,1,1.737-.994,6.989,6.989,0,0,0,12.146,0,1,1,0,0,1,1.737.994A9.028,9.028,0,0,1,24,39Z" fill="#444"></path></svg>