<svg xmlns="http://www.w3.org/2000/svg" height="48" width="48" viewBox="0 0 48 48"><path d="M24,46A22,22,0,1,1,46,24,22.025,22.025,0,0,1,24,46Z" fill="#ffd764"></path> <path d="M18,24a1,1,0,0,1-1-1,2,2,0,0,0-4,0,1,1,0,0,1-2,0,4,4,0,0,1,8,0A1,1,0,0,1,18,24Z" fill="#444"></path> <path d="M38,24a1,1,0,0,1-1-1,2,2,0,0,0-4,0,1,1,0,0,1-2,0,4,4,0,0,1,8,0A1,1,0,0,1,38,24Z" fill="#444"></path> <path d="M24,40a1,1,0,0,1,0-2,7.04,7.04,0,0,0,6.83-5.481,1,1,0,1,1,1.953.432A9.052,9.052,0,0,1,24,40Z" fill="#444"></path></svg>