<svg xmlns="http://www.w3.org/2000/svg" height="48" width="48" viewBox="0 0 48 48"><path d="M34,45H14A13.015,13.015,0,0,1,1,32V20A13.015,13.015,0,0,1,14,7h3.764L29.553,1.105A1,1,0,0,1,31,2V7h3A13.015,13.015,0,0,1,47,20V32A13.015,13.015,0,0,1,34,45Z" fill="#badefc"></path> <path d="M16,27a1,1,0,0,1-1-1V23a1,1,0,0,1,2,0v3A1,1,0,0,1,16,27Z" fill="#444"></path> <path d="M16,20a1,1,0,0,1-1-1V16a1,1,0,0,1,2,0v3A1,1,0,0,1,16,20Z" fill="#444"></path> <path d="M27,37H21a1,1,0,0,1,0-2h6a1,1,0,0,1,0,2Z" fill="#444"></path> <path d="M16,24a3,3,0,1,1,3-3A3,3,0,0,1,16,24Z" fill="#444"></path> <path d="M31,27a1,1,0,0,1-1-1V23a1,1,0,0,1,2,0v3A1,1,0,0,1,31,27Z" fill="#444"></path> <path d="M31,20a1,1,0,0,1-1-1V16a1,1,0,0,1,2,0v3A1,1,0,0,1,31,20Z" fill="#444"></path> <path d="M31,24a3,3,0,1,1,3-3A3,3,0,0,1,31,24Z" fill="#444"></path></svg>