<svg xmlns="http://www.w3.org/2000/svg" height="48" width="48" viewBox="0 0 48 48"><path d="M34,45H14A13.015,13.015,0,0,1,1,32V20A13.015,13.015,0,0,1,14,7h3.764L29.553,1.105A1,1,0,0,1,31,2V7h3A13.015,13.015,0,0,1,47,20V32A13.015,13.015,0,0,1,34,45Z" fill="#9bced3"></path> <path d="M36,23a1,1,0,0,1-1-1,3,3,0,0,0-6,0,1,1,0,0,1-2,0,5,5,0,0,1,10,0A1,1,0,0,1,36,23Z" fill="#444"></path> <path d="M20,23a1,1,0,0,1-1-1,3,3,0,0,0-6,0,1,1,0,0,1-2,0,5,5,0,0,1,10,0A1,1,0,0,1,20,23Z" fill="#444"></path> <path d="M28,37a5,5,0,0,1-4-2,5,5,0,0,1-9-3,1,1,0,0,1,2,0,3,3,0,0,0,6,0,1,1,0,0,1,2,0,3,3,0,0,0,6,0,1,1,0,0,1,2,0A5.006,5.006,0,0,1,28,37Z" fill="#444"></path></svg>