<svg xmlns="http://www.w3.org/2000/svg" height="48" width="48" viewBox="0 0 48 48"><path d="M24,46A22,22,0,1,1,46,24,22.025,22.025,0,0,1,24,46Z" fill="#ffd764"></path> <path d="M16,32H3.139a1,1,0,0,1,0-2H16a1,1,0,0,1,0,2Z" fill="#fff"></path> <path d="M44.861,32H32a1,1,0,0,1,0-2H44.861a1,1,0,0,1,0,2Z" fill="#fff"></path> <path d="M30,37H18a3,3,0,0,1-3-3V28a3,3,0,0,1,3-3H30a3,3,0,0,1,3,3v6A3,3,0,0,1,30,37Z" fill="#fff"></path> <path d="M37,21H31a1,1,0,0,1,0-2h6a1,1,0,0,1,0,2Z" fill="#444"></path> <path d="M17,21H11a1,1,0,0,1,0-2h6a1,1,0,0,1,0,2Z" fill="#444"></path></svg>