<svg xmlns="http://www.w3.org/2000/svg" height="48" width="48" viewBox="0 0 48 48"><path d="M33,19a2.983,2.983,0,0,0-2.021.8A2.993,2.993,0,0,0,25,20V4a3,3,0,0,0-6,0V17.78A2.987,2.987,0,0,0,14,20v3H12.6A3.607,3.607,0,0,0,9,26.6V29.5a6.994,6.994,0,0,0,2.024,4.94l4.2,5.191A16.016,16.016,0,0,0,18,42.075V46a1,1,0,0,0,1,1H33a1,1,0,0,0,1-1V40.494a7.6,7.6,0,0,0,2-5.137V22A3,3,0,0,0,33,19Z" fill="#ffd764"></path> <path d="M12,30a1,1,0,0,0,2,0V23H12.6a3.521,3.521,0,0,0-.6.061Z" fill="#e2ac4b"></path></svg>