<svg xmlns="http://www.w3.org/2000/svg" height="48" width="48" viewBox="0 0 48 48"><path d="M35.5,5a5.444,5.444,0,0,0-1.424.194,6.96,6.96,0,0,0-9.138-.883,6.985,6.985,0,0,0-11.714-.258A5.582,5.582,0,0,0,12.5,4a5.5,5.5,0,1,0,3.042,10.078,6.947,6.947,0,0,0,7.52-.389,6.969,6.969,0,0,0,10.217,1.838A5.5,5.5,0,1,0,35.5,5Z" fill="#e6e6e6"></path> <path d="M28,15.077a11.922,11.922,0,0,1,.419-3.173A4.462,4.462,0,0,1,24.251,10.6,4.987,4.987,0,0,1,20,13a4.932,4.932,0,0,1-1.458-.242,6.226,6.226,0,0,1,.416,2.278,6.463,6.463,0,0,1-1.691,4.285A1,1,0,0,0,18,21H28a1,1,0,0,0,.923-1.384A11.98,11.98,0,0,1,28,15.077Z" fill="#ea9860"></path> <path d="M44.347,19.882a1,1,0,0,0-.654-.705l-6.377-2.126a1,1,0,0,0-.71.03l-6.543,2.8L23.5,16.132a1,1,0,0,0-.812-.081l-8.653,2.885-4.66-1.865a1,1,0,0,0-.867.061L4.014,19.7a1.006,1.006,0,0,0-.48.648A20.995,20.995,0,1,0,45,25,21.123,21.123,0,0,0,44.347,19.882Z" fill="#ffd764"></path> <circle cx="33" cy="26" r="3" fill="#444"></circle> <circle cx="15" cy="26" r="3" fill="#444"></circle> <path d="M24,43a5,5,0,1,1,5-5A5.006,5.006,0,0,1,24,43Z" fill="#ae453e"></path> <ellipse cx="24" cy="41" rx="3.974" ry="2" fill="#fa645a"></ellipse></svg>