<svg xmlns="http://www.w3.org/2000/svg" height="48" width="48" viewBox="0 0 48 48"><rect width="48" height="48" fill="none"></rect> <path d="M24,46A22,22,0,1,1,46,24,22,22,0,0,1,24,46Z" fill="#ffd764"></path> <path d="M33,28a1,1,0,0,0-1-1H16a1,1,0,0,0-1,1v1H33Z" fill="#fff"></path> <path d="M15.059,29a9,9,0,0,0,17.882,0Z" fill="#ae453e"></path> <path d="M24,33c-2.761,0-5,.239-5,3v4a5,5,0,0,0,10,0V36C29,33.239,26.761,33,24,33Z" fill="#72c472"></path> <path d="M20.021,19.649c0-1.621-.865-2.611-3.007-3.367-1.531-.576-2.16-.954-2.16-1.549,0-.5.377-1.008,1.547-1.008a5.971,5.971,0,0,1,2.593.612l.523-2.034A6.448,6.448,0,0,0,17,11.717V10H15v1.872a3.289,3.289,0,0,0-2.9,3.168c0,1.746,1.314,2.647,3.24,3.294,1.333.451,1.909.883,1.909,1.567,0,.72-.7,1.117-1.728,1.117a6.364,6.364,0,0,1-2.99-.793l-.54,2.107A7.23,7.23,0,0,0,15,23.1V25h2V22.934A3.406,3.406,0,0,0,20.021,19.649Z" fill="#444"></path> <path d="M36.021,19.649c0-1.621-.865-2.611-3.007-3.367-1.531-.576-2.16-.954-2.16-1.549,0-.5.377-1.008,1.547-1.008a5.971,5.971,0,0,1,2.593.612l.523-2.034A6.448,6.448,0,0,0,33,11.717V10H31v1.872a3.289,3.289,0,0,0-2.9,3.168c0,1.746,1.314,2.647,3.24,3.294,1.333.451,1.909.883,1.909,1.567,0,.72-.7,1.117-1.728,1.117a6.364,6.364,0,0,1-2.99-.793l-.54,2.107A7.23,7.23,0,0,0,31,23.1V25h2V22.934A3.406,3.406,0,0,0,36.021,19.649Z" fill="#444"></path></svg>