<svg xmlns="http://www.w3.org/2000/svg" height="48" width="48" viewBox="0 0 48 48"><circle cx="8" cy="20" r="7" fill="#ead8c5"></circle> <path d="M8,28a8,8,0,1,1,8-8A8.009,8.009,0,0,1,8,28ZM8,14a6,6,0,1,0,6,6A6.006,6.006,0,0,0,8,14Z" fill="#87613e"></path> <circle cx="40" cy="20" r="7" fill="#ead8c5"></circle> <path d="M40,28a8,8,0,1,1,8-8A8.009,8.009,0,0,1,40,28Zm0-14a6,6,0,1,0,6,6A6.006,6.006,0,0,0,40,14Z" fill="#87613e"></path> <path d="M24,44A20,20,0,1,1,44,24,20.023,20.023,0,0,1,24,44Z" fill="#87613e"></path> <path d="M24,41A12,12,0,1,1,36,29,12.013,12.013,0,0,1,24,41Z" fill="#ead8c5"></path> <path d="M17,28a8,8,0,1,1,8-8A8.009,8.009,0,0,1,17,28Z" fill="#ead8c5"></path> <path d="M31,28a8,8,0,1,1,8-8A8.009,8.009,0,0,1,31,28Z" fill="#ead8c5"></path> <path d="M17,23a3,3,0,1,1,3-3A3,3,0,0,1,17,23Z" fill="#444"></path> <path d="M31,23a3,3,0,1,1,3-3A3,3,0,0,1,31,23Z" fill="#444"></path> <path d="M21,7a8.277,8.277,0,0,1,8-7c-2,1-1,6-1,6Z" fill="#87613e"></path> <circle cx="22" cy="25" r="1" fill="#c6a279"></circle> <circle cx="26" cy="25" r="1" fill="#c6a279"></circle> <path d="M36,47a4.975,4.975,0,0,1-2.476-.66l-7-4a5,5,0,1,1,4.96-8.682l7,4A5,5,0,0,1,36,47Z" fill="#a67c52"></path> <path d="M12.005,47A5,5,0,0,1,9.52,37.659l7-4a5,5,0,0,1,4.96,8.682l-7,4A4.974,4.974,0,0,1,12.005,47Z" fill="#a67c52"></path> <path d="M26.479,36.451l4.952-1.829a1.44,1.44,0,0,0-1-2.7L25.481,33.75a.959.959,0,1,1-.665-1.8l4.051-1.5a1.44,1.44,0,0,0-1-2.7L19.78,30.741l1.193-2.591a1.92,1.92,0,1,0-3.487-1.606s-3.754,8.183-4.018,8.762a5.986,5.986,0,0,0-.327,3.663,6.246,6.246,0,0,0,8.249,4.479l10.8-3.992a1.44,1.44,0,0,0-1-2.7l-4.052,1.5a.96.96,0,0,1-.665-1.8Z" fill="#e5a57a"></path> <path d="M21.521,36.451l-4.952-1.829a1.44,1.44,0,0,1,1-2.7l4.952,1.829a.959.959,0,1,0,.665-1.8l-4.051-1.5a1.44,1.44,0,0,1,1-2.7l8.089,2.989L27.027,28.15a1.92,1.92,0,1,1,3.487-1.606s3.754,8.183,4.018,8.762a5.986,5.986,0,0,1,.327,3.663,6.246,6.246,0,0,1-8.249,4.479l-10.8-3.992a1.44,1.44,0,0,1,1-2.7l4.052,1.5a.96.96,0,1,0,.665-1.8Z" fill="#eebc99"></path></svg>