<svg xmlns="http://www.w3.org/2000/svg" height="48" width="48" viewBox="0 0 48 48"><circle cx="8" cy="21" r="7" fill="#ead8c5"></circle> <path d="M8,29a8,8,0,1,1,8-8A8.009,8.009,0,0,1,8,29ZM8,15a6,6,0,1,0,6,6A6.006,6.006,0,0,0,8,15Z" fill="#87613e"></path> <circle cx="40" cy="21" r="7" fill="#ead8c5"></circle> <path d="M40,29a8,8,0,1,1,8-8A8.009,8.009,0,0,1,40,29Zm0-14a6,6,0,1,0,6,6A6.006,6.006,0,0,0,40,15Z" fill="#87613e"></path> <path d="M24,44A20,20,0,1,1,44,24,20.023,20.023,0,0,1,24,44Z" fill="#87613e"></path> <path d="M24,41A12,12,0,1,1,36,29,12.013,12.013,0,0,1,24,41Z" fill="#ead8c5"></path> <path d="M17,28a8,8,0,1,1,8-8A8.009,8.009,0,0,1,17,28Z" fill="#ead8c5"></path> <path d="M31,28a8,8,0,1,1,8-8A8.009,8.009,0,0,1,31,28Z" fill="#ead8c5"></path> <path d="M33,29a1,1,0,0,0-1-1H16a1,1,0,0,0-1,1v1H33Z" fill="#fff"></path> <path d="M15.059,30a9,9,0,0,0,17.882,0Z" fill="#444"></path> <path d="M19.114,36.547a8.942,8.942,0,0,0,9.772,0,5.96,5.96,0,0,0-9.772,0Z" fill="#fa645a"></path> <path d="M21,7a8.277,8.277,0,0,1,8-7c-2,1-1,6-1,6Z" fill="#87613e"></path> <circle cx="22" cy="25" r="1" fill="#c6a279"></circle> <circle cx="26" cy="25" r="1" fill="#c6a279"></circle> <path d="M9,47a4,4,0,0,1-3.894-4.928l5-21a4,4,0,1,1,7.782,1.854l-5,21A4,4,0,0,1,9,47Z" fill="#a67c52"></path> <path d="M17.126,16.01l1.614-5.379a1.532,1.532,0,0,0-2.934-.88L14.192,15.13a1.021,1.021,0,1,1-1.956-.587l1.321-4.4a1.532,1.532,0,0,0-2.934-.881L7.987,18.049,6.548,15.377a2.042,2.042,0,1,0-3.595,1.936s4.552,8.426,4.875,9.021a6.363,6.363,0,0,0,2.9,2.622,6.645,6.645,0,0,0,9.085-4.145l3.52-11.735A1.532,1.532,0,1,0,20.4,12.2l-1.32,4.4a1.021,1.021,0,0,1-1.956-.587Z" fill="#eebc99"></path> <path d="M39,47a4,4,0,0,1-3.888-3.074l-5-21a4,4,0,1,1,7.782-1.854l5,21A4,4,0,0,1,39,47Z" fill="#a67c52"></path> <path d="M30.874,16.01,29.26,10.631a1.532,1.532,0,0,1,2.934-.88l1.614,5.379a1.021,1.021,0,1,0,1.956-.587l-1.321-4.4a1.532,1.532,0,0,1,2.934-.881l2.636,8.787,1.439-2.672a2.042,2.042,0,1,1,3.595,1.936s-4.552,8.426-4.875,9.021a6.363,6.363,0,0,1-2.9,2.622,6.645,6.645,0,0,1-9.085-4.145l-3.52-11.735A1.532,1.532,0,0,1,27.6,12.2l1.32,4.4a1.021,1.021,0,0,0,1.956-.587Z" fill="#eebc99"></path></svg>