<svg xmlns="http://www.w3.org/2000/svg" height="48" width="48" viewBox="0 0 48 48"><path d="M24,46A22,22,0,1,1,46,24,22.025,22.025,0,0,1,24,46Z" fill="#ffd764"></path> <path d="M15,24a3,3,0,1,1,3-3A3,3,0,0,1,15,24Z" fill="#444"></path> <path d="M33,24a3,3,0,1,1,3-3A3,3,0,0,1,33,24Z" fill="#444"></path> <path d="M33,34H15a1,1,0,0,1,0-2H33a1,1,0,0,1,0,2Z" fill="#444"></path> <path d="M18,37a1,1,0,0,1-1-1V30a1,1,0,0,1,2,0v6A1,1,0,0,1,18,37Z" fill="#444"></path> <path d="M24,37a1,1,0,0,1-1-1V30a1,1,0,0,1,2,0v6A1,1,0,0,1,24,37Z" fill="#444"></path> <path d="M30,37a1,1,0,0,1-1-1V30a1,1,0,0,1,2,0v6A1,1,0,0,1,30,37Z" fill="#444"></path></svg>