<svg xmlns="http://www.w3.org/2000/svg" height="48" width="48" viewBox="0 0 48 48"><path d="M36,32a3,3,0,0,1-2.99-2.751c-.528-1.7-5.174-8.17-7.131-10.128-.967-.947-6.465-3.524-10.993-5.336a3,3,0,0,1,2.228-5.571c2.48.993,10.747,4.4,13.007,6.665.72.719,8.844,10.212,8.844,14.125A2.967,2.967,0,0,1,36,32Z" fill="#e2ac4b"></path> <path d="M39,29c0-5.606-3.729-15.971-6.879-19.121C29.473,7.23,21.527,2.062,20.63,1.481a3,3,0,0,0-3.26,5.038c2.29,1.481,8.642,5.736,10.509,7.6a8.3,8.3,0,0,1,1.2,1.781A14.922,14.922,0,0,0,12.75,20.078a3,3,0,0,0,4.5,3.97,8.076,8.076,0,0,1,4.487-2.573c4.246-.683,6.806,1.733,7.514,4.087a9.509,9.509,0,0,1-1.876,8.832C25.844,36.406,22.062,37.458,19,36a7.6,7.6,0,0,1-4-6,3.15,3.15,0,0,0-3-3,3,3,0,0,0-3,3,14.986,14.986,0,0,0,7,12.666V46a1,1,0,0,0,1,1H33a1,1,0,0,0,1-1V41.149A14.951,14.951,0,0,0,39,30Z" fill="#ffd764"></path></svg>