<svg xmlns="http://www.w3.org/2000/svg" height="48" width="48" viewBox="0 0 48 48"><path d="M12.445,3.707a3.268,3.268,0,0,1,3.95,2.4,25.024,25.024,0,0,1,.667,8.33l0,0c.79,1.857,2.712,1.835,5.053.5L32.291,30.671h0l10.124-3.366a2.725,2.725,0,0,1,1.719,5.171s-10.153,3.291-11.286,3.752-6.038,3.357-6.038,3.357c-3.262,1.942-8.011,3.408-10.554,2.121l-3.18,2.454a1.09,1.09,0,0,1-1.528-.2L2.227,31.884a1.09,1.09,0,0,1,.2-1.529L5.6,27.9c-.589-2.738,1.466-6.272,3.448-8.863,1.223-1.925,2.361-5.762.992-11.382A3.269,3.269,0,0,1,12.445,3.707Z" fill="#ffd764"></path> <path d="M29.933,31.446a3.27,3.27,0,0,1-1.544-6.153L33.242,22.7a3.269,3.269,0,0,1,3.082,5.766l-4.853,2.594A3.244,3.244,0,0,1,29.933,31.446Z" fill="#ffd764"></path> <path d="M26.124,26.077a3.27,3.27,0,0,1-1.565-6.142l5.5-2.992a3.269,3.269,0,1,1,3.125,5.742l-5.5,2.993A3.256,3.256,0,0,1,26.124,26.077Z" fill="#ffd764"></path> <path d="M23.006,20.344a3.27,3.27,0,0,1-1.58-6.134l4.91-2.7a3.269,3.269,0,1,1,3.153,5.728l-4.91,2.7A3.247,3.247,0,0,1,23.006,20.344Z" fill="#ffd764"></path> <path d="M29.933,32.446a4.27,4.27,0,0,1-2.015-8.035,1,1,0,0,1,.942,1.764,2.27,2.27,0,0,0-.931,3.07,2.31,2.31,0,0,0,3.07.932l4.854-2.593a1,1,0,1,1,.942,1.764L31.942,31.94A4.265,4.265,0,0,1,29.933,32.446Z" fill="#e2ac4b"></path> <path d="M26.125,27.077a4.269,4.269,0,0,1-2.043-8.02,1,1,0,1,1,.955,1.757,2.268,2.268,0,0,0-.909,3.077,2.318,2.318,0,0,0,3.078.909l5.5-2.993a1,1,0,0,1,.956,1.757l-5.5,2.993A4.287,4.287,0,0,1,26.125,27.077Z" fill="#e2ac4b"></path> <path d="M23.006,21.345a4.27,4.27,0,0,1-4.036-5.673,1,1,0,0,1,1.889.656,2.275,2.275,0,0,0,.155,1.84,2.322,2.322,0,0,0,3.081.894l4.911-2.7a1,1,0,1,1,.964,1.752l-4.909,2.7A4.249,4.249,0,0,1,23.006,21.345Z" fill="#e2ac4b"></path></svg>