<svg xmlns="http://www.w3.org/2000/svg" height="48" width="48" viewBox="0 0 48 48"><path d="M24,46A22,22,0,1,1,46,24,22.025,22.025,0,0,1,24,46Z" fill="#ffd764"></path> <path d="M24,37a1,1,0,0,1,0-2,7.041,7.041,0,0,0,6.83-5.481,1,1,0,1,1,1.953.431A9.053,9.053,0,0,1,24,37Z" fill="#444"></path> <circle cx="34" cy="21" r="3" fill="#444"></circle> <circle cx="14" cy="21" r="6" fill="#444"></circle> <path d="M3.369,31.637a21.727,21.727,0,0,0,.877,2.035L30.992,3.146a21.525,21.525,0,0,0-2.135-.6Z" fill="#444"></path></svg>