<svg xmlns="http://www.w3.org/2000/svg" height="48" width="48" viewBox="0 0 48 48"><path d="M25,8a9.344,9.344,0,0,0,6.11-2.268,11.054,11.054,0,0,0,1.547-1.576,6.934,6.934,0,0,0,.486-.671A1,1,0,0,1,35,4V14a8,8,0,0,1-8,8H20.293A7.2,7.2,0,0,1,13,15.217,7,7,0,0,1,20,8Z" fill="#a67c52"></path> <path d="M14,32a7,7,0,0,1,0-14H34a7,7,0,0,1,0,14Z" fill="#a67c52"></path> <path d="M40,44H8A7,7,0,0,1,8,30H40a7,7,0,0,1,0,14Z" fill="#a67c52"></path> <circle cx="17" cy="24" r="4" fill="#fff"></circle> <circle cx="31" cy="24" r="4" fill="#fff"></circle> <circle cx="17" cy="24" r="2" fill="#444"></circle> <circle cx="31" cy="24" r="2" fill="#444"></circle> <path d="M24,40a7.008,7.008,0,0,1-7-7,1,1,0,0,1,2,0,5,5,0,0,0,10,0,1,1,0,0,1,2,0A7.008,7.008,0,0,1,24,40Z" fill="#444"></path></svg>