<svg xmlns="http://www.w3.org/2000/svg" height="48" width="48" viewBox="0 0 48 48"><path d="M24,46A22,22,0,1,1,46,24,22.025,22.025,0,0,1,24,46Z" fill="#ffd764"></path> <path d="M14,25a3,3,0,1,1,3-3A3,3,0,0,1,14,25Z" fill="#444"></path> <path d="M34,25a3,3,0,1,1,3-3A3,3,0,0,1,34,25Z" fill="#444"></path> <path d="M21,43a1,1,0,0,1-1-1V32a1,1,0,0,1,2,0V42A1,1,0,0,1,21,43Z" fill="#444"></path> <path d="M27,43a1,1,0,0,1-1-1V32a1,1,0,0,1,2,0V42A1,1,0,0,1,27,43Z" fill="#444"></path> <rect x="15" y="39" width="17" height="3" fill="#e86c60"></rect> <path d="M45.972,22.9C40.536,29.326,36.623,29.346,34,29c-4.37-.576-5.592-4-10-4s-5.63,3.424-10,4c-2.623.346-6.536.326-11.972-6.1C2.01,23.261,2,23.629,2,24a22,22,0,0,0,44,0C46,23.629,45.99,23.261,45.972,22.9ZM28,41H20a4,4,0,0,1,0-8h8a4,4,0,0,1,0,8Z" fill="#87613e"></path> <path d="M29,39h2a1,1,0,0,1,1,1v5.5A1.5,1.5,0,0,1,30.5,47h0A1.5,1.5,0,0,1,29,45.5V39A0,0,0,0,1,29,39Z" fill="#e86c60"></path></svg>