<svg xmlns="http://www.w3.org/2000/svg" height="48" width="48" viewBox="0 0 48 48"><path d="M24,46A22,22,0,1,1,46,24,22.025,22.025,0,0,1,24,46Z" fill="#ffd764"></path> <path d="M10,16a.982.982,0,0,1-.5-.134A1,1,0,0,1,9.134,14.5a9.034,9.034,0,0,1,7.8-4.5,1,1,0,0,1,0,2,7.027,7.027,0,0,0-6.064,3.5A1,1,0,0,1,10,16Z" fill="#444"></path> <path d="M38,16a1,1,0,0,1-.867-.5A7.027,7.027,0,0,0,31.07,12a1,1,0,0,1,0-2,9.034,9.034,0,0,1,7.8,4.5,1,1,0,0,1-.366,1.366A.982.982,0,0,1,38,16Z" fill="#444"></path> <circle cx="33" cy="20" r="3" fill="#444"></circle> <circle cx="15" cy="20" r="3" fill="#444"></circle> <circle cx="24" cy="33" r="4" fill="#444"></circle> <path d="M35,43H30a2,2,0,0,1,0-4h5a2,2,0,0,1,0,4Z" fill="#ce8b29"></path> <path d="M32,35H26V28a2,2,0,0,0-4,0V44a3,3,0,0,0,3,3h6a3,3,0,0,0,3-3V37A2,2,0,0,0,32,35Z" fill="#e2ac4b"></path> <path d="M34,40H30a1,1,0,0,1,0-2h4Z" fill="#ce8b29"></path> <path d="M34,44H30a1,1,0,0,1,0-2h4Z" fill="#ce8b29"></path></svg>