<svg xmlns="http://www.w3.org/2000/svg" height="48" width="48" viewBox="0 0 48 48"><path d="M24,46A22,22,0,1,1,46,24,22.025,22.025,0,0,1,24,46Z" fill="#ffd764"></path> <path d="M14,25a3,3,0,1,1,3-3A3,3,0,0,1,14,25Z" fill="#444"></path> <path d="M34,25a3,3,0,1,1,3-3A3,3,0,0,1,34,25Z" fill="#444"></path> <path d="M33,32a1,1,0,0,0-1-1H16a1,1,0,0,0-1,1v1H33Z" fill="#fff"></path> <path d="M15.059,33a9,9,0,0,0,17.882,0Z" fill="#ae453e"></path> <path d="M19.114,39.547a8.942,8.942,0,0,0,9.772,0,5.96,5.96,0,0,0-9.772,0Z" fill="#fa645a"></path></svg>