<svg xmlns="http://www.w3.org/2000/svg" height="48" width="48" viewBox="0 0 48 48"><path d="M4,23H7a0,0,0,0,1,0,0V35a0,0,0,0,1,0,0H4a2,2,0,0,1-2-2V25A2,2,0,0,1,4,23Z" fill="#b3b3b3"></path> <path d="M43,23h3a0,0,0,0,1,0,0V35a0,0,0,0,1,0,0H43a2,2,0,0,1-2-2V25a2,2,0,0,1,2-2Z" transform="translate(87 58) rotate(-180)" fill="#b3b3b3"></path> <path d="M35,47H13a2,2,0,0,1-2-2V42H37v3A2,2,0,0,1,35,47Z" fill="#b3b3b3"></path> <path d="M15,16V6a1,1,0,0,1,2,0V16a1,1,0,0,1-2,0Z" fill="#444"></path> <path d="M31,16V6a1,1,0,0,1,2,0V16a1,1,0,0,1-2,0Z" fill="#444"></path> <circle cx="16" cy="5" r="4" fill="#84c459"></circle> <circle cx="32" cy="5" r="4" fill="#fa645a"></circle> <rect x="6" y="13" width="36" height="32" rx="2" ry="2" fill="#e0e0e0"></rect> <circle cx="16" cy="24" r="4" fill="#fff"></circle> <path d="M16,29a5,5,0,1,1,5-5A5.006,5.006,0,0,1,16,29Zm0-8a3,3,0,1,0,3,3A3,3,0,0,0,16,21Z" fill="#444"></path> <circle cx="32" cy="24" r="4" fill="#fff"></circle> <path d="M32,29a5,5,0,1,1,5-5A5.006,5.006,0,0,1,32,29Zm0-8a3,3,0,1,0,3,3A3,3,0,0,0,32,21Z" fill="#444"></path> <rect x="11" y="35" width="26" height="6" fill="#fff"></rect> <path d="M37,42H11a1,1,0,0,1-1-1V35a1,1,0,0,1,1-1H37a1,1,0,0,1,1,1v6A1,1,0,0,1,37,42ZM12,40H36V36H12Z" fill="#444"></path></svg>