<svg xmlns="http://www.w3.org/2000/svg" height="48" width="48" viewBox="0 0 48 48"><path d="M12,14a1,1,0,0,1-1-1V6.129a1,1,0,1,1,2,0V13A1,1,0,0,1,12,14Z" fill="#444"></path> <path d="M28,14a1,1,0,0,1-1-1V6.129a1,1,0,1,1,2,0V13A1,1,0,0,1,28,14Z" fill="#444"></path> <path d="M20,47A19,19,0,1,1,39,28,19.021,19.021,0,0,1,20,47Z" fill="#ffd764"></path> <path d="M20,11a1,1,0,0,1-1-1V4a1,1,0,0,1,2,0v6A1,1,0,0,1,20,11Z" fill="#444"></path> <path d="M15,23H10a1,1,0,0,1,0-2h5a1,1,0,0,1,0,2Z" fill="#444"></path> <path d="M30,23H25a1,1,0,0,1,0-2h5a1,1,0,0,1,0,2Z" fill="#444"></path> <path d="M20,39a4,4,0,1,1,4-4A4.005,4.005,0,0,1,20,39Z" fill="#ae453e"></path> <path d="M45.5,1A1.5,1.5,0,0,0,44,2.5V5a1,1,0,0,1-1,1H39a1,1,0,0,1-1-1V2.5a1.5,1.5,0,0,0-3,0V6A6,6,0,0,0,47,6V2.5A1.5,1.5,0,0,0,45.5,1Z" fill="#ffd764"></path> <rect x="37" y="12" width="8" height="3" rx="1" ry="1" fill="#444"></rect></svg>