<svg xmlns="http://www.w3.org/2000/svg" height="48" width="48" viewBox="0 0 48 48"><path d="M24,46A22,22,0,1,1,46,24,22.025,22.025,0,0,1,24,46Z" fill="#ffd764"></path> <path d="M38,16a5.006,5.006,0,0,1-5-5c0-2.362,3.447-8.334,4.139-9.507a1.038,1.038,0,0,1,1.722,0C39.553,2.666,43,8.638,43,11A5.006,5.006,0,0,1,38,16Z" fill="#43a6dd"></path> <path d="M17.292,37a1,1,0,0,1-.745-1.667,10,10,0,0,1,14.906,0,1,1,0,1,1-1.49,1.334,8,8,0,0,0-11.926,0A1,1,0,0,1,17.292,37Z" fill="#444"></path> <path d="M37,22a1,1,0,0,0-1,1,2,2,0,0,1-4,0,1,1,0,0,0-2,0,4,4,0,0,0,8,0A1,1,0,0,0,37,22Z" fill="#444"></path> <path d="M11,22a1,1,0,0,1,1,1,2,2,0,0,0,4,0,1,1,0,0,1,2,0,4,4,0,0,1-8,0A1,1,0,0,1,11,22Z" fill="#444"></path></svg>