<svg xmlns="http://www.w3.org/2000/svg" height="48" width="48" viewBox="0 0 48 48"><path d="M24,46A22,22,0,1,1,46,24,22.025,22.025,0,0,1,24,46Z" fill="#ffd764"></path> <path d="M36,23a1,1,0,0,1-1-1,2,2,0,0,0-4,0,1,1,0,0,1-2,0,4,4,0,0,1,8,0A1,1,0,0,1,36,23Z" fill="#444"></path> <path d="M12,23a1,1,0,0,0,1-1,2,2,0,0,1,4,0,1,1,0,0,0,2,0,4,4,0,0,0-8,0A1,1,0,0,0,12,23Z" fill="#444"></path> <path d="M24,41a11.973,11.973,0,0,1-11.807-9.907,1,1,0,1,1,1.969-.348,9.99,9.99,0,0,0,19.676,0,1,1,0,1,1,1.969.348A11.973,11.973,0,0,1,24,41Z" fill="#444"></path></svg>