<svg xmlns="http://www.w3.org/2000/svg" height="48" width="48" style="" viewBox="0 0 48 48"><defs> <linearGradient id="scream-face-linear-gradient" x1="24" y1="46" x2="24" y2="2" gradientUnits="userSpaceOnUse"> <stop offset="0.464" stop-color="#ffd764"></stop> <stop offset="0.755" stop-color="#458bc4"></stop> </linearGradient> </defs> <circle cx="24" cy="24" r="22" fill="url(#scream-face-linear-gradient)"></circle> <circle cx="15" cy="23" r="5" fill="#fff"></circle> <circle cx="33" cy="23" r="5" fill="#fff"></circle> <path d="M24,44c-2.757,0-5-3.365-5-7.5S21.243,29,24,29s5,3.365,5,7.5S26.757,44,24,44Z" fill="#ae453e"></path> <ellipse cx="24" cy="41" rx="3.974" ry="3" fill="#fa645a"></ellipse> <path d="M10.091,28.893a2.929,2.929,0,0,0-4.642,3.543A22.6,22.6,0,0,1,6.9,37.229a22.7,22.7,0,0,1,.1,7.618A1,1,0,0,0,7.993,46h8a1,1,0,0,0,1-1.017,23.268,23.268,0,0,0-2.265-9.625A22.89,22.89,0,0,0,10.091,28.893Z" fill="#e2ac4b"></path> <path d="M42.106,28.734a2.974,2.974,0,0,0-4.18.135,22.961,22.961,0,0,0-4.661,6.489A23.268,23.268,0,0,0,31,44.983,1,1,0,0,0,32,46h8a1,1,0,0,0,.988-1.153,22.616,22.616,0,0,1,1.556-12.411A2.966,2.966,0,0,0,42.106,28.734Z" fill="#e2ac4b"></path></svg>