<svg xmlns="http://www.w3.org/2000/svg" height="48" width="48" viewBox="0 0 48 48"><path d="M40.917,25.6a1,1,0,0,0-.775-.593l-7-1a1,1,0,0,0-.708.166l-13.5,9.278a3.986,3.986,0,0,1-4.149.234L2.471,27.117A1,1,0,0,0,1,28V46a1,1,0,0,0,1,1H22.355a8,8,0,0,0,6.554-3.412l11.91-17.015A.994.994,0,0,0,40.917,25.6Z" fill="#43a6dd"></path> <path d="M44,19H30a1,1,0,0,0-1,1v1a8,8,0,0,0,16,0V20A1,1,0,0,0,44,19Z" fill="#ffd764"></path> <path d="M32,21a2,2,0,0,1-1.75-1.028l-5-9a2,2,0,0,1,3.5-1.944l5,9A2,2,0,0,1,32,21Z" fill="#ffd764"></path> <path d="M43,1H39a1,1,0,0,0-1,1V23a1,1,0,0,0,1,1h4a1,1,0,0,0,1-1V2A1,1,0,0,0,43,1Z" fill="#444"></path> <rect x="30" y="2" width="11" height="21" fill="#badefc"></rect> <path d="M41,24H30a1,1,0,0,1-1-1V2a1,1,0,0,1,1-1H41a1,1,0,0,1,1,1V23A1,1,0,0,1,41,24ZM31,22h9V3H31Z" fill="#b3b3b3"></path> <path d="M45,10H42a2,2,0,0,1,0-4h3a2,2,0,0,1,0,4Z" fill="#ffd764"></path> <path d="M45,14H42a2,2,0,0,1,0-4h3a2,2,0,0,1,0,4Z" fill="#ffd764"></path> <path d="M45,18H42a2,2,0,0,1,0-4h3a2,2,0,0,1,0,4Z" fill="#ffd764"></path> <path d="M45,22H42a2,2,0,0,1,0-4h3a2,2,0,0,1,0,4Z" fill="#ffd764"></path></svg>