<svg xmlns="http://www.w3.org/2000/svg" height="48" width="48" viewBox="0 0 48 48"><path d="M24,46A22,22,0,1,1,46,24,22.025,22.025,0,0,1,24,46Z" fill="#72c472"></path> <path d="M14,26a3,3,0,1,1,3-3A3,3,0,0,1,14,26Z" fill="#444"></path> <path d="M34,26a3,3,0,1,1,3-3A3,3,0,0,1,34,26Z" fill="#444"></path> <path d="M9,20a1,1,0,0,1-.394-1.919l7-3a1,1,0,0,1,.788,1.838l-7,3A1,1,0,0,1,9,20Z" fill="#444"></path> <path d="M39,20a1,1,0,0,1-.394-.081l-7-3a1,1,0,0,1,.788-1.838l7,3A1,1,0,0,1,39,20Z" fill="#444"></path> <path d="M31.5,36.6a3,3,0,0,1,0-5.2,1,1,0,0,0-1-1.732A5.017,5.017,0,0,0,28.113,33H19.887A5.017,5.017,0,0,0,17.5,29.669a1,1,0,0,0-1,1.732,3,3,0,0,1,0,5.2,1,1,0,0,0,1,1.732A5.017,5.017,0,0,0,19.887,35h8.226A5.017,5.017,0,0,0,30.5,38.331a1,1,0,0,0,1-1.732Z" fill="#444"></path></svg>