<svg xmlns="http://www.w3.org/2000/svg" height="48" width="48" style="" viewBox="0 0 48 48"><defs> <linearGradient id="nc-sick-face-linear-gradient" x1="24" y1="46" x2="24" y2="2" gradientUnits="userSpaceOnUse"> <stop offset="0.464" stop-color="#ffd764"></stop> <stop offset="0.755" stop-color="#e86c60"></stop> </linearGradient> </defs> <circle cx="24" cy="24" r="22" fill="url(#nc-sick-face-linear-gradient)"></circle> <path d="M37,22a1,1,0,0,0-1,1,2,2,0,0,1-4,0,1,1,0,0,0-2,0,4,4,0,0,0,8,0A1,1,0,0,0,37,22Z" fill="#444"></path> <path d="M11,22a1,1,0,0,1,1,1,2,2,0,0,0,4,0,1,1,0,0,1,2,0,4,4,0,0,1-8,0A1,1,0,0,1,11,22Z" fill="#444"></path> <path d="M46.789,27.62a2,2,0,0,0-2.684-.894l-16,8a1.975,1.975,0,0,0-.694.586A9.263,9.263,0,0,1,30.5,38l15.392-7.7A2,2,0,0,0,46.789,27.62Z" fill="#e6e6e6"></path> <path d="M30.5,38l8.718-4.359-1.977-3.484-9.138,4.569a1.975,1.975,0,0,0-.694.586A9.263,9.263,0,0,1,30.5,38Z" fill="#e86c60"></path> <path d="M30.942,39.034a1,1,0,0,1-.868-.5,6.99,6.99,0,0,0-12.148,0,1,1,0,0,1-1.735-.994,8.989,8.989,0,0,1,15.618,0,1,1,0,0,1-.867,1.5Z" fill="#444"></path></svg>