<svg xmlns="http://www.w3.org/2000/svg" height="48" width="48" viewBox="0 0 48 48"><path d="M24,46A22,22,0,1,1,46,24,22.025,22.025,0,0,1,24,46Z" fill="#ffd764"></path> <path d="M17,21a1,1,0,0,1-1-1,2,2,0,0,0-4,0,1,1,0,0,1-2,0,4,4,0,0,1,8,0A1,1,0,0,1,17,21Z" fill="#444"></path> <path d="M37,21a1,1,0,0,1-1-1,2,2,0,0,0-4,0,1,1,0,0,1-2,0,4,4,0,0,1,8,0A1,1,0,0,1,37,21Z" fill="#444"></path> <path d="M33,28a1,1,0,0,0-1-1H16a1,1,0,0,0-1,1v1H33Z" fill="#fff"></path> <path d="M15.059,29a9,9,0,0,0,17.882,0Z" fill="#ae453e"></path> <path d="M24,33c-2.761,0-5,.239-5,3v4a5,5,0,0,0,10,0V36C29,33.239,26.761,33,24,33Z" fill="#fa645a"></path></svg>