<svg xmlns="http://www.w3.org/2000/svg" height="48" width="48" viewBox="0 0 48 48"><path d="M24,46A22,22,0,1,1,46,24,22.025,22.025,0,0,1,24,46Z" fill="#ffd764"></path> <path d="M37,21a1,1,0,0,0-1,1,2,2,0,0,1-4,0,1,1,0,0,0-2,0,4,4,0,0,0,8,0A1,1,0,0,0,37,21Z" fill="#444"></path> <path d="M11,21a1,1,0,0,1,1,1,2,2,0,0,0,4,0,1,1,0,0,1,2,0,4,4,0,0,1-8,0A1,1,0,0,1,11,21Z" fill="#444"></path> <path d="M24,41a5,5,0,1,1,5-5A5.006,5.006,0,0,1,24,41Z" fill="#ae453e"></path> <ellipse cx="24" cy="39" rx="3.974" ry="2" fill="#fa645a"></ellipse> <path d="M26.375,15.566H20V14.389L24.107,8.5h-4V7h6.153V8.172l-4.1,5.894h4.213Z" fill="#43a6dd"></path> <path d="M35.442,12H28V10.625l4.8-6.874H28.13V2h7.182V3.368l-4.788,6.881h4.918Z" fill="#43a6dd"></path> <path d="M45.93,17H37V15.35L42.754,7.1h-5.6V5h8.618V6.642L40.029,14.9h5.9Z" fill="#43a6dd"></path></svg>