<svg xmlns="http://www.w3.org/2000/svg" height="48" width="48" viewBox="0 0 48 48"><path d="M24,46A22,22,0,1,1,46,24,22.025,22.025,0,0,1,24,46Z" fill="#ffd764"></path> <path d="M17,25a1,1,0,0,1-1-1,2,2,0,0,0-4,0,1,1,0,0,1-2,0,4,4,0,0,1,8,0A1,1,0,0,1,17,25Z" fill="#444"></path> <path d="M37,25a1,1,0,0,1-1-1,2,2,0,0,0-4,0,1,1,0,0,1-2,0,4,4,0,0,1,8,0A1,1,0,0,1,37,25Z" fill="#444"></path> <path d="M22,40H20a2,2,0,0,1-2-2V33h6v5A2,2,0,0,1,22,40Z" fill="#fff"></path> <path d="M28,40H26a2,2,0,0,1-2-2V33h6v5A2,2,0,0,1,28,40Z" fill="#fff"></path> <path d="M31,35H17a1,1,0,0,1,0-2H31a1,1,0,0,1,0,2Z" fill="#444"></path></svg>