<svg xmlns="http://www.w3.org/2000/svg" height="48" width="48" viewBox="0 0 48 48"><path d="M24,46A22,22,0,1,1,46,24,22.025,22.025,0,0,1,24,46Z" fill="#ffd764"></path> <circle cx="38" cy="28" r="3" fill="#e86c60" opacity="0.5"></circle> <circle cx="10" cy="28" r="3" fill="#e86c60" opacity="0.5"></circle> <path d="M19,24a1,1,0,0,1-1-1,2,2,0,0,0-4,0,1,1,0,0,1-2,0,4,4,0,0,1,8,0A1,1,0,0,1,19,24Z" fill="#444"></path> <path d="M35,24a1,1,0,0,1-1-1,2,2,0,0,0-4,0,1,1,0,0,1-2,0,4,4,0,0,1,8,0A1,1,0,0,1,35,24Z" fill="#444"></path> <path d="M26.843,36.278l3.889-3.889a1.5,1.5,0,1,0-2.121-2.121l-3.889,3.889a1,1,0,1,1-1.414-1.414l3.182-3.182a1.5,1.5,0,0,0-2.122-2.122l-6.353,6.353V30.82a2,2,0,1,0-4,0s.012,9.38.014,10.044a6.235,6.235,0,0,0,1.287,3.609,6.507,6.507,0,0,0,9.758.644l8.486-8.485a1.5,1.5,0,0,0-2.122-2.122l-3.182,3.182a1,1,0,0,1-1.414-1.414Z" fill="#e2ac4b"></path></svg>