<svg xmlns="http://www.w3.org/2000/svg" height="48" width="48" viewBox="0 0 48 48"><path d="M24,45A22,22,0,1,1,46,23,22.025,22.025,0,0,1,24,45Z" fill="#ffd764"></path> <path d="M12,25a1,1,0,0,1-.448-1.895L15.764,21,11.553,18.9a1,1,0,0,1,.894-1.79l6,3a1,1,0,0,1,0,1.79l-6,3A1,1,0,0,1,12,25Z" fill="#444"></path> <path d="M36,25a1,1,0,0,1-.446-.105l-6-3a1,1,0,0,1,0-1.79l6-3a1,1,0,1,1,.894,1.79L32.236,21l4.211,2.105A1,1,0,0,1,36,25Z" fill="#444"></path> <path d="M32.01,37H15.99a1,1,0,0,1-1-1,9,9,0,0,1,18-.212A1.051,1.051,0,0,1,33.01,36,1,1,0,0,1,32.01,37Z" fill="#444"></path> <path d="M36.868,45.5l-12-21a1.04,1.04,0,0,0-1.736,0l-12,21A1,1,0,0,0,12.447,46.9C13.912,46.162,16.715,45,18,45a3.808,3.808,0,0,1,1.861.714,7.3,7.3,0,0,0,8.278,0A3.808,3.808,0,0,1,30,45c1.444,0,4.5,1.367,5.553,1.9A1,1,0,0,0,36.868,45.5Z" fill="#e6e6e6"></path> <path d="M20,42a1.036,1.036,0,0,1-.275-.038,1,1,0,0,1-.688-1.236l2-7a1,1,0,0,1,1.924.548l-2,7A1,1,0,0,1,20,42Z" fill="#b3b3b3"></path> <path d="M27.979,42a1,1,0,0,1-.961-.726l-2-7a1,1,0,1,1,1.923-.548l2,7a1,1,0,0,1-.687,1.236A1.048,1.048,0,0,1,27.979,42Z" fill="#b3b3b3"></path></svg>