<svg xmlns="http://www.w3.org/2000/svg" height="48" width="48" viewBox="0 0 48 48"><circle cx="24" cy="26" r="20" fill="#ffd764"></circle> <path d="M30,37H18a1,1,0,0,1,0-2H30a1,1,0,0,1,0,2Z" fill="#444"></path> <path d="M24,2h0A21,21,0,0,1,45,23v6a1,1,0,0,1-1,1H4a1,1,0,0,1-1-1V23A21,21,0,0,1,24,2Z" fill="#444"></path> <rect x="3" y="23" width="42" height="2" fill="#666"></rect> <rect x="10" y="21" width="28" height="6" rx="3" ry="3" fill="#e86c60"></rect> <path d="M35,28H13a4,4,0,0,1,0-8H35a4,4,0,0,1,0,8ZM13,22a2,2,0,0,0,0,4H35a2,2,0,0,0,0-4Z" fill="#666"></path></svg>