<svg xmlns="http://www.w3.org/2000/svg" height="48" width="48" viewBox="0 0 48 48"><path d="M24,46A22,22,0,1,1,46,24,22.025,22.025,0,0,1,24,46Z" fill="#ffd764"></path> <path d="M32,30H16a1,1,0,0,0-1,1,9,9,0,0,0,18,0A1,1,0,0,0,32,30Z" fill="#444"></path> <path d="M24,32c-2.761,0-5,.239-5,3v4a5,5,0,0,0,10,0V35C29,32.239,26.761,32,24,32Z" fill="#fa645a"></path> <path d="M12,26a1,1,0,0,1-.448-1.895L15.764,22,11.553,19.9a1,1,0,0,1,.894-1.79l6,3a1,1,0,0,1,0,1.79l-6,3A1,1,0,0,1,12,26Z" fill="#444"></path> <path d="M36,26a1,1,0,0,1-.446-.105l-6-3a1,1,0,0,1,0-1.79l6-3a1,1,0,1,1,.894,1.79L32.236,22l4.211,2.105A1,1,0,0,1,36,26Z" fill="#444"></path></svg>