<svg xmlns="http://www.w3.org/2000/svg" height="48" width="48" viewBox="0 0 48 48"><path d="M24,46A22,22,0,1,1,46,24,22.025,22.025,0,0,1,24,46Z" fill="#ffd764"></path> <path d="M15,25a3,3,0,1,1,3-3A3,3,0,0,1,15,25Z" fill="#444"></path> <path d="M33,25a3,3,0,1,1,3-3A3,3,0,0,1,33,25Z" fill="#444"></path> <path d="M31,35a1,1,0,0,1-.727-.312C26.312,30.5,18.38,32.928,18.3,32.954a1,1,0,0,1-.6-1.908c.373-.118,9.212-2.817,14.027,2.266A1,1,0,0,1,31,35Z" fill="#444"></path> <path d="M19,15.972a1,1,0,0,1-.743-.331c-2.823-3.137-7.772-.794-7.82-.769a1,1,0,0,1-.876-1.8c.256-.126,6.347-3.031,10.182,1.229A1,1,0,0,1,19,15.972Z" fill="#444"></path> <path d="M29,18a1,1,0,0,1-.827-1.561c.127-.187,3.182-4.583,10-3.425a1,1,0,0,1-.336,1.972c-5.547-.944-7.979,2.539-8,2.575A1,1,0,0,1,29,18Z" fill="#444"></path> <path d="M22,35H9V31a2,2,0,0,0-4,0V41a5.006,5.006,0,0,0,5,5h4a3,3,0,0,0,3-3V39h5a2,2,0,0,0,0-4Z" fill="#e2ac4b"></path></svg>