<svg xmlns="http://www.w3.org/2000/svg" height="48" width="48" viewBox="0 0 48 48"><path d="M24,46A22,22,0,1,1,46,24,22.025,22.025,0,0,1,24,46Z" fill="#ffd764"></path> <path d="M30,26a1,1,0,0,1-.516-1.857l5-3a1,1,0,0,1,1.029,1.715l-5,3A1,1,0,0,1,30,26Z" fill="#444"></path> <path d="M18,26a.991.991,0,0,1-.513-.143l-5-3a1,1,0,1,1,1.029-1.714l5,3A1,1,0,0,1,18,26Z" fill="#444"></path> <path d="M30.884,38.034a1,1,0,0,1-.869-.5,6.989,6.989,0,0,0-12.147,0,1,1,0,0,1-1.736-.994,8.989,8.989,0,0,1,15.618,0,1,1,0,0,1-.866,1.5Z" fill="#444"></path></svg>