<svg xmlns="http://www.w3.org/2000/svg" height="48" width="48" viewBox="0 0 48 48"><path d="M24,46A22,22,0,1,1,46,24,22.025,22.025,0,0,1,24,46Z" fill="#ffd764"></path> <path d="M31,26a1,1,0,0,1-.516-1.857l5-3a1,1,0,0,1,1.029,1.715l-5,3A1,1,0,0,1,31,26Z" fill="#444"></path> <path d="M17,26a.991.991,0,0,1-.513-.143l-5-3a1,1,0,1,1,1.029-1.714l5,3A1,1,0,0,1,17,26Z" fill="#444"></path> <path d="M32.02,39H16a1,1,0,0,1-1-1,9,9,0,0,1,18-.212A1.051,1.051,0,0,1,33.02,38,1,1,0,0,1,32.02,39Z" fill="#ae453e"></path> <path d="M28.9,39a5,5,0,0,0-9.8,0Z" fill="#fa645a"></path></svg>