<svg xmlns="http://www.w3.org/2000/svg" height="48" width="48" viewBox="0 0 48 48"><path d="M24,46A22,22,0,1,1,46,24,22.025,22.025,0,0,1,24,46Z" fill="#ffd764"></path> <path d="M12,25a1,1,0,0,1-.448-1.895L15.764,21,11.553,18.9a1,1,0,0,1,.894-1.79l6,3a1,1,0,0,1,0,1.79l-6,3A1,1,0,0,1,12,25Z" fill="#444"></path> <path d="M36,25a1,1,0,0,1-.446-.105l-6-3a1,1,0,0,1,0-1.79l6-3a1,1,0,1,1,.894,1.79L32.236,21l4.211,2.105A1,1,0,0,1,36,25Z" fill="#444"></path> <path d="M40,42a3.97,3.97,0,0,0-2.666,1.04,6.978,6.978,0,0,0-11.551-1.691,5.97,5.97,0,0,0-7.283-.213,5.978,5.978,0,0,0-8.433,1.457A3.954,3.954,0,0,0,8,42a4,4,0,0,0-4,4H44A4,4,0,0,0,40,42Z" fill="#72c472"></path> <circle cx="38" cy="36" r="2" fill="#72c472"></circle> <circle cx="11.5" cy="37.5" r="1.5" fill="#72c472"></circle> <path d="M14.134,30H33.866c-1.76-1.809-5.421-3-9.866-3S15.894,28.191,14.134,30Z" fill="#fff"></path> <path d="M14.134,30A3.579,3.579,0,0,0,13,32.5c0,3.136,4.729,5.5,11,5.5s11-2.364,11-5.5A3.579,3.579,0,0,0,33.866,30Z" fill="#ae453e"></path> <path d="M18,30V43a1,1,0,0,0,1,1H29a1,1,0,0,0,1-1V30Z" fill="#72c472"></path></svg>