<svg xmlns="http://www.w3.org/2000/svg" height="48" width="48" viewBox="0 0 48 48"><path d="M44.741,22.782a3,3,0,0,0-3.959-1.523,22.941,22.941,0,0,0-6.425,4.185v0c-1.792.467-2.829-1.194-2.431-3.454l3.21-15.673a2.5,2.5,0,1,0-4.9-1l-3.1,15.139L28.491,4.208a2.5,2.5,0,0,0-4.982-.416s-1.132,14.785-1.418,16.3a1.568,1.568,0,0,1-3.029.311L15.433,6.424a2.5,2.5,0,0,0-4.866,1.152L14.31,23.394a.15.15,0,0,1-.282.085h0L10.8,14.238a2.5,2.5,0,1,0-4.719,1.649s3.3,9.221,3.6,10.3.946,6.268.946,6.268c.417,3.459,2.014,7.731,4.375,8.857V45a1,1,0,0,0,1,1H30a1,1,0,0,0,1-1V41.315c2.319-1.106,3.734-4.581,4.506-7.473.713-1.967,2.862-4.945,7.712-7.1A3,3,0,0,0,44.741,22.782Z" fill="#ffd764"></path> <path d="M23,35a1,1,0,0,1-1-1c0-4.785,4.654-8,9-8a1,1,0,0,1,0,2c-3.311,0-7,2.464-7,6A1,1,0,0,1,23,35Z" fill="#e2ac4b"></path></svg>