<svg xmlns="http://www.w3.org/2000/svg" height="48" width="48" viewBox="0 0 48 48"><path d="M24,46A22,22,0,1,1,46,24,22.025,22.025,0,0,1,24,46Z" fill="#ffd764"></path> <path d="M34,29a7,7,0,1,1,7-7A7.008,7.008,0,0,1,34,29Z" fill="#fff"></path> <path d="M14,29a7,7,0,1,1,7-7A7.008,7.008,0,0,1,14,29Z" fill="#fff"></path> <path d="M31,37H17a1,1,0,0,1,0-2H31a1,1,0,0,1,0,2Z" fill="#444"></path> <path d="M14,25a3,3,0,1,1,3-3A3,3,0,0,1,14,25Z" fill="#444"></path> <path d="M34,25a3,3,0,1,1,3-3A3,3,0,0,1,34,25Z" fill="#444"></path></svg>