<svg xmlns="http://www.w3.org/2000/svg" height="48" width="48" viewBox="0 0 48 48"><path d="M24,46A22,22,0,1,1,46,24,22.025,22.025,0,0,1,24,46Z" fill="#ffd764"></path> <path d="M14,25a3,3,0,1,1,3-3A3,3,0,0,1,14,25Z" fill="#444"></path> <path d="M32,30H16a1,1,0,0,0-1,1,9,9,0,0,0,18,0A1,1,0,0,0,32,30Z" fill="#444"></path> <path d="M24,32c-2.761,0-5,.239-5,3v4a5,5,0,0,0,10,0V35C29,32.239,26.761,32,24,32Z" fill="#fa645a"></path> <path d="M36,24a1,1,0,0,1-.761-.351c-2.137-2.507-5.762-.769-5.8-.751a1,1,0,0,1-.88-1.8c1.74-.853,5.693-1.689,8.2,1.249A1,1,0,0,1,36,24Z" fill="#444"></path></svg>