<svg xmlns="http://www.w3.org/2000/svg" height="48" width="48" viewBox="0 0 48 48"><path d="M24,46A22,22,0,1,1,46,24,22.025,22.025,0,0,1,24,46Z" fill="#ffd764"></path> <path d="M35.6,32a11.932,11.932,0,0,0,.4-3,1,1,0,0,0-1-1H13a1,1,0,0,0-1,1,11.932,11.932,0,0,0,.395,3Z" fill="#fff"></path> <path d="M12.4,32A11.982,11.982,0,0,0,35.6,32Z" fill="#ae453e"></path> <path d="M18.014,39.385a11.9,11.9,0,0,0,11.972,0,6.985,6.985,0,0,0-11.972,0Z" fill="#fa645a"></path> <path d="M14,23a3,3,0,1,1,3-3A3,3,0,0,1,14,23Z" fill="#444"></path> <path d="M36,22a1,1,0,0,1-.761-.351c-2.137-2.507-5.762-.769-5.8-.751a1,1,0,0,1-.88-1.8c1.74-.853,5.693-1.689,8.2,1.249A1,1,0,0,1,36,22Z" fill="#444"></path></svg>