<svg xmlns="http://www.w3.org/2000/svg" height="24" width="24" viewBox="0 0 24 24"><circle cx="5" cy="3" r="2" fill="none" stroke="#61616b" stroke-width="2"></circle><path d="M5,8c-2.209,0-4,1.791-4,4H9c0-2.209-1.791-4-4-4Z" fill="none" stroke="#61616b" stroke-width="2"></path><circle cx="19" cy="14" r="2" fill="none" stroke="#61616b" stroke-width="2"></circle><path d="M19,19c-2.209,0-4,1.791-4,4h8c0-2.209-1.791-4-4-4Z" fill="none" stroke="#61616b" stroke-width="2"></path><path d="M4,16v2c0,.552,.448,1,1,1h6" fill="none" stroke="#61616b" stroke-width="2" data-color="color-2"></path><polyline points="9 22 12 19 9 16" fill="none" stroke="#61616b" stroke-width="2" data-color="color-2"></polyline><path d="M20,8v-2c0-.552-.448-1-1-1h-7s1,0,1,0" fill="none" stroke="#61616b" stroke-width="2" data-color="color-2"></path><polyline points="15 2 12 5 15 8" fill="none" stroke="#61616b" stroke-width="2" data-color="color-2"></polyline></svg>