<svg xmlns="http://www.w3.org/2000/svg" height="24" width="24" viewBox="0 0 24 24"><circle data-stroke="none" fill="#61616b" cx="8.5" cy="12.5" r="1.5" stroke-linejoin="miter" stroke="none"></circle> <circle data-stroke="none" fill="#61616b" cx="15.5" cy="12.5" r="1.5" stroke-linejoin="miter" stroke="none"></circle> <path data-color="color-2" fill="none" stroke="#61616b" stroke-width="2" d="M12,1 C5.925,1,1,5.925,1,12v9c0,0,3,2,11,2s11-2,11-2v-9C23,5.925,18.075,1,12,1z"></path> <path fill="none" stroke="#61616b" stroke-width="2" d="M14.289,4.336 c-2.535,2.524-5.911,4.204-9.672,4.582C4.22,9.867,4,10.908,4,12c0,4.418,3.582,8,8,8s8-3.582,8-8 C20,8.378,17.591,5.321,14.289,4.336z"></path></svg>