<svg xmlns="http://www.w3.org/2000/svg" height="24" width="24" viewBox="0 0 24 24"><circle cx="6.5" cy="3.5" r="2.5" fill="none" stroke="#61616b" stroke-width="2"></circle><circle cx="17.5" cy="3.5" r="2.5" fill="none" stroke="#61616b" stroke-width="2"></circle><circle cx="12" cy="15" r="2" fill="none" stroke="#61616b" stroke-width="2" data-color="color-2"></circle><polyline points="9 23 9 20 15 20 15 23" fill="none" stroke="#61616b" stroke-width="2" data-color="color-2"></polyline><line x1="5" y1="17" x2="9" y2="20" fill="none" stroke="#61616b" stroke-width="2" data-color="color-2"></line><line x1="19" y1="17" x2="15" y2="20" fill="none" stroke="#61616b" stroke-width="2" data-color="color-2"></line><path d="M1,20V14.5A5.5,5.5,0,0,1,6.5,9h0a5.476,5.476,0,0,1,3.163,1" fill="none" stroke="#61616b" stroke-width="2"></path><path d="M23,20V14.5A5.5,5.5,0,0,0,17.5,9h0a5.476,5.476,0,0,0-3.163,1" fill="none" stroke="#61616b" stroke-width="2"></path></svg>