<svg xmlns="http://www.w3.org/2000/svg" height="24" width="24" viewBox="0 0 24 24"><path d="M8,12A7.809,7.809,0,0,1,6,7c0-2,4-6,6-6s6,4,6,6a7.809,7.809,0,0,1-2,5" fill="none" stroke="#61616b" stroke-width="2"></path><path d="M10.891,5.74,9,7c0,3,2,4,3,4s3-1,3-4L13.109,5.74A2,2,0,0,0,10.891,5.74Z" fill="none" stroke="#61616b" stroke-width="2"></path><rect x="6" y="15" width="12" height="8" fill="none" stroke="#61616b" stroke-width="2" data-color="color-2"></rect><path d="M6.753,10.185,3.5,12.624a2,2,0,0,0-.7.968L1.391,17.827a2,2,0,0,0,.483,2.047L3,21" fill="none" stroke="#61616b" stroke-width="2" data-cap="butt"></path><path d="M17.247,10.186,20.5,12.624a2,2,0,0,1,.7.968l1.411,4.235a2,2,0,0,1-.483,2.047L21,21" fill="none" stroke="#61616b" stroke-width="2" data-cap="butt"></path></svg>