<svg xmlns="http://www.w3.org/2000/svg" height="24" width="24" viewBox="0 0 24 24"><path d="M12,11h2.5c.828,0,1.5,.672,1.5,1.5h0c0,.828-.672,1.5-1.5,1.5h-2.5" fill="none" stroke="#61616b" stroke-width="2" data-cap="butt" data-color="color-2"></path><polyline points="15 18 15 22 22 22" fill="none" stroke="#61616b" stroke-width="2" data-cap="butt" data-color="color-2"></polyline><path d="M12,1h3c2.761,0,5,2.239,5,5v7c0,2.761-2.239,5-5,5h-3" fill="none" stroke="#61616b" stroke-width="2" data-color="color-2"></path><circle cx="15.75" cy="7.25" r="1.25" fill="#61616b" data-color="color-2" data-stroke="none" stroke="none"></circle><line x1="23" y1="7" x2="23" y2="11" fill="none" stroke="#61616b" stroke-width="2" data-color="color-2"></line><path d="M4,9c3.277,0,6.176-1.583,8-4.018" fill="none" stroke="#61616b" stroke-width="2" data-cap="butt"></path><polyline points="1 23 9 21 9 17.71 9 19" fill="none" stroke="#61616b" stroke-width="2" data-cap="butt"></polyline><path d="M12,18V1h-1c-3.866,0-7,3.134-7,7v3c0,3.866,3.134,7,7,7h1Z" fill="none" stroke="#61616b" stroke-width="2"></path></svg>