<svg xmlns="http://www.w3.org/2000/svg" height="24" width="24" viewBox="0 0 24 24"><path d="M7,6h0c-1.381,0-2.5-1.119-2.5-2.5h0c0-1.381,1.119-2.5,2.5-2.5h0c1.381,0,2.5,1.119,2.5,2.5h0c0,1.381-1.119,2.5-2.5,2.5Z" fill="none" stroke="#61616b" stroke-width="2"></path><path d="M10,23H4v-7H2v-5c0-1.105,.895-2,2-2h6c1.105,0,2,.895,2,2v5h-2v7Z" fill="none" stroke="#61616b" stroke-width="2"></path><line x1="19" y1="6" x2="19" y2="18" fill="none" stroke="#61616b" stroke-width="2" data-cap="butt" data-color="color-2"></line><polyline points="22 15 19 18 16 15" fill="none" stroke="#61616b" stroke-width="2" data-color="color-2"></polyline></svg>