<svg xmlns="http://www.w3.org/2000/svg" height="24" width="24" viewBox="0 0 24 24"><polyline points="3 23 3 1 21 1 21 23" fill="none" stroke="#61616b" stroke-width="2"></polyline><path d="M14,23h-4v-5h-2v-5c0-1.105,.895-2,2-2h4c1.105,0,2,.895,2,2v5h-2v5Z" fill="none" stroke="#61616b" stroke-width="2" data-color="color-2"></path><path d="M12,8h0c-1.105,0-2-.895-2-2h0c0-1.105,.895-2,2-2h0c1.105,0,2,.895,2,2h0c0,1.105-.895,2-2,2Z" fill="none" stroke="#61616b" stroke-width="2" data-color="color-2"></path></svg>