<svg xmlns="http://www.w3.org/2000/svg" height="24" width="24" viewBox="0 0 24 24"><path d="M4,7h0c-1.105,0-2-.895-2-2h0c0-1.105,.895-2,2-2h0c1.105,0,2,.895,2,2h0c0,1.105-.895,2-2,2Z" fill="none" stroke="#61616b" stroke-width="2" data-color="color-2"></path><path d="M6,21H3v-4H1v-5c0-1.105,.895-2,2-2h1" fill="none" stroke="#61616b" stroke-width="2" data-color="color-2"></path><path d="M20,7h0c1.105,0,2-.895,2-2h0c0-1.105-.895-2-2-2h0c-1.105,0-2,.895-2,2h0c0,1.105,.895,2,2,2Z" fill="none" stroke="#61616b" stroke-width="2" data-color="color-2"></path><path d="M18,21h3v-4h2v-5c0-1.105-.895-2-2-2h-1" fill="none" stroke="#61616b" stroke-width="2" data-color="color-2"></path><path d="M12,6h0c-1.381,0-2.5-1.119-2.5-2.5h0c0-1.381,1.119-2.5,2.5-2.5h0c1.381,0,2.5,1.119,2.5,2.5h0c0,1.381-1.119,2.5-2.5,2.5Z" fill="none" stroke="#61616b" stroke-width="2"></path><path d="M15,23h-6v-6h-2v-6c0-1.105,.895-2,2-2h6c1.105,0,2,.895,2,2v6h-2v6Z" fill="none" stroke="#61616b" stroke-width="2"></path></svg>