<svg xmlns="http://www.w3.org/2000/svg" height="24" width="24" viewBox="0 0 24 24"><path d="M5.5,18h0c-2.485,0-4.5,2.015-4.5,4.5v.5H10v-.5c0-2.485-2.015-4.5-4.5-4.5Z" fill="none" stroke="#61616b" stroke-width="2"></path><circle cx="5.5" cy="12.5" r="2.5" fill="none" stroke="#61616b" stroke-width="2"></circle><path d="M18.5,18h0c-2.485,0-4.5,2.015-4.5,4.5v.5h9v-.5c0-2.485-2.015-4.5-4.5-4.5Z" fill="none" stroke="#61616b" stroke-width="2"></path><circle cx="18.5" cy="12.5" r="2.5" fill="none" stroke="#61616b" stroke-width="2"></circle><path d="M22,1H13c-.552,0-1,.448-1,1V10l4-4h6c.552,0,1-.448,1-1V2c0-.552-.448-1-1-1Z" fill="none" stroke="#61616b" stroke-width="2" data-color="color-2"></path></svg>