<svg xmlns="http://www.w3.org/2000/svg" height="24" width="24" viewBox="0 0 24 24"><path d="M12,13h0c-2.485,0-4.5,2.015-4.5,4.5v.5h9v-.5c0-2.485-2.015-4.5-4.5-4.5Z" fill="none" stroke="#61616b" stroke-width="2" data-color="color-2"></path><circle cx="12" cy="7.5" r="2.5" fill="none" stroke="#61616b" stroke-width="2" data-color="color-2"></circle><path d="M2,8V4c0-1.105,.895-2,2-2h4" fill="none" stroke="#61616b" stroke-width="2"></path><path d="M16,2h4c1.105,0,2,.895,2,2v4" fill="none" stroke="#61616b" stroke-width="2"></path><path d="M22,16v4c0,1.105-.895,2-2,2h-4" fill="none" stroke="#61616b" stroke-width="2"></path><path d="M8,22H4c-1.105,0-2-.895-2-2v-4" fill="none" stroke="#61616b" stroke-width="2"></path></svg>