<svg xmlns="http://www.w3.org/2000/svg" height="24" width="24" viewBox="0 0 24 24"><path data-color="color-2" fill="none" stroke="#61616b" stroke-width="2" d=" M18.999,17.857C20.851,18.402,22,19.161,22,20c0,1.657-4.477,3-10,3S2,21.657,2,20c0-0.839,1.149-1.598,3-2.142"></path> <path fill="none" stroke="#61616b" stroke-width="2" d="M14,20h-4v-5H8v-5 c0-1.105,0.895-2,2-2h4c1.105,0,2,0.895,2,2v5h-2V20z"></path> <path fill="none" stroke="#61616b" stroke-width="2" d="M12,5L12,5 c-1.105,0-2-0.895-2-2v0c0-1.105,0.895-2,2-2h0c1.105,0,2,0.895,2,2v0C14,4.105,13.105,5,12,5z"></path></svg>