<svg xmlns="http://www.w3.org/2000/svg" height="24" width="24" viewBox="0 0 24 24"><circle cx="10" cy="5.5" r="4.5" fill="none" stroke="#61616b" stroke-width="2"></circle><path d="M12,14.223c-.643-.146-1.313-.223-2-.223C5.029,14,1,18.029,1,23H11" fill="none" stroke="#61616b" stroke-width="2"></path><path d="M23.732,16.665c-.059-.182-.216-.313-.403-.341l-3.372-.489-1.509-3.057c-.168-.34-.729-.34-.896,0l-1.509,3.057-3.372,.489c-.188,.027-.345,.159-.403,.341-.059,.181-.01,.38,.127,.513l2.439,2.379-.576,3.359c-.032,.188,.045,.377,.199,.488,.154,.113,.358,.128,.526,.038l3.017-1.586,3.017,1.586c.073,.039,.152,.058,.232,.058,.104,0,.207-.032,.294-.096,.154-.111,.231-.301,.199-.488l-.576-3.359,2.439-2.379c.137-.133,.186-.332,.127-.513Z" fill="#61616b" data-color="color-2" data-stroke="none" stroke="none"></path></svg>