<svg xmlns="http://www.w3.org/2000/svg" height="24" width="24" viewBox="0 0 24 24"><circle cx="10" cy="5.5" r="4.5" fill="none" stroke="#61616b" stroke-width="2"></circle><path d="M11,14.055c-.328-.036-.662-.055-1-.055C5.029,14,1,18.029,1,23H10" fill="none" stroke="#61616b" stroke-width="2"></path><path d="M14.126,17c.444-1.725,2.01-3,3.874-3,1.48,0,2.772,.804,3.464,1.999" fill="none" stroke="#61616b" stroke-width="2" data-cap="butt" data-color="color-2"></path><path d="M23.166,14.203l-.346,3.517c-.015,.149-.156,.252-.302,.22l-3.452-.759c-.211-.046-.268-.32-.093-.446l3.797-2.758c.174-.127,.417,.012,.396,.227Z" fill="#61616b" data-color="color-2" data-stroke="none" stroke="none"></path><path d="M21.874,20c-.444,1.725-2.01,3-3.874,3-1.48,0-2.772-.804-3.464-1.999" fill="none" stroke="#61616b" stroke-width="2" data-cap="butt" data-color="color-2"></path><path d="M12.834,22.797l.346-3.517c.015-.149,.156-.252,.302-.22l3.452,.759c.211,.046,.268,.32,.093,.446l-3.797,2.758c-.174,.127-.417-.012-.396-.227Z" fill="#61616b" data-color="color-2" data-stroke="none" stroke="none"></path></svg>