<svg xmlns="http://www.w3.org/2000/svg" height="24" width="24" viewBox="0 0 24 24"><path d="M9,12h0c2.209,0,4-1.791,4-4v-2c0-2.209-1.791-4-4-4h0c-2.209,0-4,1.791-4,4v2c0,2.209,1.791,4,4,4Z" fill="none" stroke="#61616b" stroke-width="2"></path><line x1="23" y1="5" x2="17" y2="5" fill="none" stroke="#61616b" stroke-width="2" data-color="color-2"></line><line x1="23" y1="10" x2="17" y2="10" fill="none" stroke="#61616b" stroke-width="2" data-color="color-2"></line><line x1="23" y1="15" x2="20" y2="15" fill="none" stroke="#61616b" stroke-width="2" data-color="color-2"></line><path d="M4,14l-2,1-.674,4.717c-.172,1.205,.763,2.283,1.98,2.283h5.694s5.694,0,5.694,0c1.217,0,2.152-1.078,1.98-2.283l-.674-4.717-2-1" fill="none" stroke="#61616b" stroke-width="2"></path></svg>