<svg xmlns="http://www.w3.org/2000/svg" height="24" width="24" viewBox="0 0 24 24"><rect x="8" y="6" width="8" height="5" fill="none" stroke="#61616b" stroke-width="2" data-color="color-2"></rect><path d="M10,6V3c0-1.1,.9-2,2-2h0c1.1,0,2,.9,2,2v3" fill="none" stroke="#61616b" stroke-width="2" data-color="color-2"></path><path d="M5.5,18h0c-2.485,0-4.5,2.015-4.5,4.5v.5H10v-.5c0-2.485-2.015-4.5-4.5-4.5Z" fill="none" stroke="#61616b" stroke-width="2"></path><path d="M7.5,14c-.456,.607-1.182,1-2,1-1.381,0-2.5-1.119-2.5-2.5,0-1.209,.859-2.218,2-2.45" fill="none" stroke="#61616b" stroke-width="2" data-cap="butt"></path><path d="M16.5,14c.456,.607,1.182,1,2,1,1.381,0,2.5-1.119,2.5-2.5,0-1.209-.859-2.218-2-2.45" fill="none" stroke="#61616b" stroke-width="2" data-cap="butt"></path><path d="M18.5,18h0c-2.485,0-4.5,2.015-4.5,4.5v.5h9v-.5c0-2.485-2.015-4.5-4.5-4.5Z" fill="none" stroke="#61616b" stroke-width="2"></path></svg>