<svg xmlns="http://www.w3.org/2000/svg" height="24" width="24" viewBox="0 0 24 24"><path d="M9,13h0c2.209,0,4-1.791,4-4v-2c0-2.209-1.791-4-4-4h0c-2.209,0-4,1.791-4,4v2c0,2.209,1.791,4,4,4Z" fill="none" stroke="#61616b" stroke-width="2"></path><path d="M7.035,12.482l-5.035,2.518-.719,5.752c-.149,1.194,.782,2.248,1.985,2.248h5.734s5.734,0,5.734,0c1.203,0,2.134-1.054,1.985-2.248l-.719-5.752-5.035-2.518" fill="none" stroke="#61616b" stroke-width="2" data-cap="butt"></path><path d="M20,17h.639c1.236,0,2.176-1.11,1.973-2.329l-.612-3.671-4.647-2.323,.647,.323" fill="none" stroke="#61616b" stroke-width="2" data-color="color-2"></path><path d="M14.217,1.587c.498-.369,1.115-.587,1.783-.587h0c1.657,0,3,1.343,3,3v2c0,1.538-1.157,2.805-2.648,2.98" fill="none" stroke="#61616b" stroke-width="2" data-color="color-2"></path></svg>