<svg xmlns="http://www.w3.org/2000/svg" height="24" width="24" viewBox="0 0 24 24"><path d="M5.5,18h0c-2.485,0-4.5,2.015-4.5,4.5v.5H10v-.5c0-2.485-2.015-4.5-4.5-4.5Z" fill="none" stroke="#61616b" stroke-width="2"></path><circle cx="5.5" cy="12.5" r="2.5" fill="none" stroke="#61616b" stroke-width="2"></circle><path d="M18.5,18h0c-2.485,0-4.5,2.015-4.5,4.5v.5h9v-.5c0-2.485-2.015-4.5-4.5-4.5Z" fill="none" stroke="#61616b" stroke-width="2"></path><circle cx="18.5" cy="12.5" r="2.5" fill="none" stroke="#61616b" stroke-width="2"></circle><path d="M16,4.817c0,2.366-4,6.183-4,6.183,0,0-4-3.817-4-6.183,0-2.443,2.08-3.817,4-3.817s4,1.374,4,3.817Z" fill="none" stroke="#61616b" stroke-width="2" data-color="color-2"></path><circle cx="12" cy="5" r="1" fill="#61616b" data-color="color-2" data-stroke="none" stroke="none"></circle></svg>