<svg xmlns="http://www.w3.org/2000/svg" height="24" width="24" viewBox="0 0 24 24"><line fill="none" stroke="#61616b" stroke-width="2" x1="11" y1="18" x2="13" y2="18"></line> <path data-cap="butt" fill="none" stroke="#61616b" stroke-width="2" d="M20.572,14.946 C19.432,19.104,16.039,23,12,23h0c-4.022,0-7.418-3.915-8.572-8.054"></path> <path data-cap="butt" fill="none" stroke="#61616b" stroke-width="2" d="M3.514,7C4.754,3.512,8.087,1,12,1h0 c3.92,0,7.253,2.503,8.488,6"></path> <path data-color="color-2" fill="none" stroke="#61616b" stroke-width="2" d="M6,15H4 c-1.657,0-3-1.343-3-3V9c0-1.105,0.895-2,2-2h5c1.105,0,2,0.895,2,2v2C10,13.209,8.209,15,6,15z"></path> <path data-color="color-2" fill="none" stroke="#61616b" stroke-width="2" d="M18,15h2 c1.657,0,3-1.343,3-3V9c0-1.105-0.895-2-2-2h-5c-1.105,0-2,0.895-2,2v2C14,13.209,15.791,15,18,15z"></path> <line data-color="color-2" fill="none" stroke="#61616b" stroke-width="2" x1="10" y1="9" x2="14" y2="9"></line></svg>