<svg xmlns="http://www.w3.org/2000/svg" height="24" width="24" viewBox="0 0 24 24"><path d="M5.5,5h0c-1.381,0-2.5-1.119-2.5-2.5h0c0-1.381,1.119-2.5,2.5-2.5h0c1.381,0,2.5,1.119,2.5,2.5h0c0,1.381-1.119,2.5-2.5,2.5Z" fill="#61616b" data-stroke="none" stroke="none"></path><path d="M8,23H3V15l-2-1,1-6c.5-.311,1.756-1,3.5-1,.589,0,2.019,.079,3.5,1,.333,2,.667,4,1,6l-2,1v8Z" fill="none" stroke="#61616b" stroke-width="2"></path><path d="M18.5,5h0c-1.381,0-2.5-1.119-2.5-2.5h0c0-1.381,1.119-2.5,2.5-2.5h0c1.381,0,2.5,1.119,2.5,2.5h0c0,1.381-1.119,2.5-2.5,2.5Z" fill="#61616b" data-color="color-2" data-stroke="none" stroke="none"></path><path d="M21,23h-5v-5h-2l2-10c.188-.179,1.085-.994,2.484-1,1.419-.006,2.331,.824,2.516,1,.667,3.333,1.333,6.667,2,10h-2v5Z" fill="none" stroke="#61616b" stroke-width="2" data-color="color-2"></path></svg>