<svg xmlns="http://www.w3.org/2000/svg" height="24" width="24" viewBox="0 0 24 24"><path d="M8.044,6h0c-1.417,0-2.5-1.083-2.5-2.5h0c0-1.417,1.083-2.5,2.5-2.5h0c1.417,0,2.5,1.083,2.5,2.5h0c0,1.417-1.083,2.5-2.5,2.5Z" fill="none" stroke="#61616b" stroke-width="2"></path><path d="M10.544,23H5.544v-5H2.544l2.544-7.632c.272-.817,1.037-1.368,1.897-1.368h2.117c.861,0,1.625,.551,1.897,1.368l2.544,7.632h-3v5Z" fill="none" stroke="#61616b" stroke-width="2"></path><line x1="19" y1="18" x2="19" y2="6" fill="none" stroke="#61616b" stroke-width="2" data-cap="butt" data-color="color-2"></line><polyline points="16 9 19 6 22 9" fill="none" stroke="#61616b" stroke-width="2" data-color="color-2"></polyline></svg>